<svg width="40" height="40" viewBox="0 0 40 40" fill="none" xmlns="http://www.w3.org/2000/svg">
<path d="M29.4161 9.56936C29.8324 9.56936 30.2315 9.7347 30.5258 10.029C30.8202 10.3233 30.9855 10.7225 30.9855 11.1387V23.6936C30.9855 24.1098 30.8202 24.509 30.5258 24.8033C30.2315 25.0976 29.8324 25.2629 29.4161 25.2629H14.3723C13.5399 25.2631 12.7417 25.5939 12.1532 26.1826L9.01451 29.3213V11.1387C9.01451 10.7225 9.17985 10.3233 9.47416 10.029C9.76847 9.7347 10.1676 9.56936 10.5839 9.56936H29.4161ZM10.5839 8C9.75143 8 8.95308 8.33068 8.36446 8.91931C7.77584 9.50793 7.44515 10.3063 7.44515 11.1387L7.44515 31.2155C7.44519 31.3708 7.49128 31.5225 7.5776 31.6516C7.66392 31.7806 7.78659 31.8812 7.93008 31.9405C8.07357 31.9998 8.23143 32.0152 8.38368 31.9848C8.53594 31.9543 8.67573 31.8794 8.78538 31.7695L13.2628 27.2921C13.557 26.9978 13.9561 26.8324 14.3723 26.8323H29.4161C30.2486 26.8323 31.0469 26.5016 31.6355 25.913C32.2242 25.3243 32.5549 24.526 32.5549 23.6936V11.1387C32.5549 10.3063 32.2242 9.50793 31.6355 8.91931C31.0469 8.33068 30.2486 8 29.4161 8H10.5839Z" fill="#ED145B"/>
<path d="M15.2919 17.4162C15.2919 17.8324 15.1266 18.2315 14.8323 18.5259C14.538 18.8202 14.1388 18.9855 13.7226 18.9855C13.3064 18.9855 12.9072 18.8202 12.6129 18.5259C12.3186 18.2315 12.1532 17.8324 12.1532 17.4162C12.1532 16.9999 12.3186 16.6008 12.6129 16.3065C12.9072 16.0121 13.3064 15.8468 13.7226 15.8468C14.1388 15.8468 14.538 16.0121 14.8323 16.3065C15.1266 16.6008 15.2919 16.9999 15.2919 17.4162ZM21.5694 17.4162C21.5694 17.8324 21.404 18.2315 21.1097 18.5259C20.8154 18.8202 20.4162 18.9855 20 18.9855C19.5838 18.9855 19.1846 18.8202 18.8903 18.5259C18.596 18.2315 18.4306 17.8324 18.4306 17.4162C18.4306 16.9999 18.596 16.6008 18.8903 16.3065C19.1846 16.0121 19.5838 15.8468 20 15.8468C20.4162 15.8468 20.8154 16.0121 21.1097 16.3065C21.404 16.6008 21.5694 16.9999 21.5694 17.4162ZM27.8468 17.4162C27.8468 17.8324 27.6814 18.2315 27.3871 18.5259C27.0928 18.8202 26.6936 18.9855 26.2774 18.9855C25.8612 18.9855 25.462 18.8202 25.1677 18.5259C24.8734 18.2315 24.7081 17.8324 24.7081 17.4162C24.7081 16.9999 24.8734 16.6008 25.1677 16.3065C25.462 16.0121 25.8612 15.8468 26.2774 15.8468C26.6936 15.8468 27.0928 16.0121 27.3871 16.3065C27.6814 16.6008 27.8468 16.9999 27.8468 17.4162Z" fill="#ED145B"/>
</svg>
