<svg width="40" height="40" viewBox="0 0 40 40" fill="none" xmlns="http://www.w3.org/2000/svg">
<path fill-rule="evenodd" clip-rule="evenodd" d="M27.795 22.2765C27.4719 22.144 27.126 22.0759 26.7768 22.0759C26.4504 22.0573 26.1243 22.1167 25.8254 22.249C25.5668 22.3738 25.3201 22.5218 25.0883 22.6913C24.8627 22.855 24.6563 23.0436 24.4729 23.2536C24.2946 23.4593 24.1215 23.6478 23.9518 23.8175C23.7977 23.9733 23.6315 24.1166 23.4547 24.2461C23.2761 24.374 23.0576 24.4334 22.8389 24.4136C22.6202 24.3938 22.4159 24.296 22.2633 24.1381C22.0746 23.9611 21.8872 23.7828 21.701 23.6033C21.461 23.3701 21.1662 23.089 20.8182 22.7581C20.454 22.4127 20.0923 22.0647 19.7331 21.7142L18.5674 20.576C17.8517 19.8762 17.1599 19.1524 16.4932 18.4058C16.2538 18.1425 16.03 17.8655 15.823 17.5761C15.6618 17.3447 15.5813 17.175 15.5813 17.067C15.5713 16.8735 15.6329 16.6831 15.7544 16.5321C15.8795 16.371 16.0287 16.2064 16.1967 16.035C16.3681 15.867 16.5549 15.687 16.7589 15.5002C16.9646 15.3116 17.1532 15.111 17.3229 14.8968C17.4909 14.6825 17.6349 14.4374 17.7515 14.1597C17.8663 13.8854 17.9246 13.5717 17.9246 13.2237C17.9246 12.5163 17.6455 11.8375 17.1481 11.3346C16.8278 11.0202 16.524 10.6895 16.2378 10.3438C15.9108 9.95436 15.5574 9.5878 15.1801 9.24672C14.814 8.9116 14.4141 8.61518 13.9871 8.36219C13.5992 8.12739 13.1548 8.00237 12.7014 8.00049C11.9946 8.00096 11.3165 8.27996 10.814 8.77703C10.3495 9.24158 9.94323 9.65642 9.59524 10.0233C9.26128 10.3706 8.9648 10.7521 8.71071 11.1615C8.46446 11.5677 8.28395 12.0103 8.17587 12.4729C8.05004 13.0446 7.99136 13.6291 8.00102 14.2145C8.00102 15.1608 8.15359 16.143 8.45701 17.1612C8.76042 18.1778 9.17012 19.1926 9.68781 20.2005C10.2055 21.2102 10.8363 22.201 11.5769 23.1747C12.3174 24.1467 13.1214 25.0706 13.9871 25.9466C14.8527 26.8208 15.7733 27.6299 16.7469 28.3705C17.7189 29.111 18.7149 29.7504 19.7331 30.2853C20.7496 30.8218 21.773 31.2401 22.7998 31.5435C23.7726 31.8392 24.783 31.9928 25.7997 31.9995C26.3808 31.9992 26.9601 31.9359 27.5276 31.8109C27.9953 31.7053 28.4428 31.5247 28.8527 31.2761C29.247 31.0361 29.6241 30.7412 29.9909 30.3932C30.3578 30.0435 30.7675 29.6424 31.2235 29.1864C31.7208 28.6835 31.9998 28.0047 32 27.2974C31.9806 26.9967 31.9218 26.6999 31.8251 26.4146C31.7249 26.1157 31.576 25.8354 31.3846 25.5849C31.1845 25.3223 30.9741 25.0678 30.7538 24.8221C30.5268 24.5678 30.2858 24.3263 30.0321 24.0987C29.7871 23.879 29.5414 23.6602 29.295 23.4421C29.0793 23.252 28.8695 23.0553 28.6659 22.8524C28.4175 22.6035 28.1213 22.4076 27.795 22.2765ZM27.1659 30.1378C26.7187 30.2453 26.2595 30.2949 25.7997 30.2853C24.9184 30.2686 24.0437 30.1289 23.2009 29.8704C22.258 29.5854 21.3469 29.204 20.4822 28.7322C18.5597 27.6795 16.8003 26.3531 15.259 24.7946C14.4756 24.0024 13.7379 23.1662 13.0494 22.2902C12.381 21.4432 11.79 20.5379 11.2837 19.5851C10.8119 18.7042 10.4255 17.78 10.1301 16.8253C9.86163 15.9672 9.72183 15.0741 9.71524 14.1751C9.7148 13.7189 9.7689 13.2642 9.87637 12.8209C9.97408 12.4472 10.1215 12.1112 10.3186 11.818C10.5141 11.5232 10.7558 11.2369 11.0403 10.9609C11.3266 10.6832 11.6523 10.361 12.0174 9.99583C12.1063 9.90443 12.2131 9.83231 12.331 9.78394C12.449 9.73558 12.5756 9.71201 12.7031 9.7147C12.8094 9.70613 12.974 9.77641 13.1968 9.92898C13.4197 10.0815 13.6614 10.2632 13.9202 10.4775C14.4792 10.9438 14.995 11.4596 15.4613 12.0186C15.6756 12.2757 15.8538 12.514 15.9961 12.7283C16.1384 12.9426 16.2104 13.1071 16.2104 13.2237C16.2258 13.4179 16.1635 13.6102 16.0373 13.7585C15.9121 13.9025 15.763 14.0671 15.595 14.2557C15.4236 14.4425 15.2367 14.6208 15.0327 14.7905C14.827 14.9602 14.6385 15.1608 14.4687 15.3922C14.2984 15.6257 14.1547 15.8776 14.0402 16.143C13.9194 16.4364 13.8605 16.7515 13.8671 17.0687C13.8756 17.4338 13.9476 17.7766 14.0813 18.0972C14.215 18.4195 14.407 18.7057 14.6573 18.9543L21.0445 25.3432C21.2902 25.5948 21.5842 25.7943 21.9087 25.9298C22.2333 26.0652 22.5818 26.1339 22.9335 26.1317C23.2552 26.1488 23.5764 26.0901 23.8712 25.9603C24.3862 25.7217 24.8465 25.3798 25.2237 24.9558C25.4123 24.7501 25.5837 24.5615 25.7466 24.3918C25.906 24.2238 26.0723 24.0798 26.242 23.9632C26.3982 23.852 26.585 23.7915 26.7768 23.7901C26.9019 23.7901 27.0716 23.8621 27.2859 24.0044C27.5002 24.1467 27.7368 24.3301 27.9956 24.5529C28.2544 24.7758 28.5219 25.0226 28.7996 25.29C29.0756 25.5575 29.3224 25.8249 29.5367 26.094C29.7492 26.3614 29.9292 26.6031 30.0715 26.8174C30.2138 27.0317 30.2858 27.1945 30.2858 27.3128C30.287 27.4375 30.2627 27.5612 30.2144 27.6762C30.166 27.7911 30.0947 27.895 30.0047 27.9813C29.6207 28.3568 29.295 28.6842 29.0276 28.9585C28.7677 29.2286 28.4804 29.471 28.1705 29.6818C27.8635 29.889 27.5239 30.0431 27.1659 30.1378ZM32 9.20729L24.0461 17.175H29.6824V18.8892H21.1113V10.3181H22.8255V15.9544L30.7949 8.00049L32 9.20558V9.20729Z" fill="#ED145B"/>
</svg>
