<svg width="58" height="58" viewBox="0 0 58 58" fill="none" xmlns="http://www.w3.org/2000/svg">
<path fill-rule="evenodd" clip-rule="evenodd" d="M29.9324 36.8219C29.9456 36.8087 29.9572 36.7971 29.9689 36.7854L29.9704 36.784L35.8037 30.5612C36.0764 30.2681 36.0647 29.8073 35.7702 29.5302C35.477 29.256 35.0147 29.2706 34.7391 29.5637L30.1672 34.4404L30.1672 20.7292C30.1672 20.3252 29.842 20 29.4381 20C29.0356 20 28.7089 20.3252 28.7089 20.7292L28.7089 34.4404L24.1385 29.5637C23.8614 29.2706 23.4006 29.256 23.1074 29.5302C22.9529 29.6746 22.877 29.8685 22.877 30.0625C22.877 30.2419 22.9427 30.4198 23.0724 30.5612L28.9058 36.784C28.916 36.7942 28.9277 36.8044 28.9379 36.816C28.9393 36.816 28.9393 36.816 28.9393 36.8175L28.9408 36.8175L28.9408 36.819C29.072 36.94 29.2456 37.0144 29.4381 37.0144C29.6291 37.0144 29.8027 36.9415 29.9324 36.8219Z" fill="#B6FFA2"/>
<circle cx="29" cy="29" r="28" stroke="#B6FFA2" stroke-width="2"/>
</svg>
