<svg width="50" height="50" viewBox="0 0 50 50" fill="none" xmlns="http://www.w3.org/2000/svg">
<path fill-rule="evenodd" clip-rule="evenodd" d="M50 24.9999C50 38.8071 38.8071 50 25.0001 50C11.1929 50 0 38.8071 0 24.9999C0 11.1929 11.1929 0 25.0001 0C38.8071 0 50 11.1929 50 24.9999Z" fill="#DAD4E7"/>
<path d="M20.9019 27.0911C20.9988 27.1879 20.9988 27.3449 20.902 27.4417L18.7984 29.5453C18.7016 29.6421 18.5446 29.6421 18.4477 29.5452L7.69416 18.7916C7.59733 18.6948 7.59731 18.5378 7.69413 18.441L9.7977 16.3374C9.89452 16.2406 10.0515 16.2406 10.1483 16.3375C10.8259 17.0151 11.9251 17.0153 12.6027 16.3377C13.28 15.6604 13.2799 14.5607 12.6025 13.8833C12.5057 13.7865 12.5057 13.6295 12.6025 13.5327L14.706 11.4291C14.8029 11.3323 14.9598 11.3323 15.0567 11.4291L25.8103 22.1827C25.9071 22.2795 25.9071 22.4365 25.8103 22.5333L23.7067 24.6369C23.6099 24.7337 23.4529 24.7337 23.3561 24.6369C22.6784 23.9592 21.5792 23.9592 20.9017 24.6367C20.2239 25.3144 20.224 26.4132 20.9019 27.0911Z" fill="#F2694A" stroke="#B61D83" stroke-width="0.5"/>
<path fill-rule="evenodd" clip-rule="evenodd" d="M15.3608 17.8687C15.7867 18.2946 16.4753 18.2965 16.8989 17.8729C17.3224 17.4493 17.3205 16.7607 16.8947 16.3348C16.4688 15.909 15.7802 15.9071 15.3566 16.3307C14.933 16.7542 14.9349 17.4428 15.3608 17.8687Z" stroke="white" stroke-width="0.5"/>
<path fill-rule="evenodd" clip-rule="evenodd" d="M14.4506 22.4804C14.8765 22.9063 15.5651 22.9082 15.9887 22.4846C16.4123 22.061 16.4104 21.3724 15.9845 20.9465C15.5586 20.5207 14.87 20.5188 14.4464 20.9423C14.0229 21.3659 14.0248 22.0545 14.4506 22.4804Z" stroke="white" stroke-width="0.5"/>
<path d="M22.1499 20.3333L16.5691 25.9141" stroke="white" stroke-width="0.5" stroke-linecap="square" stroke-dasharray="0.5 1"/>
<path d="M11.6765 20.3197L19.516 18.6492" stroke="white" stroke-width="0.5" stroke-linecap="round"/>
<path d="M24.242 31.1254C24.3789 31.1254 24.4899 31.2364 24.4899 31.3733V34.3482C24.4899 34.4851 24.3789 34.5961 24.242 34.5961H9.03409C8.89715 34.5961 8.78613 34.4851 8.78613 34.3482V31.3733C8.78613 31.2364 8.89715 31.1254 9.03409 31.1254C9.99235 31.1254 10.7698 30.3483 10.7698 29.39C10.7698 28.4322 9.99211 27.6547 9.03409 27.6547C8.89715 27.6547 8.78613 27.5437 8.78613 27.4068V24.4319C8.78613 24.295 8.89715 24.184 9.03409 24.184H24.242C24.3789 24.184 24.4899 24.295 24.4899 24.4319V27.4068C24.4899 27.5437 24.3789 27.6547 24.242 27.6547C23.2835 27.6547 22.5063 28.432 22.5063 29.39C22.5063 30.3486 23.2833 31.1254 24.242 31.1254Z" fill="#F2694A" stroke="#B61D83" stroke-width="0.5"/>
<path fill-rule="evenodd" clip-rule="evenodd" d="M13.8025 28.5225C14.4047 28.5225 14.893 28.0369 14.893 27.4379C14.893 26.8389 14.4047 26.3533 13.8025 26.3533C13.2002 26.3533 12.7119 26.8389 12.7119 27.4379C12.7119 28.0369 13.2002 28.5225 13.8025 28.5225Z" stroke="white" stroke-width="0.5"/>
<path fill-rule="evenodd" clip-rule="evenodd" d="M16.4196 32.427C17.0219 32.427 17.5102 31.9414 17.5102 31.3424C17.5102 30.7434 17.0219 30.2578 16.4196 30.2578C15.8174 30.2578 15.3291 30.7434 15.3291 31.3424C15.3291 31.9414 15.8174 32.427 16.4196 32.427Z" stroke="white" stroke-width="0.5"/>
<path d="M20.3455 25.4645V33.357" stroke="white" stroke-width="0.5" stroke-linecap="square" stroke-dasharray="0.5 1"/>
<path d="M12.93 32.8609L17.2922 26.1364" stroke="white" stroke-width="0.5" stroke-linecap="round"/>
<path fill-rule="evenodd" clip-rule="evenodd" d="M25.561 14.0436C25.6272 15.3906 25.631 16.9477 26.4277 18.0053C26.5478 18.1654 26.3692 18.3816 26.1983 18.2762C25.0538 17.5634 24.2002 16.639 23.1857 15.7816C23.0949 15.7046 23.101 15.5622 23.2011 15.496L25.4471 13.9851C25.4948 13.9528 25.5587 13.9859 25.561 14.0436Z" fill="#F7EBBF"/>
<path fill-rule="evenodd" clip-rule="evenodd" d="M31.5541 14.0436C31.4879 15.3906 31.4841 16.9477 30.6875 18.0053C30.5666 18.1654 30.7459 18.3816 30.9168 18.2762C32.0614 17.5634 32.915 16.639 33.9294 15.7816C34.0203 15.7046 34.0141 15.5622 33.914 15.496L31.6681 13.9851C31.6196 13.9528 31.5564 13.9859 31.5541 14.0436Z" fill="#F7EBBF"/>
<path fill-rule="evenodd" clip-rule="evenodd" d="M37.6397 21.4001V32.7271C37.6397 34.091 36.4097 35.1963 34.8926 35.1963H22.4565C20.941 35.1963 19.7102 34.091 19.7102 32.7271V21.4001H37.6397ZM37.6558 18.2297C38.3485 18.2297 38.9088 18.757 38.9088 19.4082V20.2071C38.9088 20.8583 38.3485 21.3855 37.6558 21.3855H19.8248C19.1336 21.3855 18.5732 20.8583 18.5732 20.2071V19.4082C18.5732 18.757 19.1336 18.2297 19.8248 18.2297H37.6558Z" fill="white"/>
<mask id="mask0" mask-type="alpha" maskUnits="userSpaceOnUse" x="18" y="18" width="21" height="18">
<path fill-rule="evenodd" clip-rule="evenodd" d="M19.8256 18.23C19.1344 18.23 18.5732 18.7572 18.5732 19.4084V20.2074C18.5732 20.8578 19.1344 21.3858 19.8256 21.3858H37.6558C38.3485 21.3858 38.9096 20.8578 38.9096 20.2074V19.4084C38.9096 18.7572 38.3485 18.23 37.6558 18.23H19.8256ZM19.7109 21.4004V32.7274C19.7109 34.0905 20.9409 35.1958 22.4572 35.1958H34.8926C36.4104 35.1958 37.6397 34.0905 37.6397 32.7274V21.4004H19.7109Z" fill="white"/>
</mask>
<g mask="url(#mask0)">
<path fill-rule="evenodd" clip-rule="evenodd" d="M-172.061 764.641H192.56V-165.141H-172.061V764.641Z" fill="white"/>
<path fill-rule="evenodd" clip-rule="evenodd" d="M13.7119 39.6924H43.7712V13.7334H13.7119V39.6924Z" fill="white"/>
</g>
<mask id="mask1" mask-type="alpha" maskUnits="userSpaceOnUse" x="28" y="17" width="1" height="1">
<path fill-rule="evenodd" clip-rule="evenodd" d="M28.207 17.9291C28.3333 17.9376 28.4603 17.9415 28.588 17.9415C28.4888 17.9415 28.391 17.9345 28.294 17.923C28.2655 17.9253 28.2363 17.9276 28.207 17.9291Z" fill="white"/>
</mask>
<g mask="url(#mask1)">
<path fill-rule="evenodd" clip-rule="evenodd" d="M23.7119 22.4381H33.0838V13.4271H23.7119V22.4381Z" fill="#74B7D8"/>
</g>
<mask id="mask2" mask-type="alpha" maskUnits="userSpaceOnUse" x="25" y="16" width="4" height="2">
<path fill-rule="evenodd" clip-rule="evenodd" d="M26.6109 17.7096C27.0881 17.8428 27.5853 17.929 28.0987 17.9606C28.128 17.9582 28.1564 17.9536 28.1849 17.9498C27.8686 17.9067 27.5668 17.8128 27.2905 17.6727C26.6801 17.4895 26.1036 17.2278 25.5771 16.8999C25.8581 17.244 26.2106 17.5226 26.6109 17.7096Z" fill="white"/>
</mask>
<g mask="url(#mask2)">
<path fill-rule="evenodd" clip-rule="evenodd" d="M21.0811 22.4579H32.6805V12.4041H21.0811V22.4579Z" fill="#FFFFFD"/>
</g>
<mask id="mask3" mask-type="alpha" maskUnits="userSpaceOnUse" x="28" y="17" width="1" height="1">
<path fill-rule="evenodd" clip-rule="evenodd" d="M28.5229 17.9498C28.6175 17.9622 28.7137 17.9722 28.8092 17.9799C28.8407 17.9752 28.8715 17.9699 28.9031 17.9645C28.8361 17.9529 28.7722 17.9391 28.7084 17.9229C28.646 17.9329 28.5852 17.9414 28.5229 17.9498Z" fill="white"/>
</mask>
<g mask="url(#mask3)">
<path fill-rule="evenodd" clip-rule="evenodd" d="M24.0273 22.4756H33.3993V13.427H24.0273V22.4756Z" fill="#74B7D8"/>
</g>
<mask id="mask4" mask-type="alpha" maskUnits="userSpaceOnUse" x="28" y="17" width="2" height="1">
<path fill-rule="evenodd" clip-rule="evenodd" d="M28.944 17.9306C29.0772 17.9391 29.2119 17.9437 29.3481 17.9437C29.2435 17.9437 29.1388 17.9368 29.0364 17.9229C29.0048 17.9252 28.9741 17.9283 28.944 17.9306Z" fill="white"/>
</mask>
<g mask="url(#mask4)">
<path fill-rule="evenodd" clip-rule="evenodd" d="M24.4482 22.4402H33.844V13.427H24.4482V22.4402Z" fill="#74B7D8"/>
</g>
<mask id="mask5" mask-type="alpha" maskUnits="userSpaceOnUse" x="28" y="17" width="2" height="1">
<path fill-rule="evenodd" clip-rule="evenodd" d="M28.8386 17.9375C28.8702 17.9398 28.9009 17.9429 28.9325 17.946C28.9625 17.9429 28.9933 17.9398 29.0249 17.9375C28.9933 17.9329 28.9625 17.9283 28.9325 17.9229C28.9009 17.9283 28.8702 17.9329 28.8386 17.9375Z" fill="white"/>
</mask>
<g mask="url(#mask5)">
<path fill-rule="evenodd" clip-rule="evenodd" d="M24.3428 22.4418H33.5207V13.427H24.3428V22.4418Z" fill="#74B7D8"/>
</g>
<mask id="mask6" mask-type="alpha" maskUnits="userSpaceOnUse" x="28" y="17" width="1" height="1">
<path fill-rule="evenodd" clip-rule="evenodd" d="M28.2064 17.9683C28.2357 17.9736 28.2649 17.9783 28.2934 17.9821C28.4004 17.9736 28.5066 17.9636 28.6121 17.9498C28.5505 17.9413 28.4882 17.9329 28.4266 17.9228C28.3542 17.9413 28.2803 17.9567 28.2064 17.9683Z" fill="white"/>
</mask>
<g mask="url(#mask6)">
<path fill-rule="evenodd" clip-rule="evenodd" d="M23.7114 22.4787H33.1087V13.427H23.7114V22.4787Z" fill="#74B7D8"/>
</g>
<mask id="mask7" mask-type="alpha" maskUnits="userSpaceOnUse" x="27" y="17" width="2" height="1">
<path fill-rule="evenodd" clip-rule="evenodd" d="M27.7869 17.9415C27.9131 17.9415 28.0409 17.9376 28.1664 17.9291C28.1379 17.9276 28.1079 17.9253 28.0794 17.923C27.9824 17.9345 27.8854 17.9415 27.7869 17.9415Z" fill="white"/>
</mask>
<g mask="url(#mask7)">
<path fill-rule="evenodd" clip-rule="evenodd" d="M23.29 22.4381H32.662V13.4271H23.29V22.4381Z" fill="#74B7D8"/>
</g>
<mask id="mask8" mask-type="alpha" maskUnits="userSpaceOnUse" x="28" y="17" width="1" height="1">
<path fill-rule="evenodd" clip-rule="evenodd" d="M28.1024 17.9368C28.1308 17.9383 28.1601 17.9406 28.1886 17.943C28.2178 17.9406 28.2471 17.9383 28.2748 17.9368C28.2471 17.9329 28.2178 17.9276 28.1886 17.9229C28.1601 17.9276 28.1324 17.9329 28.1024 17.9368Z" fill="white"/>
</mask>
<g mask="url(#mask8)">
<path fill-rule="evenodd" clip-rule="evenodd" d="M23.6064 22.4388H32.7705V13.4271H23.6064V22.4388Z" fill="#74B7D8"/>
</g>
<mask id="mask9" mask-type="alpha" maskUnits="userSpaceOnUse" x="28" y="17" width="1" height="1">
<path fill-rule="evenodd" clip-rule="evenodd" d="M28.4175 17.8783C28.4783 17.8883 28.5407 17.8975 28.603 17.9052C28.6646 17.8975 28.7254 17.8883 28.7877 17.8783C28.7246 17.8621 28.6638 17.8421 28.603 17.8205C28.5414 17.8421 28.4799 17.8621 28.4175 17.8783Z" fill="white"/>
</mask>
<g mask="url(#mask9)">
<path fill-rule="evenodd" clip-rule="evenodd" d="M23.9214 22.4011H33.2833V13.324H23.9214V22.4011Z" fill="#74B7D8"/>
</g>
<path fill-rule="evenodd" clip-rule="evenodd" d="M26.9592 17.7938C27.0069 17.8446 26.9507 17.9246 26.8883 17.8923C25.7138 17.2796 24.9371 16.3837 23.9619 15.5747C23.9311 15.5493 23.9327 15.5001 23.9666 15.4777C23.9666 15.4777 24.4187 15.1217 24.6786 14.9488C24.9564 14.764 25.5799 14.4048 25.5799 14.4048C25.6191 14.3786 25.6699 14.4055 25.6722 14.4525C25.733 15.6948 26.1063 16.8878 26.9592 17.7938Z" fill="#F69552"/>
<path fill-rule="evenodd" clip-rule="evenodd" d="M30.1288 17.3318C30.0819 17.3826 29.1955 18.505 30.3701 17.8923C31.5447 17.2796 32.3221 16.3837 33.2965 15.5747C33.3281 15.5493 33.3258 15.5 33.2919 15.4777C33.2919 15.4777 32.7455 15.0484 32.4405 14.8698C32.1286 14.6873 31.4412 14.3945 31.4412 14.3945C31.4019 14.3683 31.3511 14.3953 31.3488 14.4422C31.2888 15.6845 30.9816 16.4258 30.1288 17.3318Z" fill="#F69552"/>
<path fill-rule="evenodd" clip-rule="evenodd" d="M23.3906 15.5548C24.3504 16.5916 25.6066 17.3036 26.9798 17.613C26.0854 17.0534 25.485 16.0305 25.485 14.8628C25.485 14.6396 25.5073 14.4172 25.5512 14.1993C24.7553 14.5288 24.0295 14.9844 23.3906 15.5548ZM28.5469 18.5566C26.3086 18.5566 24.1858 17.6106 22.7202 15.9612C22.4909 15.7048 22.5101 15.32 22.7633 15.0852C23.5623 14.3448 24.4882 13.7737 25.5143 13.3865C25.7382 13.3011 25.9876 13.3465 26.167 13.5043C26.3486 13.6667 26.4225 13.9191 26.3548 14.15C26.2886 14.381 26.2547 14.6211 26.2547 14.8628C26.2547 16.2044 27.283 17.2951 28.5469 17.2951C28.8987 17.2951 29.1842 17.5783 29.1842 17.9262C29.1842 18.2741 28.8987 18.5566 28.5469 18.5566Z" fill="#B61D83"/>
<path fill-rule="evenodd" clip-rule="evenodd" d="M31.5607 14.1993C31.6045 14.4179 31.6268 14.6396 31.6268 14.8628C31.6268 16.0305 31.0265 17.0542 30.1321 17.613C31.506 17.3036 32.7614 16.5916 33.7212 15.5548C33.0816 14.9837 32.3558 14.5288 31.5607 14.1993ZM28.565 18.5567C28.2133 18.5567 27.9277 18.2742 27.9277 17.9263C27.9277 17.5784 28.2133 17.2951 28.565 17.2951C29.8289 17.2951 30.8572 16.2044 30.8572 14.8628C30.8572 14.6212 30.8234 14.381 30.7564 14.1486C30.6894 13.9192 30.7633 13.6667 30.9442 13.5051C31.1228 13.3473 31.3722 13.3011 31.5977 13.3865C32.6229 13.7729 33.5481 14.3448 34.3478 15.0853C34.6003 15.3193 34.6203 15.7041 34.3917 15.9612C32.9262 17.6107 30.8034 18.5567 28.565 18.5567Z" fill="#B61D83"/>
<path fill-rule="evenodd" clip-rule="evenodd" d="M37.7149 18.1743H36.6611C37.3215 18.1743 37.8573 18.7023 37.8573 19.3535V20.1517C37.8573 20.8029 37.3215 21.3309 36.6611 21.3309H37.7149C38.3737 21.3309 38.9094 20.8029 38.9094 20.1517V19.3535C38.9094 18.7023 38.3737 18.1743 37.7149 18.1743Z" fill="#F7EBBF"/>
<path fill-rule="evenodd" clip-rule="evenodd" d="M36.8118 32.6722C36.8118 34.0353 35.5811 35.1414 34.064 35.1414H35.2201C36.7364 35.1414 37.9664 34.0353 37.9664 32.6722V21.3452H36.8118V32.6722Z" fill="#F7EBBF"/>
<path fill-rule="evenodd" clip-rule="evenodd" d="M19.4709 18.2078H20.5247C19.8643 18.2078 19.3286 18.7358 19.3286 19.387V20.1851C19.3286 20.8371 19.8643 21.3643 20.5247 21.3643H19.4709C18.8121 21.3643 18.2764 20.8371 18.2764 20.1851V19.387C18.2764 18.7358 18.8121 18.2078 19.4709 18.2078Z" fill="#F7EBBF"/>
<path fill-rule="evenodd" clip-rule="evenodd" d="M20.3738 32.7055C20.3738 34.0694 21.6046 35.1747 23.1209 35.1747H21.9655C20.4492 35.1747 19.2192 34.0694 19.2192 32.7055V21.3785H20.3738V32.7055Z" fill="#F7EBBF"/>
<mask id="mask10" mask-type="alpha" maskUnits="userSpaceOnUse" x="28" y="16" width="1" height="1">
<path fill-rule="evenodd" clip-rule="evenodd" d="M28.3119 16.4189C28.4266 16.4396 28.5366 16.4712 28.6413 16.512C28.7468 16.4712 28.856 16.4396 28.9715 16.4189C28.8637 16.3996 28.7537 16.3881 28.6413 16.3881C28.5297 16.3881 28.4196 16.3996 28.3119 16.4189Z" fill="white"/>
</mask>
<g mask="url(#mask10)">
<path fill-rule="evenodd" clip-rule="evenodd" d="M23.8169 21.0086H33.4675V11.8922H23.8169V21.0086Z" fill="#74B7D8"/>
</g>
<mask id="mask11" mask-type="alpha" maskUnits="userSpaceOnUse" x="28" y="19" width="1" height="1">
<path fill-rule="evenodd" clip-rule="evenodd" d="M28.3119 19.7549C28.4196 19.7749 28.5297 19.7857 28.6413 19.7857C28.7537 19.7857 28.8637 19.7749 28.9715 19.7549C28.856 19.7341 28.7468 19.7026 28.6413 19.6618C28.5366 19.7026 28.4266 19.7341 28.3119 19.7549Z" fill="white"/>
</mask>
<g mask="url(#mask11)">
<path fill-rule="evenodd" clip-rule="evenodd" d="M23.8169 24.2815H33.4675V15.1652H23.8169V24.2815Z" fill="#74B7D8"/>
</g>
<mask id="mask12" mask-type="alpha" maskUnits="userSpaceOnUse" x="26" y="16" width="3" height="4">
<path fill-rule="evenodd" clip-rule="evenodd" d="M26.8408 18.0862C26.8408 18.9313 27.4643 19.634 28.2879 19.7841C28.4026 19.7626 28.5118 19.7318 28.6173 19.6918C27.9623 19.4362 27.4981 18.8143 27.4981 18.0862C27.4981 17.358 27.9623 16.7353 28.6173 16.4813C28.5118 16.4405 28.4026 16.409 28.2879 16.3882C27.4643 16.539 26.8408 17.241 26.8408 18.0862Z" fill="white"/>
</mask>
<g mask="url(#mask12)">
<path fill-rule="evenodd" clip-rule="evenodd" d="M22.3438 24.28H33.1127V11.8923H22.3438V24.28Z" fill="#F69552"/>
</g>
<mask id="mask13" mask-type="alpha" maskUnits="userSpaceOnUse" x="28" y="16" width="3" height="4">
<path fill-rule="evenodd" clip-rule="evenodd" d="M28.5469 16.4813C29.2027 16.7353 29.6668 17.358 29.6668 18.0862C29.6668 18.8143 29.2027 19.4362 28.5469 19.6918C28.6523 19.7318 28.7609 19.7626 28.8763 19.7841C29.6999 19.634 30.3241 18.9313 30.3241 18.0862C30.3241 17.241 29.6999 16.539 28.8763 16.3882C28.7609 16.409 28.6523 16.4405 28.5469 16.4813Z" fill="white"/>
</mask>
<g mask="url(#mask13)">
<path fill-rule="evenodd" clip-rule="evenodd" d="M24.0498 24.28H34.8187V11.8923H24.0498V24.28Z" fill="#FBB94C"/>
</g>
<path fill-rule="evenodd" clip-rule="evenodd" d="M27.4717 18.0958C27.4717 18.8239 27.9358 19.4466 28.5908 19.7006C29.2466 19.4466 29.71 18.8239 29.71 18.0958C29.71 17.3677 29.2466 16.745 28.5908 16.491C27.9358 16.745 27.4717 17.3677 27.4717 18.0958Z" fill="#F69552"/>
<path fill-rule="evenodd" clip-rule="evenodd" d="M28.5548 16.4665C27.6473 16.4665 26.9092 17.1792 26.9092 18.0552C26.9092 18.9319 27.6473 19.6438 28.5548 19.6438C29.4623 19.6438 30.2004 18.9319 30.2004 18.0552C30.2004 17.1792 29.4623 16.4665 28.5548 16.4665ZM28.5545 20.4135C27.2229 20.4135 26.1392 19.356 26.1392 18.0552C26.1392 16.7551 27.2229 15.6968 28.5545 15.6968C29.8861 15.6968 30.9698 16.7551 30.9698 18.0552C30.9698 19.356 29.8861 20.4135 28.5545 20.4135Z" fill="#B61D83"/>
<mask id="mask14" mask-type="alpha" maskUnits="userSpaceOnUse" x="19" y="18" width="19" height="18">
<path fill-rule="evenodd" clip-rule="evenodd" d="M20.3179 18.23C19.6775 18.23 19.1587 18.7572 19.1587 19.4084V20.2074C19.1587 20.8578 19.6775 21.3858 20.3179 21.3858H36.8072C37.4476 21.3858 37.9664 20.8578 37.9664 20.2074V19.4084C37.9664 18.7572 37.4476 18.23 36.8072 18.23H20.3179ZM20.2119 21.4004V32.7274C20.2119 34.0905 21.3488 35.1958 22.7519 35.1958H34.2521C35.6553 35.1958 36.7929 34.0905 36.7929 32.7274V21.4004H20.2119Z" fill="white"/>
</mask>
<g mask="url(#mask14)">
<path fill-rule="evenodd" clip-rule="evenodd" d="M14.6641 39.6924H42.4627V13.7334H14.6641V39.6924Z" fill="#FBB94C"/>
</g>
<mask id="mask15" mask-type="alpha" maskUnits="userSpaceOnUse" x="24" y="18" width="9" height="18">
<path fill-rule="evenodd" clip-rule="evenodd" d="M24.9971 18.2269H32.0961V35.3829H24.9971V18.2269Z" fill="white"/>
</mask>
<g mask="url(#mask15)">
<path fill-rule="evenodd" clip-rule="evenodd" d="M20.501 39.8794H36.5917V13.731H20.501V39.8794Z" fill="#F69552"/>
</g>
<path fill-rule="evenodd" clip-rule="evenodd" d="M18.8943 20.9063C18.6042 20.7562 18.3994 20.4621 18.3994 20.1135V19.2206C18.3994 18.7234 18.8043 18.3193 19.3007 18.3193H37.8729C38.3709 18.3193 38.775 18.7234 38.775 19.2206V20.1135C38.775 20.4059 38.6265 20.6538 38.4102 20.8185L18.8943 20.9063ZM37.9397 32.6666C37.9397 33.9512 36.8598 34.9965 35.5313 34.9965H21.8945C20.5667 34.9965 19.4861 33.9512 19.4861 32.6666V21.7852H37.8728C37.8959 21.7852 37.9174 21.7791 37.9397 21.7783V32.6666ZM37.8726 17.5496H19.3004C18.3791 17.5496 17.6294 18.2985 17.6294 19.2206V20.1134C17.6294 20.8285 18.0828 21.435 18.7162 21.6736V32.6666C18.7162 34.3761 20.1417 35.7662 21.8943 35.7662H35.5312C37.2838 35.7662 38.7093 34.3761 38.7093 32.6666V21.552C39.2065 21.2618 39.5444 20.7292 39.5444 20.1134V19.2206C39.5444 18.2985 38.794 17.5496 37.8726 17.5496Z" fill="#B61D83"/>
</svg>
