<svg width="95" height="95" viewBox="0 0 95 95" fill="none" xmlns="http://www.w3.org/2000/svg">
<path fill-rule="evenodd" clip-rule="evenodd" d="M94.6094 47.9295C94.6094 73.9259 73.5352 95 47.5392 95C21.5429 95 0.46875 73.9259 0.46875 47.9295C0.46875 21.9335 21.5429 0.859375 47.5392 0.859375C73.5352 0.859375 94.6094 21.9335 94.6094 47.9295" fill="#DAD4E7"/>
<path d="M39.8234 51.8666C40.0057 52.0489 40.0057 52.3445 39.8235 52.5267L35.8628 56.4874C35.6805 56.6697 35.385 56.6696 35.2027 56.4873L14.9557 36.2403C14.7733 36.058 14.7733 35.7624 14.9556 35.5802L18.9162 31.6195C19.0985 31.4372 19.3941 31.4373 19.5764 31.6196C20.8522 32.8954 22.9218 32.8958 24.1976 31.62C25.4728 30.3448 25.4726 28.2743 24.1972 26.9988C24.0148 26.8165 24.0148 26.521 24.1971 26.3387L28.1577 22.378C28.34 22.1957 28.6356 22.1958 28.8179 22.3781L49.0649 42.6251C49.2472 42.8074 49.2472 43.103 49.065 43.2853L45.1043 47.2459C44.922 47.4282 44.6265 47.4281 44.4442 47.2458C43.1681 45.9698 41.0985 45.9699 39.823 47.2454C38.5469 48.5215 38.5471 50.5902 39.8234 51.8666Z" fill="#F2694A" stroke="#B61D83" stroke-width="0.941406"/>
<path fill-rule="evenodd" clip-rule="evenodd" d="M29.3906 34.5026C30.1924 35.3044 31.489 35.308 32.2865 34.5105C33.0839 33.713 33.0804 32.4165 32.2786 31.6146C31.4767 30.8128 30.1802 30.8092 29.3827 31.6067C28.5852 32.4042 28.5887 33.7007 29.3906 34.5026Z" stroke="white" stroke-width="0.941406"/>
<path fill-rule="evenodd" clip-rule="evenodd" d="M27.6772 43.1854C28.4791 43.9873 29.7756 43.9908 30.5731 43.1933C31.3706 42.3959 31.367 41.0993 30.5652 40.2975C29.7633 39.4956 28.4668 39.4921 27.6693 40.2896C26.8718 41.0871 26.8753 42.3836 27.6772 43.1854Z" stroke="white" stroke-width="0.941406"/>
<path d="M42.1734 39.1427L31.6658 49.6504" stroke="white" stroke-width="0.941406" stroke-linecap="square" stroke-dasharray="0.94 1.88"/>
<path d="M22.4537 39.117L37.2139 35.9719" stroke="white" stroke-width="0.941406" stroke-linecap="round"/>
<path d="M46.1117 59.4626C46.3695 59.4626 46.5785 59.6715 46.5785 59.9293V65.5305C46.5785 65.7883 46.3695 65.9973 46.1117 65.9973H17.4781C17.2202 65.9973 17.0112 65.7883 17.0112 65.5305V59.9293C17.0112 59.6715 17.2202 59.4626 17.4781 59.4626C19.2823 59.4626 20.746 57.9995 20.746 56.1952C20.746 54.3918 19.2819 52.9278 17.4781 52.9278C17.2202 52.9278 17.0112 52.7189 17.0112 52.4611V46.8599C17.0112 46.6021 17.2202 46.3931 17.4781 46.3931H46.1117C46.3695 46.3931 46.5785 46.6021 46.5785 46.8599V52.4611C46.5785 52.7189 46.3695 52.9278 46.1117 52.9278C44.3071 52.9278 42.8437 54.3913 42.8437 56.1952C42.8437 57.9999 44.3066 59.4626 46.1117 59.4626Z" fill="#F2694A" stroke="#B61D83" stroke-width="0.941406"/>
<path fill-rule="evenodd" clip-rule="evenodd" d="M26.4566 54.5615C27.5906 54.5615 28.5099 53.6472 28.5099 52.5194C28.5099 51.3916 27.5906 50.4773 26.4566 50.4773C25.3226 50.4773 24.4033 51.3916 24.4033 52.5194C24.4033 53.6472 25.3226 54.5615 26.4566 54.5615Z" stroke="white" stroke-width="0.941406"/>
<path fill-rule="evenodd" clip-rule="evenodd" d="M31.3843 61.9131C32.5183 61.9131 33.4376 60.9988 33.4376 59.871C33.4376 58.7431 32.5183 57.8289 31.3843 57.8289C30.2503 57.8289 29.3311 58.7431 29.3311 59.871C29.3311 60.9988 30.2503 61.9131 31.3843 61.9131Z" stroke="white" stroke-width="0.941406"/>
<path d="M38.7759 48.804V63.6641" stroke="white" stroke-width="0.941406" stroke-linecap="square" stroke-dasharray="0.94 1.88"/>
<path d="M24.814 62.7299L33.0271 50.0689" stroke="white" stroke-width="0.941406" stroke-linecap="round"/>
<path fill-rule="evenodd" clip-rule="evenodd" d="M48.5954 27.3004C48.72 29.8365 48.7273 32.7683 50.2272 34.7595C50.4533 35.0609 50.1171 35.4681 49.7954 35.2696C47.6404 33.9276 46.0332 32.1871 44.1232 30.5727C43.9521 30.4278 43.9637 30.1597 44.1521 30.0351L48.3809 27.1903C48.4708 27.1294 48.5911 27.1917 48.5954 27.3004" fill="#F7EBBF"/>
<path fill-rule="evenodd" clip-rule="evenodd" d="M59.8795 27.3004C59.7549 29.8365 59.7476 32.7683 58.2477 34.7595C58.0202 35.0609 58.3579 35.4681 58.6796 35.2696C60.8345 33.9276 62.4417 32.1871 64.3518 30.5727C64.5228 30.4278 64.5112 30.1597 64.3228 30.0351L60.094 27.1903C60.0027 27.1294 59.8839 27.1917 59.8795 27.3004" fill="#F7EBBF"/>
<path fill-rule="evenodd" clip-rule="evenodd" d="M71.3377 41.1514V62.4779C71.3377 65.0459 69.0219 67.127 66.1655 67.127H42.7506C39.8971 67.127 37.5799 65.0459 37.5799 62.4779V41.1514H71.3377ZM71.3678 35.1821C72.672 35.1821 73.7271 36.1748 73.7271 37.4008V38.9051C73.7271 40.1311 72.672 41.1238 71.3678 41.1238H37.7954C36.494 41.1238 35.439 40.1311 35.439 38.9051V37.4008C35.439 36.1748 36.494 35.1821 37.7954 35.1821H71.3678Z" fill="white"/>
<mask id="mask0" mask-type="alpha" maskUnits="userSpaceOnUse" x="35" y="35" width="39" height="33">
<path fill-rule="evenodd" clip-rule="evenodd" d="M37.7959 35.1827C36.4945 35.1827 35.438 36.1754 35.438 37.4015V37.4015V38.9058C35.438 40.1303 36.4945 41.1245 37.7959 41.1245V41.1245H71.3668C72.6711 41.1245 73.7275 40.1303 73.7275 38.9058V38.9058V37.4015C73.7275 36.1754 72.6711 35.1827 71.3668 35.1827V35.1827H37.7959ZM37.5798 41.152V62.4786C37.5798 65.0451 39.8957 67.1262 42.7506 67.1262V67.1262H66.164C69.0219 67.1262 71.3363 65.0451 71.3363 62.4786V62.4786V41.152H37.5798Z" fill="white"/>
</mask>
<g mask="url(#mask0)">
<path fill-rule="evenodd" clip-rule="evenodd" d="M-323.491 1440.53H363.023V-310.07H-323.491V1440.53Z" fill="white"/>
<path fill-rule="evenodd" clip-rule="evenodd" d="M26.2847 75.5925H82.8806V26.7164H26.2847V75.5925Z" fill="white"/>
</g>
<mask id="mask1" mask-type="alpha" maskUnits="userSpaceOnUse" x="53" y="34" width="2" height="1">
<path fill-rule="evenodd" clip-rule="evenodd" d="M53.5764 34.6161C53.814 34.6321 54.0532 34.6393 54.2937 34.6393V34.6393C54.1068 34.6393 53.9227 34.6263 53.7401 34.6046V34.6046C53.6865 34.6089 53.6314 34.6132 53.5764 34.6161V34.6161Z" fill="white"/>
</mask>
<g mask="url(#mask1)">
<path fill-rule="evenodd" clip-rule="evenodd" d="M45.1128 43.1055H62.7584V26.1396H45.1128V43.1055Z" fill="#74B7D8"/>
</g>
<mask id="mask2" mask-type="alpha" maskUnits="userSpaceOnUse" x="48" y="32" width="6" height="3">
<path fill-rule="evenodd" clip-rule="evenodd" d="M50.5718 34.203C51.4703 34.4537 52.4065 34.6161 53.3731 34.6755V34.6755C53.4282 34.6711 53.4818 34.6624 53.5354 34.6552V34.6552C52.9398 34.574 52.3717 34.3972 51.8514 34.1335V34.1335C50.7022 33.7886 49.6167 33.2958 48.6255 32.6785V32.6785C49.1545 33.3263 49.8182 33.8509 50.5718 34.203V34.203Z" fill="white"/>
</mask>
<g mask="url(#mask2)">
<path fill-rule="evenodd" clip-rule="evenodd" d="M40.1606 43.1432H62.0002V24.2136H40.1606V43.1432Z" fill="#FFFFFD"/>
</g>
<mask id="mask3" mask-type="alpha" maskUnits="userSpaceOnUse" x="54" y="34" width="1" height="1">
<path fill-rule="evenodd" clip-rule="evenodd" d="M54.1718 34.6552C54.3501 34.6784 54.5312 34.6973 54.7109 34.7118V34.7118C54.7703 34.7031 54.8283 34.6929 54.8877 34.6828V34.6828C54.7616 34.661 54.6414 34.635 54.5211 34.6045V34.6045C54.4037 34.6234 54.2892 34.6393 54.1718 34.6552V34.6552Z" fill="white"/>
</mask>
<g mask="url(#mask3)">
<path fill-rule="evenodd" clip-rule="evenodd" d="M45.707 43.1766H63.3526V26.1396H45.707V43.1766Z" fill="#74B7D8"/>
</g>
<mask id="mask4" mask-type="alpha" maskUnits="userSpaceOnUse" x="54" y="34" width="2" height="1">
<path fill-rule="evenodd" clip-rule="evenodd" d="M54.9643 34.6189C55.215 34.6349 55.4686 34.6436 55.7251 34.6436V34.6436C55.528 34.6436 55.331 34.6305 55.1382 34.6045V34.6045C55.0788 34.6088 55.0208 34.6146 54.9643 34.6189V34.6189Z" fill="white"/>
</mask>
<g mask="url(#mask4)">
<path fill-rule="evenodd" clip-rule="evenodd" d="M46.4995 43.1099H64.19V26.1396H46.4995V43.1099Z" fill="#74B7D8"/>
</g>
<mask id="mask5" mask-type="alpha" maskUnits="userSpaceOnUse" x="54" y="34" width="2" height="1">
<path fill-rule="evenodd" clip-rule="evenodd" d="M54.766 34.632C54.8255 34.6364 54.8834 34.6422 54.9429 34.648V34.648C54.9994 34.6422 55.0573 34.6364 55.1168 34.632V34.632C55.0573 34.6233 54.9994 34.6146 54.9429 34.6045V34.6045C54.8834 34.6146 54.8255 34.6233 54.766 34.632V34.632Z" fill="white"/>
</mask>
<g mask="url(#mask5)">
<path fill-rule="evenodd" clip-rule="evenodd" d="M46.3013 43.1128H63.5816V26.1396H46.3013V43.1128Z" fill="#74B7D8"/>
</g>
<mask id="mask6" mask-type="alpha" maskUnits="userSpaceOnUse" x="53" y="34" width="2" height="1">
<path fill-rule="evenodd" clip-rule="evenodd" d="M53.5761 34.69C53.6312 34.7001 53.6863 34.7088 53.7399 34.7161V34.7161C53.9413 34.7001 54.1413 34.6813 54.3399 34.6552V34.6552C54.2239 34.6393 54.1065 34.6233 53.9906 34.6045V34.6045C53.8544 34.6393 53.7153 34.6682 53.5761 34.69V34.69Z" fill="white"/>
</mask>
<g mask="url(#mask6)">
<path fill-rule="evenodd" clip-rule="evenodd" d="M45.1128 43.1823H62.8062V26.1396H45.1128V43.1823Z" fill="#74B7D8"/>
</g>
<mask id="mask7" mask-type="alpha" maskUnits="userSpaceOnUse" x="52" y="34" width="2" height="1">
<path fill-rule="evenodd" clip-rule="evenodd" d="M52.7863 34.6393C53.024 34.6393 53.2646 34.6321 53.5008 34.6161V34.6161C53.4472 34.6132 53.3906 34.6089 53.337 34.6046V34.6046C53.1544 34.6263 52.9718 34.6393 52.7863 34.6393V34.6393Z" fill="white"/>
</mask>
<g mask="url(#mask7)">
<path fill-rule="evenodd" clip-rule="evenodd" d="M44.3198 43.1055H61.9654V26.1396H44.3198V43.1055Z" fill="#74B7D8"/>
</g>
<mask id="mask8" mask-type="alpha" maskUnits="userSpaceOnUse" x="53" y="34" width="1" height="1">
<path fill-rule="evenodd" clip-rule="evenodd" d="M53.3792 34.6306C53.4328 34.6335 53.4879 34.6378 53.5415 34.6422V34.6422C53.5966 34.6378 53.6516 34.6335 53.7038 34.6306V34.6306C53.6516 34.6233 53.5966 34.6132 53.5415 34.6045V34.6045C53.4879 34.6132 53.4357 34.6233 53.3792 34.6306V34.6306Z" fill="white"/>
</mask>
<g mask="url(#mask8)">
<path fill-rule="evenodd" clip-rule="evenodd" d="M44.9146 43.107H62.1688V26.1396H44.9146V43.107Z" fill="#74B7D8"/>
</g>
<mask id="mask9" mask-type="alpha" maskUnits="userSpaceOnUse" x="53" y="34" width="2" height="1">
<path fill-rule="evenodd" clip-rule="evenodd" d="M53.9732 34.5205C54.0877 34.5393 54.2051 34.5567 54.3225 34.5712V34.5712C54.4384 34.5567 54.5529 34.5393 54.6703 34.5205V34.5205C54.5515 34.4901 54.437 34.4524 54.3225 34.4118V34.4118C54.2066 34.4524 54.0906 34.4901 53.9732 34.5205V34.5205Z" fill="white"/>
</mask>
<g mask="url(#mask9)">
<path fill-rule="evenodd" clip-rule="evenodd" d="M45.5083 43.036H63.135V25.9455H45.5083V43.036Z" fill="#74B7D8"/>
</g>
<path fill-rule="evenodd" clip-rule="evenodd" d="M51.2276 34.3613C51.3174 34.457 51.2117 34.6077 51.0943 34.5468C48.8828 33.3932 47.4205 31.7064 45.5844 30.1832C45.5264 30.1354 45.5293 30.0427 45.5931 30.0006C45.5931 30.0006 46.4443 29.3302 46.9337 29.0048C47.4568 28.6568 48.6306 27.9805 48.6306 27.9805C48.7045 27.9312 48.8002 27.9819 48.8045 28.0703C48.919 30.4093 49.6219 32.6556 51.2276 34.3613Z" fill="#F69552"/>
<path fill-rule="evenodd" clip-rule="evenodd" d="M57.1954 33.4915C57.107 33.5872 55.4382 35.7004 57.6497 34.5469C59.8612 33.3933 61.3249 31.7064 63.1596 30.1833C63.219 30.1355 63.2147 30.0427 63.1509 30.0007C63.1509 30.0007 62.1222 29.1923 61.5478 28.8561C60.9606 28.5125 59.6663 27.9612 59.6663 27.9612C59.5923 27.912 59.4967 27.9627 59.4923 28.0511C59.3793 30.3901 58.8011 31.7858 57.1954 33.4915Z" fill="#F69552"/>
<path fill-rule="evenodd" clip-rule="evenodd" d="M44.5084 30.1457C46.3156 32.0978 48.6807 33.4383 51.2661 34.0209C49.5821 32.9673 48.4517 31.0413 48.4517 28.8429C48.4517 28.4226 48.4937 28.0038 48.5764 27.5937C47.0779 28.2139 45.7113 29.0719 44.5084 30.1457V30.1457ZM54.2169 35.7976C50.0026 35.7976 46.0057 34.0166 43.2464 30.9109C42.8145 30.4283 42.8508 29.7037 43.3276 29.2617C44.8318 27.8676 46.5752 26.7923 48.507 26.0633C48.9288 25.9024 49.3983 25.9879 49.736 26.285C50.078 26.5908 50.2171 27.0662 50.0896 27.5009C49.9649 27.9357 49.9012 28.3878 49.9012 28.8429C49.9012 31.3689 51.8373 33.4224 54.2169 33.4224C54.8792 33.4224 55.4169 33.9557 55.4169 34.6107C55.4169 35.2658 54.8792 35.7976 54.2169 35.7976V35.7976Z" fill="#B61D83"/>
<path fill-rule="evenodd" clip-rule="evenodd" d="M59.8915 27.5936C59.9741 28.0052 60.0162 28.4226 60.0162 28.8428C60.0162 31.0413 58.8858 32.9687 57.2018 34.0209C59.7886 33.4383 62.1523 32.0978 63.9595 30.1457C62.7552 29.0704 61.3886 28.2139 59.8915 27.5936M54.2512 35.7976C53.5889 35.7976 53.0513 35.2658 53.0513 34.6107C53.0513 33.9557 53.5889 33.4224 54.2512 33.4224C56.6308 33.4224 58.567 31.3689 58.567 28.8429C58.567 28.3878 58.5032 27.9357 58.3771 27.498C58.251 27.0661 58.3902 26.5908 58.7307 26.2865C59.0669 25.9894 59.5365 25.9024 59.9611 26.0633C61.8914 26.7908 63.6334 27.8676 65.1391 29.2617C65.6145 29.7023 65.6521 30.4269 65.2217 30.9109C62.4624 34.0166 58.4655 35.7976 54.2512 35.7976" fill="#B61D83"/>
<path fill-rule="evenodd" clip-rule="evenodd" d="M71.4781 35.0778H69.4941C70.7376 35.0778 71.7462 36.072 71.7462 37.298V38.8008C71.7462 40.0269 70.7376 41.021 69.4941 41.021H71.4781C72.7186 41.021 73.7273 40.0269 73.7273 38.8008V37.298C73.7273 36.072 72.7186 35.0778 71.4781 35.0778" fill="#F7EBBF"/>
<path fill-rule="evenodd" clip-rule="evenodd" d="M69.7782 62.3744C69.7782 64.941 67.4609 67.0235 64.6045 67.0235H66.7812C69.6362 67.0235 71.952 64.941 71.952 62.3744V41.0479H69.7782V62.3744Z" fill="#F7EBBF"/>
<path fill-rule="evenodd" clip-rule="evenodd" d="M37.1286 35.1409H39.1125C37.8691 35.1409 36.8605 36.135 36.8605 37.3611V38.8639C36.8605 40.0914 37.8691 41.0841 39.1125 41.0841H37.1286C35.888 41.0841 34.8794 40.0914 34.8794 38.8639V37.3611C34.8794 36.135 35.888 35.1409 37.1286 35.1409" fill="#F7EBBF"/>
<path fill-rule="evenodd" clip-rule="evenodd" d="M38.8286 62.4373C38.8286 65.0053 41.1459 67.0864 44.0008 67.0864H41.8256C38.9706 67.0864 36.6548 65.0053 36.6548 62.4373V41.1108H38.8286V62.4373Z" fill="#F7EBBF"/>
<mask id="mask10" mask-type="alpha" maskUnits="userSpaceOnUse" x="53" y="31" width="3" height="1">
<path fill-rule="evenodd" clip-rule="evenodd" d="M53.7745 31.7727C53.9904 31.8119 54.1977 31.8713 54.3948 31.9481V31.9481C54.5933 31.8713 54.7991 31.8119 55.0165 31.7727V31.7727C54.8136 31.7365 54.6064 31.7148 54.3948 31.7148V31.7148C54.1846 31.7148 53.9774 31.7365 53.7745 31.7727V31.7727Z" fill="white"/>
</mask>
<g mask="url(#mask10)">
<path fill-rule="evenodd" clip-rule="evenodd" d="M45.3115 40.4144H63.4817V23.2499H45.3115V40.4144Z" fill="#74B7D8"/>
</g>
<mask id="mask11" mask-type="alpha" maskUnits="userSpaceOnUse" x="53" y="37" width="3" height="2">
<path fill-rule="evenodd" clip-rule="evenodd" d="M53.7745 38.0536C53.9774 38.0913 54.1846 38.1116 54.3948 38.1116V38.1116C54.6064 38.1116 54.8136 38.0913 55.0165 38.0536V38.0536C54.7991 38.0145 54.5933 37.9551 54.3948 37.8783V37.8783C54.1977 37.9551 53.9904 38.0145 53.7745 38.0536V38.0536Z" fill="white"/>
</mask>
<g mask="url(#mask11)">
<path fill-rule="evenodd" clip-rule="evenodd" d="M45.3115 46.5764H63.4817V29.4119H45.3115V46.5764Z" fill="#74B7D8"/>
</g>
<mask id="mask12" mask-type="alpha" maskUnits="userSpaceOnUse" x="51" y="31" width="4" height="8">
<path fill-rule="evenodd" clip-rule="evenodd" d="M51.0039 34.9117C51.0039 36.503 52.1778 37.8261 53.7284 38.1087V38.1087C53.9444 38.0681 54.1501 38.0101 54.3487 37.9348V37.9348C53.1154 37.4536 52.2415 36.2827 52.2415 34.9117V34.9117C52.2415 33.5408 53.1154 32.3684 54.3487 31.8901V31.8901C54.1501 31.8133 53.9444 31.7539 53.7284 31.7148V31.7148C52.1778 31.9988 51.0039 33.3205 51.0039 34.9117V34.9117Z" fill="white"/>
</mask>
<g mask="url(#mask12)">
<path fill-rule="evenodd" clip-rule="evenodd" d="M42.5366 46.5735H62.8125V23.2499H42.5366V46.5735Z" fill="#F69552"/>
</g>
<mask id="mask13" mask-type="alpha" maskUnits="userSpaceOnUse" x="54" y="31" width="4" height="8">
<path fill-rule="evenodd" clip-rule="evenodd" d="M54.2168 31.8901C55.4515 32.3684 56.3254 33.5408 56.3254 34.9117V34.9117C56.3254 36.2827 55.4515 37.4536 54.2168 37.9348V37.9348C54.4153 38.0101 54.6197 38.0681 54.8371 38.1087V38.1087C56.3877 37.8261 57.563 36.503 57.563 34.9117V34.9117C57.563 33.3205 56.3877 31.9988 54.8371 31.7148V31.7148C54.6197 31.7539 54.4153 31.8133 54.2168 31.8901V31.8901Z" fill="white"/>
</mask>
<g mask="url(#mask13)">
<path fill-rule="evenodd" clip-rule="evenodd" d="M45.7505 46.5735H66.0264V23.2499H45.7505V46.5735Z" fill="#FBB94C"/>
</g>
<path fill-rule="evenodd" clip-rule="evenodd" d="M52.1919 34.93C52.1919 36.3009 53.0658 37.4734 54.299 37.9516C55.5338 37.4734 56.4062 36.3009 56.4062 34.93C56.4062 33.559 55.5338 32.3866 54.299 31.9084C53.0658 32.3866 52.1919 33.559 52.1919 34.93" fill="#F69552"/>
<path fill-rule="evenodd" clip-rule="evenodd" d="M54.2312 31.8625C52.5226 31.8625 51.1328 33.2044 51.1328 34.8536C51.1328 36.5043 52.5226 37.8448 54.2312 37.8448C55.9398 37.8448 57.3296 36.5043 57.3296 34.8536C57.3296 33.2044 55.9398 31.8625 54.2312 31.8625M54.2312 39.294C51.7241 39.294 49.6836 37.3027 49.6836 34.8536C49.6836 32.4059 51.7241 30.4132 54.2312 30.4132C56.7383 30.4132 58.7788 32.4059 58.7788 34.8536C58.7788 37.3027 56.7383 39.294 54.2312 39.294" fill="#B61D83"/>
<mask id="mask14" mask-type="alpha" maskUnits="userSpaceOnUse" x="36" y="35" width="36" height="33">
<path fill-rule="evenodd" clip-rule="evenodd" d="M38.723 35.1827C37.5173 35.1827 36.5405 36.1754 36.5405 37.4015V37.4015V38.9058C36.5405 40.1303 37.5173 41.1245 38.723 41.1245V41.1245H69.7694C70.9752 41.1245 71.952 40.1303 71.952 38.9058V38.9058V37.4015C71.952 36.1754 70.9752 35.1827 69.7694 35.1827V35.1827H38.723ZM38.5231 41.152V62.4786C38.5231 65.0451 40.6636 67.1262 43.3055 67.1262V67.1262H64.9581C67.6 67.1262 69.7419 65.0451 69.7419 62.4786V62.4786V41.152H38.5231Z" fill="white"/>
</mask>
<g mask="url(#mask14)">
<path fill-rule="evenodd" clip-rule="evenodd" d="M28.0771 75.5925H80.4168V26.7164H28.0771V75.5925Z" fill="#FBB94C"/>
</g>
<mask id="mask15" mask-type="alpha" maskUnits="userSpaceOnUse" x="47" y="35" width="14" height="33">
<path fill-rule="evenodd" clip-rule="evenodd" d="M47.5332 35.1769H60.8993V67.4784H47.5332V35.1769Z" fill="white"/>
</mask>
<g mask="url(#mask15)">
<path fill-rule="evenodd" clip-rule="evenodd" d="M39.0684 75.9446H69.3641V26.7121H39.0684V75.9446Z" fill="#F69552"/>
</g>
<path fill-rule="evenodd" clip-rule="evenodd" d="M36.0423 40.2215C35.496 39.9389 35.1105 39.3853 35.1105 38.7288V37.0478C35.1105 36.1116 35.8728 35.3507 36.8075 35.3507H71.7755C72.7131 35.3507 73.4739 36.1116 73.4739 37.0478V38.7288C73.4739 39.2795 73.1942 39.7462 72.787 40.0563L36.0423 40.2215ZM71.9013 62.364C71.9013 64.7827 69.868 66.7507 67.3667 66.7507H41.691C39.1912 66.7507 37.1565 64.7827 37.1565 62.364V41.8765H71.7752C71.8187 41.8765 71.8592 41.8649 71.9013 41.8635V62.364ZM71.7753 33.9015H36.8074C35.0727 33.9015 33.6611 35.3116 33.6611 37.0477V38.7288C33.6611 40.0751 34.5147 41.2171 35.7074 41.6664V62.364C35.7074 65.5826 38.3914 68.1999 41.6912 68.1999H67.3668C70.6667 68.1999 73.3506 65.5826 73.3506 62.364V41.4374C74.2868 40.891 74.923 39.8882 74.923 38.7288V37.0477C74.923 35.3116 73.51 33.9015 71.7753 33.9015V33.9015Z" fill="#B61D83"/>
</svg>
