<svg width="95" height="96" viewBox="0 0 95 96" fill="none" xmlns="http://www.w3.org/2000/svg">
<path fill-rule="evenodd" clip-rule="evenodd" d="M47.0703 95.0234C73.0665 95.0234 94.1406 73.9493 94.1406 47.9531C94.1406 21.9569 73.0665 0.882812 47.0703 0.882812C21.0741 0.882812 0 21.9569 0 47.9531C0 73.9493 21.0741 95.0234 47.0703 95.0234Z" fill="#DAD4E7"/>
<mask id="mask0" mask-type="alpha" maskUnits="userSpaceOnUse" x="0" y="0" width="95" height="96">
<path fill-rule="evenodd" clip-rule="evenodd" d="M47.0703 95.0234C73.0665 95.0234 94.1406 73.9493 94.1406 47.9531C94.1406 21.9569 73.0665 0.882812 47.0703 0.882812C21.0741 0.882812 0 21.9569 0 47.9531C0 73.9493 21.0741 95.0234 47.0703 95.0234Z" fill="white"/>
</mask>
<g mask="url(#mask0)">
<path d="M50.1754 43.095C54.0676 43.095 57.2229 39.9397 57.2229 36.0475C57.2229 32.1553 54.0676 29 50.1754 29C46.2832 29 43.1279 32.1553 43.1279 36.0475C43.1279 39.9397 46.2832 43.095 50.1754 43.095Z" fill="#FFDC00"/>
<path d="M43.8931 37.8681C43.9011 37.5697 43.9219 37.2678 43.9541 36.9658C44.2065 34.6693 45.1836 32.6032 46.6344 31.2954C47.9377 30.1212 49.5152 29.6395 51.0777 29.9391C52.7393 30.2583 54.2073 31.4129 55.211 33.1921C55.9704 34.5356 56.4071 36.1327 56.4543 37.8301C54.6256 33.0077 49.8332 31.0868 46.2173 34.3444C45.2217 35.2443 44.4243 36.4646 43.8931 37.8681Z" fill="#FFA100"/>
<path d="M50.1758 44.1539C45.706 44.1539 42.0693 40.5172 42.0693 36.0474C42.0693 31.5776 45.706 27.941 50.1758 27.941C54.6456 27.941 58.2822 31.5776 58.2822 36.0474C58.2822 40.5172 54.6456 44.1539 50.1758 44.1539ZM50.1758 30.0589C46.8733 30.0589 44.1873 32.7449 44.1873 36.0474C44.1873 39.3499 46.8733 42.036 50.1758 42.036C53.4783 42.036 56.1643 39.3499 56.1643 36.0474C56.1643 32.7449 53.4783 30.0589 50.1758 30.0589Z" fill="#0D5155"/>
<path d="M42.9699 25.4508C46.8621 25.4508 50.0173 22.2955 50.0173 18.4033C50.0173 14.5111 46.8621 11.3558 42.9699 11.3558C39.0776 11.3558 35.9224 14.5111 35.9224 18.4033C35.9224 22.2955 39.0776 25.4508 42.9699 25.4508Z" fill="#FFDC00"/>
<path d="M36.6865 20.224C36.6946 19.9256 36.7153 19.6236 36.7476 19.3217C36.9999 17.0252 37.9771 14.9591 39.4279 13.6513C40.7311 12.4771 42.3086 11.9954 43.8711 12.295C45.5328 12.6142 47.0008 13.7688 48.0045 15.5479C48.7638 16.8915 49.2005 18.4886 49.2478 20.186C47.4191 15.3636 42.6266 13.4427 39.0107 16.7003C38.014 17.6002 37.2177 18.8205 36.6865 20.224Z" fill="#FFA100"/>
<path d="M42.9697 26.5098C38.5 26.5098 34.8633 22.8731 34.8633 18.4033C34.8633 13.9335 38.5 10.2969 42.9697 10.2969C47.4395 10.2969 51.0762 13.9335 51.0762 18.4033C51.0762 22.8731 47.4395 26.5098 42.9697 26.5098ZM42.9697 12.4148C39.6672 12.4148 36.9812 15.1008 36.9812 18.4033C36.9812 21.7058 39.6672 24.3919 42.9697 24.3919C46.2722 24.3919 48.9583 21.7058 48.9583 18.4033C48.9583 15.1008 46.2722 12.4148 42.9697 12.4148Z" fill="#0D5155"/>
<path d="M70.9747 46.6784C74.867 46.6784 78.0222 43.5231 78.0222 39.6309C78.0222 35.7387 74.867 32.5834 70.9747 32.5834C67.0825 32.5834 63.9272 35.7387 63.9272 39.6309C63.9272 43.5231 67.0825 46.6784 70.9747 46.6784Z" fill="#FFDC00"/>
<path d="M64.6914 41.4517C64.6995 41.1533 64.7202 40.8514 64.7525 40.5495C65.0048 38.2529 65.982 36.1868 67.4327 34.879C68.736 33.7048 70.3135 33.2231 71.876 33.5227C73.5376 33.8419 75.0057 34.9965 76.0093 36.7757C76.7687 38.1193 77.2054 39.7164 77.2527 41.4137C75.424 36.5913 70.6315 34.6704 67.0156 37.928C66.0189 38.8279 65.2226 40.0482 64.6914 41.4517Z" fill="#FFA100"/>
<path d="M70.9736 47.7375C66.5039 47.7375 62.8672 44.1008 62.8672 39.6311C62.8672 35.1613 66.5039 31.5246 70.9736 31.5246C75.4434 31.5246 79.0801 35.1613 79.0801 39.6311C79.0801 44.1008 75.4434 47.7375 70.9736 47.7375ZM70.9736 33.6425C67.6711 33.6425 64.9851 36.3286 64.9851 39.6311C64.9851 42.9336 67.6711 45.6196 70.9736 45.6196C74.2761 45.6196 76.9622 42.9336 76.9622 39.6311C76.9622 36.3297 74.2761 33.6425 70.9736 33.6425Z" fill="#0D5155"/>
<path d="M42.4616 34.7396C46.3538 34.7396 49.509 31.5844 49.509 27.6921C49.509 23.7999 46.3538 20.6447 42.4616 20.6447C38.5693 20.6447 35.4141 23.7999 35.4141 27.6921C35.4141 31.5844 38.5693 34.7396 42.4616 34.7396Z" fill="#FFDC00"/>
<path d="M36.1797 29.5128C36.1878 29.2144 36.2085 28.9125 36.2408 28.6106C36.4931 26.314 37.4703 24.2479 38.921 22.9401C40.2243 21.7659 41.8018 21.2842 43.3643 21.5838C45.0259 21.903 46.494 23.0576 47.4976 24.8368C48.257 26.1804 48.6937 27.7774 48.741 29.4748C46.9122 24.6524 42.1198 22.7315 38.5039 25.9891C37.5071 26.889 36.7109 28.1093 36.1797 29.5128Z" fill="#FFA100"/>
<path d="M42.4585 35.7985C37.9887 35.7985 34.3521 32.1618 34.3521 27.692C34.3521 23.2222 37.9887 19.5856 42.4585 19.5856C46.9283 19.5856 50.565 23.2222 50.565 27.692C50.565 32.1618 46.9283 35.7985 42.4585 35.7985ZM42.4585 21.7035C39.156 21.7035 36.47 24.3895 36.47 27.692C36.47 30.9945 39.156 33.6805 42.4585 33.6805C45.761 33.6805 48.447 30.9945 48.447 27.692C48.447 24.3895 45.7599 21.7035 42.4585 21.7035Z" fill="#0D5155"/>
<path d="M58.3001 42.2307C61.0991 50.0928 71.9434 50.6563 71.9434 65.9416C71.9434 78.1007 60.8271 85.0491 47.972 85.0491H47.6252C34.7701 85.0491 23.6538 78.1007 23.6538 65.9416C23.6538 50.5319 33.5072 50.2795 36.1229 42.2894C36.1229 42.2894 36.1229 42.2894 32.0702 37.4866C32.0702 37.4866 50.9265 41.4828 60.2521 37.7666C60.2533 37.7666 57.505 40.5506 58.3001 42.2307Z" fill="#29B495"/>
<path d="M48.3832 75.2522C45.2547 75.2522 42.4696 73.7093 41.2874 71.3217C41.0281 70.7974 41.2424 70.1625 41.7667 69.902C42.291 69.6428 42.9259 69.8571 43.1864 70.3814C44.001 72.0269 46.0902 73.1331 48.3832 73.1331C51.4438 73.1331 53.9327 71.2364 53.9327 68.9053C53.9327 66.2688 52.4993 65.2006 48.2519 64.6694C43.2509 64.0449 40.7158 61.912 40.7158 58.3318C40.7158 54.8322 44.1554 51.986 48.3832 51.986C51.4023 51.986 54.1482 53.4541 55.38 55.7252C55.6589 56.2392 55.4676 56.8822 54.9537 57.161C54.4398 57.4399 53.7968 57.2486 53.5179 56.7347C52.6514 55.1364 50.636 54.104 48.3832 54.104C45.3227 54.104 42.8338 56.0006 42.8338 58.3318C42.8338 59.2962 42.8338 61.8578 48.5146 62.5676C50.961 62.873 56.0507 63.5102 56.0507 68.9053C56.0518 72.4048 52.6122 75.2522 48.3832 75.2522Z" fill="#F5F5F5"/>
<path d="M48.3856 78.3358C47.8003 78.3358 47.3267 77.861 47.3267 77.2768V49.9614C47.3267 49.3761 47.8014 48.9025 48.3856 48.9025C48.9698 48.9025 49.4446 49.3772 49.4446 49.9614V77.2768C49.4457 77.8622 48.971 78.3358 48.3856 78.3358Z" fill="#F5F5F5"/>
<path d="M63.0567 76.181C62.771 76.181 62.4852 76.0658 62.2766 75.8388C61.8814 75.4078 61.9091 74.7383 62.34 74.3419C64.5617 72.3012 65.9329 69.8007 66.4169 66.9096C66.5137 66.3323 67.0587 65.9428 67.636 66.0396C68.2133 66.1364 68.6028 66.6814 68.506 67.2587C67.9517 70.5797 66.3143 73.5688 63.7735 75.9022C63.5695 76.0888 63.3126 76.181 63.0567 76.181Z" fill="#0D5155"/>
<path d="M47.9709 86.1081H47.6241C40.8969 86.1081 34.7045 84.2598 30.1863 80.9054C25.2187 77.2169 22.5938 72.0419 22.5938 65.9416C22.5938 55.8371 26.6971 51.9043 30.3176 48.4335C32.2685 46.5633 33.9716 44.9305 34.9188 42.5061L31.2591 38.17C30.9675 37.8243 30.9272 37.3311 31.16 36.9428C31.3927 36.5544 31.8456 36.3574 32.2881 36.4507C32.4736 36.4899 50.9404 40.3363 59.8593 36.7826C60.3248 36.5971 60.8571 36.763 61.1337 37.1813C61.4103 37.5984 61.3572 38.1538 61.0046 38.511C59.9549 39.5792 58.9835 41.2028 59.2554 41.7778C59.2704 41.8101 59.2843 41.8424 59.2958 41.8758C60.2464 44.5468 62.2169 46.296 64.4973 48.3218C68.4831 51.8605 73.0001 55.8717 73.0001 65.9428C73.0001 72.0431 70.3752 77.2181 65.4076 80.9066C60.8906 84.261 54.6981 86.1081 47.9709 86.1081ZM34.7909 39.0711L36.9307 41.6073C37.1669 41.8873 37.2418 42.271 37.1278 42.6202C36.0676 45.857 33.8898 47.945 31.7834 49.9649C28.3069 53.2974 24.7117 56.7428 24.7117 65.9439C24.7117 71.3482 27.0416 75.9344 31.4492 79.207C35.6044 82.2928 41.3486 83.9925 47.6241 83.9925H47.9709C54.2464 83.9925 59.9906 82.2928 64.1458 79.207C68.5534 75.9344 70.8833 71.3471 70.8833 65.9439C70.8833 56.8246 66.9229 53.3078 63.0926 49.9073C60.7085 47.7905 58.4557 45.7901 57.3173 42.6328C56.9451 41.7974 57.0384 40.8007 57.5938 39.6633C50.1488 41.2766 39.8092 39.9169 34.7909 39.0711Z" fill="#0D5155"/>
<path d="M60.4168 45.9159H33.8551C32.8698 45.9159 32.0713 45.1173 32.0713 44.1321C32.0713 43.1469 32.8698 42.3483 33.8551 42.3483H60.418C61.4032 42.3483 62.2017 43.1469 62.2017 44.1321C62.2006 45.1173 61.402 45.9159 60.4168 45.9159Z" fill="#29B495"/>
<path d="M60.4157 46.9747H33.854C32.2868 46.9747 31.0112 45.6991 31.0112 44.132C31.0112 42.5648 32.2868 41.2892 33.854 41.2892H60.4157C61.9828 41.2892 63.2584 42.5648 63.2584 44.132C63.2584 45.6991 61.984 46.9747 60.4157 46.9747ZM33.854 43.4072C33.4541 43.4072 33.1292 43.7321 33.1292 44.132C33.1292 44.5318 33.4541 44.8568 33.854 44.8568H60.4157C60.8156 44.8568 61.1405 44.5318 61.1405 44.132C61.1405 43.7321 60.8156 43.4072 60.4157 43.4072H33.854Z" fill="#0D5155"/>
</g>
</svg>
