<svg width="50" height="50" viewBox="0 0 50 50" fill="none" xmlns="http://www.w3.org/2000/svg">
<path fill-rule="evenodd" clip-rule="evenodd" d="M25 50C38.8071 50 50 38.8071 50 25C50 11.1929 38.8071 0 25 0C11.1929 0 0 11.1929 0 25C0 38.8071 11.1929 50 25 50Z" fill="#DAD4E7"/>
<mask id="mask0" mask-type="alpha" maskUnits="userSpaceOnUse" x="0" y="0" width="50" height="50">
<path fill-rule="evenodd" clip-rule="evenodd" d="M25 50C38.8071 50 50 38.8071 50 25C50 11.1929 38.8071 0 25 0C11.1929 0 0 11.1929 0 25C0 38.8071 11.1929 50 25 50Z" fill="white"/>
</mask>
<g mask="url(#mask0)">
<path d="M26.6493 22.4196C28.7166 22.4196 30.3924 20.7438 30.3924 18.6765C30.3924 16.6093 28.7166 14.9335 26.6493 14.9335C24.5821 14.9335 22.9062 16.6093 22.9062 18.6765C22.9062 20.7438 24.5821 22.4196 26.6493 22.4196Z" fill="#FFDC00"/>
<path d="M23.3125 19.6436C23.3168 19.4851 23.3278 19.3247 23.3449 19.1644C23.479 17.9446 23.998 16.8473 24.7685 16.1527C25.4607 15.529 26.2985 15.2732 27.1284 15.4323C28.0109 15.6019 28.7906 16.2151 29.3237 17.16C29.727 17.8736 29.9589 18.7219 29.984 19.6234C29.0128 17.0621 26.4674 16.0419 24.5469 17.7721C24.0181 18.25 23.5946 18.8982 23.3125 19.6436Z" fill="#FFA100"/>
<path d="M26.6493 22.9821C24.2753 22.9821 22.3438 21.0506 22.3438 18.6766C22.3438 16.3026 24.2753 14.3711 26.6493 14.3711C29.0232 14.3711 30.9548 16.3026 30.9548 18.6766C30.9548 21.0506 29.0232 22.9821 26.6493 22.9821ZM26.6493 15.496C24.8952 15.496 23.4686 16.9226 23.4686 18.6766C23.4686 20.4306 24.8952 21.8572 26.6493 21.8572C28.4033 21.8572 29.8299 20.4306 29.8299 18.6766C29.8299 16.9226 28.4033 15.496 26.6493 15.496Z" fill="#0D5155"/>
<path d="M22.8222 13.0485C24.8894 13.0485 26.5652 11.3727 26.5652 9.30544C26.5652 7.2382 24.8894 5.56238 22.8222 5.56238C20.7549 5.56238 19.0791 7.2382 19.0791 9.30544C19.0791 11.3727 20.7549 13.0485 22.8222 13.0485Z" fill="#FFDC00"/>
<path d="M19.4849 10.2725C19.4891 10.114 19.5002 9.95364 19.5173 9.79329C19.6513 8.57355 20.1703 7.47621 20.9408 6.78158C21.633 6.15794 22.4709 5.90212 23.3008 6.06124C24.1833 6.23077 24.963 6.844 25.496 7.78895C25.8994 8.50256 26.1313 9.3508 26.1564 10.2523C25.1851 7.69103 22.6398 6.6708 20.7193 8.40096C20.1899 8.87894 19.767 9.52706 19.4849 10.2725Z" fill="#FFA100"/>
<path d="M22.8221 13.611C20.4481 13.611 18.5166 11.6795 18.5166 9.3055C18.5166 6.93151 20.4481 5 22.8221 5C25.1961 5 27.1276 6.93151 27.1276 9.3055C27.1276 11.6795 25.1961 13.611 22.8221 13.611ZM22.8221 6.12488C21.0681 6.12488 19.6415 7.55148 19.6415 9.3055C19.6415 11.0595 21.0681 12.4861 22.8221 12.4861C24.5761 12.4861 26.0027 11.0595 26.0027 9.3055C26.0027 7.55148 24.5761 6.12488 22.8221 6.12488Z" fill="#0D5155"/>
<path d="M37.6962 24.323C39.7634 24.323 41.4393 22.6472 41.4393 20.58C41.4393 18.5127 39.7634 16.8369 37.6962 16.8369C35.629 16.8369 33.9531 18.5127 33.9531 20.58C33.9531 22.6472 35.629 24.323 37.6962 24.323Z" fill="#FFDC00"/>
<path d="M34.3589 21.547C34.3632 21.3885 34.3742 21.2282 34.3913 21.0678C34.5254 19.8481 35.0443 18.7507 35.8149 18.0561C36.507 17.4325 37.3449 17.1767 38.1748 17.3358C39.0573 17.5053 39.837 18.1185 40.3701 19.0635C40.7734 19.7771 41.0053 20.6253 41.0304 21.5268C40.0592 18.9656 37.5138 17.9453 35.5933 19.6755C35.0639 20.1535 34.641 20.8016 34.3589 21.547Z" fill="#FFA100"/>
<path d="M37.6956 24.8855C35.3216 24.8855 33.3901 22.954 33.3901 20.58C33.3901 18.206 35.3216 16.2745 37.6956 16.2745C40.0696 16.2745 42.0011 18.206 42.0011 20.58C42.0011 22.954 40.0696 24.8855 37.6956 24.8855ZM37.6956 17.3994C35.9416 17.3994 34.515 18.826 34.515 20.58C34.515 22.3341 35.9416 23.7607 37.6956 23.7607C39.4497 23.7607 40.8763 22.3341 40.8763 20.58C40.8763 18.8266 39.4497 17.3994 37.6956 17.3994Z" fill="#0D5155"/>
<path d="M22.5521 17.9821C24.6194 17.9821 26.2952 16.3063 26.2952 14.239C26.2952 12.1718 24.6194 10.496 22.5521 10.496C20.4849 10.496 18.8091 12.1718 18.8091 14.239C18.8091 16.3063 20.4849 17.9821 22.5521 17.9821Z" fill="#FFDC00"/>
<path d="M19.2158 15.206C19.2201 15.0475 19.2311 14.8871 19.2483 14.7268C19.3823 13.507 19.9013 12.4097 20.6718 11.715C21.364 11.0914 22.2018 10.8356 23.0317 10.9947C23.9142 11.1642 24.6939 11.7775 25.227 12.7224C25.6303 13.436 25.8623 14.2843 25.8874 15.1858C24.9161 12.6245 22.3707 11.6043 20.4502 13.3344C19.9209 13.8124 19.498 14.4605 19.2158 15.206Z" fill="#FFA100"/>
<path d="M22.5506 18.5445C20.1766 18.5445 18.2451 16.613 18.2451 14.239C18.2451 11.865 20.1766 9.93347 22.5506 9.93347C24.9246 9.93347 26.8561 11.865 26.8561 14.239C26.8561 16.613 24.9246 18.5445 22.5506 18.5445ZM22.5506 11.0583C20.7966 11.0583 19.37 12.4849 19.37 14.239C19.37 15.993 20.7966 17.4196 22.5506 17.4196C24.3046 17.4196 25.7312 15.993 25.7312 14.239C25.7312 12.4849 24.304 11.0583 22.5506 11.0583Z" fill="#0D5155"/>
<path d="M30.9643 21.9607C32.4509 26.1365 38.2106 26.4357 38.2106 34.5541C38.2106 41.012 32.3065 44.7024 25.4789 44.7024H25.2947C18.4671 44.7024 12.563 41.012 12.563 34.5541C12.563 26.3696 17.7963 26.2356 19.1856 21.9919C19.1856 21.9919 19.1856 21.9919 17.0331 19.441C17.0331 19.441 27.0481 21.5635 32.0011 19.5898C32.0017 19.5898 30.5421 21.0684 30.9643 21.9607Z" fill="#29B495"/>
<path d="M25.6973 39.4991C24.0357 39.4991 22.5565 38.6796 21.9286 37.4115C21.7909 37.1331 21.9047 36.7958 22.1832 36.6575C22.4616 36.5198 22.7988 36.6337 22.9372 36.9121C23.3698 37.7861 24.4794 38.3736 25.6973 38.3736C27.3228 38.3736 28.6448 37.3662 28.6448 36.1281C28.6448 34.7279 27.8834 34.1605 25.6276 33.8784C22.9714 33.5467 21.625 32.4138 21.625 30.5123C21.625 28.6536 23.4519 27.142 25.6973 27.142C27.3008 27.142 28.7592 27.9217 29.4135 29.1279C29.5616 29.4009 29.46 29.7424 29.187 29.8905C28.9141 30.0386 28.5726 29.937 28.4245 29.6641C27.9642 28.8152 26.8938 28.2668 25.6973 28.2668C24.0718 28.2668 22.7499 29.2742 22.7499 30.5123C22.7499 31.0246 22.7499 32.3851 25.7671 32.7621C27.0664 32.9243 29.7697 33.2627 29.7697 36.1281C29.7703 37.9868 27.9434 39.4991 25.6973 39.4991Z" fill="#F5F5F5"/>
<path d="M25.6987 41.1369C25.3878 41.1369 25.1362 40.8847 25.1362 40.5745V26.0667C25.1362 25.7558 25.3884 25.5043 25.6987 25.5043C26.009 25.5043 26.2611 25.7564 26.2611 26.0667V40.5745C26.2617 40.8854 26.0096 41.1369 25.6987 41.1369Z" fill="#F5F5F5"/>
<path d="M33.4908 39.9924C33.339 39.9924 33.1872 39.9312 33.0764 39.8107C32.8665 39.5818 32.8812 39.2262 33.1101 39.0157C34.2901 37.9318 35.0184 36.6037 35.2754 35.0682C35.3268 34.7616 35.6163 34.5547 35.9229 34.6061C36.2295 34.6575 36.4364 34.947 36.385 35.2536C36.0906 37.0174 35.2209 38.605 33.8714 39.8443C33.7631 39.9435 33.6266 39.9924 33.4908 39.9924Z" fill="#0D5155"/>
<path d="M25.4783 45.2649H25.2941C21.7212 45.2649 18.4322 44.2832 16.0325 42.5016C13.3942 40.5426 12 37.7941 12 34.5541C12 29.1873 14.1794 27.0985 16.1023 25.2552C17.1385 24.2619 18.043 23.3946 18.5461 22.107L16.6023 19.804C16.4475 19.6204 16.4261 19.3584 16.5497 19.1522C16.6733 18.9459 16.9138 18.8413 17.1489 18.8908C17.2474 18.9116 27.0555 20.9545 31.7925 19.0671C32.0397 18.9686 32.3225 19.0567 32.4694 19.2789C32.6162 19.5004 32.5881 19.7954 32.4008 19.9851C31.8433 20.5525 31.3273 21.4148 31.4718 21.7202C31.4797 21.7373 31.4871 21.7544 31.4932 21.7722C31.9981 23.1908 33.0446 24.1199 34.2558 25.1958C36.3728 27.0753 38.7719 29.2057 38.7719 34.5547C38.7719 37.7947 37.3777 40.5432 34.7393 42.5023C32.3402 44.2838 29.0513 45.2649 25.4783 45.2649ZM18.4781 20.2826L19.6147 21.6296C19.7401 21.7783 19.7799 21.9821 19.7193 22.1676C19.1563 23.8867 17.9996 24.9957 16.8808 26.0685C15.0344 27.8385 13.1249 29.6684 13.1249 34.5553C13.1249 37.4256 14.3624 39.8614 16.7033 41.5995C18.9102 43.2385 21.9611 44.1412 25.2941 44.1412H25.4783C28.8114 44.1412 31.8622 43.2385 34.0692 41.5995C36.4101 39.8614 37.6476 37.425 37.6476 34.5553C37.6476 29.7118 35.5441 27.844 33.5098 26.0379C32.2435 24.9136 31.047 23.8512 30.4424 22.1743C30.2447 21.7306 30.2943 21.2012 30.5893 20.5971C26.635 21.4539 21.1435 20.7318 18.4781 20.2826Z" fill="#0D5155"/>
<path d="M32.0886 23.918H17.9811C17.4578 23.918 17.0337 23.4939 17.0337 22.9706C17.0337 22.4473 17.4578 22.0232 17.9811 22.0232H32.0892C32.6125 22.0232 33.0366 22.4473 33.0366 22.9706C33.036 23.4939 32.6118 23.918 32.0886 23.918Z" fill="#29B495"/>
<path d="M32.088 24.4804H17.9805C17.1482 24.4804 16.4707 23.8029 16.4707 22.9705C16.4707 22.1382 17.1482 21.4607 17.9805 21.4607H32.088C32.9204 21.4607 33.5979 22.1382 33.5979 22.9705C33.5979 23.8029 32.921 24.4804 32.088 24.4804ZM17.9805 22.5856C17.7682 22.5856 17.5956 22.7582 17.5956 22.9705C17.5956 23.1829 17.7682 23.3555 17.9805 23.3555H32.088C32.3004 23.3555 32.473 23.1829 32.473 22.9705C32.473 22.7582 32.3004 22.5856 32.088 22.5856H17.9805Z" fill="#0D5155"/>
</g>
</svg>
