<svg width="50" height="50" viewBox="0 0 50 50" fill="none" xmlns="http://www.w3.org/2000/svg">
<path fill-rule="evenodd" clip-rule="evenodd" d="M24.7706 49.5413C38.4511 49.5413 49.5413 38.4511 49.5413 24.7706C49.5413 11.0902 38.4511 0 24.7706 0C11.0902 0 0 11.0902 0 24.7706C0 38.4511 11.0902 49.5413 24.7706 49.5413Z" fill="#DAD4E7"/>
<mask id="mask0" mask-type="alpha" maskUnits="userSpaceOnUse" x="13" y="9" width="30" height="32">
<path fill-rule="evenodd" clip-rule="evenodd" d="M27.7082 9.9262L13.9182 31.463C13.7943 31.6568 13.8452 31.9087 14.034 32.0256L18.1223 34.5599C18.3109 34.677 18.5641 34.6134 18.6883 34.4196C19.557 33.0625 21.3302 32.6244 22.6461 33.4398C23.9633 34.2566 24.3268 36.0194 23.4579 37.3763C23.334 37.5701 23.3851 37.8225 23.5739 37.9391L27.6622 40.4733C27.8508 40.5902 28.104 40.5268 28.2278 40.333L42.0179 18.7964C42.1419 18.6025 42.0903 18.3512 41.9019 18.2343L37.8135 15.6999C37.6247 15.583 37.3718 15.6458 37.2481 15.8398C36.3783 17.1977 34.6066 17.6354 33.289 16.8186C31.9728 16.003 31.6089 14.2404 32.478 12.8831C32.602 12.6891 32.5506 12.4376 32.3622 12.3207L28.2738 9.78655C28.2093 9.74674 28.1374 9.72778 28.0659 9.72778C27.9274 9.72778 27.79 9.79835 27.7082 9.9262Z" fill="white"/>
</mask>
<g mask="url(#mask0)">
<path fill-rule="evenodd" clip-rule="evenodd" d="M10.1436 32.6103L27.1299 6.0813L45.7916 17.6491L28.8051 44.1782L10.1436 32.6103Z" fill="#F9B950"/>
</g>
<path fill-rule="evenodd" clip-rule="evenodd" d="M21.5505 26.6339C21.1033 27.3318 21.3004 28.2471 21.9898 28.6742C22.6788 29.101 23.6044 28.8807 24.0519 28.1831C24.4989 27.4852 24.3014 26.5693 23.6124 26.1428C22.9227 25.7156 21.9976 25.9361 21.5505 26.6339ZM24.6525 28.5551C23.9975 29.5766 22.6335 29.894 21.6131 29.2618C20.592 28.6297 20.295 27.2836 20.9498 26.2619C21.6051 25.2397 22.9678 24.9226 23.9891 25.5547C25.0096 26.1869 25.3076 27.5325 24.6525 28.5551Z" fill="#681D06"/>
<mask id="mask1" mask-type="alpha" maskUnits="userSpaceOnUse" x="20" y="25" width="5" height="5">
<path fill-rule="evenodd" clip-rule="evenodd" d="M21.0273 26.2458C20.3912 27.2462 20.6796 28.5637 21.6715 29.1827C22.6626 29.8013 23.987 29.4909 24.6233 28.4907C25.2593 27.4898 24.9701 26.1725 23.9791 25.5537C23.6333 25.3379 23.2471 25.235 22.8638 25.235C22.148 25.235 21.4418 25.594 21.0273 26.2458ZM22.0374 28.6075C21.3676 28.1894 21.1764 27.2931 21.6107 26.61C22.0449 25.9271 22.9434 25.7112 23.613 26.1292C24.2823 26.5469 24.4739 27.4434 24.0398 28.1265C23.7554 28.5737 23.272 28.8204 22.7844 28.8204C22.527 28.8204 22.2684 28.7517 22.0374 28.6075Z" fill="white"/>
</mask>
<g mask="url(#mask1)">
<path fill-rule="evenodd" clip-rule="evenodd" d="M18.4292 28.3853L21.8533 23.0005L27.2211 26.3512L23.7972 31.736L18.4292 28.3853Z" fill="#681D06"/>
</g>
<path fill-rule="evenodd" clip-rule="evenodd" d="M29.1895 26.1749C28.7424 26.8728 28.9395 27.7881 29.629 28.2153C30.3184 28.6424 31.2435 28.422 31.6908 27.7241C32.138 27.0263 31.9409 26.1107 31.2515 25.6838C30.5616 25.2569 29.6367 25.4773 29.1895 26.1749ZM32.2916 28.0961C31.6363 29.1183 30.2727 29.435 29.2523 28.8031C28.2318 28.1712 27.9338 26.8253 28.5889 25.8029C29.2441 24.7807 30.6076 24.464 31.6283 25.096C32.6487 25.7281 32.9468 27.0735 32.2916 28.0961Z" fill="#681D06"/>
<mask id="mask2" mask-type="alpha" maskUnits="userSpaceOnUse" x="28" y="24" width="5" height="5">
<path fill-rule="evenodd" clip-rule="evenodd" d="M28.5582 25.7181C27.9186 26.7237 28.2097 28.0473 29.2055 28.6691C30.2013 29.2906 31.5319 28.9789 32.1714 27.9735C32.8105 26.9679 32.5199 25.6443 31.5241 25.0227C31.1766 24.8061 30.7888 24.7026 30.4037 24.7026C29.6842 24.7026 28.9746 25.0631 28.5582 25.7181ZM29.5732 28.0907C28.9004 27.6707 28.7081 26.7704 29.1443 26.084C29.5808 25.3976 30.4833 25.181 31.1565 25.6007C31.8293 26.0208 32.0216 26.9214 31.5852 27.6076C31.2994 28.0569 30.8141 28.305 30.324 28.305C30.0654 28.305 29.8055 28.2358 29.5732 28.0907Z" fill="white"/>
</mask>
<g mask="url(#mask2)">
<path fill-rule="evenodd" clip-rule="evenodd" d="M25.9478 27.8676L29.388 22.457L34.7817 25.8238L31.3413 31.2344L25.9478 27.8676Z" fill="#681D06"/>
</g>
<path fill-rule="evenodd" clip-rule="evenodd" d="M29.807 33.3258C29.7705 33.3824 29.717 33.4291 29.6491 33.4581C29.4702 33.5334 29.2626 33.4526 29.1844 33.2778L23.8719 21.354C23.7946 21.1782 23.8762 20.9759 24.0549 20.8998C24.2338 20.8245 24.4417 20.9052 24.5195 21.0802L29.8319 33.0038C29.8802 33.1134 29.8669 33.2324 29.807 33.3258Z" fill="#681D06"/>
<mask id="mask3" mask-type="alpha" maskUnits="userSpaceOnUse" x="23" y="21" width="7" height="13">
<path fill-rule="evenodd" clip-rule="evenodd" d="M23.8523 21.0377C23.6732 21.1142 23.5913 21.3167 23.6689 21.4925L28.9997 33.4303C29.0782 33.6053 29.2866 33.6864 29.4661 33.6108C29.5344 33.5819 29.5881 33.5348 29.6245 33.4783C29.6849 33.3849 29.698 33.2657 29.6495 33.156L24.3187 21.2186C24.2603 21.0878 24.1295 21.0095 23.9922 21.0095C23.9454 21.0095 23.898 21.0186 23.8523 21.0377Z" fill="white"/>
</mask>
<g mask="url(#mask3)">
<path fill-rule="evenodd" clip-rule="evenodd" d="M22.3933 58.0214L46.6327 20.4315L19.6452 3.8208L-4.59424 41.4105L22.3933 58.0214Z" fill="#681D06"/>
</g>
<mask id="mask4" mask-type="alpha" maskUnits="userSpaceOnUse" x="23" y="21" width="7" height="13">
<path fill-rule="evenodd" clip-rule="evenodd" d="M23.8523 21.0377C23.6732 21.1142 23.5913 21.3167 23.6689 21.4925L28.9997 33.4303C29.0782 33.6053 29.2866 33.6864 29.4661 33.6108C29.5344 33.5819 29.5881 33.5348 29.6245 33.4783C29.6849 33.3849 29.698 33.2657 29.6495 33.156L24.3187 21.2186C24.2603 21.0878 24.1295 21.0095 23.9922 21.0095C23.9454 21.0095 23.898 21.0186 23.8523 21.0377Z" fill="white"/>
</mask>
<g mask="url(#mask4)">
<path fill-rule="evenodd" clip-rule="evenodd" d="M18.0229 27.9895L23.5447 19.4268L35.2954 26.6594L29.7736 35.2222L18.0229 27.9895Z" fill="#681D06"/>
</g>
<path fill-rule="evenodd" clip-rule="evenodd" d="M37.6902 15.4207C37.6902 15.4207 37.4603 15.7775 37.3452 15.9559L40.6291 17.9793C40.6291 17.9793 40.8118 18.0917 40.5817 18.4486L26.9043 39.6816L28.1812 40.4684L42.4335 18.3433L41.1564 17.5565L41.0313 17.7509L37.6902 15.4207Z" fill="#F8971D"/>
<path fill-rule="evenodd" clip-rule="evenodd" d="M33.535 17.1306C30.6728 16.0892 31.23 13.1849 31.4449 12.8791C31.4449 12.8791 31.6895 12.4712 31.3246 12.2464C30.6667 11.8411 27.6758 9.99818 27.6758 9.99818L27.8381 9.35034L32.3368 11.9729L32.0414 13.1682C31.5275 15.0932 33.535 17.1306 33.535 17.1306Z" fill="#F8971D"/>
<mask id="mask5" mask-type="alpha" maskUnits="userSpaceOnUse" x="13" y="9" width="30" height="32">
<path fill-rule="evenodd" clip-rule="evenodd" d="M27.3609 9.45238L13.4897 31.1284C13.2618 31.4845 13.365 31.9535 13.7206 32.1741L17.8651 34.7446C18.2205 34.9647 18.6951 34.8542 18.923 34.498C19.6925 33.2952 21.2691 32.9063 22.4377 33.6311C23.6063 34.3559 23.9306 35.9236 23.1606 37.1262C22.9327 37.4824 23.0366 37.9518 23.3915 38.1719L27.536 40.7424C27.8918 40.9629 28.3665 40.8527 28.5946 40.4965L42.4658 18.8205C42.6939 18.4643 42.5902 17.9949 42.2345 17.7744L38.09 15.2039C37.735 14.9836 37.2602 15.0942 37.0321 15.4504C36.2623 16.6533 34.686 17.042 33.5174 16.3172C32.3489 15.5926 32.0245 14.0249 32.7942 12.8222C33.0221 12.4659 32.9185 11.9967 32.5635 11.7763L28.419 9.20585C28.295 9.12895 28.1568 9.09241 28.0195 9.09241C27.7628 9.09241 27.5096 9.22043 27.3609 9.45238ZM18.24 34.1586L14.0955 31.5881C14.0734 31.5745 14.0646 31.5348 14.0874 31.4989L27.959 9.82291C27.9813 9.78805 28.0221 9.77812 28.0442 9.79164L32.1887 12.3621C32.2112 12.3761 32.2196 12.4156 32.1966 12.4515C31.2203 13.9769 31.6445 15.9743 33.1425 16.9032C34.6403 17.8323 36.6538 17.3468 37.6297 15.8212C37.6527 15.7855 37.6932 15.7759 37.7149 15.7897L41.8596 18.3602C41.8719 18.3678 41.88 18.3826 41.8815 18.4003C41.8826 18.4159 41.8787 18.4333 41.8682 18.45L27.9968 40.1257C27.9736 40.1621 27.9337 40.1707 27.9112 40.1568L23.7665 37.5863C23.7444 37.5726 23.7351 37.5333 23.7585 37.4972C24.7347 35.9715 24.3104 33.9739 22.8126 33.045C21.3148 32.1162 19.3018 32.6016 18.3252 34.1273C18.3089 34.1528 18.2847 34.1649 18.2639 34.1649C18.2551 34.1649 18.2469 34.1628 18.24 34.1586Z" fill="white"/>
</mask>
<g mask="url(#mask5)">
<path fill-rule="evenodd" clip-rule="evenodd" d="M11.5967 32.1052L27.4388 7.34937L44.3593 17.8437L28.5169 42.5993L11.5967 32.1052Z" fill="#681D06"/>
</g>
<path fill-rule="evenodd" clip-rule="evenodd" d="M39.1623 23.7461C39.0674 23.8929 38.8701 23.9383 38.722 23.8475L37.8282 23.2994C37.6801 23.2087 37.6371 23.0161 37.7322 22.8693C37.8271 22.7225 38.0242 22.6773 38.1722 22.7679L39.0661 23.316C39.2141 23.4068 39.2572 23.5995 39.1623 23.7461Z" fill="#681D06"/>
<path fill-rule="evenodd" clip-rule="evenodd" d="M29.3873 17.7531C29.2924 17.8999 29.0955 17.9454 28.9473 17.8545L26.9287 16.6171C26.7806 16.5264 26.7378 16.3337 26.8327 16.1869C26.9276 16.0401 27.1247 15.9947 27.2729 16.0854L29.2913 17.323C29.4394 17.4139 29.4822 17.6066 29.3873 17.7531ZM33.0207 19.9809C32.9256 20.1275 32.7285 20.1729 32.5805 20.082L30.5619 18.8446C30.414 18.7537 30.3708 18.5611 30.4659 18.4143C30.5608 18.2677 30.7579 18.2222 30.9061 18.3129L32.9245 19.5505C33.0726 19.6414 33.1156 19.8341 33.0207 19.9809ZM36.6536 22.2082C36.5585 22.355 36.3614 22.4002 36.2134 22.3096L34.195 21.0721C34.047 20.9813 34.0039 20.7886 34.0988 20.642C34.1939 20.4952 34.391 20.4498 34.5391 20.5407L36.5572 21.7781C36.7055 21.8688 36.7485 22.0614 36.6536 22.2082Z" fill="#681D06"/>
<path fill-rule="evenodd" clip-rule="evenodd" d="M25.7541 15.5256C25.6592 15.6724 25.4621 15.7179 25.3138 15.627L24.4202 15.079C24.2719 14.9883 24.2289 14.7956 24.324 14.6488C24.4189 14.502 24.616 14.4568 24.764 14.5475L25.6581 15.0953C25.8061 15.1864 25.849 15.3791 25.7541 15.5256Z" fill="#681D06"/>
<mask id="mask6" mask-type="alpha" maskUnits="userSpaceOnUse" x="8" y="10" width="24" height="31">
<path fill-rule="evenodd" clip-rule="evenodd" d="M14.9276 10.7335L8.19983 35.4122C8.13934 35.6345 8.26396 35.8612 8.47974 35.9185L13.1552 37.1572C13.3712 37.2143 13.5943 37.0796 13.6548 36.8574C14.0788 35.3027 15.6444 34.3651 17.1493 34.7637C18.6559 35.1629 19.5336 36.7481 19.1098 38.303C19.0495 38.525 19.1739 38.7519 19.3897 38.809L24.0652 40.048C24.2809 40.1051 24.5042 39.9704 24.5649 39.7481L31.2925 15.0693C31.3527 14.8471 31.2279 14.621 31.0121 14.5639L26.3366 13.325C26.1211 13.2679 25.8978 13.4017 25.8373 13.6242C25.413 15.1804 23.8485 16.1165 22.3415 15.7175C20.8364 15.3187 19.9585 13.7342 20.3823 12.1786C20.443 11.9566 20.318 11.7305 20.1022 11.6732L15.4267 10.4345C15.393 10.4254 15.3591 10.4211 15.3259 10.4211C15.1453 10.4211 14.9786 10.5459 14.9276 10.7335Z" fill="white"/>
</mask>
<g mask="url(#mask6)">
<path fill-rule="evenodd" clip-rule="evenodd" d="M4.93115 37.6135L13.2183 7.21375L34.56 12.8683L26.2729 43.268L4.93115 37.6135Z" fill="#F79552"/>
</g>
<path fill-rule="evenodd" clip-rule="evenodd" d="M13.9613 28.6384C13.7427 29.4314 14.2076 30.2452 14.9975 30.4523C15.7869 30.6591 16.608 30.1823 16.8264 29.3894C17.045 28.5964 16.5797 27.7821 15.7903 27.5754C15.0004 27.3682 14.1798 27.8452 13.9613 28.6384ZM17.5147 29.5696C17.1946 30.7307 15.9826 31.4268 14.8134 31.1203C13.6436 30.8139 12.9531 29.619 13.273 28.4581C13.5934 27.2962 14.8045 26.6007 15.9746 26.9072C17.1435 27.2137 17.8348 28.4077 17.5147 29.5696Z" fill="#681D06"/>
<mask id="mask7" mask-type="alpha" maskUnits="userSpaceOnUse" x="13" y="26" width="5" height="6">
<path fill-rule="evenodd" clip-rule="evenodd" d="M13.2999 28.3426C12.9901 29.4896 13.6584 30.6699 14.7902 30.9727C15.9218 31.2754 17.0946 30.5878 17.4044 29.4408C17.7142 28.2929 17.0452 27.1134 15.9138 26.8104C15.7331 26.7621 15.5513 26.7391 15.372 26.7391C14.4294 26.7391 13.5602 27.3782 13.2999 28.3426ZM14.9687 30.3125C14.204 30.1082 13.7544 29.3042 13.9659 28.5208C14.1774 27.7373 14.9712 27.2662 15.7358 27.4708C16.4997 27.6749 16.9499 28.4791 16.7384 29.2627C16.5604 29.9222 15.9692 30.3605 15.3308 30.3603C15.211 30.3603 15.0893 30.3448 14.9687 30.3125Z" fill="white"/>
</mask>
<g mask="url(#mask7)">
<path fill-rule="evenodd" clip-rule="evenodd" d="M11.4551 31.1597L13.1222 24.9841L19.2492 26.6234L17.5821 32.799L11.4551 31.1597Z" fill="#681D06"/>
</g>
<path fill-rule="evenodd" clip-rule="evenodd" d="M21.1371 25.8858C20.9185 26.679 21.3834 27.4927 22.1734 27.6999C22.9633 27.9068 23.7838 27.4298 24.0022 26.637C24.2208 25.8438 23.7561 25.0299 22.9662 24.8228C22.1762 24.6158 21.3557 25.0928 21.1371 25.8858ZM24.6905 26.8172C24.3702 27.979 23.1584 28.6744 21.9892 28.368C20.82 28.0617 20.1287 26.8673 20.4488 25.7055C20.7692 24.5438 21.9812 23.8485 23.1504 24.1548C24.3193 24.4613 25.0106 25.6553 24.6905 26.8172Z" fill="#681D06"/>
<mask id="mask8" mask-type="alpha" maskUnits="userSpaceOnUse" x="20" y="24" width="5" height="5">
<path fill-rule="evenodd" clip-rule="evenodd" d="M20.544 25.662C20.2342 26.8099 20.9034 27.9896 22.0343 28.2924C23.1659 28.5949 24.3385 27.9079 24.6485 26.7605C24.9582 25.6126 24.2893 24.4329 23.1579 24.1304C22.9772 24.082 22.7956 24.0588 22.6163 24.0588C21.6741 24.0588 20.8043 24.6977 20.544 25.662ZM22.2127 27.6322C21.4481 27.4275 20.9984 26.6239 21.2099 25.8401C21.4215 25.057 22.2154 24.5857 22.9799 24.7903C23.7441 24.9948 24.194 25.7986 23.9824 26.5822C23.8044 27.2417 23.2134 27.68 22.5746 27.68C22.4548 27.68 22.3333 27.6646 22.2127 27.6322Z" fill="white"/>
</mask>
<g mask="url(#mask8)">
<path fill-rule="evenodd" clip-rule="evenodd" d="M18.6992 28.4793L20.3663 22.3037L26.4934 23.943L24.8263 30.1186L18.6992 28.4793Z" fill="#681D06"/>
</g>
<path fill-rule="evenodd" clip-rule="evenodd" d="M23.8308 32.7726C23.8132 32.8374 23.7767 32.8976 23.7212 32.9447C23.575 33.0686 23.3549 33.0513 23.2289 32.9072L14.6677 23.0469C14.5422 22.9011 14.5589 22.6844 14.7049 22.5596C14.8512 22.4359 15.0713 22.4532 15.1969 22.5981L23.7585 32.4579C23.8365 32.5485 23.8597 32.6661 23.8308 32.7726Z" fill="#681D06"/>
<mask id="mask9" mask-type="alpha" maskUnits="userSpaceOnUse" x="14" y="22" width="10" height="12">
<path fill-rule="evenodd" clip-rule="evenodd" d="M14.6876 22.4974C14.539 22.6227 14.5219 22.8402 14.6498 22.9869L23.371 32.8938C23.4994 33.0385 23.7236 33.0559 23.8725 32.9314C23.9291 32.884 23.9663 32.8236 23.9842 32.7585C24.0136 32.6515 23.9902 32.5332 23.9107 32.4423L15.1888 22.5361C15.1184 22.4557 15.0186 22.4143 14.9181 22.4143C14.8365 22.4143 14.7544 22.4416 14.6876 22.4974Z" fill="white"/>
</mask>
<g mask="url(#mask9)">
<path fill-rule="evenodd" clip-rule="evenodd" d="M24.4908 58.3919L36.3228 15.3213L5.44306 7.20215L-6.38867 50.2726L24.4908 58.3919Z" fill="#681D06"/>
</g>
<mask id="mask10" mask-type="alpha" maskUnits="userSpaceOnUse" x="14" y="22" width="10" height="12">
<path fill-rule="evenodd" clip-rule="evenodd" d="M14.6876 22.4974C14.539 22.6227 14.5219 22.8402 14.6498 22.9869L23.371 32.8938C23.4994 33.0385 23.7236 33.0559 23.8725 32.9314C23.9291 32.884 23.9663 32.8236 23.9842 32.7585C24.0136 32.6515 23.9902 32.5332 23.9107 32.4423L15.1888 22.5361C15.1182 22.4557 15.0186 22.4143 14.9179 22.4143C14.8365 22.4143 14.7544 22.4416 14.6876 22.4974Z" fill="white"/>
</mask>
<g mask="url(#mask10)">
<path fill-rule="evenodd" clip-rule="evenodd" d="M11.21 30.8526L13.9054 21.0413L27.3506 24.5766L24.6551 34.3879L11.21 30.8526Z" fill="#681D06"/>
</g>
<path fill-rule="evenodd" clip-rule="evenodd" d="M26.1766 13.1039C26.1766 13.1039 26.0654 13.5122 26.01 13.7163L29.7282 14.7042C29.7282 14.7042 29.9348 14.7592 29.8238 15.1678L23.2173 39.4697L24.6633 39.8537L31.5472 14.5308L30.1015 14.1466L30.0409 14.3689L26.1766 13.1039Z" fill="#F26649"/>
<path fill-rule="evenodd" clip-rule="evenodd" d="M22.7501 15.9448C19.7254 15.7757 19.384 12.8319 19.4961 12.4766C19.4961 12.4766 19.606 12.015 19.1928 11.9052C18.4482 11.7075 15.0615 10.8075 15.0615 10.8075L15.0215 10.1401L20.0704 11.3501L20.1483 12.5811C20.2377 14.5741 22.7501 15.9448 22.7501 15.9448Z" fill="#F26649"/>
<mask id="mask11" mask-type="alpha" maskUnits="userSpaceOnUse" x="7" y="9" width="25" height="32">
<path fill-rule="evenodd" clip-rule="evenodd" d="M14.4557 10.38L7.68541 35.2039C7.5742 35.6115 7.81403 36.0312 8.22077 36.1391L12.9625 37.3947C13.3688 37.5024 13.7904 37.258 13.9018 36.85C14.2774 35.4724 15.6701 34.6401 17.0071 34.9943C18.3441 35.3482 19.1256 36.7567 18.75 38.134C18.6388 38.542 18.8793 38.9617 19.2856 39.0694L24.0271 40.3252C24.4341 40.4329 24.8557 40.1883 24.9671 39.7807L31.7372 14.9568C31.8484 14.549 31.6081 14.1291 31.2011 14.0212L26.4592 12.7656C26.0533 12.6579 25.6315 12.9023 25.5203 13.3103C25.1448 14.6878 23.7518 15.5202 22.4148 15.1662C21.078 14.812 20.2961 13.4036 20.6719 12.0263C20.7831 11.6185 20.5426 11.1986 20.1365 11.0909L15.3948 9.83525C15.3296 9.81787 15.2644 9.80981 15.1999 9.80981C14.8614 9.80981 14.549 10.0372 14.4557 10.38ZM13.1458 36.7241L8.40387 35.468C8.3787 35.4614 8.35827 35.4258 8.36945 35.3849L15.1395 10.561C15.1505 10.5209 15.1864 10.4993 15.2118 10.5061L19.9535 11.7622C19.9796 11.7687 19.9991 11.8041 19.9882 11.8453C19.5117 13.5922 20.5181 15.3833 22.232 15.8369C23.9454 16.2909 25.7277 15.2385 26.2044 13.4913C26.2155 13.4504 26.251 13.4296 26.2762 13.4366L31.0181 14.6921C31.0321 14.6959 31.0442 14.7078 31.0511 14.7245C31.0569 14.7387 31.0586 14.7567 31.0534 14.7756L24.2831 39.5995C24.272 39.641 24.2362 39.6612 24.2104 39.6542L19.4685 38.3983C19.4431 38.3917 19.4229 38.3568 19.4341 38.315C19.9105 36.5681 18.9041 34.777 17.19 34.3234C15.4764 33.8694 13.6945 34.9218 13.2179 36.669C13.208 36.7054 13.18 36.7253 13.1559 36.7253C13.1525 36.7253 13.149 36.7249 13.1458 36.7241Z" fill="white"/>
</mask>
<g mask="url(#mask11)">
<path fill-rule="evenodd" clip-rule="evenodd" d="M6.16602 36.6921L13.8982 8.34143L33.2568 13.4685L25.5246 41.819L6.16602 36.6921Z" fill="#681D06"/>
</g>
<path fill-rule="evenodd" clip-rule="evenodd" d="M29.9647 20.726C29.9187 20.8948 29.745 20.9955 29.5767 20.951L28.5616 20.6821C28.3935 20.6376 28.2943 20.4646 28.3404 20.2958C28.3864 20.127 28.5601 20.0263 28.7284 20.0708L29.7435 20.3397C29.9116 20.3842 30.0107 20.5572 29.9647 20.726Z" fill="#681D06"/>
<path fill-rule="evenodd" clip-rule="evenodd" d="M18.8625 17.7856C18.8165 17.9544 18.6431 18.0552 18.4746 18.0107L16.1822 17.4034C16.0139 17.3591 15.915 17.1859 15.961 17.0171C16.007 16.8485 16.1807 16.7476 16.349 16.7921L18.6416 17.3994C18.8097 17.4439 18.9086 17.617 18.8625 17.7856ZM22.989 18.8786C22.9432 19.0472 22.7693 19.1481 22.601 19.1035L20.3084 18.4965C20.1403 18.4517 20.0412 18.2789 20.0872 18.1101C20.1335 17.9413 20.3071 17.8406 20.4752 17.8852L22.7678 18.4922C22.9359 18.537 23.035 18.7098 22.989 18.8786ZM27.1154 19.9714C27.0693 20.1402 26.8957 20.2411 26.7274 20.1966L24.435 19.5893C24.2669 19.5448 24.1678 19.3717 24.2138 19.2029C24.2599 19.0343 24.4337 18.9332 24.6018 18.978L26.8942 19.5851C27.0625 19.6296 27.1614 19.8028 27.1154 19.9714Z" fill="#681D06"/>
<path fill-rule="evenodd" clip-rule="evenodd" d="M14.7362 16.6928C14.6902 16.8616 14.5167 16.9623 14.3482 16.9178L13.3331 16.6489C13.1648 16.6044 13.0658 16.4314 13.1119 16.2626C13.1579 16.0938 13.3316 15.9931 13.4999 16.0376L14.515 16.3065C14.6833 16.351 14.7822 16.524 14.7362 16.6928Z" fill="#681D06"/>
</svg>
