<svg width="95" height="95" viewBox="0 0 95 95" fill="none" xmlns="http://www.w3.org/2000/svg">
<path fill-rule="evenodd" clip-rule="evenodd" d="M47.49 94.1598C73.2478 94.1598 94.1285 73.279 94.1285 47.5213C94.1285 21.7636 73.2478 0.882812 47.49 0.882812C21.7323 0.882812 0.851562 21.7636 0.851562 47.5213C0.851562 73.279 21.7323 94.1598 47.49 94.1598Z" fill="#DAD4E7"/>
<mask id="mask0" mask-type="alpha" maskUnits="userSpaceOnUse" x="26" y="19" width="55" height="59">
<path fill-rule="evenodd" clip-rule="evenodd" d="M53.0205 19.5721L27.0565 60.1218C26.8232 60.4866 26.9191 60.9609 27.2746 61.181V61.181L34.972 65.9528C35.3271 66.1733 35.8039 66.0535 36.0377 65.6886V65.6886C37.6733 63.1334 41.0119 62.3085 43.4896 63.8437V63.8437C45.9696 65.3817 46.654 68.7007 45.018 71.2555V71.2555C44.7846 71.6204 44.8809 72.0955 45.2364 72.3152V72.3152L52.9338 77.0865C53.2889 77.3066 53.7657 77.1872 53.9987 76.8224V76.8224L79.9631 36.2731C80.1964 35.9078 80.0993 35.4347 79.7446 35.2146V35.2146L72.0468 30.4429C71.6913 30.2228 71.2153 30.341 70.9823 30.7062V30.7062C69.3447 33.263 66.0089 34.0871 63.528 32.5491V32.5491C61.05 31.0136 60.3647 27.6949 62.0012 25.1393V25.1393C62.2346 24.7741 62.1378 24.3006 61.7831 24.0805V24.0805L54.0854 19.3091C53.9641 19.2342 53.8286 19.1985 53.694 19.1985V19.1985C53.4332 19.1985 53.1744 19.3313 53.0205 19.5721V19.5721Z" fill="white"/>
</mask>
<g mask="url(#mask0)">
<path fill-rule="evenodd" clip-rule="evenodd" d="M19.9497 62.282L51.9318 12.3328L87.0683 34.1129L55.0858 84.0621L19.9497 62.282Z" fill="#F9B950"/>
</g>
<path fill-rule="evenodd" clip-rule="evenodd" d="M41.4265 51.0294C40.5844 52.3433 40.9555 54.0667 42.2536 54.871C43.5508 55.6744 45.2935 55.2597 46.136 53.9462C46.9777 52.6323 46.6058 50.9077 45.3085 50.1047C44.01 49.3005 42.2682 49.7155 41.4265 51.0294M47.2668 54.6467C46.0337 56.57 43.4656 57.1675 41.5442 55.9773C39.6217 54.7872 39.0626 52.2528 40.2953 50.329C41.5292 48.4044 44.0949 47.8074 46.0179 48.9975C47.9392 50.1877 48.5003 52.7213 47.2668 54.6467" fill="#681D06"/>
<mask id="mask1" mask-type="alpha" maskUnits="userSpaceOnUse" x="39" y="48" width="9" height="9">
<path fill-rule="evenodd" clip-rule="evenodd" d="M40.4403 50.2987C39.2427 52.1823 39.7857 54.6629 41.6532 55.8284V55.8284C43.5192 56.9931 46.0129 56.4086 47.2109 54.5254V54.5254C48.4084 52.641 47.8639 50.1607 45.9979 48.9956V48.9956C45.3469 48.5893 44.6197 48.3955 43.8981 48.3955V48.3955C42.5503 48.3955 41.2206 49.0714 40.4403 50.2987V50.2987ZM42.3419 54.7454C41.0808 53.9581 40.7208 52.2706 41.5386 50.9844V50.9844C42.3561 49.6986 44.0477 49.2922 45.3084 50.0791V50.0791C46.5687 50.8656 46.9295 52.5535 46.112 53.8397V53.8397C45.5765 54.6817 44.6664 55.1462 43.7484 55.1462V55.1462C43.2638 55.1462 42.7768 55.0169 42.3419 54.7454V54.7454Z" fill="white"/>
</mask>
<g mask="url(#mask1)">
<path fill-rule="evenodd" clip-rule="evenodd" d="M35.5483 54.3269L41.9952 44.1884L52.1018 50.4972L45.6554 60.6357L35.5483 54.3269Z" fill="#681D06"/>
</g>
<path fill-rule="evenodd" clip-rule="evenodd" d="M55.8098 50.1653C54.9681 51.4792 55.3392 53.2026 56.6372 54.0068C57.9353 54.8111 59.6772 54.396 60.5193 53.0821C61.3614 51.7682 60.9903 50.0444 59.6922 49.2405C58.3933 48.4367 56.6519 48.8518 55.8098 50.1653M61.6501 53.7825C60.4162 55.7071 57.8489 56.3034 55.9276 55.1136C54.0063 53.9238 53.4451 51.3898 54.6786 49.4648C55.9121 47.5403 58.4794 46.944 60.4012 48.1338C62.3225 49.324 62.8836 51.8572 61.6501 53.7825" fill="#681D06"/>
<mask id="mask2" mask-type="alpha" maskUnits="userSpaceOnUse" x="53" y="47" width="10" height="9">
<path fill-rule="evenodd" clip-rule="evenodd" d="M54.6205 49.3052C53.4164 51.1986 53.9644 53.6907 55.8393 54.8614V54.8614C57.7142 56.0316 60.2194 55.4447 61.4235 53.5517V53.5517C62.6268 51.6583 62.0797 49.1662 60.2048 47.9959V47.9959C59.5506 47.588 58.8204 47.3933 58.0953 47.3933V47.3933C56.7407 47.3933 55.4046 48.0721 54.6205 49.3052V49.3052ZM56.5314 53.7723C55.2647 52.9817 54.9026 51.2865 55.7239 49.9942V49.9942C56.5457 48.7018 58.245 48.2939 59.5125 49.0842V49.0842C60.7792 49.8752 61.1414 51.5708 60.3196 52.8627V52.8627C59.7816 53.7087 58.8679 54.1759 57.9451 54.1759V54.1759C57.4582 54.1759 56.9688 54.0456 56.5314 53.7723V53.7723Z" fill="white"/>
</mask>
<g mask="url(#mask2)">
<path fill-rule="evenodd" clip-rule="evenodd" d="M49.7056 53.3524L56.1829 43.1653L66.3383 49.5043L59.8605 59.6914L49.7056 53.3524Z" fill="#681D06"/>
</g>
<path fill-rule="evenodd" clip-rule="evenodd" d="M56.9722 63.629C56.9034 63.7355 56.8027 63.8234 56.675 63.8781C56.3381 64.0198 55.9471 63.8678 55.7999 63.5387L45.7976 41.0884C45.652 40.7574 45.8057 40.3765 46.1421 40.2331C46.4789 40.0914 46.8704 40.2434 47.0168 40.5729L57.0191 63.0228C57.1101 63.2291 57.085 63.4532 56.9722 63.629" fill="#681D06"/>
<mask id="mask3" mask-type="alpha" maskUnits="userSpaceOnUse" x="45" y="40" width="12" height="25">
<path fill-rule="evenodd" clip-rule="evenodd" d="M45.7608 40.4928C45.4236 40.6367 45.2694 41.018 45.4155 41.3491V41.3491L55.4524 63.8257C55.6001 64.1552 55.9925 64.3078 56.3305 64.1655V64.1655C56.4591 64.1111 56.5602 64.0223 56.6288 63.9161V63.9161C56.7424 63.7401 56.7671 63.5157 56.6758 63.3091V63.3091L46.6389 40.8333C46.5289 40.5871 46.2826 40.4396 46.0241 40.4396V40.4396C45.9361 40.4396 45.8468 40.4567 45.7608 40.4928V40.4928Z" fill="white"/>
</mask>
<g mask="url(#mask3)">
<path fill-rule="evenodd" clip-rule="evenodd" d="M43.0136 110.126L88.6519 39.3513L37.8395 8.07648L-7.79883 78.8507L43.0136 110.126Z" fill="#681D06"/>
</g>
<mask id="mask4" mask-type="alpha" maskUnits="userSpaceOnUse" x="45" y="40" width="12" height="25">
<path fill-rule="evenodd" clip-rule="evenodd" d="M45.7608 40.4928C45.4236 40.6367 45.2694 41.018 45.4155 41.3491V41.3491L55.4524 63.8257C55.6001 64.1552 55.9925 64.3078 56.3305 64.1655V64.1655C56.4591 64.1111 56.5602 64.0223 56.6288 63.9161V63.9161C56.7424 63.7401 56.7671 63.5157 56.6758 63.3091V63.3091L46.6389 40.8333C46.5289 40.5871 46.2826 40.4396 46.0241 40.4396V40.4396C45.9361 40.4396 45.8468 40.4567 45.7608 40.4928V40.4928Z" fill="white"/>
</mask>
<g mask="url(#mask4)">
<path fill-rule="evenodd" clip-rule="evenodd" d="M34.7861 53.5817L45.1826 37.4596L67.3069 51.0774L56.9104 67.1994L34.7861 53.5817Z" fill="#681D06"/>
</g>
<path fill-rule="evenodd" clip-rule="evenodd" d="M71.8136 29.9169C71.8136 29.9169 71.3808 30.5887 71.164 30.9246L77.3472 34.7344C77.3472 34.7344 77.6911 34.946 77.2579 35.6178L51.5059 75.5957L53.9101 77.0771L80.7445 35.4197L78.3398 33.9383L78.1043 34.3044L71.8136 29.9169Z" fill="#F8971D"/>
<path fill-rule="evenodd" clip-rule="evenodd" d="M63.9913 33.1364C58.6022 31.1757 59.6513 25.7075 60.0561 25.1317C60.0561 25.1317 60.5165 24.3638 59.8295 23.9405C58.5909 23.1774 52.9595 19.7075 52.9595 19.7075L53.2652 18.4877L61.7352 23.4256L61.179 25.6761C60.2116 29.3004 63.9913 33.1364 63.9913 33.1364" fill="#F8971D"/>
<mask id="mask5" mask-type="alpha" maskUnits="userSpaceOnUse" x="26" y="18" width="56" height="60">
<path fill-rule="evenodd" clip-rule="evenodd" d="M52.3663 18.6798L26.2494 59.4917C25.8203 60.1623 26.0147 61.0453 26.6841 61.4605V61.4605L34.4875 66.3003C35.1565 66.7147 36.0502 66.5067 36.4793 65.8361V65.8361C37.9281 63.5713 40.8965 62.8391 43.0968 64.2038V64.2038C45.2971 65.5684 45.9076 68.5201 44.4579 70.7845V70.7845C44.0289 71.4551 44.2244 72.3388 44.8927 72.7533V72.7533L52.696 77.5931C53.3659 78.0083 54.2596 77.8007 54.689 77.1301V77.1301L80.8059 36.3182C81.2354 35.6476 81.0402 34.7639 80.3704 34.3486V34.3486L72.5671 29.5088C71.8988 29.094 71.0047 29.3024 70.5752 29.973V29.973C69.126 32.2378 66.158 32.9696 63.9577 31.605V31.605C61.7578 30.2407 61.1469 27.289 62.5962 25.0247V25.0247C63.0252 24.3537 62.8301 23.4703 62.1618 23.0554V23.0554L54.3585 18.2157C54.125 18.0709 53.8648 18.0021 53.6062 18.0021V18.0021C53.123 18.0021 52.6463 18.2431 52.3663 18.6798V18.6798ZM35.1935 65.1969L27.3902 60.3571C27.3486 60.3317 27.332 60.2569 27.3749 60.1893V60.1893L53.4925 19.3774C53.5346 19.3118 53.6113 19.2931 53.6529 19.3186V19.3186L61.4562 24.1583C61.4987 24.1846 61.5144 24.259 61.4712 24.3266V24.3266C59.6329 27.1987 60.4316 30.9594 63.2521 32.7083V32.7083C66.0722 34.4576 69.8632 33.5435 71.7007 30.671V30.671C71.7439 30.6038 71.8202 30.5859 71.8611 30.6118V30.6118L79.6648 35.4515C79.6878 35.4658 79.7031 35.4937 79.706 35.5271V35.5271C79.708 35.5565 79.7007 35.5891 79.6809 35.6206V35.6206L53.5636 76.432C53.52 76.5004 53.4449 76.5167 53.4024 76.4905V76.4905L45.5987 71.6507C45.5571 71.6249 45.5397 71.5509 45.5838 71.4829V71.4829C47.4217 68.6103 46.6229 64.8493 43.8028 63.1004V63.1004C40.9828 61.3515 37.1926 62.2655 35.3539 65.138V65.138C35.3232 65.1862 35.2775 65.2088 35.2384 65.2088V65.2088C35.2218 65.2088 35.2064 65.2049 35.1935 65.1969V65.1969Z" fill="white"/>
</mask>
<g mask="url(#mask5)">
<path fill-rule="evenodd" clip-rule="evenodd" d="M22.6851 61.331L52.5129 14.7204L84.3709 34.4792L54.5427 81.0894L22.6851 61.331Z" fill="#681D06"/>
</g>
<path fill-rule="evenodd" clip-rule="evenodd" d="M74.5856 45.5924C74.407 45.8688 74.0354 45.9543 73.7567 45.7832L72.0737 44.7514C71.795 44.5806 71.714 44.2179 71.893 43.9415C72.0717 43.6651 72.4428 43.5799 72.7216 43.7507L74.4045 44.7825C74.6833 44.9536 74.7643 45.3164 74.5856 45.5924" fill="#681D06"/>
<path fill-rule="evenodd" clip-rule="evenodd" d="M56.1812 34.3086C56.0026 34.585 55.6319 34.6706 55.3527 34.4994L51.5521 32.1696C51.2733 31.9989 51.1927 31.6361 51.3714 31.3597C51.55 31.0833 51.9212 30.9978 52.2003 31.1685L56.0005 33.4987C56.2793 33.6699 56.3599 34.0326 56.1812 34.3086M63.0228 38.503C62.8437 38.779 62.4726 38.8646 62.1939 38.6935L58.3932 36.3636C58.1149 36.1925 58.0334 35.8298 58.2125 35.5534C58.3912 35.2774 58.7623 35.1918 59.0414 35.3625L62.8417 37.6928C63.1204 37.8639 63.2014 38.2266 63.0228 38.503M69.8625 42.6967C69.6834 42.9731 69.3123 43.0582 69.0336 42.8875L65.2333 40.5577C64.9546 40.3865 64.8736 40.0238 65.0522 39.7478C65.2313 39.4714 65.6024 39.3859 65.8811 39.557L69.681 41.8868C69.9601 42.0575 70.0412 42.4203 69.8625 42.6967" fill="#681D06"/>
<path fill-rule="evenodd" clip-rule="evenodd" d="M49.3405 30.1148C49.1618 30.3912 48.7907 30.4767 48.5116 30.3056L46.829 29.2738C46.5499 29.103 46.4688 28.7403 46.6479 28.4639C46.8266 28.1875 47.1977 28.1023 47.4764 28.2731L49.1598 29.3045C49.4385 29.476 49.5191 29.8388 49.3405 30.1148" fill="#681D06"/>
<mask id="mask6" mask-type="alpha" maskUnits="userSpaceOnUse" x="16" y="20" width="44" height="57">
<path fill-rule="evenodd" clip-rule="evenodd" d="M28.9561 21.0919L16.289 67.5574C16.1751 67.9758 16.4097 68.4027 16.816 68.5106V68.5106L25.6191 70.8429C26.0258 70.9504 26.4458 70.6968 26.5597 70.2783V70.2783C27.3581 67.3512 30.3058 65.5858 33.1391 66.3363V66.3363C35.9758 67.088 37.6283 70.0725 36.8303 73.0001V73.0001C36.7168 73.4181 36.9511 73.8453 37.3573 73.9528V73.9528L46.1604 76.2856C46.5667 76.3931 46.9871 76.1395 47.1014 75.721V75.721L59.7681 29.2555C59.8816 28.8371 59.6465 28.4115 59.2403 28.304V28.304L50.4372 25.9712C50.0313 25.8637 49.6109 26.1157 49.497 26.5346V26.5346C48.6982 29.4646 45.7525 31.2272 42.9151 30.4759V30.4759C40.0813 29.725 38.4284 26.7416 39.2264 23.8129V23.8129C39.3406 23.3948 39.1052 22.9692 38.6989 22.8613V22.8613L29.8958 20.5289C29.8324 20.5118 29.7686 20.5038 29.706 20.5038V20.5038C29.366 20.5038 29.0522 20.7388 28.9561 21.0919V21.0919Z" fill="white"/>
</mask>
<g mask="url(#mask6)">
<path fill-rule="evenodd" clip-rule="evenodd" d="M10.1348 71.7019L25.7378 14.4649L65.9203 25.1114L50.3173 82.3484L10.1348 71.7019Z" fill="#F79552"/>
</g>
<path fill-rule="evenodd" clip-rule="evenodd" d="M27.1375 54.8036C26.7259 56.2966 27.6012 57.829 29.0886 58.2189C30.5748 58.6083 32.1209 57.7106 32.5321 56.2176C32.9437 54.7245 32.0675 53.1913 30.5813 52.8023C29.0939 52.412 27.5491 53.3102 27.1375 54.8036M33.8279 56.557C33.2252 58.7431 30.9432 60.0537 28.7418 59.4767C26.5392 58.8996 25.2393 56.65 25.8416 54.4642C26.4447 52.2765 28.7251 50.9671 30.9281 51.5441C33.129 52.1211 34.4306 54.3693 33.8279 56.557" fill="#681D06"/>
<mask id="mask7" mask-type="alpha" maskUnits="userSpaceOnUse" x="25" y="51" width="9" height="9">
<path fill-rule="evenodd" clip-rule="evenodd" d="M25.8921 54.2465C25.3089 56.4061 26.5672 58.6285 28.6982 59.1985V59.1985C30.8287 59.7686 33.037 58.4738 33.6202 56.3143V56.3143C34.2034 54.1531 32.9439 51.9323 30.8138 51.3619V51.3619C30.4735 51.2708 30.1312 51.2276 29.7936 51.2276V51.2276C28.0188 51.2276 26.3823 52.4309 25.8921 54.2465V54.2465ZM29.0342 57.9556C27.5945 57.5709 26.7479 56.0571 27.1462 54.5821V54.5821C27.5445 53.1068 29.039 52.22 30.4787 52.6051V52.6051C31.9168 52.9894 32.7646 54.5036 32.3663 55.9789V55.9789C32.0311 57.2207 30.9179 58.0459 29.716 58.0455V58.0455C29.4905 58.0455 29.2614 58.0164 29.0342 57.9556V57.9556Z" fill="white"/>
</mask>
<g mask="url(#mask7)">
<path fill-rule="evenodd" clip-rule="evenodd" d="M22.4189 59.5507L25.5578 47.9233L37.0939 51.0097L33.955 62.6372L22.4189 59.5507Z" fill="#681D06"/>
</g>
<path fill-rule="evenodd" clip-rule="evenodd" d="M40.6482 49.621C40.2366 51.1145 41.1119 52.6465 42.5993 53.0367C44.0867 53.4262 45.6315 52.528 46.0427 51.0354C46.4543 49.5419 45.5794 48.0095 44.092 47.6197C42.6046 47.2298 41.0597 48.128 40.6482 49.621M47.3386 51.3747C46.7355 53.562 44.4539 54.8715 42.2526 54.2945C40.0513 53.7178 38.7497 51.4689 39.3524 49.2816C39.9555 47.0943 42.2375 45.7852 44.4389 46.3619C46.6398 46.9389 47.9413 49.187 47.3386 51.3747" fill="#681D06"/>
<mask id="mask8" mask-type="alpha" maskUnits="userSpaceOnUse" x="39" y="46" width="9" height="9">
<path fill-rule="evenodd" clip-rule="evenodd" d="M39.5312 49.1996C38.948 51.3608 40.2079 53.582 42.3372 54.152V54.152C44.4678 54.7217 46.6756 53.4281 47.2592 51.2677V51.2677C47.8425 49.1066 46.583 46.8854 44.4528 46.3157V46.3157C44.1125 46.2247 43.7706 46.1811 43.4331 46.1811V46.1811C41.659 46.1811 40.0214 47.384 39.5312 49.1996V49.1996ZM42.6731 52.9091C41.2334 52.5236 40.3868 51.0106 40.7851 49.5349V49.5349C41.1833 48.0604 42.6782 47.1731 44.1175 47.5582V47.5582C45.5564 47.9434 46.4035 49.4568 46.0052 50.9321V50.9321C45.67 52.1738 44.5572 52.999 43.3545 52.999V52.999C43.129 52.999 42.9002 52.97 42.6731 52.9091V52.9091Z" fill="white"/>
</mask>
<g mask="url(#mask8)">
<path fill-rule="evenodd" clip-rule="evenodd" d="M36.0581 54.5041L39.197 42.8766L50.733 45.9631L47.5942 57.5905L36.0581 54.5041Z" fill="#681D06"/>
</g>
<path fill-rule="evenodd" clip-rule="evenodd" d="M45.72 62.5875C45.6869 62.7095 45.6182 62.8227 45.5136 62.9115C45.2385 63.1448 44.824 63.1123 44.5868 62.841L28.4677 44.2757C28.2313 44.0012 28.2628 43.5932 28.5376 43.3584C28.8131 43.1255 29.2276 43.1579 29.464 43.4308L45.5839 61.9949C45.7308 62.1656 45.7743 62.387 45.72 62.5875" fill="#681D06"/>
<mask id="mask9" mask-type="alpha" maskUnits="userSpaceOnUse" x="28" y="43" width="19" height="21">
<path fill-rule="evenodd" clip-rule="evenodd" d="M28.5038 43.2412C28.2239 43.4772 28.1918 43.8867 28.4326 44.1629V44.1629L44.8531 62.8156C45.0947 63.0882 45.5169 63.1209 45.7972 62.8865V62.8865C45.9038 62.7973 45.9738 62.6835 46.0075 62.5609V62.5609C46.0628 62.3596 46.0189 62.1367 45.8692 61.9656V61.9656L29.4475 43.314C29.3149 43.1628 29.127 43.0848 28.9378 43.0848V43.0848C28.784 43.0848 28.6295 43.1361 28.5038 43.2412V43.2412Z" fill="white"/>
</mask>
<g mask="url(#mask9)">
<path fill-rule="evenodd" clip-rule="evenodd" d="M46.9616 110.824L69.2389 29.7297L11.0982 14.443L-11.1787 95.5365L46.9616 110.824Z" fill="#681D06"/>
</g>
<mask id="mask10" mask-type="alpha" maskUnits="userSpaceOnUse" x="28" y="43" width="19" height="21">
<path fill-rule="evenodd" clip-rule="evenodd" d="M28.5038 43.2412C28.2239 43.4772 28.1918 43.8867 28.4326 44.1629V44.1629L44.8531 62.8156C45.0947 63.0882 45.5169 63.1209 45.7972 62.8865V62.8865C45.9038 62.7973 45.9738 62.6835 46.0075 62.5609V62.5609C46.0628 62.3596 46.0189 62.1367 45.8692 61.9656V61.9656L29.4475 43.314C29.3145 43.1628 29.127 43.0848 28.9374 43.0848V43.0848C28.784 43.0848 28.6295 43.1361 28.5038 43.2412V43.2412Z" fill="white"/>
</mask>
<g mask="url(#mask10)">
<path fill-rule="evenodd" clip-rule="evenodd" d="M21.9561 58.9725L27.031 40.4996L52.3458 47.156L47.2708 65.6289L21.9561 58.9725Z" fill="#681D06"/>
</g>
<path fill-rule="evenodd" clip-rule="evenodd" d="M50.1358 25.5551C50.1358 25.5551 49.9264 26.3239 49.8221 26.7081L56.8228 28.5682C56.8228 28.5682 57.2118 28.6718 57.0028 29.441L44.564 75.197L47.2865 75.92L60.2477 28.2418L57.5256 27.5183L57.4116 27.9368L50.1358 25.5551Z" fill="#F26649"/>
<path fill-rule="evenodd" clip-rule="evenodd" d="M43.6854 30.904C37.9903 30.5854 37.3476 25.0428 37.5586 24.3739C37.5586 24.3739 37.7656 23.5048 36.9875 23.2981C35.5856 22.9259 29.2091 21.2313 29.2091 21.2313L29.1338 19.9748L38.6399 22.253L38.7865 24.5706C38.9549 28.3232 43.6854 30.904 43.6854 30.904" fill="#F26649"/>
<mask id="mask11" mask-type="alpha" maskUnits="userSpaceOnUse" x="15" y="19" width="46" height="58">
<path fill-rule="evenodd" clip-rule="evenodd" d="M28.0684 20.4263L15.3212 67.1651C15.1119 67.9325 15.5634 68.7227 16.3292 68.9258V68.9258L25.257 71.2899C26.022 71.4927 26.8158 71.0325 27.0256 70.2643V70.2643C27.7327 67.6707 30.3549 66.1035 32.8723 66.7704V66.7704C35.3896 67.4368 36.8609 70.0887 36.1538 72.6819V72.6819C35.9445 73.4501 36.3972 74.2403 37.1622 74.443V74.443L46.0896 76.8076C46.8559 77.0103 47.6496 76.5498 47.8594 75.7824V75.7824L60.6062 29.0436C60.8155 28.2758 60.3632 27.4852 59.597 27.2821V27.2821L50.6688 24.9179C49.9046 24.7152 49.1104 25.1753 48.901 25.9435V25.9435C48.1939 28.5372 45.5713 30.1043 43.0539 29.4379V29.4379C40.5369 28.771 39.0648 26.1191 39.7723 23.5259V23.5259C39.9817 22.7581 39.5289 21.9675 38.7643 21.7648V21.7648L29.8365 19.4007C29.7138 19.3679 29.5911 19.3528 29.4696 19.3528V19.3528C28.8322 19.3528 28.2442 19.781 28.0684 20.4263V20.4263ZM25.602 70.0273L16.6738 67.6624C16.6265 67.65 16.588 67.5829 16.609 67.5059V67.5059L29.3558 20.7672C29.3765 20.6917 29.4441 20.651 29.4919 20.6638V20.6638L38.4197 23.0287C38.4687 23.0411 38.5055 23.1077 38.4849 23.1852V23.1852C37.5878 26.4744 39.4828 29.8466 42.7096 30.7006V30.7006C45.9357 31.5554 49.2914 29.574 50.1888 26.2844V26.2844C50.2099 26.2074 50.2767 26.1683 50.3241 26.1814V26.1814L59.2523 28.5452C59.2786 28.5524 59.3013 28.5747 59.3142 28.6062V28.6062C59.3252 28.633 59.3284 28.6669 59.3187 28.7024V28.7024L46.5715 75.4412C46.5505 75.5194 46.4832 75.5573 46.4346 75.5441V75.5441L37.5064 73.1796C37.4587 73.1672 37.4206 73.1014 37.4416 73.0228V73.0228C38.3387 69.7336 36.4438 66.3614 33.2165 65.5073V65.5073C29.99 64.6525 26.6351 66.6339 25.7377 69.9235V69.9235C25.7191 69.9922 25.6664 70.0297 25.6211 70.0297V70.0297C25.6146 70.0297 25.6081 70.0289 25.602 70.0273V70.0273Z" fill="white"/>
</mask>
<g mask="url(#mask11)">
<path fill-rule="evenodd" clip-rule="evenodd" d="M12.4604 69.9671L27.0187 16.5881L63.4673 26.2414L48.9091 79.62L12.4604 69.9671Z" fill="#681D06"/>
</g>
<path fill-rule="evenodd" clip-rule="evenodd" d="M57.2685 39.9062C57.1818 40.224 56.8548 40.4135 56.538 40.3297L54.6266 39.8236C54.3102 39.7397 54.1235 39.414 54.2102 39.0961C54.2969 38.7783 54.6238 38.5888 54.9407 38.6726L56.852 39.1788C57.1685 39.2626 57.3551 39.5884 57.2685 39.9062" fill="#681D06"/>
<path fill-rule="evenodd" clip-rule="evenodd" d="M36.3652 34.3697C36.2785 34.6876 35.952 34.8775 35.6347 34.7937L31.3186 33.6503C31.0017 33.5668 30.8154 33.2406 30.9021 32.9228C30.9888 32.6054 31.3157 32.4155 31.6326 32.4993L35.9491 33.6427C36.2656 33.7265 36.4519 34.0523 36.3652 34.3697M44.135 36.4277C44.0487 36.7452 43.7214 36.9351 43.4045 36.8512L39.088 35.7082C38.7715 35.624 38.5849 35.2986 38.6715 34.9808C38.7586 34.663 39.0856 34.4735 39.402 34.5573L43.7185 35.7003C44.035 35.7845 44.2217 36.1099 44.135 36.4277M51.904 38.4853C51.8173 38.8032 51.4903 38.9931 51.1735 38.9092L46.8573 37.7658C46.5409 37.682 46.3542 37.3562 46.4409 37.0384C46.5276 36.721 46.8549 36.5307 47.1714 36.6149L51.4875 37.7579C51.8044 37.8417 51.9906 38.1679 51.904 38.4853" fill="#681D06"/>
<path fill-rule="evenodd" clip-rule="evenodd" d="M28.5961 32.3123C28.5095 32.6302 28.1829 32.8197 27.8656 32.7358L25.9543 32.2297C25.6374 32.1459 25.4512 31.8201 25.5379 31.5022C25.6245 31.1844 25.9515 30.9949 26.2684 31.0787L28.1797 31.5849C28.4966 31.6687 28.6828 31.9945 28.5961 32.3123" fill="#681D06"/>
</svg>
