<svg width="95" height="95" viewBox="0 0 95 95" fill="none" xmlns="http://www.w3.org/2000/svg">
<path fill-rule="evenodd" clip-rule="evenodd" d="M47.7734 94.1406C73.7697 94.1406 94.8438 73.0665 94.8438 47.0703C94.8438 21.0741 73.7697 0 47.7734 0C21.7772 0 0.703125 21.0741 0.703125 47.0703C0.703125 73.0665 21.7772 94.1406 47.7734 94.1406Z" fill="#DAD4E7"/>
<path d="M25.8679 65.3336H20.1912C19.8241 65.3336 19.5322 65.0418 19.5322 64.6746C19.5322 64.3075 19.8241 64.0156 20.1912 64.0156H25.8679C26.235 64.0156 26.5269 64.3075 26.5269 64.6746C26.5269 65.0418 26.235 65.3336 25.8679 65.3336Z" fill="#333333"/>
<path d="M76.421 65.3336H31.177C30.8099 65.3336 30.5181 65.0418 30.5181 64.6746C30.5181 64.3075 30.8099 64.0156 31.177 64.0156H76.421C76.7882 64.0156 77.08 64.3075 77.08 64.6746C77.08 65.0418 76.7882 65.3336 76.421 65.3336Z" fill="#333333"/>
<path d="M26.4006 51.9236H18.9729C18.6058 51.9236 18.314 51.6318 18.314 51.2646C18.314 50.8975 18.6058 50.6057 18.9729 50.6057H26.4006C26.7678 50.6057 27.0596 50.8975 27.0596 51.2646C27.0596 51.6318 26.7584 51.9236 26.4006 51.9236Z" fill="#CC1A5D"/>
<path d="M24.6218 45.362H17.1941C16.827 45.362 16.5352 45.0702 16.5352 44.703C16.5352 44.3359 16.827 44.0441 17.1941 44.0441H24.6218C24.989 44.0441 25.2808 44.3359 25.2808 44.703C25.2808 45.0702 24.9796 45.362 24.6218 45.362Z" fill="#A9095F"/>
<path d="M26.4389 37.2188H22.7957C22.4286 37.2188 22.1367 36.927 22.1367 36.5599C22.1367 36.1927 22.4286 35.9009 22.7957 35.9009H26.4389C26.8061 35.9009 27.0979 36.1927 27.0979 36.5599C27.0979 36.927 26.8061 37.2188 26.4389 37.2188Z" fill="#A9095F"/>
<path fill-rule="evenodd" clip-rule="evenodd" d="M76.0156 58.327V43.3459C76.0156 38.9355 72.4252 35.3233 68.0414 35.3233H60.0671L59.9475 58.3671L76.0156 58.327Z" fill="#F8971D" stroke="#A9095F" stroke-width="1.41211" stroke-linecap="round" stroke-linejoin="round"/>
<path d="M72.25 42.1346V45.9247H63.7773V39.3348H69.4258C70.9772 39.3348 72.25 40.5947 72.25 42.1346Z" fill="#FCDDD7" stroke="#A9095F" stroke-width="1.41211" stroke-linecap="round" stroke-linejoin="round"/>
<path d="M66.6016 49.8945H63.7773" stroke="#A9095F" stroke-width="1.41211" stroke-linecap="round" stroke-linejoin="round"/>
<path fill-rule="evenodd" clip-rule="evenodd" d="M60.0649 28.9983C60.0665 28.5812 59.7289 28.2422 59.3117 28.2422H30.9175C30.5015 28.2422 30.1644 28.5794 30.1644 28.9953V58.3271L59.9483 58.3672L60.0649 28.9983Z" fill="#D14B8F" stroke="#A9095F" stroke-width="1.41211" stroke-linecap="round" stroke-linejoin="round"/>
<path fill-rule="evenodd" clip-rule="evenodd" d="M72.3614 59.0313C72.3614 61.7845 70.1306 64.0153 67.3775 64.0153C64.6224 64.0153 62.3936 61.7845 62.3936 59.0313C62.3936 56.2802 64.6224 54.0474 67.3775 54.0474C70.1306 54.0474 72.3614 56.2802 72.3614 59.0313V59.0313Z" fill="#555555" stroke="#333333" stroke-width="1.88281" stroke-linecap="round" stroke-linejoin="round"/>
<path fill-rule="evenodd" clip-rule="evenodd" d="M45.7256 59.0313C45.7256 61.7845 43.4948 64.0153 40.7417 64.0153C37.9866 64.0153 35.7578 61.7845 35.7578 59.0313C35.7578 56.2802 37.9866 54.0474 40.7417 54.0474C43.4948 54.0474 45.7256 56.2802 45.7256 59.0313V59.0313Z" fill="#555555" stroke="#333333" stroke-width="1.88281" stroke-linecap="round" stroke-linejoin="round"/>
<path fill-rule="evenodd" clip-rule="evenodd" d="M42.6914 59.0261C42.6914 60.0662 41.8487 60.9089 40.8086 60.9089C39.7678 60.9089 38.9258 60.0662 38.9258 59.0261C38.9258 57.9868 39.7678 57.1433 40.8086 57.1433C41.8487 57.1433 42.6914 57.9868 42.6914 59.0261V59.0261Z" fill="#888888" stroke="#333333" stroke-width="1.88281" stroke-linecap="round" stroke-linejoin="round"/>
<path fill-rule="evenodd" clip-rule="evenodd" d="M69.2383 59.0261C69.2383 60.0662 68.3955 60.9089 67.3555 60.9089C66.3146 60.9089 65.4727 60.0662 65.4727 59.0261C65.4727 57.9868 66.3146 57.1433 67.3555 57.1433C68.3955 57.1433 69.2383 57.9868 69.2383 59.0261V59.0261Z" fill="#888888" stroke="#333333" stroke-width="1.88281" stroke-linecap="round" stroke-linejoin="round"/>
<circle cx="44.9492" cy="42.3633" r="7.53125" fill="#DAD4E7"/>
<path d="M40.9663 41.7903L49.6562 32.9492L46.0355 40.3167L49.6562 41.7903L40.2422 49.8945L45.3113 42.527L40.9663 41.7903Z" fill="#F9B950" stroke="#F8971D" stroke-width="0.941406" stroke-linecap="round" stroke-linejoin="round"/>
</svg>
