<svg width="50" height="50" viewBox="0 0 50 50" fill="none" xmlns="http://www.w3.org/2000/svg">
<path fill-rule="evenodd" clip-rule="evenodd" d="M25 50C38.8071 50 50 38.8071 50 25C50 11.1929 38.8071 0 25 0C11.1929 0 0 11.1929 0 25C0 38.8071 11.1929 50 25 50Z" fill="#DAD4E7"/>
<path d="M13.3655 34.6999H10.3505C10.1555 34.6999 10.0005 34.5449 10.0005 34.3499C10.0005 34.1549 10.1555 33.9999 10.3505 33.9999H13.3655C13.5605 33.9999 13.7155 34.1549 13.7155 34.3499C13.7155 34.5449 13.5605 34.6999 13.3655 34.6999Z" fill="#333333"/>
<path d="M40.2154 34.6999H16.1854C15.9904 34.6999 15.8354 34.5449 15.8354 34.3499C15.8354 34.1549 15.9904 33.9999 16.1854 33.9999H40.2154C40.4104 33.9999 40.5655 34.1549 40.5655 34.3499C40.5655 34.5449 40.4104 34.6999 40.2154 34.6999Z" fill="#333333"/>
<path d="M13.6485 27.5777H9.70352C9.50852 27.5777 9.35352 27.4227 9.35352 27.2277C9.35352 27.0327 9.50852 26.8777 9.70352 26.8777H13.6485C13.8435 26.8777 13.9985 27.0327 13.9985 27.2277C13.9985 27.4227 13.8385 27.5777 13.6485 27.5777Z" fill="#CC1A5D"/>
<path d="M12.7037 24.0926H8.75869C8.56369 24.0926 8.40869 23.9376 8.40869 23.7426C8.40869 23.5476 8.56369 23.3926 8.75869 23.3926H12.7037C12.8987 23.3926 13.0537 23.5476 13.0537 23.7426C13.0537 23.9376 12.8937 24.0926 12.7037 24.0926Z" fill="#A9095F"/>
<path d="M13.6688 19.7676H11.7338C11.5388 19.7676 11.3838 19.6126 11.3838 19.4176C11.3838 19.2226 11.5388 19.0676 11.7338 19.0676H13.6688C13.8638 19.0676 14.0188 19.2226 14.0188 19.4176C14.0188 19.6126 13.8638 19.7676 13.6688 19.7676Z" fill="#A9095F"/>
<path fill-rule="evenodd" clip-rule="evenodd" d="M40 30.9787V23.022C40 20.6795 38.0931 18.761 35.7647 18.761H31.5294L31.4659 31L40 30.9787Z" fill="#F8971D" stroke="#A9095F" stroke-width="0.75" stroke-linecap="round" stroke-linejoin="round"/>
<path d="M38 22.3786V24.3916H33.5V20.8916H36.5C37.324 20.8916 38 21.5607 38 22.3786Z" fill="#FCDDD7" stroke="#A9095F" stroke-width="0.75" stroke-linecap="round" stroke-linejoin="round"/>
<path d="M35 26.5H33.5" stroke="#A9095F" stroke-width="0.75" stroke-linecap="round" stroke-linejoin="round"/>
<path fill-rule="evenodd" clip-rule="evenodd" d="M31.5282 15.4016C31.5291 15.1801 31.3497 15 31.1282 15H16.0474C15.8265 15 15.6474 15.1791 15.6474 15.4V30.9787L31.4663 31L31.5282 15.4016Z" fill="#D14B8F" stroke="#A9095F" stroke-width="0.75" stroke-linecap="round" stroke-linejoin="round"/>
<path fill-rule="evenodd" clip-rule="evenodd" d="M38.0593 31.3527C38.0593 32.815 36.8744 33.9998 35.4122 33.9998C33.9489 33.9998 32.7651 32.815 32.7651 31.3527C32.7651 29.8916 33.9489 28.7057 35.4122 28.7057C36.8744 28.7057 38.0593 29.8916 38.0593 31.3527Z" fill="#555555" stroke="#333333" stroke-linecap="round" stroke-linejoin="round"/>
<path fill-rule="evenodd" clip-rule="evenodd" d="M23.9123 31.3527C23.9123 32.815 22.7275 33.9998 21.2652 33.9998C19.8019 33.9998 18.6182 32.815 18.6182 31.3527C18.6182 29.8916 19.8019 28.7057 21.2652 28.7057C22.7275 28.7057 23.9123 29.8916 23.9123 31.3527Z" fill="#555555" stroke="#333333" stroke-linecap="round" stroke-linejoin="round"/>
<path fill-rule="evenodd" clip-rule="evenodd" d="M22.3008 31.35C22.3008 31.9024 21.8532 32.35 21.3008 32.35C20.748 32.35 20.3008 31.9024 20.3008 31.35C20.3008 30.798 20.748 30.35 21.3008 30.35C21.8532 30.35 22.3008 30.798 22.3008 31.35Z" fill="#888888" stroke="#333333" stroke-linecap="round" stroke-linejoin="round"/>
<path fill-rule="evenodd" clip-rule="evenodd" d="M36.4004 31.35C36.4004 31.9024 35.9528 32.35 35.4004 32.35C34.8476 32.35 34.4004 31.9024 34.4004 31.35C34.4004 30.798 34.8476 30.35 35.4004 30.35C35.9528 30.35 36.4004 30.798 36.4004 31.35Z" fill="#888888" stroke="#333333" stroke-linecap="round" stroke-linejoin="round"/>
<circle cx="23.5" cy="22.5" r="4" fill="#DAD4E7"/>
<path d="M21.3846 22.1957L26 17.5L24.0769 21.413L26 22.1957L21 26.5L23.6923 22.587L21.3846 22.1957Z" fill="#F9B950" stroke="#F8971D" stroke-width="0.5" stroke-linecap="round" stroke-linejoin="round"/>
</svg>
