<svg width="50" height="50" viewBox="0 0 50 50" fill="none" xmlns="http://www.w3.org/2000/svg">
<path fill-rule="evenodd" clip-rule="evenodd" d="M25 50C38.8071 50 50 38.8071 50 25C50 11.1929 38.8071 0 25 0C11.1929 0 0 11.1929 0 25C0 38.8071 11.1929 50 25 50Z" fill="#DAD4E7"/>
<path fill-rule="evenodd" clip-rule="evenodd" d="M32.7536 37.6089C32.4017 37.6089 32.0493 37.5159 31.7071 37.3327L24.8592 33.6661L24.8297 33.6648L24.8 33.6661L20.3125 36.069C20.4243 35.45 20.5322 34.8366 20.6356 34.2329L24.1071 32.374C24.3068 32.2672 24.5681 32.2138 24.8297 32.2138C25.0504 32.2138 25.271 32.2517 25.4546 32.3279C25.4563 32.3286 25.4579 32.3292 25.4596 32.3299C25.4917 32.3436 25.5226 32.3581 25.5523 32.374L32.4488 36.0667C32.454 36.0694 32.459 36.0722 32.4642 36.0749C32.5736 36.1313 32.6713 36.1581 32.7536 36.1581C32.9648 36.1581 33.073 35.9817 33.0095 35.6771L31.467 28.2656C31.4527 28.1969 31.4458 28.1242 31.4458 28.0492C31.4453 27.6559 31.6315 27.201 31.9138 26.9519L37.7183 21.8225C37.8534 21.7031 37.9185 21.5861 37.9188 21.4854C37.919 21.336 37.7754 21.2228 37.5041 21.1921L29.6543 20.3042C29.6436 20.303 29.6329 20.3017 29.6222 20.3001C29.1757 20.2358 28.6723 19.88 28.4852 19.4922L25.1764 12.6294C25.1533 12.5813 25.1283 12.539 25.102 12.5026C25.0199 12.3887 24.9248 12.3317 24.8297 12.3317C24.7041 12.3317 24.5788 12.4308 24.483 12.6294L22.8252 16.068C22.9129 14.7188 22.9795 13.423 23.0287 12.1798L23.1048 12.022C23.4494 11.3073 24.0942 10.8809 24.8297 10.8809C25.5652 10.8809 26.21 11.3073 26.5546 12.022L29.84 18.8366L29.8878 18.8698L37.6824 19.7513C38.4997 19.8438 39.1234 20.298 39.3505 20.9666C39.578 21.6352 39.3531 22.3533 38.7489 22.8877L32.9845 27.9812L32.9664 28.0351L34.498 35.394C34.6243 36.0008 34.4932 36.5691 34.1285 36.994C33.7934 37.3847 33.2924 37.6089 32.7536 37.6089Z" fill="#F8AF28"/>
<path fill-rule="evenodd" clip-rule="evenodd" d="M16.646 38.7225C16.1258 38.7225 15.6415 38.497 15.3175 38.1036C14.9653 37.6758 14.8385 37.1034 14.9605 36.4918L16.4404 29.0787L16.4227 29.0247L10.8534 23.8943C10.2693 23.3565 10.0518 22.6329 10.2714 21.9594C10.4911 21.2858 11.0935 20.828 11.8835 20.7348L19.4152 19.8469L19.4614 19.8132L22.5625 13.1082C22.5149 14.3605 22.4506 15.6657 22.3658 17.0247L20.7703 20.4738C20.5897 20.8645 20.1033 21.2228 19.6718 21.2876C19.6615 21.2892 19.6511 21.2906 19.6408 21.2917L12.0558 22.1861C11.7934 22.217 11.6548 22.3311 11.6551 22.4815C11.6551 22.583 11.718 22.7009 11.8488 22.8211L17.4578 27.9878C17.7303 28.2388 17.9102 28.697 17.9097 29.0931C17.9097 29.1687 17.9031 29.242 17.8891 29.3111L16.3988 36.7766C16.3983 36.7782 16.3981 36.7798 16.3977 36.7814C16.3386 37.0851 16.4429 37.2607 16.6453 37.2611C16.6456 37.2611 16.6458 37.2611 16.646 37.2611C16.6465 37.2611 16.6467 37.2611 16.647 37.2611C16.7267 37.2609 16.8216 37.2337 16.9275 37.1764C16.9291 37.1755 16.9309 37.1746 16.9326 37.1737C16.9328 37.1737 16.933 37.1734 16.9332 37.1734C16.9358 37.1721 16.9383 37.1707 16.9406 37.1691L20.2501 35.3219C20.1502 35.9301 20.0459 36.5479 19.9379 37.1714L17.6575 38.4443C17.3266 38.6289 16.9863 38.7225 16.646 38.7225Z" fill="#F8B830"/>
<path fill-rule="evenodd" clip-rule="evenodd" d="M24.5927 12.3008L27.8632 19.358C28.0526 19.7661 28.5699 20.1399 29.0188 20.1927L36.7776 21.1058C37.2265 21.1586 37.3212 21.4487 36.9894 21.754L31.2521 27.0285C30.92 27.3336 30.7223 27.9386 30.8104 28.3794L32.3351 36.0007C32.4232 36.4418 32.1753 36.6211 31.7809 36.4014L24.9643 32.6042C24.5697 32.3844 23.9304 32.3844 23.5358 32.6042L16.7192 36.4014C16.3248 36.6211 16.0769 36.4418 16.165 36.0007L17.6894 28.3794C17.7778 27.9386 17.5801 27.3336 17.2483 27.0285L11.5107 21.754C11.1786 21.4487 11.2736 21.1586 11.7225 21.1058L19.4813 20.1927C19.9302 20.1399 20.4475 19.7661 20.6367 19.358L23.9074 12.3008C24.0966 11.8924 24.4035 11.8924 24.5927 12.3008Z" fill="#FFD954"/>
<path fill-rule="evenodd" clip-rule="evenodd" d="M33.5403 36.4952C33.7499 36.4952 33.8576 36.3125 33.7945 35.997C33.8576 36.3125 33.7501 36.4952 33.5403 36.4952ZM33.2528 36.409C33.2476 36.4062 33.2426 36.4034 33.2374 36.4005L26.385 32.5759C26.3555 32.5595 26.3247 32.5444 26.2928 32.5303C26.3247 32.5444 26.3555 32.5595 26.385 32.5759L33.2374 36.4005C33.2426 36.4034 33.2476 36.4062 33.2528 36.409ZM30.4289 20.0706C29.9852 20.004 29.485 19.6355 29.2991 19.2341L26.0115 12.1259L29.2991 19.2338C29.485 19.6355 29.9852 20.004 30.4289 20.0706ZM26.0115 12.1259C25.9885 12.076 25.9637 12.0322 25.9375 11.9945C25.9637 12.0322 25.9885 12.076 26.0115 12.1259Z" fill="#F19518"/>
<path fill-rule="evenodd" clip-rule="evenodd" d="M34.1102 36.4952C34.0253 36.4952 33.9245 36.4676 33.8117 36.4096C33.8063 36.4068 33.8012 36.404 33.7958 36.4012L26.6828 32.6041C26.6522 32.5877 26.6203 32.5727 26.5872 32.5587C26.5854 32.558 26.5837 32.5573 26.582 32.5566C26.3927 32.4783 26.1651 32.4393 25.9375 32.4393V30.4556C26.5783 30.4556 27.1878 30.6003 27.6996 30.8733L31.6187 32.9657L30.7419 28.7662C30.5104 27.6544 30.9585 26.341 31.8313 25.5717L35.1299 22.6656L30.6684 22.1625C29.488 22.0291 28.3157 21.217 27.8178 20.188L25.9375 16.2996V11.9945C26.0356 11.9945 26.1337 12.0532 26.2183 12.1703C26.2455 12.2077 26.2713 12.2512 26.2951 12.3007L29.7077 19.3579C29.9007 19.7565 30.4199 20.1223 30.8805 20.1884C30.8915 20.1901 30.9026 20.1915 30.9136 20.1926L39.0098 21.1057C39.2896 21.1373 39.4377 21.2537 39.4375 21.4073C39.4373 21.5108 39.3701 21.6312 39.2308 21.7539L33.244 27.0284C32.9529 27.2846 32.7608 27.7524 32.7613 28.1568C32.7613 28.2339 32.7684 28.3087 32.7831 28.3793L34.3741 36.0006C34.4396 36.3138 34.3277 36.4952 34.1102 36.4952Z" fill="#F8B932"/>
<path fill-rule="evenodd" clip-rule="evenodd" d="M18.0639 36.7172C18.0634 36.7172 18.063 36.7172 18.0625 36.7172C18.063 36.7172 18.0634 36.7172 18.0639 36.7172ZM18.0658 36.7172C18.2284 36.7166 18.422 36.6476 18.6381 36.5028C18.422 36.6476 18.2284 36.7166 18.0658 36.7172ZM18.6484 36.4958C18.6489 36.4958 18.6493 36.4952 18.6498 36.4952C18.6493 36.4952 18.6489 36.4958 18.6484 36.4958Z" fill="#FDEA51"/>
<path fill-rule="evenodd" clip-rule="evenodd" d="M23.6875 16.4492L23.6878 16.4489L25.9375 11.9945L23.6875 16.4492Z" fill="#FDE844"/>
<path fill-rule="evenodd" clip-rule="evenodd" d="M21.4375 19.7902C21.7979 19.7225 22.2041 19.3481 22.355 18.9398L23.6875 15.3356L23.6873 15.3358L22.355 18.9401C22.2041 19.3481 21.7979 19.7225 21.4375 19.7902Z" fill="#FDEA51"/>
<path fill-rule="evenodd" clip-rule="evenodd" d="M17.7648 36.4952C17.7646 36.4952 17.7643 36.4952 17.7641 36.4952C17.548 36.4947 17.4367 36.3154 17.4997 36.0055C17.5002 36.0038 17.5004 36.0022 17.5009 36.0006L19.0916 28.3793C19.1066 28.3087 19.1137 28.2339 19.1137 28.1568C19.1142 27.7524 18.9221 27.2846 18.6313 27.0284L12.6442 21.7539C12.5047 21.6312 12.4375 21.5108 12.4375 21.4073C12.4373 21.2537 12.5851 21.1373 12.8652 21.1057L20.9614 20.1926C20.9724 20.1915 20.9835 20.1901 20.9945 20.1884C21.4551 20.1223 21.9743 19.7565 22.167 19.3579L25.5799 12.3007C25.6788 12.0967 25.808 11.9945 25.9375 11.9945V16.2996L24.0569 20.188C23.5593 21.2172 22.387 22.0291 21.2059 22.1625L16.7451 22.6656L20.0439 25.5717C20.9172 26.3414 21.3651 27.6552 21.1328 28.7664L20.2563 32.9657L24.1751 30.8733C24.6872 30.6 25.2967 30.4556 25.9375 30.4556V32.4393C25.6677 32.4393 25.398 32.4942 25.1922 32.6041L18.0792 36.4012C18.0768 36.4029 18.0741 36.4043 18.0714 36.4057C18.0711 36.4057 18.0709 36.4059 18.0706 36.4059C18.0689 36.4068 18.067 36.4078 18.0652 36.4087C17.9522 36.4671 17.8509 36.495 17.7658 36.4952C17.7655 36.4952 17.7653 36.4952 17.7648 36.4952Z" fill="#FFF48E"/>
<path fill-rule="evenodd" clip-rule="evenodd" d="M12.7654 21.7518L17.9334 26.4921C18.3931 26.9137 18.6477 27.6911 18.5256 28.3L17.1521 35.1494L23.2922 31.7368C23.8383 31.4334 24.6619 31.4336 25.208 31.7368L31.3477 35.1494L29.9744 28.3C29.8523 27.6906 30.1071 26.9133 30.5669 26.4921L35.7346 21.7518L28.7457 20.9311C28.1243 20.8582 27.4581 20.3778 27.196 19.814L24.25 13.4713L21.304 19.8138C21.0419 20.3778 20.3757 20.8582 19.7543 20.9311L12.7654 21.7518ZM16.7247 35.3825V35.3827V35.3825ZM31.74 36.4952C31.5829 36.4952 31.3945 36.4541 31.1793 36.3343L24.6585 32.7101C24.4523 32.5956 24.0481 32.5956 23.8415 32.7101L17.3207 36.3343C16.782 36.6335 16.4117 36.441 16.2775 36.3444C16.1433 36.2475 15.844 35.9577 15.9643 35.3566L17.4228 28.0824C17.4691 27.8524 17.3439 27.4704 17.1703 27.3111L11.6819 22.277C11.2284 21.8611 11.2988 21.4519 11.3501 21.2953C11.4013 21.1389 11.5868 20.7667 12.1999 20.6946L19.6223 19.8234C19.8568 19.7957 20.1842 19.5597 20.2831 19.3468L23.4116 12.611C23.6702 12.0545 24.0841 11.9945 24.25 11.9945C24.4159 11.9945 24.8298 12.0545 25.0884 12.611L28.2169 19.3468C28.3158 19.5597 28.6432 19.7957 28.8779 19.8234L36.3001 20.6946C36.9132 20.7667 37.0984 21.1386 37.1499 21.2953C37.2012 21.4519 37.2716 21.8609 36.8181 22.277L31.3297 27.3113C31.1561 27.4704 31.0309 27.8524 31.077 28.0824L32.5357 35.3566C32.656 35.9577 32.3567 36.2478 32.2225 36.3444C32.142 36.4026 31.9761 36.4952 31.74 36.4952Z" fill="#414042"/>
</svg>
