<svg width="95" height="95" viewBox="0 0 95 95" fill="none" xmlns="http://www.w3.org/2000/svg">
<path fill-rule="evenodd" clip-rule="evenodd" d="M47.3906 95C73.3868 95 94.4609 73.9259 94.4609 47.9297C94.4609 21.9335 73.3868 0.859375 47.3906 0.859375C21.3944 0.859375 0.320312 21.9335 0.320312 47.9297C0.320312 73.9259 21.3944 95 47.3906 95Z" fill="#DAD4E7"/>
<path fill-rule="evenodd" clip-rule="evenodd" d="M61.9892 71.6699C61.3266 71.6699 60.6631 71.4948 60.0189 71.1498L47.1255 64.2464L47.07 64.2439L47.014 64.2464L38.5649 68.7705C38.7754 67.605 38.9786 66.4503 39.1734 65.3135L45.7094 61.8136C46.0855 61.6125 46.5775 61.5119 47.07 61.5119C47.4854 61.5119 47.9009 61.5833 48.2465 61.7267C48.2497 61.728 48.2528 61.7293 48.2559 61.7306C48.3164 61.7563 48.3746 61.7837 48.4305 61.8136L61.4153 68.7662C61.4251 68.7714 61.4345 68.7765 61.4444 68.7816C61.6503 68.8878 61.8343 68.9383 61.9892 68.9383C62.3868 68.9383 62.5905 68.6062 62.471 68.0326L59.5667 54.0782C59.5398 53.9489 59.5269 53.8119 59.5269 53.6707C59.526 52.9302 59.8765 52.0738 60.4079 51.6047L71.3368 41.947C71.5911 41.7223 71.7138 41.5019 71.7142 41.3123C71.7147 41.0311 71.4443 40.818 70.9335 40.7602L56.1539 39.0884C56.1337 39.0862 56.1136 39.0837 56.0934 39.0807C55.2526 38.9595 54.3049 38.2897 53.9525 37.5595L47.7227 24.6383C47.6793 24.5475 47.6323 24.4679 47.5826 24.3994C47.4281 24.185 47.249 24.0776 47.07 24.0776C46.8336 24.0776 46.5976 24.2642 46.4172 24.6383L43.2958 31.1124C43.461 28.5721 43.5864 26.1325 43.6791 23.7917L43.8223 23.4946C44.471 22.149 45.6852 21.346 47.07 21.346C48.4547 21.346 49.6689 22.149 50.3176 23.4946L56.5035 36.3251L56.5935 36.3876L71.2692 38.0474C72.808 38.2216 73.9823 39.0768 74.4099 40.3356C74.8383 41.5944 74.4148 42.9465 73.2772 43.9527L62.424 53.5427L62.3899 53.6442L65.2736 67.4997C65.5113 68.6421 65.2646 69.7121 64.5779 70.5121C63.947 71.2478 63.0037 71.6699 61.9892 71.6699" fill="#F8AF28"/>
<path fill-rule="evenodd" clip-rule="evenodd" d="M31.6617 73.7667C30.6823 73.7667 29.7703 73.342 29.1603 72.6014C28.4972 71.796 28.2584 70.7182 28.4881 69.5666L31.2745 55.6092L31.2412 55.5075L20.7553 45.848C19.6556 44.8353 19.2459 43.4729 19.6595 42.205C20.073 40.9366 21.2073 40.0748 22.6946 39.8993L36.8754 38.2274L36.9624 38.164L42.8013 25.5397C42.7117 27.8975 42.5906 30.355 42.431 32.9137L39.4269 39.4078C39.0869 40.1433 38.1711 40.818 37.3587 40.9401C37.3392 40.9431 37.3197 40.9457 37.3003 40.9478L23.0191 42.6318C22.525 42.69 22.2642 42.9047 22.2646 43.188C22.2646 43.379 22.3832 43.601 22.6293 43.8273L33.1901 53.5553C33.7031 54.0279 34.0419 54.8905 34.041 55.6364C34.041 55.7787 34.0285 55.9166 34.0021 56.0468L31.1962 70.103C31.1953 70.106 31.1949 70.109 31.194 70.112C31.0828 70.6837 31.2793 71.0144 31.6604 71.0152C31.6608 71.0152 31.6612 71.0152 31.6617 71.0152C31.6625 71.0152 31.663 71.0152 31.6634 71.0152C31.8135 71.0148 31.9922 70.9635 32.1916 70.8557C32.1946 70.854 32.1981 70.8523 32.2011 70.8505C32.2016 70.8505 32.202 70.8501 32.2024 70.8501C32.2072 70.8475 32.2119 70.8449 32.2163 70.8419L38.4475 67.364C38.2593 68.5091 38.0629 69.6723 37.8596 70.8462L33.566 73.2429C32.9431 73.5904 32.3024 73.7667 31.6617 73.7667" fill="#F8B830"/>
<path fill-rule="evenodd" clip-rule="evenodd" d="M46.6238 24.0195L52.7814 37.3068C53.1381 38.0753 54.1121 38.7791 54.9573 38.8785L69.5657 40.5977C70.4109 40.6971 70.5892 41.2433 69.9644 41.8181L59.1621 51.7491C58.5368 52.3235 58.1647 53.4625 58.3306 54.2926L61.2012 68.642C61.3672 69.4725 60.9003 69.81 60.1578 69.3963L47.3234 62.2469C46.5804 61.8332 45.3768 61.8332 44.6338 62.2469L31.7995 69.3963C31.0569 69.81 30.5901 69.4725 30.756 68.642L33.6262 54.2926C33.7926 53.4625 33.4204 52.3235 32.7956 51.7491L21.9928 41.8181C21.3676 41.2433 21.5463 40.6971 22.3915 40.5977L36.9999 38.8785C37.8451 38.7791 38.8191 38.0753 39.1753 37.3068L45.3334 24.0195C45.6896 23.2506 46.2676 23.2506 46.6238 24.0195" fill="#FFD954"/>
<path fill-rule="evenodd" clip-rule="evenodd" d="M63.4708 69.573V69.573C63.8654 69.573 64.0683 69.229 63.9495 68.635C64.0683 69.229 63.8659 69.573 63.4708 69.573M62.9293 69.4108C62.9195 69.4054 62.9102 69.4001 62.9004 69.3948L49.9985 62.1938C49.9429 62.1628 49.8851 62.1344 49.825 62.1078C49.8851 62.1344 49.9429 62.1628 49.9985 62.1938L62.9004 69.3948C62.9102 69.4001 62.9195 69.4054 62.9293 69.4108M57.6119 38.6486C56.7764 38.5231 55.8347 37.8294 55.4846 37.0735L49.2946 23.6902L55.4846 37.0731C55.8347 37.8294 56.7764 38.5231 57.6119 38.6486M49.295 23.6902C49.2518 23.5962 49.2051 23.5137 49.1558 23.4428C49.2051 23.5137 49.2518 23.5962 49.295 23.6902" fill="#F19518"/>
<path fill-rule="evenodd" clip-rule="evenodd" d="M64.5434 69.573C64.3836 69.573 64.1939 69.5211 63.9814 69.4119C63.9713 69.4066 63.9616 69.4014 63.9514 69.3961L50.559 62.2467C50.5013 62.2159 50.4413 62.1877 50.379 62.1613C50.3757 62.16 50.3725 62.1587 50.3693 62.1574C50.0128 62.0099 49.5843 61.9364 49.1558 61.9364V58.2015C50.3623 58.2015 51.5098 58.474 52.4735 58.988L59.8524 62.9276L58.2016 55.0208C57.7657 52.9275 58.6093 50.4545 60.2527 49.006L66.4634 43.5344L58.0631 42.5873C55.8406 42.336 53.6334 40.807 52.6961 38.8696L49.1558 31.5486V23.4428C49.3405 23.4428 49.5252 23.5533 49.6845 23.7738C49.7357 23.8442 49.7842 23.9261 49.829 24.0194L56.2544 37.3067C56.6178 38.0571 57.5953 38.7459 58.4625 38.8705C58.4833 38.8735 58.5041 38.8762 58.5248 38.8784L73.7684 40.5975C74.2953 40.6569 74.5742 40.8761 74.5737 41.1653C74.5733 41.3602 74.4467 41.5869 74.1845 41.818L62.9125 51.7489C62.3644 52.2313 62.0028 53.112 62.0037 53.8734C62.0037 54.0186 62.0171 54.1595 62.0448 54.2924L65.0403 68.6417C65.1635 69.2315 64.953 69.573 64.5434 69.573" fill="#F8B932"/>
<path fill-rule="evenodd" clip-rule="evenodd" d="M34.3313 69.9909C34.3304 69.9909 34.3295 69.9909 34.3286 69.9909C34.3295 69.9909 34.3304 69.9909 34.3313 69.9909M34.335 69.9909C34.6413 69.9898 35.0058 69.86 35.4126 69.5872C35.0058 69.86 34.6413 69.9898 34.335 69.9909M35.4318 69.5742C35.4327 69.5742 35.4336 69.5731 35.4345 69.5731C35.4336 69.5731 35.4327 69.5742 35.4318 69.5742" fill="#FDEA51"/>
<path fill-rule="evenodd" clip-rule="evenodd" d="M44.9194 31.8301L44.92 31.8296L49.1558 23.4428L44.9194 31.8301" fill="#FDE844"/>
<path fill-rule="evenodd" clip-rule="evenodd" d="M40.6831 38.1206C41.3616 37.9931 42.1265 37.288 42.4105 36.5194L44.9194 29.7333L44.9191 29.7337L42.4105 36.5199C42.1265 37.288 41.3616 37.9931 40.6831 38.1206" fill="#FDEA51"/>
<path fill-rule="evenodd" clip-rule="evenodd" d="M33.7681 69.573C33.7677 69.573 33.7672 69.573 33.7667 69.573C33.3599 69.5721 33.1503 69.2346 33.269 68.651C33.2699 68.6479 33.2703 68.6448 33.2713 68.6417L36.2662 54.2924C36.2944 54.1595 36.3078 54.0186 36.3078 53.8734C36.3087 53.112 35.9472 52.2313 35.3995 51.7489L24.1271 41.818C23.8643 41.5869 23.7378 41.3602 23.7378 41.1653C23.7373 40.8761 24.0158 40.6569 24.5431 40.5975L39.7867 38.8784C39.8075 38.8762 39.8282 38.8735 39.849 38.8705C40.7162 38.7459 41.6937 38.0571 42.0567 37.3067L48.4825 24.0194C48.6686 23.6351 48.912 23.4428 49.1558 23.4428V31.5486L45.615 38.8696C44.6781 40.8074 42.4709 42.336 40.2471 42.5873L31.8481 43.5344L38.0592 49.006C39.7036 50.4554 40.5467 52.9289 40.1094 55.0212L38.4591 62.9276L45.8376 58.988C46.8017 58.4735 47.9492 58.2015 49.1558 58.2015V61.9364C48.6478 61.9364 48.1399 62.0399 47.7525 62.2467L34.3601 69.3961C34.3555 69.3992 34.3504 69.4018 34.3453 69.4044C34.3449 69.4044 34.3444 69.4049 34.3439 69.4049C34.3407 69.4066 34.337 69.4084 34.3338 69.4102C34.1209 69.5202 33.9302 69.5726 33.77 69.573C33.7695 69.573 33.769 69.573 33.7681 69.573" fill="#FFF48E"/>
<path fill-rule="evenodd" clip-rule="evenodd" d="M24.3556 41.8139L34.0859 50.739C34.9516 51.5329 35.4308 52.9965 35.2009 54.1429L32.6149 67.0391L44.1756 60.6139C45.2039 60.0426 46.7545 60.043 47.7827 60.6139L59.3426 67.0391L56.757 54.1429C56.5271 52.9957 57.0067 51.5321 57.8724 50.739L67.6023 41.8139L54.4436 40.2688C53.2735 40.1315 52.0192 39.227 51.5256 38.1655L45.9789 26.2233L40.4322 38.165C39.9387 39.227 38.6844 40.1315 37.5143 40.2688L24.3556 41.8139ZM31.8096 67.478V67.4784V67.478ZM60.0808 69.573C59.7849 69.573 59.4302 69.4957 59.0251 69.2701L46.7477 62.4463C46.3595 62.2308 45.5984 62.2308 45.2094 62.4463L32.9319 69.2701C31.9177 69.8335 31.2205 69.4709 30.9678 69.289C30.715 69.1067 30.1516 68.561 30.3781 67.4293L33.1241 53.7333C33.2113 53.3002 32.9755 52.5811 32.6487 52.2811L22.3152 42.8028C21.4614 42.0197 21.5939 41.2493 21.6904 40.9544C21.7869 40.6599 22.1361 39.9592 23.2905 39.8235L37.2654 38.1831C37.7069 38.131 38.3233 37.6866 38.5095 37.2858L44.4 24.6035C44.8868 23.5558 45.6661 23.4428 45.9785 23.4428C46.2909 23.4428 47.0702 23.5558 47.5571 24.6035L53.4475 37.2858C53.6337 37.6866 54.2501 38.131 54.692 38.1831L68.6665 39.8235C69.8209 39.9592 70.1697 40.6595 70.2666 40.9544C70.3632 41.2493 70.4957 42.0193 69.6418 42.8028L59.3083 52.2815C58.9815 52.5811 58.7457 53.3002 58.8325 53.7333L61.5789 67.4293C61.8054 68.561 61.242 69.1071 60.9893 69.289C60.8377 69.3987 60.5253 69.573 60.0808 69.573V69.573Z" fill="#414042"/>
</svg>
