<svg width="50" height="50" viewBox="0 0 50 50" fill="none" xmlns="http://www.w3.org/2000/svg">
<rect x="0.631836" y="0.788574" width="48.5549" height="48.5549" rx="24.2775" fill="#573D90"/>
<path d="M36.1361 25.3355V24.832C36.1361 24.2781 35.683 24.0263 35.1291 24.0263H25.9648V14.862C25.9648 14.3081 25.713 13.855 25.1591 13.855H24.6556C24.1017 13.855 23.85 14.3081 23.85 14.862V24.0263H14.736C14.1821 24.0263 13.7289 24.2781 13.7289 24.832V25.3355C13.7289 25.8894 14.1821 26.1412 14.736 26.1412H23.85V35.2551C23.85 35.809 24.1017 36.2622 24.6556 36.2622H25.1591C25.713 36.2622 25.9648 35.809 25.9648 35.2551V26.1412H35.1291C35.683 26.1412 36.1361 25.8894 36.1361 25.3355Z" fill="white"/>
</svg>
