<svg width="24" height="24" viewBox="0 0 24 24" fill="none" xmlns="http://www.w3.org/2000/svg">
<path d="M8.95312 10.5C8.95312 9.70312 8.25 9 7.45312 9H6.75C5.0625 9 3.75 10.3594 3.75 12.0469V14.25C3.75 15.9375 5.0625 17.25 6.75 17.25H7.5C8.29688 17.25 9 16.5938 9 15.75L8.95312 10.5ZM12 0C5.25 0 0.1875 5.625 0 12V13.875C0 14.5312 0.46875 15 1.07812 15C1.64062 15 2.25 14.5312 2.25 13.875V12C2.25 6.65625 6.60938 2.29688 12 2.29688C17.3438 2.29688 21.75 6.65625 21.75 12V18.75C21.75 19.8281 20.9062 20.625 19.875 20.625H14.6719C14.2969 19.9688 13.5469 19.5 12.75 19.5H11.2969C10.2188 19.5 9.23438 20.25 9 21.3281C8.76562 22.7812 9.84375 24 11.2031 24H12.75C13.5469 24 14.2969 23.5781 14.6719 22.875H19.875C22.125 22.875 24 21.0469 24 18.75V12C23.7656 5.625 18.7031 0 12 0ZM17.25 17.25C18.8906 17.25 20.25 15.9375 20.25 14.25V12.0469C20.25 10.3594 18.8906 9 17.25 9H16.5C15.6562 9 15 9.70312 15 10.5469V15.75C15 16.5938 15.6562 17.25 16.5 17.25H17.25Z" fill="#ED145B"/>
</svg>
