<svg width="25" height="24" viewBox="0 0 25 24" fill="none" xmlns="http://www.w3.org/2000/svg">
<path d="M21.7619 0H2.90474C1.45831 0 0.333313 1.17857 0.333313 2.57143V21.4286C0.333313 22.875 1.45831 24 2.90474 24H21.7619C23.1547 24 24.3333 22.875 24.3333 21.4286V2.57143C24.3333 1.17857 23.1547 0 21.7619 0ZM19.1369 8.51786C19.1369 8.67857 19.1369 8.83929 19.1369 9C19.1369 13.6071 15.6012 18.9643 9.11903 18.9643C7.13688 18.9643 5.31546 18.4286 3.76188 17.4107C4.02974 17.4643 4.2976 17.4643 4.56546 17.4643C6.22617 17.4643 7.72617 16.875 8.95831 15.9643C7.40474 15.9107 6.11903 14.8929 5.63688 13.5C6.22617 13.6071 6.70831 13.6071 7.24403 13.4464C5.63688 13.125 4.45831 11.7321 4.45831 10.0179V9.96429C4.88688 10.2321 5.4226 10.3929 6.01188 10.3929C5.0476 9.75 4.45831 8.67857 4.45831 7.5C4.45831 6.80357 4.61903 6.21429 4.94046 5.67857C6.65474 7.82143 9.27974 9.21429 12.1726 9.375C11.6905 7.01786 13.4583 5.03571 15.6012 5.03571C16.619 5.03571 17.5297 5.46429 18.1726 6.16071C18.9762 6 19.7262 5.73214 20.4226 5.30357C20.1547 6.16071 19.5655 6.80357 18.869 7.23214C19.5655 7.17857 20.2619 6.96429 20.9047 6.69643C20.4226 7.39286 19.7797 8.03571 19.1369 8.51786Z" fill="#ED145B"/>
</svg>
