<svg width="25" height="24" viewBox="0 0 25 24" fill="none" xmlns="http://www.w3.org/2000/svg">
<path d="M10.2976 9.16071L15.4405 12.0536L10.2976 14.9464V9.16071ZM24.3333 2.57143V21.4286C24.3333 22.875 23.1547 24 21.7619 24H2.90474C1.45831 24 0.333313 22.875 0.333313 21.4286V2.57143C0.333313 1.17857 1.45831 0 2.90474 0H21.7619C23.1547 0 24.3333 1.17857 24.3333 2.57143ZM22.0833 12.0536C22.0833 12.0536 22.0833 8.83929 21.6547 7.33929C21.4405 6.48214 20.744 5.78571 19.9405 5.57143C18.3869 5.14286 12.3333 5.14286 12.3333 5.14286C12.3333 5.14286 6.22617 5.14286 4.6726 5.57143C3.86903 5.78571 3.1726 6.48214 2.95831 7.33929C2.58331 8.83929 2.58331 12.0536 2.58331 12.0536C2.58331 12.0536 2.58331 15.2143 2.95831 16.7679C3.1726 17.625 3.86903 18.2679 4.6726 18.4821C6.22617 18.8571 12.3333 18.8571 12.3333 18.8571C12.3333 18.8571 18.3869 18.8571 19.9405 18.4821C20.744 18.2679 21.4405 17.625 21.6547 16.7679C22.0833 15.2143 22.0833 12.0536 22.0833 12.0536Z" fill="#ED145B"/>
</svg>
