<svg width="24" height="25" viewBox="0 0 24 25" fill="none" xmlns="http://www.w3.org/2000/svg">
<path d="M23.9531 18.1233L22.8281 22.8576C22.6875 23.5608 22.125 24.0295 21.4219 24.0295C9.60938 23.9826 0 14.3733 0 2.56077C0 1.85765 0.421875 1.29515 1.125 1.15452L5.85938 0.0295204C6.51562 -0.111105 7.21875 0.263895 7.5 0.87327L9.70312 5.98265C9.9375 6.59202 9.79688 7.29515 9.28125 7.67015L6.75 9.73265C8.34375 12.967 10.9688 15.592 14.25 17.1858L16.3125 14.6545C16.6875 14.1858 17.3906 13.9983 18 14.2326L23.1094 16.4358C23.7188 16.7639 24.0938 17.467 23.9531 18.1233Z" fill="#ED145B"/>
</svg>
