<svg width="25" height="24" viewBox="0 0 25 24" fill="none" xmlns="http://www.w3.org/2000/svg">
<path d="M21.7619 0H2.90474C1.45831 0 0.333313 1.17857 0.333313 2.57143V21.4286C0.333313 22.875 1.45831 24 2.90474 24H10.244V15.8571H6.86903V12H10.244V9.10714C10.244 5.78571 12.2262 3.91071 15.2262 3.91071C16.7262 3.91071 18.2262 4.17857 18.2262 4.17857V7.44643H16.5655C14.9047 7.44643 14.369 8.46429 14.369 9.53571V12H18.0655L17.4762 15.8571H14.369V24H21.7619C23.1547 24 24.3333 22.875 24.3333 21.4286V2.57143C24.3333 1.17857 23.1547 0 21.7619 0Z" fill="#ED145B"/>
</svg>
