<svg width="25" height="24" viewBox="0 0 25 24" fill="none" xmlns="http://www.w3.org/2000/svg">
<path d="M22.619 0H1.99403C1.08331 0 0.333313 0.803571 0.333313 1.76786V22.2857C0.333313 23.25 1.08331 24 1.99403 24H22.619C23.5297 24 24.3333 23.25 24.3333 22.2857V1.76786C24.3333 0.803571 23.5297 0 22.619 0ZM7.56546 20.5714H4.02974V9.16071H7.56546V20.5714ZM5.7976 7.55357C4.61903 7.55357 3.70831 6.64286 3.70831 5.51786C3.70831 4.39286 4.61903 3.42857 5.7976 3.42857C6.9226 3.42857 7.83331 4.39286 7.83331 5.51786C7.83331 6.64286 6.9226 7.55357 5.7976 7.55357ZM20.9047 20.5714H17.3155V15C17.3155 13.7143 17.3155 12 15.494 12C13.619 12 13.3512 13.4464 13.3512 14.9464V20.5714H9.81546V9.16071H13.1905V10.7143H13.244C13.7262 9.80357 14.9047 8.83929 16.619 8.83929C20.2083 8.83929 20.9047 11.25 20.9047 14.3036V20.5714Z" fill="#ED145B"/>
</svg>
