<svg width="24" height="18" viewBox="0 0 24 18" fill="none" xmlns="http://www.w3.org/2000/svg">
<path d="M12 13.5C11.2031 13.5 10.4062 13.2656 9.75 12.75L0 5.15625V15.75C0 17.0156 0.984375 18 2.25 18H21.75C22.9688 18 24 17.0156 24 15.75V5.15625L14.2031 12.75C13.5469 13.2656 12.75 13.5 12 13.5ZM0.75 3.84375L10.6875 11.5781C11.4375 12.1406 12.5156 12.1406 13.2656 11.5781L23.2031 3.84375C23.6719 3.46875 24 2.85938 24 2.25C24 1.03125 22.9688 0 21.75 0H2.25C0.984375 0 0 1.03125 0 2.25C0 2.85938 0.28125 3.46875 0.75 3.84375Z" fill="#ED145B"/>
</svg>
