<svg width="25" height="24" viewBox="0 0 25 24" fill="none" xmlns="http://www.w3.org/2000/svg">
<path d="M12.3333 9.16071C10.0833 9.16071 8.74403 11.5714 9.81546 13.4464C10.9405 15.375 13.6726 15.375 14.7976 13.4464C15.0119 13.0179 15.1726 12.5357 15.1726 12C15.1726 10.4464 13.8869 9.16071 12.3333 9.16071ZM18.9762 6.96429C18.7083 6.21429 18.119 5.625 17.369 5.35714C16.244 4.875 13.5655 4.98214 12.3333 4.98214C11.0476 4.98214 8.36903 4.875 7.24403 5.35714C6.49403 5.625 5.90474 6.21429 5.63688 6.96429C5.20831 8.08929 5.26188 10.7679 5.26188 12C5.26188 13.2857 5.20831 15.9643 5.63688 17.0893C5.90474 17.8393 6.49403 18.4286 7.24403 18.6964C8.36903 19.1786 11.0476 19.0714 12.3333 19.0714C13.5655 19.0714 16.244 19.1786 17.369 18.6964C18.119 18.4286 18.7083 17.8393 18.9762 17.0893C19.4583 15.9643 19.3512 13.2857 19.3512 12C19.3512 10.7679 19.4583 8.08929 18.9762 6.96429ZM12.3333 16.3929C8.90474 16.3929 6.81546 12.75 8.47617 9.80357C10.1905 6.91071 14.4226 6.91071 16.1369 9.80357C16.5119 10.5 16.7262 11.25 16.7262 12C16.7262 14.4643 14.744 16.4464 12.3333 16.3929ZM16.8869 8.46429C16.0833 8.46429 15.6012 7.60714 15.9762 6.91071C16.4047 6.26786 17.369 6.26786 17.744 6.91071C17.8512 7.07143 17.9047 7.28571 17.9047 7.44643C17.9047 8.03571 17.4226 8.46429 16.8869 8.46429ZM21.7619 0H2.90474C1.45831 0 0.333313 1.17857 0.333313 2.57143V21.4286C0.333313 22.875 1.45831 24 2.90474 24H21.7619C23.1547 24 24.3333 22.875 24.3333 21.4286V2.57143C24.3333 1.17857 23.1547 0 21.7619 0ZM20.7976 15.5357C20.744 16.9286 20.4226 18.1607 19.4583 19.125C18.4405 20.1429 17.2083 20.4643 15.869 20.5179C14.4226 20.625 10.1905 20.625 8.7976 20.5179C7.40474 20.4643 6.1726 20.1429 5.20831 19.125C4.19046 18.1607 3.86903 16.9286 3.81546 15.5357C3.70831 14.1429 3.70831 9.91071 3.81546 8.46429C3.86903 7.125 4.19046 5.89286 5.20831 4.875C6.1726 3.91071 7.40474 3.58929 8.7976 3.53571C10.1905 3.42857 14.4226 3.42857 15.869 3.53571C17.2083 3.58929 18.4405 3.91071 19.4583 4.92857C20.4226 5.89286 20.744 7.125 20.7976 8.51786C20.9047 9.91071 20.9047 14.1429 20.7976 15.5357Z" fill="#ED145B"/>
</svg>
