<svg width="20" height="20" viewBox="0 0 20 20" fill="none" xmlns="http://www.w3.org/2000/svg">
<g clip-path="url(#clip0_373_1556)">
<path d="M10 1.80176C12.6703 1.80176 12.9863 1.81208 14.041 1.86011C15.0159 1.90457 15.5454 2.06732 15.8979 2.20427C16.3647 2.38568 16.6978 2.60241 17.0479 2.95212C17.398 3.30224 17.6147 3.63528 17.7957 4.10209C17.9327 4.45458 18.0954 4.98412 18.1399 5.95903C18.1879 7.01333 18.1982 7.3297 18.1982 9.99999C18.1982 12.6703 18.1879 12.9863 18.1399 14.041C18.0954 15.0159 17.9327 15.5454 17.7957 15.8979C17.6143 16.3647 17.3976 16.6977 17.0479 17.0479C16.6978 17.398 16.3647 17.6147 15.8979 17.7957C15.5454 17.9327 15.0159 18.0954 14.041 18.1399C12.9867 18.1879 12.6703 18.1982 10 18.1982C7.32971 18.1982 7.01334 18.1879 5.95903 18.1399C4.98412 18.0954 4.45459 17.9327 4.1021 17.7957C3.63528 17.6143 3.30224 17.3976 2.95213 17.0479C2.60202 16.6977 2.38528 16.3647 2.20427 15.8979C2.06732 15.5454 1.90457 15.0159 1.86011 14.041C1.81208 12.9866 1.80176 12.6703 1.80176 9.99999C1.80176 7.3297 1.81208 7.01373 1.86011 5.95903C1.90457 4.98412 2.06732 4.45458 2.20427 4.10209C2.38568 3.63528 2.60241 3.30224 2.95213 2.95212C3.30224 2.60201 3.63528 2.38528 4.1021 2.20427C4.45459 2.06732 4.98412 1.90457 5.95903 1.86011C7.01373 1.81208 7.32971 1.80176 10 1.80176ZM10 0C7.28406 0 6.94347 0.0115116 5.87687 0.0603366C4.81264 0.108765 4.08582 0.277866 3.44951 0.525166C2.79176 0.780803 2.23404 1.12258 1.67831 1.67871C1.12258 2.23444 0.780406 2.79215 0.525167 3.4495C0.277866 4.08582 0.108765 4.81263 0.0603366 5.87686C0.0115116 6.94347 0 7.28405 0 9.99999C0 12.7159 0.0115116 13.0565 0.0603366 14.1231C0.108765 15.1873 0.277866 15.9142 0.525167 16.5505C0.780803 17.2082 1.12258 17.7659 1.67871 18.3217C2.23484 18.8778 2.79216 19.2196 3.4499 19.4752C4.08582 19.7225 4.81304 19.8916 5.87726 19.94C6.94387 19.9889 7.28445 20.0004 10.0004 20.0004C12.7163 20.0004 13.0569 19.9889 14.1235 19.94C15.1878 19.8916 15.915 19.7225 16.5509 19.4752C17.2086 19.2196 17.7664 18.8778 18.3221 18.3217C18.8782 17.7655 19.22 17.2082 19.4756 16.5505C19.7229 15.9146 19.892 15.1873 19.9405 14.1231C19.9893 13.0565 20.0008 12.7159 20.0008 9.99999C20.0008 7.28405 19.9893 6.94347 19.9405 5.87686C19.892 4.81263 19.7229 4.08542 19.4756 3.4495C19.22 2.79176 18.8782 2.23404 18.3221 1.67831C17.766 1.12218 17.2086 0.780406 16.5509 0.524769C15.9142 0.277866 15.1874 0.108765 14.1231 0.0603366C13.0565 0.0115116 12.7159 0 10 0Z" fill="white"/>
<path d="M10 4.86503C7.16378 4.86503 4.86504 7.16417 4.86504 9.99999C4.86504 12.8358 7.16418 15.1349 10 15.1349C12.8358 15.1349 15.135 12.8358 15.135 9.99999C15.135 7.16417 12.8362 4.86503 10 4.86503ZM10 13.3332C8.15894 13.3332 6.6668 11.8407 6.6668 9.99999C6.6668 8.15893 8.15934 6.66679 10 6.66679C11.8407 6.66679 13.3332 8.15933 13.3332 9.99999C13.3332 11.841 11.8411 13.3332 10 13.3332Z" fill="white"/>
<path d="M15.3382 5.86178C16.0009 5.86178 16.5382 5.32453 16.5382 4.66179C16.5382 3.99906 16.0009 3.46181 15.3382 3.46181C14.6755 3.46181 14.1382 3.99906 14.1382 4.66179C14.1382 5.32453 14.6755 5.86178 15.3382 5.86178Z" fill="white"/>
</g>
<defs>
<clipPath id="clip0_373_1556">
<rect width="20" height="20" fill="white"/>
</clipPath>
</defs>
</svg>
