<svg width="62" height="62" viewBox="0 0 62 62" fill="none" xmlns="http://www.w3.org/2000/svg">
<path d="M31 61C47.5685 61 61 47.5685 61 31C61 14.4315 47.5685 1 31 1C14.4315 1 1 14.4315 1 31C1 47.5685 14.4315 61 31 61Z" stroke="#011D63" stroke-width="2"/>
<path d="M43.4175 33.3383C43.3161 33.2532 43.2117 33.1733 43.1042 33.0987L41.4819 25.7178C41.2066 24.4638 41.0676 23.1837 41.0674 21.8999V17.0981C41.0678 16.0313 40.7238 14.9928 40.0865 14.1372C39.4492 13.2817 38.5527 12.6547 37.5304 12.3497C36.5081 12.0446 35.4146 12.0778 34.4127 12.4443C33.4108 12.8107 32.5539 13.4909 31.9697 14.3835C31.5743 14.3527 31.1643 14.3371 30.7395 14.3368C30.315 14.3368 29.9049 14.3524 29.5092 14.3835C28.925 13.4909 28.0681 12.8107 27.0662 12.4442C26.0643 12.0778 24.9708 12.0446 23.9485 12.3496C22.9262 12.6546 22.0297 13.2816 21.3924 14.1372C20.7551 14.9928 20.4111 16.0312 20.4115 17.0981V21.8999C20.4112 23.1837 20.2723 24.4638 19.997 25.7178L18.3779 33.0846C18.2696 33.1601 18.1637 33.2403 18.0613 33.3262C16.5376 34.6049 16.0258 36.7252 16.7576 38.7277C16.8691 39.0385 17.0459 39.3218 17.2759 39.5585C17.506 39.7953 17.7841 39.9801 18.0915 40.1005C18.399 40.2209 18.7286 40.2741 19.0583 40.2566C19.388 40.239 19.7101 40.1511 20.003 39.9987C20.5446 40.3503 21.175 40.5406 21.8206 40.5474C22.4676 40.555 23.0962 40.3325 23.5944 39.9197C23.9046 39.6543 24.1528 39.3241 24.3214 38.9523C24.49 38.5806 24.575 38.1763 24.5703 37.7681C24.5734 37.3464 24.4994 36.9277 24.3517 36.5327C24.5618 36.2788 24.7153 35.9829 24.8019 35.665C24.8885 35.347 24.9062 35.0142 24.8538 34.6888C24.8014 34.3634 24.6801 34.053 24.4981 33.7783C24.3161 33.5035 24.0775 33.2708 23.7983 33.0957C23.1739 32.6873 22.4664 32.4232 21.7272 32.3224C20.988 32.2216 20.2356 32.2867 19.5247 32.513L20.9711 25.9317C21.262 24.6075 21.4088 23.2557 21.409 21.8999V17.0981C21.4085 16.2898 21.6556 15.5008 22.1172 14.8372C22.5787 14.1736 23.2325 13.6674 23.9904 13.3867C24.7484 13.1059 25.5742 13.0642 26.3566 13.267C27.139 13.4698 27.8405 13.9075 28.3667 14.5211C25.1918 15.048 23.2463 16.6716 23.2463 18.9513C23.2463 21.0752 25.025 23.4517 27.6492 24.556C27.8471 25.5635 28.886 26.3395 30.2407 26.4945V27.0582C29.6946 27.2304 29.2219 27.6809 28.8853 28.3139L28.7132 28.1416C28.4698 27.8981 28.1473 27.7496 27.804 27.7229C27.4607 27.6963 27.1192 27.7933 26.8411 27.9964C26.5631 28.1995 26.3668 28.4954 26.2878 28.8305C26.2088 29.1657 26.2522 29.5181 26.4102 29.824L27.1973 31.3486V40.1934L26.7195 41.5681C26.524 42.1344 26.4449 42.7343 26.4869 43.3319C26.5289 43.9295 26.6911 44.5125 26.9639 45.0459L28.1987 47.4489C28.4387 47.916 28.8028 48.3079 29.2511 48.5816C29.6993 48.8552 30.2143 49 30.7395 49C31.2647 49 31.7797 48.8552 32.2279 48.5816C32.6762 48.3079 33.0403 47.916 33.2803 47.4489L34.5151 45.0459C34.7879 44.5125 34.9502 43.9295 34.9922 43.3319C35.0342 42.7343 34.955 42.1344 34.7595 41.5681L34.2818 40.1934V31.3486L35.0688 29.824C35.2268 29.5181 35.2702 29.1657 35.1912 28.8306C35.1122 28.4954 34.9159 28.1996 34.6379 27.9965C34.3599 27.7934 34.0184 27.6963 33.6751 27.723C33.3318 27.7496 33.0093 27.8981 32.7659 28.1416L32.5936 28.3139C32.257 27.6809 31.7843 27.2304 31.2383 27.0583V26.4945C32.593 26.3395 33.632 25.5635 33.8298 24.556C36.454 23.4518 38.2328 21.0752 38.2328 18.9513C38.2328 16.6716 36.2873 15.048 33.1122 14.5211C33.6384 13.9075 34.3398 13.4698 35.1223 13.267C35.9047 13.0641 36.7305 13.1059 37.4885 13.3866C38.2464 13.6674 38.9002 14.1736 39.3617 14.8372C39.8233 15.5007 40.0704 16.2898 40.0699 17.0981V21.8999C40.0701 23.2557 40.2169 24.6075 40.5078 25.9318L41.9572 32.5261C41.2459 32.2993 40.4931 32.2338 39.7533 32.3344C39.0136 32.435 38.3056 32.6992 37.6808 33.1077C37.4012 33.2829 37.1624 33.5159 36.9802 33.7909C36.7981 34.066 36.6769 34.3768 36.6247 34.7025C36.5725 35.0283 36.5906 35.3614 36.6777 35.6796C36.7648 35.9978 36.9189 36.2937 37.1297 36.5474C36.6769 37.7794 36.9327 39.133 37.8847 39.9318C38.3811 40.3458 39.0087 40.5695 39.655 40.5628C39.8286 40.5626 40.0019 40.5481 40.1731 40.5194C40.637 40.4396 41.0799 40.2664 41.4749 40.0102C41.5597 40.0543 41.6472 40.0931 41.7368 40.1265C41.9925 40.2203 42.2627 40.2684 42.5351 40.2686H42.5354C43.0123 40.2674 43.4774 40.1202 43.8682 39.8468C44.259 39.5735 44.5567 39.187 44.7213 38.7395C45.4531 36.7371 44.9413 34.617 43.4175 33.3383V33.3383ZM22.9531 39.1556C22.1172 39.857 20.7472 39.6058 19.8994 38.5955C19.0515 37.5851 19.0421 36.1922 19.878 35.4908C20.7138 34.7894 22.0836 35.0406 22.9316 36.0511C23.3418 36.5255 23.5693 37.1306 23.573 37.7577C23.5781 38.0219 23.5252 38.2839 23.4181 38.5255C23.311 38.767 23.1523 38.9821 22.9531 39.1556L22.9531 39.1556ZM21.0168 33.2678C21.8142 33.2736 22.5936 33.506 23.2638 33.9381C23.5226 34.1027 23.7166 34.3517 23.813 34.6429C23.9094 34.9341 23.9023 35.2496 23.7929 35.5362C23.7605 35.4941 23.7301 35.4508 23.6957 35.4098C22.4944 33.9783 20.4942 33.6714 19.2367 34.7268C17.9796 35.7818 17.9341 37.8048 19.1354 39.2366C19.1372 39.2388 19.1392 39.2408 19.141 39.2429C19.0757 39.2532 19.0096 39.2585 18.9435 39.2589C18.671 39.2582 18.4053 39.1741 18.182 39.0179C17.9587 38.8617 17.7886 38.6409 17.6945 38.3852C17.1087 36.7818 17.5043 35.0958 18.7027 34.0901C19.3527 33.5513 20.1725 33.26 21.0168 33.2678V33.2678ZM32.1545 17.2712C33.7792 17.4847 35.1192 18.0871 35.1192 19.1461C35.1192 20.2029 33.8819 21.4337 32.1545 21.8929V17.2712ZM27.7458 23.5216C25.6448 22.5447 24.2438 20.6516 24.2438 18.9513C24.2438 16.8011 26.5138 15.7688 28.9627 15.4483C29.0843 15.7117 29.1762 15.9877 29.2369 16.2714C26.8123 16.5688 25.3622 17.6138 25.3622 19.1461C25.3622 20.4902 26.5697 21.9491 28.4053 22.6512C28.1164 22.8819 27.8897 23.1811 27.7458 23.5216V23.5216ZM29.3244 17.2712V21.8929C27.597 21.4336 26.3597 20.2029 26.3597 19.1461C26.3597 18.0871 27.6997 17.4847 29.3244 17.2712ZM28.609 24.2064C28.609 23.5963 29.3175 23.0684 30.2408 22.9247V25.4882C29.3175 25.3445 28.609 24.8164 28.609 24.2064V24.2064ZM30.2408 28.1782V29.6692L29.6362 29.0647C29.7609 28.7235 29.9687 28.4188 30.2407 28.1782L30.2408 28.1782ZM33.4711 28.847C33.5151 28.8031 33.5678 28.7688 33.6258 28.7465C33.6838 28.7241 33.7458 28.7141 33.8079 28.7171C33.87 28.7202 33.9308 28.7361 33.9863 28.764C34.0419 28.7919 34.091 28.8312 34.1305 28.8792C34.1859 28.9464 34.2203 29.0284 34.2295 29.1151C34.2387 29.2017 34.2223 29.2892 34.1823 29.3666L33.3398 30.9988C33.3033 31.0695 33.2842 31.1479 33.2842 31.2275V40.2778C33.2843 40.3335 33.2936 40.3888 33.3118 40.4414L33.8171 41.8957C33.9686 42.3344 34.03 42.7992 33.9975 43.2622C33.965 43.7252 33.8393 44.1768 33.628 44.5901L32.3932 46.9931C32.237 47.2971 31.9999 47.5522 31.7082 47.7303C31.4165 47.9083 31.0813 48.0025 30.7395 48.0025C30.3977 48.0025 30.0625 47.9083 29.7708 47.7303C29.479 47.5522 29.242 47.2971 29.0858 46.9931L27.851 44.5901C27.6397 44.1768 27.514 43.7252 27.4815 43.2622C27.449 42.7992 27.5104 42.3344 27.6619 41.8957L28.1673 40.4416C28.1855 40.3889 28.1948 40.3335 28.1949 40.2778V31.2274C28.1949 31.1478 28.1759 31.0694 28.1394 30.9987L27.2967 29.3665C27.2566 29.2891 27.2402 29.2016 27.2494 29.115C27.2586 29.0283 27.2931 28.9463 27.3485 28.8791C27.3877 28.8308 27.4368 28.7914 27.4924 28.7635C27.548 28.7355 27.6089 28.7197 27.671 28.717C27.6785 28.7166 27.686 28.7164 27.6936 28.7164C27.752 28.7162 27.8099 28.7277 27.8638 28.7501C27.9178 28.7725 27.9667 28.8054 28.0078 28.8469L30.2407 31.0798V43.0931C30.2407 43.2254 30.2933 43.3522 30.3868 43.4458C30.4804 43.5393 30.6072 43.5918 30.7395 43.5918C30.8718 43.5918 30.9987 43.5393 31.0922 43.4458C31.1857 43.3522 31.2383 43.2254 31.2383 43.0931V31.0797L33.4711 28.847ZM30.3219 21.9094V17.1894C30.4608 17.1844 30.6 17.1819 30.7395 17.1818C30.8788 17.1818 31.0179 17.1844 31.1569 17.1894V21.9094C31.0203 21.8964 30.8817 21.8874 30.7395 21.8874C30.5973 21.8874 30.4587 21.8964 30.3219 21.9094V21.9094ZM31.8427 29.0647L31.2383 29.6691V28.1782C31.5104 28.4188 31.7181 28.7235 31.8427 29.0647H31.8427ZM30.7395 16.1843C30.5686 16.1843 30.4019 16.1881 30.2378 16.194C30.185 15.9077 30.1068 15.6266 30.0042 15.3541C30.2512 15.3413 30.4971 15.3344 30.7395 15.3344C30.982 15.3344 31.2278 15.3413 31.4747 15.3541C31.3721 15.6266 31.2939 15.9077 31.2411 16.194C31.077 16.1881 30.9104 16.1843 30.7395 16.1843ZM31.2383 25.4881V22.9247C32.1616 23.0684 32.87 23.5964 32.87 24.2064C32.87 24.8164 32.1616 25.3445 31.2383 25.4882V25.4881ZM37.2352 18.9513C37.2352 20.6516 35.8342 22.5447 33.7332 23.5216C33.5893 23.1811 33.3626 22.8819 33.0737 22.6512C34.9092 21.949 36.1167 20.4903 36.1167 19.1461C36.1167 17.6138 34.6666 16.5687 32.2419 16.2714C32.3026 15.9878 32.3946 15.7117 32.5161 15.4483C34.9651 15.7688 37.2352 16.8011 37.2352 18.9513L37.2352 18.9513ZM41.5794 38.6073C41.1835 39.0937 40.627 39.4228 40.0101 39.5354C39.7508 39.5863 39.4836 39.5797 39.2272 39.5162C38.9708 39.4527 38.7314 39.3338 38.5259 39.1678C37.6899 38.4664 37.6995 37.0737 38.5472 36.0633C38.7787 35.7747 39.07 35.5397 39.401 35.3743C39.732 35.209 40.0948 35.1172 40.4646 35.1054C40.8786 35.0989 41.2814 35.2398 41.601 35.5028H41.6008C42.4369 36.2044 42.4273 37.5971 41.5795 38.6073L41.5794 38.6073ZM43.7844 38.3972C43.681 38.6863 43.4798 38.9302 43.2157 39.0868C42.9516 39.2434 42.6411 39.3029 42.3378 39.2549C42.3396 39.2528 42.3417 39.2508 42.3435 39.2486C43.545 37.817 43.4995 35.794 42.2422 34.7388H42.242C40.9849 33.6836 38.9844 33.9903 37.7831 35.4221C37.7485 35.4634 37.7185 35.5067 37.686 35.549C37.5761 35.2623 37.5688 34.9465 37.6653 34.6551C37.7617 34.3636 37.956 34.1145 38.2152 33.95C39.7068 33.0031 41.5398 33.0646 42.7762 34.1023C43.9746 35.108 44.3704 36.7938 43.7845 38.3972L43.7844 38.3972Z" fill="#011D63"/>
</svg>
