<svg width="62" height="62" viewBox="0 0 62 62" fill="none" xmlns="http://www.w3.org/2000/svg">
<path d="M31 61C47.5685 61 61 47.5685 61 31C61 14.4315 47.5685 1 31 1C14.4315 1 1 14.4315 1 31C1 47.5685 14.4315 61 31 61Z" stroke="#011D63" stroke-width="2"/>
<g clip-path="url(#clip0_383_1382)">
<path d="M44.6481 32.5837C44.3402 29.4874 42.9569 26.5683 40.7528 24.3641C38.8692 22.4806 36.5638 21.2702 34.1379 20.732V19.0305C35.1287 18.784 35.8652 17.8872 35.8652 16.8211C35.8652 15.5657 34.8438 14.5443 33.5884 14.5443H28.7669C27.5114 14.5443 26.49 15.5657 26.49 16.8211C26.49 17.8871 27.2265 18.784 28.2173 19.0305V20.7367C25.7988 21.2772 23.501 22.4859 21.6227 24.3642C21.2117 24.7752 20.8327 25.2064 20.4857 25.6545C20.4689 25.6533 20.4521 25.652 20.435 25.652H15.6629C15.2932 25.652 14.9933 25.9518 14.9933 26.3216C14.9933 26.6915 15.2932 26.9913 15.6629 26.9913H19.5745C19.0835 27.8133 18.6876 28.6765 18.3863 29.5652H11.0981C10.7283 29.5652 10.4285 29.865 10.4285 30.2348C10.4285 30.6047 10.7283 30.9045 11.0981 30.9045H18.0079C17.8149 31.7517 17.7041 32.6138 17.6755 33.4784H14.7142C14.3445 33.4784 14.0446 33.7782 14.0446 34.1481C14.0446 34.5179 14.3445 34.8177 14.7142 34.8177H17.6969C17.7534 35.6845 17.8928 36.5468 18.115 37.3917H13.7767C13.407 37.3917 13.1071 37.6915 13.1071 38.0613C13.1071 38.4312 13.407 38.731 13.7767 38.731H18.5424C19.1993 40.4688 20.226 42.0976 21.6227 43.4944C23.829 45.7006 26.7511 47.0842 29.8506 47.3905C30.293 47.4341 30.7357 47.4558 31.1778 47.4558C33.7909 47.4558 36.3708 46.6995 38.5599 45.274C38.8698 45.0721 38.9575 44.6573 38.7557 44.3474C38.5538 44.0374 38.139 43.9498 37.8291 44.1516C33.0372 47.272 26.6197 46.5973 22.5697 42.5473C17.8178 37.7953 17.8178 30.0633 22.5697 25.3113C27.3217 20.5593 35.0537 20.5593 39.8058 25.3113C43.8504 29.356 44.5288 35.768 41.4187 40.5575C41.2172 40.8676 41.3054 41.2824 41.6156 41.4838C41.9259 41.6852 42.3405 41.597 42.5419 41.2868C44.2036 38.7278 44.9516 35.637 44.6481 32.5837ZM27.8293 16.8212C27.8293 16.3042 28.2499 15.8837 28.7669 15.8837H33.5884C34.1053 15.8837 34.5259 16.3042 34.5259 16.8212C34.5259 17.3382 34.1053 17.7587 33.5884 17.7587H33.4682H28.8869H28.7669C28.2499 17.7587 27.8293 17.3381 27.8293 16.8212ZM29.5566 20.5065V19.098H32.7986V20.5041C31.722 20.3761 30.6329 20.3769 29.5566 20.5065Z" fill="#011D63"/>
<path d="M40.2795 42.3508C40.1027 42.3508 39.9306 42.4225 39.8061 42.547C39.6809 42.6716 39.6099 42.8444 39.6099 43.0205C39.6099 43.1966 39.6809 43.3694 39.8061 43.4939C39.9306 43.6191 40.1028 43.6901 40.2795 43.6901C40.4556 43.6901 40.6277 43.6191 40.7529 43.4939C40.8775 43.3694 40.9491 43.1966 40.9491 43.0205C40.9491 42.8444 40.8776 42.6716 40.7529 42.547C40.6277 42.4225 40.4556 42.3508 40.2795 42.3508Z" fill="#011D63"/>
<path d="M31.1878 23.5409C25.4597 23.5409 20.7996 28.201 20.7996 33.9292C20.7996 39.6573 25.4597 44.3174 31.1878 44.3174C36.9159 44.3174 41.5761 39.6573 41.5761 33.9292C41.5761 28.201 36.9159 23.5409 31.1878 23.5409ZM31.1878 42.9781C26.1982 42.9781 22.1389 38.9187 22.1389 33.9292C22.1389 28.9396 26.1982 24.8802 31.1878 24.8802C36.1775 24.8802 40.2368 28.9396 40.2368 33.9292C40.2368 38.9187 36.1775 42.9781 31.1878 42.9781Z" fill="#011D63"/>
<path d="M35.4239 28.7462L32.1071 32.0629C31.8297 31.9258 31.5177 31.8483 31.1879 31.8483C30.858 31.8483 30.5461 31.9258 30.2687 32.0629L28.7843 30.5785C28.5228 30.317 28.0989 30.317 27.8372 30.5785C27.5757 30.84 27.5757 31.264 27.8372 31.5255L29.3217 33.0099C29.1844 33.2873 29.107 33.5993 29.107 33.9291C29.107 35.0765 30.0405 36.01 31.1879 36.01C32.3354 36.01 33.2688 35.0765 33.2688 33.9291C33.2688 33.5993 33.1913 33.2873 33.0542 33.0099L36.2736 29.7905L36.3709 29.6932C36.6324 29.4317 36.6324 29.0077 36.3709 28.7462C36.1094 28.4847 35.6855 28.4847 35.4239 28.7462ZM31.1879 34.6707C30.779 34.6707 30.4463 34.338 30.4463 33.9292C30.4463 33.5203 30.779 33.1876 31.1879 33.1876C31.5968 33.1876 31.9295 33.5203 31.9295 33.9292C31.9295 34.338 31.5968 34.6707 31.1879 34.6707Z" fill="#011D63"/>
<path d="M38.3477 33.2677H37.7273C37.3575 33.2677 37.0576 33.5675 37.0576 33.9373C37.0576 34.3072 37.3575 34.607 37.7273 34.607H38.3477C38.7175 34.607 39.0173 34.3072 39.0173 33.9373C39.0173 33.5675 38.7175 33.2677 38.3477 33.2677Z" fill="#011D63"/>
<path d="M24.6482 33.2513H24.0278C23.658 33.2513 23.3582 33.5511 23.3582 33.921C23.3582 34.2908 23.658 34.5906 24.0278 34.5906H24.6482C25.0179 34.5906 25.3178 34.2908 25.3178 33.921C25.3178 33.5511 25.0179 33.2513 24.6482 33.2513Z" fill="#011D63"/>
<path d="M31.196 28.0593C31.5658 28.0593 31.8657 27.7595 31.8657 27.3896V26.7693C31.8657 26.3994 31.5658 26.0996 31.196 26.0996C30.8262 26.0996 30.5264 26.3994 30.5264 26.7693V27.3896C30.5264 27.7595 30.8262 28.0593 31.196 28.0593Z" fill="#011D63"/>
<path d="M31.1797 39.799C30.8099 39.799 30.51 40.0987 30.51 40.4686V41.089C30.51 41.4588 30.8099 41.7586 31.1797 41.7586C31.5494 41.7586 31.8493 41.4588 31.8493 41.089V40.4686C31.8493 40.0987 31.5494 39.799 31.1797 39.799Z" fill="#011D63"/>
<path d="M11.0981 37.3914C10.922 37.3914 10.7492 37.463 10.6247 37.5876C10.5001 37.7121 10.4285 37.8849 10.4285 38.061C10.4285 38.2378 10.5001 38.4099 10.6247 38.5344C10.7493 38.659 10.922 38.7306 11.0981 38.7306C11.2742 38.7306 11.447 38.659 11.5715 38.5344C11.696 38.4099 11.7678 38.2371 11.7678 38.061C11.7678 37.8849 11.6961 37.7121 11.5715 37.5876C11.447 37.463 11.2742 37.3914 11.0981 37.3914Z" fill="#011D63"/>
</g>
<defs>
<clipPath id="clip0_383_1382">
<rect width="34.2857" height="34.2857" fill="white" transform="translate(10.4285 13.8572)"/>
</clipPath>
</defs>
</svg>
