<svg width="62" height="62" viewBox="0 0 62 62" fill="none" xmlns="http://www.w3.org/2000/svg">
<path d="M31 61C47.5685 61 61 47.5685 61 31C61 14.4315 47.5685 1 31 1C14.4315 1 1 14.4315 1 31C1 47.5685 14.4315 61 31 61Z" stroke="#011D63" stroke-width="2"/>
<g clip-path="url(#clip0_383_1362)">
<g clip-path="url(#clip1_383_1362)">
<path d="M41.995 43.3107C41.9139 41.1843 40.8566 39.6205 38.9374 38.7883C36.7775 37.8515 33.6475 38.6739 30.9853 40.7482C31.4094 39.2241 32.0007 37.1525 32.4297 35.8655C34.49 29.7367 34.964 22.2136 33.1988 16.1161C32.8707 12.9908 29.803 11.2011 26.9548 12.6562C25.3862 13.4576 24.6569 15.7183 24.0137 17.7128C23.7073 18.6625 23.4179 19.5595 23.0832 20.1666C22.3724 21.4557 22.7818 23.0442 24.2754 23.5132C24.3315 25.3601 23.5442 29.6714 22.925 32.0739C22.0565 35.8197 21.0723 40.0652 20.8488 46.7388C20.8104 47.8878 21.7269 48.8818 22.8724 48.9394C22.3175 49.718 22.0112 50.6551 22.0112 51.6357C22.0112 51.9602 22.2742 52.2233 22.5988 52.2233H29.413C30.1728 52.2233 30.1728 51.0481 29.413 51.0481H23.2356C23.3733 50.2375 23.7954 49.4983 24.4397 48.9625C24.4474 48.956 24.4544 48.9489 24.4618 48.9422H33.0421C33.6931 49.4741 34.1284 50.2261 34.2702 51.0481H32.8602C32.1005 51.0481 32.1005 52.2233 32.8602 52.2233H34.9082C35.2328 52.2233 35.4958 51.9569 35.4958 51.6324C35.4958 50.6598 35.185 49.7203 34.633 48.9422H39.117C39.9694 48.9422 40.7377 48.4384 41.0743 47.6588C41.4472 46.7955 42.0627 45.0826 41.995 43.3107ZM39.9955 47.1928C39.8448 47.5416 39.5 47.767 39.117 47.767H22.9827C22.3834 47.7079 22.0636 47.3783 22.0234 46.7781C22.1868 41.8956 22.8825 38.3504 23.4053 35.2999C23.6155 34.0733 24.4023 32.8141 26.1288 32.3853C28.6928 31.7483 29.0909 29.0746 29.1066 28.9611C29.1859 28.1896 28.08 28.0356 27.9428 28.7978C27.9308 28.8795 27.629 30.8016 25.8454 31.2447C25.1507 31.4173 24.587 31.7183 24.131 32.0752C24.4575 30.6659 24.7637 29.3235 24.9977 27.9508C25.3393 25.9458 25.4369 24.5085 25.45 23.5763C26.3475 23.4551 27.0944 22.9853 27.9316 22.4017C28.5549 21.9672 27.8829 21.0031 27.2597 21.4376C26.1906 22.1829 25.5743 22.5017 24.7498 22.4201C23.8667 22.3327 23.7675 21.3594 24.1123 20.7339C25.1743 18.8574 25.696 14.6638 27.4894 13.7026C29.7731 12.536 31.618 14.0455 32.0388 16.3202C32.1194 17.3305 31.7445 18.5436 30.0651 19.5537C29.4141 19.9452 30.0198 20.9524 30.6707 20.5607C31.5746 20.0171 32.202 19.395 32.6086 18.7382C33.6326 24.0864 33.0545 30.2905 31.3149 35.4938C30.6264 37.5593 29.5659 41.4665 29.3538 42.2531C29.1424 42.4911 28.603 43.1005 28.0818 43.704C27.5905 44.2727 28.4666 45.0567 28.9712 44.4721C29.5921 43.7532 30.2397 43.0253 30.3161 42.9395C32.8475 40.2691 36.3519 38.9478 38.4701 39.8664C41.725 41.17 40.9339 45.0744 39.9955 47.1928Z" fill="#011D63"/>
</g>
</g>
<defs>
<clipPath id="clip0_383_1362">
<rect width="23" height="37" fill="white" transform="translate(20 12)"/>
</clipPath>
<clipPath id="clip1_383_1362">
<rect width="47.4074" height="47.4074" fill="white" transform="translate(9.65356 12.1428)"/>
</clipPath>
</defs>
</svg>
