<svg width="62" height="62" viewBox="0 0 62 62" fill="none" xmlns="http://www.w3.org/2000/svg">
<path d="M31 61C47.5685 61 61 47.5685 61 31C61 14.4315 47.5685 1 31 1C14.4315 1 1 14.4315 1 31C1 47.5685 14.4315 61 31 61Z" stroke="#011D63" stroke-width="2"/>
<path d="M18.3367 25.5641L18.3367 25.5641L18.3391 25.5563C18.7525 24.2174 19.1594 22.8999 19.4016 21.7025C19.6434 20.5072 19.7292 19.3967 19.4718 18.4834C19.3328 17.9889 19.6203 17.4758 20.1148 17.3363C20.609 17.197 21.122 17.4852 21.261 17.9793L21.261 17.9793C21.5815 19.117 21.534 20.3848 21.283 21.759C21.0319 23.1337 20.5819 24.5926 20.1128 26.1117C20.1128 26.1117 20.1128 26.1117 20.1128 26.1117L20.1083 26.1262C19.3432 28.6034 18.5378 31.211 18.5378 33.6857C18.5378 36.0137 19.0508 37.7724 20.1645 38.9475C20.9859 39.8143 22.1096 40.3381 23.5283 40.5543C23.6263 41.2307 23.7526 41.8688 23.9026 42.4693C21.7468 42.2602 20.0613 41.5018 18.8655 40.258C17.443 38.7784 16.6785 36.5759 16.6785 33.6863C16.6785 30.9401 17.5518 28.1052 18.3367 25.5641ZM24.4287 42.5089C24.2751 41.9185 24.1449 41.2885 24.0432 40.6181C24.4018 40.6528 24.7774 40.6699 25.17 40.6699C25.6021 40.6699 25.965 40.9643 26.0692 41.3636C26.0745 41.3882 26.0799 41.4127 26.0853 41.4371C26.0945 41.4898 26.0993 41.5439 26.0993 41.5992C26.0993 42.1127 25.683 42.5286 25.17 42.5286C24.9174 42.5286 24.6703 42.522 24.4287 42.5089ZM25.8846 40.3609C25.6744 40.2394 25.4304 40.1699 25.17 40.1699C24.7466 40.1699 24.3477 40.1493 23.9724 40.1082C23.8574 39.1971 23.7941 38.215 23.7941 37.1598C23.7941 36.1343 23.8048 34.9842 23.8162 33.7556L23.8164 33.7244C23.8164 33.7244 23.8164 33.7244 23.8164 33.7244C23.8471 30.453 23.8856 26.3364 23.7137 22.7298C23.6278 20.9266 23.4891 19.2451 23.2692 17.857C23.0512 16.4806 22.7481 15.3536 22.3117 14.6904L22.3114 14.69C22.0287 14.2618 22.1473 13.6856 22.5762 13.4038L22.5762 13.4037C23.0058 13.1212 23.5817 13.2406 23.8636 13.669L23.8636 13.669C24.3029 14.3365 24.6488 15.3302 24.914 16.613C25.1785 17.8917 25.3589 19.4376 25.4792 21.1951C25.7197 24.7106 25.7176 29.0478 25.6739 33.7421L25.6736 33.772C25.6622 34.9922 25.6515 36.1382 25.6515 37.1604C25.6515 38.3386 25.7369 39.4029 25.8846 40.3609ZM25.17 43.0286C25.6516 43.0286 26.0779 42.7902 26.3369 42.4249C26.6302 43.4328 26.9945 44.2792 27.3832 44.9793C27.8509 45.8219 28.3537 46.4523 28.8096 46.8961C29.2605 47.335 29.6789 47.6043 29.9825 47.704L30.1251 47.7509L30.2335 47.647C30.4496 47.4398 30.8196 47.1332 31.4123 47.1332C32.0056 47.1332 32.3749 47.4397 32.5911 47.647L32.6995 47.7509L32.8421 47.7041C33.1455 47.6045 33.5639 47.3353 34.0147 46.8966C34.4706 46.4529 34.9734 45.8226 35.4412 44.98C35.8301 44.2796 36.1947 43.4326 36.4881 42.4239C36.7469 42.7898 37.1734 43.0286 37.6559 43.0286C37.8594 43.0286 38.0598 43.0244 38.2572 43.0162C37.819 44.5068 37.2294 45.7265 36.58 46.6929C35.2131 48.7272 33.6088 49.6071 32.5999 49.6071C32.1265 49.6071 31.7952 49.414 31.5709 49.2323L31.4138 49.105L31.2564 49.2321C31.0313 49.4141 30.7005 49.6071 30.2272 49.6071C29.2181 49.6071 27.6135 48.7272 26.2465 46.6929C25.5971 45.7264 25.0074 44.5068 24.5692 43.0162C24.7664 43.0244 24.9666 43.0286 25.17 43.0286ZM37.6559 40.1699C37.395 40.1699 37.1504 40.2397 36.9399 40.3617C37.0877 39.4035 37.1731 38.3389 37.1731 37.1604C37.1731 36.1973 37.1636 35.1231 37.1535 33.981L37.1514 33.7422V33.7421C37.1073 29.0481 37.1052 24.7109 37.3458 21.1954C37.4661 19.4378 37.6466 17.8919 37.9111 16.6131C38.1764 15.3302 38.5223 14.3365 38.9616 13.669L38.9618 13.6687C39.2431 13.24 39.8198 13.1207 40.2487 13.4035L40.2489 13.4037C40.678 13.6862 40.7967 14.262 40.5143 14.6909L40.5142 14.691C40.0778 15.3542 39.7747 16.4812 39.5567 17.8576C39.3368 19.2457 39.1981 20.9273 39.1122 22.7304C38.9403 26.337 38.9788 30.4537 39.0094 33.725C39.0094 33.725 39.0094 33.7251 39.0094 33.7251L39.0097 33.7517C39.0211 34.9814 39.0318 36.1337 39.0318 37.1604C39.0319 38.2154 38.9686 39.1973 38.8537 40.1082C38.4784 40.1493 38.0793 40.1699 37.6559 40.1699ZM37.6559 40.6699C38.0486 40.6699 38.4243 40.6528 38.783 40.618C38.6813 41.2885 38.5512 41.9185 38.3976 42.5089C38.1559 42.522 37.9086 42.5286 37.6559 42.5286C37.1423 42.5286 36.7265 42.1128 36.7265 41.5992C36.7265 41.0857 37.1423 40.6699 37.6559 40.6699ZM38.9237 42.4693C39.0737 41.8688 39.1999 41.2307 39.2979 40.5542C40.7165 40.338 41.8402 39.8143 42.6617 38.9475C43.7755 37.7724 44.2887 36.0137 44.2887 33.6857C44.2887 31.2152 43.4858 28.6135 42.7227 26.1408L42.7137 26.1117L42.7137 26.1117C42.2447 24.5926 41.7944 23.1337 41.5432 21.7589C41.292 20.3847 41.2444 19.1167 41.5649 17.9787C41.7037 17.4856 42.2173 17.1974 42.7112 17.3364L42.7113 17.3364C43.2053 17.4753 43.493 17.9892 43.3541 18.4832C43.0967 19.3965 43.1826 20.507 43.4244 21.7022C43.6657 22.8946 44.0701 24.2062 44.4812 25.5396L44.4885 25.5634L44.4886 25.5635C45.2734 28.1045 46.1468 30.9395 46.1468 33.6857C46.1471 36.5757 45.3827 38.7783 43.9603 40.2579C42.7646 41.5017 41.0793 42.2601 38.9237 42.4693Z" fill="#011D63" stroke="white" stroke-width="0.5"/>
</svg>
