<svg width="62" height="62" viewBox="0 0 62 62" fill="none" xmlns="http://www.w3.org/2000/svg">
<path d="M31 61C47.5685 61 61 47.5685 61 31C61 14.4315 47.5685 1 31 1C14.4315 1 1 14.4315 1 31C1 47.5685 14.4315 61 31 61Z" stroke="#011D63" stroke-width="2"/>
<g clip-path="url(#clip0_383_1347)">
<path d="M30.7683 19.9445L30.7279 19.8337L30.7613 19.8216M30.7683 19.9445L30.7613 19.8216M30.7683 19.9445L30.7279 19.8337C30.3334 19.9773 30.1307 20.4118 30.2745 20.8068M30.7683 19.9445L30.2745 20.8068M30.7613 19.8216C31.154 19.6787 31.591 19.8823 31.7341 20.2754L32.051 21.1462C32.1905 21.5294 32.6143 21.7271 32.9976 21.5876L33.8683 21.2706L33.9038 21.368L33.8683 21.2706C34.2616 21.1275 34.6984 21.3314 34.8414 21.7241L34.8414 21.7241L34.8535 21.7575C34.9971 22.152 34.7946 22.5866 34.3996 22.7303L31.4866 23.7905L31.3752 23.8311L31.3346 23.7196L30.2745 20.8068M30.7613 19.8216L30.2745 20.8068M18.1568 20.0099L18.1568 20.0099C18.2997 19.6172 18.7366 19.4133 19.1298 19.5564L19.1298 19.5564L20.0005 19.8733C20.0005 19.8733 20.0005 19.8733 20.0005 19.8733C20.3838 20.0128 20.8076 19.8152 20.9471 19.4319L21.2641 18.5612C21.4072 18.168 21.8442 17.9644 22.2369 18.1073C22.2369 18.1073 22.2369 18.1073 22.2369 18.1073L22.2703 18.1195L22.2703 18.1195C22.6648 18.2631 22.8675 18.6975 22.7238 19.0925L22.7238 19.0925L21.6636 22.0055L21.623 22.1169L21.5115 22.0763L18.5985 21.0161L18.1568 20.0099ZM18.1568 20.0099L18.1447 20.0432C18.1447 20.0432 18.1446 20.0432 18.1446 20.0433L18.1568 20.0099ZM18.0242 36.106V36.2246H18.1428H25.8938V36.106L26.0119 36.1161C26.4411 31.1343 30.6211 27.2245 35.7142 27.2245C41.0927 27.2245 45.4527 31.5846 45.4527 36.9631V44.6774C45.4527 45.0852 45.122 45.4159 44.7142 45.4159C44.3063 45.4159 43.9756 45.0852 43.9756 44.6774V42.1059V41.9873H43.857H18.1428H18.0242V42.1059V44.6774C18.0242 45.0852 17.6935 45.4159 17.2856 45.4159C16.8777 45.4159 16.5471 45.0852 16.5471 44.6774V28.3917C16.5471 27.9838 16.8777 27.6531 17.2856 27.6531C17.6935 27.6531 18.0242 27.9838 18.0242 28.3917V36.106ZM27.4979 36.0936L27.4842 36.2246H27.6159H43.428C43.5533 36.2246 43.6757 36.236 43.7947 36.2578L43.9498 36.2862L43.9341 36.1293C43.5159 31.9581 39.9955 28.7016 35.7142 28.7016C31.4451 28.7016 27.9325 31.9395 27.4979 36.0936ZM18.0242 40.3917V40.5103H18.1428H43.857H43.9756V40.3917V38.2456C43.9756 37.9482 43.7278 37.7016 43.428 37.7016H18.1428H18.0242V37.8202V40.3917ZM30.2561 18.4336L30.2561 18.4336C31.4152 18.0117 32.7 18.6102 33.1221 19.7702C33.1221 19.7703 33.1222 19.7703 33.1222 19.7703L33.1459 19.8356L33.1864 19.9471L33.2979 19.9065L33.3632 19.8828C34.5232 19.4605 35.8075 20.06 36.2294 21.219L36.2415 21.2524L36.353 21.2118L36.2415 21.2524C36.6641 22.4133 36.0666 23.6955 34.9048 24.1184L31.1864 25.4718C30.8032 25.6113 30.3793 25.4136 30.2398 25.0304L28.8865 21.3119C28.4636 20.1502 29.0619 18.8683 30.2228 18.4457C30.2228 18.4457 30.2228 18.4457 30.2228 18.4457L30.2561 18.4336ZM19.635 18.1684L19.6351 18.1685L19.7003 18.1921L19.8117 18.2325L19.8522 18.1212L19.876 18.056L19.876 18.0559C20.2982 16.8959 21.583 16.2974 22.742 16.7193L22.742 16.7193L22.7754 16.7314C23.9363 17.1539 24.5345 18.4359 24.1117 19.5976L24.2197 19.6369L24.1117 19.5976L22.7583 23.316C22.7583 23.316 22.7583 23.316 22.7583 23.316C22.6188 23.6993 22.195 23.8969 21.8117 23.7574L21.8117 23.7574L18.0933 22.4041C16.9315 21.9812 16.3341 20.6989 16.7566 19.5381L16.7566 19.538L16.7688 19.5047C16.7688 19.5047 16.7688 19.5047 16.7688 19.5047C17.1906 18.3457 18.4749 17.7462 19.635 18.1684ZM24.4527 32.2488C24.4527 33.6035 23.3545 34.7016 21.9999 34.7016C20.6452 34.7016 19.5471 33.6035 19.5471 32.2488C19.5471 30.8941 20.6452 29.796 21.9999 29.796C23.3546 29.796 24.4527 30.8942 24.4527 32.2488ZM21.0242 32.2488C21.0242 32.7877 21.461 33.2246 21.9999 33.2246C22.5388 33.2246 22.9757 32.7877 22.9757 32.2488C22.9757 31.7099 22.5388 31.2731 21.9999 31.2731C21.461 31.2731 21.0242 31.7099 21.0242 32.2488ZM27.8813 27.1059C27.8813 28.4606 26.7831 29.5588 25.4285 29.5588C24.0738 29.5588 22.9757 28.4606 22.9757 27.1059C22.9757 25.7513 24.0738 24.6531 25.4285 24.6531C26.7832 24.6531 27.8813 25.7513 27.8813 27.1059ZM24.4527 27.1059C24.4527 27.6448 24.8896 28.0817 25.4285 28.0817C25.9674 28.0817 26.4042 27.6448 26.4042 27.1059C26.4042 26.5671 25.9674 26.1302 25.4285 26.1302C24.8896 26.1302 24.4527 26.5671 24.4527 27.1059Z" fill="#011D63" stroke="white" stroke-width="0.237209"/>
</g>
<defs>
<clipPath id="clip0_383_1347">
<rect width="29.1429" height="29.1429" fill="white" transform="translate(16.4285 16.4286)"/>
</clipPath>
</defs>
</svg>
