<svg width="62" height="62" viewBox="0 0 62 62" fill="none" xmlns="http://www.w3.org/2000/svg">
<path d="M31 61C47.5685 61 61 47.5685 61 31C61 14.4315 47.5685 1 31 1C14.4315 1 1 14.4315 1 31C1 47.5685 14.4315 61 31 61Z" stroke="#011D63" stroke-width="2"/>
<g clip-path="url(#clip0_383_1375)">
<mask id="path-2-inside-1_383_1375" fill="white">
<path d="M37.4485 37.7294C35.7632 37.6175 32.7239 37.7066 30.6886 39.4401C28.6534 37.7066 25.6144 37.6178 23.9286 37.7294C22.8132 37.8034 21.9163 38.7003 21.8422 39.8157C21.7243 41.5936 21.8285 44.8783 23.8516 46.9014C25.544 48.5938 28.1193 48.9434 29.9567 48.9433C30.2382 48.9433 31.2619 48.9445 31.4634 48.9445C34.7652 48.9445 36.5761 47.8507 37.5254 46.9014C39.5485 44.8783 39.6527 41.5936 39.5347 39.8156C39.4609 38.7003 38.5639 37.8034 37.4485 37.7294ZM25.1101 45.6431C24.4548 44.9879 23.3897 43.3748 23.618 39.9335C23.6332 39.7045 23.8174 39.5202 24.0465 39.505C24.3704 39.4836 24.6779 39.4735 24.9701 39.4735C27.7827 39.4735 29.1624 40.4035 29.7561 40.9971C30.4113 41.6523 31.4764 43.2653 31.2482 46.7066C31.233 46.9357 31.0487 47.1199 30.8195 47.1351C27.3783 47.3636 25.7653 46.2983 25.1101 45.6431ZM36.2673 45.6431C35.406 46.5044 34.1559 46.8951 32.9946 47.0587C33.008 46.9817 33.0184 46.9039 33.0238 46.8244C33.1228 45.3304 33.0647 42.7727 31.8434 40.7935C32.6116 40.1448 34.2282 39.2988 37.3308 39.505C37.5599 39.5202 37.7442 39.7045 37.7594 39.9335C37.9876 43.3748 36.9225 44.9879 36.2673 45.6431Z"/>
<path d="M44.9925 27.9918C44.9894 27.9837 44.9862 27.9757 44.9828 27.9676C44.8249 27.5836 44.4548 27.3356 44.0396 27.3356C44.0392 27.3356 44.039 27.3356 44.0386 27.3356C43.623 27.336 43.2528 27.5848 43.0955 27.9694C43.0927 27.9761 43.09 27.9829 43.0875 27.9897L40.9312 33.6515C40.7563 34.1108 40.9867 34.6248 41.446 34.7997C41.9053 34.9746 42.4192 34.7441 42.5941 34.2849L42.7774 33.8039H45.2836L45.4642 34.2824C45.5987 34.6388 45.9372 34.8583 46.2969 34.8583C46.4011 34.8583 46.5074 34.8398 46.6108 34.8008C47.0705 34.6273 47.3026 34.1139 47.1291 33.6542L44.9925 27.9918ZM43.4553 32.0241L44.0364 30.4983L44.6121 32.0241H43.4553Z"/>
<path d="M22.1781 34.8005C22.6378 34.6271 22.87 34.1136 22.6964 33.6539L20.5597 27.9918C20.5566 27.9837 20.5534 27.9757 20.5501 27.9676C20.3922 27.5836 20.022 27.3356 19.6068 27.3356C19.6064 27.3356 19.606 27.3356 19.6056 27.3356C19.19 27.3361 18.8198 27.585 18.6626 27.9697C18.66 27.9764 18.6574 27.9829 18.6547 27.9895L16.4983 33.6514C16.3234 34.1107 16.5538 34.6247 17.0131 34.7996C17.4722 34.9745 17.9864 34.7439 18.1612 34.2848L18.3445 33.8038H20.8507L21.0313 34.2823C21.1658 34.6387 21.5043 34.8582 21.864 34.8582C21.9685 34.8581 22.0748 34.8396 22.1781 34.8005ZM19.0225 32.0241L19.6036 30.4984L20.1793 32.0241H19.0225Z"/>
<path d="M14.4819 27.3355C13.9905 27.3402 13.596 27.7424 13.6007 28.2338L13.6291 31.1725L11.252 27.7303C11.0307 27.4099 10.6267 27.2707 10.2551 27.3865C9.8833 27.5024 9.63013 27.8466 9.63013 28.2359V33.9679C9.63013 34.4593 10.0285 34.8577 10.5199 34.8577C11.0113 34.8577 11.4097 34.4593 11.4097 33.9679V31.0902L13.6637 34.3543C13.9186 34.7222 14.346 34.8778 14.7528 34.7506C15.1665 34.6213 15.4339 34.2382 15.4338 33.7658L15.3802 28.2166C15.3754 27.7253 14.9687 27.329 14.4819 27.3355Z"/>
<path d="M50.8524 33.0734C50.4735 33.0756 50.0747 33.0771 49.7362 33.0778V28.2253C49.7362 27.7339 49.3378 27.3355 48.8465 27.3355C48.3551 27.3355 47.9567 27.7339 47.9567 28.2253V33.9632C47.9567 34.3967 48.2691 34.7671 48.6963 34.8402C48.7596 34.8511 48.8015 34.8582 49.4513 34.8582C49.7609 34.8582 50.2085 34.8565 50.8623 34.853C51.3537 34.8502 51.7498 34.4496 51.7471 33.9582C51.7444 33.4668 51.3472 33.0698 50.8524 33.0734Z"/>
<path d="M29.1803 27.3355C28.6889 27.3355 28.2906 27.7339 28.2906 28.2253V32.1769C28.2906 33.1059 28.7319 33.8589 29.6022 34.4151C30.0607 34.7081 30.5776 34.857 31.1387 34.8578H31.143C31.6247 34.8578 32.0773 34.7528 32.4887 34.5457C33.5024 34.0353 34.0605 33.1925 34.0605 32.1729V28.2254C34.0605 27.734 33.6622 27.3356 33.1708 27.3356C32.6794 27.3356 32.281 27.734 32.281 28.2254V32.1729C32.281 32.4127 32.2105 32.6933 31.6883 32.9563C31.5252 33.0384 31.3469 33.0784 31.143 33.0784C31.1423 33.0784 31.1416 33.0784 31.141 33.0784C30.9212 33.0781 30.7313 33.0249 30.5603 32.9156C30.1503 32.6537 30.0701 32.4464 30.0701 32.177V28.2254C30.0701 27.7339 29.6717 27.3355 29.1803 27.3355Z"/>
<path d="M23.2355 27.3355C22.7441 27.3355 22.3457 27.7339 22.3457 28.2253C22.3457 28.7167 22.7441 29.115 23.2355 29.115H23.925V33.9679C23.925 34.4593 24.3234 34.8577 24.8148 34.8577C25.3062 34.8577 25.7046 34.4593 25.7046 33.9679V29.115H26.4069C26.8983 29.115 27.2966 28.7167 27.2966 28.2253C27.2966 27.7339 26.8983 27.3355 26.4069 27.3355H23.2355Z"/>
<path d="M40.1697 29.7178C40.1697 28.4043 39.063 27.3356 37.703 27.3356H36.177C36.1766 27.3356 36.1764 27.3356 36.176 27.3356C36.1757 27.3356 36.1755 27.3356 36.1751 27.3356C35.6837 27.3356 35.2853 27.734 35.2853 28.2254V33.9681C35.2853 34.4595 35.6837 34.8578 36.1751 34.8578C36.6665 34.8578 37.0649 34.4595 37.0649 33.9681V32.798L38.6121 34.5559C38.7879 34.7558 39.0335 34.8578 39.2804 34.8578C39.4892 34.8578 39.6988 34.7848 39.8679 34.636C40.2367 34.3113 40.2727 33.7491 39.948 33.3802L38.6577 31.9142C39.5449 31.5531 40.1697 30.7046 40.1697 29.7178ZM37.703 29.115C38.0691 29.115 38.3901 29.3967 38.3901 29.7177C38.3901 30.0387 38.069 30.3204 37.703 30.3204C37.5514 30.3204 37.3146 30.3212 37.0725 30.3223C37.0714 30.089 37.0706 29.8626 37.0706 29.7177C37.0706 29.593 37.0701 29.3603 37.0694 29.115H37.703Z"/>
<path d="M17.4789 16.7799V23.515C17.4789 24.0063 17.8773 24.4047 18.3687 24.4047C18.8601 24.4047 19.2585 24.0063 19.2585 23.515V15.8901C19.2585 15.3987 18.8601 15.0004 18.3687 15.0004H16.739C16.2476 15.0004 15.8492 15.3987 15.8492 15.8901C15.8492 16.3815 16.2476 16.7799 16.739 16.7799H17.4789Z"/>
<path d="M41.6487 23.5225L44.6829 16.2928C44.8731 15.8397 44.6599 15.3182 44.2068 15.128C43.754 14.938 43.2324 15.151 43.0421 15.6041L40.0079 22.8339C39.8177 23.2869 40.0309 23.8085 40.4839 23.9986C40.5964 24.0458 40.7131 24.0682 40.8279 24.0682C41.1756 24.0683 41.5058 23.8632 41.6487 23.5225Z"/>
<path d="M38.3101 19.6171C39.54 19.6171 40.5405 18.5191 40.5405 17.1694C40.5405 15.8197 39.54 14.7217 38.3101 14.7217C37.0802 14.7217 36.0797 15.8197 36.0797 17.1694C36.0797 18.5191 37.0802 19.6171 38.3101 19.6171ZM38.3101 16.5012C38.5234 16.5012 38.761 16.7756 38.761 17.1694C38.761 17.5631 38.5234 17.8375 38.3101 17.8375C38.0969 17.8375 37.8593 17.5631 37.8593 17.1694C37.8593 16.7756 38.0968 16.5012 38.3101 16.5012Z"/>
<path d="M46.2787 19.6649C45.0488 19.6649 44.0482 20.7628 44.0482 22.1126C44.0482 23.4623 45.0488 24.5603 46.2787 24.5603C47.5086 24.5603 48.5092 23.4623 48.5092 22.1126C48.5092 20.7628 47.5086 19.6649 46.2787 19.6649ZM46.2787 22.7807C46.0654 22.7807 45.8278 22.5063 45.8278 22.1126C45.8278 21.7188 46.0654 21.4444 46.2787 21.4444C46.492 21.4444 46.7296 21.7188 46.7296 22.1126C46.7296 22.5063 46.492 22.7807 46.2787 22.7807Z"/>
<path d="M23.5378 24.5603C25.2442 24.5603 26.6324 23.172 26.6324 21.4656V17.9394C26.6324 16.233 25.2441 14.8448 23.5378 14.8448C21.8315 14.8448 20.4432 16.2331 20.4432 17.9394V21.4656C20.4431 23.172 21.8313 24.5603 23.5378 24.5603ZM22.2226 17.9394C22.2226 17.2142 22.8126 16.6244 23.5377 16.6244C24.2628 16.6244 24.8527 17.2143 24.8527 17.9394V21.4656C24.8527 22.1909 24.2628 22.7807 23.5377 22.7807C22.8126 22.7807 22.2226 22.1907 22.2226 21.4656V17.9394Z"/>
<path d="M31.055 24.5603C32.7615 24.5603 34.1496 23.172 34.1496 21.4656V17.9394C34.1496 16.233 32.7614 14.8448 31.055 14.8448C29.3487 14.8448 27.9604 16.2331 27.9604 17.9394V21.4656C27.9603 23.172 29.3486 24.5603 31.055 24.5603ZM29.7398 17.9394C29.7398 17.2142 30.3298 16.6244 31.0549 16.6244C31.78 16.6244 32.37 17.2143 32.37 17.9394V21.4656C32.37 22.1909 31.78 22.7807 31.0549 22.7807C30.3298 22.7807 29.7398 22.1907 29.7398 21.4656V17.9394Z"/>
</mask>
<path d="M37.4485 37.7294C35.7632 37.6175 32.7239 37.7066 30.6886 39.4401C28.6534 37.7066 25.6144 37.6178 23.9286 37.7294C22.8132 37.8034 21.9163 38.7003 21.8422 39.8157C21.7243 41.5936 21.8285 44.8783 23.8516 46.9014C25.544 48.5938 28.1193 48.9434 29.9567 48.9433C30.2382 48.9433 31.2619 48.9445 31.4634 48.9445C34.7652 48.9445 36.5761 47.8507 37.5254 46.9014C39.5485 44.8783 39.6527 41.5936 39.5347 39.8156C39.4609 38.7003 38.5639 37.8034 37.4485 37.7294ZM25.1101 45.6431C24.4548 44.9879 23.3897 43.3748 23.618 39.9335C23.6332 39.7045 23.8174 39.5202 24.0465 39.505C24.3704 39.4836 24.6779 39.4735 24.9701 39.4735C27.7827 39.4735 29.1624 40.4035 29.7561 40.9971C30.4113 41.6523 31.4764 43.2653 31.2482 46.7066C31.233 46.9357 31.0487 47.1199 30.8195 47.1351C27.3783 47.3636 25.7653 46.2983 25.1101 45.6431ZM36.2673 45.6431C35.406 46.5044 34.1559 46.8951 32.9946 47.0587C33.008 46.9817 33.0184 46.9039 33.0238 46.8244C33.1228 45.3304 33.0647 42.7727 31.8434 40.7935C32.6116 40.1448 34.2282 39.2988 37.3308 39.505C37.5599 39.5202 37.7442 39.7045 37.7594 39.9335C37.9876 43.3748 36.9225 44.9879 36.2673 45.6431Z" fill="#011D63"/>
<path d="M44.9925 27.9918C44.9894 27.9837 44.9862 27.9757 44.9828 27.9676C44.8249 27.5836 44.4548 27.3356 44.0396 27.3356C44.0392 27.3356 44.039 27.3356 44.0386 27.3356C43.623 27.336 43.2528 27.5848 43.0955 27.9694C43.0927 27.9761 43.09 27.9829 43.0875 27.9897L40.9312 33.6515C40.7563 34.1108 40.9867 34.6248 41.446 34.7997C41.9053 34.9746 42.4192 34.7441 42.5941 34.2849L42.7774 33.8039H45.2836L45.4642 34.2824C45.5987 34.6388 45.9372 34.8583 46.2969 34.8583C46.4011 34.8583 46.5074 34.8398 46.6108 34.8008C47.0705 34.6273 47.3026 34.1139 47.1291 33.6542L44.9925 27.9918ZM43.4553 32.0241L44.0364 30.4983L44.6121 32.0241H43.4553Z" fill="#011D63"/>
<path d="M22.1781 34.8005C22.6378 34.6271 22.87 34.1136 22.6964 33.6539L20.5597 27.9918C20.5566 27.9837 20.5534 27.9757 20.5501 27.9676C20.3922 27.5836 20.022 27.3356 19.6068 27.3356C19.6064 27.3356 19.606 27.3356 19.6056 27.3356C19.19 27.3361 18.8198 27.585 18.6626 27.9697C18.66 27.9764 18.6574 27.9829 18.6547 27.9895L16.4983 33.6514C16.3234 34.1107 16.5538 34.6247 17.0131 34.7996C17.4722 34.9745 17.9864 34.7439 18.1612 34.2848L18.3445 33.8038H20.8507L21.0313 34.2823C21.1658 34.6387 21.5043 34.8582 21.864 34.8582C21.9685 34.8581 22.0748 34.8396 22.1781 34.8005ZM19.0225 32.0241L19.6036 30.4984L20.1793 32.0241H19.0225Z" fill="#011D63"/>
<path d="M14.4819 27.3355C13.9905 27.3402 13.596 27.7424 13.6007 28.2338L13.6291 31.1725L11.252 27.7303C11.0307 27.4099 10.6267 27.2707 10.2551 27.3865C9.8833 27.5024 9.63013 27.8466 9.63013 28.2359V33.9679C9.63013 34.4593 10.0285 34.8577 10.5199 34.8577C11.0113 34.8577 11.4097 34.4593 11.4097 33.9679V31.0902L13.6637 34.3543C13.9186 34.7222 14.346 34.8778 14.7528 34.7506C15.1665 34.6213 15.4339 34.2382 15.4338 33.7658L15.3802 28.2166C15.3754 27.7253 14.9687 27.329 14.4819 27.3355Z" fill="#011D63"/>
<path d="M50.8524 33.0734C50.4735 33.0756 50.0747 33.0771 49.7362 33.0778V28.2253C49.7362 27.7339 49.3378 27.3355 48.8465 27.3355C48.3551 27.3355 47.9567 27.7339 47.9567 28.2253V33.9632C47.9567 34.3967 48.2691 34.7671 48.6963 34.8402C48.7596 34.8511 48.8015 34.8582 49.4513 34.8582C49.7609 34.8582 50.2085 34.8565 50.8623 34.853C51.3537 34.8502 51.7498 34.4496 51.7471 33.9582C51.7444 33.4668 51.3472 33.0698 50.8524 33.0734Z" fill="#011D63"/>
<path d="M29.1803 27.3355C28.6889 27.3355 28.2906 27.7339 28.2906 28.2253V32.1769C28.2906 33.1059 28.7319 33.8589 29.6022 34.4151C30.0607 34.7081 30.5776 34.857 31.1387 34.8578H31.143C31.6247 34.8578 32.0773 34.7528 32.4887 34.5457C33.5024 34.0353 34.0605 33.1925 34.0605 32.1729V28.2254C34.0605 27.734 33.6622 27.3356 33.1708 27.3356C32.6794 27.3356 32.281 27.734 32.281 28.2254V32.1729C32.281 32.4127 32.2105 32.6933 31.6883 32.9563C31.5252 33.0384 31.3469 33.0784 31.143 33.0784C31.1423 33.0784 31.1416 33.0784 31.141 33.0784C30.9212 33.0781 30.7313 33.0249 30.5603 32.9156C30.1503 32.6537 30.0701 32.4464 30.0701 32.177V28.2254C30.0701 27.7339 29.6717 27.3355 29.1803 27.3355Z" fill="#011D63"/>
<path d="M23.2355 27.3355C22.7441 27.3355 22.3457 27.7339 22.3457 28.2253C22.3457 28.7167 22.7441 29.115 23.2355 29.115H23.925V33.9679C23.925 34.4593 24.3234 34.8577 24.8148 34.8577C25.3062 34.8577 25.7046 34.4593 25.7046 33.9679V29.115H26.4069C26.8983 29.115 27.2966 28.7167 27.2966 28.2253C27.2966 27.7339 26.8983 27.3355 26.4069 27.3355H23.2355Z" fill="#011D63"/>
<path d="M40.1697 29.7178C40.1697 28.4043 39.063 27.3356 37.703 27.3356H36.177C36.1766 27.3356 36.1764 27.3356 36.176 27.3356C36.1757 27.3356 36.1755 27.3356 36.1751 27.3356C35.6837 27.3356 35.2853 27.734 35.2853 28.2254V33.9681C35.2853 34.4595 35.6837 34.8578 36.1751 34.8578C36.6665 34.8578 37.0649 34.4595 37.0649 33.9681V32.798L38.6121 34.5559C38.7879 34.7558 39.0335 34.8578 39.2804 34.8578C39.4892 34.8578 39.6988 34.7848 39.8679 34.636C40.2367 34.3113 40.2727 33.7491 39.948 33.3802L38.6577 31.9142C39.5449 31.5531 40.1697 30.7046 40.1697 29.7178ZM37.703 29.115C38.0691 29.115 38.3901 29.3967 38.3901 29.7177C38.3901 30.0387 38.069 30.3204 37.703 30.3204C37.5514 30.3204 37.3146 30.3212 37.0725 30.3223C37.0714 30.089 37.0706 29.8626 37.0706 29.7177C37.0706 29.593 37.0701 29.3603 37.0694 29.115H37.703Z" fill="#011D63"/>
<path d="M17.4789 16.7799V23.515C17.4789 24.0063 17.8773 24.4047 18.3687 24.4047C18.8601 24.4047 19.2585 24.0063 19.2585 23.515V15.8901C19.2585 15.3987 18.8601 15.0004 18.3687 15.0004H16.739C16.2476 15.0004 15.8492 15.3987 15.8492 15.8901C15.8492 16.3815 16.2476 16.7799 16.739 16.7799H17.4789Z" fill="#011D63"/>
<path d="M41.6487 23.5225L44.6829 16.2928C44.8731 15.8397 44.6599 15.3182 44.2068 15.128C43.754 14.938 43.2324 15.151 43.0421 15.6041L40.0079 22.8339C39.8177 23.2869 40.0309 23.8085 40.4839 23.9986C40.5964 24.0458 40.7131 24.0682 40.8279 24.0682C41.1756 24.0683 41.5058 23.8632 41.6487 23.5225Z" fill="#011D63"/>
<path d="M38.3101 19.6171C39.54 19.6171 40.5405 18.5191 40.5405 17.1694C40.5405 15.8197 39.54 14.7217 38.3101 14.7217C37.0802 14.7217 36.0797 15.8197 36.0797 17.1694C36.0797 18.5191 37.0802 19.6171 38.3101 19.6171ZM38.3101 16.5012C38.5234 16.5012 38.761 16.7756 38.761 17.1694C38.761 17.5631 38.5234 17.8375 38.3101 17.8375C38.0969 17.8375 37.8593 17.5631 37.8593 17.1694C37.8593 16.7756 38.0968 16.5012 38.3101 16.5012Z" fill="#011D63"/>
<path d="M46.2787 19.6649C45.0488 19.6649 44.0482 20.7628 44.0482 22.1126C44.0482 23.4623 45.0488 24.5603 46.2787 24.5603C47.5086 24.5603 48.5092 23.4623 48.5092 22.1126C48.5092 20.7628 47.5086 19.6649 46.2787 19.6649ZM46.2787 22.7807C46.0654 22.7807 45.8278 22.5063 45.8278 22.1126C45.8278 21.7188 46.0654 21.4444 46.2787 21.4444C46.492 21.4444 46.7296 21.7188 46.7296 22.1126C46.7296 22.5063 46.492 22.7807 46.2787 22.7807Z" fill="#011D63"/>
<path d="M23.5378 24.5603C25.2442 24.5603 26.6324 23.172 26.6324 21.4656V17.9394C26.6324 16.233 25.2441 14.8448 23.5378 14.8448C21.8315 14.8448 20.4432 16.2331 20.4432 17.9394V21.4656C20.4431 23.172 21.8313 24.5603 23.5378 24.5603ZM22.2226 17.9394C22.2226 17.2142 22.8126 16.6244 23.5377 16.6244C24.2628 16.6244 24.8527 17.2143 24.8527 17.9394V21.4656C24.8527 22.1909 24.2628 22.7807 23.5377 22.7807C22.8126 22.7807 22.2226 22.1907 22.2226 21.4656V17.9394Z" fill="#011D63"/>
<path d="M31.055 24.5603C32.7615 24.5603 34.1496 23.172 34.1496 21.4656V17.9394C34.1496 16.233 32.7614 14.8448 31.055 14.8448C29.3487 14.8448 27.9604 16.2331 27.9604 17.9394V21.4656C27.9603 23.172 29.3486 24.5603 31.055 24.5603ZM29.7398 17.9394C29.7398 17.2142 30.3298 16.6244 31.0549 16.6244C31.78 16.6244 32.37 17.2143 32.37 17.9394V21.4656C32.37 22.1909 31.78 22.7807 31.0549 22.7807C30.3298 22.7807 29.7398 22.1907 29.7398 21.4656V17.9394Z" fill="#011D63"/>
<path d="M37.4485 37.7294C35.7632 37.6175 32.7239 37.7066 30.6886 39.4401C28.6534 37.7066 25.6144 37.6178 23.9286 37.7294C22.8132 37.8034 21.9163 38.7003 21.8422 39.8157C21.7243 41.5936 21.8285 44.8783 23.8516 46.9014C25.544 48.5938 28.1193 48.9434 29.9567 48.9433C30.2382 48.9433 31.2619 48.9445 31.4634 48.9445C34.7652 48.9445 36.5761 47.8507 37.5254 46.9014C39.5485 44.8783 39.6527 41.5936 39.5347 39.8156C39.4609 38.7003 38.5639 37.8034 37.4485 37.7294ZM25.1101 45.6431C24.4548 44.9879 23.3897 43.3748 23.618 39.9335C23.6332 39.7045 23.8174 39.5202 24.0465 39.505C24.3704 39.4836 24.6779 39.4735 24.9701 39.4735C27.7827 39.4735 29.1624 40.4035 29.7561 40.9971C30.4113 41.6523 31.4764 43.2653 31.2482 46.7066C31.233 46.9357 31.0487 47.1199 30.8195 47.1351C27.3783 47.3636 25.7653 46.2983 25.1101 45.6431ZM36.2673 45.6431C35.406 46.5044 34.1559 46.8951 32.9946 47.0587C33.008 46.9817 33.0184 46.9039 33.0238 46.8244C33.1228 45.3304 33.0647 42.7727 31.8434 40.7935C32.6116 40.1448 34.2282 39.2988 37.3308 39.505C37.5599 39.5202 37.7442 39.7045 37.7594 39.9335C37.9876 43.3748 36.9225 44.9879 36.2673 45.6431Z" stroke="white" stroke-width="0.4" mask="url(#path-2-inside-1_383_1375)"/>
<path d="M44.9925 27.9918C44.9894 27.9837 44.9862 27.9757 44.9828 27.9676C44.8249 27.5836 44.4548 27.3356 44.0396 27.3356C44.0392 27.3356 44.039 27.3356 44.0386 27.3356C43.623 27.336 43.2528 27.5848 43.0955 27.9694C43.0927 27.9761 43.09 27.9829 43.0875 27.9897L40.9312 33.6515C40.7563 34.1108 40.9867 34.6248 41.446 34.7997C41.9053 34.9746 42.4192 34.7441 42.5941 34.2849L42.7774 33.8039H45.2836L45.4642 34.2824C45.5987 34.6388 45.9372 34.8583 46.2969 34.8583C46.4011 34.8583 46.5074 34.8398 46.6108 34.8008C47.0705 34.6273 47.3026 34.1139 47.1291 33.6542L44.9925 27.9918ZM43.4553 32.0241L44.0364 30.4983L44.6121 32.0241H43.4553Z" stroke="white" stroke-width="0.4" mask="url(#path-2-inside-1_383_1375)"/>
<path d="M22.1781 34.8005C22.6378 34.6271 22.87 34.1136 22.6964 33.6539L20.5597 27.9918C20.5566 27.9837 20.5534 27.9757 20.5501 27.9676C20.3922 27.5836 20.022 27.3356 19.6068 27.3356C19.6064 27.3356 19.606 27.3356 19.6056 27.3356C19.19 27.3361 18.8198 27.585 18.6626 27.9697C18.66 27.9764 18.6574 27.9829 18.6547 27.9895L16.4983 33.6514C16.3234 34.1107 16.5538 34.6247 17.0131 34.7996C17.4722 34.9745 17.9864 34.7439 18.1612 34.2848L18.3445 33.8038H20.8507L21.0313 34.2823C21.1658 34.6387 21.5043 34.8582 21.864 34.8582C21.9685 34.8581 22.0748 34.8396 22.1781 34.8005ZM19.0225 32.0241L19.6036 30.4984L20.1793 32.0241H19.0225Z" stroke="white" stroke-width="0.4" mask="url(#path-2-inside-1_383_1375)"/>
<path d="M14.4819 27.3355C13.9905 27.3402 13.596 27.7424 13.6007 28.2338L13.6291 31.1725L11.252 27.7303C11.0307 27.4099 10.6267 27.2707 10.2551 27.3865C9.8833 27.5024 9.63013 27.8466 9.63013 28.2359V33.9679C9.63013 34.4593 10.0285 34.8577 10.5199 34.8577C11.0113 34.8577 11.4097 34.4593 11.4097 33.9679V31.0902L13.6637 34.3543C13.9186 34.7222 14.346 34.8778 14.7528 34.7506C15.1665 34.6213 15.4339 34.2382 15.4338 33.7658L15.3802 28.2166C15.3754 27.7253 14.9687 27.329 14.4819 27.3355Z" stroke="white" stroke-width="0.4" mask="url(#path-2-inside-1_383_1375)"/>
<path d="M50.8524 33.0734C50.4735 33.0756 50.0747 33.0771 49.7362 33.0778V28.2253C49.7362 27.7339 49.3378 27.3355 48.8465 27.3355C48.3551 27.3355 47.9567 27.7339 47.9567 28.2253V33.9632C47.9567 34.3967 48.2691 34.7671 48.6963 34.8402C48.7596 34.8511 48.8015 34.8582 49.4513 34.8582C49.7609 34.8582 50.2085 34.8565 50.8623 34.853C51.3537 34.8502 51.7498 34.4496 51.7471 33.9582C51.7444 33.4668 51.3472 33.0698 50.8524 33.0734Z" stroke="white" stroke-width="0.4" mask="url(#path-2-inside-1_383_1375)"/>
<path d="M29.1803 27.3355C28.6889 27.3355 28.2906 27.7339 28.2906 28.2253V32.1769C28.2906 33.1059 28.7319 33.8589 29.6022 34.4151C30.0607 34.7081 30.5776 34.857 31.1387 34.8578H31.143C31.6247 34.8578 32.0773 34.7528 32.4887 34.5457C33.5024 34.0353 34.0605 33.1925 34.0605 32.1729V28.2254C34.0605 27.734 33.6622 27.3356 33.1708 27.3356C32.6794 27.3356 32.281 27.734 32.281 28.2254V32.1729C32.281 32.4127 32.2105 32.6933 31.6883 32.9563C31.5252 33.0384 31.3469 33.0784 31.143 33.0784C31.1423 33.0784 31.1416 33.0784 31.141 33.0784C30.9212 33.0781 30.7313 33.0249 30.5603 32.9156C30.1503 32.6537 30.0701 32.4464 30.0701 32.177V28.2254C30.0701 27.7339 29.6717 27.3355 29.1803 27.3355Z" stroke="white" stroke-width="0.4" mask="url(#path-2-inside-1_383_1375)"/>
<path d="M23.2355 27.3355C22.7441 27.3355 22.3457 27.7339 22.3457 28.2253C22.3457 28.7167 22.7441 29.115 23.2355 29.115H23.925V33.9679C23.925 34.4593 24.3234 34.8577 24.8148 34.8577C25.3062 34.8577 25.7046 34.4593 25.7046 33.9679V29.115H26.4069C26.8983 29.115 27.2966 28.7167 27.2966 28.2253C27.2966 27.7339 26.8983 27.3355 26.4069 27.3355H23.2355Z" stroke="white" stroke-width="0.4" mask="url(#path-2-inside-1_383_1375)"/>
<path d="M40.1697 29.7178C40.1697 28.4043 39.063 27.3356 37.703 27.3356H36.177C36.1766 27.3356 36.1764 27.3356 36.176 27.3356C36.1757 27.3356 36.1755 27.3356 36.1751 27.3356C35.6837 27.3356 35.2853 27.734 35.2853 28.2254V33.9681C35.2853 34.4595 35.6837 34.8578 36.1751 34.8578C36.6665 34.8578 37.0649 34.4595 37.0649 33.9681V32.798L38.6121 34.5559C38.7879 34.7558 39.0335 34.8578 39.2804 34.8578C39.4892 34.8578 39.6988 34.7848 39.8679 34.636C40.2367 34.3113 40.2727 33.7491 39.948 33.3802L38.6577 31.9142C39.5449 31.5531 40.1697 30.7046 40.1697 29.7178ZM37.703 29.115C38.0691 29.115 38.3901 29.3967 38.3901 29.7177C38.3901 30.0387 38.069 30.3204 37.703 30.3204C37.5514 30.3204 37.3146 30.3212 37.0725 30.3223C37.0714 30.089 37.0706 29.8626 37.0706 29.7177C37.0706 29.593 37.0701 29.3603 37.0694 29.115H37.703Z" stroke="white" stroke-width="0.4" mask="url(#path-2-inside-1_383_1375)"/>
<path d="M17.4789 16.7799V23.515C17.4789 24.0063 17.8773 24.4047 18.3687 24.4047C18.8601 24.4047 19.2585 24.0063 19.2585 23.515V15.8901C19.2585 15.3987 18.8601 15.0004 18.3687 15.0004H16.739C16.2476 15.0004 15.8492 15.3987 15.8492 15.8901C15.8492 16.3815 16.2476 16.7799 16.739 16.7799H17.4789Z" stroke="white" stroke-width="0.4" mask="url(#path-2-inside-1_383_1375)"/>
<path d="M41.6487 23.5225L44.6829 16.2928C44.8731 15.8397 44.6599 15.3182 44.2068 15.128C43.754 14.938 43.2324 15.151 43.0421 15.6041L40.0079 22.8339C39.8177 23.2869 40.0309 23.8085 40.4839 23.9986C40.5964 24.0458 40.7131 24.0682 40.8279 24.0682C41.1756 24.0683 41.5058 23.8632 41.6487 23.5225Z" stroke="white" stroke-width="0.4" mask="url(#path-2-inside-1_383_1375)"/>
<path d="M38.3101 19.6171C39.54 19.6171 40.5405 18.5191 40.5405 17.1694C40.5405 15.8197 39.54 14.7217 38.3101 14.7217C37.0802 14.7217 36.0797 15.8197 36.0797 17.1694C36.0797 18.5191 37.0802 19.6171 38.3101 19.6171ZM38.3101 16.5012C38.5234 16.5012 38.761 16.7756 38.761 17.1694C38.761 17.5631 38.5234 17.8375 38.3101 17.8375C38.0969 17.8375 37.8593 17.5631 37.8593 17.1694C37.8593 16.7756 38.0968 16.5012 38.3101 16.5012Z" stroke="white" stroke-width="0.4" mask="url(#path-2-inside-1_383_1375)"/>
<path d="M46.2787 19.6649C45.0488 19.6649 44.0482 20.7628 44.0482 22.1126C44.0482 23.4623 45.0488 24.5603 46.2787 24.5603C47.5086 24.5603 48.5092 23.4623 48.5092 22.1126C48.5092 20.7628 47.5086 19.6649 46.2787 19.6649ZM46.2787 22.7807C46.0654 22.7807 45.8278 22.5063 45.8278 22.1126C45.8278 21.7188 46.0654 21.4444 46.2787 21.4444C46.492 21.4444 46.7296 21.7188 46.7296 22.1126C46.7296 22.5063 46.492 22.7807 46.2787 22.7807Z" stroke="white" stroke-width="0.4" mask="url(#path-2-inside-1_383_1375)"/>
<path d="M23.5378 24.5603C25.2442 24.5603 26.6324 23.172 26.6324 21.4656V17.9394C26.6324 16.233 25.2441 14.8448 23.5378 14.8448C21.8315 14.8448 20.4432 16.2331 20.4432 17.9394V21.4656C20.4431 23.172 21.8313 24.5603 23.5378 24.5603ZM22.2226 17.9394C22.2226 17.2142 22.8126 16.6244 23.5377 16.6244C24.2628 16.6244 24.8527 17.2143 24.8527 17.9394V21.4656C24.8527 22.1909 24.2628 22.7807 23.5377 22.7807C22.8126 22.7807 22.2226 22.1907 22.2226 21.4656V17.9394Z" stroke="white" stroke-width="0.4" mask="url(#path-2-inside-1_383_1375)"/>
<path d="M31.055 24.5603C32.7615 24.5603 34.1496 23.172 34.1496 21.4656V17.9394C34.1496 16.233 32.7614 14.8448 31.055 14.8448C29.3487 14.8448 27.9604 16.2331 27.9604 17.9394V21.4656C27.9603 23.172 29.3486 24.5603 31.055 24.5603ZM29.7398 17.9394C29.7398 17.2142 30.3298 16.6244 31.0549 16.6244C31.78 16.6244 32.37 17.2143 32.37 17.9394V21.4656C32.37 22.1909 31.78 22.7807 31.0549 22.7807C30.3298 22.7807 29.7398 22.1907 29.7398 21.4656V17.9394Z" stroke="white" stroke-width="0.4" mask="url(#path-2-inside-1_383_1375)"/>
</g>
<defs>
<clipPath id="clip0_383_1375">
<rect width="42.2343" height="34.2857" fill="white" transform="translate(9.57153 14.7142)"/>
</clipPath>
</defs>
</svg>
