<svg width="68" height="68" viewBox="0 0 68 68" fill="none" xmlns="http://www.w3.org/2000/svg">
<path d="M28.0862 26.2173C32.8155 26.9017 35.7724 25.0328 36.9394 24.3046C37.6676 23.8483 38.6328 24.0852 39.0803 24.8222C39.791 25.9717 41.0983 27.3755 43.2919 27.3755M49.3724 48.2406C49.3724 48.2406 41.2826 46.3015 39.7734 44.573C38.9487 43.6341 39.5804 39.791 39.5804 39.791C40.9053 38.6328 41.9056 37.0798 42.3443 35.2372C42.7391 33.5964 43.3709 30.2798 43.5727 28.5951C43.8008 26.6648 43.6692 25.8488 43.4849 24.4801C42.9409 20.4439 38.7995 17.3993 33.8421 17.3993C28.8934 17.3993 24.7432 20.4439 24.1992 24.4801C24.015 25.8488 23.8834 26.6648 24.1115 28.5951C24.3045 30.271 24.945 33.5964 25.3311 35.2372C25.7698 37.0798 26.7701 38.6241 28.0862 39.7822C28.0862 39.7822 28.7179 43.6341 27.9107 44.573C26.463 46.2576 18.6276 48.2406 18.6276 48.2406M61.2 34C61.2 49.0222 49.0221 61.2001 34 61.2001C18.9779 61.2001 6.8 49.0222 6.8 34C6.8 18.9779 18.9779 6.80005 34 6.80005C49.0221 6.80005 61.2 18.9779 61.2 34Z" stroke="white" stroke-width="1.81768" stroke-miterlimit="10" stroke-linecap="round" stroke-linejoin="round"/>
</svg>
