<svg width="40" height="46" viewBox="0 0 40 46" fill="none" xmlns="http://www.w3.org/2000/svg">
<path d="M38.8949 0.519217C38.7612 0.325479 38.4396 0 37.7964 0H14.1565C11.9633 0 9.04758 0.404914 9.04758 3.91158V7.04626H7.87934C3.52798 7.04626 0 10.5742 0 14.9256V41.6247C0 45.0926 3.11144 45.0926 4.13438 45.0926H10.8416V29.4831C10.8416 27.9235 11.1865 26.5247 15.3557 26.5247H27.4198C28.4098 26.5247 29.0491 26.1334 29.4327 25.2906L31.7188 19.6489C31.9475 19.0367 31.7557 18.6183 31.62 18.4245C31.4864 18.2308 31.1648 17.9072 30.5235 17.9072H10.8416V12.6724H9.04758V19.7013H29.7621L27.7918 24.5641C27.722 24.7171 27.7046 24.7307 27.4179 24.7307H15.3538C12.4167 24.7307 9.04564 25.2712 9.04564 29.4831V43.2986H4.13438C1.96257 43.2986 1.79402 42.605 1.79402 41.6247V15.3325C1.79402 11.7464 4.70009 8.84028 8.28619 8.84028H34.6036C35.5956 8.84028 36.2349 8.44893 36.6185 7.60616L38.9918 1.74558C39.2204 1.13337 39.0286 0.714893 38.8949 0.519217ZM34.9756 6.87965C34.9058 7.0327 34.8903 7.04626 34.6017 7.04626H10.8416V3.91158C10.8416 2.75302 11.0915 1.79401 14.1565 1.79401H37.035L34.9756 6.87965Z" fill="#ED145B"/>
</svg>
