<svg width="270" height="82" viewBox="0 0 270 82" fill="none" xmlns="http://www.w3.org/2000/svg">
<path d="M70.0108 0.934591C69.7702 0.585862 69.1913 0 68.0335 0H25.4816C21.534 0 16.2856 0.728844 16.2856 7.04084V12.6833H14.1828C6.35036 12.6833 0 19.0336 0 26.8661V74.9244C0 81.1667 5.60059 81.1667 7.44188 81.1667H19.5149V53.0696C19.5149 50.2623 20.1356 47.7445 27.6403 47.7445H49.3556C51.1376 47.7445 52.2884 47.0401 52.9789 45.5231L57.0939 35.3681C57.5054 34.2661 57.1602 33.5129 56.9161 33.1641C56.6754 32.8154 56.0966 32.233 54.9423 32.233H19.5149V22.8104H16.2856V35.4623H53.5718L50.0252 44.2153C49.8996 44.4908 49.8683 44.5153 49.3521 44.5153H27.6368C22.35 44.5153 16.2822 45.4882 16.2822 53.0696V77.9374H7.44188C3.53263 77.9374 3.22923 76.689 3.22923 74.9244V27.5984C3.22923 21.1434 8.46017 15.9125 14.9151 15.9125H62.2865C64.072 15.9125 65.2228 15.2081 65.9133 13.6911L70.1852 3.14204C70.5967 2.04006 70.2515 1.28681 70.0108 0.934591ZM62.9561 12.3834C62.8305 12.6589 62.8026 12.6833 62.283 12.6833H19.5149V7.04084C19.5149 4.95544 19.9647 3.22922 25.4816 3.22922H66.663L62.9561 12.3834Z" fill="#ED145B"/>
<path d="M192.38 29.105H163.038C162.34 29.105 161.713 29.5269 161.451 30.1721L160.583 32.3168H174.075V60.3651C174.075 60.93 174.075 61.2125 175.453 61.2125H178.884V32.3168H189.921C190.619 32.3168 191.246 31.8948 191.508 31.2497L192.38 29.105Z" fill="white"/>
<path d="M268.221 59.106C269.815 57.3588 270 55.0014 270 53.3764C270 50.7434 269.226 48.7871 267.702 47.5595L267.698 47.5561C266.649 46.7087 265.024 46.0251 262.262 45.2684L247.671 41.3591C244.672 40.585 243.27 39.0994 243.27 36.6932C243.27 36.1317 243.27 34.4194 244.679 33.3663C245.864 32.4003 247.483 32.4003 248.354 32.4003H263.855C264.41 32.4003 264.933 32.1318 265.254 31.6749L267.071 29.1013H245.781C243.172 29.1013 241.191 29.6558 239.72 30.7961C237.77 32.348 237.498 34.4055 237.498 36.3932C237.498 38.0916 237.683 40.5361 239.287 42.1787C240.888 43.8212 243.479 44.4105 243.507 44.4175L243.64 44.4489L259.434 48.658C262.583 49.4845 263.988 50.9248 263.988 53.3275C263.988 57.3205 261.08 57.9168 259.35 57.9168H242.042C241.488 57.9168 240.965 58.1853 240.647 58.6387L238.831 61.2123H261.728C264.12 61.2123 266.426 61.0519 268.221 59.106Z" fill="white"/>
<path d="M129.78 58.0005V48.7836C129.78 47.4724 130.84 46.4122 132.151 46.4122H143.68C144.37 46.4122 144.995 45.9938 145.253 45.3521L146.055 43.3748H129.78V32.3166H149.396C150.093 32.3166 150.721 31.8946 150.982 31.246L151.851 29.1013H127.122C124.967 29.1013 124.967 29.6593 124.967 30.3009V60.3614C124.967 60.9263 124.967 61.2088 126.345 61.2088H149.392C150.089 61.2088 150.717 60.7868 150.979 60.1382L151.847 57.9935H129.78V58.0005Z" fill="white"/>
<path d="M91.3461 29.1052C89.191 29.1052 89.191 29.6632 89.191 30.3049V60.3653C89.191 60.9302 89.191 61.2127 90.5719 61.2127H93.9999V48.784C93.9999 47.4728 95.0601 46.4126 96.3713 46.4126H107.907C108.594 46.4126 109.215 45.9942 109.473 45.3595L110.275 43.3752H93.9999V32.317H113.633C114.32 32.317 114.941 31.8985 115.199 31.2639L116.074 29.1052H91.3461Z" fill="white"/>
<path d="M206.2 58.0005V48.7836C206.2 47.4724 207.26 46.4122 208.571 46.4122H220.097C220.791 46.4122 221.419 45.9903 221.677 45.3486L222.475 43.3748H206.2V32.3166H225.827C226.517 32.3166 227.141 31.8981 227.399 31.2565L228.271 29.1013H203.543C201.388 29.1013 201.388 29.6593 201.388 30.3009V60.3614C201.388 60.9263 201.388 61.2088 202.765 61.2088H225.813C226.51 61.2088 227.138 60.7868 227.399 60.1382L228.268 57.9935H206.2V58.0005Z" fill="white"/>
</svg>
