<svg width="142" height="49" viewBox="0 0 142 49" fill="none" xmlns="http://www.w3.org/2000/svg">
<path d="M7.67847 3.82901C7.74572 3.86857 7.79517 3.92 7.82682 3.98329C7.85847 4.04659 7.85253 4.12175 7.80902 4.20878L6.80619 5.63292C6.76267 5.70017 6.7152 5.73973 6.66378 5.7516C6.6163 5.75951 6.55696 5.74171 6.48576 5.69819C6.29192 5.55182 6.0783 5.43908 5.8449 5.35996C5.6115 5.28084 5.36425 5.24128 5.10316 5.24128C4.77877 5.24128 4.4801 5.3026 4.20714 5.42523C3.93418 5.54787 3.6988 5.71599 3.501 5.92962C3.30321 6.14324 3.14893 6.39246 3.03816 6.67729C2.92739 6.96211 2.87201 7.26672 2.87201 7.59111C2.87201 7.9155 2.92739 8.2201 3.03816 8.50493C3.14893 8.7858 3.30321 9.03305 3.501 9.24667C3.6988 9.45633 3.93418 9.62248 4.20714 9.74512C4.4801 9.86775 4.77877 9.92907 5.10316 9.92907C5.36425 9.92907 5.61347 9.88951 5.85083 9.81039C6.08819 9.72731 6.30378 9.61259 6.49763 9.46622C6.56883 9.42271 6.62817 9.40491 6.67564 9.41282C6.72311 9.42073 6.77059 9.45633 6.81806 9.51963L7.83275 10.9794C7.87627 11.0664 7.8822 11.1396 7.85056 11.1989C7.81891 11.2583 7.76946 11.3077 7.70221 11.3473C7.33035 11.5965 6.92882 11.7903 6.49763 11.9288C6.07038 12.0633 5.61941 12.1305 5.1447 12.1305C4.72537 12.1305 4.32186 12.0771 3.93418 11.9703C3.55045 11.8635 3.19046 11.7112 2.85421 11.5134C2.51795 11.3156 2.21137 11.0802 1.93445 10.8073C1.66149 10.5304 1.42612 10.2258 1.22832 9.89346C1.03052 9.55721 0.878218 9.19722 0.771408 8.81349C0.664597 8.42581 0.611192 8.02231 0.611192 7.60298C0.611192 7.18365 0.664597 6.78212 0.771408 6.39839C0.878218 6.01071 1.03052 5.64874 1.22832 5.31249C1.42612 4.97228 1.66149 4.66372 1.93445 4.3868C2.21137 4.10988 2.51795 3.87451 2.85421 3.68067C3.19046 3.48287 3.55045 3.33057 3.93418 3.22375C4.32186 3.11299 4.72537 3.05761 5.1447 3.05761C5.61941 3.05761 6.06643 3.12486 6.48576 3.25936C6.90904 3.3899 7.30661 3.57979 7.67847 3.82901ZM11.5842 8.48119C11.5842 8.77393 11.6237 9.02316 11.7029 9.22887C11.7859 9.43062 11.8928 9.59677 12.0233 9.72731C12.1578 9.8539 12.3121 9.94687 12.4861 10.0062C12.6642 10.0655 12.8481 10.0952 13.038 10.0952C13.2358 10.0952 13.4217 10.0616 13.5958 9.99434C13.7738 9.92313 13.9281 9.82028 14.0586 9.68578C14.1931 9.54732 14.298 9.37721 14.3731 9.17546C14.4522 8.97371 14.4918 8.74229 14.4918 8.48119V3.44924C14.4918 3.37804 14.5155 3.31672 14.563 3.26529C14.6144 3.21386 14.6817 3.18815 14.7648 3.18815H16.4975C16.5884 3.18815 16.6597 3.21584 16.7111 3.27123C16.7625 3.32265 16.7882 3.38199 16.7882 3.44924V8.45152C16.7882 9.14381 16.6854 9.72534 16.4797 10.1961C16.2779 10.6668 16.0049 11.0466 15.6608 11.3354C15.3166 11.6202 14.9171 11.8259 14.4621 11.9525C14.0112 12.0752 13.5364 12.1365 13.038 12.1365C12.5395 12.1365 12.0629 12.0732 11.6079 11.9466C11.153 11.816 10.7534 11.6064 10.4093 11.3176C10.0651 11.0249 9.79017 10.6451 9.58446 10.1783C9.38271 9.70753 9.28183 9.13195 9.28183 8.45152V3.44924C9.28183 3.38199 9.30359 3.32265 9.34711 3.27123C9.39458 3.21584 9.45194 3.18815 9.51919 3.18815H11.2994C11.3587 3.18815 11.42 3.21386 11.4833 3.26529C11.5506 3.31276 11.5842 3.37408 11.5842 3.44924V8.48119ZM18.5137 3.46111C18.5137 3.37804 18.5354 3.31276 18.579 3.26529C18.6264 3.21386 18.6917 3.18815 18.7748 3.18815H24.6671C24.7542 3.18815 24.8214 3.21386 24.8689 3.26529C24.9164 3.31672 24.9401 3.38595 24.9401 3.47298V4.94459C24.9401 5.01184 24.9164 5.07711 24.8689 5.14041C24.8214 5.19975 24.7522 5.22941 24.6612 5.22941H20.816V6.69509H23.783C23.8582 6.69509 23.9195 6.71289 23.9669 6.74849C24.0184 6.7841 24.0441 6.84344 24.0441 6.92651V8.20823C24.0441 8.26362 24.0223 8.31702 23.9788 8.36845C23.9353 8.41988 23.872 8.44559 23.7889 8.44559H20.816V9.95874H24.8036C24.9816 9.95874 25.0707 10.0497 25.0707 10.2317V11.727C25.0707 11.7666 25.0548 11.8022 25.0232 11.8339C25.0074 11.9446 24.9263 12 24.7799 12H18.7748C18.6957 12 18.6324 11.9802 18.5849 11.9407C18.5374 11.8971 18.5137 11.8319 18.5137 11.7448V3.46111ZM33.2453 3.82901C33.3125 3.86857 33.362 3.92 33.3936 3.98329C33.4253 4.04659 33.4193 4.12175 33.3758 4.20878L32.373 5.63292C32.3295 5.70017 32.282 5.73973 32.2306 5.7516C32.1831 5.75951 32.1237 5.74171 32.0525 5.69819C31.8587 5.55182 31.6451 5.43908 31.4117 5.35996C31.1783 5.28084 30.931 5.24128 30.6699 5.24128C30.3456 5.24128 30.0469 5.3026 29.7739 5.42523C29.501 5.54787 29.2656 5.71599 29.0678 5.92962C28.87 6.14324 28.7157 6.39246 28.6049 6.67729C28.4942 6.96211 28.4388 7.26672 28.4388 7.59111C28.4388 7.9155 28.4942 8.2201 28.6049 8.50493C28.7157 8.7858 28.87 9.03305 29.0678 9.24667C29.2656 9.45633 29.501 9.62248 29.7739 9.74512C30.0469 9.86775 30.3456 9.92907 30.6699 9.92907C30.931 9.92907 31.1803 9.88951 31.4176 9.81039C31.655 9.72731 31.8706 9.61259 32.0644 9.46622C32.1356 9.42271 32.195 9.40491 32.2424 9.41282C32.2899 9.42073 32.3374 9.45633 32.3848 9.51963L33.3995 10.9794C33.4431 11.0664 33.449 11.1396 33.4173 11.1989C33.3857 11.2583 33.3362 11.3077 33.269 11.3473C32.8971 11.5965 32.4956 11.7903 32.0644 11.9288C31.6372 12.0633 31.1862 12.1305 30.7115 12.1305C30.2922 12.1305 29.8886 12.0771 29.501 11.9703C29.1172 11.8635 28.7572 11.7112 28.421 11.5134C28.0847 11.3156 27.7782 11.0802 27.5012 10.8073C27.2283 10.5304 26.9929 10.2258 26.7951 9.89346C26.5973 9.55721 26.445 9.19722 26.3382 8.81349C26.2314 8.42581 26.178 8.02231 26.178 7.60298C26.178 7.18365 26.2314 6.78212 26.3382 6.39839C26.445 6.01071 26.5973 5.64874 26.7951 5.31249C26.9929 4.97228 27.2283 4.66372 27.5012 4.3868C27.7782 4.10988 28.0847 3.87451 28.421 3.68067C28.7572 3.48287 29.1172 3.33057 29.501 3.22375C29.8886 3.11299 30.2922 3.05761 30.7115 3.05761C31.1862 3.05761 31.6332 3.12486 32.0525 3.25936C32.4758 3.3899 32.8734 3.57979 33.2453 3.82901ZM37.4002 3.41957C37.4042 3.39584 37.416 3.37012 37.4358 3.34243C37.4595 3.31474 37.4872 3.28903 37.5189 3.26529C37.5505 3.24156 37.5841 3.22375 37.6198 3.21189C37.6554 3.19606 37.689 3.18815 37.7206 3.18815H39.2397C39.307 3.18815 39.3643 3.20991 39.4118 3.25342C39.4593 3.29298 39.4949 3.32859 39.5186 3.36023L39.6669 3.69847L42.7822 11.733C42.8139 11.8121 42.808 11.8774 42.7644 11.9288C42.7209 11.9763 42.6458 12 42.539 12H40.8359C40.7449 12 40.6737 11.9842 40.6223 11.9525C40.5748 11.9169 40.5373 11.8596 40.5096 11.7804C40.4304 11.5787 40.3533 11.3789 40.2781 11.1811C40.203 10.9794 40.1278 10.7776 40.0527 10.5759H36.9017C36.8266 10.7776 36.7494 10.9794 36.6703 11.1811C36.5952 11.3789 36.52 11.5787 36.4448 11.7804C36.3934 11.9268 36.2925 12 36.1422 12H34.3917C34.3165 12 34.2532 11.9802 34.2018 11.9407C34.1544 11.9011 34.1464 11.8418 34.1781 11.7626L37.4002 3.41957ZM38.4802 5.95929C38.405 6.16104 38.3279 6.37861 38.2487 6.61201C38.1736 6.84541 38.0984 7.08079 38.0233 7.31815C37.9481 7.55551 37.871 7.79088 37.7918 8.02428C37.7167 8.25373 37.6415 8.46933 37.5663 8.67108H39.3881L38.4802 5.95929ZM44.6802 9.15766C44.7474 9.21304 44.8325 9.28821 44.9353 9.38315C45.0421 9.47413 45.1628 9.56512 45.2973 9.65611C45.4991 9.79061 45.6988 9.89544 45.8966 9.9706C46.0944 10.0458 46.3021 10.0833 46.5197 10.0833C46.7214 10.0833 46.8896 10.0616 47.0241 10.0181C47.1625 9.9706 47.2713 9.90929 47.3504 9.83412C47.4295 9.75896 47.4849 9.67193 47.5166 9.57303C47.5522 9.47413 47.57 9.3693 47.57 9.25854C47.57 9.1359 47.5225 9.02711 47.4276 8.93217C47.3366 8.83327 47.2238 8.74624 47.0893 8.67108C46.9548 8.59592 46.8144 8.53262 46.668 8.48119C46.5217 8.42581 46.3951 8.38032 46.2883 8.34471C45.8135 8.17857 45.3982 8.00055 45.0421 7.81066C44.6861 7.61682 44.3894 7.4032 44.1521 7.1698C43.9147 6.93245 43.7367 6.67333 43.618 6.39246C43.4993 6.10763 43.44 5.79116 43.44 5.44304C43.44 5.07513 43.5132 4.74086 43.6595 4.44021C43.8099 4.13955 44.0215 3.88242 44.2945 3.6688C44.5714 3.45518 44.9037 3.29101 45.2914 3.17628C45.679 3.05761 46.1122 2.99827 46.5909 2.99827C46.9509 2.99827 47.295 3.0398 47.6234 3.12288C47.9557 3.202 48.2821 3.33056 48.6025 3.50858C48.737 3.5877 48.8636 3.67078 48.9823 3.75781C49.1049 3.84088 49.2117 3.92198 49.3027 4.0011C49.3937 4.08021 49.4649 4.15538 49.5163 4.22658C49.5717 4.29779 49.5994 4.35911 49.5994 4.41054C49.5994 4.46196 49.5855 4.50943 49.5578 4.55295C49.5341 4.59646 49.4965 4.64591 49.4451 4.7013L48.5372 5.66852C48.47 5.73577 48.4027 5.7694 48.3355 5.7694C48.2801 5.7694 48.2286 5.75358 48.1812 5.72193C48.1377 5.69028 48.0882 5.65072 48.0328 5.60325L47.9794 5.55578C47.9003 5.48853 47.8113 5.4193 47.7124 5.34809C47.6175 5.27689 47.5146 5.21359 47.4038 5.15821C47.2931 5.09887 47.1764 5.0514 47.0537 5.01579C46.9311 4.97623 46.8065 4.95645 46.6799 4.95645C46.5494 4.95645 46.4267 4.96832 46.312 4.99206C46.1973 5.01184 46.0964 5.04546 46.0094 5.09293C45.9223 5.14041 45.8531 5.2037 45.8017 5.28282C45.7503 5.35798 45.7245 5.45095 45.7245 5.56171C45.7245 5.67248 45.7522 5.7694 45.8076 5.85247C45.863 5.93159 45.9461 6.00676 46.0568 6.07796C46.1676 6.14521 46.3041 6.21049 46.4663 6.27378C46.6324 6.33312 46.8243 6.39839 47.0419 6.4696C47.4612 6.60806 47.8469 6.75443 48.199 6.90871C48.555 7.05904 48.8616 7.23903 49.1187 7.4487C49.3759 7.6544 49.5756 7.90165 49.7181 8.19043C49.8644 8.47922 49.9376 8.82932 49.9376 9.24073C49.9376 9.67589 49.8486 10.0715 49.6706 10.4275C49.4926 10.7796 49.2473 11.0802 48.9348 11.3295C48.6262 11.5787 48.2623 11.7725 47.8429 11.911C47.4236 12.0455 46.9726 12.1127 46.49 12.1127C46.0351 12.1127 45.5881 12.0316 45.149 11.8695C44.7098 11.7073 44.3004 11.4897 43.9206 11.2167C43.7624 11.102 43.6279 10.9893 43.5171 10.8785C43.4103 10.7677 43.3253 10.6787 43.262 10.6115L43.2442 10.5937C43.2402 10.5858 43.2363 10.5818 43.2323 10.5818C43.2283 10.5778 43.2244 10.5739 43.2204 10.5699C43.2165 10.562 43.2125 10.5581 43.2086 10.5581C43.2046 10.5541 43.2007 10.5501 43.1967 10.5462C43.1057 10.4473 43.0602 10.3682 43.0602 10.3088C43.0602 10.2416 43.1057 10.1664 43.1967 10.0833L44.2233 9.10425C44.3063 9.04492 44.3736 9.01525 44.425 9.01525C44.4606 9.01525 44.4982 9.02711 44.5378 9.05085C44.5773 9.07458 44.6248 9.11019 44.6802 9.15766ZM62.7101 7.60298C62.7101 8.02231 62.6567 8.42186 62.5498 8.80163C62.443 9.17744 62.2907 9.52952 62.0929 9.85786C61.8951 10.1822 61.6578 10.477 61.3809 10.742C61.1079 11.0071 60.8033 11.2325 60.467 11.4185C60.1347 11.6044 59.7748 11.7488 59.3871 11.8517C58.9994 11.9506 58.5979 12 58.1825 12H55.2571C55.1859 12 55.1226 11.9842 55.0672 11.9525C55.0118 11.9209 54.9841 11.8536 54.9841 11.7508V3.46111C54.9841 3.37804 55.0059 3.31079 55.0494 3.25936C55.0969 3.20793 55.1661 3.18222 55.2571 3.18222H58.1825C58.5979 3.18222 58.9974 3.23364 59.3811 3.3365C59.7688 3.43935 60.1288 3.58572 60.4611 3.77561C60.7974 3.96549 61.104 4.19296 61.3809 4.45801C61.6578 4.72305 61.8932 5.01975 62.087 5.34809C62.2848 5.67644 62.4371 6.03049 62.5439 6.41026C62.6547 6.79003 62.7101 7.1876 62.7101 7.60298ZM57.2805 5.31249V9.87566H57.779C57.87 9.87566 57.959 9.87368 58.046 9.86973C58.133 9.86182 58.2201 9.8539 58.3071 9.84599C58.6038 9.82226 58.8807 9.75105 59.1379 9.63237C59.395 9.50974 59.6185 9.3515 59.8084 9.15766C60.0022 8.95986 60.1526 8.72844 60.2594 8.46339C60.3701 8.19834 60.4255 7.90956 60.4255 7.59704C60.4255 7.26474 60.3622 6.96014 60.2356 6.68322C60.113 6.40235 59.9449 6.16104 59.7312 5.95929C59.5176 5.75358 59.2664 5.59534 58.9776 5.48457C58.6928 5.36985 58.3882 5.31249 58.0638 5.31249H57.2805ZM64.2581 3.46111C64.2581 3.37804 64.2798 3.31276 64.3233 3.26529C64.3708 3.21386 64.4361 3.18815 64.5192 3.18815H70.4115C70.4986 3.18815 70.5658 3.21386 70.6133 3.26529C70.6608 3.31672 70.6845 3.38595 70.6845 3.47298V4.94459C70.6845 5.01184 70.6608 5.07711 70.6133 5.14041C70.5658 5.19975 70.4966 5.22941 70.4056 5.22941H66.5604V6.69509H69.5274C69.6025 6.69509 69.6639 6.71289 69.7113 6.74849C69.7628 6.7841 69.7885 6.84344 69.7885 6.92651V8.20823C69.7885 8.26362 69.7667 8.31702 69.7232 8.36845C69.6797 8.41988 69.6164 8.44559 69.5333 8.44559H66.5604V9.95874H70.548C70.726 9.95874 70.815 10.0497 70.815 10.2317V11.727C70.815 11.7666 70.7992 11.8022 70.7676 11.8339C70.7517 11.9446 70.6706 12 70.5243 12H64.5192C64.44 12 64.3767 11.9802 64.3293 11.9407C64.2818 11.8971 64.2581 11.8319 64.2581 11.7448V3.46111Z" fill="#011D63"/>
<path d="M0.972067 16.9232C1.1551 16.9579 1.30598 16.9752 1.42471 16.9752H3.03493C3.10913 16.9752 3.17591 16.9579 3.23528 16.9232C3.6706 16.9232 3.88827 17.0741 3.88827 17.3759L4.83807 19.832H5.29071V19.9879H4.9939C4.92464 19.9977 4.89002 20.0299 4.89002 20.0843C4.89002 20.1437 5.0409 20.1956 5.34266 20.2401L5.3946 20.3366V20.5889H5.19425C5.46138 21.415 6.06243 22.9535 6.9974 25.2044L7.24969 25.1598H7.55392L7.50198 24.8037V24.6033C7.57124 24.3857 7.60587 24.2199 7.60587 24.1062C7.53661 24.1062 7.50198 24.0715 7.50198 24.0023V23.9503C7.51188 23.886 7.5465 23.8539 7.60587 23.8539H7.65039L7.75427 23.9058L9.35707 19.9879L9.60936 20.0398C9.62915 20.0398 9.69593 20.0225 9.80971 19.9879V19.832H9.56484C9.49558 19.832 9.46096 19.7999 9.46096 19.7356L10.5146 17.0271L10.6185 16.9752H13.928C13.9973 16.9851 14.0319 17.0172 14.0319 17.0717V19.832H14.3287C14.398 19.8469 14.4326 19.8815 14.4326 19.9359L14.3287 19.9879H14.0319V23.8539H14.2842C14.3485 23.8638 14.3807 23.8959 14.3807 23.9503V24.0023C14.3807 24.0517 14.3312 24.1012 14.2322 24.1507H14.1803L14.0764 24.1062L14.0319 24.2026V25.1598H14.581C14.6503 25.1697 14.6849 25.2019 14.6849 25.2563V28.4693C14.6849 28.5386 14.6503 28.5732 14.581 28.5732H14.0319V30.4802C14.0319 30.5445 13.9973 30.5767 13.928 30.5767H12.2733C11.9369 30.5767 11.4348 30.5619 10.7669 30.5322V28.87L10.715 28.6252L10.8189 28.5732H11.1676L11.4199 28.5213V25.8128C11.5535 25.61 11.6203 25.4072 11.6203 25.2044C11.2542 25.1796 11.0712 25.1302 11.0712 25.056C11.269 24.4228 11.4175 24.1062 11.5164 24.1062C11.65 24.1062 11.7167 24.0715 11.7167 24.0023V23.9058C11.4842 23.9058 11.368 23.8539 11.368 23.75V22.8447H11.316C11.2715 22.8447 11.138 23.1638 10.9153 23.8019C11.1182 23.8464 11.2196 23.8959 11.2196 23.9503C11.2196 24.0394 11.1009 24.1062 10.8634 24.1507C10.8634 24.121 10.8486 24.1062 10.8189 24.1062C10.6853 24.3486 10.5517 24.6998 10.4182 25.1598H10.9153C10.9846 25.1697 11.0192 25.2019 11.0192 25.2563C10.5146 26.5079 10.1956 27.3464 10.062 27.7718C9.84434 28.3061 9.71077 28.5732 9.66131 28.5732H9.06026L8.30338 30.5767H7.40552C7.06913 30.5767 6.56702 30.5619 5.89918 30.5322C5.46386 29.4439 5.24619 28.7909 5.24619 28.5732H5.69883C5.76314 28.5732 5.7953 28.5386 5.7953 28.4693C5.18188 26.9358 4.86281 26.0651 4.83807 25.8574V25.2044C4.81829 25.2044 4.60309 25.1895 4.1925 25.1598L4.14056 25.2563V28.4693C4.14056 28.5386 4.10593 28.5732 4.03667 28.5732H3.58403C3.51972 28.5831 3.48757 28.6153 3.48757 28.6697V28.8255H3.73986C3.80417 28.8354 3.83632 28.8675 3.83632 28.922C3.83632 28.9912 3.80417 29.0258 3.73986 29.0258H3.48757V30.4802C3.48757 30.5445 3.45294 30.5767 3.38368 30.5767H1.62506C1.34308 30.5767 0.892916 30.5619 0.274553 30.5322L0.222611 30.4283V29.1223L0.526845 28.922L0.222611 28.7216V28.6697C0.232505 28.6054 0.267133 28.5732 0.326496 28.5732H0.875602L0.927545 28.3209V25.4047L0.875602 25.1598H0.326496C0.257239 25.1598 0.222611 25.1252 0.222611 25.056V20.6854C0.232505 20.6211 0.267133 20.5889 0.326496 20.5889H0.571368V20.1882H0.326496C0.257239 20.1882 0.222611 20.1536 0.222611 20.0843V20.0398H0.571368C0.640624 20.0398 0.675253 20.0052 0.675253 19.9359V19.832C0.601049 19.832 0.534266 19.8172 0.474903 19.7875C0.41554 19.8172 0.348757 19.832 0.274553 19.832L0.222611 19.7356V18.6299C0.222611 18.5557 0.239925 18.4889 0.274553 18.4296C0.239925 18.3702 0.222611 18.3034 0.222611 18.2292V17.0717C0.232505 17.0073 0.267133 16.9752 0.326496 16.9752H0.62331C0.816239 16.9752 0.932492 16.9579 0.972067 16.9232ZM7.24969 19.832H7.55392C7.58855 19.832 7.60587 19.8493 7.60587 19.884L7.70233 19.832H7.75427V19.9879H7.24969C7.18538 19.9879 7.15322 19.9532 7.15322 19.884L7.24969 19.832ZM8.60761 19.832H9.1122V19.9879H8.60761C8.53836 19.9879 8.50373 19.9532 8.50373 19.884L8.60761 19.832ZM3.48757 22.5998V25.1598H4.14056V24.403C3.93774 23.6016 3.72007 23.0005 3.48757 22.5998ZM7.95462 23.9503V24.1062H8.00657C8.07088 24.1062 8.10303 24.0715 8.10303 24.0023V23.8539H8.05851C7.98925 23.8638 7.95462 23.8959 7.95462 23.9503ZM7.70233 25.1598C7.70233 25.1895 7.68502 25.2044 7.65039 25.2044C7.87795 25.8673 8.04614 26.2358 8.15497 26.31L8.40726 25.4567C8.33801 25.3478 8.30338 25.2637 8.30338 25.2044L7.70233 25.1598ZM18.8423 16.9307H21.803C21.8624 16.9406 22.132 17.643 22.6119 19.038L22.7603 19.1345H23.2649C23.3539 19.2038 23.7546 20.2772 24.467 22.3549L24.8231 23.3567L24.7192 23.4086H23.5617V23.4606C23.5617 23.6387 23.6631 23.7376 23.8659 23.7574L24.1701 23.7129H24.2147C24.3581 23.7871 24.8281 25.0584 25.6245 27.5269L25.5206 27.5789C25.4069 27.5443 25.3401 27.5269 25.3203 27.5269C25.2906 27.5269 25.2758 27.5443 25.2758 27.5789L24.9196 27.5269H24.6673C24.603 27.5368 24.5708 27.5715 24.5708 27.6308C24.7489 28.1651 24.8652 28.4322 24.9196 28.4322H25.9288C25.9931 28.4421 26.0252 28.4767 26.0252 28.5361V28.5806C26.0252 28.6499 25.9931 28.6845 25.9288 28.6845H24.8231C24.744 28.6845 24.6772 28.6672 24.6228 28.6326C24.5634 28.6672 24.4942 28.6845 24.415 28.6845H23.3613L23.0126 28.6326L22.9606 28.7365C22.9705 28.8008 23.0051 28.8329 23.0645 28.8329H26.0772C26.1761 28.8329 26.3938 29.387 26.7302 30.4951V30.547H22.9606C22.9062 30.547 22.7059 29.9757 22.3596 28.8329H19.6957C19.6215 28.8329 19.5547 28.8181 19.4953 28.7884C19.436 28.8181 19.3692 28.8329 19.295 28.8329C19.2257 28.8329 19.1911 28.8008 19.1911 28.7365C19.2257 28.7365 19.243 28.7191 19.243 28.6845C19.8614 28.6499 20.314 28.6326 20.6009 28.6326H22.2112C22.2755 28.6326 22.3076 28.6004 22.3076 28.5361L22.1592 28.4322H21.1501C21.1105 28.4322 21.0115 28.2813 20.8532 27.9796H20.4525V28.0315C20.4525 28.0612 20.4674 28.1948 20.4971 28.4322H20.0444C20.0098 28.4322 19.8935 28.2813 19.6957 27.9796H16.7795C16.5865 27.9796 16.4703 28.1131 16.4307 28.3803L16.5272 28.4322H17.3805C17.4498 28.4421 17.4844 28.4767 17.4844 28.5361V28.5806L16.8314 30.547H13.0099V30.4951L13.7149 28.4842L12.2085 28.4322C12.1393 28.4322 12.1046 28.4001 12.1046 28.3358C12.2728 27.7965 12.3916 27.5269 12.4608 27.5269H13.8187C14.0611 27.5269 14.2269 27.2425 14.3159 26.6736C14.3753 26.6686 14.5435 26.2506 14.8205 25.4196L15.377 23.8093V23.7574H14.8724C14.8032 23.4457 14.7908 23.3369 14.8353 23.4309C14.7908 23.3814 15.2385 23.3567 16.1784 23.3567C16.2279 23.3468 16.495 22.6617 16.9798 21.3013L17.6847 19.2384V19.1865H17.4325V19.1345C17.6847 18.2787 17.9544 17.5589 18.2413 16.9752L18.8423 16.9307ZM20.4525 21.3013C20.0914 22.7062 19.8391 23.4086 19.6957 23.4086H18.5381C18.4738 23.4086 18.4243 23.5101 18.3897 23.7129H18.6939C18.8918 23.7327 18.9907 23.7821 18.9907 23.8613C18.6543 24.8952 18.4861 25.4319 18.4861 25.4715L18.7384 25.516L19.0946 25.4715C19.1589 25.5012 19.2084 25.516 19.243 25.516L19.5473 25.4715C19.5769 25.4715 19.5918 25.4863 19.5918 25.516L19.8441 25.4715H20.6974C20.732 25.4715 20.7494 25.4863 20.7494 25.516C21.0857 25.4863 21.2539 25.4369 21.2539 25.3676V25.3157C21.1303 25.0931 20.9794 24.6577 20.8013 24.0097C20.8013 23.8365 20.6504 23.7376 20.3487 23.7129C20.3487 23.6288 20.314 23.5447 20.2448 23.4606C20.2596 23.3913 20.2942 23.3567 20.3487 23.3567H21.202C21.0338 22.7433 20.8161 22.0581 20.549 21.3013H20.4525ZM33.8854 16.9603C35.043 16.9603 36.114 17.2374 37.0984 17.7914V17.836C36.9253 17.836 36.7794 17.8533 36.6606 17.8879V17.9324C37.3928 18.2787 38.1546 18.9935 38.9461 20.0769C39.2627 20.0769 39.4581 20.1734 39.5323 20.3663C39.5323 20.4108 39.4359 20.4603 39.2429 20.5147C39.2429 20.6631 38.7062 20.9723 37.6327 21.4422C37.1479 21.7638 36.8066 21.9246 36.6087 21.9246H36.2228L35.2953 20.8115C35.0578 20.6878 34.9292 20.5889 34.9094 20.5147V20.4702H35.1024V20.3663C35.0578 20.3663 34.8476 20.2698 34.4716 20.0769H34.2713C33.9695 20.0769 33.7271 20.0126 33.5441 19.884H32.765C32.6907 19.884 32.6264 19.8988 32.572 19.9285L32.4756 19.884C31.3526 20.2352 30.6205 20.6903 30.2791 21.2493C30.2 21.3433 29.9897 21.4076 29.6484 21.4422V21.4868C29.6583 21.556 29.6905 21.5907 29.7449 21.5907C29.8092 21.5907 29.8413 21.5733 29.8413 21.5387L30.3311 21.5907H31.2067V21.6352C31.2067 21.6995 31.1745 21.7316 31.1102 21.7316H29.9378C29.7449 21.8603 29.5519 22.4118 29.359 23.3864V23.7797C29.359 24.1754 29.4555 24.6948 29.6484 25.3379L29.5519 25.3825H29.0622L28.7728 25.4344C28.7085 25.3998 28.659 25.3825 28.6244 25.3825L28.5279 25.4344C28.4636 25.3998 28.4141 25.3825 28.3795 25.3825V25.4344C28.5972 26.0528 29.035 26.5722 29.6929 26.9927C30.0145 27.2202 30.242 27.334 30.3756 27.334H31.5925C32.3544 27.5616 32.9084 27.6753 33.2547 27.6753C33.9275 27.4478 34.348 27.334 34.5162 27.334C34.5805 27.3686 34.6299 27.386 34.6646 27.386C35.4017 26.8913 35.79 26.5821 35.8296 26.4584C36.0175 26.3248 36.2773 25.9835 36.6087 25.4344V25.3825H32.713C32.6487 25.3825 32.6165 25.3503 32.6165 25.286V23.9281C32.7798 23.8291 32.8614 23.7475 32.8614 23.6832L32.8169 23.5867C32.8466 23.5274 32.8614 23.4606 32.8614 23.3864C32.6982 23.3468 32.6165 23.2998 32.6165 23.2454C32.6809 23.1613 32.713 23.1118 32.713 23.097C32.7823 23.097 32.8169 23.1143 32.8169 23.1489C33.1978 23.1143 33.4724 23.097 33.6406 23.097H38.7087C38.7779 23.097 38.8422 23.1143 38.9016 23.1489C38.956 23.1143 39.0203 23.097 39.0945 23.097H39.9701L40.2669 23.4383V23.7277C40.1037 23.8168 40.0047 24.0295 39.9701 24.3659C39.9404 24.8408 39.9256 25.1648 39.9256 25.3379C40.0888 25.3379 40.1705 25.3701 40.1705 25.4344V25.4863C39.7995 26.7527 39.473 27.386 39.191 27.386C39.1366 27.3513 39.0723 27.334 38.9981 27.334C38.2362 28.7092 36.8734 29.7159 34.9094 30.3541C34.3603 30.453 33.9547 30.5025 33.6925 30.5025H32.765C30.2717 30.5025 28.3078 29.4463 26.8732 27.334H25.5598C25.3965 27.245 25.1195 26.6934 24.7287 25.6793V25.3825H26.0421L25.8492 23.8242V23.5867C25.9926 22.35 26.1213 21.7316 26.235 21.7316C26.8633 21.702 27.2714 21.6871 27.4594 21.6871V21.5907H27.4075C27.0661 21.5907 26.5467 21.5733 25.8492 21.5387C25.8492 21.4892 26.0124 21.4249 26.3389 21.3458C26.9672 19.7677 27.9392 18.6151 29.2551 17.8879C29.7696 17.8879 30.2099 17.7741 30.5759 17.5466C31.4466 17.1558 32.5498 16.9603 33.8854 16.9603ZM25.4559 21.3903H25.6043V21.5387C25.4905 21.5733 25.4262 21.5907 25.4114 21.5907L25.3594 21.4868C25.3693 21.4225 25.4015 21.3903 25.4559 21.3903ZM31.8894 23.097C32.2109 23.1217 32.3717 23.1712 32.3717 23.2454C32.3717 23.3097 32.3395 23.3419 32.2752 23.3419H31.8374C31.7731 23.3419 31.7409 23.3097 31.7409 23.2454C31.7409 23.1959 31.7904 23.1465 31.8894 23.097ZM31.2512 23.1489H31.3551C31.4194 23.1588 31.4515 23.191 31.4515 23.2454V23.3419H31.2512C31.1869 23.3419 31.1547 23.3097 31.1547 23.2454C31.1646 23.1811 31.1968 23.1489 31.2512 23.1489ZM42.6657 16.9455C42.9873 16.9455 43.7219 16.9628 44.8696 16.9975C46.042 18.714 46.695 19.5995 46.8286 19.6539C46.9572 19.6539 47.1402 19.7702 47.3777 20.0027H48.9879C49.0522 20.0126 49.0844 20.0472 49.0844 20.1066C49.0844 20.1709 49.0522 20.203 48.9879 20.203H48.8321C48.7579 20.203 48.6911 20.1882 48.6317 20.1585C48.5773 20.1882 48.5105 20.203 48.4314 20.203C48.3572 20.203 48.2904 20.1882 48.231 20.1585L47.9342 20.203H47.63L47.5335 20.1585L47.4816 20.255C47.8773 20.7843 48.8469 22.1719 50.3903 24.4178L50.138 24.5217C50.5981 25.2143 50.8999 25.615 51.0433 25.7238L51.0953 25.4715V25.2192C51.0953 25.0213 50.9939 24.7888 50.791 24.5217C50.9592 24.4871 51.0433 24.4524 51.0433 24.4178C50.8751 24.1606 50.791 23.9948 50.791 23.9206C50.8553 23.886 50.9048 23.8687 50.9394 23.8687C50.8405 23.745 50.791 23.6288 50.791 23.5199V20.856C50.6228 20.856 50.5387 20.8412 50.5387 20.8115L50.4423 20.856C50.373 20.856 50.3384 20.8239 50.3384 20.7596V20.7076C50.3483 20.6384 50.3829 20.6037 50.4423 20.6037H50.791V19.7059C50.5882 19.7059 50.4868 19.6713 50.4868 19.602V17.0939L50.5387 16.9975C51.2066 16.9628 51.7087 16.9455 52.0451 16.9455H53.8482C53.8829 16.9455 53.9002 16.9628 53.9002 16.9975L54.0041 16.9455C54.0684 16.9554 54.1005 16.99 54.1005 17.0494V19.6539C54.3182 19.6539 54.4369 19.7034 54.4567 19.8023V20.5073C54.4567 20.5567 54.4047 20.6062 54.3009 20.6557H54.0041V20.8115H54.3009C54.3503 20.8115 54.4023 20.861 54.4567 20.9599V24.3733L54.1005 24.5736V26.5252C54.1005 26.5697 54.0016 26.6365 53.8037 26.7255L53.8482 27.0817V28.2838C54.0164 28.2838 54.1005 28.316 54.1005 28.3803V30.2354L54.1525 30.4877L54.0486 30.5396H51.7928C51.4613 30.5396 50.9592 30.5223 50.2865 30.4877C49.3663 29.0679 48.8321 28.3333 48.6837 28.2838C48.5303 28.2838 48.3646 28.0983 48.1865 27.7273C47.6819 27.0792 47.4296 26.7132 47.4296 26.6291H47.578V26.5252L46.1756 24.5217C46.3438 24.4871 46.4279 24.4524 46.4279 24.4178L45.7229 23.4161V22.7111C45.7229 22.5231 45.5399 22.1892 45.1738 21.7094H45.1219V24.3733L44.8251 24.5736V24.6701H45.3742C45.4385 24.68 45.4706 24.7146 45.4706 24.774V24.9224C45.4706 24.9719 45.4212 25.0213 45.3222 25.0708H44.8251L44.7731 25.6718V27.1782L44.8251 27.4305C44.7459 27.4948 44.6445 27.5269 44.5208 27.5269V27.8312L44.7731 28.0315V29.7382L44.8251 30.035C44.7904 30.0944 44.7731 30.1612 44.7731 30.2354L44.8251 30.4877L44.7212 30.5396H42.5173C42.2304 30.5396 41.7778 30.5223 41.1594 30.4877L41.1075 30.3912V30.3393C41.1075 30.3046 41.1248 30.2873 41.1594 30.2873L41.1075 30.1908V28.0315L40.8626 27.8312V27.6308L41.1075 27.4305V25.1747C41.1075 25.1252 41.1594 25.0733 41.2633 25.0189H41.7085C41.7778 25.0189 41.8124 24.9867 41.8124 24.9224V24.774C41.8124 24.7047 41.7778 24.6701 41.7085 24.6701H41.2114C41.1421 24.6701 41.1075 24.6379 41.1075 24.5736C41.1174 24.5044 41.152 24.4698 41.2114 24.4698H41.4636V24.3733C41.4636 24.2595 41.4785 24.1754 41.5082 24.121L41.4636 23.8687L41.5082 23.6684C41.5082 23.6337 41.4933 23.6164 41.4636 23.6164L41.5082 23.3641V23.2677C41.5082 23.1341 41.4933 23.0673 41.4636 23.0673L41.5082 22.7111V22.5108C41.5082 22.0754 41.4933 21.509 41.4636 20.8115L41.5082 20.7076L41.4636 20.6037C41.4933 20.3366 41.5428 20.203 41.6121 20.203H42.0647C42.2972 20.203 42.6633 20.1882 43.1629 20.1585V20.0546H43.1184C42.871 20.0546 42.6855 20.0373 42.5619 20.0027C42.3442 20.0373 42.1265 20.0546 41.9089 20.0546C41.5774 20.0546 41.4117 19.9384 41.4117 19.7059C41.2089 19.7059 41.1075 19.6564 41.1075 19.5575V17.0939L41.1594 16.9975C41.8767 16.9628 42.3788 16.9455 42.6657 16.9455ZM40.8626 20.6037H40.9591C41.0283 20.6186 41.0629 20.6532 41.0629 20.7076C41.0629 20.7818 40.9788 20.8313 40.8107 20.856L40.7587 20.7596V20.7076C40.7686 20.6384 40.8032 20.6037 40.8626 20.6037ZM49.8858 20.6037H49.9377C50.007 20.6186 50.0416 20.6532 50.0416 20.7076V20.7596C50.0416 20.8239 50.007 20.856 49.9377 20.856C49.8882 20.856 49.8388 20.8066 49.7893 20.7076C49.7992 20.6384 49.8313 20.6037 49.8858 20.6037ZM51.1398 24.121C51.1497 24.1853 51.1843 24.2175 51.2437 24.2175V24.121H51.1398ZM51.3401 24.2694V24.3733H51.3921V24.2694H51.3401ZM62.8734 16.9455C64.026 16.9455 65.0006 17.1904 65.797 17.6801C65.7377 17.7098 65.6734 17.7246 65.6041 17.7246V17.8211C65.7228 17.8211 66.1755 18.1303 66.962 18.7487C67.155 18.7487 67.3504 18.813 67.5482 18.9416H68.0899L68.3274 18.9935V19.0455C68.3274 19.1098 68.2952 19.1419 68.2309 19.1419H67.986C67.9564 19.1419 67.9415 19.1246 67.9415 19.09C67.8871 19.1246 67.8055 19.1419 67.6966 19.1419V19.1865C68.4337 20.0076 68.9853 21.1133 69.3514 22.5034L69.2104 22.5998H68.038V22.6518C68.5178 22.6518 68.7949 22.6666 68.8691 22.6963C68.9235 22.6666 69.0051 22.6518 69.1139 22.6518H69.2104C69.339 22.6518 69.4033 22.9609 69.4033 23.5793C69.4132 23.6436 69.4454 23.6758 69.4998 23.6758H69.9895C70.0192 23.6758 70.0341 23.6906 70.0341 23.7203L70.1379 23.6758H70.1825C70.3803 23.6956 70.4793 23.7426 70.4793 23.8168C70.4793 24.9001 70.1701 25.9909 69.5517 27.0891L69.4553 27.1337H68.5277L68.3274 27.2821H67.8451C67.7807 27.292 67.7486 27.3241 67.7486 27.3785C68.1048 27.3785 68.2829 27.3958 68.2829 27.4305C67.526 28.6771 66.356 29.6022 64.773 30.2057C64.0013 30.4036 63.3013 30.5025 62.6731 30.5025H62.1388C61.7579 30.5025 61.4982 30.4679 61.3597 30.3986C61.2954 30.4332 61.2459 30.4506 61.2113 30.4506C59.7816 30.2082 58.6611 29.7357 57.8498 29.0333C57.2216 28.504 56.717 27.9697 56.3361 27.4305C56.2817 27.3958 56.2174 27.3785 56.1432 27.3785H55.7054V27.2821H56.1877C56.1877 27.1831 56.2223 27.1337 56.2916 27.1337H56.9223L57.1672 27.0891C56.6626 26.1294 56.3855 25.2514 56.3361 24.4549V24.3065L56.388 24.21C56.4177 24.21 56.4325 24.2274 56.4325 24.262C56.9223 24.2274 57.2809 24.21 57.5085 24.21H58.2357V24.1581C58.2357 24.0938 58.2035 24.0616 58.1392 24.0616H56.388C56.3484 24.0616 56.2668 23.9479 56.1432 23.7203H55.3121C55.2478 23.7203 55.2156 23.6881 55.2156 23.6238C55.2156 23.5595 55.3467 23.5101 55.6089 23.4754V23.2825C55.5743 23.2825 55.5248 23.2677 55.4605 23.238C55.3962 23.2677 55.3467 23.2825 55.3121 23.2825C55.2824 23.2182 55.2675 23.1687 55.2675 23.1341C55.3615 22.0062 55.782 20.8709 56.529 19.7281C56.8159 19.3373 57.0781 19.1419 57.3156 19.1419C57.7361 19.1419 57.9463 19.0925 57.9463 18.9935C57.8375 18.9292 57.741 18.8971 57.6569 18.8971H57.605L57.3601 18.9416L57.3156 18.8451L57.3601 18.7487C57.2315 18.7487 57.1672 18.7165 57.1672 18.6522C57.4096 18.4395 57.8647 18.1303 58.5325 17.7246H59.0668C59.9374 17.2052 61.2063 16.9455 62.8734 16.9455ZM58.8219 23.0376V23.1341L59.1187 23.3344V23.4309C59.1187 23.4952 59.0841 23.5274 59.0148 23.5274H58.7774V23.6758H59.653C59.7074 23.6758 59.7569 23.7896 59.8014 24.0171C60.4989 24.0468 61.0183 24.0616 61.3597 24.0616H61.7455V24.1581C61.7455 24.2274 61.7134 24.262 61.6491 24.262C61.5897 24.2274 61.5427 24.21 61.5081 24.21C61.4734 24.21 61.4561 24.2274 61.4561 24.262L61.2113 24.21C61.0925 24.21 60.6374 24.2274 59.8459 24.262V24.4994C60.0042 25.2959 60.4099 26.0132 61.0628 26.6513C61.424 26.8987 61.6045 27.0446 61.6045 27.0891L61.5081 27.1337H60.8254L60.8699 27.2301V27.2821H60.5805V27.3785H61.1667C61.7455 27.5418 62.1339 27.6234 62.3317 27.6234C62.5197 27.6234 62.8289 27.5739 63.2593 27.475C63.2593 27.4107 63.2271 27.3785 63.1628 27.3785H62.9179V27.2821H63.4522C63.4868 27.2821 63.7144 27.2326 64.1349 27.1337H64.6246C64.6988 27.1337 64.7631 27.1188 64.8175 27.0891C64.8819 27.1188 64.9313 27.1337 64.966 27.1337C65.6041 26.8616 66.173 26.2605 66.6726 25.3305C66.8656 24.6775 66.962 24.304 66.962 24.21V23.8168C66.962 23.7623 66.8013 23.7153 66.4797 23.6758L66.3832 23.7203H66.0419C65.9083 23.7203 65.8416 23.3963 65.8416 22.7482L65.6041 22.6963H63.9419V22.5998C64.4317 22.5701 64.7903 22.5553 65.0179 22.5553H65.7451V22.5034C65.4384 21.6376 64.9511 20.9723 64.2833 20.5073C63.5462 20.0522 62.9451 19.8246 62.4801 19.8246C61.1197 19.8246 60.0141 20.5221 59.1632 21.9171C58.9357 22.491 58.8219 22.8645 58.8219 23.0376ZM55.4605 24.0616H55.9947C56.0591 24.0715 56.0912 24.1037 56.0912 24.1581L55.9947 24.21H55.4605V24.0616ZM67.4518 24.262L67.4073 24.3584V24.403H67.4518C67.4518 24.3387 67.4839 24.3065 67.5482 24.3065V24.262H67.4518ZM61.4561 24.9892H61.5081C61.5724 24.9991 61.6045 25.0312 61.6045 25.0856V25.234C61.6045 25.2984 61.5724 25.3305 61.5081 25.3305H61.4561C61.3918 25.3305 61.3597 25.2984 61.3597 25.234V25.0856C61.3696 25.0213 61.4017 24.9892 61.4561 24.9892ZM55.7499 25.5234H56.0467L56.0912 25.7683L55.9502 25.8648H55.8018C55.7375 25.8648 55.688 25.7683 55.6534 25.5754L55.7499 25.5234ZM71.3495 16.9381H79.6974C79.7716 16.9381 79.8384 16.9554 79.8978 16.99C79.9571 16.9554 80.0239 16.9381 80.0981 16.9381C80.1674 17.0222 80.202 17.089 80.202 17.1384L80.15 17.2423C80.1847 17.4155 80.2515 17.549 80.3504 17.643V19.5426L80.2985 19.6391L80.0462 19.5946H78.9999L78.6957 19.6391C78.6412 19.6094 78.5596 19.5946 78.4508 19.5946L78.102 19.6391C78.0427 19.6094 77.9759 19.5946 77.9017 19.5946L77.7978 19.6391C77.7632 19.6391 77.7458 19.6243 77.7458 19.5946L77.501 19.6391H76.9964V21.3903C76.9964 21.4596 76.8628 21.5115 76.5957 21.5461C76.5957 21.6747 76.5635 21.7391 76.4992 21.7391H76.0466C75.9823 21.7539 75.9501 21.7885 75.9501 21.8429C75.96 21.9073 75.9922 21.9394 76.0466 21.9394H76.5512L76.6476 21.9914L76.5957 22.2436V22.6963L76.8999 22.8966C76.8999 22.9609 76.6996 23.0104 76.2989 23.045V25.9909C76.2989 26.0849 76.1307 26.1517 75.7943 26.1913V26.2432H76.5512C76.749 26.3323 76.848 26.399 76.848 26.4436V30.3986C76.848 30.4629 76.8158 30.4951 76.7515 30.4951H74.748C74.4116 30.4951 73.912 30.4778 73.2491 30.4431C73.2145 29.8297 73.1972 29.3796 73.1972 29.0926V26.3916C72.8954 26.3273 72.7445 26.2605 72.7445 26.1913L72.6481 26.2432H72.1954V26.1913C72.2053 26.127 72.2399 26.0948 72.2993 26.0948L72.5442 26.1468C72.6085 26.1121 72.6604 26.0948 72.7 26.0948V23.0896C72.7099 23.0253 72.7421 22.9931 72.7965 22.9931H73.2491V22.7927C73.0809 22.7927 72.9968 22.7606 72.9968 22.6963V22.0433C72.9968 21.974 72.9622 21.9394 72.8929 21.9394H72.4477C72.3785 21.9394 72.3438 21.9073 72.3438 21.8429C72.3537 21.7737 72.3884 21.7391 72.4477 21.7391H72.8929L73.0933 21.4942H73.3456L73.3975 21.0415C73.3975 20.9772 73.3802 20.9451 73.3456 20.9451L73.3975 20.6928V19.8914C73.3975 19.7479 73.3307 19.649 73.1972 19.5946C73.1625 19.5946 73.1452 19.6094 73.1452 19.6391L72.8929 19.5946H69.999C69.9297 19.5946 69.8951 19.5599 69.8951 19.4907V17.5911C69.7615 17.5911 69.6948 17.5589 69.6948 17.4946V17.4427C69.6948 17.3685 69.7121 17.3017 69.7467 17.2423C69.7121 17.183 69.6948 17.1162 69.6948 17.042C69.7294 17.042 69.7467 17.0247 69.7467 16.99C70.464 16.9554 70.9983 16.9381 71.3495 16.9381ZM71.7947 21.7391H71.8986C71.9629 21.7539 71.9951 21.7885 71.9951 21.8429C71.9951 21.9073 71.9629 21.9394 71.8986 21.9394H71.7947C71.7304 21.9394 71.6983 21.9073 71.6983 21.8429C71.7082 21.7737 71.7403 21.7391 71.7947 21.7391ZM73.1972 25.6941V25.7906H73.2491V25.6941H73.1972ZM81.6658 16.9232H88.8042C88.8487 16.9232 88.8982 16.9727 88.9526 17.0717V18.7858C88.9526 18.8303 89.0021 18.8797 89.101 18.9342H89.3014C89.3805 18.9342 89.4498 18.9168 89.5092 18.8822C89.6724 18.9267 89.754 18.9762 89.754 19.0306V19.1345C89.754 19.1988 89.7219 19.231 89.6576 19.231H89.4053V19.4833C89.4053 19.5525 89.3706 19.5872 89.3014 19.5872H85.8361C85.4848 19.5872 84.9506 19.6045 84.2333 19.6391V20.0917C84.2432 20.156 84.2753 20.1882 84.3297 20.1882H84.7824C84.8516 20.1981 84.8863 20.2327 84.8863 20.2921V22.4514H89.2569C89.3212 22.4613 89.3533 22.4935 89.3533 22.5479V23.3048C89.3533 23.3691 89.1703 23.4185 88.8042 23.4532L88.7003 23.4012L88.4035 23.4532C88.3343 23.4185 88.2823 23.4012 88.2477 23.4012L88.1957 23.6535V24.5069L88.2477 25.0114L88.0993 25.1153H83.8252C83.8252 25.2291 83.7089 25.2959 83.4764 25.3157L83.1722 25.2637H83.0757C83.0064 25.2736 82.9718 25.3083 82.9718 25.3676V25.4121H83.2761L83.7806 25.4641V27.1262C83.7806 27.3043 83.8796 27.4033 84.0774 27.4231C84.0774 27.4973 84.0948 27.564 84.1294 27.6234C84.0948 27.6828 84.0774 27.7495 84.0774 27.8238V27.8757H88.8562C88.9205 27.8757 88.9699 28.0439 89.0046 28.3803H89.754C89.8233 28.3902 89.8579 28.4223 89.8579 28.4767C89.8579 28.546 89.8233 28.5806 89.754 28.5806H89.2049L88.9526 28.6326V30.5396H80.716C80.6814 30.5396 80.6641 30.5223 80.6641 30.4877L80.5602 30.5396H80.2634C80.2139 30.5396 80.162 30.4901 80.1076 30.3912V30.2873C80.1076 30.2527 80.1249 30.2354 80.1595 30.2354L80.1076 30.1389V28.9294L79.8553 28.8849H79.41C79.3408 28.8849 79.3062 28.8502 79.3062 28.781V28.6771C79.3161 28.6128 79.3507 28.5806 79.41 28.5806C79.969 28.546 80.4044 28.5287 80.716 28.5287H80.9164V28.4322L80.4118 28.3803H80.2114C80.1422 28.3803 80.1076 28.3308 80.1076 28.2319L80.1595 28.128C80.1249 28.0686 80.1076 28.0018 80.1076 27.9276C80.1076 27.8831 80.209 27.8336 80.4118 27.7792C80.4464 27.7199 80.4637 27.6506 80.4637 27.5715C80.4637 27.428 80.345 27.3464 80.1076 27.3266V25.6125L80.1595 25.516L80.063 25.4641H79.41C79.3408 25.4641 79.3062 25.4319 79.3062 25.3676C79.3161 25.2984 79.3507 25.2637 79.41 25.2637H80.0111C80.0754 25.2637 80.1076 25.2291 80.1076 25.1598V23.5051C80.1076 23.4358 80.1595 23.4012 80.2634 23.4012C80.3673 23.4012 80.6839 23.3864 81.2132 23.3567V20.2921C81.2132 20.1882 81.0302 20.1363 80.6641 20.1363H80.5602V19.3349L80.9164 19.1345V19.0306C80.9164 18.9663 80.8817 18.9342 80.8125 18.9342H80.2114C80.1422 18.9342 80.1076 18.8995 80.1076 18.8303V17.0717L80.1595 16.9752C80.8323 16.9406 81.3344 16.9232 81.6658 16.9232ZM79.7588 22.956H80.0111C80.0754 22.9659 80.1076 22.998 80.1076 23.0525V23.3048C80.1076 23.3691 80.0754 23.4012 80.0111 23.4012H79.7588C79.6895 23.4012 79.6549 23.3691 79.6549 23.3048V23.0525C79.6698 22.9882 79.7044 22.956 79.7588 22.956ZM81.5694 28.5287H82.022V28.4322H81.6658C81.6015 28.4421 81.5694 28.4743 81.5694 28.5287ZM86.9936 28.5806V28.781C87.0035 28.8502 87.0382 28.8849 87.0975 28.8849H87.795C87.795 28.8453 87.8124 28.7933 87.847 28.729C87.8124 28.6647 87.795 28.6153 87.795 28.5806H86.9936ZM91.0101 16.9232C91.0744 16.9232 91.1066 16.9406 91.1066 16.9752C91.6111 16.9406 91.9822 16.9232 92.2196 16.9232H95.7369C97.0132 16.9232 97.869 17.0395 98.3043 17.272C98.6061 17.361 98.7916 17.4625 98.8608 17.5762C98.8262 17.6356 98.8089 17.7024 98.8089 17.7766C99.3333 18.0289 99.7859 18.5829 100.167 19.4387C100.404 20.1511 100.523 20.6878 100.523 21.049C100.523 21.1726 100.474 21.5758 100.375 22.2585C100.572 22.2585 100.671 22.2931 100.671 22.3624C100.29 23.4062 99.687 24.1779 98.8608 24.6775L98.104 24.9743V25.0263C98.1831 25.1005 98.3686 25.3701 98.6605 25.8351C98.5517 25.8994 98.4676 25.9316 98.4082 25.9316L98.4601 26.0354V26.0874C97.8517 26.1171 97.4485 26.1319 97.2506 26.1319V26.1839C97.2605 26.2531 97.2951 26.2877 97.3545 26.2877H98.6085L99.0612 26.8368C99.3926 26.8368 99.6103 27.005 99.7142 27.3414V27.3934C99.546 27.3934 99.4619 27.428 99.4619 27.4973C100.506 28.9962 101.028 29.7679 101.028 29.8124C100.894 29.8371 100.827 29.8693 100.827 29.9089C101.06 30.2601 101.176 30.4629 101.176 30.5173L101.08 30.5619H98.5566C98.2746 30.5619 97.822 30.547 97.1987 30.5173C96.9315 30.1364 96.798 29.9336 96.798 29.9089C96.8524 29.8742 96.9365 29.8569 97.0503 29.8569V29.8124C96.0757 28.3333 95.5885 27.5269 95.5885 27.3934H95.7888V27.2895C95.6849 26.958 95.4846 26.7923 95.1878 26.7923C94.9256 26.4559 94.7228 26.2877 94.5793 26.2877H93.674V26.54C93.674 26.5697 93.6592 26.5846 93.6295 26.5846L93.674 26.6884V29.0036H94.2305C94.2998 29.0135 94.3344 29.0481 94.3344 29.1075C94.3344 29.1718 94.2998 29.2039 94.2305 29.2039H93.674C93.674 29.3721 93.6592 29.4562 93.6295 29.4562L93.674 29.5601V30.1612C93.674 30.2354 93.6592 30.3022 93.6295 30.3615C93.6592 30.4258 93.674 30.4778 93.674 30.5173L93.5775 30.5619H91.5147C91.1783 30.5619 90.6737 30.547 90.0009 30.5173V29.3078C90.0108 29.2386 90.0455 29.2039 90.1048 29.2039H90.6539V29.0555H90.1048C90.0356 29.0555 90.0009 29.0209 90.0009 28.9516V26.3397L89.7486 26.2877H88.7469C88.6776 26.2877 88.643 26.2531 88.643 26.1839L88.7469 26.1319C89.5829 26.1171 90.0009 26.0849 90.0009 26.0354C90.0009 25.9316 90.0356 25.8796 90.1048 25.8796C90.1691 25.9142 90.2186 25.9316 90.2532 25.9316L90.3052 25.8351V22.4069C90.3151 22.3426 90.3472 22.3104 90.4016 22.3104H90.6539L90.7059 22.0062C90.6416 21.9716 90.5921 21.9542 90.5575 21.9542C90.2606 21.9889 90.0924 22.0062 90.0529 22.0062C90.0529 21.7391 89.9193 21.6055 89.6522 21.6055V21.3532L90.0009 21.1529V17.7766L90.3052 17.5762V17.0717C90.3151 17.0073 90.3472 16.9752 90.4016 16.9752H90.7578C90.8716 16.9752 90.9557 16.9579 91.0101 16.9232ZM93.674 19.5946C93.674 19.6243 93.6592 19.6391 93.6295 19.6391C93.6592 19.9755 93.674 20.2278 93.674 20.396V20.7002C93.674 20.7348 93.6592 20.7522 93.6295 20.7522L93.674 20.8486V20.9006C93.674 21.2023 93.5404 21.3532 93.2733 21.3532V21.6574C93.5404 21.6772 93.674 21.7267 93.674 21.8058H93.6295C93.6592 21.8702 93.674 21.9196 93.674 21.9542H94.8835V22.0581H94.4309L94.2305 22.3104H93.9782V22.815H95.5365C96.2142 22.815 96.6694 22.6468 96.9019 22.3104C97.2333 22.3104 97.399 22.1917 97.399 21.9542H96.9464L96.8499 21.9097C96.9142 21.6772 96.9464 21.4744 96.9464 21.3013V20.9006C96.9464 20.5493 96.6446 20.1635 96.0411 19.743C95.9669 19.6737 95.633 19.6243 95.0394 19.5946L94.9355 19.6391L94.8316 19.5946C94.8019 19.5946 94.7871 19.6094 94.7871 19.6391C94.6683 19.6094 94.5991 19.5946 94.5793 19.5946C94.2874 19.6243 94.1217 19.6391 94.0821 19.6391C93.8941 19.6094 93.7581 19.5946 93.674 19.5946ZM90.8097 22.0062V22.0581H90.9062V22.0062H90.8097ZM91.062 22.0062V22.0581H91.1585V22.0062H91.062ZM100.575 21.9542H100.723V22.0581H100.575V21.9542ZM100.924 21.9542H101.08V22.0581H100.924V21.9542ZM101.176 21.9542H101.629V22.0581H101.176V21.9542ZM93.8298 25.9316L93.7259 25.8796C93.7259 25.9489 93.6938 25.9835 93.6295 25.9835C93.6592 26.0478 93.674 26.0973 93.674 26.1319C94.0104 26.1022 94.2627 26.0874 94.4309 26.0874H94.4828L94.5793 26.1319L94.7871 25.7832C94.6535 25.4814 94.5694 25.3305 94.5348 25.3305H94.0821C94.0129 25.3305 93.9609 25.5309 93.9263 25.9316H93.8298ZM92.3161 26.1319V26.1839C92.326 26.2531 92.3606 26.2877 92.42 26.2877H93.3252C93.3896 26.2877 93.4217 26.2531 93.4217 26.1839V26.1319H92.3161ZM96.3453 29.9089H96.4418C96.4418 29.9633 96.4764 30.0301 96.5457 30.1092V30.2131C96.5012 30.2082 96.4344 30.1241 96.3453 29.9608V29.9089ZM96.6941 30.4135H96.746V30.5173H96.6941V30.4135ZM105.586 16.9307H108.546C108.606 16.9406 108.875 17.643 109.355 19.038L109.504 19.1345H110.008C110.097 19.2038 110.498 20.2772 111.21 22.3549L111.567 23.3567L111.463 23.4086H110.305V23.4606C110.305 23.6387 110.406 23.7376 110.609 23.7574L110.914 23.7129H110.958C111.102 23.7871 111.571 25.0584 112.368 27.5269L112.264 27.5789C112.15 27.5443 112.083 27.5269 112.064 27.5269C112.034 27.5269 112.019 27.5443 112.019 27.5789L111.663 27.5269H111.411C111.346 27.5368 111.314 27.5715 111.314 27.6308C111.492 28.1651 111.609 28.4322 111.663 28.4322H112.672C112.736 28.4421 112.769 28.4767 112.769 28.5361V28.5806C112.769 28.6499 112.736 28.6845 112.672 28.6845H111.567C111.487 28.6845 111.421 28.6672 111.366 28.6326C111.307 28.6672 111.238 28.6845 111.158 28.6845H110.105L109.756 28.6326L109.704 28.7365C109.714 28.8008 109.749 28.8329 109.808 28.8329H112.821C112.92 28.8329 113.137 29.387 113.474 30.4951V30.547H109.704C109.65 30.547 109.449 29.9757 109.103 28.8329H106.439C106.365 28.8329 106.298 28.8181 106.239 28.7884C106.179 28.8181 106.113 28.8329 106.038 28.8329C105.969 28.8329 105.934 28.8008 105.934 28.7365C105.969 28.7365 105.986 28.7191 105.986 28.6845C106.605 28.6499 107.057 28.6326 107.344 28.6326H108.955C109.019 28.6326 109.051 28.6004 109.051 28.5361L108.903 28.4322H107.893C107.854 28.4322 107.755 28.2813 107.597 27.9796H107.196V28.0315C107.196 28.0612 107.211 28.1948 107.24 28.4322H106.788C106.753 28.4322 106.637 28.2813 106.439 27.9796H103.523C103.33 27.9796 103.214 28.1131 103.174 28.3803L103.271 28.4322H104.124C104.193 28.4421 104.228 28.4767 104.228 28.5361V28.5806L103.575 30.547H99.7533V30.4951L100.458 28.4842L98.9519 28.4322C98.8827 28.4322 98.848 28.4001 98.848 28.3358C99.0162 27.7965 99.135 27.5269 99.2042 27.5269H100.562C100.805 27.5269 100.97 27.2425 101.059 26.6736C101.119 26.6686 101.287 26.2506 101.564 25.4196L102.12 23.8093V23.7574H101.616C101.547 23.4457 101.534 23.3369 101.579 23.4309C101.534 23.3814 101.982 23.3567 102.922 23.3567C102.971 23.3468 103.238 22.6617 103.723 21.3013L104.428 19.2384V19.1865H104.176V19.1345C104.428 18.2787 104.698 17.5589 104.985 16.9752L105.586 16.9307ZM107.196 21.3013C106.835 22.7062 106.583 23.4086 106.439 23.4086H105.281C105.217 23.4086 105.168 23.5101 105.133 23.7129H105.437C105.635 23.7327 105.734 23.7821 105.734 23.8613C105.398 24.8952 105.23 25.4319 105.23 25.4715L105.482 25.516L105.838 25.4715C105.902 25.5012 105.952 25.516 105.986 25.516L106.291 25.4715C106.32 25.4715 106.335 25.4863 106.335 25.516L106.587 25.4715H107.441C107.475 25.4715 107.493 25.4863 107.493 25.516C107.829 25.4863 107.997 25.4369 107.997 25.3676V25.3157C107.874 25.0931 107.723 24.6577 107.545 24.0097C107.545 23.8365 107.394 23.7376 107.092 23.7129C107.092 23.6288 107.057 23.5447 106.988 23.4606C107.003 23.3913 107.038 23.3567 107.092 23.3567H107.945C107.777 22.7433 107.56 22.0581 107.292 21.3013H107.196ZM113.461 16.9232C113.639 16.9579 113.807 16.9752 113.965 16.9752C114.124 16.9752 114.292 16.9579 114.47 16.9232C114.544 16.9232 114.611 16.9406 114.67 16.9752C115.373 16.9406 115.944 16.9232 116.384 16.9232H118.395C120.043 16.9232 121.203 17.3091 121.875 18.0808L121.772 18.1328H121.423V18.2292C121.433 18.2985 121.465 18.3331 121.519 18.3331H122.128C122.573 18.7239 122.924 19.4635 123.181 20.5518H123.738C123.802 20.5617 123.834 20.5939 123.834 20.6483C123.726 20.7175 123.627 20.7522 123.538 20.7522L123.434 20.7002C123.231 20.7348 123.129 20.7695 123.129 20.8041C123.164 20.8684 123.181 20.9179 123.181 20.9525L123.033 21.0564H122.677V21.509C122.677 21.8652 122.494 22.4341 122.128 23.2157C122.058 23.2306 122.024 23.2652 122.024 23.3196H123.285V23.468H122.38C122.301 23.468 122.232 23.4853 122.172 23.5199C122.118 23.4853 122.051 23.468 121.972 23.468C121.873 23.5719 121.69 23.6387 121.423 23.6684C121.255 23.8267 121.171 23.9454 121.171 24.0245C121.235 24.0344 121.267 24.0691 121.267 24.1284C120.757 24.6281 120.035 24.9471 119.1 25.0856H118.499C118.064 25.0856 117.611 25.1005 117.141 25.1302C116.953 25.1005 116.817 25.0856 116.733 25.0856C116.506 25.1153 116.323 25.1302 116.184 25.1302L116.08 25.0856C116.021 25.1153 115.954 25.1302 115.88 25.1302V25.3825C115.88 25.4171 115.862 25.4344 115.828 25.4344C115.828 25.6718 115.996 25.7906 116.332 25.7906V30.0647C116.332 30.2329 116.399 30.317 116.533 30.317V30.4728C116.533 30.5371 116.501 30.5693 116.436 30.5693H114.27C113.983 30.5693 113.562 30.5544 113.008 30.5248C113.008 30.5544 112.991 30.5693 112.956 30.5693C112.946 30.4605 112.847 30.3442 112.659 30.2205V25.7386L112.407 25.6867H112.207V24.1729L111.851 23.9726V23.7203L112.303 23.468C112.922 23.4383 113.307 23.4235 113.461 23.4235V23.3715C113.362 23.3715 113.246 23.3542 113.112 23.3196L113.008 23.3715C112.825 23.3369 112.674 23.3196 112.555 23.3196H112.303C112.239 23.3196 112.207 23.285 112.207 23.2157V21.0564H112.407C112.605 21.0564 112.704 20.955 112.704 20.7522C112.857 20.7522 112.959 20.7348 113.008 20.7002C113.067 20.7348 113.134 20.7522 113.208 20.7522C113.278 20.7522 113.312 20.7175 113.312 20.6483C113.312 20.584 113.278 20.5518 113.208 20.5518H112.756C112.692 20.5518 112.659 20.4999 112.659 20.396C112.659 19.9804 112.674 19.5946 112.704 19.2384C112.674 18.9812 112.659 18.6967 112.659 18.3851L112.555 18.3331H112.051C111.987 18.3331 111.954 18.2985 111.954 18.2292C111.964 18.1649 111.996 18.1328 112.051 18.1328H112.555C112.635 18.1328 112.684 18.0487 112.704 17.8805L112.659 17.6282C112.684 17.1929 112.734 16.9752 112.808 16.9752H113.008C113.186 16.9752 113.337 16.9579 113.461 16.9232ZM111.502 18.1328H111.598C111.668 18.1427 111.702 18.1748 111.702 18.2292V18.3331H111.502C111.433 18.3331 111.398 18.2985 111.398 18.2292C111.408 18.1649 111.442 18.1328 111.502 18.1328ZM116.332 19.5946V20.4479C116.342 20.5172 116.377 20.5518 116.436 20.5518H116.889C116.953 20.5617 116.985 20.5939 116.985 20.6483C116.985 20.7175 116.953 20.7522 116.889 20.7522C116.815 20.7522 116.748 20.7348 116.689 20.7002C116.629 20.7348 116.562 20.7522 116.488 20.7522L116.384 20.7002C116.34 20.9377 116.29 21.0564 116.236 21.0564H115.88C115.88 21.2444 115.862 21.3606 115.828 21.4051C115.862 21.5882 115.88 21.7391 115.88 21.8578V21.9617C115.88 22.0359 115.862 22.1027 115.828 22.162C115.862 22.2214 115.88 22.2882 115.88 22.3624V22.5627H117.69C118.388 22.5627 118.875 22.1942 119.152 21.4571C119.152 21.2444 119.187 21.0935 119.256 21.0044L119.508 21.0564H119.56C119.625 21.0564 119.657 20.955 119.657 20.7522H120.161C120.161 20.7175 120.179 20.6656 120.213 20.5963L120.109 20.5518H119.56C119.234 19.9137 118.68 19.5946 117.898 19.5946H116.332ZM118.803 20.5963H119.353V20.7002H119.056L118.803 20.6483V20.5963ZM124.245 16.9455H127.71C127.779 16.9455 127.831 17.1285 127.866 17.4946H128.415C128.484 17.5095 128.519 17.5441 128.519 17.5985L128.363 17.7024C128.249 17.6678 128.182 17.6504 128.163 17.6504C128.103 17.6851 128.036 17.7024 127.962 17.7024V17.6504C127.898 17.6851 127.848 17.7024 127.814 17.7024V23.6313C127.814 23.7104 127.947 23.7599 128.214 23.7797C128.274 23.745 128.341 23.7277 128.415 23.7277C128.415 23.7426 128.449 23.792 128.519 23.8761V24.0319C128.519 24.0765 128.467 24.1259 128.363 24.1804H128.066C127.962 24.1804 127.91 24.163 127.91 24.1284L127.665 24.1804H127.161C127.092 24.1903 127.057 24.2249 127.057 24.2842V24.4846C127.067 24.5489 127.101 24.5811 127.161 24.5811H128.214V28.0983C128.214 28.1725 128.232 28.2393 128.266 28.2987C128.212 28.4668 128.111 28.5509 127.962 28.5509C127.962 28.5163 127.945 28.499 127.91 28.499L127.866 28.6029V30.0573C127.876 30.1265 127.908 30.1612 127.962 30.1612C128.022 30.1265 128.088 30.1092 128.163 30.1092C128.232 30.2329 128.266 30.3665 128.266 30.5099L128.163 30.5619H125.951C125.669 30.5619 125.219 30.5445 124.601 30.5099V30.2131L124.245 30.0128C124.245 29.9781 124.227 29.9608 124.193 29.9608L124.245 29.6046V29.3078C124.245 29.2287 124.227 29.1619 124.193 29.1075C124.227 29.0481 124.245 28.9813 124.245 28.9071V28.6548C124.245 28.5905 124.094 28.5064 123.792 28.4025C123.757 28.3382 123.74 28.2888 123.74 28.2541C123.794 28.1156 123.846 28.0464 123.896 28.0464H124.096C124.156 28.0464 124.205 28.1972 124.245 28.499H124.497C124.566 28.499 124.601 28.4668 124.601 28.4025V24.6849C124.601 24.6157 124.566 24.5811 124.497 24.5811C123.908 24.5464 123.557 24.5291 123.443 24.5291L123.391 24.4326V24.2842C123.391 24.2348 123.441 24.1828 123.54 24.1284C123.574 24.1284 123.592 24.1457 123.592 24.1804L123.695 24.1284H124.749C124.813 24.1284 124.846 24.0963 124.846 24.0319V23.8761L124.749 23.7277L124.393 23.7797H124.297C124.247 23.7797 124.198 23.7302 124.148 23.6313V17.7988L124.193 17.7024C124.143 17.6678 124.044 17.6504 123.896 17.6504V17.5466H124.148V17.0494C124.158 16.9801 124.19 16.9455 124.245 16.9455ZM124.497 17.5985C124.507 17.6678 124.541 17.7024 124.601 17.7024H124.697C124.766 17.7024 124.801 17.6678 124.801 17.5985C124.801 17.5292 124.766 17.4946 124.697 17.4946H124.601C124.531 17.5095 124.497 17.5441 124.497 17.5985ZM133.092 16.9307H136.052C136.112 16.9406 136.381 17.643 136.861 19.038L137.01 19.1345H137.514C137.603 19.2038 138.004 20.2772 138.716 22.3549L139.072 23.3567L138.969 23.4086H137.811V23.4606C137.811 23.6387 137.912 23.7376 138.115 23.7574L138.419 23.7129H138.464C138.607 23.7871 139.077 25.0584 139.874 27.5269L139.77 27.5789C139.656 27.5443 139.589 27.5269 139.57 27.5269C139.54 27.5269 139.525 27.5443 139.525 27.5789L139.169 27.5269H138.917C138.852 27.5368 138.82 27.5715 138.82 27.6308C138.998 28.1651 139.115 28.4322 139.169 28.4322H140.178C140.242 28.4421 140.275 28.4767 140.275 28.5361V28.5806C140.275 28.6499 140.242 28.6845 140.178 28.6845H139.072C138.993 28.6845 138.927 28.6672 138.872 28.6326C138.813 28.6672 138.744 28.6845 138.664 28.6845H137.611L137.262 28.6326L137.21 28.7365C137.22 28.8008 137.254 28.8329 137.314 28.8329H140.327C140.425 28.8329 140.643 29.387 140.98 30.4951V30.547H137.21C137.156 30.547 136.955 29.9757 136.609 28.8329H133.945C133.871 28.8329 133.804 28.8181 133.745 28.7884C133.685 28.8181 133.619 28.8329 133.544 28.8329C133.475 28.8329 133.44 28.8008 133.44 28.7365C133.475 28.7365 133.492 28.7191 133.492 28.6845C134.111 28.6499 134.563 28.6326 134.85 28.6326H136.461C136.525 28.6326 136.557 28.6004 136.557 28.5361L136.409 28.4322H135.399C135.36 28.4322 135.261 28.2813 135.103 27.9796H134.702V28.0315C134.702 28.0612 134.717 28.1948 134.746 28.4322H134.294C134.259 28.4322 134.143 28.2813 133.945 27.9796H131.029C130.836 27.9796 130.72 28.1131 130.68 28.3803L130.777 28.4322H131.63C131.699 28.4421 131.734 28.4767 131.734 28.5361V28.5806L131.081 30.547H127.259V30.4951L127.964 28.4842L126.458 28.4322C126.389 28.4322 126.354 28.4001 126.354 28.3358C126.522 27.7965 126.641 27.5269 126.71 27.5269H128.068C128.31 27.5269 128.476 27.2425 128.565 26.6736C128.625 26.6686 128.793 26.2506 129.07 25.4196L129.626 23.8093V23.7574H129.122C129.053 23.4457 129.04 23.3369 129.085 23.4309C129.04 23.3814 129.488 23.3567 130.428 23.3567C130.477 23.3468 130.744 22.6617 131.229 21.3013L131.934 19.2384V19.1865H131.682V19.1345C131.934 18.2787 132.204 17.5589 132.491 16.9752L133.092 16.9307ZM134.702 21.3013C134.341 22.7062 134.088 23.4086 133.945 23.4086H132.787C132.723 23.4086 132.674 23.5101 132.639 23.7129H132.943C133.141 23.7327 133.24 23.7821 133.24 23.8613C132.904 24.8952 132.735 25.4319 132.735 25.4715L132.988 25.516L133.344 25.4715C133.408 25.5012 133.458 25.516 133.492 25.516L133.797 25.4715C133.826 25.4715 133.841 25.4863 133.841 25.516L134.093 25.4715H134.947C134.981 25.4715 134.999 25.4863 134.999 25.516C135.335 25.4863 135.503 25.4369 135.503 25.3676V25.3157C135.38 25.0931 135.229 24.6577 135.051 24.0097C135.051 23.8365 134.9 23.7376 134.598 23.7129C134.598 23.6288 134.563 23.5447 134.494 23.4606C134.509 23.3913 134.544 23.3567 134.598 23.3567H135.451C135.283 22.7433 135.065 22.0581 134.798 21.3013H134.702Z" fill="#FFCC00"/>
<path d="M102.105 33.9879C102.109 33.9642 102.121 33.9385 102.141 33.9108C102.165 33.8831 102.192 33.8574 102.224 33.8337C102.256 33.8099 102.289 33.7921 102.325 33.7802C102.361 33.7644 102.394 33.7565 102.426 33.7565H103.945C104.012 33.7565 104.07 33.7783 104.117 33.8218C104.165 33.8613 104.2 33.8969 104.224 33.9286L104.372 34.2668L107.487 42.3013C107.519 42.3805 107.513 42.4457 107.47 42.4972C107.426 42.5446 107.351 42.5684 107.244 42.5684H105.541C105.45 42.5684 105.379 42.5525 105.328 42.5209C105.28 42.4853 105.242 42.4279 105.215 42.3488C105.136 42.1471 105.059 41.9473 104.983 41.7495C104.908 41.5477 104.833 41.346 104.758 41.1442H101.607C101.532 41.346 101.455 41.5477 101.376 41.7495C101.3 41.9473 101.225 42.1471 101.15 42.3488C101.099 42.4952 100.998 42.5684 100.847 42.5684H99.097C99.0218 42.5684 98.9585 42.5486 98.9071 42.509C98.8596 42.4695 98.8517 42.4101 98.8833 42.331L102.105 33.9879ZM103.185 36.5276C103.11 36.7294 103.033 36.947 102.954 37.1804C102.879 37.4138 102.804 37.6492 102.729 37.8865C102.653 38.1239 102.576 38.3592 102.497 38.5926C102.422 38.8221 102.347 39.0377 102.272 39.2394H104.093L103.185 36.5276ZM108.462 34.0117C108.462 33.9405 108.486 33.8791 108.533 33.8277C108.581 33.7763 108.646 33.7506 108.729 33.7506H110.486C110.553 33.7506 110.614 33.7743 110.67 33.8218C110.725 33.8693 110.755 33.9326 110.759 34.0117V40.4678H114.022C114.093 40.4678 114.155 40.4915 114.206 40.539C114.258 40.5864 114.283 40.6517 114.283 40.7348V42.2954C114.283 42.3627 114.26 42.424 114.212 42.4794C114.169 42.5347 114.105 42.5644 114.022 42.5684H108.723C108.549 42.5684 108.462 42.4813 108.462 42.3073V34.0117ZM115.557 34.0295C115.557 33.9464 115.579 33.8811 115.623 33.8337C115.666 33.7822 115.731 33.7565 115.818 33.7565H119.61C119.883 33.7565 120.14 33.7941 120.381 33.8693C120.623 33.9444 120.844 34.0492 121.046 34.1838C121.248 34.3143 121.43 34.4725 121.592 34.6585C121.754 34.8404 121.891 35.0382 122.001 35.2519C122.116 35.4655 122.203 35.691 122.263 35.9283C122.322 36.1617 122.352 36.3991 122.352 36.6404C122.352 36.9964 122.286 37.3445 122.156 37.6848C122.029 38.025 121.847 38.3276 121.61 38.5926C121.372 38.8577 121.088 39.0733 120.755 39.2394C120.423 39.4016 120.055 39.4847 119.652 39.4887H117.854V42.3132C117.854 42.4833 117.763 42.5684 117.581 42.5684H115.818C115.739 42.5684 115.676 42.5486 115.628 42.509C115.581 42.4655 115.557 42.4002 115.557 42.3132V34.0295ZM120.025 36.6285C120.025 36.5098 120.004 36.3912 119.96 36.2725C119.921 36.1538 119.861 36.049 119.782 35.958C119.703 35.863 119.606 35.7859 119.491 35.7266C119.381 35.6672 119.254 35.6376 119.112 35.6376H117.854V37.6195H119.112C119.254 37.6195 119.383 37.5918 119.497 37.5364C119.612 37.4771 119.707 37.4019 119.782 37.3109C119.861 37.2199 119.921 37.1151 119.96 36.9964C120.004 36.8777 120.025 36.7551 120.025 36.6285ZM123.667 34.0176C123.671 33.9504 123.695 33.891 123.739 33.8396C123.786 33.7842 123.847 33.7565 123.923 33.7565H125.685C125.744 33.7565 125.806 33.7822 125.869 33.8337C125.932 33.8811 125.964 33.9424 125.964 34.0176V36.8303H128.913V34.0176C128.913 33.9464 128.937 33.8851 128.984 33.8337C129.036 33.7822 129.101 33.7565 129.18 33.7565H130.919C130.998 33.7565 131.067 33.7763 131.126 33.8158C131.186 33.8554 131.215 33.9187 131.215 34.0057V42.3073C131.215 42.3943 131.19 42.4596 131.138 42.5031C131.087 42.5466 131.02 42.5684 130.936 42.5684H129.18C129.101 42.5684 129.036 42.5466 128.984 42.5031C128.937 42.4596 128.913 42.3943 128.913 42.3073V38.9368H125.964V42.3073C125.964 42.3903 125.936 42.4556 125.881 42.5031C125.829 42.5466 125.758 42.5684 125.667 42.5684H123.923C123.756 42.5684 123.671 42.4912 123.667 42.3369V34.0176ZM135.669 33.9879C135.673 33.9642 135.685 33.9385 135.705 33.9108C135.728 33.8831 135.756 33.8574 135.788 33.8337C135.819 33.8099 135.853 33.7921 135.889 33.7802C135.924 33.7644 135.958 33.7565 135.99 33.7565H137.509C137.576 33.7565 137.633 33.7783 137.681 33.8218C137.728 33.8613 137.764 33.8969 137.787 33.9286L137.936 34.2668L141.051 42.3013C141.083 42.3805 141.077 42.4457 141.033 42.4972C140.99 42.5446 140.915 42.5684 140.808 42.5684H139.105C139.014 42.5684 138.943 42.5525 138.891 42.5209C138.844 42.4853 138.806 42.4279 138.778 42.3488C138.699 42.1471 138.622 41.9473 138.547 41.7495C138.472 41.5477 138.397 41.346 138.322 41.1442H135.171C135.095 41.346 135.018 41.5477 134.939 41.7495C134.864 41.9473 134.789 42.1471 134.714 42.3488C134.662 42.4952 134.561 42.5684 134.411 42.5684H132.661C132.585 42.5684 132.522 42.5486 132.471 42.509C132.423 42.4695 132.415 42.4101 132.447 42.331L135.669 33.9879ZM136.749 36.5276C136.674 36.7294 136.597 36.947 136.518 37.1804C136.442 37.4138 136.367 37.6492 136.292 37.8865C136.217 38.1239 136.14 38.3592 136.061 38.5926C135.986 38.8221 135.91 39.0377 135.835 39.2394H137.657L136.749 36.5276Z" fill="#011D63"/>
</svg>
