<svg width="72" height="72" viewBox="0 0 72 72" fill="none" xmlns="http://www.w3.org/2000/svg">
<path d="M23.72 33.1C22.2405 33.105 20.7872 33.4907 19.5 34.22C21.3123 29.529 24.3181 25.3926 28.22 22.22C28.4432 22.0362 28.6281 21.8101 28.764 21.5549C28.8999 21.2996 28.9842 21.02 29.012 20.7322C29.0399 20.4443 29.0108 20.1538 28.9263 19.8772C28.8419 19.6005 28.7038 19.3433 28.52 19.12C28.3361 18.8968 28.1101 18.7119 27.8548 18.576C27.5995 18.4401 27.32 18.3558 27.0321 18.328C26.7443 18.3001 26.4537 18.3292 26.1771 18.4137C25.9005 18.4981 25.6432 18.6362 25.42 18.82C17.42 25.32 13.86 34.32 13.86 39.9C13.8738 41.873 14.4617 43.7993 15.5521 45.4437C16.6424 47.0881 18.1879 48.3794 20 49.16C21.1727 49.7281 22.457 50.0287 23.76 50.04C24.9069 50.0958 26.0532 49.918 27.1294 49.5175C28.2055 49.117 29.1892 48.5021 30.0206 47.7101C30.852 46.9181 31.5139 45.9655 31.9662 44.9101C32.4185 43.8546 32.6517 42.7183 32.6517 41.57C32.6517 40.4217 32.4185 39.2854 31.9662 38.23C31.5139 37.1745 30.852 36.2219 30.0206 35.4299C29.1892 34.6379 28.2055 34.023 27.1294 33.6225C26.0532 33.222 24.9069 33.0443 23.76 33.1H23.72Z" fill="#011D63"/>
<path d="M46 33.1C44.5203 33.1032 43.0666 33.4891 41.78 34.22C43.5916 29.534 46.5895 25.3989 50.48 22.22C50.7235 22.0445 50.9285 21.821 51.0824 21.5633C51.2363 21.3056 51.3359 21.0191 51.3749 20.7215C51.4139 20.4238 51.3917 20.1214 51.3094 19.8327C51.2272 19.544 51.0868 19.2752 50.8967 19.0428C50.7067 18.8104 50.4712 18.6193 50.2046 18.4814C49.938 18.3435 49.646 18.2615 49.3465 18.2407C49.0471 18.2198 48.7465 18.2604 48.4633 18.3601C48.1802 18.4597 47.9204 18.6162 47.7 18.82C39.7 25.32 36.14 34.32 36.14 39.9C36.1495 41.8507 36.7203 43.7574 37.7843 45.3923C38.8482 47.0273 40.3604 48.3214 42.14 49.12C43.3424 49.7048 44.663 50.0058 46 50C47.1469 50.0558 48.2932 49.878 49.3694 49.4775C50.4456 49.077 51.4292 48.4621 52.2606 47.6701C53.092 46.8781 53.754 45.9255 54.2062 44.8701C54.6585 43.8146 54.8917 42.6783 54.8917 41.53C54.8917 40.3818 54.6585 39.2455 54.2062 38.19C53.754 37.1345 53.092 36.1819 52.2606 35.3899C51.4292 34.5979 50.4456 33.9831 49.3694 33.5826C48.2932 33.1821 47.1469 33.0043 46 33.06V33.1Z" fill="#011D63"/>
</svg>
