<svg width="72" height="72" viewBox="0 0 72 72" fill="none" xmlns="http://www.w3.org/2000/svg">
<path d="M48.28 33.1C49.7595 33.105 51.2128 33.4907 52.5 34.22C50.6877 29.529 47.6819 25.3926 43.78 22.22C43.5568 22.0362 43.3719 21.8101 43.236 21.5549C43.1001 21.2996 43.0158 21.02 42.988 20.7322C42.9601 20.4443 42.9892 20.1538 43.0737 19.8772C43.1581 19.6005 43.2962 19.3433 43.48 19.12C43.6639 18.8968 43.8899 18.7119 44.1452 18.576C44.4005 18.4401 44.68 18.3558 44.9679 18.328C45.2557 18.3001 45.5463 18.3292 45.8229 18.4137C46.0995 18.4981 46.3568 18.6362 46.58 18.82C54.58 25.32 58.14 34.32 58.14 39.9C58.1262 41.873 57.5383 43.7993 56.4479 45.4437C55.3576 47.0881 53.8121 48.3794 52 49.16C50.8273 49.7281 49.543 50.0287 48.24 50.04C47.0931 50.0958 45.9468 49.918 44.8706 49.5175C43.7945 49.117 42.8108 48.5021 41.9794 47.7101C41.148 46.9181 40.4861 45.9655 40.0338 44.9101C39.5815 43.8546 39.3483 42.7183 39.3483 41.57C39.3483 40.4217 39.5815 39.2854 40.0338 38.23C40.4861 37.1745 41.148 36.2219 41.9794 35.4299C42.8108 34.6379 43.7945 34.023 44.8706 33.6225C45.9468 33.222 47.0931 33.0443 48.24 33.1H48.28Z" fill="#011D63"/>
<path d="M26 33.1C27.4797 33.1032 28.9334 33.4891 30.22 34.22C28.4084 29.534 25.4105 25.3989 21.52 22.22C21.2765 22.0445 21.0715 21.821 20.9176 21.5633C20.7637 21.3056 20.6641 21.0191 20.6251 20.7215C20.5861 20.4238 20.6083 20.1214 20.6906 19.8327C20.7728 19.544 20.9132 19.2752 21.1033 19.0428C21.2933 18.8104 21.5288 18.6193 21.7954 18.4814C22.062 18.3435 22.354 18.2615 22.6535 18.2407C22.9529 18.2198 23.2535 18.2604 23.5367 18.3601C23.8198 18.4597 24.0796 18.6162 24.3 18.82C32.3 25.32 35.86 34.32 35.86 39.9C35.8505 41.8507 35.2797 43.7574 34.2157 45.3923C33.1518 47.0273 31.6396 48.3214 29.86 49.12C28.6576 49.7048 27.337 50.0058 26 50C24.8531 50.0558 23.7068 49.878 22.6306 49.4775C21.5544 49.077 20.5708 48.4621 19.7394 47.6701C18.908 46.8781 18.246 45.9255 17.7938 44.8701C17.3415 43.8146 17.1083 42.6783 17.1083 41.53C17.1083 40.3818 17.3415 39.2455 17.7938 38.19C18.246 37.1345 18.908 36.1819 19.7394 35.3899C20.5708 34.5979 21.5544 33.9831 22.6306 33.5826C23.7068 33.1821 24.8531 33.0043 26 33.06V33.1Z" fill="#011D63"/>
</svg>
