<svg width="42" height="42" viewBox="0 0 42 42" fill="none" xmlns="http://www.w3.org/2000/svg">
<path opacity="0.3" d="M8.75 8.75V33.25H24.5V24.5H33.25V8.75H8.75ZM21 24.5H12.25V21H21V24.5ZM29.75 17.5H12.25V14H29.75V17.5Z" fill="#323232"/>
<path d="M33.25 8.74988V24.4999H24.5V33.2499H8.75V8.74988H33.25ZM33.25 5.24988H8.75C6.825 5.24988 5.25 6.82488 5.25 8.74988V33.2499C5.25 35.1749 6.825 36.7499 8.75 36.7499H26.25L36.75 26.2499V8.74988C36.75 6.82488 35.175 5.24988 33.25 5.24988ZM21 24.4999H12.25V20.9999H21V24.4999ZM29.75 17.4999H12.25V13.9999H29.75V17.4999Z" fill="#ED145B"/>
</svg>
