<svg width="42" height="42" viewBox="0 0 42 42" fill="none" xmlns="http://www.w3.org/2000/svg">
<path opacity="0.3" d="M14 13.125L21 20.125L28 13.125V7H14V13.125ZM14 28.875V35H28V28.875L21 21.875L14 28.875Z" fill="#323232"/>
<path d="M31.4999 3.49976H10.4999V13.9998H10.5174L10.4999 14.0173L17.4999 20.9998L10.4999 27.9998L10.5174 28.0173H10.4999V38.4998H31.4999V28.0173H31.4824L31.4999 27.9998L24.4999 20.9998L31.4999 14.0173L31.4824 13.9998H31.4999V3.49976ZM27.9999 28.8748V34.9998H13.9999V28.8748L20.9999 21.8748L27.9999 28.8748ZM27.9999 13.1248L20.9999 20.1248L13.9999 13.1248V6.99976H27.9999V13.1248Z" fill="#ED145B"/>
</svg>
