<svg width="25" height="23" viewBox="0 0 25 23" fill="none" xmlns="http://www.w3.org/2000/svg">
<g clip-path="url(#clip0_383_987)">
<path d="M11.9551 12.2971C11.9531 12.2881 11.9541 12.3105 11.9551 12.2971V12.2971Z" fill="#FFCC00"/>
<path d="M15.7276 5.86901C15.7304 5.86638 15.7306 5.86425 15.7329 5.86129C15.7124 5.8368 15.6951 5.81527 15.6826 5.79785L15.7276 5.86901Z" fill="#FFCC00"/>
<path d="M16.8452 4.80414L16.8576 4.8025C16.8422 4.79083 16.8287 4.77735 16.8452 4.80414Z" fill="#FFCC00"/>
<path d="M13.9405 8.91309C13.9369 8.91717 13.9348 8.9224 13.9346 8.92786C13.9344 8.93333 13.9361 8.93869 13.9395 8.943C13.9373 8.9331 13.9376 8.92281 13.9405 8.91309V8.91309Z" fill="#FFCC00"/>
<path d="M11.4988 11.9217H11.5022L11.5139 11.9053L11.4988 11.9217Z" fill="#FFCC00"/>
<path d="M11.5457 11.8955C11.5416 11.9035 11.5354 11.9102 11.5277 11.9149C11.52 11.9195 11.5112 11.9219 11.5022 11.9218C11.4764 11.9589 11.4824 11.9732 11.5043 11.9711C11.5398 11.9368 11.5204 11.9228 11.5457 11.8955Z" fill="#FFCC00"/>
<path d="M7.7019 8.42585L7.72573 8.41846C7.71741 8.41948 7.70934 8.42199 7.7019 8.42585Z" fill="#FFCC00"/>
<path d="M16.0149 10.0693C16.0149 10.0777 16.0124 10.0858 16.0131 10.0937C16.016 10.0904 16.0177 10.0862 16.018 10.0818C16.0184 10.0774 16.0172 10.073 16.0149 10.0693Z" fill="#FFCC00"/>
<path d="M8.34863 8.94341L8.40221 8.8877C8.38173 8.90355 8.36368 8.92232 8.34863 8.94341V8.94341Z" fill="#FFCC00"/>
<path d="M15.682 5.79762L15.6655 5.77051C15.6701 5.78005 15.6756 5.78912 15.682 5.79762V5.79762Z" fill="#FFCC00"/>
<path d="M17.8148 3.77881C17.83 3.79181 17.8465 3.80316 17.8641 3.81266C17.8651 3.81167 17.8661 3.81078 17.8672 3.81003L17.8148 3.77881Z" fill="#FFCC00"/>
<path d="M23.8616 0.0913626C23.8554 0.0834519 23.8487 0.0759326 23.8416 0.0688477L23.8499 0.128997C23.8586 0.118447 23.8628 0.104947 23.8616 0.0913626V0.0913626Z" fill="#FFCC00"/>
<path d="M19.3935 2.62572C19.3896 2.61744 19.385 2.60952 19.3797 2.60205C19.3371 2.6055 19.2717 2.66253 19.1963 2.74371L19.2574 2.8157C19.3028 2.75242 19.3457 2.68669 19.3935 2.62572Z" fill="#FFCC00"/>
<path d="M22.3705 2.88514L22.1029 2.86674C22.508 2.39014 22.8619 2.37174 23.1746 1.91947L23.1771 1.97008C23.2205 1.96334 23.1851 1.8695 23.262 1.7617C23.339 1.65389 23.538 1.54246 24.0297 1.50171L24.0409 1.51699C24.0624 1.49694 24.0409 1.46654 24.1165 1.47278L23.9312 1.46522C23.9735 1.37516 23.9822 1.25634 24.069 1.17631C24.1018 1.17861 24.1306 1.20523 24.1501 1.2284C24.2202 1.16201 24.292 1.09841 24.3658 1.0376L24.5083 1.08904C24.5426 0.985998 24.3638 0.79536 24.6397 0.78287C24.4657 0.684264 24.6764 0.628552 24.6014 0.569224C24.6236 0.580892 24.6645 0.593218 24.7 0.60653C24.8046 0.511047 24.9959 0.321395 25.0006 0.207177C25.0006 0.207177 24.8363 0.204876 24.6391 0.194522C24.4419 0.184169 24.2165 0.165598 24.0999 0.128785C24.2949 0.055817 24.1327 0.0807971 24.0649 0.0533519L24.0787 0.0977244C23.9533 0.129607 23.8892 0.0365889 23.8206 0.0449704C23.827 0.0533745 23.8339 0.0613361 23.8413 0.0688001L23.8394 0.0523658C23.8457 0.0569224 23.8509 0.062796 23.8547 0.0695788C23.8585 0.0763616 23.8608 0.0838909 23.8614 0.0916438C23.8764 0.110708 23.8826 0.129607 23.8512 0.14259L23.8497 0.129278C23.8169 0.17135 23.7347 0.205862 23.6974 0.220817L23.6425 0.143905C23.6714 0.339144 22.9905 0.281624 22.885 0.350484C22.7143 0.328462 22.6796 0.538328 22.5195 0.582372C22.3042 0.706286 22.3388 0.548517 22.1909 0.560514C22.0331 0.610967 22.2829 0.62773 22.2382 0.671774L22.012 0.684593C22.0896 0.608009 22.0086 0.599956 21.9705 0.583686C21.8349 0.671774 21.5267 0.697083 21.6061 0.874573C21.379 0.94031 21.3302 0.883448 21.251 0.935051C21.2975 0.941789 21.366 0.92667 21.3905 0.955759C21.2694 0.946391 21.3709 0.997666 21.4107 0.989613C21.3557 1.12898 20.6621 1.17811 20.7732 1.35265L20.7486 1.32405C20.8258 1.46078 20.9611 1.54164 20.9469 1.66654L20.8551 1.65504L20.8284 1.76597C20.7484 1.76909 20.7445 1.71831 20.732 1.70401C20.6662 1.85833 20.4455 1.92883 20.2984 2.04108L20.7233 2.22186C20.5425 2.24979 20.2095 2.29877 20.2779 2.41808L20.1136 2.37815C19.7027 2.39458 20.0358 2.61151 19.8902 2.63699L19.6703 2.63255L19.7854 2.52803C19.6181 2.57733 19.5379 2.58456 19.3771 2.59804C19.3781 2.59919 19.378 2.60099 19.3789 2.60198C19.3836 2.60106 19.3885 2.6011 19.3931 2.60212C19.3978 2.60314 19.4022 2.60511 19.4061 2.6079L19.3928 2.62565C19.4317 2.69303 19.4102 2.78736 19.33 2.8623C19.2049 2.95811 19.2 3.12426 18.9093 3.18704L18.9776 3.34152L18.7794 3.4089L18.6897 3.32164C18.8241 3.19624 19.0335 2.91653 19.1955 2.74364L19.1584 2.69993C19.0598 2.80018 18.9865 2.95302 18.9119 3.01004C18.8626 3.02451 18.6882 3.0158 18.6874 2.89648L18.7134 3.04439C18.3931 3.38951 18.3926 3.39083 17.9584 3.65772L18.0331 3.66906C17.9944 3.76602 17.9554 3.86167 17.8621 3.81286C17.6484 4.01747 17.3791 4.18608 17.136 4.22947L17.2195 4.35881C17.173 4.40071 16.9439 4.32594 17.08 4.48469L17.0426 4.62866C16.9787 4.68634 17.0098 4.78067 16.8814 4.79974C16.8731 4.80114 16.8647 4.80207 16.8563 4.80253C16.8595 4.80512 16.8628 4.80748 16.8663 4.8096C16.6913 4.91461 16.9685 4.89341 16.7605 5.00681C16.6339 4.99366 16.8532 5.18644 16.7582 5.24642L16.5251 5.19383C16.308 5.26844 16.4527 5.42999 16.2786 5.65071C16.2415 5.66566 16.2017 5.67308 16.1617 5.67253C16.1217 5.67197 16.0821 5.66345 16.0454 5.64747C16.0087 5.63149 15.9756 5.60836 15.9479 5.57943C15.9202 5.5505 15.8985 5.51635 15.8842 5.47897C15.9586 5.69721 15.9478 5.60206 15.9187 5.78875C15.8403 5.75934 15.8378 5.73518 15.8037 5.66221C15.6393 5.71973 15.8037 5.77725 15.7318 5.86123C15.8305 5.97873 15.9966 6.15392 15.9823 6.18761L16.0456 6.18318C16.0379 6.32336 15.9871 6.44251 15.8484 6.50611L15.7912 6.45681L15.7369 6.59486L15.6548 6.54407L15.5575 6.72649L15.595 6.71959C15.5767 6.76594 15.5103 6.9122 15.4161 6.95477L15.3749 6.92042C15.0911 7.02872 15.1358 7.32125 14.9859 7.57779L14.9182 7.48247C14.7718 7.50384 15.0405 7.60244 14.9279 7.67064L14.814 7.59866C14.8991 7.78749 14.7055 7.69069 14.6087 7.7137L14.7731 7.78535L14.6644 7.87837C14.5303 7.9709 14.4276 7.83022 14.3642 7.75955L14.4201 7.9239L14.2814 7.8529C14.3882 8.01724 14.214 7.89957 14.2191 8.06424C14.164 8.04058 14.155 7.99391 14.1085 8.01757L14.1663 8.32095L14.1601 8.15759L14.3409 8.29679C14.4066 8.50518 14.2158 8.4373 14.2164 8.55547L14.1962 8.4613C14.1563 8.62679 14.0708 8.5811 13.9798 8.63041C14.0304 8.63041 14.1062 8.62761 14.0963 8.69844C14.0814 8.74545 14.0153 8.67692 13.9701 8.7014C14.0915 8.79261 14.0976 8.93263 13.9818 8.98194C13.9655 8.97169 13.9513 8.95854 13.9399 8.94315C13.9463 8.97881 13.9719 9.01135 13.9164 9.03074L13.7883 8.91768L13.8759 9.07857C13.8051 9.10421 13.8621 9.24291 13.7701 9.17537L13.7596 9.12886L13.4836 9.48811L13.3653 9.42237C13.5011 9.5573 13.1803 9.59806 13.3857 9.70504C13.2343 9.71343 13.2927 10.039 13.0937 9.86248C12.9252 10.109 13.0608 10.3719 12.7691 10.6199C12.5148 10.6237 12.4085 10.9695 12.2772 11.1623L12.1865 11.4712C12.1728 11.5196 12.1594 11.5667 12.1462 11.6134L12.1265 11.6829C12.1206 11.7048 12.1073 11.7398 12.1249 11.7186C12.1501 11.7773 12.1622 11.8408 12.1603 11.9046C12.0391 11.8022 12.0532 11.8334 12.0617 11.9141C12.0726 11.9883 12.0772 12.1148 12.0289 12.0208C12.0434 12.0836 12.0572 12.1483 12.0701 12.2151C12.0208 12.0956 12.0169 12.1303 12.0069 12.1787C11.9983 12.2238 11.9829 12.2857 11.9544 12.1271C11.9587 12.2422 11.9572 12.2847 11.9564 12.2964C11.9585 12.3054 11.9638 12.3478 11.9769 12.4995C11.9677 12.4561 11.9605 12.478 11.9546 12.4716C11.948 12.4727 11.9411 12.4059 11.9345 12.2494V12.2198C11.9288 12.0962 11.9262 12.0852 11.9234 12.1012C11.9199 12.1281 11.9092 12.2111 11.9045 12.0456L11.9107 12.3717L11.8931 12.2851L11.8982 12.2344C11.8798 12.3722 11.8509 12.3909 11.8303 12.3689C11.8098 12.3469 11.7947 12.2805 11.7829 12.221C11.771 12.1615 11.7635 12.1059 11.7452 12.0836C11.727 12.0612 11.6959 12.0693 11.6228 12.1092C11.6783 12.0302 11.6604 12.0461 11.6417 12.0566C11.6229 12.0671 11.6013 12.0694 11.6581 11.9782C11.7201 11.8468 11.7074 11.8546 11.663 11.8828C11.6187 11.9109 11.5426 11.9649 11.5046 11.969C11.4958 11.9775 11.4862 11.9851 11.4759 11.9917L11.4612 11.9501L11.4547 11.9314L11.4274 11.8854C11.7101 11.8422 11.1626 11.8809 11.4083 11.8512C11.3531 11.7007 11.2786 11.558 11.1866 11.4267C11.088 11.2893 10.9743 11.1544 10.8558 11.0201L10.4849 10.6239C10.3596 10.4962 10.2431 10.3602 10.1361 10.2168L10.1107 10.2839C9.99562 10.1489 9.78461 10.051 9.76193 9.88204C9.73514 9.71408 9.43324 9.80086 9.39052 9.7739C9.20974 9.75747 9.25904 9.50389 9.29783 9.55401C9.15731 9.47349 8.89781 9.55237 8.79806 9.33757C8.87267 9.12541 8.21086 9.13247 8.3494 8.94315L8.33527 8.95778C8.27479 8.80773 8.14743 8.7507 8.01842 8.69483C7.88694 8.64257 7.75235 8.59261 7.67083 8.4447C7.68068 8.43703 7.69138 8.43052 7.70271 8.42531C7.39967 8.51339 7.09859 8.6189 6.81198 8.72457C6.7217 8.98347 6.62857 9.24039 6.53259 9.49534C6.55083 9.76273 6.56267 10.0232 6.56152 10.2886C6.9188 10.4687 7.26523 10.6803 7.60904 10.9029C7.80181 11.1784 7.98407 11.4564 8.15137 11.7429C8.44176 12.0026 8.71178 12.2872 8.97999 12.5746C9.10998 12.7242 9.24063 12.8663 9.36866 13.0244L9.56061 13.2608L9.5846 13.2903C9.59591 13.3037 9.60644 13.3177 9.61616 13.3323L9.70605 13.4611L9.88535 13.718C9.99491 13.772 10.1003 13.8197 10.2014 13.8611C10.2426 13.9865 10.2878 14.127 10.3426 14.2623C10.3973 14.3975 10.4592 14.5308 10.526 14.6606C10.5927 14.7905 10.6647 14.9129 10.737 15.0452C10.8093 15.1775 10.8836 15.3081 10.958 15.4358C11.2575 15.9532 11.5418 16.418 11.7998 17.1526L11.8162 16.848C11.9541 17.0913 11.9464 17.2845 11.9832 17.4129C12.033 17.5049 12.0831 17.5971 12.1332 17.6895C12.199 17.5692 12.2691 17.3997 12.3378 17.2423L12.5434 16.7657L12.9472 15.8166C13.2085 15.1874 13.4807 14.5822 13.7433 14.0003L14.1377 13.1439L14.2372 12.9352L14.317 12.7855L14.4362 12.574C14.5982 12.2956 14.7668 12.0292 14.9562 11.7879C15.1073 11.7345 15.2418 11.3864 15.3834 11.3596C15.4061 11.1436 15.466 10.933 15.5606 10.7374C15.6558 10.5488 15.7742 10.3736 15.8914 10.206L15.8977 10.2283L15.9757 10.0492C15.9833 10.0493 15.9907 10.0513 15.9973 10.0549C16.0039 10.0586 16.0095 10.0638 16.0137 10.07C16.0137 9.94104 16.089 9.82206 16.1872 9.71178C16.289 9.60364 16.4155 9.50537 16.5136 9.41136L16.5189 9.43371C16.9615 8.7982 17.3501 8.15891 17.7712 7.54065C17.9881 7.23711 18.2026 6.93028 18.4463 6.64449C18.694 6.36215 18.9536 6.08572 19.2471 5.83362C19.5834 5.65629 19.8223 5.35702 20.072 5.04477C20.3307 4.74337 20.5929 4.42224 20.9566 4.21254C21.0653 4.21714 21.3977 3.91886 21.7106 3.59888C22.0301 3.28581 22.3404 2.96222 22.3705 2.88514Z" fill="#FFCC00"/>
<path d="M24.1502 1.22852L24.1456 1.23295C24.1839 1.2862 24.177 1.2604 24.1502 1.22852Z" fill="#FFCC00"/>
<path d="M20.2888 2.04748L20.2981 2.0409L20.2045 2.00195L20.2888 2.04748Z" fill="#FFCC00"/>
<path d="M22.0308 0.506836C21.9365 0.556139 21.9424 0.571587 21.9702 0.583091C22.002 0.562548 22.0249 0.537897 22.0308 0.506836Z" fill="#FFCC00"/>
<path d="M24.7412 0.672182C24.787 0.647531 24.7491 0.626002 24.6994 0.606445L24.6317 0.66643C24.6644 0.663308 24.7078 0.675798 24.7412 0.672182Z" fill="#FFCC00"/>
<path d="M24.0651 0.0532471L24.0487 0C24.0301 0.0284313 24.0421 0.0437152 24.0651 0.0532471Z" fill="#FFCC00"/>
<path d="M13.5399 21.9878C13.5659 21.9878 13.5759 21.9757 13.5399 21.9878V21.9878Z" fill="#FFCC00"/>
<path d="M0.109238 11.2314C0.109238 11.2235 0.109238 11.2195 0.109238 11.2118C0.082083 11.1998 0.0557814 11.186 0.0305176 11.1704L0.109238 11.2314Z" fill="#FFCC00"/>
<path d="M0.788901 8.128L0.802705 8.11157C0.783806 8.10812 0.767043 8.09891 0.788901 8.128Z" fill="#FFCC00"/>
<path d="M2.63904 17.9443C2.64342 17.9527 2.64962 17.96 2.65718 17.9657C2.66474 17.9714 2.67348 17.9753 2.68275 17.9772C2.66658 17.9686 2.65184 17.9575 2.63904 17.9443V17.9443Z" fill="#FFCC00"/>
<path d="M18.4803 19.2354L18.4723 19.2464C18.4846 19.2429 18.4971 19.2401 18.5098 19.238L18.4803 19.2354Z" fill="#FFCC00"/>
<path d="M18.4703 19.3169C18.4046 19.3458 18.4539 19.2714 18.4723 19.2466C18.434 19.2552 18.3978 19.2714 18.3659 19.2942C18.3339 19.317 18.3069 19.346 18.2863 19.3794C18.3186 19.4155 18.421 19.3131 18.4703 19.3169Z" fill="#FFCC00"/>
<path d="M21.7128 9.93945L21.7363 9.96706C21.73 9.95662 21.7221 9.94729 21.7128 9.93945Z" fill="#FFCC00"/>
<path d="M4.37524 16.3062C4.38609 16.3132 4.39595 16.3226 4.40647 16.3288C4.4034 16.3229 4.39897 16.3177 4.39355 16.3138C4.38813 16.3098 4.38186 16.3072 4.37524 16.3062V16.3062Z" fill="#FFCC00"/>
<path d="M21.7563 11.5391L21.8328 11.558C21.8095 11.5448 21.7831 11.5383 21.7563 11.5391Z" fill="#FFCC00"/>
<path d="M0.0299104 11.1703L0 11.1465C0.0087942 11.1558 0.0188645 11.1638 0.0299104 11.1703V11.1703Z" fill="#FFCC00"/>
<path d="M2.05005 5.51514C2.06762 5.52516 2.08711 5.53138 2.10724 5.53338L2.11184 5.5268L2.05005 5.51514Z" fill="#FFCC00"/>
<path d="M14.4541 2.25518C14.4564 2.24517 14.4576 2.2349 14.4575 2.22461L14.3906 2.25846C14.4117 2.26321 14.4336 2.26208 14.4541 2.25518V2.25518Z" fill="#FFCC00"/>
<path d="M4.94666 2.88814C4.9442 2.87894 4.94666 2.86694 4.9414 2.85889C4.87452 2.87943 4.72562 2.97393 4.55701 3.12052L4.60631 3.20269C4.71445 3.09242 4.82998 2.99102 4.94666 2.88814Z" fill="#FFCC00"/>
<path d="M9.25716 3.2408L8.89101 3.13875C9.39521 2.95304 9.79275 2.91672 10.1627 2.88171C10.3495 2.8753 10.5293 2.85312 10.7215 2.84375C10.8174 2.83701 10.9157 2.82501 11.0189 2.81187C11.1223 2.80266 11.2306 2.78919 11.3461 2.76996L11.2947 2.81088C11.3604 2.83323 11.4143 2.73446 11.639 2.70948C11.7511 2.69633 11.9064 2.70241 12.121 2.75878C12.3356 2.81515 12.6093 2.92181 12.9381 3.12198L12.9343 3.14039C12.9836 3.14729 12.9923 3.10883 13.0788 3.18131C13.0066 3.1233 12.932 3.0712 12.8568 3.01697C13.0144 2.99889 13.1652 2.93973 13.3684 2.9772C13.3829 2.98975 13.3941 3.00583 13.4007 3.02389C13.4073 3.04195 13.4092 3.06141 13.4062 3.0804C13.5705 3.11163 13.7327 3.14943 13.8946 3.19133L14.0003 3.35568C14.162 3.34664 14.1917 3.07301 14.5232 3.36159C14.4463 3.13562 14.7554 3.34171 14.7436 3.23998C14.7543 3.26874 14.7852 3.31837 14.8078 3.36176C15.0442 3.44064 15.4816 3.61616 15.6307 3.59644C15.6307 3.59644 15.4632 3.39249 15.2576 3.1583C15.0521 2.92411 14.8046 2.66527 14.7064 2.52591C15.0394 2.71195 14.8083 2.54235 14.7602 2.45886L14.7202 2.49173C14.5232 2.36633 14.5608 2.26346 14.4622 2.19279C14.4596 2.20322 14.4582 2.21392 14.4581 2.22467L14.4772 2.21547C14.4793 2.22372 14.4782 2.23248 14.474 2.23991C14.4698 2.24733 14.4628 2.25282 14.4547 2.25524C14.4491 2.27923 14.433 2.29271 14.3761 2.26592L14.3912 2.25852C14.2944 2.24439 14.1431 2.17307 14.0757 2.14546L14.1022 2.0549C13.9929 2.11538 13.7394 1.96616 13.4675 1.8102C13.1968 1.64996 12.9071 1.48562 12.7892 1.4636C12.5683 1.30912 12.253 1.41775 11.9608 1.3387C11.4842 1.27838 11.729 1.18832 11.488 1.09465C11.1831 1.03483 11.5476 1.20476 11.4247 1.21084L11.0598 1.07936C11.2735 1.06803 11.1576 1.01116 11.1175 0.974678C10.8 0.956929 10.2741 0.821839 10.1933 1.02398C9.75183 0.974678 9.73869 0.914857 9.55051 0.930141C9.61872 0.954464 9.74674 0.966625 9.75298 1.0041C9.56777 0.948219 9.67361 1.03696 9.74657 1.04452C9.6838 1.07476 9.56465 1.0815 9.4192 1.07838L8.9385 1.07328C8.60981 1.07674 8.3043 1.1027 8.30644 1.21084L8.29608 1.17452C8.27965 1.34067 8.41441 1.45555 8.26469 1.59096L8.12829 1.56105L7.97364 1.67839C7.84217 1.67182 7.88539 1.61266 7.87931 1.59507C7.75014 1.68135 7.57955 1.73542 7.39992 1.79228C7.2226 1.85358 7.02769 1.89779 6.85989 1.9706C7.03426 2.03946 7.20879 2.12113 7.37675 2.20068L7.1069 2.22303C7.01043 2.23601 6.90969 2.25162 6.81881 2.27069C6.63507 2.30651 6.49456 2.36699 6.50014 2.44095L6.27302 2.40348C5.93826 2.43256 5.86217 2.52394 5.83751 2.5974C5.81336 2.67448 5.84047 2.74531 5.71656 2.77604L5.37588 2.81992L5.63357 2.64983C5.33528 2.75796 5.1997 2.7813 4.94086 2.85328C4.94185 2.8546 4.94086 2.85706 4.94086 2.85838C4.95861 2.85312 4.97192 2.8523 4.97915 2.85838L4.94628 2.88763C4.96272 2.9744 4.85869 3.10538 4.68892 3.2431C4.43238 3.42487 4.32425 3.66086 3.85587 3.89209L3.87937 4.09062C3.76844 4.15438 3.66112 4.22308 3.55529 4.29473L3.46342 4.20993C3.58963 4.07468 3.77156 3.87977 3.96286 3.67516L4.26377 3.37934C4.36336 3.2832 4.46624 3.19857 4.55663 3.12034L4.52721 3.07104C4.30321 3.2482 4.10222 3.50802 3.95579 3.62487C3.87148 3.66678 3.61461 3.74336 3.67641 3.56078L3.63614 3.7736C3.46769 3.94189 3.35265 4.07961 3.2501 4.19054C3.14755 4.30147 3.06735 4.39202 2.98452 4.48323C2.81558 4.66319 2.62954 4.83542 2.28442 5.20947L2.38516 5.17298C2.30299 5.35935 2.2223 5.54062 2.10775 5.53339C1.76066 6.02954 1.4134 6.55494 1.10329 6.85782L1.20387 6.99768C1.14684 7.11173 0.862692 7.20886 1.03164 7.34412L0.997125 7.62531C0.924321 7.78685 0.969022 7.91422 0.83081 8.07988V8.08086C0.822099 8.09105 0.813061 8.10174 0.803036 8.11176C0.807035 8.11294 0.811193 8.1135 0.815361 8.1134C0.638528 8.47677 0.93451 8.14447 0.735819 8.56009C0.598429 8.67513 0.875018 8.7619 0.792189 8.96519L0.539923 9.13726C0.439016 9.3228 0.43803 9.44458 0.456272 9.5897C0.484213 9.78845 0.488131 9.98985 0.467941 10.1895C0.365062 10.4564 0.172123 10.584 0.0306242 10.3807C0.20039 10.6561 0.147143 10.5099 0.22044 10.8573C0.138269 10.9066 0.122985 10.8696 0.0560974 10.7896C-0.0512185 11.0938 0.114768 10.982 0.109509 11.2119C0.259554 11.2814 0.498508 11.3569 0.508205 11.4285L0.555042 11.3424C0.630476 11.5776 0.682079 11.8264 0.620779 12.1027L0.544853 12.0977C0.561287 12.1939 0.587582 12.2892 0.608454 12.3843L0.514121 12.412C0.539758 12.5495 0.558 12.6877 0.591691 12.8228L0.608125 12.7627C0.637871 12.858 0.710675 13.1697 0.700486 13.3582L0.646417 13.3617C0.632308 13.4897 0.637349 13.6191 0.661372 13.7456C0.685531 13.867 0.730396 13.9823 0.778056 14.0986C0.825715 14.215 0.881592 14.3318 0.942398 14.4531C1.00321 14.5744 1.05596 14.7052 1.11249 14.846L0.981019 14.8061C0.949301 15.038 1.15966 14.805 1.19269 15.0539L1.07075 15.1123C1.30921 15.2556 1.13649 15.3892 1.13369 15.556L1.26911 15.4234L1.34504 15.6988C1.41932 16.0076 1.22425 15.9674 1.11792 15.9631L1.33764 16.1003L1.21603 16.2063C1.44808 16.2694 1.25613 16.3657 1.47651 16.5667C1.43576 16.6149 1.37215 16.5682 1.39566 16.6643C1.53272 16.7662 1.67011 16.8645 1.81358 16.9557C1.7393 16.8934 1.66074 16.8326 1.59007 16.7664L1.80372 16.6842C2.09526 16.8403 1.97842 17.0252 2.13832 17.1644C2.09378 17.1381 2.05171 17.1099 2.00816 17.0823C2.22953 17.3324 2.16445 17.3945 2.22641 17.5812C2.22838 17.5086 2.23118 17.4004 2.33027 17.4939C2.39601 17.5676 2.2933 17.5843 2.32699 17.6747C2.46454 17.6058 2.66767 17.7449 2.73784 17.9585C2.72135 17.9706 2.70126 17.9768 2.68082 17.9761C2.73242 18.0054 2.78222 18.0014 2.81344 18.0979L2.64811 18.1597L2.88953 18.2011C2.93177 18.3252 3.1372 18.3829 3.04237 18.4437C3.01805 18.4341 2.99471 18.4235 2.97154 18.4128C3.16514 18.6544 3.36399 18.8931 3.57731 19.1194L3.49218 19.2246C3.68167 19.1612 3.81938 19.6263 3.95234 19.4355C3.99425 19.6555 4.53756 19.812 4.29088 19.9505C4.40592 20.0555 4.52655 20.1242 4.64077 20.1887C4.75499 20.2531 4.86904 20.3057 4.9877 20.3569C5.11143 20.4116 5.23168 20.4739 5.34777 20.5433C5.4915 20.6248 5.62657 20.7206 5.75091 20.8294C5.87236 21.1534 6.56457 21.4457 7.01043 21.6383C7.23821 21.7108 7.45251 21.7567 7.65137 21.8088C7.85449 21.8503 8.04678 21.8894 8.23971 21.9238C8.62773 21.9849 9.0164 22.0411 9.49266 22.0791C9.75134 22.2796 10.1196 22.2949 10.4855 22.2763C10.6692 22.2625 10.8529 22.2515 11.0289 22.2423C11.205 22.2331 11.3741 22.2411 11.5294 22.2819L11.6937 22.1504C11.7974 22.1941 11.9148 22.2099 12.0406 22.2114C12.1662 22.2084 12.3 22.1885 12.4387 22.1688C12.5775 22.1524 12.7199 22.1226 12.866 22.1079C13.014 22.0929 13.1633 22.0929 13.3113 22.1079C13.4403 22.0268 13.5085 21.9954 13.5401 21.9844C13.5131 21.9844 13.4694 21.9692 13.4415 21.8955C13.6142 21.9215 13.9181 21.7696 13.9332 21.9266L13.8964 21.9526C13.9035 22.0311 14.0216 21.9821 14.1633 21.924C14.305 21.8658 14.4657 21.7859 14.575 21.8237L14.4284 21.6945C14.5296 21.672 14.6323 21.6528 14.7329 21.6272C14.7103 21.6471 14.6874 21.6661 14.6642 21.6842C15.244 21.2924 15.6879 21.1289 16.1374 20.9558C16.5763 20.7737 17.0184 20.5754 17.434 20.0761C17.4068 20.3226 17.5755 19.8519 17.7067 20.002C17.911 20.0085 18.0212 19.9034 18.0952 19.7719C18.1691 19.6404 18.215 19.4891 18.2867 19.3757C18.2823 19.3702 18.279 19.3639 18.2772 19.3571C18.2753 19.3504 18.2748 19.3433 18.2758 19.3364C18.3908 19.2411 18.5105 19.149 18.6232 19.0498C18.6068 19.4205 18.7084 18.6718 18.6817 18.9991C19.1698 18.6576 19.6269 18.1383 20.0213 17.5541C20.4185 16.9693 20.7528 16.3232 21.0695 15.7144L20.9873 15.7432C21.0598 15.5862 21.1237 15.4023 21.1845 15.2298C21.243 15.0557 21.3091 14.8967 21.4016 14.789C21.5794 14.567 21.418 14.1924 21.4274 14.0942C21.4201 14.0323 21.4254 13.9695 21.4429 13.9097C21.4604 13.8499 21.4897 13.7942 21.5291 13.7459C21.5853 13.672 21.6442 13.6493 21.6256 13.7083C21.642 13.5546 21.6077 13.396 21.5916 13.2296C21.5691 13.0613 21.5627 12.8844 21.6425 12.6844C21.7538 12.6269 21.738 12.3332 21.7068 12.0621C21.6723 11.7899 21.6386 11.54 21.7561 11.5352L21.736 11.5303C21.8253 11.2632 21.7903 10.9986 21.7436 10.735C21.6969 10.4714 21.6379 10.207 21.6747 9.91C21.6886 9.91675 21.7013 9.9255 21.7125 9.93597C21.4268 9.58523 21.1161 9.25568 20.7827 8.94991C20.5483 9.11677 20.3108 9.27564 20.0701 9.4265C19.9236 9.7518 19.7554 10.0669 19.5669 10.3698C19.7003 11.1031 19.7356 11.8509 19.6719 12.5936C19.5046 13.1637 19.2765 13.7143 18.9915 14.2357C18.5338 15.5678 17.7138 16.7804 16.6485 17.7283L16.5249 18.0642C16.0902 18.2039 15.7063 18.4803 15.2866 18.738C14.8703 18.9944 14.4187 19.2351 13.9515 19.2726L13.9843 19.4264C13.7401 19.5155 13.7275 19.4154 13.6594 19.409C12.5287 19.7724 11.2929 19.9336 10.0999 19.8056C8.9104 19.684 7.77676 19.2687 6.90065 18.6299C6.77148 18.4432 6.22093 18.1368 6.16258 17.9469C5.49371 17.6818 4.95417 17.1329 4.53559 16.5721L4.56583 16.5822L4.34331 16.3356C4.34341 16.3316 4.34433 16.3276 4.346 16.3239C4.34766 16.3202 4.35005 16.3169 4.35302 16.3141C4.35599 16.3114 4.35948 16.3092 4.36329 16.3079C4.3671 16.3065 4.37114 16.3059 4.37519 16.3061C4.04075 16.0842 3.83845 15.5008 3.6935 15.0735L3.71996 15.0899C3.43593 14.5059 3.20667 13.8968 3.03514 13.2705C2.86891 12.65 2.77343 12.0127 2.7505 11.3707C2.72601 10.7252 2.78607 10.0794 2.92914 9.44951C3.07738 8.81308 3.32289 8.20333 3.65701 7.64174C4.03763 7.15118 4.35941 6.59175 4.77142 6.04942C4.9763 5.77226 5.20358 5.51238 5.45098 5.27241C5.709 5.03921 5.98362 4.81784 6.29751 4.6599C6.36966 4.65037 6.56358 4.54125 6.81946 4.38594C7.08028 4.23886 7.40321 4.04247 7.74422 3.87944C8.4172 3.53317 9.14492 3.3049 9.25716 3.2408Z" fill="#FFCC00"/>
<path d="M13.4053 3.08059L13.3944 3.07861C13.3783 3.14205 13.4005 3.12249 13.4053 3.08059Z" fill="#FFCC00"/>
<path d="M6.83869 1.97888L6.85989 1.9705L6.74304 1.92383L6.83869 1.97888Z" fill="#FFCC00"/>
<path d="M11.3056 0.95333C11.0976 0.932623 11.0879 0.948564 11.1174 0.974859C11.1925 0.978967 11.2575 0.974037 11.3056 0.95333Z" fill="#FFCC00"/>
<path d="M14.7725 3.43119C14.8546 3.47244 14.8382 3.42314 14.807 3.36151L14.6566 3.30859C14.6977 3.3436 14.7309 3.39586 14.7725 3.43119Z" fill="#FFCC00"/>
<path d="M14.7593 2.45832L14.8086 2.42068C14.7481 2.41066 14.7433 2.42956 14.7593 2.45832Z" fill="#FFCC00"/>
</g>
<defs>
<clipPath id="clip0_383_987">
<rect width="25" height="22.2841" fill="white"/>
</clipPath>
</defs>
</svg>
