<svg width="486" height="166" viewBox="0 0 486 166" fill="none" xmlns="http://www.w3.org/2000/svg">
<path d="M26.3497 14.9602C26.5805 15.0959 26.7502 15.2724 26.8588 15.4896C26.9674 15.7068 26.947 15.9647 26.7977 16.2634L23.3563 21.1505C23.207 21.3813 23.0441 21.517 22.8676 21.5578C22.7047 21.5849 22.5011 21.5238 22.2567 21.3745C21.5916 20.8722 20.8585 20.4853 20.0575 20.2138C19.2566 19.9423 18.4081 19.8066 17.5122 19.8066C16.399 19.8066 15.3741 20.017 14.4374 20.4378C13.5007 20.8586 12.6929 21.4356 12.0142 22.1687C11.3354 22.9017 10.806 23.757 10.4258 24.7344C10.0457 25.7118 9.85569 26.7571 9.85569 27.8703C9.85569 28.9835 10.0457 30.0288 10.4258 31.0062C10.806 31.97 11.3354 32.8185 12.0142 33.5516C12.6929 34.2711 13.5007 34.8412 14.4374 35.2621C15.3741 35.6829 16.399 35.8933 17.5122 35.8933C18.4081 35.8933 19.2634 35.7576 20.0779 35.4861C20.8924 35.201 21.6323 34.8073 22.2975 34.305C22.5418 34.1557 22.7455 34.0946 22.9084 34.1217C23.0713 34.1489 23.2342 34.2711 23.3971 34.4883L26.8791 39.4976C27.0285 39.7962 27.0488 40.0474 26.9402 40.251C26.8316 40.4546 26.6619 40.6243 26.4312 40.7601C25.1551 41.6153 23.7772 42.2805 22.2975 42.7556C20.8313 43.2172 19.2837 43.448 17.6547 43.448C16.2157 43.448 14.831 43.2647 13.5007 42.8982C12.1839 42.5317 10.9485 42.009 9.7946 41.3302C8.64069 40.6515 7.58861 39.8437 6.63833 38.907C5.70164 37.9568 4.8939 36.9115 4.21514 35.7711C3.53637 34.6172 3.01372 33.3819 2.64719 32.0651C2.28065 30.7347 2.09739 29.35 2.09739 27.911C2.09739 26.472 2.28065 25.0941 2.64719 23.7773C3.01372 22.447 3.53637 21.2048 4.21514 20.0509C4.8939 18.8834 5.70164 17.8246 6.63833 16.8743C7.58861 15.924 8.64069 15.1163 9.7946 14.4511C10.9485 13.7723 12.1839 13.2497 13.5007 12.8831C14.831 12.503 16.2157 12.313 17.6547 12.313C19.2837 12.313 20.8178 12.5438 22.2567 13.0053C23.7093 13.4533 25.0736 14.1049 26.3497 14.9602ZM39.7527 30.9247C39.7527 31.9293 39.8884 32.7846 40.1599 33.4905C40.445 34.1828 40.8116 34.753 41.2595 35.201C41.7211 35.6354 42.2505 35.9544 42.8479 36.158C43.4587 36.3617 44.09 36.4635 44.7416 36.4635C45.4204 36.4635 46.0584 36.3481 46.6557 36.1173C47.2666 35.873 47.7961 35.52 48.2441 35.0584C48.7056 34.5833 49.0654 33.9996 49.3233 33.3072C49.5948 32.6149 49.7305 31.8207 49.7305 30.9247V13.6569C49.7305 13.4126 49.812 13.2022 49.9749 13.0257C50.1514 12.8492 50.3822 12.761 50.6672 12.761H56.6132C56.9255 12.761 57.1698 12.856 57.3463 13.046C57.5228 13.2225 57.611 13.4262 57.611 13.6569V30.8229C57.611 33.1986 57.2581 35.1942 56.5521 36.8097C55.8598 38.4251 54.9231 39.7283 53.7421 40.7193C52.561 41.6968 51.1899 42.4027 49.6287 42.8371C48.0811 43.2579 46.4521 43.4683 44.7416 43.4683C43.0311 43.4683 41.3953 43.2511 39.8341 42.8167C38.273 42.3687 36.9019 41.6493 35.7208 40.6583C34.5398 39.6537 33.5963 38.3505 32.8904 36.7486C32.198 35.1331 31.8518 33.1579 31.8518 30.8229V13.6569C31.8518 13.4262 31.9265 13.2225 32.0758 13.046C32.2387 12.856 32.4356 12.761 32.6664 12.761H38.7753C38.9789 12.761 39.1893 12.8492 39.4065 13.0257C39.6373 13.1886 39.7527 13.399 39.7527 13.6569V30.9247ZM63.5322 13.6977C63.5322 13.4126 63.6069 13.1886 63.7562 13.0257C63.9191 12.8492 64.1431 12.761 64.4282 12.761H84.6486C84.9473 12.761 85.1781 12.8492 85.341 13.0257C85.5039 13.2022 85.5853 13.4397 85.5853 13.7384V18.7884C85.5853 19.0192 85.5039 19.2432 85.341 19.4604C85.1781 19.664 84.9405 19.7658 84.6283 19.7658H71.433V24.7955H81.6145C81.8725 24.7955 82.0829 24.8566 82.2458 24.9788C82.4223 25.1009 82.5105 25.3046 82.5105 25.5896V29.9881C82.5105 30.1781 82.4358 30.3614 82.2865 30.5379C82.1372 30.7143 81.92 30.8026 81.6349 30.8026H71.433V35.9951H85.117C85.7279 35.9951 86.0333 36.3074 86.0333 36.9318V42.0633C86.0333 42.1991 85.979 42.3212 85.8704 42.4298C85.8161 42.8099 85.5378 43 85.0355 43H64.4282C64.1567 43 63.9395 42.9321 63.7766 42.7964C63.6137 42.647 63.5322 42.423 63.5322 42.1244V13.6977ZM114.086 14.9602C114.316 15.0959 114.486 15.2724 114.595 15.4896C114.703 15.7068 114.683 15.9647 114.534 16.2634L111.092 21.1505C110.943 21.3813 110.78 21.517 110.603 21.5578C110.441 21.5849 110.237 21.5238 109.993 21.3745C109.327 20.8722 108.594 20.4853 107.793 20.2138C106.992 19.9423 106.144 19.8066 105.248 19.8066C104.135 19.8066 103.11 20.017 102.173 20.4378C101.236 20.8586 100.429 21.4356 99.75 22.1687C99.0712 22.9017 98.5418 23.757 98.1617 24.7344C97.7816 25.7118 97.5915 26.7571 97.5915 27.8703C97.5915 28.9835 97.7816 30.0288 98.1617 31.0062C98.5418 31.97 99.0712 32.8185 99.75 33.5516C100.429 34.2711 101.236 34.8412 102.173 35.2621C103.11 35.6829 104.135 35.8933 105.248 35.8933C106.144 35.8933 106.999 35.7576 107.814 35.4861C108.628 35.201 109.368 34.8073 110.033 34.305C110.278 34.1557 110.481 34.0946 110.644 34.1217C110.807 34.1489 110.97 34.2711 111.133 34.4883L114.615 39.4976C114.764 39.7962 114.785 40.0474 114.676 40.251C114.567 40.4546 114.398 40.6243 114.167 40.7601C112.891 41.6153 111.513 42.2805 110.033 42.7556C108.567 43.2172 107.02 43.448 105.391 43.448C103.952 43.448 102.567 43.2647 101.236 42.8982C99.9197 42.5317 98.6843 42.009 97.5304 41.3302C96.3765 40.6515 95.3244 39.8437 94.3742 38.907C93.4375 37.9568 92.6297 36.9115 91.951 35.7711C91.2722 34.6172 90.7496 33.3819 90.383 32.0651C90.0165 30.7347 89.8332 29.35 89.8332 27.911C89.8332 26.472 90.0165 25.0941 90.383 23.7773C90.7496 22.447 91.2722 21.2048 91.951 20.0509C92.6297 18.8834 93.4375 17.8246 94.3742 16.8743C95.3244 15.924 96.3765 15.1163 97.5304 14.4511C98.6843 13.7723 99.9197 13.2497 101.236 12.8831C102.567 12.503 103.952 12.313 105.391 12.313C107.02 12.313 108.554 12.5438 109.993 13.0053C111.445 13.4533 112.809 14.1049 114.086 14.9602ZM128.344 13.5551C128.357 13.4737 128.398 13.3854 128.466 13.2904C128.547 13.1954 128.642 13.1071 128.751 13.0257C128.86 12.9442 128.975 12.8831 129.097 12.8424C129.219 12.7881 129.335 12.761 129.443 12.761H134.656C134.887 12.761 135.084 12.8356 135.247 12.985C135.41 13.1207 135.532 13.2429 135.613 13.3515L136.122 14.5122L146.813 42.0837C146.922 42.3552 146.901 42.5792 146.752 42.7556C146.603 42.9185 146.345 43 145.978 43H140.134C139.822 43 139.577 42.9457 139.401 42.8371C139.238 42.7149 139.109 42.5181 139.014 42.2466C138.742 41.5542 138.478 40.8687 138.22 40.1899C137.962 39.4976 137.704 38.8052 137.446 38.1129H126.633C126.375 38.8052 126.111 39.4976 125.839 40.1899C125.581 40.8687 125.323 41.5542 125.065 42.2466C124.889 42.7489 124.543 43 124.027 43H118.02C117.762 43 117.545 42.9321 117.368 42.7964C117.205 42.6606 117.178 42.457 117.287 42.1855L128.344 13.5551ZM132.05 22.2705C131.792 22.9628 131.527 23.7095 131.256 24.5104C130.998 25.3114 130.74 26.1191 130.482 26.9336C130.224 27.7481 129.959 28.5559 129.688 29.3568C129.43 30.1442 129.172 30.884 128.914 31.5764H135.165L132.05 22.2705ZM153.326 33.2461C153.557 33.4362 153.849 33.6941 154.202 34.0199C154.568 34.3322 154.982 34.6444 155.444 34.9566C156.136 35.4182 156.822 35.7779 157.5 36.0359C158.179 36.2938 158.892 36.4228 159.639 36.4228C160.331 36.4228 160.908 36.3481 161.369 36.1988C161.844 36.0359 162.218 35.8254 162.489 35.5675C162.761 35.3096 162.951 35.0109 163.059 34.6715C163.182 34.3322 163.243 33.9724 163.243 33.5923C163.243 33.1715 163.08 32.7981 162.754 32.4723C162.442 32.133 162.055 31.8343 161.593 31.5764C161.132 31.3184 160.65 31.1012 160.148 30.9247C159.645 30.7347 159.211 30.5786 158.844 30.4564C157.215 29.8862 155.79 29.2753 154.568 28.6237C153.346 27.9585 152.328 27.2255 151.514 26.4245C150.699 25.61 150.088 24.7208 149.681 23.757C149.274 22.7796 149.07 21.6935 149.07 20.4989C149.07 19.2364 149.321 18.0893 149.824 17.0576C150.339 16.0258 151.066 15.1434 152.002 14.4104C152.953 13.6773 154.093 13.1139 155.423 12.7202C156.754 12.313 158.24 12.1093 159.883 12.1093C161.118 12.1093 162.299 12.2519 163.426 12.537C164.566 12.8085 165.686 13.2497 166.786 13.8606C167.247 14.1321 167.682 14.4172 168.089 14.7158C168.51 15.0009 168.877 15.2792 169.189 15.5507C169.501 15.8222 169.745 16.0801 169.922 16.3245C170.112 16.5688 170.207 16.7793 170.207 16.9557C170.207 17.1322 170.159 17.2951 170.064 17.4445C169.983 17.5938 169.854 17.7635 169.677 17.9535L166.562 21.2727C166.331 21.5035 166.1 21.6189 165.87 21.6189C165.68 21.6189 165.503 21.5646 165.34 21.456C165.191 21.3474 165.021 21.2116 164.831 21.0487L164.648 20.8858C164.376 20.655 164.071 20.4174 163.731 20.1731C163.406 19.9287 163.053 19.7115 162.673 19.5215C162.292 19.3178 161.892 19.1549 161.471 19.0328C161.05 18.897 160.623 18.8291 160.188 18.8291C159.74 18.8291 159.319 18.8699 158.926 18.9513C158.532 19.0192 158.186 19.1346 157.887 19.2975C157.589 19.4604 157.351 19.6776 157.175 19.9491C156.998 20.207 156.91 20.5261 156.91 20.9062C156.91 21.2863 157.005 21.6189 157.195 21.9039C157.385 22.1755 157.67 22.4334 158.05 22.6777C158.43 22.9085 158.899 23.1325 159.455 23.3497C160.025 23.5533 160.684 23.7773 161.43 24.0217C162.869 24.4968 164.193 24.9991 165.401 25.5286C166.623 26.0444 167.675 26.6621 168.557 27.3816C169.44 28.0875 170.125 28.936 170.614 29.927C171.116 30.918 171.368 32.1194 171.368 33.5312C171.368 35.0245 171.062 36.382 170.451 37.6038C169.84 38.812 168.999 39.8437 167.926 40.699C166.867 41.5542 165.618 42.2194 164.179 42.6946C162.74 43.1561 161.193 43.3869 159.537 43.3869C157.976 43.3869 156.442 43.1086 154.935 42.552C153.428 41.9954 152.023 41.2488 150.72 40.3121C150.176 39.9184 149.715 39.5315 149.335 39.1514C148.968 38.7713 148.676 38.4658 148.459 38.2351L148.398 38.174C148.385 38.1468 148.371 38.1332 148.357 38.1332C148.344 38.1197 148.33 38.1061 148.317 38.0925C148.303 38.0654 148.29 38.0518 148.276 38.0518C148.262 38.0382 148.249 38.0246 148.235 38.0111C147.923 37.6717 147.767 37.4002 147.767 37.1965C147.767 36.9658 147.923 36.7078 148.235 36.4228L151.758 33.0629C152.043 32.8592 152.274 32.7574 152.45 32.7574C152.573 32.7574 152.702 32.7981 152.837 32.8796C152.973 32.961 153.136 33.0832 153.326 33.2461ZM215.198 27.911C215.198 29.35 215.015 30.7211 214.648 32.0244C214.282 33.314 213.759 34.5222 213.08 35.649C212.401 36.7621 211.587 37.7735 210.637 38.683C209.7 39.5926 208.655 40.3664 207.501 41.0044C206.36 41.6425 205.125 42.138 203.795 42.4909C202.464 42.8303 201.086 43 199.661 43H189.622C189.378 43 189.16 42.9457 188.97 42.8371C188.78 42.7285 188.685 42.4977 188.685 42.1448V13.6977C188.685 13.4126 188.76 13.1818 188.909 13.0053C189.072 12.8288 189.31 12.7406 189.622 12.7406H199.661C201.086 12.7406 202.457 12.9171 203.774 13.27C205.105 13.623 206.34 14.1253 207.48 14.7769C208.634 15.4285 209.686 16.2091 210.637 17.1186C211.587 18.0282 212.395 19.0463 213.06 20.1731C213.739 21.2998 214.261 22.5148 214.628 23.8181C215.008 25.1213 215.198 26.4856 215.198 27.911ZM196.566 20.0509V35.7101H198.276C198.589 35.7101 198.894 35.7033 199.193 35.6897C199.491 35.6625 199.79 35.6354 200.089 35.6082C201.107 35.5268 202.057 35.2824 202.939 34.8752C203.822 34.4543 204.589 33.9113 205.24 33.2461C205.906 32.5674 206.421 31.7732 206.788 30.8637C207.168 29.9541 207.358 28.9631 207.358 27.8907C207.358 26.7503 207.141 25.705 206.707 24.7548C206.286 23.7909 205.709 22.9628 204.976 22.2705C204.243 21.5646 203.381 21.0215 202.39 20.6414C201.412 20.2478 200.367 20.0509 199.254 20.0509H196.566ZM220.51 13.6977C220.51 13.4126 220.585 13.1886 220.734 13.0257C220.897 12.8492 221.121 12.761 221.406 12.761H241.627C241.925 12.761 242.156 12.8492 242.319 13.0257C242.482 13.2022 242.563 13.4397 242.563 13.7384V18.7884C242.563 19.0192 242.482 19.2432 242.319 19.4604C242.156 19.664 241.918 19.7658 241.606 19.7658H228.411V24.7955H238.592C238.85 24.7955 239.061 24.8566 239.224 24.9788C239.4 25.1009 239.488 25.3046 239.488 25.5896V29.9881C239.488 30.1781 239.414 30.3614 239.264 30.5379C239.115 30.7143 238.898 30.8026 238.613 30.8026H228.411V35.9951H242.095C242.706 35.9951 243.011 36.3074 243.011 36.9318V42.0633C243.011 42.1991 242.957 42.3212 242.848 42.4298C242.794 42.8099 242.516 43 242.013 43H221.406C221.135 43 220.917 42.9321 220.754 42.7964C220.592 42.647 220.51 42.423 220.51 42.1244V13.6977Z" fill="white"/>
<path d="M3.33578 57.0318C3.96389 57.1506 4.48165 57.2101 4.88908 57.2101H10.4148C10.6694 57.2101 10.8986 57.1506 11.1023 57.0318C12.5962 57.0318 13.3431 57.5496 13.3431 58.5851L16.6025 67.0137H18.1558V67.5484H17.1372C16.8996 67.5824 16.7807 67.6927 16.7807 67.8794C16.7807 68.0832 17.2985 68.2614 18.334 68.4142L18.5123 68.7452V69.611H17.8248C18.7415 72.446 20.804 77.7255 24.0125 85.4496L24.8783 85.2968H25.9223L25.744 84.0745V83.387C25.9817 82.64 26.1005 82.0714 26.1005 81.6809C25.8629 81.6809 25.744 81.5621 25.744 81.3244V81.1462C25.778 80.9255 25.8968 80.8151 26.1005 80.8151H26.2533L26.6098 80.9934L32.11 67.5484L32.9758 67.7267C33.0437 67.7267 33.2729 67.6672 33.6633 67.5484V67.0137H32.823C32.5854 67.0137 32.4665 66.9033 32.4665 66.6826L36.0824 57.3883L36.4389 57.2101H47.7958C48.0335 57.244 48.1523 57.3543 48.1523 57.5411V67.0137H49.1709C49.4085 67.0646 49.5274 67.1834 49.5274 67.3702L49.1709 67.5484H48.1523V80.8151H49.0181C49.2388 80.8491 49.3491 80.9594 49.3491 81.1462V81.3244C49.3491 81.4942 49.1794 81.6639 48.8398 81.8337H48.6616L48.3051 81.6809L48.1523 82.0119V85.2968H50.0367C50.2743 85.3307 50.3931 85.4411 50.3931 85.6278V96.6537C50.3931 96.8914 50.2743 97.0102 50.0367 97.0102H48.1523V103.554C48.1523 103.775 48.0335 103.885 47.7958 103.885H42.1174C40.963 103.885 39.2399 103.835 36.9482 103.733V98.0288L36.7699 97.1884L37.1264 97.0102H38.3232L39.189 96.832V87.5376C39.6474 86.8416 39.8765 86.1456 39.8765 85.4496C38.6203 85.3647 37.9922 85.1949 37.9922 84.9403C38.6712 82.7674 39.1805 81.6809 39.52 81.6809C39.9784 81.6809 40.2076 81.5621 40.2076 81.3244V80.9934C39.4097 80.9934 39.0108 80.8151 39.0108 80.4586V77.352H38.8325C38.6797 77.352 38.2214 78.447 37.4575 80.6369C38.1535 80.7897 38.5015 80.9594 38.5015 81.1462C38.5015 81.4517 38.0941 81.6809 37.2792 81.8337C37.2792 81.7318 37.2283 81.6809 37.1264 81.6809C36.6681 82.5127 36.2097 83.718 35.7514 85.2968H37.4575C37.6951 85.3307 37.814 85.4411 37.814 85.6278C36.0824 89.9227 34.9875 92.8002 34.5291 94.2601C33.7822 96.0935 33.3238 97.0102 33.1541 97.0102H31.0915L28.4942 103.885H25.413C24.2587 103.885 22.5356 103.835 20.2438 103.733C18.75 99.998 18.003 97.7571 18.003 97.0102H19.5563C19.777 97.0102 19.8873 96.8914 19.8873 96.6537C17.7823 91.3912 16.6874 88.4034 16.6025 87.6904V85.4496C16.5346 85.4496 15.7961 85.3986 14.3871 85.2968L14.2089 85.6278V96.6537C14.2089 96.8914 14.0901 97.0102 13.8524 97.0102H12.2991C12.0784 97.0442 11.9681 97.1545 11.9681 97.3412V97.876H12.8338C13.0545 97.9099 13.1649 98.0203 13.1649 98.207C13.1649 98.4447 13.0545 98.5635 12.8338 98.5635H11.9681V103.554C11.9681 103.775 11.8492 103.885 11.6116 103.885H5.5766C4.60897 103.885 3.06416 103.835 0.942166 103.733L0.763918 103.376V98.8945L1.80794 98.207L0.763918 97.5195V97.3412C0.79787 97.1205 0.916702 97.0102 1.12041 97.0102H3.00475L3.18299 96.1444V86.1371L3.00475 85.2968H1.12041C0.88275 85.2968 0.763918 85.178 0.763918 84.9403V69.942C0.79787 69.7213 0.916702 69.611 1.12041 69.611H1.96072V68.2359H1.12041C0.88275 68.2359 0.763918 68.1171 0.763918 67.8794V67.7267H1.96072C2.19839 67.7267 2.31722 67.6078 2.31722 67.3702V67.0137C2.06258 67.0137 1.8334 66.9627 1.62969 66.8609C1.42598 66.9627 1.19681 67.0137 0.942166 67.0137L0.763918 66.6826V62.8885C0.763918 62.6339 0.823334 62.4047 0.942166 62.201C0.823334 61.9973 0.763918 61.7681 0.763918 61.5135V57.5411C0.79787 57.3204 0.916702 57.2101 1.12041 57.2101H2.13897C2.80103 57.2101 3.19997 57.1506 3.33578 57.0318ZM24.8783 67.0137H25.9223C26.0411 67.0137 26.1005 67.0731 26.1005 67.1919L26.4316 67.0137H26.6098V67.5484H24.8783C24.6576 67.5484 24.5472 67.4296 24.5472 67.1919L24.8783 67.0137ZM29.5382 67.0137H31.2697V67.5484H29.5382C29.3005 67.5484 29.1817 67.4296 29.1817 67.1919L29.5382 67.0137ZM11.9681 76.5117V85.2968H14.2089V82.6995C13.5129 79.9494 12.7659 77.8868 11.9681 76.5117ZM27.2974 81.1462V81.6809H27.4756C27.6963 81.6809 27.8066 81.5621 27.8066 81.3244V80.8151H27.6538C27.4162 80.8491 27.2974 80.9594 27.2974 81.1462ZM26.4316 85.2968C26.4316 85.3986 26.3722 85.4496 26.2533 85.4496C27.0342 87.7243 27.6114 88.9891 27.9849 89.2437L28.8507 86.3153C28.613 85.9419 28.4942 85.6533 28.4942 85.4496L26.4316 85.2968ZM64.6599 57.0573H74.8201C75.0238 57.0912 75.949 59.5018 77.5956 64.289L78.1049 64.6201H79.8365C80.142 64.8577 81.5171 68.5415 83.9616 75.6714L85.1839 79.109L84.8274 79.2873H80.855V79.4655C80.855 80.0767 81.203 80.4162 81.899 80.4841L82.9431 80.3313H83.0958C83.5881 80.586 85.2009 84.9488 87.934 93.4198L87.5775 93.598C87.1871 93.4792 86.9579 93.4198 86.89 93.4198C86.7881 93.4198 86.7372 93.4792 86.7372 93.598L85.5149 93.4198H84.6491C84.4285 93.4537 84.3181 93.5726 84.3181 93.7763C84.9292 95.6097 85.3282 96.5264 85.5149 96.5264H88.978C89.1987 96.5603 89.309 96.6792 89.309 96.8829V97.0357C89.309 97.2733 89.1987 97.3922 88.978 97.3922H85.1839C84.9123 97.3922 84.6831 97.3327 84.4964 97.2139C84.2927 97.3327 84.055 97.3922 83.7834 97.3922H80.1675L78.9707 97.2139L78.7924 97.5704C78.8264 97.7911 78.9452 97.9014 79.1489 97.9014H89.4873C89.8268 97.9014 90.5738 99.8027 91.7281 103.605V103.784H78.7924C78.6057 103.784 77.9182 101.823 76.7299 97.9014H67.5883C67.3337 97.9014 67.1045 97.8505 66.9008 97.7487C66.6971 97.8505 66.4679 97.9014 66.2132 97.9014C65.9756 97.9014 65.8568 97.7911 65.8568 97.5704C65.9756 97.5704 66.035 97.511 66.035 97.3922C68.157 97.2733 69.7103 97.2139 70.6949 97.2139H76.2206C76.4413 97.2139 76.5516 97.1036 76.5516 96.8829L76.0423 96.5264H72.5792C72.4434 96.5264 72.1039 96.0086 71.5607 94.9731H70.1856V95.1513C70.1856 95.2532 70.2366 95.7115 70.3384 96.5264H68.7851C68.6663 96.5264 68.2673 96.0086 67.5883 94.9731H57.581C56.9189 94.9731 56.52 95.4314 56.3842 96.3481L56.7152 96.5264H59.6436C59.8812 96.5603 60 96.6792 60 96.8829V97.0357L57.7592 103.784H44.6453V103.605L47.0644 96.7046L41.8952 96.5264C41.6575 96.5264 41.5387 96.416 41.5387 96.1954C42.1159 94.345 42.5233 93.4198 42.761 93.4198H47.4209C48.2527 93.4198 48.8214 92.4437 49.1269 90.4914C49.3307 90.4745 49.9078 89.04 50.8585 86.188L52.7683 80.6623V80.4841H51.0367C50.7991 79.4146 50.7566 79.0411 50.9094 79.3637C50.7566 79.1939 52.293 79.109 55.5184 79.109C55.6882 79.0751 56.6049 76.7239 58.2685 72.0555L60.6876 64.9766V64.7983H59.8218V64.6201C60.6876 61.6832 61.6128 59.2132 62.5974 57.2101L64.6599 57.0573ZM70.1856 72.0555C68.9464 76.8767 68.0806 79.2873 67.5883 79.2873H63.6159C63.3952 79.2873 63.2255 79.6353 63.1066 80.3313H64.1507C64.8297 80.3992 65.1692 80.569 65.1692 80.8406C64.0149 84.3886 63.4377 86.2305 63.4377 86.3663L64.3035 86.5191L65.5257 86.3663C65.7464 86.4681 65.9162 86.5191 66.035 86.5191L67.079 86.3663C67.1809 86.3663 67.2318 86.4172 67.2318 86.5191L68.0976 86.3663H71.0259C71.1448 86.3663 71.2042 86.4172 71.2042 86.5191C72.3585 86.4172 72.9357 86.2474 72.9357 86.0098V85.8315C72.5113 85.0676 71.9936 83.5737 71.3824 81.3499C71.3824 80.7557 70.8647 80.4162 69.8291 80.3313C69.8291 80.0427 69.7103 79.7541 69.4726 79.4655C69.5236 79.2279 69.6424 79.109 69.8291 79.109H72.7575C72.1803 77.004 71.4334 74.6529 70.5167 72.0555H70.1856ZM116.282 57.1591C120.255 57.1591 123.93 58.1098 127.308 60.0111V60.1639C126.714 60.1639 126.213 60.2233 125.806 60.3421V60.4949C128.318 61.6832 130.933 64.1362 133.649 67.854C134.735 67.854 135.406 68.185 135.66 68.8471C135.66 68.9999 135.329 69.1696 134.667 69.3564C134.667 69.8656 132.825 70.9266 129.142 72.5393C127.478 73.6428 126.307 74.1945 125.628 74.1945H124.303L121.121 70.3749C120.306 69.9505 119.864 69.611 119.796 69.3564V69.2036H120.458V68.8471C120.306 68.8471 119.584 68.516 118.294 67.854H117.606C116.571 67.854 115.739 67.6333 115.111 67.1919H112.437C112.183 67.1919 111.962 67.2428 111.775 67.3447L111.444 67.1919C107.591 68.3972 105.078 69.959 103.907 71.8773C103.635 72.1998 102.914 72.4205 101.742 72.5393V72.6921C101.776 72.9298 101.887 73.0486 102.073 73.0486C102.294 73.0486 102.405 72.9892 102.405 72.8704L104.085 73.0486H107.09V73.2014C107.09 73.4221 106.98 73.5324 106.759 73.5324H102.736C102.073 73.9738 101.411 75.8666 100.749 79.2109V80.5605C100.749 81.9186 101.08 83.701 101.742 85.9079L101.411 86.0607H99.7308L98.7377 86.239C98.517 86.1201 98.3473 86.0607 98.2284 86.0607L97.8974 86.239C97.6767 86.1201 97.5069 86.0607 97.3881 86.0607V86.239C98.1351 88.3609 99.6374 90.1434 101.895 91.5864C102.999 92.3673 103.78 92.7577 104.238 92.7577H108.414C111.028 93.5386 112.93 93.9291 114.118 93.9291C116.427 93.1482 117.87 92.7577 118.447 92.7577C118.667 92.8766 118.837 92.936 118.956 92.936C121.485 91.2384 122.818 90.1774 122.954 89.753C123.599 89.2946 124.49 88.1233 125.628 86.239V86.0607H112.259C112.038 86.0607 111.928 85.9504 111.928 85.7297V81.0698C112.488 80.7302 112.768 80.4501 112.768 80.2295L112.616 79.8984C112.717 79.6947 112.768 79.4655 112.768 79.2109C112.208 79.0751 111.928 78.9138 111.928 78.7271C112.149 78.4385 112.259 78.2687 112.259 78.2178C112.497 78.2178 112.616 78.2772 112.616 78.3961C113.923 78.2772 114.865 78.2178 115.442 78.2178H132.834C133.072 78.2178 133.292 78.2772 133.496 78.3961C133.683 78.2772 133.903 78.2178 134.158 78.2178H137.163L138.181 79.3891V80.3822C137.621 80.6878 137.282 81.4178 137.163 82.5721C137.061 84.2018 137.01 85.3138 137.01 85.9079C137.57 85.9079 137.85 86.0183 137.85 86.239V86.4172C136.577 90.763 135.457 92.936 134.489 92.936C134.302 92.8171 134.082 92.7577 133.827 92.7577C131.213 97.477 126.536 100.932 119.796 103.122C117.912 103.461 116.52 103.631 115.62 103.631H112.437C103.881 103.631 97.142 100.006 92.2189 92.7577H87.7118C87.1516 92.4522 86.2009 90.5593 84.8598 87.0793V86.0607H89.367L88.7049 80.7133V79.8984C89.1972 75.6544 89.6386 73.5324 90.029 73.5324C92.185 73.4306 93.5855 73.3797 94.2306 73.3797V73.0486H94.0523C92.881 73.0486 91.0985 72.9892 88.7049 72.8704C88.7049 72.7006 89.2651 72.4799 90.3855 72.2083C92.5415 66.793 95.8772 62.8376 100.393 60.3421C102.158 60.3421 103.669 59.9517 104.925 59.1708C107.913 57.8297 111.699 57.1591 116.282 57.1591ZM87.3553 72.3611H87.8646V72.8704C87.4741 72.9892 87.2535 73.0486 87.2025 73.0486L87.0243 72.6921C87.0582 72.4714 87.1686 72.3611 87.3553 72.3611ZM109.433 78.2178C110.536 78.3027 111.088 78.4724 111.088 78.7271C111.088 78.9478 110.977 79.0581 110.757 79.0581H109.254C109.034 79.0581 108.923 78.9478 108.923 78.7271C108.923 78.5573 109.093 78.3876 109.433 78.2178ZM107.243 78.3961H107.599C107.82 78.43 107.93 78.5404 107.93 78.7271V79.0581H107.243C107.022 79.0581 106.912 78.9478 106.912 78.7271C106.946 78.5064 107.056 78.3961 107.243 78.3961ZM146.413 57.1082C147.517 57.1082 150.038 57.1676 153.976 57.2864C157.999 63.1771 160.24 66.2158 160.698 66.4025C161.14 66.4025 161.768 66.8015 162.583 67.5993H168.108C168.329 67.6333 168.44 67.7521 168.44 67.9558C168.44 68.1765 168.329 68.2869 168.108 68.2869H167.574C167.319 68.2869 167.09 68.2359 166.886 68.1341C166.699 68.2359 166.47 68.2869 166.199 68.2869C165.944 68.2869 165.715 68.2359 165.511 68.1341L164.493 68.2869H163.449L163.118 68.1341L162.939 68.4651C164.297 70.2815 167.625 75.0433 172.921 82.7504L172.055 83.1069C173.634 85.4835 174.67 86.8586 175.162 87.232L175.34 86.3663V85.5005C175.34 84.8215 174.992 84.0236 174.296 83.1069C174.873 82.9881 175.162 82.8692 175.162 82.7504C174.585 81.8676 174.296 81.2989 174.296 81.0443C174.517 80.9255 174.687 80.8661 174.805 80.8661C174.466 80.4417 174.296 80.0427 174.296 79.6693V70.5277C173.719 70.5277 173.43 70.4768 173.43 70.3749L173.099 70.5277C172.862 70.5277 172.743 70.4174 172.743 70.1967V70.0184C172.777 69.7808 172.896 69.6619 173.099 69.6619H174.296V66.5808C173.6 66.5808 173.252 66.462 173.252 66.2243V57.6175L173.43 57.2864C175.722 57.1676 177.445 57.1082 178.6 57.1082H184.787C184.906 57.1082 184.966 57.1676 184.966 57.2864L185.322 57.1082C185.543 57.1421 185.653 57.261 185.653 57.4647V66.4025C186.4 66.4025 186.807 66.5723 186.875 66.9118V69.3309C186.875 69.5006 186.697 69.6704 186.341 69.8402H185.322V70.3749H186.341C186.51 70.3749 186.689 70.5447 186.875 70.8842V82.5976L185.653 83.2851V89.9822C185.653 90.1349 185.314 90.3641 184.635 90.6697L184.787 91.8919V96.0171C185.365 96.0171 185.653 96.1274 185.653 96.3481V102.714L185.831 103.58L185.475 103.758H177.734C176.596 103.758 174.873 103.699 172.565 103.58C169.407 98.7078 167.574 96.1869 167.064 96.0171C166.538 96.0171 165.969 95.3805 165.358 94.1073C163.627 91.8835 162.761 90.6272 162.761 90.3386H163.27V89.9822L158.458 83.1069C159.035 82.9881 159.323 82.8692 159.323 82.7504L156.904 79.3128V76.8937C156.904 76.2486 156.276 75.1027 155.02 73.456H154.842V82.5976L153.823 83.2851V83.6162H155.708C155.928 83.6501 156.039 83.7689 156.039 83.9727V84.4819C156.039 84.6517 155.869 84.8215 155.529 84.9912H153.823L153.645 87.0538V92.223L153.823 93.0888C153.552 93.3094 153.204 93.4198 152.779 93.4198V94.4638L153.645 95.1513V101.008L153.823 102.027C153.704 102.23 153.645 102.459 153.645 102.714L153.823 103.58L153.467 103.758H145.904C144.919 103.758 143.366 103.699 141.244 103.58L141.066 103.249V103.071C141.066 102.952 141.125 102.892 141.244 102.892L141.066 102.561V95.1513L140.225 94.4638V93.7763L141.066 93.0888V85.3477C141.066 85.178 141.244 84.9997 141.601 84.813H143.128C143.366 84.813 143.485 84.7026 143.485 84.4819V83.9727C143.485 83.735 143.366 83.6162 143.128 83.6162H141.422C141.185 83.6162 141.066 83.5058 141.066 83.2851C141.1 83.0475 141.219 82.9286 141.422 82.9286H142.288V82.5976C142.288 82.2072 142.339 81.9186 142.441 81.7318L142.288 80.8661L142.441 80.1785C142.441 80.0597 142.39 80.0003 142.288 80.0003L142.441 79.1345V78.8035C142.441 78.3451 142.39 78.116 142.288 78.116L142.441 76.8937V76.2062C142.441 74.7123 142.39 72.7685 142.288 70.3749L142.441 70.0184L142.288 69.6619C142.39 68.7452 142.56 68.2869 142.797 68.2869H144.351C145.148 68.2869 146.405 68.2359 148.119 68.1341V67.7776H147.966C147.118 67.7776 146.481 67.7182 146.057 67.5993C145.31 67.7182 144.563 67.7776 143.816 67.7776C142.678 67.7776 142.11 67.3787 142.11 66.5808C141.414 66.5808 141.066 66.411 141.066 66.0715V57.6175L141.244 57.2864C143.706 57.1676 145.429 57.1082 146.413 57.1082ZM140.225 69.6619H140.556C140.794 69.7128 140.913 69.8317 140.913 70.0184C140.913 70.2731 140.624 70.4428 140.047 70.5277L139.869 70.1967V70.0184C139.903 69.7808 140.022 69.6619 140.225 69.6619ZM171.19 69.6619H171.368C171.606 69.7128 171.724 69.8317 171.724 70.0184V70.1967C171.724 70.4174 171.606 70.5277 171.368 70.5277C171.198 70.5277 171.028 70.3579 170.859 70.0184C170.893 69.7808 171.003 69.6619 171.19 69.6619ZM175.493 81.7318C175.527 81.9525 175.646 82.0629 175.85 82.0629V81.7318H175.493ZM176.181 82.2411V82.5976H176.359V82.2411H176.181ZM215.759 57.1082C219.714 57.1082 223.058 57.9485 225.791 59.6291C225.588 59.731 225.367 59.7819 225.129 59.7819V60.1129C225.537 60.1129 227.09 61.1739 229.789 63.2959C230.451 63.2959 231.122 63.5166 231.801 63.958H233.66L234.475 64.1362V64.3145C234.475 64.5352 234.364 64.6455 234.143 64.6455H233.303C233.201 64.6455 233.15 64.5861 233.15 64.4673C232.964 64.5861 232.684 64.6455 232.31 64.6455V64.7983C234.839 67.6163 236.732 71.4104 237.989 76.1807L237.505 76.5117H233.481V76.69C235.128 76.69 236.079 76.7409 236.333 76.8428C236.52 76.7409 236.8 76.69 237.174 76.69H237.505C237.946 76.69 238.167 77.751 238.167 79.873C238.201 80.0937 238.311 80.204 238.498 80.204H240.178C240.28 80.204 240.331 80.2549 240.331 80.3568L240.688 80.204H240.841C241.52 80.2719 241.859 80.4332 241.859 80.6878C241.859 84.4055 240.798 88.1487 238.676 91.9174L238.345 92.0702H235.162L234.475 92.5795H232.819C232.599 92.6134 232.488 92.7238 232.488 92.9105C233.711 92.9105 234.322 92.9699 234.322 93.0888C231.724 97.3667 227.71 100.541 222.277 102.612C219.629 103.291 217.227 103.631 215.071 103.631H213.238C211.93 103.631 211.039 103.512 210.564 103.274C210.343 103.393 210.173 103.453 210.055 103.453C205.149 102.621 201.303 101 198.519 98.589C196.363 96.7725 194.632 94.9391 193.325 93.0888C193.138 92.9699 192.917 92.9105 192.663 92.9105H191.16V92.5795H192.815C192.815 92.24 192.934 92.0702 193.172 92.0702H195.336L196.177 91.9174C194.445 88.6241 193.495 85.6108 193.325 82.8777V82.3684L193.503 82.0374C193.605 82.0374 193.656 82.0968 193.656 82.2156C195.336 82.0968 196.567 82.0374 197.348 82.0374H199.844V81.8592C199.844 81.6385 199.733 81.5281 199.513 81.5281H193.503C193.367 81.5281 193.087 81.1377 192.663 80.3568H189.811C189.59 80.3568 189.48 80.2464 189.48 80.0257C189.48 79.8051 189.93 79.6353 190.829 79.5165V78.8544C190.71 78.8544 190.541 78.8035 190.32 78.7016C190.099 78.8035 189.93 78.8544 189.811 78.8544C189.709 78.6337 189.658 78.464 189.658 78.3451C189.981 74.4746 191.423 70.5786 193.987 66.6572C194.971 65.3161 195.871 64.6455 196.686 64.6455C198.129 64.6455 198.85 64.4758 198.85 64.1362C198.477 63.9156 198.146 63.8052 197.857 63.8052H197.679L196.839 63.958L196.686 63.627L196.839 63.2959C196.397 63.2959 196.177 63.1856 196.177 62.9649C197.009 62.2349 198.57 61.1739 200.862 59.7819H202.696C205.683 57.9994 210.038 57.1082 215.759 57.1082ZM201.855 78.0141V78.3451L202.874 79.0327V79.3637C202.874 79.5844 202.755 79.6947 202.517 79.6947H201.702V80.204H204.707C204.894 80.204 205.064 80.5944 205.216 81.3753C207.61 81.4772 209.393 81.5281 210.564 81.5281H211.888V81.8592C211.888 82.0968 211.778 82.2156 211.557 82.2156C211.353 82.0968 211.192 82.0374 211.073 82.0374C210.954 82.0374 210.895 82.0968 210.895 82.2156L210.055 82.0374C209.647 82.0374 208.085 82.0968 205.369 82.2156V83.0305C205.912 85.7636 207.304 88.2251 209.545 90.415C210.785 91.2638 211.404 91.7646 211.404 91.9174L211.073 92.0702H208.73L208.883 92.4012V92.5795H207.89V92.9105H209.902C211.888 93.4707 213.221 93.7508 213.9 93.7508C214.545 93.7508 215.606 93.5811 217.083 93.2415C217.083 93.0208 216.972 92.9105 216.752 92.9105H215.911V92.5795H217.745C217.864 92.5795 218.644 92.4097 220.087 92.0702H221.768C222.023 92.0702 222.243 92.0193 222.43 91.9174C222.651 92.0193 222.821 92.0702 222.939 92.0702C225.129 91.1365 227.081 89.0739 228.796 85.8825C229.458 83.6416 229.789 82.3599 229.789 82.0374V80.6878C229.789 80.5011 229.237 80.3398 228.134 80.204L227.803 80.3568H226.632C226.173 80.3568 225.944 79.2449 225.944 77.021L225.129 76.8428H219.425V76.5117C221.106 76.4099 222.337 76.3589 223.118 76.3589H225.613V76.1807C224.561 73.2099 222.888 70.9266 220.597 69.3309C218.067 67.7691 216.005 66.9882 214.409 66.9882C209.741 66.9882 205.946 69.3818 203.027 74.169C202.246 76.1383 201.855 77.4199 201.855 78.0141ZM190.32 81.5281H192.153C192.374 81.5621 192.484 81.6724 192.484 81.8592L192.153 82.0374H190.32V81.5281ZM231.47 82.2156L231.317 82.5467V82.6995H231.47C231.47 82.4788 231.58 82.3684 231.801 82.3684V82.2156H231.47ZM210.895 84.7111H211.073C211.294 84.7451 211.404 84.8554 211.404 85.0421V85.5514C211.404 85.7721 211.294 85.8825 211.073 85.8825H210.895C210.674 85.8825 210.564 85.7721 210.564 85.5514V85.0421C210.598 84.8215 210.708 84.7111 210.895 84.7111ZM191.313 86.5445H192.332L192.484 87.3848L192.001 87.7159H191.491C191.271 87.7159 191.101 87.3848 190.982 86.7228L191.313 86.5445ZM244.845 57.0827H273.492C273.747 57.0827 273.976 57.1421 274.18 57.261C274.384 57.1421 274.613 57.0827 274.867 57.0827C275.105 57.3713 275.224 57.6005 275.224 57.7703L275.046 58.1268C275.164 58.7209 275.394 59.1793 275.733 59.5018V66.0206L275.555 66.3516L274.689 66.1988H271.099L270.055 66.3516C269.868 66.2498 269.588 66.1988 269.214 66.1988L268.018 66.3516C267.814 66.2498 267.585 66.1988 267.33 66.1988L266.974 66.3516C266.855 66.3516 266.795 66.3007 266.795 66.1988L265.955 66.3516H264.223V72.3611C264.223 72.5988 263.765 72.777 262.848 72.8958C262.848 73.3372 262.738 73.5579 262.517 73.5579H260.964C260.743 73.6088 260.633 73.7277 260.633 73.9144C260.667 74.1351 260.777 74.2454 260.964 74.2454H262.696L263.027 74.4237L262.848 75.2895V76.8428L263.892 77.5303C263.892 77.751 263.205 77.9207 261.83 78.0396V88.1487C261.83 88.4713 261.253 88.7005 260.098 88.8363V89.0145H262.696C263.375 89.3201 263.714 89.5493 263.714 89.702V103.274C263.714 103.495 263.604 103.605 263.383 103.605H256.508C255.353 103.605 253.639 103.546 251.364 103.427C251.245 101.322 251.186 99.7773 251.186 98.7927V89.5238C250.15 89.3031 249.633 89.0739 249.633 88.8363L249.302 89.0145H247.748V88.8363C247.782 88.6156 247.901 88.5052 248.105 88.5052L248.945 88.6835C249.166 88.5647 249.344 88.5052 249.48 88.5052V78.1923C249.514 77.9717 249.624 77.8613 249.811 77.8613H251.364V77.1738C250.787 77.1738 250.498 77.0634 250.498 76.8428V74.6019C250.498 74.3643 250.379 74.2454 250.142 74.2454H248.614C248.376 74.2454 248.258 74.1351 248.258 73.9144C248.291 73.6767 248.41 73.5579 248.614 73.5579H250.142L250.829 72.7176H251.695L251.873 71.1643C251.873 70.9436 251.814 70.8333 251.695 70.8333L251.873 69.9675V67.2174C251.873 66.7251 251.644 66.3856 251.186 66.1988C251.067 66.1988 251.008 66.2498 251.008 66.3516L250.142 66.1988H240.211C239.973 66.1988 239.854 66.08 239.854 65.8423V59.3236C239.396 59.3236 239.167 59.2132 239.167 58.9925V58.8143C239.167 58.5596 239.226 58.3305 239.345 58.1268C239.226 57.923 239.167 57.6939 239.167 57.4392C239.286 57.4392 239.345 57.3798 239.345 57.261C241.807 57.1421 243.64 57.0827 244.845 57.0827ZM246.373 73.5579H246.73C246.95 73.6088 247.061 73.7277 247.061 73.9144C247.061 74.1351 246.95 74.2454 246.73 74.2454H246.373C246.152 74.2454 246.042 74.1351 246.042 73.9144C246.076 73.6767 246.186 73.5579 246.373 73.5579ZM251.186 87.1302V87.4612H251.364V87.1302H251.186ZM280.247 57.0318H304.744C304.896 57.0318 305.066 57.2016 305.253 57.5411V63.4233C305.253 63.576 305.423 63.7458 305.762 63.9325H306.45C306.721 63.9325 306.959 63.8731 307.163 63.7543C307.723 63.9071 308.003 64.0768 308.003 64.2636V64.6201C308.003 64.8407 307.893 64.9511 307.672 64.9511H306.806V65.8169C306.806 66.0545 306.687 66.1734 306.45 66.1734H294.558C293.353 66.1734 291.519 66.2328 289.058 66.3516V67.9049C289.092 68.1256 289.202 68.2359 289.389 68.2359H290.942C291.18 68.2699 291.299 68.3887 291.299 68.5924V76.0024H306.297C306.518 76.0364 306.628 76.1467 306.628 76.3335V78.9308C306.628 79.1515 306 79.3212 304.744 79.4401L304.387 79.2618L303.368 79.4401C303.131 79.3212 302.953 79.2618 302.834 79.2618L302.655 80.1276V83.056L302.834 84.7875L302.324 85.144H287.657C287.657 85.5344 287.258 85.7636 286.46 85.8315L285.416 85.6533H285.085C284.848 85.6872 284.729 85.8061 284.729 86.0098V86.1626H285.773L287.504 86.3408V92.0447C287.504 92.6559 287.844 92.9954 288.523 93.0633C288.523 93.3179 288.582 93.5471 288.701 93.7508C288.582 93.9545 288.523 94.1837 288.523 94.4383V94.6166H304.922C305.142 94.6166 305.312 95.1938 305.431 96.3481H308.003C308.241 96.3821 308.359 96.4924 308.359 96.6792C308.359 96.9168 308.241 97.0357 308.003 97.0357H306.119L305.253 97.2139V103.758H276.988C276.869 103.758 276.81 103.699 276.81 103.58L276.453 103.758H275.435C275.265 103.758 275.087 103.588 274.9 103.249V102.892C274.9 102.774 274.959 102.714 275.078 102.714L274.9 102.383V98.2325L274.034 98.0797H272.506C272.269 98.0797 272.15 97.9609 272.15 97.7232V97.3667C272.184 97.146 272.302 97.0357 272.506 97.0357C274.424 96.9168 275.918 96.8574 276.988 96.8574H277.675V96.5264L275.944 96.3481H275.256C275.019 96.3481 274.9 96.1784 274.9 95.8389L275.078 95.4824C274.959 95.2787 274.9 95.0495 274.9 94.7948C274.9 94.6421 275.248 94.4723 275.944 94.2856C276.063 94.0818 276.122 93.8442 276.122 93.5726C276.122 93.0803 275.715 92.8002 274.9 92.7323V86.8501L275.078 86.5191L274.747 86.3408H272.506C272.269 86.3408 272.15 86.2305 272.15 86.0098C272.184 85.7721 272.302 85.6533 272.506 85.6533H274.569C274.789 85.6533 274.9 85.5344 274.9 85.2968V79.6183C274.9 79.3807 275.078 79.2618 275.435 79.2618C275.791 79.2618 276.877 79.2109 278.694 79.109V68.5924C278.694 68.2359 278.066 68.0577 276.81 68.0577H276.453V65.3076L277.675 64.6201V64.2636C277.675 64.0429 277.557 63.9325 277.319 63.9325H275.256C275.019 63.9325 274.9 63.8137 274.9 63.576V57.5411L275.078 57.2101C277.387 57.0912 279.11 57.0318 280.247 57.0318ZM273.703 77.734H274.569C274.789 77.7679 274.9 77.8783 274.9 78.065V78.9308C274.9 79.1515 274.789 79.2618 274.569 79.2618H273.703C273.465 79.2618 273.346 79.1515 273.346 78.9308V78.065C273.397 77.8443 273.516 77.734 273.703 77.734ZM279.916 96.8574H281.469V96.5264H280.247C280.027 96.5603 279.916 96.6707 279.916 96.8574ZM298.53 97.0357V97.7232C298.564 97.9609 298.683 98.0797 298.887 98.0797H301.28C301.28 97.9439 301.34 97.7656 301.459 97.5449C301.34 97.3243 301.28 97.1545 301.28 97.0357H298.53ZM312.313 57.0318C312.534 57.0318 312.644 57.0912 312.644 57.2101C314.376 57.0912 315.649 57.0318 316.464 57.0318H328.534C332.914 57.0318 335.85 57.4307 337.344 58.2286C338.38 58.5342 339.016 58.8822 339.254 59.2726C339.135 59.4763 339.076 59.7055 339.076 59.9602C340.875 60.8259 342.429 62.7272 343.736 65.6641C344.551 68.1086 344.958 69.9505 344.958 71.1898C344.958 71.6142 344.788 72.9977 344.449 75.3404C345.128 75.3404 345.467 75.4592 345.467 75.6969C344.16 79.2788 342.089 81.9271 339.254 83.6416L336.657 84.6602V84.8384C336.928 85.0931 337.565 86.0183 338.567 87.614C338.193 87.8347 337.905 87.945 337.701 87.945L337.879 88.3015V88.4798C335.791 88.5816 334.408 88.6326 333.728 88.6326V88.8108C333.762 89.0485 333.881 89.1673 334.085 89.1673H338.388L339.942 91.0516C341.079 91.0516 341.826 91.6288 342.183 92.7832V92.9614C341.605 92.9614 341.317 93.0803 341.317 93.3179C344.899 98.4616 346.69 101.11 346.69 101.263C346.231 101.348 346.002 101.458 346.002 101.594C346.8 102.799 347.199 103.495 347.199 103.682L346.868 103.835H338.21C337.242 103.835 335.689 103.784 333.55 103.682C332.634 102.375 332.175 101.679 332.175 101.594C332.362 101.475 332.65 101.415 333.041 101.415V101.263C329.697 96.1869 328.025 93.4198 328.025 92.9614H328.712V92.6049C328.356 91.4675 327.668 90.8989 326.649 90.8989C325.75 89.7445 325.054 89.1673 324.561 89.1673H321.455V90.0331C321.455 90.1349 321.404 90.1859 321.302 90.1859L321.455 90.5424V98.4871H323.365C323.602 98.5211 323.721 98.6399 323.721 98.8436C323.721 99.0643 323.602 99.1746 323.365 99.1746H321.455C321.455 99.7518 321.404 100.04 321.302 100.04L321.455 100.397V102.459C321.455 102.714 321.404 102.943 321.302 103.147C321.404 103.368 321.455 103.546 321.455 103.682L321.124 103.835H314.045C312.89 103.835 311.159 103.784 308.85 103.682V99.5311C308.884 99.2935 309.003 99.1746 309.207 99.1746H311.091V98.6654H309.207C308.969 98.6654 308.85 98.5465 308.85 98.3089V89.3456L307.984 89.1673H304.547C304.309 89.1673 304.19 89.0485 304.19 88.8108L304.547 88.6326C307.416 88.5816 308.85 88.4713 308.85 88.3015C308.85 87.945 308.969 87.7668 309.207 87.7668C309.427 87.8856 309.597 87.945 309.716 87.945L309.894 87.614V75.8497C309.928 75.629 310.039 75.5186 310.225 75.5186H311.091L311.269 74.4746C311.049 74.3558 310.879 74.2964 310.76 74.2964C309.741 74.4152 309.164 74.4746 309.028 74.4746C309.028 73.5579 308.57 73.0996 307.653 73.0996V72.2338L308.85 71.5463V59.9602L309.894 59.2726V57.5411C309.928 57.3204 310.039 57.2101 310.225 57.2101H311.448C311.838 57.2101 312.127 57.1506 312.313 57.0318ZM321.455 66.1988C321.455 66.3007 321.404 66.3516 321.302 66.3516C321.404 67.506 321.455 68.3717 321.455 68.9489V69.993C321.455 70.1118 321.404 70.1712 321.302 70.1712L321.455 70.5022V70.6805C321.455 71.716 320.997 72.2338 320.08 72.2338V73.2778C320.997 73.3457 321.455 73.5155 321.455 73.7871H321.302C321.404 74.0078 321.455 74.1775 321.455 74.2964H325.605V74.6529H324.052L323.365 75.5186H322.499V77.2502H327.846C330.172 77.2502 331.734 76.673 332.532 75.5186C333.669 75.5186 334.238 75.1112 334.238 74.2964H332.684L332.353 74.1436C332.574 73.3457 332.684 72.6497 332.684 72.0555V70.6805C332.684 69.4752 331.649 68.1511 329.578 66.7081C329.323 66.4704 328.177 66.3007 326.14 66.1988L325.784 66.3516L325.427 66.1988C325.325 66.1988 325.274 66.2498 325.274 66.3516C324.867 66.2498 324.629 66.1988 324.561 66.1988C323.56 66.3007 322.991 66.3516 322.855 66.3516C322.21 66.2498 321.743 66.1988 321.455 66.1988ZM311.626 74.4746V74.6529H311.957V74.4746H311.626ZM312.492 74.4746V74.6529H312.823V74.4746H312.492ZM345.136 74.2964H345.646V74.6529H345.136V74.2964ZM346.333 74.2964H346.868V74.6529H346.333V74.2964ZM347.199 74.2964H348.752V74.6529H347.199V74.2964ZM321.99 87.945L321.633 87.7668C321.633 88.0045 321.523 88.1233 321.302 88.1233C321.404 88.344 321.455 88.5137 321.455 88.6326C322.609 88.5307 323.475 88.4798 324.052 88.4798H324.23L324.561 88.6326L325.274 87.4358C324.816 86.4002 324.528 85.8825 324.409 85.8825H322.855C322.618 85.8825 322.439 86.57 322.321 87.945H321.99ZM316.795 88.6326V88.8108C316.829 89.0485 316.948 89.1673 317.151 89.1673H320.258C320.479 89.1673 320.589 89.0485 320.589 88.8108V88.6326H316.795ZM330.622 101.594H330.953C330.953 101.78 331.072 102.01 331.309 102.281V102.638C331.157 102.621 330.927 102.332 330.622 101.772V101.594ZM331.819 103.325H331.997V103.682H331.819V103.325ZM362.331 57.0573H372.492C372.695 57.0912 373.62 59.5018 375.267 64.289L375.776 64.6201H377.508C377.814 64.8577 379.189 68.5415 381.633 75.6714L382.855 79.109L382.499 79.2873H378.527V79.4655C378.527 80.0767 378.875 80.4162 379.571 80.4841L380.615 80.3313H380.767C381.26 80.586 382.872 84.9488 385.606 93.4198L385.249 93.598C384.859 93.4792 384.629 93.4198 384.562 93.4198C384.46 93.4198 384.409 93.4792 384.409 93.598L383.186 93.4198H382.321C382.1 93.4537 381.99 93.5726 381.99 93.7763C382.601 95.6097 383 96.5264 383.186 96.5264H386.65C386.87 96.5603 386.981 96.6792 386.981 96.8829V97.0357C386.981 97.2733 386.87 97.3922 386.65 97.3922H382.855C382.584 97.3922 382.355 97.3327 382.168 97.2139C381.964 97.3327 381.727 97.3922 381.455 97.3922H377.839L376.642 97.2139L376.464 97.5704C376.498 97.7911 376.617 97.9014 376.82 97.9014H387.159C387.498 97.9014 388.245 99.8027 389.4 103.605V103.784H376.464C376.277 103.784 375.59 101.823 374.401 97.9014H365.26C365.005 97.9014 364.776 97.8505 364.572 97.7487C364.369 97.8505 364.139 97.9014 363.885 97.9014C363.647 97.9014 363.528 97.7911 363.528 97.5704C363.647 97.5704 363.707 97.511 363.707 97.3922C365.829 97.2733 367.382 97.2139 368.366 97.2139H373.892C374.113 97.2139 374.223 97.1036 374.223 96.8829L373.714 96.5264H370.251C370.115 96.5264 369.775 96.0086 369.232 94.9731H367.857V95.1513C367.857 95.2532 367.908 95.7115 368.01 96.5264H366.457C366.338 96.5264 365.939 96.0086 365.26 94.9731H355.253C354.59 94.9731 354.192 95.4314 354.056 96.3481L354.387 96.5264H357.315C357.553 96.5603 357.672 96.6792 357.672 96.8829V97.0357L355.431 103.784H342.317V103.605L344.736 96.7046L339.567 96.5264C339.329 96.5264 339.21 96.416 339.21 96.1954C339.787 94.345 340.195 93.4198 340.432 93.4198H345.092C345.924 93.4198 346.493 92.4437 346.798 90.4914C347.002 90.4745 347.579 89.04 348.53 86.188L350.44 80.6623V80.4841H348.708C348.471 79.4146 348.428 79.0411 348.581 79.3637C348.428 79.1939 349.964 79.109 353.19 79.109C353.36 79.0751 354.276 76.7239 355.94 72.0555L358.359 64.9766V64.7983H357.493V64.6201C358.359 61.6832 359.284 59.2132 360.269 57.2101L362.331 57.0573ZM367.857 72.0555C366.618 76.8767 365.752 79.2873 365.26 79.2873H361.287C361.067 79.2873 360.897 79.6353 360.778 80.3313H361.822C362.501 80.3992 362.841 80.569 362.841 80.8406C361.686 84.3886 361.109 86.2305 361.109 86.3663L361.975 86.5191L363.197 86.3663C363.418 86.4681 363.588 86.5191 363.707 86.5191L364.751 86.3663C364.852 86.3663 364.903 86.4172 364.903 86.5191L365.769 86.3663H368.697C368.816 86.3663 368.876 86.4172 368.876 86.5191C370.03 86.4172 370.607 86.2474 370.607 86.0098V85.8315C370.183 85.0676 369.665 83.5737 369.054 81.3499C369.054 80.7557 368.536 80.4162 367.501 80.3313C367.501 80.0427 367.382 79.7541 367.144 79.4655C367.195 79.2279 367.314 79.109 367.501 79.109H370.429C369.852 77.004 369.105 74.6529 368.188 72.0555H367.857ZM389.356 57.0318C389.967 57.1506 390.544 57.2101 391.087 57.2101C391.631 57.2101 392.208 57.1506 392.819 57.0318C393.073 57.0318 393.303 57.0912 393.506 57.2101C395.917 57.0912 397.878 57.0318 399.389 57.0318H406.289C411.942 57.0318 415.923 58.3559 418.232 61.0042L417.875 61.1824H416.679V61.5135C416.712 61.7511 416.823 61.87 417.01 61.87H419.098C420.625 63.2111 421.831 65.749 422.714 69.4837H424.623C424.844 69.5176 424.954 69.628 424.954 69.8147C424.581 70.0524 424.241 70.1712 423.936 70.1712L423.579 69.993C422.883 70.1118 422.535 70.2306 422.535 70.3494C422.654 70.5701 422.714 70.7399 422.714 70.8587L422.204 71.2152H420.982V72.7685C420.982 73.9908 420.354 75.943 419.098 78.6252C418.86 78.6762 418.741 78.795 418.741 78.9817H423.07V79.491H419.963C419.692 79.491 419.454 79.5504 419.25 79.6693C419.064 79.5504 418.834 79.491 418.563 79.491C418.223 79.8475 417.595 80.0767 416.679 80.1785C416.101 80.7218 415.813 81.1292 415.813 81.4008C416.033 81.4348 416.144 81.5536 416.144 81.7573C414.395 83.4719 411.917 84.5668 408.708 85.0421H406.646C405.152 85.0421 403.599 85.0931 401.986 85.1949C401.341 85.0931 400.874 85.0421 400.585 85.0421C399.804 85.144 399.176 85.1949 398.701 85.1949L398.345 85.0421C398.141 85.144 397.912 85.1949 397.657 85.1949V86.0607C397.657 86.1795 397.598 86.239 397.479 86.239C397.479 87.0538 398.056 87.4612 399.21 87.4612V102.128C399.21 102.706 399.439 102.994 399.898 102.994V103.529C399.898 103.75 399.787 103.86 399.567 103.86H392.131C391.147 103.86 389.704 103.809 387.802 103.707C387.802 103.809 387.743 103.86 387.624 103.86C387.59 103.487 387.251 103.088 386.606 102.663V87.283L385.74 87.1047H385.052V81.9101L383.83 81.2226V80.3568L385.383 79.491C387.505 79.3891 388.829 79.3382 389.356 79.3382V79.16C389.016 79.16 388.617 79.1006 388.159 78.9817L387.802 79.16C387.174 79.0411 386.657 78.9817 386.249 78.9817H385.383C385.163 78.9817 385.052 78.8629 385.052 78.6252V71.2152H385.74C386.419 71.2152 386.758 70.8672 386.758 70.1712C387.285 70.1712 387.633 70.1118 387.802 69.993C388.006 70.1118 388.235 70.1712 388.49 70.1712C388.728 70.1712 388.846 70.0524 388.846 69.8147C388.846 69.594 388.728 69.4837 388.49 69.4837H386.937C386.716 69.4837 386.606 69.3054 386.606 68.9489C386.606 67.5229 386.657 66.1988 386.758 64.9766C386.657 64.0938 386.606 63.1177 386.606 62.0482L386.249 61.87H384.518C384.297 61.87 384.187 61.7511 384.187 61.5135C384.221 61.2928 384.331 61.1824 384.518 61.1824H386.249C386.521 61.1824 386.691 60.8938 386.758 60.3167L386.606 59.4509C386.691 57.957 386.86 57.2101 387.115 57.2101H387.802C388.414 57.2101 388.931 57.1506 389.356 57.0318ZM382.633 61.1824H382.964C383.202 61.2164 383.321 61.3267 383.321 61.5135V61.87H382.633C382.396 61.87 382.277 61.7511 382.277 61.5135C382.311 61.2928 382.43 61.1824 382.633 61.1824ZM399.21 66.1988V69.1272C399.244 69.3648 399.363 69.4837 399.567 69.4837H401.12C401.341 69.5176 401.451 69.628 401.451 69.8147C401.451 70.0524 401.341 70.1712 401.12 70.1712C400.865 70.1712 400.636 70.1118 400.433 69.993C400.229 70.1118 400 70.1712 399.745 70.1712L399.389 69.993C399.236 70.8078 399.066 71.2152 398.879 71.2152H397.657C397.657 71.8603 397.598 72.2592 397.479 72.412C397.598 73.0401 397.657 73.5579 397.657 73.9653V74.3218C397.657 74.5765 397.598 74.8056 397.479 75.0093C397.598 75.2131 397.657 75.4422 397.657 75.6969V76.3844H403.87C406.264 76.3844 407.936 75.1197 408.887 72.5903C408.887 71.8603 409.005 71.3425 409.243 71.037L410.109 71.2152H410.287C410.508 71.2152 410.618 70.8672 410.618 70.1712H412.35C412.35 70.0524 412.409 69.8741 412.528 69.6365L412.171 69.4837H410.287C409.167 67.2938 407.265 66.1988 404.583 66.1988H399.21ZM407.69 69.6365H409.574V69.993H408.556L407.69 69.8147V69.6365ZM426.362 57.1082H438.253C438.491 57.1082 438.669 57.7363 438.788 58.9925H440.673C440.91 59.0435 441.029 59.1623 441.029 59.349L440.494 59.7055C440.104 59.5867 439.875 59.5273 439.807 59.5273C439.603 59.6461 439.374 59.7055 439.119 59.7055V59.5273C438.899 59.6461 438.729 59.7055 438.61 59.7055V80.0512C438.61 80.3228 439.068 80.4926 439.985 80.5605C440.189 80.4417 440.418 80.3822 440.673 80.3822C440.673 80.4332 440.791 80.6029 441.029 80.8915V81.4263C441.029 81.579 440.851 81.7488 440.494 81.9355H439.476C439.119 81.9355 438.941 81.8761 438.941 81.7573L438.101 81.9355H436.369C436.131 81.9695 436.013 82.0883 436.013 82.292V82.9796C436.047 83.2003 436.165 83.3106 436.369 83.3106H439.985V95.3805C439.985 95.6351 440.044 95.8643 440.163 96.068C439.977 96.6452 439.629 96.9338 439.119 96.9338C439.119 96.815 439.06 96.7556 438.941 96.7556L438.788 97.1121V102.103C438.822 102.341 438.933 102.459 439.119 102.459C439.323 102.341 439.552 102.281 439.807 102.281C440.044 102.706 440.163 103.164 440.163 103.656L439.807 103.835H432.219C431.251 103.835 429.706 103.775 427.584 103.656V102.638L426.362 101.95C426.362 101.831 426.302 101.772 426.184 101.772L426.362 100.55V99.5311C426.362 99.2595 426.302 99.0303 426.184 98.8436C426.302 98.6399 426.362 98.4107 426.362 98.1561V97.2903C426.362 97.0696 425.844 96.781 424.809 96.4245C424.69 96.2038 424.63 96.0341 424.63 95.9152C424.817 95.4399 424.995 95.2023 425.165 95.2023H425.853C426.056 95.2023 426.226 95.72 426.362 96.7556H427.228C427.465 96.7556 427.584 96.6452 427.584 96.4245V83.6671C427.584 83.4294 427.465 83.3106 427.228 83.3106C425.207 83.1918 424.002 83.1323 423.612 83.1323L423.433 82.8013V82.292C423.433 82.1223 423.603 81.944 423.943 81.7573C424.062 81.7573 424.121 81.8167 424.121 81.9355L424.477 81.7573H428.093C428.314 81.7573 428.424 81.647 428.424 81.4263V80.8915L428.093 80.3822L426.871 80.5605H426.54C426.37 80.5605 426.201 80.3907 426.031 80.0512V60.0365L426.184 59.7055C426.014 59.5867 425.674 59.5273 425.165 59.5273V59.1708H426.031V57.4647C426.065 57.227 426.175 57.1082 426.362 57.1082ZM427.228 59.349C427.262 59.5867 427.38 59.7055 427.584 59.7055H427.915C428.153 59.7055 428.272 59.5867 428.272 59.349C428.272 59.1114 428.153 58.9925 427.915 58.9925H427.584C427.346 59.0435 427.228 59.1623 427.228 59.349ZM456.722 57.0573H466.882C467.086 57.0912 468.011 59.5018 469.658 64.289L470.167 64.6201H471.898C472.204 64.8577 473.579 68.5415 476.024 75.6714L477.246 79.109L476.889 79.2873H472.917V79.4655C472.917 80.0767 473.265 80.4162 473.961 80.4841L475.005 80.3313H475.158C475.65 80.586 477.263 84.9488 479.996 93.4198L479.639 93.598C479.249 93.4792 479.02 93.4198 478.952 93.4198C478.85 93.4198 478.799 93.4792 478.799 93.598L477.577 93.4198H476.711C476.49 93.4537 476.38 93.5726 476.38 93.7763C476.991 95.6097 477.39 96.5264 477.577 96.5264H481.04C481.261 96.5603 481.371 96.6792 481.371 96.8829V97.0357C481.371 97.2733 481.261 97.3922 481.04 97.3922H477.246C476.974 97.3922 476.745 97.3327 476.558 97.2139C476.355 97.3327 476.117 97.3922 475.845 97.3922H472.229L471.033 97.2139L470.854 97.5704C470.888 97.7911 471.007 97.9014 471.211 97.9014H481.549C481.889 97.9014 482.636 99.8027 483.79 103.605V103.784H470.854C470.668 103.784 469.98 101.823 468.792 97.9014H459.65C459.396 97.9014 459.166 97.8505 458.963 97.7487C458.759 97.8505 458.53 97.9014 458.275 97.9014C458.037 97.9014 457.919 97.7911 457.919 97.5704C458.037 97.5704 458.097 97.511 458.097 97.3922C460.219 97.2733 461.772 97.2139 462.757 97.2139H468.282C468.503 97.2139 468.613 97.1036 468.613 96.8829L468.104 96.5264H464.641C464.505 96.5264 464.166 96.0086 463.623 94.9731H462.248V95.1513C462.248 95.2532 462.298 95.7115 462.4 96.5264H460.847C460.728 96.5264 460.329 96.0086 459.65 94.9731H449.643C448.981 94.9731 448.582 95.4314 448.446 96.3481L448.777 96.5264H451.705C451.943 96.5603 452.062 96.6792 452.062 96.8829V97.0357L449.821 103.784H436.707V103.605L439.126 96.7046L433.957 96.5264C433.719 96.5264 433.601 96.416 433.601 96.1954C434.178 94.345 434.585 93.4198 434.823 93.4198H439.483C440.315 93.4198 440.883 92.4437 441.189 90.4914C441.393 90.4745 441.97 89.04 442.92 86.188L444.83 80.6623V80.4841H443.099C442.861 79.4146 442.819 79.0411 442.971 79.3637C442.819 79.1939 444.355 79.109 447.58 79.109C447.75 79.0751 448.667 76.7239 450.33 72.0555L452.749 64.9766V64.7983H451.884V64.6201C452.749 61.6832 453.675 59.2132 454.659 57.2101L456.722 57.0573ZM462.248 72.0555C461.008 76.8767 460.142 79.2873 459.65 79.2873H455.678C455.457 79.2873 455.287 79.6353 455.169 80.3313H456.213C456.892 80.3992 457.231 80.569 457.231 80.8406C456.077 84.3886 455.5 86.2305 455.5 86.3663L456.365 86.5191L457.588 86.3663C457.808 86.4681 457.978 86.5191 458.097 86.5191L459.141 86.3663C459.243 86.3663 459.294 86.4172 459.294 86.5191L460.159 86.3663H463.088C463.207 86.3663 463.266 86.4172 463.266 86.5191C464.42 86.4172 464.998 86.2474 464.998 86.0098V85.8315C464.573 85.0676 464.055 83.5737 463.444 81.3499C463.444 80.7557 462.927 80.4162 461.891 80.3313C461.891 80.0427 461.772 79.7541 461.535 79.4655C461.585 79.2279 461.704 79.109 461.891 79.109H464.819C464.242 77.004 463.495 74.6529 462.579 72.0555H462.248Z" fill="#FFCC00"/>
<path d="M350.388 118.455C350.402 118.374 350.442 118.285 350.51 118.19C350.592 118.095 350.687 118.007 350.795 117.926C350.904 117.844 351.019 117.783 351.142 117.742C351.264 117.688 351.379 117.661 351.488 117.661H356.701C356.931 117.661 357.128 117.736 357.291 117.885C357.454 118.021 357.576 118.143 357.658 118.251L358.167 119.412L368.857 146.984C368.966 147.255 368.946 147.479 368.796 147.656C368.647 147.818 368.389 147.9 368.022 147.9H362.178C361.866 147.9 361.622 147.846 361.445 147.737C361.282 147.615 361.153 147.418 361.058 147.146C360.787 146.454 360.522 145.769 360.264 145.09C360.006 144.397 359.748 143.705 359.49 143.013H348.678C348.42 143.705 348.155 144.397 347.884 145.09C347.626 145.769 347.368 146.454 347.11 147.146C346.933 147.649 346.587 147.9 346.071 147.9H340.064C339.806 147.9 339.589 147.832 339.413 147.696C339.25 147.561 339.222 147.357 339.331 147.085L350.388 118.455ZM354.094 127.17C353.836 127.863 353.572 128.609 353.3 129.41C353.042 130.211 352.784 131.019 352.526 131.834C352.268 132.648 352.004 133.456 351.732 134.257C351.474 135.044 351.216 135.784 350.958 136.476H357.21L354.094 127.17ZM372.202 118.536C372.202 118.292 372.283 118.082 372.446 117.905C372.609 117.729 372.833 117.641 373.118 117.641H379.146C379.377 117.641 379.587 117.722 379.777 117.885C379.967 118.048 380.069 118.265 380.082 118.536V140.691H391.282C391.526 140.691 391.737 140.773 391.913 140.936C392.09 141.099 392.178 141.323 392.178 141.608V146.963C392.178 147.194 392.097 147.404 391.934 147.594C391.784 147.785 391.567 147.886 391.282 147.9H373.098C372.501 147.9 372.202 147.601 372.202 147.004V118.536ZM396.55 118.598C396.55 118.312 396.624 118.088 396.774 117.926C396.923 117.749 397.147 117.661 397.446 117.661H410.458C411.394 117.661 412.277 117.79 413.105 118.048C413.933 118.306 414.693 118.665 415.386 119.127C416.078 119.575 416.702 120.118 417.259 120.756C417.816 121.381 418.284 122.059 418.664 122.792C419.058 123.525 419.356 124.299 419.56 125.114C419.764 125.915 419.865 126.729 419.865 127.557C419.865 128.779 419.641 129.974 419.193 131.141C418.759 132.309 418.135 133.347 417.32 134.257C416.505 135.166 415.528 135.906 414.388 136.476C413.247 137.033 411.985 137.318 410.6 137.332H404.43V147.024C404.43 147.608 404.118 147.9 403.494 147.9H397.446C397.174 147.9 396.957 147.832 396.794 147.696C396.631 147.547 396.55 147.323 396.55 147.024V118.598ZM411.883 127.517C411.883 127.109 411.808 126.702 411.659 126.295C411.523 125.888 411.32 125.528 411.048 125.216C410.777 124.89 410.444 124.625 410.05 124.421C409.67 124.218 409.236 124.116 408.747 124.116H404.43V130.917H408.747C409.236 130.917 409.677 130.822 410.071 130.632C410.464 130.428 410.79 130.171 411.048 129.858C411.32 129.546 411.523 129.186 411.659 128.779C411.808 128.372 411.883 127.951 411.883 127.517ZM424.381 118.557C424.394 118.326 424.476 118.122 424.625 117.946C424.788 117.756 424.999 117.661 425.256 117.661H431.304C431.508 117.661 431.718 117.749 431.936 117.926C432.153 118.088 432.261 118.299 432.261 118.557V128.209H442.382V118.557C442.382 118.312 442.463 118.102 442.626 117.926C442.803 117.749 443.027 117.661 443.298 117.661H449.264C449.536 117.661 449.774 117.729 449.977 117.864C450.181 118 450.283 118.217 450.283 118.516V147.004C450.283 147.303 450.194 147.527 450.018 147.676C449.841 147.825 449.611 147.9 449.326 147.9H443.298C443.027 147.9 442.803 147.825 442.626 147.676C442.463 147.527 442.382 147.303 442.382 147.004V135.438H432.261V147.004C432.261 147.289 432.166 147.513 431.976 147.676C431.8 147.825 431.555 147.9 431.243 147.9H425.256C424.686 147.9 424.394 147.635 424.381 147.106V118.557ZM465.566 118.455C465.58 118.374 465.621 118.285 465.688 118.19C465.77 118.095 465.865 118.007 465.974 117.926C466.082 117.844 466.198 117.783 466.32 117.742C466.442 117.688 466.557 117.661 466.666 117.661H471.879C472.11 117.661 472.306 117.736 472.469 117.885C472.632 118.021 472.754 118.143 472.836 118.251L473.345 119.412L484.036 146.984C484.144 147.255 484.124 147.479 483.974 147.656C483.825 147.818 483.567 147.9 483.201 147.9H477.356C477.044 147.9 476.8 147.846 476.623 147.737C476.46 147.615 476.332 147.418 476.236 147.146C475.965 146.454 475.7 145.769 475.442 145.09C475.184 144.397 474.926 143.705 474.669 143.013H463.856C463.598 143.705 463.333 144.397 463.062 145.09C462.804 145.769 462.546 146.454 462.288 147.146C462.111 147.649 461.765 147.9 461.249 147.9H455.242C454.984 147.9 454.767 147.832 454.591 147.696C454.428 147.561 454.401 147.357 454.509 147.085L465.566 118.455ZM469.272 127.17C469.014 127.863 468.75 128.609 468.478 129.41C468.22 130.211 467.962 131.019 467.704 131.834C467.446 132.648 467.182 133.456 466.91 134.257C466.652 135.044 466.394 135.784 466.136 136.476H472.388L469.272 127.17Z" fill="white"/>
</svg>
