<svg width="57" height="57" viewBox="0 0 57 57" fill="none" xmlns="http://www.w3.org/2000/svg">
<path d="M0 28.5C0 12.7599 12.7599 0 28.5 0V0C44.2401 0 57 12.7599 57 28.5V28.5C57 44.2401 44.2401 57 28.5 57V57C12.7599 57 0 44.2401 0 28.5V28.5Z" fill="#ED145B"/>
<path fill-rule="evenodd" clip-rule="evenodd" d="M29.75 12.75C28.1865 12.75 26.6871 13.3711 25.5816 14.4766C24.476 15.5821 23.855 17.0815 23.855 18.645V20.092H21.184C20.6639 20.092 20.2306 20.4907 20.1874 21.0089L18.9634 35.6939C18.9402 35.9726 19.0347 36.2483 19.2241 36.4541C19.4134 36.6599 19.6803 36.777 19.96 36.777H39.54C39.8196 36.777 40.0865 36.6599 40.2759 36.4541C40.4652 36.2483 40.5597 35.9726 40.5365 35.6939L39.3125 21.0089C39.2693 20.4907 38.836 20.092 38.316 20.092H35.645V18.645C35.645 17.0815 35.0239 15.5821 33.9184 14.4766C32.8128 13.3711 31.3134 12.75 29.75 12.75ZM21.0468 34.777L22.1041 22.092H23.855V23.54C23.855 24.0923 24.3027 24.54 24.855 24.54H34.645C35.1972 24.54 35.645 24.0923 35.645 23.54V22.092H37.3958L38.4531 34.777H21.0468ZM26.9958 15.8908C26.2653 16.6213 25.855 17.612 25.855 18.645V20.092H33.645V18.645C33.645 17.612 33.2346 16.6213 32.5041 15.8908C31.7737 15.1604 30.783 14.75 29.75 14.75C28.7169 14.75 27.7262 15.1604 26.9958 15.8908ZM25.855 22.54V22.092H33.645V22.54H25.855Z" fill="white"/>
<path d="M18.46 44.25C22.8782 44.25 26.46 40.6683 26.46 36.25C26.46 31.8317 22.8782 28.25 18.46 28.25C14.0417 28.25 10.46 31.8317 10.46 36.25C10.46 40.6683 14.0417 44.25 18.46 44.25Z" fill="white"/>
<path d="M18.46 43.75C22.6021 43.75 25.96 40.3921 25.96 36.25C25.96 32.1079 22.6021 28.75 18.46 28.75C14.3178 28.75 10.96 32.1079 10.96 36.25C10.96 40.3921 14.3178 43.75 18.46 43.75Z" stroke="#E20049"/>
</svg>
