<svg width="103" height="103" viewBox="0 0 103 103" fill="none" xmlns="http://www.w3.org/2000/svg">
<rect x="39" y="32.3501" width="64" height="64" rx="16" fill="url(#paint0_linear)"/>
<g filter="url(#filter0_bd)">
<rect x="19" y="11.3501" width="64" height="64" rx="16" fill="#FBFAFC" fill-opacity="0.2" shape-rendering="crispEdges"/>
<rect x="19.5" y="11.8501" width="63" height="63" rx="15.5" stroke="#FAFCFC" shape-rendering="crispEdges"/>
</g>
<path d="M50.0489 28.2771C50.3483 27.3558 51.6517 27.3558 51.9511 28.2771L54.8167 37.0968C54.9506 37.5088 55.3346 37.7878 55.7678 37.7878H65.0413C66.0101 37.7878 66.4128 39.0274 65.6291 39.5968L58.1267 45.0477C57.7762 45.3023 57.6295 45.7537 57.7634 46.1657L60.6291 54.9854C60.9284 55.9067 59.874 56.6728 59.0902 56.1034L51.5878 50.6525C51.2373 50.3979 50.7627 50.3979 50.4122 50.6525L42.9098 56.1034C42.1261 56.6728 41.0716 55.9067 41.3709 54.9854L44.2366 46.1657C44.3705 45.7537 44.2238 45.3023 43.8733 45.0477L36.3709 39.5968C35.5872 39.0274 35.9899 37.7878 36.9587 37.7878H46.2322C46.6654 37.7878 47.0494 37.5088 47.1833 37.0968L50.0489 28.2771Z" fill="#FAFCFC"/>
<defs>
<filter id="filter0_bd" x="0" y="-4.6499" width="102" height="107" filterUnits="userSpaceOnUse" color-interpolation-filters="sRGB">
<feFlood flood-opacity="0" result="BackgroundImageFix"/>
<feGaussianBlur in="BackgroundImage" stdDeviation="8"/>
<feComposite in2="SourceAlpha" operator="in" result="effect1_backgroundBlur"/>
<feColorMatrix in="SourceAlpha" type="matrix" values="0 0 0 0 0 0 0 0 0 0 0 0 0 0 0 0 0 0 127 0" result="hardAlpha"/>
<feMorphology radius="5" operator="erode" in="SourceAlpha" result="effect2_dropShadow"/>
<feOffset dy="8"/>
<feGaussianBlur stdDeviation="12"/>
<feComposite in2="hardAlpha" operator="out"/>
<feColorMatrix type="matrix" values="0 0 0 0 0.360784 0 0 0 0 0.384314 0 0 0 0 0.796078 0 0 0 0.3 0"/>
<feBlend mode="normal" in2="effect1_backgroundBlur" result="effect2_dropShadow"/>
<feBlend mode="normal" in="SourceGraphic" in2="effect2_dropShadow" result="shape"/>
</filter>
<linearGradient id="paint0_linear" x1="103" y1="32.3501" x2="39" y2="96.3501" gradientUnits="userSpaceOnUse">
<stop stop-color="#ED145B"/>
<stop offset="1" stop-color="#DC14ED"/>
</linearGradient>
</defs>
</svg>
