<svg width="42" height="33" viewBox="0 0 42 33" fill="none" xmlns="http://www.w3.org/2000/svg">
<path d="M39.5625 28.875H30V25.5C30 24.3047 28.9453 23.25 27.75 23.25H18.75C17.4844 23.25 16.5 24.3047 16.5 25.5V28.875H2.4375C1.45312 28.875 0.75 29.6484 0.75 30.5625C0.75 31.5469 1.45312 32.25 2.4375 32.25H39.5625C40.4766 32.25 41.25 31.5469 41.25 30.5625C41.25 29.6484 40.4766 28.875 39.5625 28.875ZM26.625 28.875H19.875V26.625H26.625V28.875ZM6.375 4.6875C6.375 4.40625 6.58594 4.125 6.9375 4.125H35.0625C35.3438 4.125 35.625 4.40625 35.625 4.6875V26.625H39V4.6875C39 2.57812 37.1719 0.75 35.0625 0.75H6.9375C4.75781 0.75 3 2.57812 3 4.6875V26.625H6.375V4.6875Z" fill="#ED145B"/>
</svg>
