<svg width="170" height="50" viewBox="0 0 170 50" fill="none" xmlns="http://www.w3.org/2000/svg">
<path d="M42.5551 0.563563C42.4089 0.353278 42.057 0 41.3532 0H15.4887C13.0892 0 9.899 0.439495 9.899 4.24565V7.64805H8.62082C3.85998 7.64805 0 11.4773 0 16.2003V45.1797C0 48.9438 3.40424 48.9438 4.52344 48.9438H11.8618V32.0011C11.8618 30.3083 12.2392 28.7901 16.8008 28.7901H30.0001C31.0833 28.7901 31.7828 28.3653 32.2025 27.4506L34.7037 21.3271C34.9539 20.6626 34.744 20.2084 34.5956 19.9981C34.4494 19.7878 34.0975 19.4366 33.3959 19.4366H11.8618V13.7505H9.899V21.3796H32.5628L30.4071 26.6578C30.3308 26.8239 30.3117 26.8386 29.998 26.8386H16.7986C13.5852 26.8386 9.89688 27.4253 9.89688 31.9969V46.9923H4.52344C2.14726 46.9923 1.96284 46.2395 1.96284 45.1755V16.6419C1.96284 12.7496 5.14239 9.59529 9.06596 9.59529H37.86C38.9453 9.59529 39.6448 9.17051 40.0645 8.25578L42.6611 1.89256C42.9112 1.22806 42.7014 0.77595 42.5551 0.563563ZM38.267 7.46721C38.1907 7.63333 38.1737 7.64805 37.8579 7.64805H11.8618V4.24565C11.8618 2.98814 12.1353 1.94724 15.4887 1.94724H40.5202L38.267 7.46721Z" fill="#ED145B"/>
<path d="M115.78 17.5163H98.1212C97.7014 17.5163 97.3237 17.7702 97.1663 18.1585L96.6437 19.4492H104.764V36.3296C104.764 36.6696 104.764 36.8396 105.593 36.8396H107.658V19.4492H114.301C114.72 19.4492 115.098 19.1953 115.256 18.807L115.78 17.5163Z" fill="#ED145B"/>
<path d="M161.424 35.5719C162.383 34.5205 162.495 33.1017 162.495 32.1237C162.495 30.5391 162.029 29.3617 161.111 28.6229L161.109 28.6208C160.478 28.1108 159.5 27.6995 157.837 27.244L149.056 24.8913C147.251 24.4254 146.407 23.5313 146.407 22.0832C146.407 21.7453 146.407 20.7148 147.255 20.081C147.969 19.4996 148.943 19.4996 149.467 19.4996H158.797C159.13 19.4996 159.445 19.338 159.638 19.0631L160.732 17.5142H147.919C146.349 17.5142 145.157 17.8479 144.271 18.5342C143.098 19.4681 142.934 20.7064 142.934 21.9027C142.934 22.9248 143.045 24.396 144.011 25.3845C144.974 26.373 146.533 26.7277 146.55 26.7319L146.63 26.7508L156.135 29.284C158.03 29.7814 158.876 30.6482 158.876 32.0943C158.876 34.4974 157.126 34.8563 156.085 34.8563H145.669C145.335 34.8563 145.02 35.0179 144.829 35.2907L143.736 36.8396H157.516C158.956 36.8396 160.343 36.7431 161.424 35.5719Z" fill="#ED145B"/>
<path d="M78.1053 34.9066V29.3596C78.1053 28.5705 78.7433 27.9324 79.5324 27.9324H86.4709C86.8865 27.9324 87.2622 27.6806 87.4175 27.2944L87.9002 26.1044H78.1053V19.4492H89.9108C90.3306 19.4492 90.7083 19.1953 90.8658 18.8049L91.3883 17.5142H76.506C75.209 17.5142 75.209 17.85 75.209 18.2361V36.3275C75.209 36.6675 75.209 36.8375 76.038 36.8375H89.9087C90.3285 36.8375 90.7062 36.5835 90.8637 36.1932L91.3862 34.9024H78.1053V34.9066Z" fill="#ED145B"/>
<path d="M54.9748 17.5163C53.6777 17.5163 53.6777 17.8521 53.6777 18.2382V36.3296C53.6777 36.6696 53.6777 36.8396 54.5088 36.8396H56.5719V29.3596C56.5719 28.5705 57.21 27.9324 57.9991 27.9324H64.9418C65.3553 27.9324 65.7288 27.6806 65.8842 27.2986L66.3669 26.1044H56.5719V19.4492H68.388C68.8014 19.4492 69.175 19.1974 69.3303 18.8154L69.8571 17.5163H54.9748Z" fill="#ED145B"/>
<path d="M124.098 34.9066V29.3596C124.098 28.5705 124.736 27.9324 125.525 27.9324H132.461C132.879 27.9324 133.257 27.6785 133.412 27.2923L133.893 26.1044H124.098V19.4492H135.909C136.325 19.4492 136.701 19.1974 136.856 18.8112L137.381 17.5142H122.498C121.201 17.5142 121.201 17.85 121.201 18.2361V36.3275C121.201 36.6675 121.201 36.8375 122.03 36.8375H135.901C136.321 36.8375 136.699 36.5835 136.856 36.1932L137.379 34.9024H124.098V34.9066Z" fill="#ED145B"/>
<path d="M167.106 20.0988C167.376 20.0988 167.566 20.0501 167.675 19.9528C167.785 19.853 167.839 19.7106 167.839 19.5256C167.839 19.4356 167.827 19.3565 167.803 19.2883C167.781 19.2202 167.743 19.1642 167.69 19.1204C167.639 19.0766 167.569 19.0438 167.482 19.0219C167.397 19 167.291 18.989 167.164 18.989H166.686V20.0988H167.106ZM167.164 18.5509C167.585 18.5509 167.895 18.6276 168.095 18.7809C168.297 18.9318 168.398 19.1557 168.398 19.4526C168.398 19.6814 168.334 19.8761 168.205 20.0367C168.076 20.1973 167.882 20.3069 167.624 20.3653C167.665 20.392 167.701 20.4237 167.73 20.4602C167.762 20.4967 167.791 20.5393 167.818 20.588L168.65 21.8073H168.106C168.026 21.8073 167.967 21.7768 167.931 21.716L167.193 20.6135C167.171 20.5819 167.145 20.5575 167.113 20.5405C167.084 20.5235 167.038 20.5149 166.974 20.5149H166.686V21.8073H166.116V18.5509H167.164ZM167.208 22.5228C167.422 22.5228 167.628 22.496 167.825 22.4425C168.024 22.3865 168.209 22.3086 168.38 22.2088C168.553 22.1066 168.708 21.9849 168.847 21.8438C168.988 21.7026 169.109 21.5456 169.208 21.3728C169.308 21.1976 169.385 21.0102 169.438 20.8106C169.494 20.6111 169.522 20.403 169.522 20.1864C169.522 19.8603 169.462 19.5548 169.34 19.2701C169.221 18.9829 169.056 18.7335 168.847 18.5217C168.64 18.3076 168.396 18.1396 168.113 18.0179C167.831 17.8938 167.529 17.8318 167.208 17.8318C166.994 17.8318 166.788 17.8597 166.591 17.9157C166.394 17.9717 166.21 18.0508 166.04 18.153C165.872 18.2528 165.717 18.3745 165.576 18.5181C165.437 18.6617 165.318 18.8211 165.218 18.9963C165.121 19.1691 165.046 19.3565 164.992 19.5585C164.938 19.7605 164.912 19.9698 164.912 20.1864C164.912 20.403 164.938 20.6111 164.992 20.8106C165.046 21.0102 165.121 21.1976 165.218 21.3728C165.318 21.5456 165.437 21.7026 165.576 21.8438C165.717 21.9849 165.872 22.1066 166.04 22.2088C166.21 22.3086 166.394 22.3865 166.591 22.4425C166.788 22.496 166.994 22.5228 167.208 22.5228ZM167.208 17.5142C167.454 17.5142 167.69 17.5458 167.916 17.6091C168.145 17.6724 168.358 17.7624 168.555 17.8792C168.752 17.996 168.932 18.136 169.095 18.299C169.258 18.4597 169.397 18.6398 169.511 18.8393C169.628 19.0365 169.718 19.2494 169.782 19.4782C169.845 19.7045 169.876 19.9406 169.876 20.1864C169.876 20.4298 169.845 20.6658 169.782 20.8946C169.718 21.1209 169.628 21.3327 169.511 21.5298C169.397 21.7269 169.258 21.907 169.095 22.0701C168.932 22.2307 168.752 22.3695 168.555 22.4863C168.358 22.6031 168.145 22.6931 167.916 22.7564C167.69 22.8197 167.454 22.8513 167.208 22.8513C166.962 22.8513 166.726 22.8197 166.5 22.7564C166.273 22.6931 166.062 22.6031 165.864 22.4863C165.667 22.3695 165.487 22.2307 165.324 22.0701C165.164 21.907 165.025 21.7269 164.908 21.5298C164.791 21.3327 164.701 21.1209 164.638 20.8946C164.575 20.6683 164.543 20.4322 164.543 20.1864C164.543 19.9406 164.575 19.7045 164.638 19.4782C164.701 19.2494 164.791 19.0365 164.908 18.8393C165.025 18.6398 165.164 18.4597 165.324 18.299C165.487 18.136 165.667 17.996 165.864 17.8792C166.062 17.7624 166.273 17.6724 166.5 17.6091C166.726 17.5458 166.962 17.5142 167.208 17.5142Z" fill="#ED145B"/>
</svg>
