<svg width="194" height="57" viewBox="0 0 194 57" fill="none" xmlns="http://www.w3.org/2000/svg">
<path d="M48.51 1.0311C48.3433 0.791385 47.9422 0.388672 47.1399 0.388672H17.656C14.9208 0.388672 11.2842 0.889667 11.2842 5.22843V9.10694H9.82716C4.40011 9.10694 0 13.4721 0 18.856V51.8905C0 56.1813 3.88061 56.1813 5.15642 56.1813H13.5217V36.8678C13.5217 34.9381 13.9518 33.2074 19.1517 33.2074H34.1981C35.4329 33.2074 36.2303 32.7232 36.7087 31.6805L39.5599 24.7001C39.8451 23.9426 39.6059 23.4248 39.4367 23.1851C39.27 22.9454 38.8689 22.5451 38.0691 22.5451H13.5217V16.0633H11.2842V24.76H37.1195L34.6621 30.7768C34.5751 30.9661 34.5533 30.9829 34.1957 30.9829H19.1493C15.4862 30.9829 11.2818 31.6517 11.2818 36.863V53.9568H5.15642C2.44773 53.9568 2.23751 53.0986 2.23751 51.8857V19.3594C2.23751 14.9223 5.86199 11.3267 10.3346 11.3267H43.1578C44.395 11.3267 45.1924 10.8424 45.6708 9.7997L48.6308 2.54607C48.9159 1.78858 48.6767 1.2732 48.51 1.0311ZM43.6218 8.90079C43.5348 9.09016 43.5155 9.10694 43.1554 9.10694H13.5217V5.22843C13.5217 3.79496 13.8334 2.60839 17.656 2.60839H46.1903L43.6218 8.90079Z" fill="#ED145B"/>
<path d="M131.982 20.3562H111.852C111.374 20.3562 110.943 20.6456 110.763 21.0882L110.168 22.5596H119.424V41.8021C119.424 42.1897 119.424 42.3835 120.369 42.3835H122.723V22.5596H130.295C130.774 22.5596 131.205 22.2701 131.384 21.8275L131.982 20.3562Z" fill="#ED145B"/>
<path d="M184.013 40.9384C185.107 39.7398 185.233 38.1225 185.233 37.0076C185.233 35.2013 184.702 33.8592 183.657 33.017L183.654 33.0146C182.934 32.4333 181.819 31.9643 179.924 31.4452L169.914 28.7632C167.857 28.2321 166.895 27.2129 166.895 25.5621C166.895 25.1769 166.895 24.0023 167.862 23.2797C168.675 22.617 169.785 22.617 170.383 22.617H181.018C181.398 22.617 181.757 22.4328 181.977 22.1194L183.224 20.3538H168.618C166.828 20.3538 165.469 20.7342 164.46 21.5165C163.122 22.5811 162.936 23.9927 162.936 25.3564C162.936 26.5215 163.062 28.1986 164.163 29.3255C165.261 30.4523 167.039 30.8566 167.058 30.8614L167.149 30.8829L177.984 33.7706C180.145 34.3376 181.109 35.3257 181.109 36.9741C181.109 39.7135 179.113 40.1226 177.927 40.1226H166.053C165.673 40.1226 165.314 40.3068 165.096 40.6178L163.85 42.3835H179.558C181.2 42.3835 182.781 42.2734 184.013 40.9384Z" fill="#ED145B"/>
<path d="M89.0352 40.18V33.8568C89.0352 32.9572 89.7625 32.2299 90.6621 32.2299H98.5715C99.0452 32.2299 99.4735 31.9428 99.6505 31.5026L100.201 30.1461H89.0352V22.5596H102.493C102.971 22.5596 103.402 22.2701 103.581 21.8251L104.177 20.3538H87.2121C85.7336 20.3538 85.7336 20.7366 85.7336 21.1768V41.7997C85.7336 42.1873 85.7336 42.3811 86.6786 42.3811H102.49C102.969 42.3811 103.399 42.0916 103.579 41.6466L104.175 40.1752H89.0352V40.18Z" fill="#ED145B"/>
<path d="M62.668 20.3562C61.1895 20.3562 61.1895 20.7389 61.1895 21.1792V41.8021C61.1895 42.1897 61.1895 42.3835 62.1369 42.3835H64.4886V33.8568C64.4886 32.9572 65.216 32.2299 66.1155 32.2299H74.0297C74.5011 32.2299 74.9269 31.9428 75.104 31.5074L75.6542 30.1461H64.4886V22.5596H77.9582C78.4295 22.5596 78.8553 22.2725 79.0324 21.8371L79.6329 20.3562H62.668Z" fill="#ED145B"/>
<path d="M141.463 40.18V33.8568C141.463 32.9572 142.191 32.2299 143.09 32.2299H150.997C151.473 32.2299 151.904 31.9404 152.081 31.5002L152.629 30.1461H141.463V22.5596H154.928C155.402 22.5596 155.83 22.2725 156.007 21.8323L156.605 20.3538H139.64C138.162 20.3538 138.162 20.7366 138.162 21.1768V41.7997C138.162 42.1873 138.162 42.3811 139.107 42.3811H154.919C155.397 42.3811 155.828 42.0916 156.007 41.6466L156.603 40.1752H141.463V40.18Z" fill="#ED145B"/>
<path d="M190.49 23.3001C190.798 23.3001 191.014 23.2446 191.139 23.1336C191.264 23.0199 191.326 22.8576 191.326 22.6467C191.326 22.5441 191.312 22.4539 191.285 22.3762C191.26 22.2985 191.217 22.2347 191.156 22.1848C191.097 22.1349 191.018 22.0974 190.918 22.0724C190.821 22.0475 190.701 22.035 190.556 22.035H190.011V23.3001H190.49ZM190.556 21.5356C191.036 21.5356 191.39 21.623 191.617 21.7978C191.848 21.9698 191.963 22.225 191.963 22.5635C191.963 22.8243 191.889 23.0462 191.742 23.2293C191.595 23.4124 191.375 23.5373 191.081 23.6038C191.128 23.6344 191.168 23.6704 191.201 23.712C191.237 23.7537 191.271 23.8022 191.301 23.8577L192.25 25.2476H191.63C191.538 25.2476 191.472 25.2129 191.43 25.1436L190.59 23.8868C190.565 23.8508 190.534 23.823 190.498 23.8036C190.465 23.7842 190.412 23.7745 190.34 23.7745H190.011V25.2476H189.362V21.5356H190.556ZM190.606 26.0632C190.85 26.0632 191.085 26.0327 191.309 25.9717C191.537 25.9079 191.748 25.8191 191.942 25.7054C192.139 25.5888 192.317 25.4501 192.475 25.2892C192.636 25.1283 192.773 24.9494 192.887 24.7524C193 24.5526 193.088 24.339 193.149 24.1115C193.213 23.884 193.245 23.6468 193.245 23.3999C193.245 23.0282 193.175 22.68 193.036 22.3554C192.901 22.028 192.713 21.7437 192.475 21.5023C192.239 21.2582 191.96 21.0668 191.638 20.928C191.316 20.7865 190.972 20.7158 190.606 20.7158C190.362 20.7158 190.128 20.7477 189.903 20.8115C189.678 20.8753 189.469 20.9655 189.275 21.082C189.083 21.1958 188.907 21.3345 188.746 21.4982C188.588 21.6618 188.452 21.8436 188.338 22.0433C188.227 22.2403 188.141 22.4539 188.08 22.6842C188.019 22.9144 187.989 23.153 187.989 23.3999C187.989 23.6468 188.019 23.884 188.08 24.1115C188.141 24.339 188.227 24.5526 188.338 24.7524C188.452 24.9494 188.588 25.1283 188.746 25.2892C188.907 25.4501 189.083 25.5888 189.275 25.7054C189.469 25.8191 189.678 25.9079 189.903 25.9717C190.128 26.0327 190.362 26.0632 190.606 26.0632ZM190.606 20.3538C190.886 20.3538 191.156 20.3898 191.414 20.462C191.674 20.5341 191.917 20.6367 192.142 20.7699C192.366 20.9031 192.572 21.0626 192.758 21.2485C192.944 21.4316 193.102 21.6369 193.232 21.8644C193.365 22.0891 193.468 22.3318 193.54 22.5926C193.612 22.8506 193.648 23.1197 193.648 23.3999C193.648 23.6774 193.612 23.9465 193.54 24.2072C193.468 24.4653 193.365 24.7066 193.232 24.9313C193.102 25.1561 192.944 25.3614 192.758 25.5472C192.572 25.7303 192.366 25.8885 192.142 26.0216C191.917 26.1548 191.674 26.2574 191.414 26.3296C191.156 26.4017 190.886 26.4378 190.606 26.4378C190.326 26.4378 190.057 26.4017 189.799 26.3296C189.541 26.2574 189.3 26.1548 189.075 26.0216C188.85 25.8885 188.645 25.7303 188.459 25.5472C188.276 25.3614 188.118 25.1561 187.985 24.9313C187.851 24.7066 187.749 24.4653 187.677 24.2072C187.604 23.9492 187.568 23.6801 187.568 23.3999C187.568 23.1197 187.604 22.8506 187.677 22.5926C187.749 22.3318 187.851 22.0891 187.985 21.8644C188.118 21.6369 188.276 21.4316 188.459 21.2485C188.645 21.0626 188.85 20.9031 189.075 20.7699C189.3 20.6367 189.541 20.5341 189.799 20.462C190.057 20.3898 190.326 20.3538 190.606 20.3538Z" fill="#ED145B"/>
</svg>
