<svg width="49" height="49" viewBox="0 0 49 49" fill="none" xmlns="http://www.w3.org/2000/svg">
<path d="M0 24.002C0 10.746 10.746 0 24.002 0V0C37.2579 0 48.0039 10.746 48.0039 24.002V24.002C48.0039 37.2579 37.2579 48.0039 24.002 48.0039V48.0039C10.746 48.0039 0 37.2579 0 24.002V24.002Z" fill="#27282C"/>
<path fill-rule="evenodd" clip-rule="evenodd" d="M27.6022 29.1864L31.072 32.6517C31.5099 33.0963 32.2174 33.0963 32.6553 32.6517C33.0955 32.2081 33.0955 31.4906 32.6553 31.0459L29.1968 27.5874C30.1737 26.2759 30.7542 24.6499 30.7542 22.8869C30.7542 18.5413 27.2317 15.0188 22.8872 15.0188C18.5416 15.0188 15.019 18.5413 15.019 22.8869C15.019 27.2326 18.5416 30.7551 22.8872 30.7551C24.6558 30.7551 26.2885 30.1712 27.6022 29.1864ZM22.8861 28.5071C19.7835 28.5071 17.2671 25.9918 17.2671 22.8869C17.2671 19.7833 19.7824 17.2668 22.8872 17.2668C25.9909 17.2668 28.5062 19.7821 28.5062 22.8869C28.5062 25.9906 25.9909 28.5071 22.8883 28.5071H22.8861Z" fill="#929292"/>
</svg>
