<svg width="44" height="65" viewBox="0 0 44 65" fill="none" xmlns="http://www.w3.org/2000/svg">
<path fill-rule="evenodd" clip-rule="evenodd" d="M23.3546 58.3206C23.0204 58.2372 22.79 58.0086 22.7384 57.7089C22.6841 57.3889 22.8415 57.0639 23.16 56.8396C23.3917 56.6763 24.1209 56.5162 25.8549 56.1613C27.221 55.8825 29.4864 55.4191 29.8524 55.1368C29.9215 54.8685 30.0856 54.5603 30.29 54.1772C30.5906 53.614 30.9642 52.9129 31.1494 52.0985C31.6721 49.7931 31.2452 37.9868 31.1392 36.1797C31.0292 34.3124 30.5313 33.8076 30.0099 33.5415C24.1351 30.5357 21.3044 26.3944 21.3566 20.8822C21.4073 15.6039 23.5449 8.40004 23.9728 7.00934C24.066 6.70703 24.3368 6.50329 24.647 6.50235L40.8848 6.47472C40.9411 6.47499 40.9977 6.48152 41.052 6.49507C41.2895 6.55427 41.4802 6.7397 41.5499 6.979C41.9517 8.36889 43.9526 15.5685 43.9023 20.8437C43.8501 26.356 40.941 30.5066 35.0082 33.5328C34.482 33.8014 33.9747 34.3073 33.8289 36.1753C33.6884 37.9836 33.0376 49.7933 33.5166 52.0942C33.6857 52.9079 34.0464 53.608 34.3359 54.1703C34.5329 54.552 34.6912 54.8588 34.755 55.1269C34.8292 55.1792 35.1035 55.324 36.072 55.5655C36.8543 55.7601 37.8544 55.9619 38.7366 56.1405C39.4999 56.2944 40.2212 56.4396 40.7116 56.5618C41.195 56.6824 41.3353 56.7516 41.4153 56.8085C41.755 57.0497 41.9059 57.4226 41.8 57.7587C41.7134 58.0328 41.4272 58.3261 40.8821 58.3272L40.7595 58.3247L23.7193 58.355L23.6651 58.3566C23.5549 58.3567 23.4507 58.3445 23.355 58.3207L23.3546 58.3206Z" fill="white"/>
<mask id="mask0" mask-type="alpha" maskUnits="userSpaceOnUse" x="10" y="2" width="44" height="62">
<path fill-rule="evenodd" clip-rule="evenodd" d="M24.1646 2.45166L53.8367 9.85009L40.4178 63.6727L10.7457 56.2742L24.1646 2.45166Z" fill="white"/>
</mask>
<g mask="url(#mask0)">
<path fill-rule="evenodd" clip-rule="evenodd" d="M40.676 6.56874C40.598 6.54928 40.5167 6.5393 40.4356 6.5392L24.0374 6.54819C23.5901 6.54842 23.1998 6.8405 23.0661 7.27479C22.6334 8.67977 20.4712 15.9594 20.426 21.3116C20.3782 26.9819 23.2957 31.2389 29.3444 34.3253C29.7917 34.5535 30.2195 35.0026 30.3234 36.7265C30.4322 38.5379 30.8782 50.3586 30.3598 52.6453C30.1835 53.423 29.8178 54.1071 29.5239 54.6561C29.339 55.0021 29.1847 55.2904 29.0951 55.5582C28.5461 55.8241 26.5048 56.2379 25.2542 56.4912C23.3466 56.877 22.7062 57.0186 22.4214 57.2181C22.005 57.5095 21.7933 57.9628 21.8693 58.4002C21.9426 58.8239 22.259 59.1447 22.7148 59.2584C22.8353 59.2884 22.9648 59.3037 23.0999 59.3034C23.1179 59.3034 23.1396 59.3026 23.1643 59.302L23.225 59.3011L40.3627 59.2914L40.4234 59.2927C40.4481 59.2939 40.4695 59.2943 40.4879 59.294C41.2018 59.2941 41.5837 58.8877 41.7039 58.5077C41.8514 58.0393 41.6542 57.5287 41.2013 57.2084C41.0772 57.1202 40.8981 57.0402 40.3895 56.9134C39.8879 56.7884 39.1556 56.6406 38.3808 56.4841C37.493 56.3043 36.486 56.1011 35.7029 55.9058C34.9961 55.7296 34.6858 55.6128 34.5543 55.5514C34.469 55.2847 34.32 54.9977 34.1418 54.6537C33.8573 54.1048 33.5028 53.4214 33.3397 52.644C32.8592 50.3572 33.5034 38.536 33.6427 36.7248C33.7757 35.0006 34.211 34.5512 34.6616 34.3229C40.7627 31.2295 43.7511 26.9693 43.7989 21.299C43.8442 15.9464 41.804 8.66957 41.3943 7.26509C41.2938 6.92082 41.0187 6.65417 40.676 6.56874ZM40.5272 7.1649C40.6634 7.19887 40.7743 7.30296 40.8154 7.4442C41.2566 8.95801 43.2391 16.0582 43.1949 21.2989C43.1582 25.6812 41.2975 30.2745 34.3964 33.7732C33.6098 34.1722 33.1727 34.9689 33.0406 36.6822C32.9091 38.3952 32.2427 50.3669 32.749 52.7772C33.0501 54.2109 33.9028 55.2864 34.0157 55.8836C34.0505 56.0712 34.6843 56.2851 35.5541 56.502C37.0267 56.8691 39.1773 57.2444 40.2407 57.5096C40.5545 57.5878 40.774 57.6569 40.8531 57.7128C41.3596 58.0711 41.1975 58.6794 40.4927 58.6798C40.4637 58.6802 40.4215 58.6768 40.3679 58.6773C34.4576 58.6803 29.0766 58.6833 23.2299 58.6865C23.1764 58.6865 23.1345 58.6891 23.1047 58.6892C23.0152 58.6893 22.9348 58.6795 22.8634 58.6617C22.3725 58.5393 22.3138 58.036 22.7607 57.7227C23.2725 57.3635 29.5065 56.4841 29.6292 55.8866C29.752 55.2886 30.6222 54.2127 30.9478 52.7783C31.4946 50.3672 31.0294 38.3964 30.9259 36.6834C30.823 34.97 30.3989 34.1736 29.6189 33.7757C22.7767 30.2845 20.9927 25.6931 21.0297 21.3112C21.0734 16.0704 23.1753 8.96758 23.6418 7.45344C23.6956 7.27998 23.8534 7.1624 24.0319 7.16221L40.4301 7.15322C40.4638 7.15357 40.4962 7.15718 40.5272 7.1649Z" fill="#7F1E69"/>
</g>
<path fill-rule="evenodd" clip-rule="evenodd" d="M22.6181 20.0014C22.5386 22.2019 22.7899 24.7652 23.9285 26.9476C23.9908 27.08 24.0642 27.2166 24.1561 27.3623C25.2874 29.1656 26.9792 30.7333 29.2453 32.0844C29.395 32.1096 29.5468 32.128 29.6995 32.1273C30.5802 32.1221 31.4671 31.6113 31.7594 31.459C36.9737 28.7454 39.7063 25.1372 40.0874 20.4513C40.0987 20.2966 40.1044 20.1469 40.1129 19.9946L22.6181 20.0014Z" fill="#FDE6D0"/>
<path fill-rule="evenodd" clip-rule="evenodd" d="M23.1685 20.4057C23.1545 19.7233 23.1749 19.0298 23.2228 18.3382L23.1685 20.4057ZM23.3818 16.6984C23.4439 16.2503 23.5094 15.7953 23.5485 15.5517L23.3818 16.6984ZM23.7261 14.5252C24.2068 11.9547 24.8721 9.77982 25.1989 8.78572L23.7261 14.5252Z" fill="white"/>
<path d="M22.576 20.4179C22.5828 20.7451 22.8535 21.0049 23.1807 20.9982C23.508 20.9915 23.7678 20.7207 23.7611 20.3935L22.576 20.4179ZM23.814 18.3791C23.8366 18.0526 23.5902 17.7695 23.2637 17.7469C22.9372 17.7243 22.6542 17.9707 22.6316 18.2972L23.814 18.3791ZM22.7947 16.6169C22.7498 16.9411 22.9761 17.2404 23.3003 17.2854C23.6245 17.3304 23.9238 17.1041 23.9688 16.7799L22.7947 16.6169ZM24.1336 15.6456C24.1855 15.3224 23.9655 15.0184 23.6423 14.9666C23.3191 14.9147 23.0151 15.1347 22.9633 15.4579L24.1336 15.6456ZM23.1436 14.4162C23.0834 14.738 23.2955 15.0476 23.6172 15.1077C23.9389 15.1679 24.2485 14.9559 24.3087 14.6341L23.1436 14.4162ZM25.7619 8.9708C25.8641 8.65986 25.6949 8.32493 25.3839 8.22272C25.073 8.1205 24.7381 8.28971 24.6359 8.60064L25.7619 8.9708ZM23.7611 20.3935C23.7474 19.731 23.7672 19.0554 23.814 18.3791L22.6316 18.2972C22.5827 19.0043 22.5616 19.7156 22.576 20.4179L23.7611 20.3935ZM23.9688 16.7799C24.031 16.3317 24.0957 15.8823 24.1336 15.6456L22.9633 15.4579C22.9231 15.7083 22.8569 16.169 22.7947 16.6169L23.9688 16.7799ZM24.3087 14.6341C24.7829 12.0983 25.4399 9.95037 25.7619 8.9708L24.6359 8.60064C24.3043 9.60926 23.6308 11.8111 23.1436 14.4162L24.3087 14.6341Z" fill="#7F1E69"/>
<path fill-rule="evenodd" clip-rule="evenodd" d="M42.9203 20.0984L39.9098 20.0519C39.9039 20.2015 39.9 20.3485 39.8913 20.5C39.5708 25.1001 36.7737 28.6012 31.3669 31.1812C31.0639 31.3261 30.1447 31.8133 29.2243 31.8038C29.0642 31.8019 28.9056 31.7814 28.7486 31.7546C29.0185 31.9085 29.2948 32.0608 29.58 32.2101C29.7409 32.2944 29.8974 32.3802 30.0633 32.4627C30.3671 32.614 31.2885 33.1211 32.2098 33.1309C33.1301 33.1408 34.0494 32.6531 34.3524 32.5087C39.7588 29.9281 42.5563 26.4271 42.8769 21.8271C42.9082 21.2964 42.9199 20.7825 42.9197 20.2834L42.9212 20.2864C42.9217 20.2406 42.921 20.1998 42.9205 20.1546C42.9205 20.136 42.9206 20.1175 42.9203 20.0984Z" fill="#E8C6A6"/>
<path fill-rule="evenodd" clip-rule="evenodd" d="M14.1809 17.4875L5.04351 17.544C3.37378 18.9922 0.989674 21.3465 1.00003 22.9893L1.80134 58.9646C1.83377 59.5363 2.31032 59.9815 2.88552 59.9779L16.8713 59.8913C17.446 59.8873 17.9172 59.4363 17.9428 58.8646L18.2924 22.8817C18.282 21.2389 15.8686 18.9147 14.1809 17.4875Z" fill="#FDE6D0"/>
<path fill-rule="evenodd" clip-rule="evenodd" d="M12.4799 14.0761L11.9937 4.2292L12.7184 4.22473L12.7112 3.07543L11.9842 2.64903L11.9757 1.35596L9.51227 1.37158L7.04844 1.38677L7.05699 2.67939L6.33496 3.11473L6.34217 4.26402L7.0669 4.25956C7.0669 4.25956 6.76131 12.5781 6.70504 14.1097C6.70394 14.1397 12.4799 14.0761 12.4799 14.0761Z" fill="#F26649"/>
<path fill-rule="evenodd" clip-rule="evenodd" d="M12.5761 16.0057L11.9946 4.22968L12.7193 4.22522L12.7121 3.07592L11.9851 2.64951L11.9766 1.35645L9.51321 1.37207L7.04937 1.38725L7.05793 2.67988L6.3359 3.11522L6.3431 4.26451L7.06784 4.26005L6.63498 16.0428C6.63498 16.0428 0.985733 20.2435 1.0015 22.7577L1.80236 58.5846C1.83479 59.1534 2.31179 59.5972 2.88653 59.5937L16.8723 59.507C17.447 59.5035 17.9182 59.0538 17.9438 58.4846L18.2934 22.6506C18.2776 20.1363 12.5761 16.0057 12.5761 16.0057Z" stroke="#7F1E69" stroke-width="0.822272" stroke-linecap="round" stroke-linejoin="round"/>
<path fill-rule="evenodd" clip-rule="evenodd" d="M3.44629 54.5469H15.8906V27.1338H3.44629V54.5469Z" fill="#ECCBE5"/>
<mask id="mask1" mask-type="alpha" maskUnits="userSpaceOnUse" x="3" y="27" width="13" height="28">
<path fill-rule="evenodd" clip-rule="evenodd" d="M3.44629 54.5469H15.8906V27.1338H3.44629V54.5469Z" fill="white"/>
</mask>
<g mask="url(#mask1)">
<path fill-rule="evenodd" clip-rule="evenodd" d="M3.44629 47.138V59.6825H5.27458L12.9782 46.1523L6.29807 42.1292L3.44629 47.138Z" fill="#5CB79F"/>
<path fill-rule="evenodd" clip-rule="evenodd" d="M15.1777 55.8038L21.5222 59.5579H25.8277L26.6649 58.1132L17.1143 52.4619L15.1777 55.8038Z" fill="#DF3378"/>
<path fill-rule="evenodd" clip-rule="evenodd" d="M18.592 48.7271L13.8335 45.8952L15.4295 43.125L20.1881 45.957L18.592 48.7271Z" fill="#B71277"/>
<path fill-rule="evenodd" clip-rule="evenodd" d="M3.44678 39.7176L13.2712 45.6149L15.4227 41.8484L3.44678 34.6597V39.7176Z" fill="#DF3378"/>
<path fill-rule="evenodd" clip-rule="evenodd" d="M3.44629 45.004L3.83551 45.2414L5.76816 41.8028L3.44629 40.3862V45.004Z" fill="#F75F75"/>
<path fill-rule="evenodd" clip-rule="evenodd" d="M13.4867 57.6905L8.70117 54.8348L13.5697 46.3618L18.3553 49.2176L13.4867 57.6905Z" fill="#F5B554"/>
</g>
</svg>
