<svg width="40" height="41" viewBox="0 0 40 41" fill="none" xmlns="http://www.w3.org/2000/svg">
<path fill-rule="evenodd" clip-rule="evenodd" d="M21.414 20.5227L28.7068 13.0592C29.0977 12.659 29.0977 12.0123 28.7068 11.6121C28.3158 11.212 27.6838 11.212 27.2928 11.6121L20 19.0756L12.7072 11.6121C12.3162 11.212 11.6842 11.212 11.2932 11.6121C10.9023 12.0123 10.9023 12.659 11.2932 13.0592L18.586 20.5227L11.2932 27.9862C10.9023 28.3863 10.9023 29.0331 11.2932 29.4332C11.4882 29.6328 11.7442 29.7331 12.0002 29.7331C12.2562 29.7331 12.5122 29.6328 12.7072 29.4332L20 21.9697L27.2928 29.4332C27.4878 29.6328 27.7438 29.7331 27.9998 29.7331C28.2558 29.7331 28.5118 29.6328 28.7068 29.4332C29.0977 29.0331 29.0977 28.3863 28.7068 27.9862L21.414 20.5227Z" fill="#1D1D1B"/>
</svg>
