<svg width="264" height="211" viewBox="0 0 264 211" fill="none" xmlns="http://www.w3.org/2000/svg">
<path fill-rule="evenodd" clip-rule="evenodd" d="M37.3945 183.88C33.9669 177.204 35.7902 171.508 39.0515 176.071C42.6164 181.056 46.2807 174.712 42.9015 168.618C38.2674 160.258 47.2901 155.306 50.5302 166.455C53.0963 175.287 48.1771 179.845 51.0996 181.199C54.3987 182.726 55.0209 175.928 57.1602 175.928C59.0451 175.928 59.8116 179.36 56.5529 183.88H37.3945Z" fill="#F7A0B7"/>
<path fill-rule="evenodd" clip-rule="evenodd" d="M46.5914 183.88C48.1631 173.33 46.9355 164.573 43.1797 160.143L43.5502 159.83C47.3834 164.353 48.6559 173.224 47.0816 183.88H46.5914Z" fill="#EDEEB8"/>
<path fill-rule="evenodd" clip-rule="evenodd" d="M47.6726 174.693C47.8072 174.544 50.9788 171.023 51.5534 167.419L51.0738 167.342C50.522 170.803 47.3461 174.332 47.3136 174.367L47.6726 174.693Z" fill="#EDEEB8"/>
<path fill-rule="evenodd" clip-rule="evenodd" d="M46.8914 168.138L47.0269 167.673C44.3368 166.887 41.3069 164.302 41.277 164.276L40.9611 164.644C41.0878 164.753 44.0983 167.322 46.8914 168.138Z" fill="#EDEEB8"/>
<path fill-rule="evenodd" clip-rule="evenodd" d="M53.8669 183.88H53.1823C55.6868 181.585 57.3024 178.277 57.3024 175.642H57.7882C57.7882 178.259 56.2623 181.507 53.8669 183.88Z" fill="#EDEEB8"/>
<path fill-rule="evenodd" clip-rule="evenodd" d="M40.6222 183.88C37.0908 180.035 36.3947 174.819 36.3146 174.102L36.7968 174.049C36.8769 174.768 37.5915 180.13 41.2884 183.88H40.6222Z" fill="#EDEEB8"/>
<path fill-rule="evenodd" clip-rule="evenodd" d="M163.631 183.88C168.037 175.298 165.693 167.976 161.499 173.84C156.917 180.25 152.208 172.095 156.551 164.26C162.509 153.513 150.909 147.149 146.745 161.48C143.445 172.833 149.769 178.693 146.011 180.433C141.771 182.396 140.971 173.657 138.222 173.657C135.798 173.657 134.812 178.07 139.002 183.88H163.631Z" fill="#FBD0DB"/>
<path fill-rule="evenodd" clip-rule="evenodd" d="M151.807 183.88C149.787 170.319 151.366 159.06 156.192 153.366L155.716 152.962C150.788 158.778 149.153 170.181 151.177 183.88H151.807Z" fill="#F6F7DB"/>
<path fill-rule="evenodd" clip-rule="evenodd" d="M150.418 172.07C150.244 171.879 146.167 167.352 145.428 162.719L146.044 162.62C146.754 167.069 150.838 171.605 150.879 171.651L150.418 172.07Z" fill="#F6F7DB"/>
<path fill-rule="evenodd" clip-rule="evenodd" d="M151.422 163.644L151.247 163.046C154.706 162.036 158.6 158.713 158.638 158.68L159.046 159.152C158.883 159.292 155.012 162.596 151.422 163.644Z" fill="#F6F7DB"/>
<path fill-rule="evenodd" clip-rule="evenodd" d="M142.455 183.88H143.335C140.116 180.93 138.037 176.678 138.037 173.292H137.413C137.413 176.654 139.376 180.83 142.455 183.88Z" fill="#F6F7DB"/>
<path fill-rule="evenodd" clip-rule="evenodd" d="M159.481 183.88C164.02 178.937 164.915 172.233 165.018 171.311L164.397 171.242C164.295 172.165 163.377 179.06 158.624 183.88H159.481Z" fill="#F6F7DB"/>
<path fill-rule="evenodd" clip-rule="evenodd" d="M65.4418 183.629C55.6615 168.519 59.4525 153.797 66.7257 163.97C74.028 174.183 81.5335 161.188 74.6123 148.702C65.1197 131.577 83.6033 121.433 90.2402 144.271C95.4973 162.364 85.4196 171.703 91.408 174.475C98.1655 177.603 99.4406 163.678 103.822 163.678C108.179 163.678 109.643 172.624 99.6052 183.629H65.4418Z" fill="#EF426F"/>
<path fill-rule="evenodd" clip-rule="evenodd" d="M81.586 183.629C85.6675 160.389 83.3056 140.924 75.1823 131.341L75.9408 130.7C84.2313 140.48 86.6848 160.176 82.5945 183.629H81.586Z" fill="#DBDE70"/>
<path fill-rule="evenodd" clip-rule="evenodd" d="M84.3868 161.148C84.6614 160.844 91.1584 153.631 92.3367 146.246L91.3546 146.091C90.2247 153.179 83.7162 160.409 83.6511 160.481L84.3868 161.148Z" fill="#DBDE70"/>
<path fill-rule="evenodd" clip-rule="evenodd" d="M82.7857 147.721L83.0647 146.768C77.5524 145.158 71.3466 139.863 71.285 139.81L70.6365 140.562C70.8961 140.785 77.0649 146.051 82.7857 147.721Z" fill="#DBDE70"/>
<path fill-rule="evenodd" clip-rule="evenodd" d="M92.4735 183.629H90.4627C98.461 179.583 104.115 170.155 104.115 163.094H105.108C105.108 169.985 99.9552 179.031 92.4735 183.629Z" fill="#DBDE70"/>
<path fill-rule="evenodd" clip-rule="evenodd" d="M74.0726 183.629C63.2134 175.922 61.3117 161.654 61.1199 159.939L62.1081 159.83C62.3 161.558 64.2782 176.421 75.8599 183.629H74.0726Z" fill="#DBDE70"/>
<path fill-rule="evenodd" clip-rule="evenodd" d="M98.5476 52.6821L108.078 50.027C108.65 49.8687 108.958 50.6864 108.404 50.9325L99.4012 55.0207C98.7676 55.3108 98.0284 55.0294 97.7468 54.4052C97.4564 53.7722 97.738 53.0337 98.3628 52.7436C98.4244 52.7172 98.486 52.6997 98.5476 52.6821Z" fill="#72246C"/>
<path fill-rule="evenodd" clip-rule="evenodd" d="M166.528 31.8809L156.997 34.536C156.416 34.6943 156.117 33.8766 156.663 33.6305L165.674 29.5423C166.299 29.2522 167.038 29.5335 167.328 30.1665C167.61 30.7908 167.337 31.5293 166.704 31.8194C166.651 31.8458 166.58 31.8633 166.528 31.8809Z" fill="#72246C"/>
<path fill-rule="evenodd" clip-rule="evenodd" d="M165.674 55.0209L156.663 50.9328C156.117 50.6866 156.416 49.869 156.997 50.0272L166.528 52.6823C166.58 52.6999 166.65 52.7175 166.704 52.7439C167.337 53.034 167.61 53.7725 167.329 54.4055C167.038 55.0297 166.299 55.311 165.674 55.0209Z" fill="#72246C"/>
<path fill-rule="evenodd" clip-rule="evenodd" d="M96.9638 43.5298C96.2774 43.5825 95.6702 43.0638 95.6174 42.3781C95.5646 41.6923 96.0838 41.0857 96.7702 41.033H96.9638L106.829 41.7978C107.427 41.8418 107.427 42.721 106.829 42.7649L96.9638 43.5298Z" fill="#72246C"/>
<path fill-rule="evenodd" clip-rule="evenodd" d="M108.078 34.536L98.5476 31.8809C98.486 31.8633 98.4244 31.8458 98.3628 31.8194C97.738 31.5293 97.4564 30.7908 97.7468 30.1665C98.0284 29.5335 98.7676 29.2522 99.4012 29.5423L108.404 33.6305C108.958 33.8766 108.65 34.6943 108.078 34.536Z" fill="#72246C"/>
<path fill-rule="evenodd" clip-rule="evenodd" d="M168.103 43.5298L158.238 42.7649C157.64 42.721 157.64 41.8418 158.238 41.7978L168.103 41.033H168.296C168.983 41.0857 169.502 41.6923 169.449 42.3781C169.396 43.0638 168.798 43.5825 168.103 43.5298Z" fill="#72246C"/>
<path fill-rule="evenodd" clip-rule="evenodd" d="M189.98 103.542L164.645 162.815L162.321 161.822L177.484 126.365L186.873 104.395L213.009 43.2751L215.324 44.2686L189.98 103.542Z" fill="#F68D2E"/>
<path d="M166.603 155.065L165.058 158.679" stroke="#FDD26E" stroke-width="2.835" stroke-linecap="round" stroke-linejoin="round"/>
<path d="M213.706 44.9167L168.896 149.704" stroke="#FDD26E" stroke-width="2.835" stroke-linecap="round" stroke-linejoin="round"/>
<path fill-rule="evenodd" clip-rule="evenodd" d="M138.966 53.0338C138.376 49.2006 137.726 45.4202 137.479 44.0575C136.89 40.787 132.675 41.1914 132.533 44.8048V35.4328V35.3361C132.586 29.938 137.17 30.1403 137.496 31.7579C137.681 32.6898 139.679 42.9761 141.368 51.6447C141.051 52.4183 140.022 52.9019 140.022 52.9019L138.966 53.0338Z" fill="white"/>
<path fill-rule="evenodd" clip-rule="evenodd" d="M118.902 63.6541C120.838 55.7944 126.391 33.0943 127.051 28.8743C127.843 23.8279 132.401 24.9093 132.533 26.9138C132.524 26.9489 132.524 26.9753 132.524 27.0105C132.524 27.5643 132.533 30.7293 132.533 35.3362C132.524 35.3626 132.524 35.3889 132.524 35.4153C132.524 29.9381 127.887 30.1315 127.571 31.758C127.386 32.6899 125.379 42.9849 123.689 51.6535C124.006 52.4184 125.027 52.9019 125.027 52.9019L126.1 53.0338C126.691 49.2006 127.341 45.4202 127.587 44.0575C128.168 40.787 132.383 41.1914 132.524 44.8048V44.9806V44.9982V45.1916V45.2004C132.524 51.5304 132.524 58.6956 132.533 65.2718C132.524 77.0087 132.524 86.8817 132.524 86.8817V86.9784C132.507 87.6026 132.251 91.1633 129.603 93.7216C128.476 94.8118 127.403 95.9547 126.514 97.2471L111.615 118.989L103.151 99.1813C103.151 99.1813 110.234 91.6908 112.583 89.1851C115.76 85.8003 117.679 83.1541 117.837 79.2066L118.136 69.105C118.207 67.2675 118.462 65.4388 118.902 63.6541Z" fill="white"/>
<path fill-rule="evenodd" clip-rule="evenodd" d="M222.557 179.361C222.592 179.642 222.611 179.915 222.611 180.187C222.611 182.086 221.071 183.625 219.169 183.625H173.884C173.612 183.625 173.392 183.405 173.392 183.133V180.275C173.392 180.003 173.612 179.774 173.884 179.774H217.541C218.176 179.774 218.659 179.229 218.588 178.605L211.328 116.993C211.02 114.417 208.829 112.474 206.233 112.474H200.98C201.499 111.305 202.018 110.118 202.537 108.896C202.581 108.799 202.616 108.702 202.66 108.615H207.157C211.179 108.615 214.576 111.63 215.051 115.621L222.557 179.361Z" fill="#F68D2E"/>
<path d="M174.246 180.51H188.326" stroke="#FDD26E" stroke-width="2.835" stroke-linecap="round" stroke-linejoin="round"/>
<path fill-rule="evenodd" clip-rule="evenodd" d="M206.623 111.866L203.213 109.79L202.305 111.866H206.623Z" stroke="#CD7925" stroke-width="2.835" stroke-linecap="round" stroke-linejoin="round"/>
<path d="M194.486 182.83H218.334C220.199 182.83 221.71 181.31 221.71 179.433C221.71 179.163 221.693 178.894 221.659 178.617L214.291 115.622" stroke="#CD7925" stroke-width="2.835" stroke-linecap="round" stroke-linejoin="round"/>
<path fill-rule="evenodd" clip-rule="evenodd" d="M215.324 44.2686C215.324 44.2686 221.704 63.9355 202.66 108.615C202.617 108.703 202.581 108.799 202.537 108.896C202.018 110.118 201.499 111.305 200.98 112.474C182.35 154.261 164.645 162.815 164.645 162.815L189.98 103.542L215.324 44.2686Z" fill="#F68D2E"/>
<path d="M166.604 159.739C170.583 157.225 185.021 146.285 200.095 112.474" stroke="#CD7925" stroke-width="2.835" stroke-linecap="round" stroke-linejoin="round"/>
<path fill-rule="evenodd" clip-rule="evenodd" d="M92.9504 87.2773C92.2024 87.6026 91.3224 87.2509 91.0056 86.4948L86.3416 75.5844C86.016 74.8283 86.3689 73.9579 87.116 73.6326C87.3008 73.5535 87.5041 73.5183 87.6968 73.5183C88.2776 73.5183 88.8241 73.8524 89.0705 74.4151L93.7345 85.3343C94.0601 86.0816 93.7072 86.9608 92.9504 87.2773Z" fill="#F68D2E"/>
<path fill-rule="evenodd" clip-rule="evenodd" d="M92.9504 87.2774C93.7072 86.9609 94.0601 86.0817 93.7345 85.3344L89.0705 74.4152C88.8241 73.8525 88.2776 73.5184 87.6968 73.5184C87.5041 73.5184 87.3008 73.5536 87.116 73.6327C86.3689 73.958 86.016 74.8284 86.3416 75.5845L91.0056 86.4949C91.3224 87.251 92.2024 87.6027 92.9504 87.2774ZM83.2176 64.5069C83.816 64.252 84.4408 64.1289 85.0568 64.1289C86.8793 64.1289 88.612 65.1927 89.3776 66.9774L103.151 99.1813L111.615 118.989L119.8 138.128C120.811 140.502 119.711 143.263 117.326 144.283C114.942 145.294 112.179 144.186 111.166 141.812L80.7457 70.6611C79.7249 68.2786 80.8328 65.5268 83.2176 64.5069Z" fill="#F68D2E"/>
<path d="M119.216 138.564C119.988 140.377 119.148 142.485 117.327 143.264" stroke="#CD7925" stroke-width="2.835" stroke-linecap="round" stroke-linejoin="round"/>
<path d="M108.287 133.517L81.3412 70.4921C80.4383 68.383 81.4195 65.9424 83.5307 65.0413" stroke="#FDD26E" stroke-width="2.835" stroke-linecap="round" stroke-linejoin="round"/>
<path fill-rule="evenodd" clip-rule="evenodd" d="M127.588 44.0574C127.341 45.4201 126.69 49.2005 126.1 53.0337L125.027 52.9018C125.027 52.9018 124.006 52.4183 123.689 51.6534C125.379 42.9848 127.386 32.6898 127.57 31.7578C127.887 30.1314 132.524 29.938 132.524 35.4152V35.4328V44.8047C132.384 41.1913 128.168 40.7869 127.588 44.0574Z" fill="white"/>
<path fill-rule="evenodd" clip-rule="evenodd" d="M141.368 51.6445C139.679 42.9759 137.681 32.6896 137.496 31.7577C137.17 30.1401 132.586 29.9379 132.533 35.3359C132.524 30.7291 132.533 27.5641 132.533 27.0102V26.9135C132.656 24.909 137.215 23.8276 138.007 28.8741C138.667 33.0941 144.22 55.7941 146.155 63.6539C146.595 65.4386 146.85 67.2673 146.93 69.1047L147.22 79.2064C147.379 83.1538 149.297 85.8001 152.474 89.1849C154.832 91.6905 186.873 104.394 186.873 104.394L177.484 126.365C177.484 126.365 140.365 95.3654 137.708 94.0115C132.982 91.6026 132.568 87.6463 132.524 86.9782C132.533 86.9166 132.533 86.8815 132.533 86.8815V65.2716V45.2002V45.0947V44.8925C132.524 44.8573 132.524 44.8309 132.533 44.8046C132.674 41.1912 136.889 40.7868 137.479 44.0573C137.725 45.42 138.376 49.2004 138.966 53.0336L140.022 52.9017C140.022 52.9017 141.052 52.4181 141.368 51.6445Z" fill="white"/>
<path fill-rule="evenodd" clip-rule="evenodd" d="M111.615 118.989L119.8 138.128C120.811 140.502 119.711 143.262 117.326 144.282C114.942 145.293 112.179 144.186 111.166 141.812L80.7457 70.6609C79.7249 68.2783 80.8337 65.5265 83.2176 64.5067C83.816 64.2517 84.4408 64.1287 85.0568 64.1287C86.8793 64.1287 88.612 65.1925 89.3776 66.9772L103.151 99.181L111.615 118.989Z" stroke="#72246C" stroke-width="1.417" stroke-linecap="round" stroke-linejoin="round"/>
<path d="M215.324 44.2686L213.009 43.2751L186.873 104.395L177.484 126.365L162.321 161.822L164.645 162.815L189.98 103.542" stroke="#72246C" stroke-width="1.417" stroke-linecap="round" stroke-linejoin="round"/>
<path d="M84.1856 66.7749L87.116 73.6324" stroke="#72246C" stroke-width="1.417" stroke-linecap="round" stroke-linejoin="round"/>
<path fill-rule="evenodd" clip-rule="evenodd" d="M92.9504 87.2773C92.2024 87.6026 91.3224 87.2509 91.0056 86.4948L86.3416 75.5844C86.016 74.8283 86.3689 73.9579 87.116 73.6326C87.3008 73.5535 87.5041 73.5183 87.6968 73.5183C88.2776 73.5183 88.8241 73.8524 89.0705 74.4151L93.7345 85.3343C94.0601 86.0816 93.7072 86.9608 92.9504 87.2773Z" stroke="#72246C" stroke-width="1.417" stroke-linecap="round" stroke-linejoin="round"/>
<path d="M92.9504 87.2773L100.272 104.395" stroke="#72246C" stroke-width="1.417" stroke-linecap="round" stroke-linejoin="round"/>
<path d="M104.593 114.496L111.906 131.614" stroke="#72246C" stroke-width="1.417" stroke-linecap="round" stroke-linejoin="round"/>
<path d="M132.525 35.4151C132.525 35.3887 132.525 35.3623 132.533 35.3359C132.525 30.7291 132.533 27.5641 132.533 27.0102V26.9135C132.401 24.909 127.843 23.8276 127.05 28.8741C126.39 33.0941 120.838 55.7941 118.902 63.6539C118.462 65.4386 118.206 67.2673 118.136 69.1047L117.837 79.2064C117.679 83.1538 115.76 85.8001 112.584 89.1849C110.234 91.6905 103.15 99.181 103.15 99.181" stroke="#72246C" stroke-width="1.417" stroke-linecap="round" stroke-linejoin="round"/>
<path d="M132.525 44.9804V44.8045V35.4326" stroke="#72246C" stroke-width="1.417" stroke-linecap="round" stroke-linejoin="round"/>
<path d="M132.525 45.1916V44.9981" stroke="#72246C" stroke-width="1.417" stroke-linecap="round" stroke-linejoin="round"/>
<path d="M111.615 118.989L126.515 97.2469C127.402 95.9545 128.476 94.8116 129.602 93.7214C132.251 91.163 132.506 87.6024 132.525 86.9782C132.534 86.9167 132.534 86.8815 132.534 86.8815V65.2716C132.525 58.6954 132.525 51.5302 132.525 45.2002" stroke="#72246C" stroke-width="1.417" stroke-linecap="round" stroke-linejoin="round"/>
<path d="M132.533 45.0948C132.524 45.13 132.524 45.1564 132.524 45.1915V45.2003" stroke="#72246C" stroke-width="1.417" stroke-linecap="round" stroke-linejoin="round"/>
<path d="M124.261 66.5113C124.261 66.5113 124.868 65.5618 125.035 61.6671C125.115 59.8384 125.581 56.4185 126.1 53.0337C126.691 49.2005 127.341 45.4201 127.587 44.0574C128.168 40.7869 132.383 41.1913 132.525 44.8047C132.533 44.831 132.533 44.8574 132.533 44.8926" stroke="#72246C" stroke-width="1.417" stroke-linecap="round" stroke-linejoin="round"/>
<path d="M121.322 63.7773C121.322 63.7773 122.413 58.177 123.689 51.6536C125.379 42.985 127.386 32.69 127.571 31.7581C127.887 30.1316 132.524 29.9382 132.524 35.4154V35.433" stroke="#72246C" stroke-width="1.417" stroke-linecap="round" stroke-linejoin="round"/>
<path d="M128.81 50.1855C128.81 50.1855 127.156 50.2294 126.672 49.57" stroke="#72246C" stroke-width="1.417" stroke-linecap="round" stroke-linejoin="round"/>
<path d="M127.869 57.5966C126.84 57.2449 125.678 56.146 125.678 56.146" stroke="#72246C" stroke-width="1.417" stroke-linecap="round" stroke-linejoin="round"/>
<path d="M125.027 52.9017C125.027 52.9017 124.006 52.4182 123.689 51.6533L123.68 51.6445" stroke="#72246C" stroke-width="1.417" stroke-linecap="round" stroke-linejoin="round"/>
<path d="M127.324 40.8394C127.033 40.7427 126.312 39.8196 126.312 39.8196" stroke="#72246C" stroke-width="1.417" stroke-linecap="round" stroke-linejoin="round"/>
<path d="M120.917 67.6893L120.856 65.8606" stroke="#72246C" stroke-width="1.417" stroke-linecap="round" stroke-linejoin="round"/>
<path d="M132.533 35.3362C132.533 30.7293 132.524 27.5643 132.524 27.0105C132.524 26.9753 132.524 26.9489 132.533 26.9138C132.656 24.9093 137.215 23.8279 138.007 28.8743C138.667 33.0943 144.22 55.7944 146.155 63.6541C146.595 65.4388 146.851 67.2675 146.93 69.105L147.22 79.2066C147.379 83.1541 149.297 85.8003 152.474 89.1851C154.832 91.6908 186.873 104.395 186.873 104.395" stroke="#72246C" stroke-width="1.417" stroke-linecap="round" stroke-linejoin="round"/>
<path d="M132.533 44.8048V35.4329" stroke="#72246C" stroke-width="1.417" stroke-linecap="round" stroke-linejoin="round"/>
<path d="M132.533 45.0949V44.8927" stroke="#72246C" stroke-width="1.417" stroke-linecap="round" stroke-linejoin="round"/>
<path d="M177.484 126.365C177.484 126.365 140.365 95.3657 137.708 94.0118C132.982 91.6029 132.569 87.6466 132.525 86.9784V86.8817C132.525 86.8817 132.525 77.0087 132.533 65.2718V45.2004" stroke="#72246C" stroke-width="1.417" stroke-linecap="round" stroke-linejoin="round"/>
<path d="M140.806 66.5113C140.806 66.5113 140.198 65.5618 140.022 61.6671C139.943 59.8384 139.476 56.4185 138.966 53.0337C138.376 49.2005 137.726 45.4201 137.479 44.0574C136.89 40.7869 132.674 41.1913 132.534 44.8047C132.525 44.831 132.525 44.8574 132.534 44.8926C132.525 44.919 132.525 44.9541 132.525 44.9805V44.9981C132.525 45.0333 132.525 45.0596 132.534 45.0948V45.2003" stroke="#72246C" stroke-width="1.417" stroke-linecap="round" stroke-linejoin="round"/>
<path d="M143.735 63.7772C143.735 63.7772 142.645 58.1769 141.369 51.6447C139.679 42.9761 137.681 32.6898 137.496 31.7579C137.17 30.1403 132.586 29.938 132.534 35.3361V35.4328" stroke="#72246C" stroke-width="1.417" stroke-linecap="round" stroke-linejoin="round"/>
<path d="M136.255 50.1855C136.255 50.1855 137.901 50.2294 138.386 49.57" stroke="#72246C" stroke-width="1.417" stroke-linecap="round" stroke-linejoin="round"/>
<path d="M137.188 57.5966C138.218 57.2449 139.38 56.146 139.38 56.146" stroke="#72246C" stroke-width="1.417" stroke-linecap="round" stroke-linejoin="round"/>
<path d="M140.022 52.9017C140.022 52.9017 141.051 52.4182 141.368 51.6445" stroke="#72246C" stroke-width="1.417" stroke-linecap="round" stroke-linejoin="round"/>
<path d="M137.716 40.8394C138.015 40.7427 138.737 39.8196 138.737 39.8196" stroke="#72246C" stroke-width="1.417" stroke-linecap="round" stroke-linejoin="round"/>
<path d="M144.149 67.6893L144.21 65.8606" stroke="#72246C" stroke-width="1.417" stroke-linecap="round" stroke-linejoin="round"/>
<path fill-rule="evenodd" clip-rule="evenodd" d="M215.324 44.2686L189.98 103.542L164.645 162.815C164.645 162.815 182.35 154.261 200.98 112.474C201.499 111.305 202.018 110.118 202.537 108.896C202.581 108.799 202.617 108.703 202.66 108.615C221.704 63.9355 215.324 44.2686 215.324 44.2686Z" stroke="#72246C" stroke-width="1.417" stroke-linecap="round" stroke-linejoin="round"/>
<path d="M200.98 112.474H206.233C208.829 112.474 211.02 114.417 211.329 116.993L218.589 178.605C218.659 179.229 218.175 179.774 217.541 179.774H173.885C173.611 179.774 173.391 180.003 173.391 180.275V183.133C173.391 183.405 173.611 183.625 173.885 183.625H219.169C221.07 183.625 222.61 182.086 222.61 180.187C222.61 179.915 222.593 179.642 222.557 179.361L215.05 115.621C214.575 111.63 211.179 108.615 207.157 108.615H202.66" stroke="#72246C" stroke-width="1.417" stroke-linecap="round" stroke-linejoin="round"/>
<path d="M121.056 191.641H69.2322" stroke="#C9C8C7" stroke-width="1.417" stroke-linecap="round" stroke-linejoin="round"/>
<path d="M41.5392 191.641H53.3769" stroke="#C9C8C7" stroke-width="1.417" stroke-linecap="round" stroke-linejoin="round"/>
<path d="M189.244 191.641H134.464" stroke="#C9C8C7" stroke-width="1.417" stroke-linecap="round" stroke-linejoin="round"/>
<path d="M223.161 191.641H205.086" stroke="#C9C8C7" stroke-width="1.417" stroke-linecap="round" stroke-linejoin="round"/>
<path d="M215.793 199.46H105.202" stroke="#C9C8C7" stroke-width="1.417" stroke-linecap="round" stroke-linejoin="round"/>
<path d="M19.1035 183.629H245.966" stroke="#72246C" stroke-width="1.417" stroke-linecap="round" stroke-linejoin="round"/>
</svg>
