<svg width="46" height="65" viewBox="0 0 46 65" fill="none" xmlns="http://www.w3.org/2000/svg">
<path fill-rule="evenodd" clip-rule="evenodd" d="M25.1367 58.3229C24.801 58.2397 24.5697 58.0114 24.5179 57.7123C24.4633 57.3929 24.6214 57.0686 24.9413 56.8447C25.174 56.6817 25.9063 56.5218 27.6476 56.1677C29.0195 55.8893 31.2946 55.4269 31.6621 55.1451C31.7315 54.8773 31.8963 54.5697 32.1016 54.1873C32.4035 53.6252 32.7786 52.9254 32.9647 52.1125C33.4896 49.8114 33.0608 38.0274 32.9544 36.2237C32.8439 34.3599 32.3439 33.8561 31.8203 33.5905C25.9205 30.5903 23.0778 26.4569 23.1302 20.955C23.1811 15.6866 25.3278 8.49634 25.7575 7.10826C25.8511 6.80652 26.1231 6.60316 26.4346 6.60222L42.7414 6.57464C42.798 6.57491 42.8547 6.58143 42.9093 6.59496C43.1478 6.65405 43.3393 6.83913 43.4093 7.07797C43.8128 8.46524 45.8222 15.6513 45.7717 20.9166C45.7193 26.4184 42.7979 30.5612 36.8398 33.5817C36.3113 33.8498 35.802 34.3548 35.6555 36.2193C35.5144 38.0242 34.8609 49.8117 35.3419 52.1082C35.5117 52.9204 35.8739 53.6192 36.1647 54.1804C36.3625 54.5614 36.5215 54.8676 36.5856 55.1352C36.6601 55.1874 36.9355 55.332 37.9081 55.573C38.6937 55.7673 39.6981 55.9687 40.584 56.1469C41.3506 56.3005 42.075 56.4454 42.5674 56.5674C43.0529 56.6877 43.1938 56.7568 43.2742 56.8136C43.6153 57.0544 43.7669 57.4266 43.6605 57.762C43.5735 58.0357 43.2861 58.3284 42.7387 58.3295L42.6156 58.3269L25.503 58.3572L25.4485 58.3588C25.3378 58.3589 25.2332 58.3468 25.1371 58.323L25.1367 58.3229Z" fill="white"/>
<mask id="mask0" mask-type="alpha" maskUnits="userSpaceOnUse" x="12" y="2" width="44" height="62">
<path fill-rule="evenodd" clip-rule="evenodd" d="M25.9502 2.55908L55.7485 9.94358L42.2726 63.6648L12.4743 56.2803L25.9502 2.55908Z" fill="white"/>
</mask>
<g mask="url(#mask0)">
<path fill-rule="evenodd" clip-rule="evenodd" d="M42.5541 6.64912C42.4759 6.6298 42.3944 6.61993 42.3131 6.61993L25.8677 6.64964C25.4191 6.65044 25.0273 6.94256 24.8926 7.37635C24.4569 8.7797 22.2792 16.0508 22.227 21.3947C22.1719 27.0563 25.0924 31.3031 31.1544 34.377C31.6028 34.6043 32.0312 35.0522 32.1332 36.7733C32.24 38.5817 32.6722 50.3836 32.1494 52.6675C31.9715 53.4442 31.604 54.1276 31.3085 54.6762C31.1227 55.0219 30.9675 55.31 30.8774 55.5775C30.3264 55.8436 28.2787 56.2594 27.0242 56.5138C25.1106 56.9015 24.4682 57.0437 24.1823 57.2432C23.7644 57.5347 23.5515 57.9875 23.6272 58.4242C23.7001 58.8472 24.017 59.167 24.4739 59.2799C24.5948 59.3098 24.7246 59.3249 24.8601 59.3244C24.8782 59.3244 24.8999 59.3236 24.9247 59.323L24.9856 59.322L42.1726 59.2906L42.2334 59.2918C42.2582 59.293 42.2796 59.2934 42.2982 59.293C43.0141 59.2922 43.3976 58.886 43.5186 58.5064C43.6671 58.0385 43.47 57.529 43.0162 57.2097C42.8919 57.1219 42.7124 57.0423 42.2025 56.9163C41.6996 56.792 40.9654 56.6455 40.1886 56.4902C39.2984 56.3118 38.2888 56.1101 37.5037 55.9161C36.7951 55.7411 36.4841 55.6249 36.3522 55.5638C36.2671 55.2976 36.118 55.0112 35.9397 54.6679C35.6551 54.1203 35.3004 53.4384 35.1378 52.6623C34.6589 50.3797 35.32 38.576 35.4621 36.7675C35.5977 35.0457 36.0347 34.5964 36.487 34.3679C42.6095 31.2716 45.612 27.0142 45.6671 21.3527C45.7194 16.0083 43.6827 8.74527 43.2735 7.34349C43.1732 6.99988 42.8976 6.73399 42.5541 6.64912ZM42.4042 7.24485C42.5408 7.27859 42.6518 7.38238 42.6929 7.52334C43.1334 9.03424 45.1125 16.1208 45.0615 21.3534C45.0191 25.729 43.1472 30.3175 36.2219 33.8195C35.4326 34.2188 34.9932 35.0149 34.8586 36.7257C34.7245 38.4362 34.0409 50.3901 34.5455 52.796C34.8457 54.2271 35.6995 55.2998 35.8119 55.896C35.8466 56.0831 36.4819 56.2959 37.3539 56.5114C38.8302 56.8761 40.9865 57.2481 42.0526 57.5115C42.3672 57.5892 42.5873 57.6579 42.6664 57.7136C43.174 58.0708 43.0106 58.6783 42.3038 58.6796C42.2747 58.68 42.2325 58.6767 42.1787 58.6772C36.2516 58.6877 30.8552 58.6975 24.9917 58.7081C24.9381 58.7082 24.8961 58.7108 24.8662 58.711C24.7764 58.7111 24.6958 58.7015 24.6242 58.6838C24.1321 58.5622 24.0739 58.0598 24.5224 57.7464C25.0362 57.3871 31.2891 56.5012 31.4129 55.9044C31.5368 55.3072 32.4109 54.2319 32.7393 52.7993C33.2906 50.3913 32.8394 38.4397 32.7378 36.7295C32.6368 35.0189 32.2125 34.2242 31.4308 33.828C24.5735 30.3508 22.7903 25.7689 22.833 21.3938C22.8836 16.1611 25.0005 9.06665 25.4703 7.55429C25.5244 7.38103 25.6828 7.26344 25.8618 7.26302L42.3069 7.23331C42.3407 7.23361 42.3732 7.23718 42.4042 7.24485Z" fill="#7F1E69"/>
</g>
<path fill-rule="evenodd" clip-rule="evenodd" d="M24.3974 20.0759C24.3176 22.2723 24.57 24.8307 25.7134 27.0091C25.776 27.1412 25.8497 27.2775 25.942 27.4229C27.0781 29.2229 28.7771 30.7876 31.0528 32.1362C31.2031 32.1613 31.3556 32.1797 31.5089 32.179C32.3934 32.1739 33.284 31.664 33.5775 31.5119C38.8141 28.8034 41.5583 25.2021 41.941 20.525C41.9523 20.3706 41.9581 20.2211 41.9666 20.0692L24.3974 20.0759Z" fill="#B11063"/>
<path fill-rule="evenodd" clip-rule="evenodd" d="M24.9489 20.4798C24.9357 19.7986 24.957 19.1063 25.0059 18.4158L24.9489 20.4798ZM25.1636 16.7796C25.2265 16.3321 25.2928 15.8776 25.3322 15.6343L25.1636 16.7796ZM25.5088 14.6107C25.9932 12.0449 26.6619 9.87358 26.9902 8.88109L25.5088 14.6107Z" fill="white"/>
<path d="M24.3487 20.4929C24.3551 20.8239 24.629 21.0864 24.9605 21.0792C25.292 21.0719 25.5555 20.7977 25.5491 20.4667L24.3487 20.4929ZM25.6047 18.4566C25.6281 18.1262 25.3789 17.8402 25.0482 17.8177C24.7175 17.7952 24.4305 18.0447 24.4071 18.3751L25.6047 18.4566ZM24.5691 16.6976C24.523 17.0256 24.7517 17.3282 25.08 17.3734C25.4083 17.4187 25.7119 17.1895 25.758 16.8615L24.5691 16.6976ZM25.9248 15.7288C25.9779 15.4019 25.7556 15.0945 25.4283 15.0423C25.1011 14.9901 24.7928 15.2129 24.7397 15.5398L25.9248 15.7288ZM24.9189 14.5011C24.8574 14.8266 25.0717 15.1396 25.3975 15.2001C25.7233 15.2607 26.0372 15.0459 26.0987 14.7204L24.9189 14.5011ZM27.5602 9.06787C27.6642 8.75326 27.4935 8.41459 27.1787 8.31143C26.8639 8.20828 26.5243 8.3797 26.4203 8.69431L27.5602 9.06787ZM25.5491 20.4667C25.5362 19.8057 25.557 19.1315 25.6047 18.4566L24.4071 18.3751C24.3571 19.0812 24.3351 19.7916 24.3487 20.4929L25.5491 20.4667ZM25.758 16.8615C25.821 16.4139 25.8865 15.9651 25.9248 15.7288L24.7397 15.5398C24.6991 15.7901 24.632 16.2503 24.5691 16.6976L25.758 16.8615ZM26.0987 14.7204C26.5764 12.1897 27.2367 10.0456 27.5602 9.06787L26.4203 8.69431C26.087 9.70151 25.4099 11.9001 24.9189 14.5011L26.0987 14.7204Z" fill="#7F1E69"/>
<path fill-rule="evenodd" clip-rule="evenodd" d="M44.7857 20.1728L41.7624 20.1264C41.7565 20.2757 41.7526 20.4224 41.7439 20.5737C41.422 25.165 38.613 28.6595 33.1832 31.2347C32.8789 31.3793 31.9558 31.8656 31.0315 31.8561C30.8707 31.8542 30.7114 31.8337 30.5537 31.807C30.8248 31.9606 31.1023 32.1127 31.3887 32.2617C31.5503 32.3458 31.7074 32.4315 31.874 32.5138C32.1792 32.6648 33.1045 33.171 34.0297 33.1807C34.9539 33.1906 35.8771 32.7038 36.1813 32.5597C41.6108 29.9839 44.4202 26.4896 44.7421 21.8982C44.7735 21.3685 44.7853 20.8556 44.7851 20.3574L44.7866 20.3604C44.7871 20.3147 44.7864 20.2739 44.7858 20.2288C44.7859 20.2103 44.786 20.1918 44.7857 20.1728Z" fill="#7F1E69"/>
<path fill-rule="evenodd" clip-rule="evenodd" d="M14.0028 17.1924L4.9889 17.2478C3.34172 18.6677 0.989813 20.976 1.00003 22.5867L1.79052 57.8593C1.82251 58.4198 2.29263 58.8563 2.86005 58.8528L16.6569 58.768C17.2239 58.764 17.6887 58.3218 17.714 57.7613L18.0588 22.4812C18.0486 20.8705 15.6678 18.5916 14.0028 17.1924Z" fill="#B11063"/>
<path fill-rule="evenodd" clip-rule="evenodd" d="M12.3246 13.8477L11.845 4.1931L12.5599 4.18872L12.5528 3.06187L11.8356 2.64379L11.8272 1.37598L9.39709 1.3913L6.96653 1.40618L6.97498 2.67356L6.2627 3.1004L6.2698 4.22724L6.98475 4.22287C6.98475 4.22287 6.68328 12.3789 6.62778 13.8806C6.62669 13.9101 12.3246 13.8477 12.3246 13.8477Z" fill="#D14B8F"/>
<path fill-rule="evenodd" clip-rule="evenodd" d="M12.4188 15.7394L11.8452 4.19334L12.5601 4.18896L12.553 3.06212L11.8358 2.64403L11.8274 1.37622L9.39727 1.39154L6.96671 1.40643L6.97515 2.6738L6.26287 3.10064L6.26998 4.22749L6.98493 4.22311L6.55792 15.7757C6.55792 15.7757 0.984969 19.8944 1.00052 22.3595L1.79056 57.4866C1.82256 58.0443 2.29311 58.4795 2.8601 58.476L16.6569 58.3911C17.2239 58.3876 17.6887 57.9467 17.714 57.3885L18.0588 22.2544C18.0433 19.7893 12.4188 15.7394 12.4188 15.7394Z" stroke="#7F1E69" stroke-width="0.817631" stroke-linecap="round" stroke-linejoin="round"/>
<path fill-rule="evenodd" clip-rule="evenodd" d="M3.41309 53.5279H15.6893V26.6501H3.41309V53.5279Z" fill="#F7D5E5"/>
<mask id="mask1" mask-type="alpha" maskUnits="userSpaceOnUse" x="3" y="26" width="13" height="28">
<path fill-rule="evenodd" clip-rule="evenodd" d="M3.41309 53.5279H15.6893V26.6501H3.41309V53.5279Z" fill="white"/>
</mask>
<g mask="url(#mask1)">
<path fill-rule="evenodd" clip-rule="evenodd" d="M3.41309 46.2636V58.563H5.21668L12.8162 45.2971L6.22635 41.3525L3.41309 46.2636Z" fill="#5CB79F"/>
<path fill-rule="evenodd" clip-rule="evenodd" d="M14.9863 54.7602L21.2451 58.4411H25.4924L26.3183 57.0246L16.8967 51.4836L14.9863 54.7602Z" fill="#DF3378"/>
<path fill-rule="evenodd" clip-rule="evenodd" d="M18.3544 47.8218L13.6602 45.0452L15.2346 42.3291L19.9289 45.1058L18.3544 47.8218Z" fill="#B71277"/>
<path fill-rule="evenodd" clip-rule="evenodd" d="M3.41357 38.9882L13.1053 44.7703L15.2278 41.0774L3.41357 34.0291V38.9882Z" fill="#DF3378"/>
<path fill-rule="evenodd" clip-rule="evenodd" d="M3.41309 44.1713L3.79705 44.4041L5.7036 41.0327L3.41309 39.6438V44.1713Z" fill="#F75F75"/>
<path fill-rule="evenodd" clip-rule="evenodd" d="M13.3181 56.6101L8.59717 53.8101L13.3999 45.5027L18.1209 48.3027L13.3181 56.6101Z" fill="#F5B554"/>
</g>
</svg>
