<svg width="41" height="64" viewBox="0 0 41 64" fill="none" xmlns="http://www.w3.org/2000/svg">
<path fill-rule="evenodd" clip-rule="evenodd" d="M20.428 57.3095C20.0961 57.2263 19.8674 56.9979 19.8162 56.6985C19.7622 56.3789 19.9185 56.0544 20.2347 55.8303C20.4648 55.6672 21.1888 55.5073 22.9103 55.1529C24.2665 54.8743 26.5157 54.4115 26.8791 54.1295C26.9476 53.8616 27.1105 53.5537 27.3135 53.1711C27.6119 52.6086 27.9829 51.9083 28.1668 51.0949C28.6857 48.7922 28.2618 37 28.1566 35.1951C28.0474 33.3301 27.5531 32.8259 27.0354 32.5601C21.2028 29.5579 18.3925 25.4215 18.4443 19.9159C18.4946 14.6439 20.6169 7.44864 21.0417 6.05961C21.1342 5.75766 21.4031 5.55416 21.711 5.55322L37.8322 5.52562C37.8881 5.52589 37.9443 5.53242 37.9982 5.54595C38.2339 5.60508 38.4233 5.79029 38.4925 6.0293C38.8914 7.41753 40.878 14.6085 40.828 19.8774C40.7762 25.3831 37.888 29.5287 31.9978 32.5513C31.4754 32.8196 30.9718 33.3249 30.827 35.1907C30.6875 36.9969 30.0414 48.7925 30.5169 51.0905C30.6848 51.9033 31.0429 52.6026 31.3303 53.1642C31.5259 53.5455 31.6831 53.8519 31.7464 54.1196C31.8201 54.1719 32.0924 54.3166 33.0539 54.5578C33.8306 54.7521 34.8235 54.9537 35.6994 55.1321C36.4573 55.2858 37.1733 55.4307 37.6602 55.5529C38.1402 55.6733 38.2795 55.7424 38.3589 55.7992C38.6961 56.0401 38.846 56.4127 38.7408 56.7483C38.6549 57.0221 38.3707 57.3151 37.8296 57.3162L37.7078 57.3136L20.79 57.3439L20.7362 57.3455C20.6267 57.3456 20.5233 57.3334 20.4284 57.3096L20.428 57.3095Z" fill="white"/>
<mask id="mask0" mask-type="alpha" maskUnits="userSpaceOnUse" x="7" y="1" width="44" height="62">
<path fill-rule="evenodd" clip-rule="evenodd" d="M21.2319 1.50732L50.6909 8.89692L37.3685 62.6552L7.90946 55.2656L21.2319 1.50732Z" fill="white"/>
</mask>
<g mask="url(#mask0)">
<path fill-rule="evenodd" clip-rule="evenodd" d="M37.6028 5.63891C37.5252 5.61939 37.4444 5.60932 37.3638 5.60912L21.0615 5.59764C20.6168 5.59732 20.2292 5.88846 20.0968 6.32193C19.6683 7.72422 17.5278 14.99 17.4895 20.334C17.449 25.9956 20.3547 30.2498 26.3718 33.339C26.8168 33.5674 27.2427 34.0164 27.348 35.7377C27.4584 37.5465 27.9164 49.3498 27.4039 51.6323C27.2296 52.4086 26.8669 53.0912 26.5754 53.639C26.392 53.9842 26.239 54.2719 26.1502 54.5392C25.6047 54.804 23.5759 55.2146 22.333 55.4659C20.437 55.8488 19.8005 55.9894 19.5176 56.1883C19.104 56.4787 18.8941 56.931 18.9702 57.3678C19.0436 57.791 19.3586 58.1117 19.8118 58.2257C19.9317 58.2559 20.0604 58.2713 20.1948 58.2712C20.2126 58.2713 20.2342 58.2704 20.2587 58.2699L20.3191 58.269L37.3566 58.2807L37.4168 58.2821C37.4414 58.2833 37.4626 58.2838 37.481 58.2835C38.1907 58.2844 38.5699 57.8792 38.6889 57.4999C38.8349 57.0324 38.6383 56.5224 38.1876 56.2019C38.0642 56.1138 37.886 56.0337 37.3802 55.9064C36.8814 55.7809 36.1533 55.6325 35.3828 55.4752C34.4999 55.2946 33.4986 55.0904 32.7198 54.8945C32.017 54.7176 31.7083 54.6007 31.5774 54.5392C31.4924 54.2728 31.3439 53.986 31.1663 53.6424C30.8827 53.094 30.5295 52.4111 30.3664 51.6347C29.8858 49.3508 30.5117 37.5485 30.648 35.7402C30.7781 34.0188 31.2102 33.5706 31.6579 33.3432C37.7195 30.2622 40.6851 26.0122 40.7256 20.3506C40.764 15.0062 38.7268 7.73794 38.3177 6.3351C38.2174 5.99123 37.9436 5.72464 37.6028 5.63891ZM37.4561 6.23372C37.5916 6.2678 37.7019 6.37187 37.7429 6.51295C38.1835 8.02501 40.1631 15.1169 40.1257 20.3496C40.0947 24.7253 38.2504 29.3092 31.3939 32.7941C30.6124 33.1914 30.1788 33.9864 30.0496 35.697C29.921 37.4072 29.2733 49.3599 29.7796 51.7672C30.0808 53.1991 30.9298 54.274 31.0428 54.8705C31.0776 55.0578 31.7079 55.2721 32.573 55.4898C34.0374 55.8582 36.1759 56.2356 37.2335 56.5017C37.5455 56.5802 37.7639 56.6495 37.8425 56.7054C38.3466 57.0638 38.1861 57.6709 37.4855 57.6705C37.4566 57.6708 37.4147 57.6674 37.3614 57.6678C31.4856 57.6634 26.136 57.6598 20.3233 57.6556C20.2701 57.6556 20.2285 57.6581 20.1988 57.6582C20.1099 57.6581 20.0299 57.6483 19.9589 57.6304C19.4707 57.5076 19.4118 57.005 19.8557 56.6928C20.3641 56.3347 26.5606 55.4644 26.6818 54.8679C26.8031 54.271 27.667 53.1978 27.989 51.766C28.5295 49.3593 28.0523 37.406 27.9473 35.6955C27.8428 33.9846 27.4202 33.1888 26.6443 32.7905C19.8376 29.2961 18.0584 24.7095 18.0897 20.3343C18.1267 15.1015 20.2076 8.01202 20.6695 6.50077C20.7227 6.32763 20.8795 6.21043 21.0569 6.21046L37.3596 6.22193C37.393 6.22232 37.4253 6.22597 37.4561 6.23372Z" fill="#7F1E69"/>
</g>
<path fill-rule="evenodd" clip-rule="evenodd" d="M19.6972 19.0363C19.6184 21.2342 19.8678 23.7944 20.9982 25.9742C21.0601 26.1065 21.133 26.2428 21.2242 26.3883C22.3474 28.1896 24.027 29.7553 26.2768 31.1049C26.4254 31.13 26.5761 31.1484 26.7277 31.1477C27.6022 31.1425 28.4826 30.6323 28.7728 30.4802C33.9497 27.7698 36.6627 24.166 37.0411 19.4856C37.0523 19.3311 37.0579 19.1816 37.0664 19.0295L19.6972 19.0363Z" fill="#5C0A34"/>
<path fill-rule="evenodd" clip-rule="evenodd" d="M20.2448 19.44C20.23 18.7586 20.2495 18.066 20.2962 17.3754L20.2448 19.44ZM20.4558 15.737C20.5171 15.2898 20.5816 14.8356 20.6201 14.5924L20.4558 15.737ZM20.7986 13.5664C21.2741 10.9992 21.934 8.82745 22.2583 7.8348L20.7986 13.5664Z" fill="white"/>
<path d="M19.6283 19.4519C19.6357 19.7929 19.9177 20.064 20.2582 20.0574C20.5987 20.0509 20.8687 19.7691 20.8613 19.4282L19.6283 19.4519ZM20.9115 17.4186C20.9345 17.0785 20.6777 16.7833 20.3379 16.7594C19.9981 16.7355 19.704 16.9919 19.681 17.3321L20.9115 17.4186ZM19.8449 15.6516C19.7986 15.9894 20.0346 16.3014 20.3721 16.3486C20.7095 16.3958 21.0205 16.1602 21.0668 15.8224L19.8449 15.6516ZM21.2292 14.6907C21.2825 14.354 21.0531 14.0371 20.7167 13.9828C20.3803 13.9285 20.0644 14.1575 20.0111 14.4942L21.2292 14.6907ZM20.1922 13.4523C20.1301 13.7875 20.3513 14.1103 20.6861 14.1733C21.021 14.2363 21.3428 14.0157 21.4049 13.6805L20.1922 13.4523ZM22.8444 8.02809C22.9502 7.7042 22.7736 7.35509 22.4498 7.24834C22.1261 7.14159 21.7779 7.31762 21.6721 7.64151L22.8444 8.02809ZM20.8613 19.4282C20.847 18.7673 20.8658 18.0933 20.9115 17.4186L19.681 17.3321C19.6331 18.0387 19.613 18.7498 19.6283 19.4519L20.8613 19.4282ZM21.0668 15.8224C21.1281 15.375 21.1918 14.9267 21.2292 14.6907L20.0111 14.4942C19.9714 14.7444 19.9061 15.2045 19.8449 15.6516L21.0668 15.8224ZM21.4049 13.6805C21.8738 11.1494 22.5251 9.00563 22.8444 8.02809L21.6721 7.64151C21.3429 8.64927 20.6745 10.8491 20.1922 13.4523L21.4049 13.6805Z" fill="#7F1E69"/>
<path fill-rule="evenodd" clip-rule="evenodd" d="M39.8534 19.1331L36.8646 19.0866C36.8587 19.2361 36.8548 19.3829 36.8462 19.5342C36.528 24.1288 33.751 27.6257 28.383 30.2027C28.0821 30.3473 27.1695 30.834 26.2557 30.8245C26.0968 30.8226 25.9394 30.8021 25.7834 30.7753C26.0515 30.929 26.3258 31.0812 26.609 31.2303C26.7687 31.3145 26.924 31.4002 27.0887 31.4826C27.3904 31.6337 28.3052 32.1402 29.2198 32.15C30.1335 32.1599 31.0462 31.6728 31.347 31.5285C36.7146 28.951 39.492 25.4542 39.8103 20.8597C39.8414 20.3297 39.853 19.8164 39.8528 19.3178L39.8543 19.3209C39.8548 19.2751 39.8541 19.2343 39.8535 19.1892C39.8536 19.1707 39.8537 19.1522 39.8534 19.1331Z" fill="#39042D"/>
<path opacity="0.8" fill-rule="evenodd" clip-rule="evenodd" d="M8.47515 58.0312H15.0017C15.5663 58.0312 16.0319 57.587 16.0605 57.0208C16.0605 57.0208 16.308 47.1859 16.3983 43.9054C16.5944 36.8336 16.3983 30.8873 16.3983 30.8873C16.3983 27.7417 11.5744 18.7864 11.4872 14.2265C11.4355 11.5191 10.895 4.54102 10.895 4.54102C10.895 4.54102 11.6068 4.28194 11.6068 4.11072V3.45352C11.6068 3.34456 11.5499 3.24356 11.4568 3.18787L10.895 2.84959V2.14396L10.9167 2.11836C11.1721 1.81051 11.1632 1.36085 10.895 1.06372H8.47515H6.05527C5.78677 1.36085 5.77781 1.81051 6.03355 2.11836L6.05527 2.14396V2.84959L5.49347 3.18787C5.40006 3.24356 5.34319 3.34456 5.34319 3.45352V4.11072C5.34319 4.28194 6.05527 4.54102 6.05527 4.54102C6.05527 4.54102 5.51483 11.5191 5.46313 14.2265C5.37593 18.7864 0.551679 27.7417 0.551679 30.8873C0.551679 30.8873 0.142219 36.8336 0.338332 43.9054C0.428979 47.1859 0.889449 57.0208 0.889449 57.0208C0.918056 57.587 1.38404 58.0312 1.94826 58.0312H8.47515Z" fill="white"/>
<path fill-rule="evenodd" clip-rule="evenodd" d="M5.58774 4.04504C5.67528 4.11249 5.91655 4.22974 6.13851 4.31068C6.24157 4.34804 6.3074 4.45008 6.29878 4.56008C6.29327 4.6296 5.75835 11.5617 5.70768 14.2313C5.65943 16.7356 4.20012 20.5616 2.91212 23.9372C1.82401 26.7905 0.796225 29.485 0.796225 30.8873C0.7914 30.9634 0.389178 36.9204 0.582534 43.8986C0.672146 47.1393 1.12883 56.9108 1.13365 57.0094C1.15571 57.4442 1.51382 57.786 1.94844 57.786H15.0015C15.4365 57.786 15.7946 57.4442 15.8167 57.0084C15.8167 57.0087 16.0641 47.1784 16.1544 43.8986C16.3478 36.9149 16.1565 30.9548 16.1544 30.8953C16.1541 29.485 15.1263 26.7902 14.0382 23.9372C12.7505 20.5616 11.2912 16.7356 11.243 14.2313C11.1923 11.5617 10.6574 4.6296 10.6519 4.56008C10.6433 4.45043 10.7088 4.34839 10.8118 4.31068C11.0341 4.22974 11.275 4.11214 11.3626 4.04504V3.45355C11.3626 3.43072 11.3509 3.40962 11.3316 3.39786L10.7698 3.05958C10.696 3.0153 10.6508 2.9354 10.6508 2.84927V2.14399C10.6508 2.08657 10.6712 2.03088 10.7077 1.9866C10.8814 1.77803 10.8976 1.50996 10.7746 1.30865H6.17574C6.05235 1.50927 6.06648 1.77457 6.22123 1.96101C6.25777 2.00528 6.29947 2.08657 6.29947 2.14399V2.84927C6.29947 2.9354 6.25466 3.0153 6.18091 3.05958L5.6191 3.39786C5.59946 3.40962 5.58774 3.43107 5.58774 3.45355V4.04504ZM15.0014 58.2762H1.94832C1.25313 58.2762 0.680988 57.7304 0.645487 57.0334C0.640662 56.9341 0.183983 47.1577 0.0943701 43.9121C-0.10002 36.9095 0.303926 30.9299 0.308062 30.8705C0.307372 29.3949 1.30311 26.7844 2.45601 23.7619C3.72919 20.424 5.17264 16.641 5.21883 14.2218C5.26536 11.7832 5.71239 5.82442 5.79752 4.70475C5.09889 4.42008 5.09889 4.20597 5.09889 4.11085V3.45364C5.09889 3.2596 5.20229 3.07696 5.36807 2.97734L5.81062 2.71066V2.22709C5.51662 1.80925 5.54626 1.26239 5.87403 0.898852C5.92056 0.847659 5.98605 0.818604 6.05498 0.818604H10.8951C10.9644 0.818604 11.0299 0.847659 11.0764 0.899197C11.4111 1.27034 11.4345 1.83277 11.1395 2.23055V2.71066L11.5827 2.97769C11.7481 3.07731 11.8512 3.2596 11.8512 3.45364V4.11085C11.8512 4.20597 11.8512 4.42008 11.1526 4.70475C11.238 5.82442 11.6847 11.7832 11.7316 14.2218C11.7778 16.641 13.2205 20.424 14.4941 23.7619C15.6473 26.7844 16.6427 29.3949 16.6427 30.8874C16.6444 30.9386 16.8364 36.9136 16.6424 43.9121C16.5521 47.1926 16.3046 57.0268 16.3046 57.0272C16.2691 57.7304 15.6969 58.2762 15.0014 58.2762Z" fill="#7F1E69"/>
<path fill-rule="evenodd" clip-rule="evenodd" d="M0.581683 33.0435C-0.0251681 39.5322 0.903918 54.6751 0.903918 54.6751C0.915377 55.4561 0.996959 56.1697 1.12693 56.7445C1.07906 56.846 1.05228 56.9595 1.05228 57.0793C1.05228 57.3928 1.23565 57.6633 1.50046 57.7882C1.64038 58.0229 1.79731 58.1541 1.96272 58.1541H15.0158C15.1808 58.1541 15.3373 58.0237 15.4769 57.7905C15.7443 57.6666 15.93 57.3948 15.93 57.0793C15.93 56.9575 15.9023 56.8421 15.8529 56.7393C15.9821 56.1654 16.0632 55.4538 16.0746 54.6751C16.0746 54.6751 16.6281 39.5322 16.33 33.0435H0.581683Z" fill="#5C0A34"/>
<path fill-rule="evenodd" clip-rule="evenodd" d="M2.42188 45.7622H14.391V30.4348H2.42188V45.7622Z" fill="#FCD093"/>
<path fill-rule="evenodd" clip-rule="evenodd" d="M5.54609 4.04504C5.63364 4.11249 5.8749 4.22974 6.09687 4.31068C6.19992 4.34804 6.26575 4.45008 6.25713 4.56008C6.25162 4.6296 5.7167 11.5617 5.66604 14.2313C5.61778 16.7356 4.15848 20.5616 2.87047 23.9372C1.78237 26.7905 0.754579 29.485 0.754579 30.8873C0.749753 30.9634 0.347531 36.9204 0.540887 43.8986C0.6305 47.1393 1.08718 56.9108 1.092 57.0094C1.11406 57.4442 1.47217 57.786 1.90679 57.786H14.9599C15.3949 57.786 15.753 57.4442 15.775 57.0084C15.775 57.0087 16.0225 47.1784 16.1128 43.8986C16.3061 36.9149 16.1149 30.9548 16.1128 30.8953C16.1124 29.485 15.0847 26.7902 13.9966 23.9372C12.7089 20.5616 11.2496 16.7356 11.2013 14.2313C11.1507 11.5617 10.6158 4.6296 10.6102 4.56008C10.6016 4.45043 10.6671 4.34839 10.7702 4.31068C10.9925 4.22974 11.2334 4.11214 11.3209 4.04504V3.45355C11.3209 3.43072 11.3092 3.40962 11.2899 3.39786L10.7281 3.05958C10.6544 3.0153 10.6092 2.9354 10.6092 2.84927V2.14399C10.6092 2.08657 10.6295 2.03088 10.6661 1.9866C10.8398 1.77803 10.856 1.50996 10.7329 1.30865H6.13409C6.0107 1.50927 6.02483 1.77457 6.17958 1.96101C6.21612 2.00528 6.25782 2.08657 6.25782 2.14399V2.84927C6.25782 2.9354 6.21302 3.0153 6.13926 3.05958L5.57746 3.39786C5.55781 3.40962 5.54609 3.43107 5.54609 3.45355V4.04504ZM14.9599 58.2762H1.90681C1.21163 58.2762 0.639484 57.7304 0.603983 57.0334C0.599158 56.9341 0.142479 47.1577 0.0528661 43.9121C-0.141524 36.9095 0.262422 30.9299 0.266558 30.8705C0.265868 29.3949 1.2616 26.7844 2.4145 23.7619C3.68769 20.424 5.13114 16.641 5.17733 14.2218C5.22386 11.7832 5.67088 5.82442 5.75602 4.70475C5.05738 4.42008 5.05738 4.20597 5.05738 4.11085V3.45364C5.05738 3.2596 5.16078 3.07696 5.32656 2.97734L5.76911 2.71066V2.22709C5.47511 1.80925 5.50476 1.26239 5.83253 0.898852C5.87906 0.847659 5.94455 0.818604 6.01348 0.818604H10.8536C10.9229 0.818604 10.9884 0.847659 11.0349 0.899197C11.3696 1.27034 11.393 1.83277 11.098 2.23055V2.71066L11.5412 2.97769C11.7066 3.07731 11.8097 3.2596 11.8097 3.45364V4.11085C11.8097 4.20597 11.8097 4.42008 11.1111 4.70475C11.1965 5.82442 11.6432 11.7832 11.6901 14.2218C11.7363 16.641 13.179 20.424 14.4526 23.7619C15.6058 26.7844 16.6012 29.3949 16.6012 30.8874C16.6029 30.9386 16.7949 36.9136 16.6009 43.9121C16.5106 47.1926 16.2631 57.0268 16.2631 57.0272C16.2276 57.7304 15.6554 58.2762 14.9599 58.2762Z" fill="#7F1E69"/>
<path fill-rule="evenodd" clip-rule="evenodd" d="M4.75674 23.939C4.70021 23.939 4.64266 23.9293 4.58648 23.9082C4.33349 23.8138 4.20459 23.5316 4.29903 23.2777C4.53202 22.6495 4.72744 22.1027 4.89702 21.6067C4.98456 21.3507 5.26271 21.2137 5.51776 21.3019C5.77281 21.3898 5.90895 21.6686 5.82141 21.9245C5.64907 22.4288 5.45055 22.9833 5.21445 23.6198C5.14138 23.8169 4.95492 23.939 4.75674 23.939Z" fill="white"/>
<path fill-rule="evenodd" clip-rule="evenodd" d="M2.31441 31.463C2.30821 31.463 2.30201 31.463 2.2958 31.4626C2.02628 31.4526 1.81603 31.225 1.82603 30.9545L1.82878 30.8819C1.82844 29.7712 2.69217 27.5066 3.6069 25.1088C3.70306 24.856 3.98569 24.7294 4.23764 24.8263C4.48959 24.9231 4.61573 25.2067 4.51888 25.4596C3.71582 27.5654 2.80522 29.9524 2.80522 30.9002L2.80211 30.9908C2.79246 31.2551 2.57601 31.463 2.31441 31.463Z" fill="white"/>
<path fill-rule="evenodd" clip-rule="evenodd" d="M5.93241 6.18701H11.0183L11.478 13.8542H5.47021L5.93241 6.18701Z" fill="#7F1E69"/>
<path fill-rule="evenodd" clip-rule="evenodd" d="M10.8955 4.78628H8.33323C8.19847 4.78628 8.08887 4.67663 8.08887 4.54138C8.08887 4.40579 8.19847 4.29614 8.33323 4.29614H10.8955C11.0306 4.29614 11.1398 4.40579 11.1398 4.54138C11.1398 4.67663 11.0306 4.78628 10.8955 4.78628Z" fill="#7F1E69"/>
<path fill-rule="evenodd" clip-rule="evenodd" d="M10.638 2.44106H9.614C9.47923 2.44106 9.36963 2.33141 9.36963 2.19617C9.36963 2.06058 9.47923 1.95093 9.614 1.95093H10.638C10.7731 1.95093 10.8824 2.06058 10.8824 2.19617C10.8824 2.33141 10.7731 2.44106 10.638 2.44106Z" fill="#7F1E69"/>
<path fill-rule="evenodd" clip-rule="evenodd" d="M6.77833 10.1319C6.77178 10.1319 6.76523 10.1319 6.75868 10.1315C6.48916 10.1208 6.27926 9.89284 6.28994 9.622L6.37611 7.43386C6.38645 7.16371 6.6222 6.94787 6.88345 6.96344C7.15298 6.97416 7.36288 7.20211 7.35219 7.47294L7.26603 9.66109C7.25569 9.92466 7.03924 10.1319 6.77833 10.1319Z" fill="white"/>
<path fill-rule="evenodd" clip-rule="evenodd" d="M6.6963 12.223C6.68975 12.223 6.6832 12.223 6.67665 12.2227C6.40713 12.212 6.19723 11.984 6.20791 11.7135L6.23755 10.9574C6.24789 10.6873 6.48157 10.4704 6.7449 10.487C7.01442 10.4977 7.22432 10.7253 7.21364 10.9961L7.184 11.7519C7.17366 12.0158 6.95721 12.223 6.6963 12.223Z" fill="white"/>
</svg>
