<svg width="534" height="450" viewBox="0 0 534 450" fill="none" xmlns="http://www.w3.org/2000/svg">
<g id="trofeu">
<g id="rabiscos" opacity="0.11147">
<path id="Fill 10" fill-rule="evenodd" clip-rule="evenodd" d="M63.2586 233.06H51.5046C50.2238 233.06 49.1842 232.016 49.1842 230.729C49.1842 229.442 50.2238 228.398 51.5046 228.398H63.2586C64.5404 228.398 65.579 229.442 65.579 230.729C65.579 232.016 64.5404 233.06 63.2586 233.06Z" fill="#747575"/>
<path id="Fill 11" fill-rule="evenodd" clip-rule="evenodd" d="M37.6754 233.06H2.14036C0.958024 233.06 0 232.016 0 230.729C0 229.442 0.958024 228.398 2.14036 228.398H37.6754C38.8578 228.398 39.8158 229.442 39.8158 230.729C39.8158 232.016 38.8578 233.06 37.6754 233.06Z" fill="#747575"/>
<path id="Fill 12" fill-rule="evenodd" clip-rule="evenodd" d="M484.838 135.174H473.084C471.803 135.174 470.763 134.131 470.763 132.844C470.763 131.556 471.803 130.513 473.084 130.513H484.838C486.119 130.513 487.158 131.556 487.158 132.844C487.158 134.131 486.119 135.174 484.838 135.174Z" fill="#747575"/>
<path id="Fill 13" fill-rule="evenodd" clip-rule="evenodd" d="M531.86 135.174H496.325C495.142 135.174 494.184 134.131 494.184 132.844C494.184 131.556 495.142 130.513 496.325 130.513H531.86C533.042 130.513 534 131.556 534 132.844C534 134.131 533.042 135.174 531.86 135.174Z" fill="#747575"/>
<path id="Fill 14" fill-rule="evenodd" clip-rule="evenodd" d="M527.08 363.573H487.053C485.818 363.573 484.816 362.53 484.816 361.242C484.816 359.955 485.818 358.912 487.053 358.912H527.08C528.314 358.912 529.316 359.955 529.316 361.242C529.316 362.53 528.314 363.573 527.08 363.573Z" fill="#747575"/>
<path id="Fill 15" fill-rule="evenodd" clip-rule="evenodd" d="M478.03 363.573H465.839C464.678 363.573 463.737 362.53 463.737 361.242C463.737 359.955 464.678 358.912 465.839 358.912H478.03C479.19 358.912 480.132 359.955 480.132 361.242C480.132 362.53 479.19 363.573 478.03 363.573Z" fill="#747575"/>
<path id="Fill 16" fill-rule="evenodd" clip-rule="evenodd" d="M457.015 363.573H451.721C450.597 363.573 449.684 362.53 449.684 361.242C449.684 359.955 450.597 358.912 451.721 358.912H457.015C458.14 358.912 459.053 359.955 459.053 361.242C459.053 362.53 458.14 363.573 457.015 363.573Z" fill="#747575"/>
<path id="Fill 17" fill-rule="evenodd" clip-rule="evenodd" d="M482.572 268.018H433.191C431.951 268.018 430.947 266.975 430.947 265.688C430.947 264.4 431.951 263.357 433.191 263.357H482.572C483.812 263.357 484.816 264.4 484.816 265.688C484.816 266.975 483.812 268.018 482.572 268.018Z" fill="#747575"/>
<path id="Fill 18" fill-rule="evenodd" clip-rule="evenodd" d="M498.955 268.018H491.755C490.509 268.018 489.5 266.975 489.5 265.688C489.5 264.4 490.509 263.357 491.755 263.357H498.955C500.201 263.357 501.211 264.4 501.211 265.688C501.211 266.975 500.201 268.018 498.955 268.018Z" fill="#747575"/>
<path id="Fill 19" fill-rule="evenodd" clip-rule="evenodd" d="M112.598 67.5872H70.086C68.8901 67.5872 67.9211 66.544 67.9211 65.2566C67.9211 63.9692 68.8901 62.926 70.086 62.926H112.598C113.794 62.926 114.763 63.9692 114.763 65.2566C114.763 66.544 113.794 67.5872 112.598 67.5872Z" fill="#747575"/>
<path id="Fill 20" fill-rule="evenodd" clip-rule="evenodd" d="M63.3591 67.5872H53.7462C52.5208 67.5872 51.5263 66.544 51.5263 65.2566C51.5263 63.9692 52.5208 62.926 53.7462 62.926H63.3591C64.5854 62.926 65.579 63.9692 65.579 65.2566C65.579 66.544 64.5854 67.5872 63.3591 67.5872Z" fill="#747575"/>
<path id="Fill 21" fill-rule="evenodd" clip-rule="evenodd" d="M128.945 384.548H65.451C64.2284 384.548 63.2368 383.505 63.2368 382.217C63.2368 380.93 64.2284 379.887 65.451 379.887H128.945C130.167 379.887 131.158 380.93 131.158 382.217C131.158 383.505 130.167 384.548 128.945 384.548Z" fill="#747575"/>
<path id="Fill 22" fill-rule="evenodd" clip-rule="evenodd" d="M56.5213 384.548H48.8734C47.7518 384.548 46.8421 383.505 46.8421 382.217C46.8421 380.93 47.7518 379.887 48.8734 379.887H56.5213C57.6429 379.887 58.5526 380.93 58.5526 382.217C58.5526 383.505 57.6429 384.548 56.5213 384.548Z" fill="#747575"/>
<path id="Fill 23" fill-rule="evenodd" clip-rule="evenodd" d="M42.2372 384.548H39.7364C38.4865 384.548 37.4737 383.505 37.4737 382.217C37.4737 380.93 38.4865 379.887 39.7364 379.887H42.2372C43.4872 379.887 44.5 380.93 44.5 382.217C44.5 383.505 43.4872 384.548 42.2372 384.548Z" fill="#747575"/>
<path id="Fill 24" fill-rule="evenodd" clip-rule="evenodd" d="M100.803 393.87H67.8288C66.586 393.87 65.5789 392.827 65.5789 391.54C65.5789 390.252 66.586 389.209 67.8288 389.209H100.803C102.046 389.209 103.053 390.252 103.053 391.54C103.053 392.827 102.046 393.87 100.803 393.87Z" fill="#747575"/>
<path id="Fill 25" fill-rule="evenodd" clip-rule="evenodd" d="M274.184 4.66119H203.605C202.399 4.66119 201.421 3.61801 201.421 2.33059C201.421 1.04317 202.399 0 203.605 0H274.184C275.391 0 276.368 1.04317 276.368 2.33059C276.368 3.61801 275.391 4.66119 274.184 4.66119Z" fill="#747575"/>
<path id="Fill 26" fill-rule="evenodd" clip-rule="evenodd" d="M292.855 4.66119H283.303C282.06 4.66119 281.053 3.61801 281.053 2.33059C281.053 1.04317 282.06 0 283.303 0H292.855C294.097 0 295.105 1.04317 295.105 2.33059C295.105 3.61801 294.097 4.66119 292.855 4.66119Z" fill="#747575"/>
<path id="Fill 27" fill-rule="evenodd" clip-rule="evenodd" d="M302.308 4.66119H299.613C298.417 4.66119 297.447 3.61801 297.447 2.33059C297.447 1.04317 298.417 0 299.613 0H302.308C303.504 0 304.474 1.04317 304.474 2.33059C304.474 3.61801 303.504 4.66119 302.308 4.66119Z" fill="#747575"/>
<path id="Fill 28" fill-rule="evenodd" clip-rule="evenodd" d="M269.533 13.9835H234.019C232.831 13.9835 231.868 12.9403 231.868 11.6529C231.868 10.3654 232.831 9.32227 234.019 9.32227H269.533C270.721 9.32227 271.684 10.3654 271.684 11.6529C271.684 12.9403 270.721 13.9835 269.533 13.9835Z" fill="#747575"/>
<path id="Fill 29" fill-rule="evenodd" clip-rule="evenodd" d="M407.526 62.9261C406.233 62.9261 405.184 61.9393 405.184 60.7214V55.8085C405.184 54.5906 406.233 53.6038 407.526 53.6038C408.82 53.6038 409.868 54.5906 409.868 55.8085V60.7214C409.868 61.9393 408.82 62.9261 407.526 62.9261Z" fill="#747575"/>
<path id="Fill 30" fill-rule="evenodd" clip-rule="evenodd" d="M417.271 58.265C416.769 58.265 416.266 58.0741 415.882 57.6924L412.786 54.6115C412.019 53.8481 412.019 52.6099 412.786 51.8457C413.17 51.464 413.673 51.2732 414.176 51.2732C414.679 51.2732 415.181 51.464 415.565 51.8465L418.661 54.9275C419.429 55.6909 419.429 56.929 418.661 57.6924C418.278 58.0741 417.775 58.265 417.271 58.265Z" fill="#747575"/>
<path id="Fill 31" fill-rule="evenodd" clip-rule="evenodd" d="M421.705 48.9427H416.768C415.544 48.9427 414.553 47.8995 414.553 46.6121C414.553 45.3247 415.544 44.2815 416.768 44.2815H421.705C422.929 44.2815 423.921 45.3247 423.921 46.6121C423.921 47.8995 422.929 48.9427 421.705 48.9427Z" fill="#747575"/>
<path id="Fill 32" fill-rule="evenodd" clip-rule="evenodd" d="M414.176 39.6204C413.673 39.6204 413.17 39.4296 412.786 39.0486C412.019 38.2844 412.019 37.046 412.786 36.2826L415.882 33.2013C416.266 32.8195 416.769 32.6287 417.271 32.6287C417.775 32.6287 418.278 32.8195 418.661 33.2005C419.429 33.9648 419.429 35.2031 418.661 35.9665L415.565 39.0478C415.181 39.4296 414.679 39.6204 414.176 39.6204Z" fill="#747575"/>
<path id="Fill 33" fill-rule="evenodd" clip-rule="evenodd" d="M407.526 37.2892C406.233 37.2892 405.184 36.3023 405.184 35.0845V30.1715C405.184 28.9536 406.233 27.9668 407.526 27.9668C408.82 27.9668 409.868 28.9536 409.868 30.1715V35.0845C409.868 36.3023 408.82 37.2892 407.526 37.2892Z" fill="#747575"/>
<path id="Fill 34" fill-rule="evenodd" clip-rule="evenodd" d="M398.535 39.6204C398.032 39.6204 397.53 39.4296 397.146 39.0486L394.049 35.9673C393.282 35.2031 393.282 33.9648 394.049 33.2013C394.433 32.8195 394.936 32.6287 395.439 32.6287C395.941 32.6287 396.444 32.8195 396.828 33.2005L399.925 36.2818C400.692 37.046 400.692 38.2844 399.925 39.0478C399.54 39.4296 399.038 39.6204 398.535 39.6204Z" fill="#747575"/>
<path id="Fill 35" fill-rule="evenodd" clip-rule="evenodd" d="M395.942 48.9427H391.005C389.781 48.9427 388.789 47.8995 388.789 46.6121C388.789 45.3247 389.781 44.2815 391.005 44.2815H395.942C397.166 44.2815 398.158 45.3247 398.158 46.6121C398.158 47.8995 397.166 48.9427 395.942 48.9427Z" fill="#747575"/>
<path id="Fill 36" fill-rule="evenodd" clip-rule="evenodd" d="M395.439 58.265C394.936 58.265 394.433 58.0741 394.049 57.6924C393.282 56.929 393.282 55.6909 394.049 54.9267L397.146 51.8457C397.53 51.464 398.032 51.2732 398.535 51.2732C399.038 51.2732 399.54 51.464 399.925 51.8465C400.692 52.6099 400.692 53.8481 399.925 54.6115L396.828 57.6924C396.444 58.0741 395.941 58.265 395.439 58.265Z" fill="#747575"/>
<path id="Fill 37" fill-rule="evenodd" clip-rule="evenodd" d="M112.421 326.283C111.127 326.283 110.079 325.296 110.079 324.078V319.166C110.079 317.948 111.127 316.961 112.421 316.961C113.715 316.961 114.763 317.948 114.763 319.166V324.078C114.763 325.296 113.715 326.283 112.421 326.283Z" fill="#747575"/>
<path id="Fill 38" fill-rule="evenodd" clip-rule="evenodd" d="M122.167 321.622C121.664 321.622 121.161 321.43 120.777 321.049L117.681 317.968C116.914 317.205 116.914 315.967 117.68 315.203C118.064 314.821 118.567 314.63 119.07 314.63C119.573 314.63 120.076 314.821 120.459 315.203L123.556 318.284C124.323 319.046 124.323 320.285 123.556 321.049C123.173 321.43 122.67 321.622 122.167 321.622Z" fill="#747575"/>
<path id="Fill 39" fill-rule="evenodd" clip-rule="evenodd" d="M126.6 312.3H121.663C120.439 312.3 119.447 311.256 119.447 309.969C119.447 308.682 120.439 307.638 121.663 307.638H126.6C127.824 307.638 128.816 308.682 128.816 309.969C128.816 311.256 127.824 312.3 126.6 312.3Z" fill="#747575"/>
<path id="Fill 40" fill-rule="evenodd" clip-rule="evenodd" d="M119.07 302.977C118.567 302.977 118.064 302.787 117.681 302.405C116.913 301.641 116.913 300.403 117.681 299.64L120.777 296.558C121.16 296.176 121.663 295.986 122.167 295.986C122.67 295.986 123.173 296.176 123.556 296.558C124.323 297.322 124.323 298.56 123.556 299.323L120.459 302.405C120.076 302.787 119.573 302.977 119.07 302.977Z" fill="#747575"/>
<path id="Fill 41" fill-rule="evenodd" clip-rule="evenodd" d="M112.421 300.647C111.127 300.647 110.079 299.659 110.079 298.442V293.529C110.079 292.311 111.127 291.324 112.421 291.324C113.715 291.324 114.763 292.311 114.763 293.529V298.442C114.763 299.659 113.715 300.647 112.421 300.647Z" fill="#747575"/>
<path id="Fill 42" fill-rule="evenodd" clip-rule="evenodd" d="M103.429 302.977C102.927 302.977 102.424 302.787 102.04 302.405L98.9437 299.323C98.1766 298.56 98.1766 297.322 98.9437 296.558C99.3273 296.176 99.8303 295.986 100.333 295.986C100.836 295.986 101.339 296.176 101.723 296.558L104.819 299.64C105.587 300.403 105.587 301.641 104.819 302.405C104.435 302.787 103.932 302.977 103.429 302.977Z" fill="#747575"/>
<path id="Fill 43" fill-rule="evenodd" clip-rule="evenodd" d="M100.837 312.3H95.8998C94.6759 312.3 93.6842 311.256 93.6842 309.969C93.6842 308.682 94.6759 307.638 95.8998 307.638H100.837C102.061 307.638 103.053 308.682 103.053 309.969C103.053 311.256 102.061 312.3 100.837 312.3Z" fill="#747575"/>
<path id="Fill 44" fill-rule="evenodd" clip-rule="evenodd" d="M100.333 321.622C99.8303 321.622 99.3273 321.43 98.9437 321.049C98.1766 320.285 98.1766 319.046 98.9437 318.284L102.04 315.203C102.424 314.821 102.927 314.63 103.429 314.63C103.932 314.63 104.435 314.821 104.819 315.203C105.587 315.967 105.587 317.205 104.819 317.968L101.723 321.049C101.339 321.43 100.836 321.622 100.333 321.622Z" fill="#747575"/>
<path id="Fill 45" fill-rule="evenodd" clip-rule="evenodd" d="M412.211 405.523C410.917 405.523 409.868 404.536 409.868 403.318V398.405C409.868 397.188 410.917 396.201 412.211 396.201C413.504 396.201 414.553 397.188 414.553 398.405V403.318C414.553 404.536 413.504 405.523 412.211 405.523Z" fill="#747575"/>
<path id="Fill 46" fill-rule="evenodd" clip-rule="evenodd" d="M421.955 400.862C421.453 400.862 420.95 400.671 420.566 400.289L417.47 397.208C416.703 396.445 416.703 395.207 417.47 394.443C417.854 394.061 418.357 393.87 418.86 393.87C419.363 393.87 419.865 394.061 420.25 394.443L423.345 397.523C424.113 398.288 424.113 399.525 423.345 400.289C422.961 400.671 422.458 400.862 421.955 400.862Z" fill="#747575"/>
<path id="Fill 47" fill-rule="evenodd" clip-rule="evenodd" d="M428.732 391.54H423.795C422.571 391.54 421.579 390.496 421.579 389.209C421.579 387.922 422.571 386.878 423.795 386.878H428.732C429.956 386.878 430.947 387.922 430.947 389.209C430.947 390.496 429.956 391.54 428.732 391.54Z" fill="#747575"/>
<path id="Fill 48" fill-rule="evenodd" clip-rule="evenodd" d="M418.86 382.217C418.357 382.217 417.854 382.027 417.47 381.644C416.703 380.881 416.703 379.643 417.47 378.879L420.566 375.798C420.949 375.416 421.452 375.226 421.955 375.226C422.458 375.226 422.961 375.416 423.345 375.798C424.113 376.561 424.113 377.799 423.345 378.563L420.25 381.644C419.866 382.027 419.363 382.217 418.86 382.217Z" fill="#747575"/>
<path id="Fill 49" fill-rule="evenodd" clip-rule="evenodd" d="M412.211 379.887C410.917 379.887 409.868 378.9 409.868 377.682V372.769C409.868 371.551 410.917 370.564 412.211 370.564C413.504 370.564 414.553 371.551 414.553 372.769V377.682C414.553 378.9 413.504 379.887 412.211 379.887Z" fill="#747575"/>
<path id="Fill 50" fill-rule="evenodd" clip-rule="evenodd" d="M405.561 382.217C405.059 382.217 404.556 382.027 404.172 381.644L401.075 378.563C400.308 377.799 400.308 376.562 401.075 375.798C401.46 375.416 401.962 375.226 402.465 375.226C402.967 375.226 403.47 375.416 403.854 375.798L406.951 378.879C407.718 379.643 407.718 380.881 406.951 381.644C406.567 382.027 406.064 382.217 405.561 382.217Z" fill="#747575"/>
<path id="Fill 51" fill-rule="evenodd" clip-rule="evenodd" d="M402.969 391.54H398.031C396.807 391.54 395.816 390.496 395.816 389.209C395.816 387.922 396.807 386.878 398.031 386.878H402.969C404.192 386.878 405.184 387.922 405.184 389.209C405.184 390.496 404.192 391.54 402.969 391.54Z" fill="#747575"/>
<path id="Fill 52" fill-rule="evenodd" clip-rule="evenodd" d="M402.465 400.862C401.962 400.862 401.46 400.671 401.075 400.289C400.308 399.525 400.308 398.287 401.075 397.523L404.172 394.443C404.556 394.061 405.059 393.87 405.561 393.87C406.064 393.87 406.567 394.061 406.951 394.443C407.718 395.207 407.718 396.445 406.951 397.208L403.854 400.289C403.47 400.671 402.967 400.862 402.465 400.862Z" fill="#747575"/>
</g>
<path id="Fill 53" fill-rule="evenodd" clip-rule="evenodd" d="M390.437 450H169.739C168.519 450 167.529 448.829 167.529 447.384C167.529 445.939 168.519 444.768 169.739 444.768H390.437C391.658 444.768 392.647 445.939 392.647 447.384C392.647 448.829 391.658 450 390.437 450Z" fill="#414042"/>
<path id="Fill 54" fill-rule="evenodd" clip-rule="evenodd" d="M160.055 450H130.503C129.267 450 128.265 448.829 128.265 447.384C128.265 445.939 129.267 444.768 130.503 444.768H160.055C161.291 444.768 162.294 445.939 162.294 447.384C162.294 448.829 161.291 450 160.055 450Z" fill="#414042"/>
<path id="Fill 55" fill-rule="evenodd" clip-rule="evenodd" d="M406.151 450H394.849C393.633 450 392.647 448.829 392.647 447.384C392.647 445.939 393.633 444.768 394.849 444.768H406.151C407.367 444.768 408.353 445.939 408.353 447.384C408.353 448.829 407.367 450 406.151 450Z" fill="#414042"/>
<path id="Fill 56" fill-rule="evenodd" clip-rule="evenodd" d="M345.529 436.919H193.706V387.293C193.706 382.912 197.281 379.36 201.691 379.36H337.545C341.954 379.36 345.529 382.912 345.529 387.293V436.919Z" fill="#BF8873"/>
<path id="Fill 57" fill-rule="evenodd" clip-rule="evenodd" d="M340.294 434.302H193.706V428.789H329.235C329.955 428.789 330.54 428.185 330.54 427.441V379.36H334.532C337.709 379.36 340.294 382.028 340.294 385.306V434.302Z" fill="#A37462"/>
<path id="Fill 58" fill-rule="evenodd" clip-rule="evenodd" d="M195.49 435.124H343.745V386.996C343.745 383.776 341.131 381.155 337.918 381.155H201.317C198.104 381.155 195.49 383.776 195.49 386.996V435.124ZM345.946 439.535H193.289C192.074 439.535 191.088 438.547 191.088 437.329V386.996C191.088 381.343 195.677 376.744 201.317 376.744H337.918C343.558 376.744 348.147 381.343 348.147 386.996V437.329C348.147 438.547 347.162 439.535 345.946 439.535Z" fill="#414042"/>
<path id="Fill 59" fill-rule="evenodd" clip-rule="evenodd" d="M183.235 444.767H358.618V434.302H183.235V444.767Z" fill="#BF8873"/>
<path id="Fill 60" fill-rule="evenodd" clip-rule="evenodd" d="M358.618 444.767H183.235V440.534H349.555C350.289 440.534 350.883 439.965 350.883 439.264V434.302H358.618V444.767Z" fill="#A37462"/>
<path id="Fill 61" fill-rule="evenodd" clip-rule="evenodd" d="M184.999 442.863H354.237V436.207H184.999V442.863ZM356.427 447.384H182.808C181.598 447.384 180.618 446.372 180.618 445.123V433.947C180.618 432.698 181.598 431.686 182.808 431.686H356.427C357.637 431.686 358.618 432.698 358.618 433.947V445.123C358.618 446.372 357.637 447.384 356.427 447.384Z" fill="#414042"/>
<path id="Fill 62" fill-rule="evenodd" clip-rule="evenodd" d="M304.738 421.221H237.117C234.827 421.221 232.971 419.368 232.971 417.081V396.582C232.971 394.295 234.827 392.442 237.117 392.442H304.738C307.027 392.442 308.882 394.295 308.882 396.582V417.081C308.882 419.368 307.027 421.221 304.738 421.221Z" fill="#FFD254"/>
<path id="Fill 63" fill-rule="evenodd" clip-rule="evenodd" d="M274.131 421.221H253.912L272.52 392.442H304.754C307.034 392.442 308.882 394.295 308.882 396.582C308.882 394.295 307.034 392.442 304.754 392.442H292.739L274.131 421.221Z" fill="#FABD3D"/>
<path id="Fill 64" fill-rule="evenodd" clip-rule="evenodd" d="M302.222 421.221H272.235L290.456 392.442H302.222C304.455 392.442 306.265 394.295 306.265 396.582V417.08C306.265 419.229 304.667 420.995 302.622 421.201C302.491 421.214 302.357 421.221 302.222 421.221Z" fill="#F6A426"/>
<path id="Fill 65" fill-rule="evenodd" clip-rule="evenodd" d="M236.581 394.381C235.548 394.381 234.708 395.26 234.708 396.341V417.323C234.708 418.403 235.548 419.282 236.581 419.282H302.655C303.687 419.282 304.528 418.403 304.528 417.323V396.341C304.528 395.26 303.687 394.381 302.655 394.381H236.581ZM302.655 423.837H236.581C233.147 423.837 230.353 420.915 230.353 417.322V396.34C230.353 392.748 233.147 389.826 236.581 389.826H302.655C306.088 389.826 308.882 392.748 308.882 396.34V417.322C308.882 420.915 306.088 423.837 302.655 423.837Z" fill="#414042"/>
<path id="Fill 66" fill-rule="evenodd" clip-rule="evenodd" d="M199.339 269.476C199.116 269.476 198.893 269.472 198.669 269.462C190.226 269.112 183.65 262.154 184.011 253.95C184.064 252.747 185.121 251.821 186.35 251.863C187.589 251.915 188.55 252.932 188.498 254.137C188.242 259.936 192.892 264.855 198.861 265.103C204.837 265.349 209.893 260.835 210.148 255.035C210.179 254.341 210.111 253.628 210.041 253.022C209.066 244.569 201.601 237.694 186.732 223.997C175.797 213.925 160.823 200.133 141.825 179.453C106.11 140.579 114.789 116.801 120.178 108.383C125.211 100.859 134.002 96.4326 143.191 96.8262C157.553 97.4214 168.739 109.259 168.126 123.213C167.899 128.38 166.088 133.284 162.888 137.395C162.14 138.355 160.731 138.547 159.742 137.819C158.753 137.093 158.558 135.725 159.306 134.763C161.952 131.363 163.45 127.305 163.639 123.027C164.147 111.477 154.887 101.678 142.999 101.185C135.415 100.874 128.115 104.524 123.967 110.723C119.137 118.271 111.482 139.872 145.175 176.548C164.049 197.091 178.945 210.811 189.822 220.83C205.485 235.258 213.347 242.499 214.505 252.535C214.594 253.307 214.679 254.229 214.635 255.221C214.461 259.195 212.704 262.865 209.687 265.554C206.837 268.097 203.185 269.476 199.339 269.476Z" fill="#414042"/>
<path id="Fill 67" fill-rule="evenodd" clip-rule="evenodd" d="M342.523 269.476C334.371 269.476 327.57 263.209 327.217 255.222C327.174 254.228 327.26 253.306 327.349 252.535C328.506 242.499 336.369 235.258 352.032 220.831C362.91 210.812 377.807 197.091 396.681 176.547C430.376 139.872 422.721 118.27 417.865 110.685C413.744 104.524 406.468 100.879 398.858 101.184C393.099 101.423 387.779 103.827 383.88 107.952C379.983 112.077 377.97 117.431 378.218 123.027C378.405 127.303 379.904 131.361 382.55 134.762C383.298 135.724 383.102 137.092 382.113 137.818C381.124 138.546 379.715 138.354 378.968 137.394C375.767 133.283 373.957 128.379 373.73 123.212C373.433 116.452 375.863 109.986 380.573 105.001C385.283 100.017 391.708 97.113 398.666 96.8251C407.855 96.4419 416.648 100.858 421.656 108.345C427.069 116.8 435.748 140.579 400.033 179.453C381.033 200.132 366.058 213.926 355.123 223.998C340.252 237.695 332.787 244.569 331.812 253.022C331.741 253.626 331.675 254.338 331.705 255.036C331.96 260.835 337.032 265.339 342.994 265.103C348.963 264.855 353.612 259.935 353.357 254.136C353.304 252.932 354.266 251.915 355.506 251.863C356.72 251.8 357.791 252.747 357.845 253.95C358.204 262.153 351.629 269.112 343.186 269.462C342.965 269.471 342.743 269.476 342.523 269.476Z" fill="#414042"/>
<path id="Fill 68" fill-rule="evenodd" clip-rule="evenodd" d="M282.292 307.837V300.362C310.062 274.828 373.858 203.459 374.323 86.3372H164.912C165.378 203.459 229.174 274.828 256.944 300.362V307.837C256.944 367.496 217.314 345.243 217.314 366.847V379.36H321.922V366.847C321.922 345.243 282.292 367.496 282.292 307.837Z" fill="#FFCE44"/>
<path id="Fill 69" fill-rule="evenodd" clip-rule="evenodd" d="M319.353 376.744H219.882V371.319H294.616C295.566 371.319 296.337 370.542 296.337 369.586V366.464C296.337 345.72 276.213 365.488 274.698 313.953H280.169C281.88 346.971 297.075 352.228 308.345 356.13C315.779 358.703 319.353 360.217 319.353 366.464V376.744Z" fill="#FAAA21"/>
<path id="Fill 70" fill-rule="evenodd" clip-rule="evenodd" d="M280.409 298.256H274.853C331.215 220.928 341.039 133.348 341.987 88.9534H374.323C373.046 202.626 308.827 271.998 281.139 296.648C280.674 297.061 280.409 297.644 280.409 298.256Z" fill="#FAAA21"/>
<path id="Fill 71" fill-rule="evenodd" clip-rule="evenodd" d="M240.598 277.325C210.269 243.677 168.549 180.813 167.529 88.9534H264.31C264.449 99.228 264.422 110.651 263.926 123.503L251.937 149.025L251.758 149.154L222.64 152.534C219.586 152.889 217.256 154.631 216.407 157.195C215.558 159.759 216.399 162.513 218.657 164.56L240.189 184.089L240.257 184.295L234.536 212.513C234.064 214.841 234.554 217.02 235.916 218.648C237.169 220.145 239.041 221.004 241.052 221.004C242.368 221.004 243.683 220.647 244.962 219.945L253.779 215.1C250.468 233.909 246.169 254.561 240.598 277.325ZM189.423 143.527C189.278 143.527 189.129 143.541 188.981 143.571C187.779 143.811 187.003 144.96 187.246 146.14C193.94 178.502 206.129 209.259 223.474 237.558C223.89 238.237 224.626 238.614 225.379 238.614C225.769 238.614 226.163 238.513 226.521 238.302C227.572 237.682 227.912 236.343 227.28 235.312C210.196 207.44 198.192 177.147 191.599 145.273C191.385 144.239 190.457 143.527 189.423 143.527ZM184.787 112.902C184.716 112.902 184.645 112.905 184.574 112.912C183.353 113.027 182.458 114.091 182.575 115.289C183.29 122.621 184.288 129.988 185.541 137.184C185.726 138.245 186.665 138.996 187.728 138.996C187.852 138.996 187.978 138.985 188.104 138.964C189.313 138.762 190.126 137.635 189.919 136.45C188.684 129.359 187.701 122.1 186.996 114.874C186.886 113.746 185.918 112.902 184.787 112.902Z" fill="#FFD852"/>
<path id="Fill 72" fill-rule="evenodd" clip-rule="evenodd" d="M218.633 374.967H317.985V364.726C317.985 358.504 314.415 356.995 306.991 354.432C295.046 350.308 278.688 344.661 278.688 306.074V298.645C278.688 298.03 278.945 297.443 279.397 297.027C306.297 272.233 368.69 202.454 369.931 88.1143H166.688C167.928 202.454 230.32 272.233 257.221 297.027C257.672 297.443 257.929 298.03 257.929 298.645V306.074C257.929 344.661 241.571 350.308 229.628 354.432C222.202 356.995 218.633 358.504 218.633 364.726V374.967ZM320.173 379.36H216.444C215.235 379.36 214.256 378.377 214.256 377.164V364.726C214.256 355.093 221.347 352.644 228.205 350.277C239.497 346.378 253.553 341.526 253.553 306.074V299.608C225.683 273.701 162.756 202.306 162.294 85.9264C162.292 85.3421 162.522 84.7815 162.932 84.3676C163.343 83.9538 163.901 83.7209 164.483 83.7209H372.135C372.717 83.7209 373.275 83.9538 373.686 84.3676C374.097 84.7815 374.326 85.3421 374.323 85.9264C373.862 202.307 310.935 273.701 283.065 299.608V306.074C283.065 341.526 297.12 346.378 308.413 350.277C315.271 352.644 322.362 355.093 322.362 364.726V377.164C322.362 378.377 321.382 379.36 320.173 379.36Z" fill="#414042"/>
<path id="Fill 73" fill-rule="evenodd" clip-rule="evenodd" d="M248.159 355.814C247.461 355.814 246.779 355.441 246.38 354.762C245.764 353.712 246.06 352.325 247.041 351.664C254.219 346.834 258.404 338.781 260.211 326.319C260.372 325.207 261.268 324.419 262.29 324.419C262.394 324.419 262.499 324.427 262.606 324.444C263.751 324.634 264.534 325.784 264.357 327.009C262.378 340.663 257.444 349.973 249.273 355.47C248.927 355.702 248.54 355.814 248.159 355.814Z" fill="#FFEC6C"/>
<path id="Fill 74" fill-rule="evenodd" clip-rule="evenodd" d="M225.578 240.698C224.846 240.698 224.131 240.313 223.726 239.622C206.867 210.813 195.021 179.501 188.514 146.555C188.277 145.354 189.032 144.184 190.2 143.94C190.344 143.909 190.489 143.895 190.63 143.895C191.635 143.895 192.537 144.62 192.745 145.673C199.153 178.121 210.821 208.961 227.426 237.335C228.041 238.385 227.71 239.748 226.689 240.38C226.341 240.595 225.957 240.698 225.578 240.698Z" fill="#FFF893"/>
<path id="Fill 75" fill-rule="evenodd" clip-rule="evenodd" d="M188.724 138.663C187.595 138.663 186.597 137.91 186.4 136.846C185.068 129.632 184.006 122.245 183.246 114.894C183.122 113.692 184.073 112.626 185.372 112.51C185.447 112.503 185.523 112.5 185.598 112.5C186.801 112.5 187.83 113.346 187.947 114.477C188.696 121.723 189.741 129.001 191.054 136.11C191.274 137.299 190.41 138.429 189.125 138.631C188.991 138.652 188.856 138.663 188.724 138.663Z" fill="#FFF893"/>
<path id="Fill 76" fill-rule="evenodd" clip-rule="evenodd" d="M327.651 99.4184H167.084C165.884 99.4184 164.912 98.2473 164.912 96.8021C164.912 95.3568 165.884 94.1858 167.084 94.1858H327.651C328.851 94.1858 329.824 95.3568 329.824 96.8021C329.824 98.2473 328.851 99.4184 327.651 99.4184Z" fill="#414042"/>
<path id="Fill 77" fill-rule="evenodd" clip-rule="evenodd" d="M374.726 99.4184H347.745C346.521 99.4184 345.529 98.2473 345.529 96.8021C345.529 95.3568 346.521 94.1858 347.745 94.1858H374.726C375.95 94.1858 376.941 95.3568 376.941 96.8021C376.941 98.2473 375.95 99.4184 374.726 99.4184Z" fill="#414042"/>
<path id="Fill 78" fill-rule="evenodd" clip-rule="evenodd" d="M286.229 313.954H255.625C251.788 313.954 248.676 311.026 248.676 307.413C248.676 303.801 251.788 300.872 255.625 300.872H286.229C290.066 300.872 293.176 303.801 293.176 307.413C293.176 311.026 290.066 313.954 286.229 313.954Z" fill="#FFCE44"/>
<path id="Fill 79" fill-rule="evenodd" clip-rule="evenodd" d="M284.217 313.954H274.853V300.872H284.217C287.72 300.872 290.559 303.801 290.559 307.413C290.559 311.026 287.72 313.954 284.217 313.954Z" fill="#FAAA21"/>
<path id="Fill 80" fill-rule="evenodd" clip-rule="evenodd" d="M255.374 302.685C252.722 302.685 250.564 304.807 250.564 307.413C250.564 310.02 252.722 312.141 255.374 312.141H286.48C289.131 312.141 291.288 310.02 291.288 307.413C291.288 304.807 289.131 302.685 286.48 302.685H255.374ZM286.48 316.57H255.374C250.237 316.57 246.059 312.463 246.059 307.413C246.059 302.364 250.237 298.256 255.374 298.256H286.48C291.616 298.256 295.794 302.364 295.794 307.413C295.794 312.463 291.616 316.57 286.48 316.57Z" fill="#414042"/>
<path id="Fill 81" fill-rule="evenodd" clip-rule="evenodd" d="M299.888 222.384C298.587 222.384 297.285 222.029 296.021 221.329L270.714 207.332L270.605 207.327L270.495 207.332L253.912 216.505C254.325 214.142 254.724 211.8 255.106 209.496L267.935 202.399C268.673 201.991 269.638 201.788 270.605 201.788C271.421 201.788 272.236 201.932 272.914 202.223C272.921 202.226 272.927 202.228 272.933 202.231C273.051 202.283 273.166 202.339 273.276 202.399L298.761 216.496C298.781 216.507 298.799 216.517 298.819 216.527C299.223 216.743 299.584 216.845 299.888 216.845C300.668 216.845 301.068 216.172 300.833 215.009L295.133 186.715C295.08 186.453 295.055 186.175 295.055 185.889C295.053 184.388 295.741 182.651 296.784 181.7L318.235 162.119C318.734 161.663 318.975 161.216 318.976 160.832C318.977 160.261 318.446 159.829 317.443 159.712L288.435 156.322C288.395 156.318 288.355 156.313 288.316 156.307C286.666 156.061 284.805 154.703 284.114 153.223L271.886 127.024C271.801 126.84 271.709 126.679 271.611 126.54C271.308 126.105 270.957 125.887 270.605 125.887C270.141 125.887 269.678 126.265 269.324 127.024L263.197 140.151C263.522 135 263.768 130.053 263.95 125.307L264.231 124.705C265.504 121.977 267.887 120.349 270.605 120.349C273.323 120.349 275.706 121.977 276.979 124.705L289.121 150.72L289.297 150.846L318.102 154.212C321.123 154.565 323.427 156.299 324.267 158.851C325.108 161.403 324.276 164.145 322.043 166.185L300.741 185.63L300.674 185.835L306.334 213.928C306.801 216.245 306.317 218.414 304.969 220.036C303.731 221.528 301.879 222.384 299.888 222.384Z" fill="#F8AF28"/>
<path id="Fill 82" fill-rule="evenodd" clip-rule="evenodd" d="M239.238 222.383C237.257 222.383 235.413 221.508 234.18 219.981C232.838 218.321 232.356 216.099 232.82 213.725L238.455 184.952L238.387 184.743L217.182 164.83C214.959 162.742 214.13 159.934 214.967 157.32C215.803 154.705 218.097 152.929 221.104 152.567L249.781 149.12L249.957 148.99L261.765 122.965C261.584 127.825 261.339 132.891 261.016 138.166L254.941 151.554C254.253 153.07 252.401 154.461 250.758 154.712C250.719 154.719 250.68 154.724 250.64 154.728L221.76 158.2C220.761 158.32 220.234 158.762 220.235 159.346C220.235 159.74 220.474 160.198 220.972 160.664L242.329 180.718C243.366 181.692 244.051 183.471 244.049 185.008C244.049 185.302 244.024 185.586 243.971 185.854L238.297 214.831C238.295 214.837 238.294 214.843 238.292 214.849C238.067 216.028 238.464 216.71 239.235 216.711C239.236 216.711 239.237 216.711 239.238 216.711C239.24 216.711 239.24 216.711 239.241 216.711C239.545 216.71 239.906 216.605 240.309 216.383C240.316 216.379 240.323 216.375 240.329 216.372C240.33 216.372 240.33 216.371 240.331 216.371C240.341 216.366 240.351 216.36 240.359 216.354L252.96 209.184C252.58 211.545 252.183 213.943 251.772 216.363L243.089 221.304C241.829 222.02 240.533 222.383 239.238 222.383Z" fill="#F8B830"/>
<path id="Fill 83" fill-rule="evenodd" clip-rule="evenodd" d="M269.592 124.11L281.833 150.485C282.542 152.011 284.479 153.408 286.159 153.605L315.201 157.018C316.881 157.215 317.236 158.299 315.994 159.44L294.518 179.154C293.275 180.294 292.535 182.555 292.865 184.202L298.572 212.686C298.902 214.335 297.974 215.005 296.498 214.184L270.983 199.992C269.505 199.171 267.113 199.171 265.635 199.992L240.12 214.184C238.644 215.005 237.716 214.335 238.046 212.686L243.752 184.202C244.083 182.555 243.343 180.294 242.101 179.154L220.624 159.44C219.381 158.299 219.737 157.215 221.417 157.018L250.459 153.605C252.139 153.408 254.076 152.011 254.784 150.485L267.026 124.11C267.735 122.583 268.884 122.583 269.592 124.11Z" fill="#FFD954"/>
<path id="Fill 84" fill-rule="evenodd" clip-rule="evenodd" d="M299.944 214.535C300.78 214.535 301.209 213.852 300.958 212.673C301.209 213.852 300.781 214.535 299.944 214.535ZM298.797 214.213C298.776 214.202 298.756 214.191 298.736 214.181L271.403 199.887C271.285 199.825 271.162 199.769 271.035 199.716C271.162 199.769 271.285 199.825 271.403 199.887L298.736 214.181C298.756 214.191 298.776 214.202 298.797 214.213ZM287.533 153.149C285.763 152.9 283.768 151.523 283.026 150.022L269.913 123.456L283.026 150.021C283.768 151.523 285.763 152.9 287.533 153.149ZM269.913 123.456C269.821 123.269 269.722 123.106 269.618 122.965C269.722 123.106 269.821 123.269 269.913 123.456Z" fill="#F19518"/>
<path id="Fill 85" fill-rule="evenodd" clip-rule="evenodd" d="M299.727 214.535C299.414 214.535 299.043 214.432 298.627 214.215C298.607 214.204 298.588 214.194 298.568 214.183L272.363 199.992C272.251 199.931 272.133 199.875 272.011 199.822C272.005 199.82 271.998 199.817 271.992 199.814C271.295 199.522 270.456 199.376 269.618 199.376V191.962C271.979 191.962 274.224 192.503 276.109 193.523L290.548 201.343L287.318 185.648C286.465 181.493 288.115 176.584 291.331 173.709L303.484 162.847L287.047 160.967C282.698 160.468 278.379 157.433 276.545 153.587L269.618 139.055V122.965C269.979 122.965 270.34 123.184 270.652 123.622C270.753 123.762 270.847 123.924 270.935 124.109L283.508 150.485C284.219 151.975 286.131 153.342 287.828 153.589C287.869 153.595 287.909 153.601 287.95 153.605L317.777 157.017C318.808 157.135 319.354 157.57 319.353 158.144C319.352 158.531 319.105 158.981 318.591 159.44L296.535 179.153C295.463 180.111 294.755 181.859 294.757 183.37C294.757 183.659 294.783 183.938 294.838 184.202L300.699 212.686C300.94 213.857 300.528 214.535 299.727 214.535Z" fill="#F8B932"/>
<path id="Fill 86" fill-rule="evenodd" clip-rule="evenodd" d="M238.209 215.036C238.208 215.036 238.207 215.036 238.206 215.036C238.207 215.036 238.208 215.036 238.209 215.036ZM238.214 215.039C238.577 215.037 239.008 214.882 239.49 214.555C239.008 214.882 238.577 215.037 238.214 215.039ZM239.512 214.536C239.513 214.536 239.514 214.535 239.515 214.535C239.514 214.535 239.513 214.536 239.512 214.536Z" fill="#FDEA51"/>
<path id="Fill 87" fill-rule="evenodd" clip-rule="evenodd" d="M261.765 138.662L261.766 138.662L269.618 125.581L261.765 138.662Z" fill="#FDE844"/>
<path id="Fill 88" fill-rule="evenodd" clip-rule="evenodd" d="M251.294 154.361C252.971 154.122 254.862 152.802 255.564 151.364L261.765 138.663L261.764 138.664L255.564 151.365C254.862 152.802 252.971 154.122 251.294 154.361Z" fill="#FDEA51"/>
<path id="Fill 89" fill-rule="evenodd" clip-rule="evenodd" d="M239.509 214.535C239.508 214.535 239.507 214.535 239.506 214.535C238.71 214.533 238.3 213.863 238.532 212.704C238.534 212.698 238.535 212.692 238.536 212.686L244.397 184.202C244.452 183.938 244.478 183.659 244.478 183.37C244.48 181.859 243.772 180.111 242.701 179.153L220.644 159.44C220.13 158.981 219.882 158.531 219.882 158.144C219.881 157.57 220.426 157.135 221.458 157.017L251.285 153.605C251.326 153.601 251.367 153.595 251.407 153.589C253.104 153.342 255.017 151.975 255.727 150.485L268.3 124.109C268.664 123.347 269.141 122.965 269.618 122.965V139.055L262.689 153.587C260.856 157.434 256.537 160.468 252.186 160.967L235.752 162.847L247.905 173.709C251.123 176.586 252.772 181.496 251.917 185.649L248.688 201.343L263.125 193.523C265.012 192.502 267.257 191.962 269.618 191.962V199.376C268.624 199.376 267.63 199.581 266.872 199.992L240.667 214.183C240.658 214.19 240.648 214.195 240.638 214.2C240.637 214.2 240.636 214.201 240.635 214.201C240.629 214.204 240.622 214.208 240.616 214.211C240.199 214.43 239.826 214.534 239.512 214.535C239.511 214.535 239.51 214.535 239.509 214.535Z" fill="#FFF48E"/>
<path id="Fill 90" fill-rule="evenodd" clip-rule="evenodd" d="M222.85 161.516L242.717 180.245C244.485 181.911 245.463 184.982 244.994 187.388L239.714 214.45L263.318 200.967C265.417 199.768 268.583 199.769 270.683 200.967L294.286 214.45L289.006 187.388C288.537 184.98 289.516 181.909 291.284 180.245L311.15 161.516L284.283 158.274C281.894 157.985 279.333 156.087 278.325 153.86L267 128.8L255.675 153.859C254.667 156.087 252.106 157.985 249.717 158.274L222.85 161.516ZM238.071 215.371V215.372V215.371ZM295.794 219.767C295.19 219.767 294.465 219.605 293.638 219.132L268.57 204.812C267.778 204.36 266.224 204.36 265.43 204.812L240.362 219.132C238.291 220.314 236.867 219.553 236.351 219.171C235.835 218.789 234.685 217.644 235.147 215.269L240.754 186.528C240.932 185.619 240.451 184.11 239.784 183.481L218.685 163.591C216.942 161.948 217.212 160.331 217.409 159.712C217.606 159.094 218.319 157.624 220.676 157.339L249.21 153.897C250.111 153.787 251.37 152.855 251.75 152.014L263.777 125.401C264.771 123.202 266.362 122.965 267 122.965C267.638 122.965 269.229 123.202 270.223 125.401L282.25 152.014C282.63 152.855 283.889 153.787 284.791 153.897L313.324 157.339C315.681 157.624 316.393 159.093 316.591 159.712C316.788 160.331 317.058 161.947 315.315 163.591L294.216 183.482C293.549 184.11 293.068 185.619 293.245 186.528L298.853 215.269C299.315 217.644 298.165 218.79 297.649 219.171C297.339 219.401 296.701 219.767 295.794 219.767Z" fill="#414042"/>
<path id="Fill 91" fill-rule="evenodd" clip-rule="evenodd" d="M267.589 193.605C266.469 193.605 265.561 192.553 265.561 191.257V166.283L262.285 168.762C261.348 169.472 260.091 169.166 259.478 168.081C258.865 166.996 259.128 165.541 260.066 164.832L266.48 159.976C267.103 159.505 267.899 159.465 268.555 159.876C269.21 160.286 269.618 161.079 269.618 161.941V191.257C269.618 192.553 268.71 193.605 267.589 193.605Z" fill="#414042"/>
</g>
</svg>
