<svg width="47" height="65" viewBox="0 0 47 65" fill="none" xmlns="http://www.w3.org/2000/svg">
<path fill-rule="evenodd" clip-rule="evenodd" d="M25.6728 58.2704C25.3297 58.1872 25.0932 57.959 25.0403 57.6598C24.9845 57.3404 25.1461 57.0161 25.4731 56.7922C25.7109 56.6292 26.4595 56.4694 28.2396 56.1152C29.6419 55.8369 31.9675 55.3744 32.3433 55.0926C32.4141 54.8248 32.5826 54.5172 32.7925 54.1348C33.1011 53.5727 33.4846 52.8729 33.6747 52.06C34.2113 49.759 33.773 37.9749 33.6642 36.1712C33.5513 34.3075 33.0402 33.8036 32.505 33.538C26.474 30.5379 23.5682 26.4044 23.6217 20.9025C23.6737 15.6342 25.8682 8.44385 26.3074 7.05577C26.4031 6.75403 26.6811 6.55067 26.9995 6.54973L43.6687 6.52215C43.7266 6.52242 43.7846 6.52894 43.8404 6.54247C44.0841 6.60156 44.28 6.78664 44.3515 7.02548C44.764 8.41275 46.818 15.5988 46.7664 20.8641C46.7128 26.3659 43.7265 30.5087 37.636 33.5293C37.0958 33.7974 36.5751 34.3023 36.4254 36.1668C36.2812 37.9717 35.6131 49.7592 36.1048 52.0557C36.2784 52.8679 36.6486 53.5667 36.9459 54.1279C37.148 54.5089 37.3106 54.8151 37.3761 55.0827C37.4523 55.1349 37.7338 55.2795 38.7281 55.5205C39.5311 55.7148 40.5578 55.9162 41.4634 56.0944C42.2471 56.248 42.9875 56.3929 43.4909 56.5149C43.9872 56.6353 44.1312 56.7044 44.2134 56.7611C44.562 57.0019 44.717 57.3741 44.6082 57.7095C44.5194 57.9832 44.2255 58.2759 43.666 58.277L43.5401 58.2745L26.0472 58.3048L25.9916 58.3064C25.8784 58.3064 25.7714 58.2943 25.6733 58.2705L25.6728 58.2704Z" fill="white"/>
<mask id="mask0" mask-type="alpha" maskUnits="userSpaceOnUse" x="12" y="2" width="45" height="62">
<path fill-rule="evenodd" clip-rule="evenodd" d="M26.5044 2.50684L56.9649 9.89134L43.1895 63.6125L12.729 56.228L26.5044 2.50684Z" fill="white"/>
</mask>
<g mask="url(#mask0)">
<path fill-rule="evenodd" clip-rule="evenodd" d="M43.5595 6.52744V6.52744C43.4801 6.50845 43.3972 6.49894 43.3145 6.4993L26.5867 6.6027C26.1304 6.60551 25.7305 6.89973 25.5915 7.33464C25.1417 8.74161 22.8923 16.0311 22.814 21.3816C22.7312 27.0502 25.6818 31.289 31.8334 34.3394C32.2884 34.565 32.7221 35.0115 32.8177 36.7341C32.9178 38.5442 33.3017 50.3582 32.7592 52.6471C32.5746 53.4256 32.1975 54.1115 31.8944 54.662C31.7037 55.0089 31.5445 55.298 31.4516 55.5663C30.8899 55.8352 28.8051 56.2606 27.5279 56.521C25.5796 56.9177 24.9255 57.0629 24.6338 57.264C24.2072 57.5577 23.9886 58.012 24.0635 58.4488C24.1357 58.872 24.4565 59.1908 24.9208 59.3018C25.0435 59.3312 25.1755 59.3457 25.3134 59.3446C25.3317 59.3446 25.3539 59.3436 25.3791 59.3429L25.441 59.3416L42.9232 59.2332L42.985 59.2341C43.0102 59.2352 43.032 59.2355 43.0509 59.2351C43.779 59.2311 44.1711 58.8226 44.296 58.4421C44.4492 57.973 44.2511 57.4638 43.7911 57.1461C43.6651 57.0587 43.4828 56.9798 42.9647 56.8559C42.4538 56.7338 41.7077 56.5904 40.9183 56.4383C40.0137 56.2637 38.9877 56.0663 38.19 55.8756C37.4701 55.7035 37.1543 55.5887 37.0204 55.528C36.9351 55.2619 36.7848 54.9758 36.6051 54.633C36.3181 54.086 35.9606 53.4048 35.7989 52.6286C35.3225 50.3454 36.0507 38.5247 36.2037 36.7134C36.3498 34.9889 36.7964 34.5372 37.2575 34.3064C43.4998 31.179 46.5738 26.9031 46.6566 21.2345C46.735 15.8835 44.6976 8.62103 44.2881 7.21942C44.1876 6.87585 43.9086 6.61088 43.5595 6.52744M43.4035 7.12548C43.5423 7.15865 43.6547 7.26206 43.6958 7.403C44.1368 8.91367 46.1162 15.9996 46.0397 21.2384C45.9759 25.6193 44.0503 30.2214 36.9903 33.7585C36.1856 34.1617 35.7349 34.9607 35.5899 36.6741C35.4454 38.3872 34.6938 50.3579 35.1957 52.7643C35.4943 54.1957 36.3575 55.2658 36.4691 55.8622C36.5034 56.0494 37.1486 56.2596 38.0345 56.4714C39.5343 56.83 41.7257 57.1927 42.8088 57.4517C43.1284 57.5281 43.3519 57.5958 43.4322 57.6513C43.9467 58.0065 43.7776 58.6155 43.0588 58.62C43.0292 58.6205 42.9862 58.6174 42.9315 58.6182C36.9031 58.6552 31.4144 58.6892 25.4508 58.726C25.3962 58.7264 25.3535 58.7292 25.323 58.7295C25.2318 58.73 25.1498 58.7207 25.077 58.7034C24.5771 58.5838 24.5203 58.0811 24.978 57.7654C25.5022 57.4033 31.8661 56.4884 31.9948 55.8904C32.1237 55.2919 33.0178 54.2114 33.3585 52.7758C33.9307 50.3625 33.5282 38.3992 33.4329 36.6874C33.3382 34.9753 32.9104 34.1816 32.1172 33.7884C25.1592 30.338 23.3671 25.7587 23.4312 21.3784C23.5073 16.1395 25.6938 9.02733 26.1788 7.51112C26.2347 7.33741 26.3963 7.21898 26.5784 7.21775L43.3046 7.11436C43.339 7.11451 43.372 7.11794 43.4035 7.12548" fill="#7F1E69"/>
</g>
<path fill-rule="evenodd" clip-rule="evenodd" d="M24.917 20.0234C24.8355 22.2198 25.0934 24.7782 26.2622 26.9566C26.3262 27.0888 26.4015 27.225 26.4959 27.3704C27.6573 29.1704 29.394 30.7351 31.7203 32.0837C31.8739 32.1088 32.0298 32.1272 32.1865 32.1265C33.0907 32.1214 34.0011 31.6115 34.3011 31.4594C39.654 28.7509 42.4593 25.1496 42.8505 20.4725C42.862 20.3181 42.8679 20.1686 42.8766 20.0167L24.917 20.0234Z" fill="#FCDDD7"/>
<path fill-rule="evenodd" clip-rule="evenodd" d="M25.4761 20.4282C25.4659 19.7468 25.4909 19.054 25.5437 18.3629ZM25.698 16.7286C25.7641 16.2801 25.8337 15.8247 25.8751 15.5808ZM26.0481 14.5601C26.5495 11.9935 27.2352 9.82034 27.5716 8.82692Z" fill="white"/>
<path d="M24.8744 20.4441C24.8793 20.7742 25.1527 21.0348 25.485 21.026C25.8173 21.0173 26.0827 20.7425 26.0778 20.4124L24.8744 20.4441ZM26.1437 18.4014C26.169 18.0718 25.9208 17.7874 25.5894 17.7661C25.258 17.7449 24.9689 17.9949 24.9437 18.3245L26.1437 18.4014ZM25.1026 16.6486C25.0543 16.9759 25.2817 17.2771 25.6105 17.3213C25.9393 17.3655 26.245 17.136 26.2933 16.8086L25.1026 16.6486ZM26.4684 15.6735C26.5237 15.3472 26.3029 15.0412 25.9752 14.99C25.6475 14.9388 25.337 15.1618 25.2817 15.4881L26.4684 15.6735ZM25.4575 14.4527C25.394 14.7776 25.607 15.0891 25.9332 15.1484C26.2594 15.2077 26.5753 14.9924 26.6388 14.6675L25.4575 14.4527ZM28.1417 9.01171C28.248 8.69758 28.079 8.3602 27.7641 8.25814C27.4493 8.15608 27.1078 8.328 27.0015 8.64213L28.1417 9.01171ZM26.0778 20.4124C26.0679 19.7512 26.0921 19.0767 26.1437 18.4014L24.9437 18.3245C24.8896 19.0313 24.8639 19.7423 24.8744 20.4441L26.0778 20.4124ZM26.2933 16.8086C26.3595 16.36 26.4283 15.9103 26.4684 15.6735L25.2817 15.4881C25.2392 15.739 25.1687 16.2002 25.1026 16.6486L26.2933 16.8086ZM26.6388 14.6675C27.1333 12.1361 27.8103 9.99037 28.1417 9.01171L27.0015 8.64213C26.6601 9.6503 25.9657 11.8508 25.4575 14.4527L26.6388 14.6675Z" fill="#7F1E69"/>
<path fill-rule="evenodd" clip-rule="evenodd" d="M45.6836 20.0866L42.5931 20.0402C42.587 20.1895 42.583 20.3362 42.5741 20.4875C42.2451 25.0789 39.3736 28.5733 33.8232 31.1485C33.5121 31.2931 32.5685 31.7795 31.6236 31.77C31.4593 31.768 31.2965 31.7475 31.1353 31.7208C31.4124 31.8744 31.6961 32.0265 31.9889 32.1755C32.154 32.2596 32.3146 32.3453 32.4849 32.4276C32.7968 32.5786 33.7427 33.0848 34.6885 33.0945C35.6332 33.1044 36.5769 32.6176 36.888 32.4735C42.438 29.8978 45.3099 26.4034 45.6389 21.812C45.6711 21.2824 45.6831 20.7694 45.6829 20.2712L45.6845 20.2742C45.685 20.2285 45.6843 20.1878 45.6837 20.1426C45.6838 20.1241 45.6838 20.1056 45.6836 20.0866" fill="#F1D2CC"/>
<path fill-rule="evenodd" clip-rule="evenodd" d="M14.2918 17.1399L5.07754 17.1953C3.39376 18.6152 0.989587 20.9235 1.00003 22.5342L1.80809 57.8068C1.84079 58.3673 2.32135 58.8038 2.90139 58.8003L17.0048 58.7155C17.5844 58.7115 18.0595 58.2693 18.0854 57.7088L18.4379 22.4287C18.4274 20.818 15.9937 18.5391 14.2918 17.1399" fill="#FCDDD7"/>
<path fill-rule="evenodd" clip-rule="evenodd" d="M12.5761 13.7952L12.0857 4.14061L12.8166 4.13623L12.8093 3.00938L12.0762 2.5913L12.0676 1.32349L9.58344 1.33881L7.09887 1.35369L7.1075 2.62107L6.37939 3.04791L6.38666 4.17475L7.1175 4.17038C7.1175 4.17038 6.80933 12.3265 6.75259 13.8282C6.75148 13.8576 12.5761 13.7952 12.5761 13.7952Z" fill="#C4BC86"/>
<path fill-rule="evenodd" clip-rule="evenodd" d="M12.6725 15.6869L12.0861 4.14085L12.817 4.13647L12.8097 3.00962L12.0766 2.59154L12.068 1.32373L9.58386 1.33905L7.0993 1.35394L7.10793 2.62131L6.37982 3.04815L6.38708 4.175L7.11792 4.17062L6.68142 15.7232C6.68142 15.7232 0.984624 19.8419 1.00052 22.307L1.80812 57.4341C1.84082 57.9918 2.32184 58.427 2.90142 58.4235L17.0049 58.3386C17.5844 58.3351 18.0596 57.8942 18.0854 57.336L18.4379 22.2019C18.422 19.7368 12.6725 15.6869 12.6725 15.6869Z" stroke="#7F1E69" stroke-width="0.817631" stroke-linecap="round" stroke-linejoin="round"/>
<path fill-rule="evenodd" clip-rule="evenodd" d="M3.4668 53.4754H16.0159V26.5977H3.4668V53.4754Z" fill="white"/>
<mask id="mask1" mask-type="alpha" maskUnits="userSpaceOnUse" x="3" y="26" width="14" height="28">
<path fill-rule="evenodd" clip-rule="evenodd" d="M3.4668 53.4754H16.0159V26.5977H3.4668V53.4754Z" fill="white"/>
</mask>
<g mask="url(#mask1)">
<path fill-rule="evenodd" clip-rule="evenodd" d="M3.4668 46.2111V58.5105H5.31047L13.0789 45.2446L6.34258 41.3L3.4668 46.2111Z" fill="#5CB79F"/>
<path fill-rule="evenodd" clip-rule="evenodd" d="M15.2969 54.7077L21.6947 58.3886H26.0365L26.8807 56.9721L17.2498 51.4312L15.2969 54.7077Z" fill="#DF3378"/>
<path fill-rule="evenodd" clip-rule="evenodd" d="M18.74 47.7693L13.9414 44.9927L15.5509 42.2766L20.3495 45.0533L18.74 47.7693Z" fill="#B71277"/>
<path fill-rule="evenodd" clip-rule="evenodd" d="M3.46729 38.9357L13.3744 44.7178L15.544 41.0249L3.46729 33.9766V38.9357Z" fill="#DF3378"/>
<path fill-rule="evenodd" clip-rule="evenodd" d="M3.4668 44.1188L3.85929 44.3516L5.80821 40.9802L3.4668 39.5913V44.1188Z" fill="#F75F75"/>
<path fill-rule="evenodd" clip-rule="evenodd" d="M13.5915 56.5576L8.76562 53.7576L13.6751 45.4502L18.501 48.2502L13.5915 56.5576Z" fill="#F5B554"/>
</g>
</svg>
