<svg width="96" height="86" viewBox="0 0 96 86" fill="none" xmlns="http://www.w3.org/2000/svg">
<path d="M74.6592 85.0443L82.5485 82.6391L76.5209 77.0093L74.6592 85.0443ZM74.1928 1.54102C81.2985 7.66661 89.7695 18.7737 92.7651 32.5762C95.7515 46.3364 93.3132 62.8436 78.5042 79.8817L79.5824 80.8189C94.6799 63.4488 97.2455 46.4843 94.1612 32.2732C91.0861 18.1042 82.4118 6.74023 75.1256 0.459008L74.1928 1.54102Z" fill="#EC407A"/>
<path d="M20.937 0.999999L13.0476 3.40522L19.0753 9.035L20.937 0.999999ZM21.4034 84.5033C14.2977 78.3777 5.82668 67.2706 2.83109 53.4681C-0.155349 39.7079 2.283 23.2007 17.092 6.16256L16.0138 5.2254C0.916264 22.5954 -1.64927 39.56 1.43502 53.7711C4.51014 67.9401 13.1844 79.3041 20.4706 85.5853L21.4034 84.5033Z" fill="#EC407A"/>
</svg>
