<svg width="125" height="103" viewBox="0 0 125 103" fill="none" xmlns="http://www.w3.org/2000/svg">
<g clip-path="url(#clip0_1494_20509)">
<path d="M115.294 49.468C114.037 49.468 113.021 48.4774 112.906 47.2201C110.722 21.2486 89.0177 0.839722 62.4874 0.839722C50.1684 0.839722 38.9035 5.27202 30.1278 12.5872C29.0483 13.4889 29.0102 15.1526 30.0135 16.1432L35.2205 21.3502C36.0968 22.2392 37.4938 22.2646 38.459 21.4772C45.0503 16.1813 53.3942 12.9809 62.4874 12.9809C82.1343 12.9809 98.3395 27.7891 100.651 46.8137C100.816 48.2234 99.6603 49.4553 98.2379 49.4553H91.8371C89.8051 49.4553 88.6875 51.7921 89.9575 53.3796L105.198 72.4296C106.163 73.6361 107.992 73.6361 108.969 72.4296L124.209 53.3796C125.467 51.7921 124.349 49.4553 122.33 49.4553L115.294 49.468Z" fill="#ED145B"/>
<path d="M62.5002 89.9937C43.2216 89.9937 27.2958 75.7443 24.5272 57.2277C24.3113 55.8053 25.4924 54.5353 26.9275 54.5353H33.1632C35.1952 54.5353 36.3128 52.1985 35.0428 50.611L19.8028 31.561C18.8376 30.3545 17.0088 30.3545 16.0309 31.561L0.790853 50.611C-0.466447 52.1985 0.651153 54.5353 2.67045 54.5353H9.82055C11.0652 54.5353 12.0685 55.5005 12.2082 56.7324C14.8498 82.2467 36.3001 102.16 62.5002 102.16C74.8192 102.16 86.0841 97.728 94.8598 90.4128C95.9393 89.5111 95.9774 87.8474 94.9741 86.8568L89.7671 81.6498C88.8908 80.7735 87.4938 80.7354 86.5286 81.5228C79.9373 86.806 71.5934 89.9937 62.5002 89.9937Z" fill="#ED145B"/>
<path d="M81.1564 61.7616C81.1564 63.9968 79.3403 65.8129 77.1051 65.8129H47.895C45.6598 65.8129 43.8438 63.9968 43.8438 61.7616V39.7906C43.8438 37.5554 45.6598 35.7393 47.895 35.7393H77.1051C79.3403 35.7393 81.1564 37.5554 81.1564 39.7906V61.7616Z" fill="#ED145B"/>
</g>
<defs>
<clipPath id="clip0_1494_20509">
<rect width="124.48" height="101.321" fill="white" transform="translate(0.260254 0.839722)"/>
</clipPath>
</defs>
</svg>
