<svg width="9" height="9" viewBox="0 0 9 9" fill="none" xmlns="http://www.w3.org/2000/svg">
<path d="M2.25 4.5C2.25 5.74264 3.25734 6.75 4.5 6.75C5.74266 6.75 6.75 5.74264 6.75 4.5C6.75 3.25736 5.74266 2.25 4.5 2.25C3.25734 2.25 2.25 3.25736 2.25 4.5Z" fill="#ED145B"/>
<path fill-rule="evenodd" clip-rule="evenodd" d="M4.5 9C2.01467 9 -6.69174e-08 6.98527 4.17173e-08 4.5C1.50352e-07 2.01473 2.01467 -3.05338e-07 4.5 -1.96701e-07C6.98533 -8.80641e-08 9 2.01473 9 4.5C9 6.98527 6.98533 9 4.5 9ZM4.5 8.55C2.26329 8.55 0.45 6.73676 0.45 4.5C0.45 2.26324 2.26329 0.45 4.5 0.45C6.73671 0.45 8.55 2.26324 8.55 4.5C8.55 6.73676 6.73671 8.55 4.5 8.55Z" fill="#ED145B"/>
</svg>
