<svg width="12" height="9" viewBox="0 0 12 9" fill="none" xmlns="http://www.w3.org/2000/svg">
<path d="M5.71429 6.42857C5.33482 6.42857 4.95536 6.31696 4.64286 6.07143L0 2.45536V7.5C0 8.10268 0.46875 8.57143 1.07143 8.57143H10.3571C10.9375 8.57143 11.4286 8.10268 11.4286 7.5V2.45536L6.76339 6.07143C6.45089 6.31696 6.07143 6.42857 5.71429 6.42857ZM0.357143 1.83036L5.08929 5.51339C5.44643 5.78125 5.95982 5.78125 6.31696 5.51339L11.0491 1.83036C11.2723 1.65179 11.4286 1.36161 11.4286 1.07143C11.4286 0.491071 10.9375 0 10.3571 0H1.07143C0.46875 0 0 0.491071 0 1.07143C0 1.36161 0.133929 1.65179 0.357143 1.83036Z" fill="#ED145B"/>
</svg>
