<svg width="48" height="49" viewBox="0 0 48 49" fill="none" xmlns="http://www.w3.org/2000/svg">
<rect y="0.763245" width="48" height="48" rx="24" fill="#0C0E14"/>
<path d="M34.3237 13.1025C34.2523 12.9999 34.0807 12.8276 33.7375 12.8276H21.1226C19.9523 12.8276 18.3964 13.042 18.3964 14.8984V16.5578H17.773C15.451 16.5578 13.5684 18.4255 13.5684 20.729V34.863C13.5684 36.6989 15.2287 36.6989 15.7746 36.6989H19.3537V28.4355C19.3537 27.6098 19.5377 26.8694 21.7626 26.8694H28.2003C28.7285 26.8694 29.0697 26.6622 29.2744 26.216L30.4943 23.2294C30.6163 22.9053 30.514 22.6838 30.4416 22.5813C30.3703 22.4787 30.1987 22.3074 29.8565 22.3074H19.3537V19.5341H18.3964V23.2551H29.4502L28.3988 25.8294C28.3615 25.9104 28.3522 25.9176 28.1992 25.9176H21.7615C20.1942 25.9176 18.3953 26.2037 18.3953 28.4334V35.7471H15.7746C14.6156 35.7471 14.5257 35.3799 14.5257 34.861V20.9444C14.5257 19.046 16.0764 17.5075 17.9901 17.5075H32.0337C32.563 17.5075 32.9042 17.3004 33.1089 16.8542L34.3754 13.7507C34.4974 13.4266 34.395 13.2061 34.3237 13.1025ZM32.2322 16.4696C32.195 16.5506 32.1867 16.5578 32.0327 16.5578H19.3537V14.8984C19.3537 14.285 19.4871 13.7774 21.1226 13.7774H33.3312L32.2322 16.4696Z" fill="#ED145B"/>
</svg>
