<svg width="25" height="23" viewBox="0 0 25 23" fill="none" xmlns="http://www.w3.org/2000/svg">
<g clip-path="url(#clip0_383_1556)">
<path d="M11.9552 12.2969C11.9533 12.2879 11.9543 12.3102 11.9552 12.2969V12.2969Z" fill="#7EBC43"/>
<path d="M15.7276 5.86889C15.7304 5.86626 15.7306 5.86412 15.7329 5.86117C15.7124 5.83668 15.6951 5.81515 15.6826 5.79773L15.7276 5.86889Z" fill="#7EBC43"/>
<path d="M16.8452 4.80402L16.8576 4.80238C16.8422 4.79071 16.8287 4.77723 16.8452 4.80402Z" fill="#7EBC43"/>
<path d="M13.9405 8.91309C13.9369 8.91717 13.9348 8.9224 13.9346 8.92786C13.9344 8.93333 13.9361 8.93869 13.9395 8.943C13.9373 8.9331 13.9376 8.92281 13.9405 8.91309V8.91309Z" fill="#7EBC43"/>
<path d="M11.4988 11.9215H11.5022L11.5139 11.905L11.4988 11.9215Z" fill="#7EBC43"/>
<path d="M11.5458 11.8953C11.5417 11.9033 11.5355 11.91 11.5278 11.9146C11.5201 11.9193 11.5113 11.9217 11.5023 11.9216C11.4765 11.9587 11.4826 11.973 11.5044 11.9709C11.5399 11.9365 11.5205 11.9225 11.5458 11.8953Z" fill="#7EBC43"/>
<path d="M7.7019 8.42585L7.72573 8.41846C7.71741 8.41948 7.70934 8.42199 7.7019 8.42585Z" fill="#7EBC43"/>
<path d="M16.0149 10.0696C16.0149 10.078 16.0124 10.086 16.0131 10.0939C16.016 10.0906 16.0177 10.0864 16.018 10.082C16.0184 10.0777 16.0172 10.0733 16.0149 10.0696Z" fill="#7EBC43"/>
<path d="M8.34863 8.94353L8.40221 8.88782C8.38173 8.90368 8.36368 8.92245 8.34863 8.94353V8.94353Z" fill="#7EBC43"/>
<path d="M15.682 5.79762L15.6655 5.77051C15.6701 5.78005 15.6756 5.78912 15.682 5.79762V5.79762Z" fill="#7EBC43"/>
<path d="M17.8147 3.77893C17.8299 3.79193 17.8464 3.80328 17.864 3.81279C17.8649 3.81179 17.866 3.81091 17.8671 3.81016L17.8147 3.77893Z" fill="#7EBC43"/>
<path d="M23.8616 0.0912406C23.8554 0.0833298 23.8487 0.0758105 23.8416 0.0687256L23.8499 0.128875C23.8586 0.118325 23.8628 0.104825 23.8616 0.0912406V0.0912406Z" fill="#7EBC43"/>
<path d="M19.3935 2.62559C19.3896 2.61732 19.385 2.6094 19.3797 2.60193C19.3371 2.60538 19.2717 2.66241 19.1963 2.74359L19.2574 2.81557C19.3028 2.7523 19.3457 2.68657 19.3935 2.62559Z" fill="#7EBC43"/>
<path d="M22.3706 2.88502L22.1031 2.86661C22.5082 2.39002 22.862 2.37161 23.1747 1.91934L23.1772 1.96996C23.2206 1.96322 23.1852 1.86938 23.2622 1.76157C23.3391 1.65376 23.5381 1.54234 24.0298 1.50158L24.041 1.51687C24.0625 1.49682 24.041 1.46641 24.1166 1.47266L23.9314 1.4651C23.9736 1.37504 23.9823 1.25622 24.0691 1.17618C24.102 1.17849 24.1307 1.20511 24.1503 1.22828C24.2203 1.16189 24.2922 1.09829 24.3659 1.03748L24.5084 1.08892C24.5427 0.985876 24.3639 0.795238 24.6398 0.782748C24.4658 0.684142 24.6765 0.62843 24.6016 0.569102C24.6237 0.58077 24.6647 0.593096 24.7002 0.606408C24.8047 0.510925 24.996 0.321273 25.0007 0.207055C25.0007 0.207055 24.8364 0.204754 24.6392 0.1944C24.442 0.184047 24.2167 0.165476 24.1 0.128663C24.2951 0.0556949 24.1328 0.0806751 24.065 0.0532298L24.0788 0.0976024C23.9534 0.129485 23.8893 0.0364668 23.8208 0.0448483C23.8271 0.0532524 23.834 0.0612141 23.8415 0.068678L23.8395 0.0522437C23.8458 0.0568003 23.851 0.062674 23.8548 0.0694567C23.8586 0.0762395 23.8609 0.0837688 23.8615 0.0915217C23.8765 0.110585 23.8827 0.129485 23.8513 0.142468L23.8498 0.129156C23.817 0.171228 23.7348 0.20574 23.6975 0.220695L23.6426 0.143783C23.6715 0.339022 22.9907 0.281502 22.8852 0.350362C22.7144 0.32834 22.6797 0.538206 22.5197 0.582249C22.3044 0.706164 22.3389 0.548395 22.191 0.560392C22.0332 0.610845 22.283 0.627608 22.2383 0.671652L22.0122 0.684471C22.0897 0.607887 22.0087 0.599834 21.9706 0.583564C21.835 0.671652 21.5269 0.696961 21.6062 0.874451C21.3791 0.940188 21.3303 0.883326 21.2511 0.934929C21.2976 0.941667 21.3661 0.926548 21.3906 0.955636C21.2695 0.946269 21.3711 0.997544 21.4108 0.989491C21.3558 1.12885 20.6623 1.17799 20.7734 1.35252L20.7487 1.32393C20.8259 1.46066 20.9612 1.54152 20.9471 1.66642L20.8552 1.65492L20.8286 1.76585C20.7485 1.76897 20.7446 1.71819 20.7321 1.70389C20.6664 1.85821 20.4457 1.92871 20.2986 2.04096L20.7234 2.22173C20.5426 2.24967 20.2097 2.29865 20.278 2.41796L20.1137 2.37802C19.7028 2.39446 20.0359 2.61139 19.8903 2.63686L19.6704 2.63243L19.7855 2.5279C19.6182 2.57721 19.538 2.58444 19.3773 2.59791C19.3782 2.59906 19.3781 2.60087 19.3791 2.60186C19.3838 2.60093 19.3886 2.60098 19.3932 2.602C19.3979 2.60302 19.4023 2.60498 19.4062 2.60777L19.3929 2.62552C19.4318 2.6929 19.4103 2.78724 19.3301 2.86218C19.205 2.95799 19.2001 3.12414 18.9094 3.18692L18.9777 3.3414L18.7795 3.40878L18.6898 3.32152C18.8242 3.19612 19.0336 2.91641 19.1957 2.74352L19.1585 2.69981C19.0599 2.80006 18.9866 2.9529 18.912 3.00992C18.8627 3.02438 18.6883 3.01567 18.6875 2.89636L18.7135 3.04427C18.3932 3.38939 18.3927 3.3907 17.9585 3.6576L18.0333 3.66894C17.9945 3.7659 17.9555 3.86155 17.8622 3.81274C17.6485 4.01734 17.3792 4.18596 17.1361 4.22935L17.2196 4.35868C17.1731 4.40059 16.944 4.32582 17.0801 4.48457L17.0428 4.62854C16.9788 4.68622 17.0099 4.78055 16.8815 4.79962C16.8732 4.80102 16.8648 4.80195 16.8564 4.80241C16.8596 4.805 16.8629 4.80736 16.8664 4.80948C16.6914 4.91449 16.9687 4.89329 16.7606 5.00669C16.634 4.99354 16.8533 5.18631 16.7583 5.2463L16.5253 5.19371C16.3082 5.26832 16.4528 5.42987 16.2787 5.65058C16.2416 5.66554 16.2019 5.67296 16.1618 5.67241C16.1218 5.67185 16.0823 5.66333 16.0455 5.64735C16.0088 5.63136 15.9757 5.60823 15.948 5.5793C15.9203 5.55037 15.8987 5.51622 15.8843 5.47885C15.9588 5.69709 15.9479 5.60194 15.9188 5.78863C15.8404 5.75921 15.838 5.73506 15.8038 5.66209C15.6394 5.71961 15.8038 5.77713 15.732 5.86111C15.8306 5.97861 15.9967 6.1538 15.9824 6.18749L16.0457 6.18305C16.038 6.32324 15.9872 6.44239 15.8485 6.50599L15.7913 6.45669L15.7371 6.59473L15.6549 6.54395L15.5576 6.72637L15.5951 6.71947C15.5768 6.76581 15.5104 6.91208 15.4163 6.95464L15.375 6.9203C15.0912 7.0286 15.1359 7.32113 14.986 7.57767L14.9183 7.48235C14.7719 7.50371 15.0406 7.60232 14.928 7.67052L14.8141 7.59854C14.8992 7.78737 14.7056 7.69057 14.6089 7.71358L14.7732 7.78523L14.6646 7.87825C14.5305 7.97078 14.4277 7.8301 14.3643 7.75943L14.4202 7.92377L14.2815 7.85278C14.3883 8.01712 14.2141 7.89945 14.2192 8.06412C14.1641 8.04046 14.1551 7.99378 14.1086 8.01745L14.1664 8.32083L14.1602 8.15747L14.341 8.29667C14.4067 8.50505 14.2159 8.43718 14.2166 8.55534L14.1964 8.46117C14.1564 8.62667 14.071 8.58098 13.9799 8.63028C14.0305 8.63028 14.1063 8.62749 14.0964 8.69832C14.0815 8.74532 14.0154 8.67679 13.9702 8.70128C14.0917 8.79249 14.0977 8.93251 13.9819 8.98181C13.9657 8.97157 13.9514 8.95842 13.94 8.94303C13.9464 8.97869 13.972 9.01123 13.9165 9.03062L13.7885 8.91755L13.876 9.07845C13.8052 9.10408 13.8622 9.24279 13.7702 9.17524L13.7597 9.12874L13.4838 9.48799L13.3654 9.42225C13.5012 9.55718 13.1804 9.59793 13.3858 9.70492C13.2345 9.7133 13.2928 10.0389 13.0938 9.86236C12.9253 10.1089 13.0609 10.3718 12.7692 10.6198C12.515 10.6236 12.4086 10.9694 12.2773 11.1621L12.1866 11.4711C12.173 11.5194 12.1595 11.5666 12.1463 11.6133L12.1266 11.6828C12.1207 11.7046 12.1074 11.7397 12.125 11.7185C12.1502 11.7771 12.1623 11.8406 12.1605 11.9045C12.0392 11.8021 12.0533 11.8333 12.0619 11.914C12.0727 11.9881 12.0773 12.1147 12.029 12.0207C12.0436 12.0835 12.0573 12.1482 12.0702 12.2149C12.0209 12.0955 12.017 12.1301 12.007 12.1786C11.9984 12.2236 11.983 12.2856 11.9545 12.127C11.9588 12.242 11.9573 12.2846 11.9565 12.2963C11.9587 12.3053 11.9639 12.3477 11.9771 12.4994C11.9679 12.456 11.9606 12.4779 11.9547 12.4715C11.9481 12.4726 11.9412 12.4057 11.9347 12.2493V12.2197C11.9289 12.0961 11.9263 12.0851 11.9235 12.101C11.92 12.128 11.9094 12.211 11.9046 12.0455L11.9108 12.3715L11.8933 12.2849L11.8983 12.2343C11.8799 12.372 11.851 12.3908 11.8305 12.3688C11.8099 12.3467 11.7948 12.2803 11.783 12.2208C11.7711 12.1614 11.7636 12.1058 11.7453 12.0835C11.7271 12.0611 11.696 12.0692 11.6229 12.1091C11.6785 12.03 11.6605 12.046 11.6418 12.0565C11.6231 12.067 11.6014 12.0693 11.6582 11.9781C11.7202 11.8466 11.7075 11.8545 11.6632 11.8826C11.6188 11.9107 11.5427 11.9648 11.5047 11.9689C11.4959 11.9774 11.4863 11.985 11.476 11.9916L11.4614 11.95L11.4548 11.9313L11.4275 11.8853C11.7102 11.842 11.1627 11.8808 11.4084 11.8511C11.3532 11.7006 11.2787 11.5579 11.1867 11.4266C11.0881 11.2892 10.9744 11.1543 10.8559 11.02L10.485 10.6238C10.3597 10.4961 10.2432 10.3601 10.1363 10.2167L10.1108 10.2837C9.99575 10.1488 9.78473 10.0509 9.76205 9.88192C9.73526 9.71396 9.43337 9.80073 9.39064 9.77378C9.20986 9.75735 9.25916 9.50377 9.29795 9.55389C9.15743 9.47336 8.89794 9.55225 8.79818 9.33745C8.87279 9.12528 8.21098 9.13235 8.34952 8.94303L8.33539 8.95765C8.27491 8.80761 8.14755 8.75058 8.01854 8.69471C7.88706 8.64245 7.75247 8.59249 7.67095 8.44458C7.6808 8.43691 7.6915 8.4304 7.70284 8.42518C7.39979 8.51327 7.09871 8.61878 6.8121 8.72445C6.72182 8.98335 6.62869 9.24027 6.53271 9.49522C6.55096 9.76261 6.56279 10.0231 6.56164 10.2885C6.91892 10.4686 7.26536 10.6801 7.60916 10.9028C7.80193 11.1783 7.98419 11.4563 8.15149 11.7428C8.44189 12.0024 8.7119 12.2871 8.98011 12.5745C9.1101 12.7241 9.24076 12.8662 9.36878 13.0243L9.56073 13.2606L9.58473 13.2902C9.59603 13.3036 9.60656 13.3176 9.61628 13.3321L9.70618 13.461L9.88547 13.7178C9.99504 13.7719 10.1004 13.8196 10.2015 13.861C10.2428 13.9864 10.2879 14.1269 10.3427 14.2621C10.3974 14.3974 10.4594 14.5307 10.5261 14.6605C10.5928 14.7903 10.6648 14.9128 10.7371 15.0451C10.8094 15.1774 10.8837 15.308 10.9581 15.4357C11.2576 15.9531 11.5419 16.4178 11.7999 17.1524L11.8163 16.8479C11.9542 17.0911 11.9465 17.2844 11.9833 17.4128C12.0332 17.5048 12.0832 17.597 12.1334 17.6894C12.1991 17.5691 12.2693 17.3996 12.338 17.2422L12.5436 16.7656L12.9473 15.8165C13.2087 15.1872 13.4808 14.5821 13.7434 14.0002L14.1378 13.1438L14.2373 12.9351L14.3171 12.7854L14.4363 12.5739C14.5983 12.2955 14.7669 12.0291 14.9563 11.7878C15.1075 11.7344 15.2419 11.3863 15.3836 11.3595C15.4062 11.1434 15.4661 10.9329 15.5607 10.7373C15.6559 10.5487 15.7744 10.3735 15.8915 10.2058L15.8978 10.2282L15.9759 10.0491C15.9834 10.0492 15.9908 10.0512 15.9974 10.0548C16.004 10.0584 16.0097 10.0636 16.0138 10.0699C16.0138 9.94092 16.0891 9.82193 16.1874 9.71166C16.2891 9.60352 16.4156 9.50524 16.5137 9.41124L16.519 9.43359C16.9616 8.79808 17.3503 8.15878 17.7713 7.54053C17.9882 7.23698 18.2027 6.93016 18.4464 6.64436C18.6941 6.36202 18.9537 6.0856 19.2473 5.8335C19.5835 5.65617 19.8225 5.3569 20.0721 5.04465C20.3308 4.74325 20.5931 4.42212 20.9568 4.21242C21.0654 4.21702 21.3979 3.91874 21.7108 3.59876C22.0302 3.28569 22.3405 2.9621 22.3706 2.88502Z" fill="#7EBC43"/>
<path d="M24.1501 1.22827L24.1455 1.23271C24.1838 1.28596 24.1769 1.26015 24.1501 1.22827Z" fill="#7EBC43"/>
<path d="M20.2889 2.04723L20.2983 2.04066L20.2046 2.00171L20.2889 2.04723Z" fill="#7EBC43"/>
<path d="M22.0309 0.506958C21.9366 0.556261 21.9425 0.571709 21.9703 0.583213C22.0022 0.56267 22.025 0.538019 22.0309 0.506958Z" fill="#7EBC43"/>
<path d="M24.741 0.671938C24.7869 0.647287 24.7489 0.625758 24.6993 0.606201L24.6316 0.666186C24.6643 0.663064 24.7077 0.675554 24.741 0.671938Z" fill="#7EBC43"/>
<path d="M24.0651 0.0532471L24.0487 0C24.0301 0.0284313 24.0421 0.0437152 24.0651 0.0532471Z" fill="#7EBC43"/>
<path d="M13.5398 21.9879C13.5658 21.9879 13.5758 21.9758 13.5398 21.9879V21.9879Z" fill="#7EBC43"/>
<path d="M0.109238 11.2315C0.109238 11.2236 0.109238 11.2197 0.109238 11.2119C0.082083 11.2 0.0557814 11.1861 0.0305176 11.1705L0.109238 11.2315Z" fill="#7EBC43"/>
<path d="M0.788901 8.12824L0.802705 8.11181C0.783806 8.10836 0.767043 8.09916 0.788901 8.12824Z" fill="#7EBC43"/>
<path d="M2.63892 17.9442C2.6433 17.9526 2.6495 17.9599 2.65706 17.9656C2.66462 17.9713 2.67336 17.9752 2.68263 17.9771C2.66646 17.9684 2.65172 17.9573 2.63892 17.9442V17.9442Z" fill="#7EBC43"/>
<path d="M18.4805 19.2355L18.4724 19.2465C18.4847 19.243 18.4972 19.2402 18.5099 19.2381L18.4805 19.2355Z" fill="#7EBC43"/>
<path d="M18.4704 19.3169C18.4047 19.3458 18.454 19.2714 18.4724 19.2466C18.4341 19.2552 18.3979 19.2714 18.366 19.2942C18.334 19.317 18.307 19.346 18.2864 19.3794C18.3188 19.4155 18.4211 19.3131 18.4704 19.3169Z" fill="#7EBC43"/>
<path d="M21.7129 9.93958L21.7364 9.96718C21.7301 9.95674 21.7222 9.94741 21.7129 9.93958Z" fill="#7EBC43"/>
<path d="M4.37524 16.3063C4.38609 16.3133 4.39595 16.3227 4.40647 16.329C4.4034 16.323 4.39897 16.3178 4.39355 16.3139C4.38813 16.31 4.38186 16.3074 4.37524 16.3063V16.3063Z" fill="#7EBC43"/>
<path d="M21.7563 11.5389L21.8328 11.5578C21.8095 11.5446 21.7831 11.5381 21.7563 11.5389Z" fill="#7EBC43"/>
<path d="M0.0299104 11.1706L0 11.1467C0.0087942 11.156 0.0188645 11.1641 0.0299104 11.1706V11.1706Z" fill="#7EBC43"/>
<path d="M2.05005 5.51514C2.06762 5.52516 2.08711 5.53138 2.10724 5.53338L2.11184 5.5268L2.05005 5.51514Z" fill="#7EBC43"/>
<path d="M14.4541 2.25542C14.4564 2.24541 14.4576 2.23514 14.4575 2.22485L14.3906 2.25871C14.4117 2.26346 14.4336 2.26232 14.4541 2.25542V2.25542Z" fill="#7EBC43"/>
<path d="M4.94679 2.88814C4.94432 2.87894 4.94679 2.86694 4.94153 2.85889C4.87464 2.87943 4.72574 2.97393 4.55713 3.12052L4.60643 3.20269C4.71457 3.09242 4.8301 2.99102 4.94679 2.88814Z" fill="#7EBC43"/>
<path d="M9.25704 3.24105L8.89088 3.13899C9.39509 2.95328 9.79263 2.91696 10.1626 2.88196C10.3494 2.87555 10.5292 2.85336 10.7213 2.84399C10.8173 2.83726 10.9156 2.82526 11.0188 2.81211C11.1222 2.80291 11.2305 2.78943 11.346 2.7702L11.2946 2.81113C11.3603 2.83348 11.4142 2.73471 11.6389 2.70973C11.7509 2.69658 11.9062 2.70266 12.1209 2.75903C12.3355 2.8154 12.6091 2.92206 12.938 3.12223L12.9342 3.14063C12.9835 3.14754 12.9922 3.10908 13.0787 3.18155C13.0065 3.12354 12.9319 3.07144 12.8566 3.01721C13.0142 2.99913 13.1651 2.93997 13.3682 2.97744C13.3828 2.99 13.3939 3.00607 13.4005 3.02413C13.4072 3.0422 13.4091 3.06165 13.406 3.08065C13.5704 3.11187 13.7326 3.14967 13.8945 3.19158L14.0001 3.35592C14.1619 3.34688 14.1916 3.07325 14.5231 3.36184C14.4462 3.13587 14.7553 3.34195 14.7435 3.24022C14.7541 3.26898 14.785 3.31862 14.8077 3.362C15.044 3.44089 15.4815 3.61641 15.6306 3.59668C15.6306 3.59668 15.4631 3.39273 15.2575 3.15855C15.0519 2.92436 14.8044 2.66552 14.7063 2.52615C15.0393 2.71219 14.8082 2.54259 14.7601 2.4591L14.7201 2.49197C14.5231 2.36658 14.5607 2.2637 14.4621 2.19303C14.4595 2.20346 14.4581 2.21416 14.458 2.22491L14.4771 2.21571C14.4792 2.22397 14.478 2.23273 14.4738 2.24015C14.4696 2.24757 14.4627 2.25307 14.4545 2.25548C14.449 2.27948 14.4329 2.29295 14.376 2.26616L14.3911 2.25877C14.2943 2.24464 14.143 2.17331 14.0756 2.1457L14.102 2.05515C13.9927 2.11563 13.7393 1.9664 13.4673 1.81044C13.1967 1.65021 12.9069 1.48586 12.7891 1.46384C12.5682 1.30936 12.2528 1.41799 11.9606 1.33894C11.484 1.27863 11.7289 1.18857 11.4878 1.09489C11.183 1.03507 11.5475 1.205 11.4246 1.21108L11.0597 1.07961C11.2734 1.06827 11.1575 1.01141 11.1174 0.974922C10.7999 0.957173 10.274 0.822083 10.1931 1.02423C9.75171 0.974922 9.73856 0.915102 9.55039 0.930385C9.61859 0.954708 9.74662 0.96687 9.75286 1.00434C9.56765 0.948463 9.67348 1.03721 9.74645 1.04477C9.68367 1.07501 9.56452 1.08175 9.41908 1.07862L8.93838 1.07353C8.60969 1.07698 8.30418 1.10295 8.30632 1.21108L8.29596 1.17476C8.27953 1.34091 8.41429 1.45579 8.26457 1.59121L8.12817 1.5613L7.97352 1.67864C7.84205 1.67206 7.88527 1.6129 7.87919 1.59532C7.75001 1.6816 7.57943 1.73567 7.3998 1.79253C7.22247 1.85383 7.02756 1.89804 6.85977 1.97084C7.03414 2.0397 7.20867 2.12138 7.37663 2.20092L7.10678 2.22327C7.01031 2.23625 6.90957 2.25187 6.81868 2.27093C6.63495 2.30676 6.49444 2.36724 6.50002 2.44119L6.2729 2.40372C5.93813 2.43281 5.86204 2.52418 5.83739 2.59764C5.81323 2.67472 5.84035 2.74555 5.71644 2.77628L5.37575 2.82016L5.63344 2.65007C5.33516 2.75821 5.19958 2.78154 4.94074 2.85353C4.94172 2.85484 4.94074 2.85731 4.94074 2.85862C4.95849 2.85336 4.9718 2.85254 4.97903 2.85862L4.94616 2.88787C4.9626 2.97465 4.85857 3.10563 4.6888 3.24335C4.43226 3.42511 4.32412 3.66111 3.85575 3.89234L3.87925 4.09086C3.76832 4.15463 3.661 4.22332 3.55516 4.29498L3.4633 4.21018C3.58951 4.07492 3.77144 3.88001 3.96273 3.6754L4.26365 3.37959C4.36324 3.28345 4.46612 3.19881 4.5565 3.12058L4.52709 3.07128C4.30309 3.24844 4.1021 3.50827 3.95567 3.62512C3.87136 3.66702 3.61449 3.74361 3.67628 3.56102L3.63602 3.77385C3.46757 3.94213 3.35253 4.07985 3.24998 4.19078C3.14743 4.30172 3.06723 4.39227 2.9844 4.48348C2.81546 4.66343 2.62942 4.83567 2.2843 5.20971L2.38504 5.17323C2.30287 5.35959 2.22218 5.54086 2.10763 5.53363C1.76054 6.02978 1.41328 6.55518 1.10317 6.85807L1.20375 6.99792C1.14672 7.11198 0.86257 7.20911 1.03151 7.34436L0.997002 7.62555C0.924199 7.7871 0.9689 7.91446 0.830688 8.08012V8.08111C0.821977 8.0913 0.812938 8.10198 0.802914 8.11201C0.806913 8.11319 0.811071 8.11374 0.815239 8.11365C0.638406 8.47701 0.934388 8.14471 0.735697 8.56033C0.598307 8.67537 0.874896 8.76215 0.792067 8.96544L0.539801 9.1375C0.438894 9.32305 0.437908 9.44483 0.45615 9.58994C0.484091 9.7887 0.488009 9.9901 0.467818 10.1898C0.36494 10.4567 0.172001 10.5842 0.0305021 10.3809C0.200268 10.6564 0.147021 10.5101 0.220318 10.8575C0.138147 10.9068 0.122863 10.8698 0.0559753 10.7898C-0.0513406 11.094 0.114646 10.9823 0.109387 11.2122C0.259432 11.2817 0.498386 11.3571 0.508082 11.4288L0.55492 11.3427C0.630354 11.5778 0.681957 11.8266 0.620657 12.1029L0.544731 12.098C0.561165 12.1941 0.58746 12.2894 0.608332 12.3846L0.513999 12.4122C0.539636 12.5498 0.557878 12.688 0.591569 12.8231L0.608003 12.7629C0.637749 12.8582 0.710553 13.17 0.700364 13.3585L0.646295 13.3619C0.632186 13.4899 0.637227 13.6193 0.66125 13.7458C0.685408 13.8673 0.730274 13.9825 0.777933 14.0989C0.825593 14.2152 0.881469 14.3321 0.942276 14.4533C1.00308 14.5746 1.05584 14.7054 1.11237 14.8463L0.980897 14.8063C0.949179 15.0382 1.15954 14.8052 1.19257 15.0542L1.07063 15.1125C1.30909 15.2558 1.13637 15.3894 1.13357 15.5562L1.26899 15.4236L1.34492 15.6991C1.4192 16.0079 1.22412 15.9676 1.11779 15.9633L1.33752 16.1005L1.21591 16.2065C1.44796 16.2697 1.25601 16.366 1.47639 16.567C1.43563 16.6151 1.37203 16.5684 1.39553 16.6646C1.5326 16.7665 1.66999 16.8647 1.81346 16.956C1.73917 16.8937 1.66062 16.8329 1.58995 16.7666L1.8036 16.6845C2.09514 16.8406 1.97829 17.0255 2.1382 17.1647C2.09366 17.1384 2.05159 17.1101 2.00804 17.0825C2.22941 17.3326 2.16433 17.3947 2.22629 17.5814C2.22826 17.5088 2.23105 17.4007 2.33015 17.4942C2.39589 17.5678 2.29317 17.5846 2.32686 17.675C2.46442 17.6061 2.66755 17.7451 2.73772 17.9588C2.72123 17.9709 2.70114 17.9771 2.6807 17.9764C2.7323 18.0056 2.78209 18.0017 2.81332 18.0981L2.64799 18.1599L2.88941 18.2013C2.93165 18.3254 3.13708 18.3831 3.04225 18.4439C3.01793 18.4344 2.99459 18.4237 2.97142 18.413C3.16501 18.6546 3.36387 18.8934 3.57719 19.1197L3.49206 19.2249C3.68154 19.1614 3.81926 19.6265 3.95222 19.4357C3.99412 19.6558 4.53744 19.8122 4.29076 19.9508C4.4058 20.0558 4.52643 20.1245 4.64065 20.1889C4.75487 20.2533 4.86892 20.3059 4.98758 20.3572C5.11131 20.4119 5.23156 20.4741 5.34765 20.5436C5.49138 20.625 5.62645 20.7209 5.75078 20.8297C5.87223 21.1536 6.56445 21.446 7.01031 21.6386C7.23809 21.7111 7.45239 21.7569 7.65124 21.809C7.85437 21.8506 8.04665 21.8897 8.23959 21.924C8.62761 21.9852 9.01628 22.0414 9.49254 22.0793C9.75122 22.2798 10.1195 22.2951 10.4853 22.2766C10.6691 22.2627 10.8528 22.2517 11.0288 22.2425C11.2048 22.2333 11.3739 22.2414 11.5292 22.2821L11.6936 22.1507C11.7973 22.1944 11.9146 22.2102 12.0405 22.2116C12.1661 22.2087 12.2998 22.1888 12.4386 22.1691C12.5774 22.1526 12.7197 22.1229 12.8658 22.1081C13.0139 22.0932 13.1631 22.0932 13.3112 22.1081C13.4402 22.0271 13.5084 21.9957 13.54 21.9847C13.513 21.9847 13.4693 21.9694 13.4414 21.8958C13.6141 21.9217 13.918 21.7699 13.9331 21.9268L13.8963 21.9528C13.9033 22.0314 14.0215 21.9824 14.1632 21.9242C14.3048 21.866 14.4656 21.7862 14.5748 21.824L14.4283 21.6948C14.5295 21.6723 14.6322 21.653 14.7328 21.6274C14.7102 21.6473 14.6873 21.6663 14.6641 21.6844C15.2439 21.2926 15.6878 21.1291 16.1373 20.9561C16.5762 20.774 17.0183 20.5756 17.4339 20.0763C17.4066 20.3228 17.5754 19.8522 17.7066 20.0022C17.9108 20.0088 18.0211 19.9036 18.0951 19.7721C18.169 19.6407 18.2149 19.4893 18.2865 19.3759C18.2821 19.3704 18.2789 19.3641 18.2771 19.3574C18.2752 19.3506 18.2747 19.3436 18.2757 19.3366C18.3907 19.2413 18.5104 19.1493 18.6231 19.05C18.6067 19.4208 18.7082 18.672 18.6816 18.9994C19.1697 18.6579 19.6267 18.1386 20.0212 17.5543C20.4184 16.9696 20.7527 16.3234 21.0693 15.7147L20.9872 15.7434C21.0597 15.5865 21.1236 15.4026 21.1844 15.23C21.2429 15.056 21.309 14.8969 21.4015 14.7893C21.5793 14.5672 21.4179 14.1927 21.4273 14.0944C21.42 14.0325 21.4253 13.9698 21.4428 13.91C21.4602 13.8501 21.4896 13.7944 21.529 13.7462C21.5852 13.6722 21.6441 13.6495 21.6255 13.7085C21.6419 13.5549 21.6076 13.3963 21.5915 13.2298C21.5689 13.0615 21.5625 12.8847 21.6424 12.6847C21.7537 12.6272 21.7379 12.3335 21.7067 12.0623C21.6722 11.7902 21.6385 11.5402 21.756 11.5354L21.7359 11.5305C21.8252 11.2634 21.7902 10.9989 21.7435 10.7352C21.6968 10.4716 21.6378 10.2072 21.6746 9.91024C21.6884 9.91699 21.7012 9.92574 21.7124 9.93621C21.4267 9.58548 21.116 9.25593 20.7826 8.95015C20.5482 9.11702 20.3107 9.27588 20.07 9.42675C19.9234 9.75204 19.7553 10.0672 19.5668 10.3701C19.7001 11.1034 19.7355 11.8512 19.6718 12.5938C19.5045 13.164 19.2764 13.7145 18.9914 14.2359C18.5337 15.5681 17.7136 16.7806 16.6484 17.7285L16.5248 18.0644C16.0901 18.2041 15.7062 18.4806 15.2864 18.7383C14.8702 18.9946 14.4186 19.2354 13.9513 19.2729L13.9842 19.4267C13.74 19.5158 13.7273 19.4157 13.6593 19.4093C12.5286 19.7726 11.2928 19.9338 10.0998 19.8058C8.91028 19.6842 7.77664 19.2689 6.90053 18.6301C6.77135 18.4434 6.2208 18.1371 6.16246 17.9471C5.49359 17.682 4.95405 17.1331 4.53547 16.5724L4.56571 16.5824L4.34319 16.3359C4.34329 16.3318 4.34421 16.3278 4.34587 16.3242C4.34754 16.3205 4.34993 16.3171 4.3529 16.3144C4.35587 16.3116 4.35936 16.3095 4.36317 16.3081C4.36698 16.3067 4.37102 16.3061 4.37507 16.3063C4.04063 16.0844 3.83833 15.501 3.69338 15.0737L3.71984 15.0902C3.4358 14.5062 3.20655 13.8971 3.03502 13.2707C2.86879 12.6502 2.7733 12.0129 2.75038 11.3709C2.72589 10.7255 2.78594 10.0796 2.92902 9.44976C3.07726 8.81333 3.32277 8.20357 3.65689 7.64198C4.03751 7.15142 4.35929 6.592 4.7713 6.04967C4.97617 5.7725 5.20346 5.51262 5.45086 5.27265C5.70888 5.03945 5.98349 4.81808 6.29739 4.66015C6.36953 4.65061 6.56346 4.54149 6.81934 4.38619C7.08015 4.2391 7.40309 4.04271 7.7441 3.87968C8.41708 3.53341 9.14479 3.30514 9.25704 3.24105Z" fill="#7EBC43"/>
<path d="M13.4053 3.08059L13.3944 3.07861C13.3783 3.14205 13.4005 3.12249 13.4053 3.08059Z" fill="#7EBC43"/>
<path d="M6.83857 1.97864L6.85977 1.97026L6.74292 1.92358L6.83857 1.97864Z" fill="#7EBC43"/>
<path d="M11.3057 0.953208C11.0977 0.932501 11.088 0.948442 11.1176 0.974737C11.1927 0.978845 11.2576 0.973915 11.3057 0.953208Z" fill="#7EBC43"/>
<path d="M14.7724 3.43119C14.8545 3.47244 14.8381 3.42314 14.8069 3.36151L14.6565 3.30859C14.6976 3.3436 14.7308 3.39586 14.7724 3.43119Z" fill="#7EBC43"/>
<path d="M14.7593 2.45856L14.8086 2.42093C14.7481 2.4109 14.7433 2.4298 14.7593 2.45856Z" fill="#7EBC43"/>
</g>
<defs>
<clipPath id="clip0_383_1556">
<rect width="25" height="22.2841" fill="white"/>
</clipPath>
</defs>
</svg>
