<svg width="18" height="18" viewBox="0 0 18 18" fill="none" xmlns="http://www.w3.org/2000/svg">
<path fill-rule="evenodd" clip-rule="evenodd" d="M10.414 9.00012L17.7068 1.70723C18.0977 1.31623 18.0977 0.684241 17.7068 0.293246C17.3158 -0.0977486 16.6838 -0.0977486 16.2928 0.293246L9 7.58614L1.7072 0.293246C1.31621 -0.0977486 0.684231 -0.0977486 0.293242 0.293246C-0.0977473 0.684241 -0.0977473 1.31623 0.293242 1.70723L7.58604 9.00012L0.293242 16.293C-0.0977473 16.684 -0.0977473 17.316 0.293242 17.707C0.488236 17.902 0.744229 18 1.00022 18C1.25622 18 1.51221 17.902 1.7072 17.707L9 10.4141L16.2928 17.707C16.4878 17.902 16.7438 18 16.9998 18C17.2558 18 17.5118 17.902 17.7068 17.707C18.0977 17.316 18.0977 16.684 17.7068 16.293L10.414 9.00012Z" fill="#1D1D1B"/>
</svg>
