<svg width="182" height="177" viewBox="0 0 182 177" fill="none" xmlns="http://www.w3.org/2000/svg">
<g clip-path="url(#clip0_383_1527)">
<path d="M117.91 169.46C114.91 176.64 107.5 178.4 101.53 173.37C98.4706 170.926 94.6613 169.613 90.7459 169.653C86.8304 169.693 83.0488 171.084 80.04 173.59C74.18 178.74 66.78 177.13 63.59 170.01C61.8945 166.479 59.0319 163.643 55.4862 161.979C51.9404 160.315 47.929 159.927 44.13 160.88C36.62 162.98 30.65 158.32 30.86 150.52C30.8646 146.603 29.5166 142.805 27.0441 139.768C24.5715 136.731 21.126 134.64 17.29 133.85C9.61004 132.49 6.29005 125.69 9.83005 118.76C11.5309 115.233 11.9623 111.228 11.0513 107.42C10.1403 103.612 7.9428 100.235 4.83005 97.86C-1.49995 93.29 -1.57995 85.71 4.65005 81.02C7.71382 78.5814 9.84183 75.16 10.6745 71.3337C11.5071 67.5075 10.9934 63.5112 9.22005 60.02C5.50005 53.16 8.72004 46.3 16.37 44.78C20.1909 43.9143 23.5956 41.7556 26.0081 38.6688C28.4207 35.5821 29.693 31.7568 29.61 27.84C29.24 20.04 35.11 15.26 42.67 17.21C46.4883 18.0848 50.4914 17.6141 54.0027 15.8776C57.5139 14.1412 60.3177 11.2454 61.94 7.67997C64.94 0.499966 72.35 -1.26003 78.31 3.76997C81.3695 6.21385 85.1787 7.52666 89.0942 7.48658C93.0097 7.44649 96.7913 6.05597 99.8 3.54997C105.66 -1.60003 113.06 0.00996685 116.25 7.12997C117.946 10.6606 120.808 13.4974 124.354 15.161C127.9 16.8245 131.911 17.2127 135.71 16.26C143.23 14.16 149.2 18.82 148.98 26.62C148.976 30.5365 150.323 34.3345 152.796 37.3719C155.269 40.4093 158.714 42.4998 162.55 43.29C170.23 44.66 173.55 51.45 170.01 58.38C168.309 61.9066 167.878 65.9123 168.789 69.7202C169.7 73.5282 171.897 76.9049 175.01 79.28C181.34 83.85 181.41 91.43 175.18 96.12C172.116 98.5585 169.988 101.98 169.156 105.806C168.323 109.632 168.837 113.629 170.61 117.12C174.33 123.98 171.11 130.84 163.46 132.36C159.641 133.228 156.239 135.387 153.828 138.474C151.418 141.56 150.147 145.385 150.23 149.3C150.61 157.1 144.73 161.88 137.23 159.93C133.405 159.042 129.39 159.507 125.868 161.244C122.346 162.981 119.534 165.884 117.91 169.46V169.46Z" fill="url(#paint0_linear_383_1527)"/>
<path d="M117.26 167.6C114.26 174.6 107.09 176.34 101.26 171.42C98.2675 169.037 94.5457 167.759 90.7208 167.799C86.896 167.839 83.2017 169.195 80.2599 171.64C74.5299 176.64 67.2599 175.09 64.1899 168.14C62.5278 164.698 59.7322 161.933 56.2725 160.309C52.8128 158.685 48.8996 158.3 45.1899 159.22C37.8499 161.27 32.0199 156.72 32.1899 149.1C32.1907 145.284 30.881 141.584 28.4799 138.619C26.0789 135.654 22.7322 133.603 18.9999 132.81C11.4899 131.48 8.21991 124.81 11.7099 118.07C13.3691 114.623 13.7897 110.709 12.9008 106.988C12.0119 103.267 9.86798 99.9654 6.82991 97.64C0.649914 93.18 0.579912 85.78 6.65991 81.19C9.64916 78.8062 11.7257 75.4651 12.5399 71.7294C13.354 67.9937 12.8561 64.0916 11.1299 60.68C7.48991 53.97 10.6399 47.27 18.1299 45.78C21.847 44.9143 25.1539 42.7978 27.4968 39.785C29.8397 36.7722 31.0765 33.0459 30.9999 29.23C30.6299 21.62 36.3699 17 43.7499 18.85C47.4804 19.6976 51.389 19.2347 54.8183 17.5392C58.2477 15.8436 60.9885 13.0189 62.5799 9.54002C65.5799 2.54002 72.7499 0.800016 78.5799 5.72002C81.5712 8.10397 85.2924 9.38461 89.1172 9.34636C92.9421 9.30811 96.6369 7.95331 99.5799 5.51001C105.31 0.510014 112.58 2.04002 115.66 9.00002C117.319 12.4442 120.114 15.2116 123.575 16.8363C127.035 18.4609 130.95 18.8436 134.66 17.92C142 15.87 147.83 20.42 147.66 28.04C147.662 31.8653 148.982 35.5731 151.397 38.5398C153.812 41.5065 157.175 43.5512 160.92 44.33C168.43 45.66 171.71 52.33 168.21 59.07C166.553 62.5177 166.133 66.431 167.022 70.1516C167.911 73.8723 170.053 77.1735 173.09 79.5C179.27 83.96 179.35 91.36 173.26 95.94C170.269 98.3274 168.193 101.673 167.38 105.412C166.568 109.152 167.069 113.057 168.8 116.47C172.43 123.17 169.28 129.87 161.8 131.36C158.072 132.212 154.751 134.324 152.398 137.338C150.045 140.353 148.802 144.086 148.88 147.91C149.24 155.52 143.5 160.19 136.12 158.29C132.385 157.435 128.469 157.894 125.034 159.59C121.598 161.286 118.852 164.115 117.26 167.6Z" fill="url(#paint1_linear_383_1527)"/>
<path d="M152.665 132.749C177.066 98.0949 168.754 50.2221 134.1 25.8218C99.446 1.42146 51.5732 9.73358 27.1729 44.3874C2.77255 79.0412 11.0847 126.914 45.7385 151.314C80.3923 175.715 128.265 167.403 152.665 132.749Z" fill="url(#paint2_radial_383_1527)"/>
<path d="M92.6022 158.675C131.322 157.195 161.511 124.606 160.03 85.8856C158.549 47.1656 125.96 16.9772 87.2401 18.4579C48.5201 19.9386 18.3317 52.5277 19.8124 91.2477C21.2931 129.968 53.8822 160.156 92.6022 158.675Z" fill="url(#paint3_radial_383_1527)"/>
<path d="M119.205 147.922C151.983 131.75 165.445 92.0689 149.274 59.2908C133.102 26.5127 93.4209 13.0504 60.6429 29.2219C27.8648 45.3934 14.4025 85.0748 30.574 117.853C46.7455 150.631 86.4269 164.093 119.205 147.922Z" fill="url(#paint4_linear_383_1527)"/>
<path style="mix-blend-mode:screen" opacity="0.5" d="M89.92 23.38C102.814 23.378 115.419 27.1997 126.14 34.3616C136.862 41.5236 145.219 51.7042 150.155 63.6159C155.09 75.5277 156.383 88.6355 153.869 101.282C151.354 113.928 145.146 125.545 136.03 134.663C126.913 143.781 115.298 149.99 102.652 152.507C90.0057 155.023 76.8977 153.732 64.9852 148.799C53.0727 143.865 42.8908 135.509 35.7272 124.789C28.5636 114.068 24.74 101.464 24.74 88.57C24.7585 71.288 31.6313 54.7189 43.8506 42.4977C56.07 30.2765 72.638 23.4012 89.92 23.38M89.92 22.38C76.8289 22.38 64.0317 26.262 53.1468 33.535C42.2619 40.8081 33.7782 51.1455 28.7684 63.2402C23.7587 75.3348 22.4479 88.6434 25.0018 101.483C27.5558 114.323 33.8598 126.117 43.1166 135.373C52.3734 144.63 64.1674 150.934 77.007 153.488C89.8466 156.042 103.155 154.731 115.25 149.722C127.344 144.712 137.682 136.228 144.955 125.343C152.228 114.458 156.11 101.661 156.11 88.57C156.11 71.0153 149.136 54.1796 136.723 41.7666C124.31 29.3536 107.475 22.38 89.92 22.38V22.38Z" fill="url(#paint5_linear_383_1527)"/>
<path style="mix-blend-mode:screen" d="M147.55 56C142.643 47.3149 135.836 39.8514 127.638 34.1676C119.441 28.4838 110.064 24.7268 100.21 23.1774C90.3552 21.628 80.278 22.3264 70.7316 25.2203C61.1851 28.1142 52.4164 33.1287 45.081 39.889C37.7456 46.6492 32.0333 54.9803 28.3712 64.2592C24.7092 73.5382 23.1921 83.5249 23.9335 93.4728C24.6749 103.421 27.6555 113.072 32.6525 121.706C37.6495 130.339 44.5336 137.732 52.79 143.33C60.08 96.6 99.75 59.41 147.55 56Z" fill="url(#paint6_radial_383_1527)"/>
<g style="mix-blend-mode:screen" opacity="0.7">
<path d="M59.69 57.71L56.17 55.63L52.65 57.72L53.54 53.72L50.47 51.02L54.54 50.64L56.16 46.88L57.79 50.64L61.86 51.02L58.79 53.72L59.69 57.71Z" fill="url(#paint7_linear_383_1527)"/>
<path d="M131.99 57.71L128.47 55.63L124.95 57.72L125.85 53.72L122.77 51.02L126.85 50.64L128.47 46.88L130.09 50.64L134.17 51.02L131.1 53.72L131.99 57.71Z" fill="url(#paint8_linear_383_1527)"/>
<path d="M115.81 119.81H69.5601V121.3H115.81V119.81Z" fill="url(#paint9_linear_383_1527)"/>
<path d="M108.92 125.15H76.4399V126.64H108.92V125.15Z" fill="url(#paint10_linear_383_1527)"/>
</g>
<path d="M59.1599 57.18L55.6399 55.09L52.1099 57.18L53.0099 53.19L49.9399 50.48L54.0099 50.1L55.6299 46.34L57.2499 50.1L61.3299 50.48L58.2599 53.18L59.1599 57.18Z" fill="url(#paint11_radial_383_1527)"/>
<path d="M131.46 57.18L127.94 55.09L124.42 57.18L125.32 53.19L122.24 50.48L126.32 50.1L127.94 46.34L129.56 50.1L133.64 50.48L130.56 53.18L131.46 57.18Z" fill="url(#paint12_radial_383_1527)"/>
<path d="M115.28 119.27H69.03V120.76H115.28V119.27Z" fill="url(#paint13_radial_383_1527)"/>
<path d="M108.39 124.61H75.9099V126.1H108.39V124.61Z" fill="url(#paint14_radial_383_1527)"/>
<path d="M71.1503 44.2414H64.9497V41.4483H74.1669V44.1297L69.3628 61H66.2345L71.1503 44.2414ZM80.8018 41.4483H85.4942C87.0211 41.4483 88.1663 41.8579 88.9298 42.6772C89.6932 43.4965 90.0749 44.6976 90.0749 46.2803V56.1679C90.0749 57.7507 89.6932 58.9517 88.9298 59.771C88.1663 60.5903 87.0211 61 85.4942 61H80.8018V41.4483ZM85.4384 58.2069C85.9411 58.2069 86.3229 58.0579 86.5836 57.76C86.8629 57.4621 87.0025 56.9779 87.0025 56.3076V46.1407C87.0025 45.4703 86.8629 44.9862 86.5836 44.6883C86.3229 44.3903 85.9411 44.2414 85.4384 44.2414H83.8742V58.2069H85.4384ZM92.1488 41.4483H95.2212V61H92.1488V41.4483ZM99.8964 41.4483H104.058L107.242 61H104.17L103.611 57.1176V57.1734H100.12L99.5612 61H96.7123L99.8964 41.4483ZM103.248 54.52L101.88 44.8559H101.824L100.483 54.52H103.248ZM112.645 61.2793C111.156 61.2793 110.029 60.8603 109.266 60.0224C108.502 59.1659 108.12 57.9462 108.12 56.3634V55.2462H111.025V56.5869C111.025 57.8531 111.556 58.4862 112.617 58.4862C113.139 58.4862 113.53 58.3372 113.79 58.0393C114.07 57.7228 114.209 57.22 114.209 56.531C114.209 55.7117 114.023 54.9948 113.651 54.3803C113.278 53.7472 112.589 52.9931 111.584 52.1179C110.318 51.0007 109.433 49.9952 108.93 49.1014C108.428 48.189 108.176 47.1648 108.176 46.029C108.176 44.4834 108.567 43.2917 109.349 42.4538C110.131 41.5972 111.267 41.169 112.757 41.169C114.228 41.169 115.336 41.5972 116.081 42.4538C116.844 43.2917 117.226 44.5021 117.226 46.0848V46.8948H114.321V45.8893C114.321 45.219 114.191 44.7348 113.93 44.4369C113.669 44.1203 113.288 43.9621 112.785 43.9621C111.761 43.9621 111.249 44.5859 111.249 45.8334C111.249 46.541 111.435 47.2021 111.807 47.8166C112.198 48.431 112.897 49.1759 113.902 50.051C115.187 51.1683 116.071 52.1831 116.556 53.0955C117.04 54.0079 117.282 55.0786 117.282 56.3076C117.282 57.909 116.881 59.1379 116.081 59.9945C115.299 60.851 114.153 61.2793 112.645 61.2793Z" fill="#00113F"/>
<path d="M36.9407 103.403C34.791 103.403 33.1518 102.798 32.0231 101.589C30.8945 100.353 30.3302 98.593 30.3302 96.3088V81.4754C30.3302 79.1912 30.8945 77.4445 32.0231 76.2353C33.1518 74.9992 34.791 74.3811 36.9407 74.3811C39.0905 74.3811 40.7297 74.9992 41.8584 76.2353C42.987 77.4445 43.5513 79.1912 43.5513 81.4754V83.8939H39.3592V81.1932C39.3592 79.339 38.5934 78.4119 37.0617 78.4119C35.5299 78.4119 34.7641 79.339 34.7641 81.1932V96.6313C34.7641 98.4586 35.5299 99.3723 37.0617 99.3723C38.5934 99.3723 39.3592 98.4586 39.3592 96.6313V91.109H37.1423V87.0782H43.5513V96.3088C43.5513 98.593 42.987 100.353 41.8584 101.589C40.7297 102.798 39.0905 103.403 36.9407 103.403ZM49.8243 74.7842H55.8302L60.4254 103H55.9915L55.1853 97.3971V97.4778H50.1468L49.3406 103H45.2291L49.8243 74.7842ZM54.6613 93.6485L52.6862 79.7018H52.6056L50.6708 93.6485H54.6613ZM62.5765 74.7842H69.1468C71.4309 74.7842 73.097 75.3216 74.145 76.3965C75.193 77.4445 75.717 79.0703 75.717 81.2738V83.0071C75.717 85.9361 74.7496 87.7903 72.8148 88.5696V88.6502C73.8897 88.9727 74.6421 89.6311 75.0721 90.6253C75.5289 91.6196 75.7573 92.9498 75.7573 94.6159V99.5738C75.7573 100.38 75.7842 101.038 75.838 101.549C75.8917 102.033 76.0261 102.516 76.241 103H71.7265C71.5653 102.543 71.4578 102.113 71.404 101.71C71.3503 101.307 71.3234 100.582 71.3234 99.5335V94.374C71.3234 93.0842 71.1084 92.1839 70.6785 91.6734C70.2754 91.1628 69.5633 90.9075 68.5421 90.9075H67.0104V103H62.5765V74.7842ZM68.6228 86.8767C69.5095 86.8767 70.1679 86.6483 70.5979 86.1914C71.0547 85.7346 71.2831 84.9687 71.2831 83.8939V81.7172C71.2831 80.6961 71.095 79.9571 70.7188 79.5002C70.3695 79.0434 69.8051 78.815 69.0258 78.815H67.0104V86.8767H68.6228ZM82.2599 74.7842H88.2658L92.861 103H88.4271L87.6209 97.3971V97.4778H82.5824L81.7762 103H77.6647L82.2599 74.7842ZM87.0969 93.6485L85.1218 79.7018H85.0412L83.1064 93.6485H87.0969ZM95.0121 74.7842H100.575L104.888 91.6734H104.968V74.7842H108.918V103H104.364L99.0429 82.4024H98.9623V103H95.0121V74.7842ZM115.681 78.815H111.045V74.7842H124.75V78.815H120.114V103H115.681V78.815ZM126.897 74.7842H131.331V103H126.897V74.7842ZM138.077 74.7842H144.083L148.679 103H144.245L143.438 97.3971V97.4778H138.4L137.594 103H133.482L138.077 74.7842ZM142.914 93.6485L140.939 79.7018H140.859L138.924 93.6485H142.914Z" fill="#00113F"/>
</g>
<defs>
<linearGradient id="paint0_linear_383_1527" x1="167.95" y1="10.54" x2="19.89" y2="158.61" gradientUnits="userSpaceOnUse">
<stop stop-color="#EEBE47"/>
<stop offset="0.12" stop-color="#F8DB77"/>
<stop offset="0.21" stop-color="#FFEE96"/>
<stop offset="0.45" stop-color="#A2621E"/>
<stop offset="0.67" stop-color="#EEA54C"/>
<stop offset="1" stop-color="#EEBE47"/>
</linearGradient>
<linearGradient id="paint1_linear_383_1527" x1="30.4699" y1="29.12" x2="169.7" y2="168.35" gradientUnits="userSpaceOnUse">
<stop stop-color="#EEBE47"/>
<stop offset="0.12" stop-color="#F8DB77"/>
<stop offset="0.21" stop-color="#FFEE96"/>
<stop offset="0.45" stop-color="#A2621E"/>
<stop offset="0.67" stop-color="#EEA54C"/>
<stop offset="1" stop-color="#EEBE47"/>
</linearGradient>
<radialGradient id="paint2_radial_383_1527" cx="0" cy="0" r="1" gradientUnits="userSpaceOnUse" gradientTransform="translate(141.333 150.841) rotate(180) scale(139.75 139.75)">
<stop stop-color="#304053"/>
<stop offset="0.23" stop-color="#2C3C4F"/>
<stop offset="0.52" stop-color="#0D1D30"/>
<stop offset="1" stop-color="#060D29"/>
</radialGradient>
<radialGradient id="paint3_radial_383_1527" cx="0" cy="0" r="1" gradientUnits="userSpaceOnUse" gradientTransform="translate(42.8833 31.65) scale(127.76 127.76)">
<stop stop-color="#304053"/>
<stop offset="0.23" stop-color="#2C3C4F"/>
<stop offset="0.52" stop-color="#0D1D30"/>
<stop offset="1" stop-color="#060D29"/>
</radialGradient>
<linearGradient id="paint4_linear_383_1527" x1="38.5146" y1="37.1582" x2="166.195" y2="164.838" gradientUnits="userSpaceOnUse">
<stop stop-color="#EEBE47"/>
<stop offset="0.12" stop-color="#F8DB77"/>
<stop offset="0.21" stop-color="#FFEE96"/>
<stop offset="0.45" stop-color="#A2621E"/>
<stop offset="0.67" stop-color="#EEA54C"/>
<stop offset="1" stop-color="#EEBE47"/>
</linearGradient>
<linearGradient id="paint5_linear_383_1527" x1="43.12" y1="41.77" x2="136.72" y2="135.37" gradientUnits="userSpaceOnUse">
<stop stop-color="#EEBE47"/>
<stop offset="0.12" stop-color="#F8DB77"/>
<stop offset="0.21" stop-color="#FFEE96"/>
<stop offset="0.45" stop-color="#A2621E"/>
<stop offset="0.67" stop-color="#EEA54C"/>
<stop offset="1" stop-color="#EEBE47"/>
</linearGradient>
<radialGradient id="paint6_radial_383_1527" cx="0" cy="0" r="1" gradientUnits="userSpaceOnUse" gradientTransform="translate(44.01 26.15) scale(208.9 208.9)">
<stop stop-color="#FFF1D1"/>
<stop offset="0.05" stop-color="#FFC94C"/>
<stop offset="0.14" stop-color="#A2621E"/>
<stop offset="0.16" stop-color="#965B1C"/>
<stop offset="0.25" stop-color="#6E4314"/>
<stop offset="0.34" stop-color="#4C2E0E"/>
<stop offset="0.44" stop-color="#301D09"/>
<stop offset="0.55" stop-color="#1B1005"/>
<stop offset="0.66" stop-color="#0C0702"/>
<stop offset="0.8" stop-color="#030201"/>
<stop offset="1"/>
</radialGradient>
<linearGradient id="paint7_linear_383_1527" x1="24.14" y1="24.32" x2="152.92" y2="141.16" gradientUnits="userSpaceOnUse">
<stop stop-color="#EEBE47"/>
<stop offset="0.12" stop-color="#F8DB77"/>
<stop offset="0.21" stop-color="#FFEE96"/>
<stop offset="0.45" stop-color="#A2621E"/>
<stop offset="0.67" stop-color="#EEA54C"/>
<stop offset="1" stop-color="#EEBE47"/>
</linearGradient>
<linearGradient id="paint8_linear_383_1527" x1="56.7801" y1="-11.67" x2="185.56" y2="105.18" gradientUnits="userSpaceOnUse">
<stop stop-color="#EEBE47"/>
<stop offset="0.12" stop-color="#F8DB77"/>
<stop offset="0.21" stop-color="#FFEE96"/>
<stop offset="0.45" stop-color="#A2621E"/>
<stop offset="0.67" stop-color="#EEA54C"/>
<stop offset="1" stop-color="#EEBE47"/>
</linearGradient>
<linearGradient id="paint9_linear_383_1527" x1="-1.25995" y1="35.3197" x2="127.51" y2="152.16" gradientUnits="userSpaceOnUse">
<stop stop-color="#EEBE47"/>
<stop offset="0.12" stop-color="#F8DB77"/>
<stop offset="0.21" stop-color="#FFEE96"/>
<stop offset="0.45" stop-color="#A2621E"/>
<stop offset="0.67" stop-color="#EEA54C"/>
<stop offset="1" stop-color="#EEBE47"/>
</linearGradient>
<linearGradient id="paint10_linear_383_1527" x1="-3.92004" y1="38.2397" x2="124.86" y2="155.08" gradientUnits="userSpaceOnUse">
<stop stop-color="#EEBE47"/>
<stop offset="0.12" stop-color="#F8DB77"/>
<stop offset="0.21" stop-color="#FFEE96"/>
<stop offset="0.45" stop-color="#A2621E"/>
<stop offset="0.67" stop-color="#EEA54C"/>
<stop offset="1" stop-color="#EEBE47"/>
</linearGradient>
<radialGradient id="paint11_radial_383_1527" cx="0" cy="0" r="1" gradientUnits="userSpaceOnUse" gradientTransform="translate(55.4799 50.48) scale(96.27 96.27)">
<stop stop-color="#304053"/>
<stop offset="0.23" stop-color="#2C3C4F"/>
<stop offset="0.52" stop-color="#0D1D30"/>
<stop offset="1" stop-color="#060D29"/>
</radialGradient>
<radialGradient id="paint12_radial_383_1527" cx="0" cy="0" r="1" gradientUnits="userSpaceOnUse" gradientTransform="translate(55.48 50.48) scale(96.27 96.27)">
<stop stop-color="#304053"/>
<stop offset="0.23" stop-color="#2C3C4F"/>
<stop offset="0.52" stop-color="#0D1D30"/>
<stop offset="1" stop-color="#060D29"/>
</radialGradient>
<radialGradient id="paint13_radial_383_1527" cx="0" cy="0" r="1" gradientUnits="userSpaceOnUse" gradientTransform="translate(55.48 33.5006) scale(96.25 96.2494)">
<stop stop-color="#304053"/>
<stop offset="0.23" stop-color="#2C3C4F"/>
<stop offset="0.52" stop-color="#0D1D30"/>
<stop offset="1" stop-color="#060D29"/>
</radialGradient>
<radialGradient id="paint14_radial_383_1527" cx="0" cy="0" r="1" gradientUnits="userSpaceOnUse" gradientTransform="translate(55.4799 33.4996) scale(96.25 96.2504)">
<stop stop-color="#304053"/>
<stop offset="0.23" stop-color="#2C3C4F"/>
<stop offset="0.52" stop-color="#0D1D30"/>
<stop offset="1" stop-color="#060D29"/>
</radialGradient>
<clipPath id="clip0_383_1527">
<rect width="182" height="177" fill="white"/>
</clipPath>
</defs>
</svg>
