<svg width="155" height="209" viewBox="0 0 155 209" fill="none" xmlns="http://www.w3.org/2000/svg">
<g clip-path="url(#clip0_383_1703)">
<g clip-path="url(#clip1_383_1703)">
<path d="M131.973 30.5411C108.698 25.1402 115.642 0 78.1565 0H77.5135C39.5782 0 46.5866 25.1402 23.3111 30.5411C0.0354995 35.9421 -4.65819 65.1973 7.42967 91.2376C26.7188 130.909 59.5103 172.188 77.2563 172.188H78.1565C95.9025 172.188 128.951 130.909 147.983 91.2376C159.942 65.1973 155.313 35.9421 131.973 30.5411Z" fill="#7EBC43"/>
<path d="M122.779 39.9285C103.49 35.492 109.212 14.5311 77.7708 14.5311H77.2564C45.9437 14.5311 51.5375 35.492 32.2484 40.25C12.9593 45.008 8.97284 69.0551 19.389 90.7232C35.1418 123.643 62.5966 157.978 77.2564 157.978H78.1565C92.9449 157.978 120.4 123.643 136.024 90.7232C146.054 68.7336 142.068 44.4293 122.779 39.9285Z" fill="#81A100"/>
<path d="M122.329 40.6357C103.039 36.1992 108.955 15.6241 78.1564 15.6241H77.642C46.7794 15.6241 52.4376 36.1992 33.1484 40.6357C13.8593 45.0722 10.2586 68.9908 20.289 90.3374C35.8489 122.486 62.918 156.563 77.4491 156.563H78.1564C92.6876 156.563 119.692 122.743 135.317 90.3374C145.283 68.9908 141.36 45.0079 122.329 40.6357Z" fill="#FAFFE3"/>
<path opacity="0.3" d="M122.071 40.6357C102.782 36.1992 108.698 15.6241 77.8993 15.6241H77.385C46.5866 15.6241 52.4377 36.1992 33.1485 40.6357C30.1604 41.3321 27.3541 42.6551 24.9156 44.5173C22.477 46.3795 20.4618 48.7383 19.0032 51.4376C21.8698 48.6512 25.4533 46.7147 29.355 45.8438C48.6441 41.4073 42.7288 20.8322 73.5271 20.8322H74.1058C104.904 20.8322 99.246 41.4073 118.278 45.8438C137.31 50.2803 141.232 74.1988 131.137 95.5455C124.627 108.887 116.877 121.588 107.99 133.481C118.508 120.234 127.542 105.874 134.931 90.6589C145.026 68.9908 141.103 45.0079 122.071 40.6357Z" fill="white"/>
<path d="M93.0735 73.8774H62.1465C59.6608 73.8774 57.6458 75.8925 57.6458 78.3782V104.676C57.6458 107.161 59.6608 109.177 62.1465 109.177H93.0735C95.5592 109.177 97.5743 107.161 97.5743 104.676V78.3782C97.5743 75.8925 95.5592 73.8774 93.0735 73.8774Z" fill="#FFCC00"/>
<path d="M67.6761 70.3411V64.8115C67.6333 62.4594 68.403 60.1645 69.8554 58.3138C71.3078 56.4632 73.354 55.1701 75.6489 54.6526C77.087 54.3589 78.5723 54.3866 79.9984 54.7335C81.4246 55.0804 82.7566 55.738 83.8991 56.6594C85.0416 57.5808 85.9665 58.7432 86.6077 60.0635C87.2489 61.3839 87.5905 62.8295 87.6082 64.2972V70.2125C87.6082 70.4512 87.7031 70.6802 87.8719 70.849C88.0407 71.0178 88.2696 71.1127 88.5084 71.1127H92.109C92.3478 71.1127 92.5767 71.0178 92.7455 70.849C92.9143 70.6802 93.0092 70.4512 93.0092 70.2125V64.9401C93.0736 61.0395 91.7 57.2516 89.1504 54.2988C86.6009 51.3461 83.0537 49.435 79.1853 48.9302C77.0435 48.7239 74.8822 48.9679 72.8402 49.6465C70.7983 50.325 68.9208 51.4231 67.3284 52.8702C65.736 54.3173 64.4638 56.0815 63.5935 58.0494C62.7233 60.0173 62.2742 62.1454 62.2751 64.2972V70.2125C62.2751 70.3307 62.2984 70.4478 62.3437 70.557C62.3889 70.6662 62.4552 70.7654 62.5388 70.849C62.6224 70.9326 62.7216 70.9989 62.8308 71.0441C62.94 71.0894 63.0571 71.1127 63.1753 71.1127H66.7759C66.994 71.1149 67.2054 71.0379 67.371 70.896C67.5366 70.7541 67.645 70.5569 67.6761 70.3411V70.3411Z" fill="#7EBC43"/>
<path d="M81.9501 93.2951C81.9501 92.2208 81.5233 91.1905 80.7636 90.4308C80.004 89.6712 78.9737 89.2444 77.8994 89.2444C76.825 89.2444 75.7947 89.6712 75.0351 90.4308C74.2754 91.1905 73.8486 92.2208 73.8486 93.2951C73.8482 93.9259 74 94.5475 74.291 95.1072C74.582 95.6668 75.0037 96.148 75.5204 96.51V101.075C75.5204 101.535 75.7033 101.977 76.0288 102.303C76.3544 102.628 76.796 102.811 77.2564 102.811H78.5423C79.0027 102.811 79.4443 102.628 79.7699 102.303C80.0954 101.977 80.2783 101.535 80.2783 101.075V96.4457C80.7755 96.0796 81.1839 95.6063 81.4733 95.0609C81.7627 94.5155 81.9256 93.912 81.9501 93.2951Z" fill="#FAFFE3"/>
</g>
<path d="M30.9597 208.27C29.5221 208.27 28.4349 207.865 27.6982 207.057C26.9614 206.23 26.593 205.053 26.593 203.525V202.447H29.3963V203.741C29.3963 204.963 29.9085 205.574 30.9327 205.574C31.4359 205.574 31.8133 205.43 32.0648 205.143C32.3344 204.837 32.4692 204.352 32.4692 203.687C32.4692 202.897 32.2895 202.205 31.9301 201.612C31.5707 201.001 30.9058 200.273 29.9354 199.428C28.7135 198.35 27.8599 197.38 27.3747 196.517C26.8895 195.637 26.6469 194.648 26.6469 193.552C26.6469 192.061 27.0243 190.911 27.779 190.102C28.5338 189.275 29.6299 188.862 31.0675 188.862C32.4871 188.862 33.5563 189.275 34.2751 190.102C35.0119 190.911 35.3803 192.079 35.3803 193.606V194.388H32.577V193.417C32.577 192.771 32.4512 192.303 32.1996 192.016C31.948 191.71 31.5797 191.558 31.0945 191.558C30.1061 191.558 29.6119 192.16 29.6119 193.364C29.6119 194.046 29.7916 194.684 30.151 195.277C30.5284 195.87 31.2023 196.589 32.1727 197.434C33.4126 198.512 34.2662 199.491 34.7334 200.372C35.2006 201.252 35.4342 202.286 35.4342 203.472C35.4342 205.017 35.0478 206.203 34.2751 207.03C33.5204 207.856 32.4153 208.27 30.9597 208.27ZM37.1342 189.132H40.0993V208H37.1342V189.132ZM44.638 191.827H41.5382V189.132H50.7029V191.827H47.603V208H44.638V191.827ZM52.1384 189.132H60.2249V191.827H55.1034V196.814H59.1736V199.509H55.1034V205.305H60.2249V208H52.1384V189.132ZM70.1021 208.27C68.6645 208.27 67.5774 207.865 66.8406 207.057C66.1038 206.23 65.7354 205.053 65.7354 203.525V202.447H68.5388V203.741C68.5388 204.963 69.0509 205.574 70.0752 205.574C70.5783 205.574 70.9557 205.43 71.2073 205.143C71.4768 204.837 71.6116 204.352 71.6116 203.687C71.6116 202.897 71.4319 202.205 71.0725 201.612C70.7131 201.001 70.0482 200.273 69.0778 199.428C67.8559 198.35 67.0023 197.38 66.5171 196.517C66.032 195.637 65.7894 194.648 65.7894 193.552C65.7894 192.061 66.1667 190.911 66.9215 190.102C67.6762 189.275 68.7724 188.862 70.21 188.862C71.6296 188.862 72.6988 189.275 73.4176 190.102C74.1543 190.911 74.5227 192.079 74.5227 193.606V194.388H71.7194V193.417C71.7194 192.771 71.5936 192.303 71.3421 192.016C71.0905 191.71 70.7221 191.558 70.2369 191.558C69.2486 191.558 68.7544 192.16 68.7544 193.364C68.7544 194.046 68.9341 194.684 69.2935 195.277C69.6709 195.87 70.3447 196.589 71.3151 197.434C72.555 198.512 73.4086 199.491 73.8758 200.372C74.343 201.252 74.5766 202.286 74.5766 203.472C74.5766 205.017 74.1903 206.203 73.4176 207.03C72.6628 207.856 71.5577 208.27 70.1021 208.27ZM76.2767 189.132H84.3631V191.827H79.2417V196.814H83.3119V199.509H79.2417V205.305H84.3631V208H76.2767V189.132ZM90.2738 208.27C88.8362 208.27 87.7401 207.865 86.9853 207.057C86.2306 206.23 85.8532 205.053 85.8532 203.525V193.606C85.8532 192.079 86.2306 190.911 86.9853 190.102C87.7401 189.275 88.8362 188.862 90.2738 188.862C91.7114 188.862 92.8076 189.275 93.5623 190.102C94.3171 190.911 94.6944 192.079 94.6944 193.606V195.223H91.8911V193.417C91.8911 192.178 91.379 191.558 90.3547 191.558C89.3304 191.558 88.8183 192.178 88.8183 193.417V203.741C88.8183 204.963 89.3304 205.574 90.3547 205.574C91.379 205.574 91.8911 204.963 91.8911 203.741V200.048H90.4086V197.353H94.6944V203.525C94.6944 205.053 94.3171 206.23 93.5623 207.057C92.8076 207.865 91.7114 208.27 90.2738 208.27ZM100.911 208.27C99.4733 208.27 98.3771 207.865 97.6224 207.057C96.8677 206.23 96.4903 205.053 96.4903 203.525V189.132H99.4553V203.741C99.4553 204.388 99.5811 204.855 99.8327 205.143C100.102 205.43 100.48 205.574 100.965 205.574C101.45 205.574 101.818 205.43 102.07 205.143C102.339 204.855 102.474 204.388 102.474 203.741V189.132H105.331V203.525C105.331 205.053 104.954 206.23 104.199 207.057C103.445 207.865 102.348 208.27 100.911 208.27ZM107.443 189.132H111.837C113.364 189.132 114.478 189.491 115.179 190.21C115.88 190.911 116.231 191.998 116.231 193.471V194.63C116.231 196.589 115.584 197.829 114.29 198.35V198.404C115.009 198.62 115.512 199.06 115.799 199.725C116.105 200.39 116.257 201.279 116.257 202.393V205.709C116.257 206.248 116.275 206.688 116.311 207.03C116.347 207.353 116.437 207.677 116.581 208H113.562C113.454 207.695 113.382 207.407 113.346 207.137C113.31 206.868 113.292 206.383 113.292 205.682V202.232C113.292 201.369 113.149 200.767 112.861 200.426C112.592 200.084 112.115 199.914 111.433 199.914H110.408V208H107.443V189.132ZM111.486 197.218C112.079 197.218 112.52 197.065 112.807 196.76C113.113 196.454 113.265 195.942 113.265 195.223V193.768C113.265 193.085 113.14 192.591 112.888 192.285C112.655 191.98 112.277 191.827 111.756 191.827H110.408V197.218H111.486ZM122.6 208.27C121.145 208.27 120.031 207.856 119.258 207.03C118.485 206.203 118.099 205.035 118.099 203.525V193.606C118.099 192.097 118.485 190.929 119.258 190.102C120.031 189.275 121.145 188.862 122.6 188.862C124.056 188.862 125.17 189.275 125.943 190.102C126.716 190.929 127.102 192.097 127.102 193.606V203.525C127.102 205.035 126.716 206.203 125.943 207.03C125.17 207.856 124.056 208.27 122.6 208.27ZM122.6 205.574C123.625 205.574 124.137 204.954 124.137 203.714V193.417C124.137 192.178 123.625 191.558 122.6 191.558C121.576 191.558 121.064 192.178 121.064 193.417V203.714C121.064 204.954 121.576 205.574 122.6 205.574Z" fill="#7EBC43"/>
</g>
<defs>
<clipPath id="clip0_383_1703">
<rect width="155" height="209" fill="white"/>
</clipPath>
<clipPath id="clip1_383_1703">
<rect width="154" height="172" fill="white" transform="translate(1)"/>
</clipPath>
</defs>
</svg>
