<svg width="108" height="40" viewBox="0 0 108 40" fill="none" xmlns="http://www.w3.org/2000/svg">
<g clip-path="url(#clip0_373_739)">
<path d="M89.2713 0H19.1682C17.8273 0 16.629 1.1397 16.5011 2.54505C16.4654 2.86595 16.495 3.19077 16.5882 3.49993C16.6813 3.80909 16.8361 4.0962 17.0431 4.34396C17.2472 4.58026 17.5003 4.76925 17.7848 4.89777C18.0693 5.02629 18.3785 5.09125 18.6907 5.08814H22.6752C24.0142 5.08814 24.9927 6.22784 24.8609 7.63221C24.793 8.31781 24.4811 8.95621 23.9819 9.43112C23.5042 9.89954 22.8647 10.1663 22.1957 10.1763H10.033C9.36316 10.1857 8.72271 10.4529 8.24484 10.9224C7.7455 11.3972 7.43354 12.0356 7.36589 12.7213C7.23405 14.1267 8.21359 15.2605 9.55545 15.2605H22.5014C22.831 15.2571 23.1569 15.3299 23.4537 15.4732C23.7505 15.6165 24.0102 15.8265 24.2124 16.0867C24.5864 16.5767 24.7571 17.192 24.689 17.8046C24.6211 18.4902 24.3092 19.1286 23.8101 19.6035C23.3323 20.0719 22.6928 20.3387 22.0238 20.3486H14.1914C14.0509 20.3485 13.9106 20.3612 13.7725 20.3867C13.2561 20.4822 12.7796 20.7286 12.4032 21.0948C11.903 21.5685 11.5909 22.207 11.5243 22.8927C11.4266 23.9758 11.9813 24.9026 12.8583 25.2678C13.129 25.3808 13.4196 25.4382 13.7129 25.4368H17.046C18.386 25.4368 19.3675 26.5755 19.2356 27.9809C19.1685 28.6664 18.8564 29.3048 18.3567 29.7788C17.8796 30.2482 17.2396 30.5151 16.5704 30.524H10.867C10.198 30.5354 9.55905 30.804 9.08277 31.274C8.58336 31.7487 8.27139 32.3872 8.20382 33.0729C8.07198 34.4782 9.0525 35.618 10.3944 35.618H27.9733C28.0153 35.618 28.0564 35.618 28.0983 35.618H83.727L85.2242 27.6097H88.0202L90.995 11.7037L89.2713 0ZM95.8331 31.2281C93.5195 31.2281 91.2762 33.1921 90.8231 35.614C90.3699 38.036 91.8788 40 94.1934 40C96.5079 40 98.7502 38.036 99.2034 35.614C99.6565 33.1921 98.1496 31.2281 95.8331 31.2281ZM107.466 32.107H106.646L107.001 30.2134C110.07 13.8063 100.98 13.5134 100.98 13.5134H92.4433L89.4724 29.3862H86.9577L85.7935 35.614H88.6863C89.3699 31.9566 92.7578 28.9916 96.2521 28.9916C99.7464 28.9916 102.026 31.9566 101.34 35.614H106.809C106.96 35.6046 107.103 35.5456 107.217 35.4461C107.33 35.3466 107.408 35.2123 107.437 35.0642L107.887 32.6549C107.945 32.3512 107.755 32.1051 107.466 32.1051V32.107ZM95.8331 31.2281C93.5195 31.2281 91.2762 33.1921 90.8231 35.614C90.3699 38.036 91.8788 40 94.1934 40C96.5079 40 98.7502 38.036 99.2034 35.614C99.6565 33.1921 98.1496 31.2281 95.8331 31.2281ZM107.466 32.107H106.646L107.001 30.2134C110.07 13.8063 100.98 13.5134 100.98 13.5134H92.4433L89.4724 29.3862H86.9577L85.7935 35.614H88.6863C89.3699 31.9566 92.7578 28.9916 96.2521 28.9916C99.7464 28.9916 102.026 31.9566 101.34 35.614H106.809C106.96 35.6046 107.103 35.5456 107.217 35.4461C107.33 35.3466 107.408 35.2123 107.437 35.0642L107.887 32.6549C107.945 32.3512 107.755 32.1051 107.466 32.1051V32.107ZM6.97817 20.3516H2.68109C2.01165 20.3602 1.37125 20.6264 0.892916 21.0948C0.39351 21.5695 0.0815333 22.208 0.0139669 22.8937C-0.117876 24.299 0.861665 25.4329 2.20255 25.4329H6.49964C7.84052 25.4329 9.03882 24.2951 9.16774 22.8937C9.29665 21.4923 8.31906 20.3516 6.97817 20.3516ZM107.466 32.1051H106.646L107.001 30.2114C110.07 13.8044 100.98 13.5114 100.98 13.5114H92.4433L89.4724 29.3862H86.9577L85.7935 35.614H88.6863C89.3699 31.9566 92.7578 28.9916 96.2521 28.9916C99.7464 28.9916 102.026 31.9566 101.34 35.614H106.809C106.96 35.6046 107.103 35.5456 107.217 35.4461C107.33 35.3466 107.408 35.2123 107.437 35.0642L107.887 32.6549C107.945 32.3512 107.755 32.1051 107.466 32.1051ZM11.577 0H7.27995C5.93809 0 4.74076 1.13873 4.61282 2.53919C4.48489 3.93965 5.45759 5.08814 6.79848 5.08814H11.0956C11.7649 5.07835 12.4048 4.81155 12.8828 4.34299C13.3858 3.86793 13.7009 3.22759 13.7705 2.53919C13.8975 1.13873 12.9179 0 11.577 0ZM95.8331 31.2281C93.5195 31.2281 91.2762 33.1921 90.8231 35.614C90.3699 38.036 91.8788 40 94.1934 40C96.5079 40 98.7502 38.036 99.2034 35.614C99.6565 33.1921 98.1496 31.2281 95.8331 31.2281Z" fill="#011D63"/>
<path d="M43.3263 5.38338L42.9291 7.61735H38.1964L37.7662 10.1161H41.3074L40.9103 12.2673H37.369L36.5416 17H33.712L35.7639 5.38338H43.3263ZM49.5628 5.38338C50.7652 5.38338 51.6809 5.65918 52.3097 6.21078C52.9385 6.75134 53.2529 7.45738 53.2529 8.32891C53.2529 8.58264 53.2309 8.81983 53.1867 9.04047C53.0544 9.8127 52.7179 10.5022 52.1773 11.109C51.6368 11.7157 50.9142 12.146 50.0096 12.3997L51.8795 17H48.6857L47.0475 12.6148H46.369L45.5913 17H42.7616L44.8135 5.38338H49.5628ZM50.2909 9.1563C50.3129 8.97979 50.324 8.86395 50.324 8.80879C50.324 8.45577 50.2081 8.18549 49.9765 7.99795C49.7558 7.79937 49.4249 7.70009 48.9836 7.70009H47.2295L46.7165 10.6125H48.4706C48.9891 10.6125 49.3973 10.4856 49.6951 10.2319C50.004 9.97818 50.2026 9.61964 50.2909 9.1563ZM58.041 7.61735L57.6273 10.0333H61.4167L61.0361 12.168H57.2467L56.7833 14.766H61.0692L60.6721 17H53.5565L55.6084 5.38338H62.724L62.3269 7.61735H58.041ZM72.9178 5.38338L72.5372 7.61735H69.4427L67.7879 17H64.9582L66.613 7.61735H63.5351L63.9323 5.38338H72.9178ZM76.7705 7.61735L76.3568 10.0333H80.1462L79.7656 12.168H75.9762L75.5128 14.766H79.7987L79.4016 17H72.286L74.3379 5.38338H81.4535L81.0564 7.61735H76.7705Z" fill="white"/>
<path d="M26.1271 26.863C26.2969 25.882 26.66 25.0095 27.2165 24.2455C27.7825 23.472 28.4852 22.873 29.3247 22.4485C30.1643 22.0146 31.0745 21.7977 32.0555 21.7977C33.244 21.7977 34.1967 22.0854 34.9136 22.6608C35.6399 23.2362 36.0361 24.0332 36.1021 25.052H33.4421C33.3195 24.7218 33.1025 24.4718 32.7913 24.3021C32.4894 24.1228 32.1168 24.0332 31.6735 24.0332C30.8906 24.0332 30.2161 24.2926 29.6502 24.8114C29.0936 25.3208 28.7399 26.0047 28.589 26.863C28.5418 27.146 28.5183 27.3913 28.5183 27.5988C28.5183 28.2968 28.7211 28.8345 29.1267 29.2118C29.5323 29.5891 30.1077 29.7777 30.8528 29.7777C31.4565 29.7777 31.9895 29.6268 32.4517 29.325C32.9139 29.0137 33.2865 28.5751 33.5695 28.0091H30.5133L30.8104 26.2405H36.0738L35.6777 28.4902C35.3947 29.0939 34.9891 29.6551 34.4609 30.1739C33.9421 30.6927 33.3242 31.1125 32.6073 31.4332C31.8904 31.7539 31.117 31.9143 30.2869 31.9143C29.4285 31.9143 28.6739 31.7492 28.023 31.419C27.3816 31.0795 26.8864 30.6078 26.5374 30.0041C26.1978 29.4004 26.028 28.6977 26.028 27.8959C26.028 27.6224 26.061 27.2781 26.1271 26.863ZM42.2389 21.9109C43.267 21.9109 44.0499 22.1467 44.5876 22.6183C45.1253 23.0805 45.3941 23.6842 45.3941 24.4294C45.3941 24.6464 45.3752 24.8492 45.3375 25.0378C45.2243 25.6981 44.9366 26.2876 44.4744 26.8064C44.0122 27.3252 43.3944 27.6931 42.6209 27.9101L44.2197 31.8435H41.489L40.0882 28.094H39.5081L38.8431 31.8435H36.4236L38.1781 21.9109H42.2389ZM42.8614 25.1369C42.8803 24.9859 42.8897 24.8869 42.8897 24.8397C42.8897 24.5379 42.7907 24.3068 42.5926 24.1464C42.4039 23.9766 42.1209 23.8917 41.7436 23.8917H40.2438L39.8052 26.382H41.305C41.7484 26.382 42.0974 26.2735 42.352 26.0565C42.6162 25.8396 42.786 25.533 42.8614 25.1369ZM52.1481 30.089H48.441L47.5355 31.8435H45.0028L50.3511 21.9109H53.1526L54.992 31.8435H52.431L52.1481 30.089ZM51.8651 28.2496L51.285 24.5709L49.389 28.2496H51.8651ZM53.761 19.9159L50.0823 21.3449L50.3794 19.6753L54.0865 18.034L53.761 19.9159ZM64.9856 21.9109L64.6601 23.821H62.0143L60.5994 31.8435H58.1799L59.5948 23.821H56.963L57.3026 21.9109H64.9856ZM68.6193 21.9109L66.8648 31.8435H64.4454L66.1998 21.9109H68.6193ZM72.5658 31.9425C71.4905 31.9425 70.6132 31.7114 69.9341 31.2492C69.2644 30.7776 68.9295 30.1126 68.9295 29.2542C68.9295 29.1693 68.9389 29.042 68.9578 28.8722H71.4763C71.448 29.2306 71.5329 29.5136 71.731 29.7211C71.9291 29.9287 72.2309 30.0324 72.6365 30.0324C73.0044 30.0324 73.2921 29.9522 73.4996 29.7919C73.7166 29.6315 73.8251 29.4052 73.8251 29.1127C73.8251 28.8109 73.6883 28.5656 73.4147 28.377C73.1506 28.1883 72.7356 27.9761 72.1696 27.7403C71.6225 27.5139 71.1745 27.3017 70.8255 27.1036C70.4859 26.8961 70.1888 26.6178 69.9341 26.2688C69.6794 25.9198 69.5521 25.4811 69.5521 24.9529C69.5426 24.3021 69.703 23.7361 70.0331 23.255C70.3633 22.774 70.8208 22.4061 71.4056 22.1514C71.9904 21.8967 72.6601 21.7694 73.4147 21.7694C74.0939 21.7694 74.6976 21.8779 75.2258 22.0948C75.7541 22.3023 76.1644 22.6089 76.4568 23.0145C76.7492 23.4107 76.8954 23.8823 76.8954 24.4294C76.8954 24.5709 76.8907 24.6747 76.8813 24.7407H74.3061C74.3156 24.7029 74.3203 24.6464 74.3203 24.5709C74.3203 24.3068 74.226 24.0945 74.0373 23.9342C73.8581 23.7644 73.6081 23.6795 73.2874 23.6795C72.9478 23.6795 72.6696 23.7644 72.4526 23.9342C72.2451 24.0945 72.1413 24.3162 72.1413 24.5992C72.1413 24.8822 72.2734 25.1227 72.5375 25.3208C72.8016 25.5094 73.2119 25.7311 73.7685 25.9858C74.325 26.2405 74.7778 26.4763 75.1268 26.6933C75.4852 26.9102 75.7918 27.2026 76.0465 27.5705C76.3012 27.9289 76.4285 28.3723 76.4285 28.9005C76.4285 29.4853 76.2729 30.0088 75.9616 30.471C75.6503 30.9333 75.2022 31.2964 74.6174 31.5605C74.0326 31.8152 73.3487 31.9425 72.5658 31.9425Z" fill="white"/>
</g>
<defs>
<clipPath id="clip0_373_739">
<rect width="107.898" height="40" fill="white"/>
</clipPath>
</defs>
</svg>
