<svg width="14" height="14" viewBox="0 0 14 14" fill="none" xmlns="http://www.w3.org/2000/svg">
<g clip-path="url(#clip0_374_933)">
<path d="M13.5043 6.98779C13.5043 10.5861 10.5872 13.5032 6.98888 13.5032C3.3906 13.5032 0.473511 10.5861 0.473511 6.98779C0.473511 3.3895 3.3906 0.472412 6.98888 0.472412C10.5872 0.472412 13.5043 3.3895 13.5043 6.98779Z" fill="#FEDB41"/>
<path d="M7.02886 9.62239C6.97491 9.61061 6.9193 9.60849 6.8644 9.61627C6.3102 9.55571 5.89125 9.08634 5.89337 8.52884C5.89337 8.26234 5.6773 8.04627 5.4108 8.04627C5.14431 8.04627 4.92823 8.26234 4.92823 8.52884C4.92493 9.4591 5.54794 10.2749 6.44592 10.5171V10.9992C6.44592 11.2657 6.66199 11.4817 6.92849 11.4817C7.19498 11.4817 7.41105 11.2657 7.41105 10.9992V10.5458C8.44452 10.3295 9.14717 9.36674 9.03831 8.31654C8.92968 7.26634 8.04466 6.46803 6.98881 6.4678C6.38371 6.4678 5.89337 5.97745 5.89337 5.37236C5.89337 4.7675 6.38371 4.27692 6.98881 4.27692C7.5939 4.27692 8.08425 4.7675 8.08425 5.37236C8.08425 5.63885 8.30032 5.85492 8.56681 5.85492C8.83331 5.85492 9.04938 5.63885 9.04938 5.37236C9.04797 4.39756 8.36488 3.5566 7.41105 3.35561V2.91616C7.41105 2.64967 7.19498 2.43359 6.92849 2.43359C6.66199 2.43359 6.44592 2.64967 6.44592 2.91616V3.38506C5.45015 3.65674 4.80924 4.62353 4.94638 5.64639C5.08375 6.66949 5.95675 7.43317 6.98881 7.43293C7.58919 7.42822 8.08165 7.90772 8.09249 8.50787C8.10357 9.10825 7.62925 9.60543 7.02886 9.62263V9.62239Z" fill="black"/>
<path d="M-0.00912476 6.98781C-0.00912476 10.8526 3.12403 13.9858 6.98882 13.9858C10.8536 13.9858 13.9868 10.8526 13.9868 6.98781C13.9868 3.12302 10.8536 -0.0101318 6.98882 -0.0101318C3.12592 -0.00565487 -0.00464779 3.12491 -0.00912476 6.98781ZM6.98882 0.955004C10.3206 0.955004 13.0216 3.65602 13.0216 6.98781C13.0216 10.3196 10.3206 13.0206 6.98882 13.0206C3.65702 13.0206 0.956011 10.3196 0.956011 6.98781C0.959781 3.65767 3.65867 0.958774 6.98882 0.955004Z" fill="black"/>
</g>
<defs>
<clipPath id="clip0_374_933">
<rect width="14" height="14" fill="white"/>
</clipPath>
</defs>
</svg>
