<svg width="1418" height="72" viewBox="0 0 1418 72" fill="none" xmlns="http://www.w3.org/2000/svg">
<path d="M6.27 55.5173H21.945C34.265 55.5173 42.57 47.5973 42.57 36.2673C42.57 24.9373 34.265 17.0173 21.945 17.0173H6.27V55.5173ZM10.34 51.9973V20.5373H21.725C31.955 20.5373 38.555 27.0273 38.555 36.2673C38.555 45.5073 31.955 51.9973 21.725 51.9973H10.34ZM83.2795 51.9973V37.6973H103.189V34.2323H83.2795V20.5373H105.609V17.0173H79.2095V55.5173H106.434V51.9973H83.2795ZM157.911 17.0173H143.501V55.5173H147.571V43.3623H157.911C167.701 43.3623 173.641 38.4123 173.641 30.2173C173.641 21.9673 167.701 17.0173 157.911 17.0173ZM157.801 39.7873H147.571V20.5373H157.801C165.501 20.5373 169.571 24.0573 169.571 30.2173C169.571 36.2673 165.501 39.7873 157.801 39.7873ZM227.309 55.8473C238.859 55.8473 247.494 47.5423 247.494 36.2673C247.494 24.9923 238.859 16.6873 227.309 16.6873C215.649 16.6873 207.069 25.0473 207.069 36.2673C207.069 47.4873 215.649 55.8473 227.309 55.8473ZM227.309 52.2173C218.014 52.2173 211.084 45.4523 211.084 36.2673C211.084 27.0823 218.014 20.3173 227.309 20.3173C236.549 20.3173 243.424 27.0823 243.424 36.2673C243.424 45.4523 236.549 52.2173 227.309 52.2173ZM284.117 55.5173H288.187V17.0173H284.117V55.5173ZM364.843 17.0173L348.288 45.5623L331.568 17.0173H328.213V55.5173H332.118V24.8823L347.243 50.6223H349.168L364.293 24.7173V55.5173H368.198V17.0173H364.843ZM412.313 51.9973V37.6973H432.223V34.2323H412.313V20.5373H434.643V17.0173H408.243V55.5173H435.468V51.9973H412.313ZM500.695 17.0173V48.2573L475.89 17.0173H472.535V55.5173H476.605V24.2773L501.355 55.5173H504.71V17.0173H500.695ZM552.256 55.5173H556.326V20.5373H569.856V17.0173H538.726V20.5373H552.256V55.5173ZM620.151 55.8473C631.701 55.8473 640.336 47.5423 640.336 36.2673C640.336 24.9923 631.701 16.6873 620.151 16.6873C608.491 16.6873 599.911 25.0473 599.911 36.2673C599.911 47.4873 608.491 55.8473 620.151 55.8473ZM620.151 52.2173C610.856 52.2173 603.926 45.4523 603.926 36.2673C603.926 27.0823 610.856 20.3173 620.151 20.3173C629.391 20.3173 636.266 27.0823 636.266 36.2673C636.266 45.4523 629.391 52.2173 620.151 52.2173ZM687.573 55.8473C697.418 55.8473 701.928 51.0073 701.928 45.3423C701.928 31.3173 678.223 37.6973 678.223 27.1373C678.223 23.2873 681.358 20.1523 688.398 20.1523C691.808 20.1523 695.658 21.1973 698.958 23.3423L700.333 20.0973C697.253 17.9523 692.743 16.6873 688.398 16.6873C678.608 16.6873 674.208 21.5823 674.208 27.2473C674.208 41.4923 697.913 35.0023 697.913 45.5623C697.913 49.3573 694.778 52.3823 687.573 52.3823C682.513 52.3823 677.618 50.4023 674.868 47.7073L673.273 50.8423C676.133 53.8123 681.798 55.8473 687.573 55.8473Z" fill="white"/>
<path d="M761.27 55.5173H776.945C789.265 55.5173 797.57 47.5973 797.57 36.2673C797.57 24.9373 789.265 17.0173 776.945 17.0173H761.27V55.5173ZM765.34 51.9973V20.5373H776.725C786.955 20.5373 793.555 27.0273 793.555 36.2673C793.555 45.5073 786.955 51.9973 776.725 51.9973H765.34ZM838.279 51.9973V37.6973H858.189V34.2323H838.279V20.5373H860.609V17.0173H834.209V55.5173H861.434V51.9973H838.279ZM912.911 17.0173H898.501V55.5173H902.571V43.3623H912.911C922.701 43.3623 928.641 38.4123 928.641 30.2173C928.641 21.9673 922.701 17.0173 912.911 17.0173ZM912.801 39.7873H902.571V20.5373H912.801C920.501 20.5373 924.571 24.0573 924.571 30.2173C924.571 36.2673 920.501 39.7873 912.801 39.7873ZM982.309 55.8473C993.859 55.8473 1002.49 47.5423 1002.49 36.2673C1002.49 24.9923 993.859 16.6873 982.309 16.6873C970.649 16.6873 962.069 25.0473 962.069 36.2673C962.069 47.4873 970.649 55.8473 982.309 55.8473ZM982.309 52.2173C973.014 52.2173 966.084 45.4523 966.084 36.2673C966.084 27.0823 973.014 20.3173 982.309 20.3173C991.549 20.3173 998.424 27.0823 998.424 36.2673C998.424 45.4523 991.549 52.2173 982.309 52.2173ZM1039.12 55.5173H1043.19V17.0173H1039.12V55.5173ZM1119.84 17.0173L1103.29 45.5623L1086.57 17.0173H1083.21V55.5173H1087.12V24.8823L1102.24 50.6223H1104.17L1119.29 24.7173V55.5173H1123.2V17.0173H1119.84ZM1167.31 51.9973V37.6973H1187.22V34.2323H1167.31V20.5373H1189.64V17.0173H1163.24V55.5173H1190.47V51.9973H1167.31ZM1255.69 17.0173V48.2573L1230.89 17.0173H1227.53V55.5173H1231.6V24.2773L1256.35 55.5173H1259.71V17.0173H1255.69ZM1307.26 55.5173H1311.33V20.5373H1324.86V17.0173H1293.73V20.5373H1307.26V55.5173ZM1375.15 55.8473C1386.7 55.8473 1395.34 47.5423 1395.34 36.2673C1395.34 24.9923 1386.7 16.6873 1375.15 16.6873C1363.49 16.6873 1354.91 25.0473 1354.91 36.2673C1354.91 47.4873 1363.49 55.8473 1375.15 55.8473ZM1375.15 52.2173C1365.86 52.2173 1358.93 45.4523 1358.93 36.2673C1358.93 27.0823 1365.86 20.3173 1375.15 20.3173C1384.39 20.3173 1391.27 27.0823 1391.27 36.2673C1391.27 45.4523 1384.39 52.2173 1375.15 52.2173ZM1442.57 55.8473C1452.42 55.8473 1456.93 51.0073 1456.93 45.3423C1456.93 31.3173 1433.22 37.6973 1433.22 27.1373C1433.22 23.2873 1436.36 20.1523 1443.4 20.1523C1446.81 20.1523 1450.66 21.1973 1453.96 23.3423L1455.33 20.0973C1452.25 17.9523 1447.74 16.6873 1443.4 16.6873C1433.61 16.6873 1429.21 21.5823 1429.21 27.2473C1429.21 41.4923 1452.91 35.0023 1452.91 45.5623C1452.91 49.3573 1449.78 52.3823 1442.57 52.3823C1437.51 52.3823 1432.62 50.4023 1429.87 47.7073L1428.27 50.8423C1431.13 53.8123 1436.8 55.8473 1442.57 55.8473Z" fill="#313131"/>
</svg>
