<svg width="254" height="16" viewBox="0 0 254 16" fill="none" xmlns="http://www.w3.org/2000/svg">
<path d="M0.28 15H5.98C10.46 15 13.48 12.12 13.48 8C13.48 3.88 10.46 0.999999 5.98 0.999999H0.28V15ZM1.76 13.72V2.28H5.9C9.62 2.28 12.02 4.64 12.02 8C12.02 11.36 9.62 13.72 5.9 13.72H1.76ZM28.2834 13.72V8.52H35.5234V7.26H28.2834V2.28H36.4034V0.999999H26.8034V15H36.7034V13.72H28.2834ZM55.4223 0.999999H50.1823V15H51.6623V10.58H55.4223C58.9823 10.58 61.1423 8.78 61.1423 5.8C61.1423 2.8 58.9823 0.999999 55.4223 0.999999ZM55.3823 9.28H51.6623V2.28H55.3823C58.1823 2.28 59.6623 3.56 59.6623 5.8C59.6623 8 58.1823 9.28 55.3823 9.28ZM80.6578 15.12C84.8578 15.12 87.9978 12.1 87.9978 8C87.9978 3.9 84.8578 0.879999 80.6578 0.879999C76.4178 0.879999 73.2978 3.92 73.2978 8C73.2978 12.08 76.4178 15.12 80.6578 15.12ZM80.6578 13.8C77.2778 13.8 74.7578 11.34 74.7578 8C74.7578 4.66 77.2778 2.2 80.6578 2.2C84.0178 2.2 86.5178 4.66 86.5178 8C86.5178 11.34 84.0178 13.8 80.6578 13.8ZM101.315 15H102.795V0.999999H101.315V15ZM130.67 0.999999L124.65 11.38L118.57 0.999999H117.35V15H118.77V3.86L124.27 13.22H124.97L130.47 3.8V15H131.89V0.999999H130.67ZM147.932 13.72V8.52H155.172V7.26H147.932V2.28H156.052V0.999999H146.452V15H156.352V13.72H147.932ZM180.071 0.999999V12.36L171.051 0.999999H169.831V15H171.311V3.64L180.311 15H181.531V0.999999H180.071ZM198.82 15H200.3V2.28H205.22V0.999999H193.9V2.28H198.82V15ZM223.509 15.12C227.709 15.12 230.849 12.1 230.849 8C230.849 3.9 227.709 0.879999 223.509 0.879999C219.269 0.879999 216.149 3.92 216.149 8C216.149 12.08 219.269 15.12 223.509 15.12ZM223.509 13.8C220.129 13.8 217.609 11.34 217.609 8C217.609 4.66 220.129 2.2 223.509 2.2C226.869 2.2 229.369 4.66 229.369 8C229.369 11.34 226.869 13.8 223.509 13.8ZM248.027 15.12C251.607 15.12 253.247 13.36 253.247 11.3C253.247 6.2 244.627 8.52 244.627 4.68C244.627 3.28 245.767 2.14 248.327 2.14C249.567 2.14 250.967 2.52 252.167 3.3L252.667 2.12C251.547 1.34 249.907 0.879999 248.327 0.879999C244.767 0.879999 243.167 2.66 243.167 4.72C243.167 9.9 251.787 7.54 251.787 11.38C251.787 12.76 250.647 13.86 248.027 13.86C246.187 13.86 244.407 13.14 243.407 12.16L242.827 13.3C243.867 14.38 245.927 15.12 248.027 15.12Z" fill="white"/>
</svg>
