<svg width="406" height="133" viewBox="0 0 406 133" fill="none" xmlns="http://www.w3.org/2000/svg">
<path d="M3.42 21.3944H11.97C18.69 21.3944 23.22 17.0744 23.22 10.8944C23.22 4.71441 18.69 0.394408 11.97 0.394408H3.42V21.3944ZM5.64 19.4744V2.31441H11.85C17.43 2.31441 21.03 5.85441 21.03 10.8944C21.03 15.9344 17.43 19.4744 11.85 19.4744H5.64ZM45.2052 21.3944H47.4252V0.394408H45.2052V21.3944ZM85.6579 2.31441V0.394408H71.2579V21.3944H73.4779V12.4844H84.3379V10.5644H73.4779V2.31441H85.6579ZM109.462 19.4744V11.6744H120.322V9.78441H109.462V2.31441H121.642V0.394408H107.242V21.3944H122.092V19.4744H109.462ZM161.081 21.3944L155.951 14.1944C159.011 13.2044 160.751 10.8944 160.751 7.59441C160.751 3.09441 157.511 0.394408 152.171 0.394408H144.311V21.3944H146.531V14.7344H152.171C152.771 14.7344 153.311 14.7044 153.851 14.6444L158.651 21.3944H161.081ZM152.111 12.8444H146.531V2.31441H152.111C156.311 2.31441 158.531 4.23441 158.531 7.59441C158.531 10.8944 156.311 12.8444 152.111 12.8444ZM185.21 19.4744V11.6744H196.07V9.78441H185.21V2.31441H197.39V0.394408H182.99V21.3944H197.84V19.4744H185.21ZM235.419 0.394408V17.4344L221.889 0.394408H220.059V21.3944H222.279V4.35441L235.779 21.3944H237.609V0.394408H235.419ZM270.583 21.5744C273.673 21.5744 276.433 20.5244 278.293 18.4844L276.883 17.0744C275.173 18.8444 273.073 19.5944 270.673 19.5944C265.603 19.5944 261.793 15.8744 261.793 10.8944C261.793 5.91441 265.603 2.19441 270.673 2.19441C273.073 2.19441 275.173 2.94441 276.883 4.68441L278.293 3.27441C276.433 1.23441 273.673 0.214408 270.613 0.214408C264.283 0.214408 259.603 4.74441 259.603 10.8944C259.603 17.0444 264.283 21.5744 270.583 21.5744ZM300.025 21.3944H302.245V0.394408H300.025V21.3944ZM341.768 21.3944H344.108L334.508 0.394408H332.318L322.718 21.3944H325.028L327.548 15.7844H339.248L341.768 21.3944ZM328.358 13.9844L333.398 2.70441L338.438 13.9844H328.358ZM364.582 21.3944H366.802V0.394408H364.582V21.3944ZM396.425 21.5744C401.795 21.5744 404.255 18.9344 404.255 15.8444C404.255 8.19441 391.325 11.6744 391.325 5.91441C391.325 3.81441 393.035 2.10441 396.875 2.10441C398.735 2.10441 400.835 2.67441 402.635 3.84441L403.385 2.07441C401.705 0.904408 399.245 0.214408 396.875 0.214408C391.535 0.214408 389.135 2.88441 389.135 5.97441C389.135 13.7444 402.065 10.2044 402.065 15.9644C402.065 18.0344 400.355 19.6844 396.425 19.6844C393.665 19.6844 390.995 18.6044 389.495 17.1344L388.625 18.8444C390.185 20.4644 393.275 21.5744 396.425 21.5744Z" fill="#1F1F1F"/>
<path d="M3.42 58.3944H11.97C18.69 58.3944 23.22 54.0744 23.22 47.8944C23.22 41.7144 18.69 37.3944 11.97 37.3944H3.42V58.3944ZM5.64 56.4744V39.3144H11.85C17.43 39.3144 21.03 42.8544 21.03 47.8944C21.03 52.9344 17.43 56.4744 11.85 56.4744H5.64ZM45.2052 58.3944H47.4252V37.3944H45.2052V58.3944ZM85.6579 39.3144V37.3944H71.2579V58.3944H73.4779V49.4844H84.3379V47.5644H73.4779V39.3144H85.6579ZM109.462 56.4744V48.6744H120.322V46.7844H109.462V39.3144H121.642V37.3944H107.242V58.3944H122.092V56.4744H109.462ZM161.081 58.3944L155.951 51.1944C159.011 50.2044 160.751 47.8944 160.751 44.5944C160.751 40.0944 157.511 37.3944 152.171 37.3944H144.311V58.3944H146.531V51.7344H152.171C152.771 51.7344 153.311 51.7044 153.851 51.6444L158.651 58.3944H161.081ZM152.111 49.8444H146.531V39.3144H152.111C156.311 39.3144 158.531 41.2344 158.531 44.5944C158.531 47.8944 156.311 49.8444 152.111 49.8444ZM185.21 56.4744V48.6744H196.07V46.7844H185.21V39.3144H197.39V37.3944H182.99V58.3944H197.84V56.4744H185.21ZM235.419 37.3944V54.4344L221.889 37.3944H220.059V58.3944H222.279V41.3544L235.779 58.3944H237.609V37.3944H235.419ZM270.583 58.5744C273.673 58.5744 276.433 57.5244 278.293 55.4844L276.883 54.0744C275.173 55.8444 273.073 56.5944 270.673 56.5944C265.603 56.5944 261.793 52.8744 261.793 47.8944C261.793 42.9144 265.603 39.1944 270.673 39.1944C273.073 39.1944 275.173 39.9444 276.883 41.6844L278.293 40.2744C276.433 38.2344 273.673 37.2144 270.613 37.2144C264.283 37.2144 259.603 41.7444 259.603 47.8944C259.603 54.0444 264.283 58.5744 270.583 58.5744ZM300.025 58.3944H302.245V37.3944H300.025V58.3944ZM341.768 58.3944H344.108L334.508 37.3944H332.318L322.718 58.3944H325.028L327.548 52.7844H339.248L341.768 58.3944ZM328.358 50.9844L333.398 39.7044L338.438 50.9844H328.358ZM364.582 58.3944H366.802V37.3944H364.582V58.3944ZM396.425 58.5744C401.795 58.5744 404.255 55.9344 404.255 52.8444C404.255 45.1944 391.325 48.6744 391.325 42.9144C391.325 40.8144 393.035 39.1044 396.875 39.1044C398.735 39.1044 400.835 39.6744 402.635 40.8444L403.385 39.0744C401.705 37.9044 399.245 37.2144 396.875 37.2144C391.535 37.2144 389.135 39.8844 389.135 42.9744C389.135 50.7444 402.065 47.2044 402.065 52.9644C402.065 55.0344 400.355 56.6844 396.425 56.6844C393.665 56.6844 390.995 55.6044 389.495 54.1344L388.625 55.8444C390.185 57.4644 393.275 58.5744 396.425 58.5744Z" fill="#242424"/>
<path d="M3.42 95.3944H11.97C18.69 95.3944 23.22 91.0744 23.22 84.8944C23.22 78.7144 18.69 74.3944 11.97 74.3944H3.42V95.3944ZM5.64 93.4744V76.3144H11.85C17.43 76.3144 21.03 79.8544 21.03 84.8944C21.03 89.9344 17.43 93.4744 11.85 93.4744H5.64ZM45.2052 95.3944H47.4252V74.3944H45.2052V95.3944ZM85.6579 76.3144V74.3944H71.2579V95.3944H73.4779V86.4844H84.3379V84.5644H73.4779V76.3144H85.6579ZM109.462 93.4744V85.6744H120.322V83.7844H109.462V76.3144H121.642V74.3944H107.242V95.3944H122.092V93.4744H109.462ZM161.081 95.3944L155.951 88.1944C159.011 87.2044 160.751 84.8944 160.751 81.5944C160.751 77.0944 157.511 74.3944 152.171 74.3944H144.311V95.3944H146.531V88.7344H152.171C152.771 88.7344 153.311 88.7044 153.851 88.6444L158.651 95.3944H161.081ZM152.111 86.8444H146.531V76.3144H152.111C156.311 76.3144 158.531 78.2344 158.531 81.5944C158.531 84.8944 156.311 86.8444 152.111 86.8444ZM185.21 93.4744V85.6744H196.07V83.7844H185.21V76.3144H197.39V74.3944H182.99V95.3944H197.84V93.4744H185.21ZM235.419 74.3944V91.4344L221.889 74.3944H220.059V95.3944H222.279V78.3544L235.779 95.3944H237.609V74.3944H235.419ZM270.583 95.5744C273.673 95.5744 276.433 94.5244 278.293 92.4844L276.883 91.0744C275.173 92.8444 273.073 93.5944 270.673 93.5944C265.603 93.5944 261.793 89.8744 261.793 84.8944C261.793 79.9144 265.603 76.1944 270.673 76.1944C273.073 76.1944 275.173 76.9444 276.883 78.6844L278.293 77.2744C276.433 75.2344 273.673 74.2144 270.613 74.2144C264.283 74.2144 259.603 78.7444 259.603 84.8944C259.603 91.0444 264.283 95.5744 270.583 95.5744ZM300.025 95.3944H302.245V74.3944H300.025V95.3944ZM341.768 95.3944H344.108L334.508 74.3944H332.318L322.718 95.3944H325.028L327.548 89.7844H339.248L341.768 95.3944ZM328.358 87.9844L333.398 76.7044L338.438 87.9844H328.358ZM364.582 95.3944H366.802V74.3944H364.582V95.3944ZM396.425 95.5744C401.795 95.5744 404.255 92.9344 404.255 89.8444C404.255 82.1944 391.325 85.6744 391.325 79.9144C391.325 77.8144 393.035 76.1044 396.875 76.1044C398.735 76.1044 400.835 76.6744 402.635 77.8444L403.385 76.0744C401.705 74.9044 399.245 74.2144 396.875 74.2144C391.535 74.2144 389.135 76.8844 389.135 79.9744C389.135 87.7444 402.065 84.2044 402.065 89.9644C402.065 92.0344 400.355 93.6844 396.425 93.6844C393.665 93.6844 390.995 92.6044 389.495 91.1344L388.625 92.8444C390.185 94.4644 393.275 95.5744 396.425 95.5744Z" fill="#373737"/>
<path d="M3.42 132.394H11.97C18.69 132.394 23.22 128.074 23.22 121.894C23.22 115.714 18.69 111.394 11.97 111.394H3.42V132.394ZM5.64 130.474V113.314H11.85C17.43 113.314 21.03 116.854 21.03 121.894C21.03 126.934 17.43 130.474 11.85 130.474H5.64ZM45.2052 132.394H47.4252V111.394H45.2052V132.394ZM85.6579 113.314V111.394H71.2579V132.394H73.4779V123.484H84.3379V121.564H73.4779V113.314H85.6579ZM109.462 130.474V122.674H120.322V120.784H109.462V113.314H121.642V111.394H107.242V132.394H122.092V130.474H109.462ZM161.081 132.394L155.951 125.194C159.011 124.204 160.751 121.894 160.751 118.594C160.751 114.094 157.511 111.394 152.171 111.394H144.311V132.394H146.531V125.734H152.171C152.771 125.734 153.311 125.704 153.851 125.644L158.651 132.394H161.081ZM152.111 123.844H146.531V113.314H152.111C156.311 113.314 158.531 115.234 158.531 118.594C158.531 121.894 156.311 123.844 152.111 123.844ZM185.21 130.474V122.674H196.07V120.784H185.21V113.314H197.39V111.394H182.99V132.394H197.84V130.474H185.21ZM235.419 111.394V128.434L221.889 111.394H220.059V132.394H222.279V115.354L235.779 132.394H237.609V111.394H235.419ZM270.583 132.574C273.673 132.574 276.433 131.524 278.293 129.484L276.883 128.074C275.173 129.844 273.073 130.594 270.673 130.594C265.603 130.594 261.793 126.874 261.793 121.894C261.793 116.914 265.603 113.194 270.673 113.194C273.073 113.194 275.173 113.944 276.883 115.684L278.293 114.274C276.433 112.234 273.673 111.214 270.613 111.214C264.283 111.214 259.603 115.744 259.603 121.894C259.603 128.044 264.283 132.574 270.583 132.574ZM300.025 132.394H302.245V111.394H300.025V132.394ZM341.768 132.394H344.108L334.508 111.394H332.318L322.718 132.394H325.028L327.548 126.784H339.248L341.768 132.394ZM328.358 124.984L333.398 113.704L338.438 124.984H328.358ZM364.582 132.394H366.802V111.394H364.582V132.394ZM396.425 132.574C401.795 132.574 404.255 129.934 404.255 126.844C404.255 119.194 391.325 122.674 391.325 116.914C391.325 114.814 393.035 113.104 396.875 113.104C398.735 113.104 400.835 113.674 402.635 114.844L403.385 113.074C401.705 111.904 399.245 111.214 396.875 111.214C391.535 111.214 389.135 113.884 389.135 116.974C389.135 124.744 402.065 121.204 402.065 126.964C402.065 129.034 400.355 130.684 396.425 130.684C393.665 130.684 390.995 129.604 389.495 128.134L388.625 129.844C390.185 131.464 393.275 132.574 396.425 132.574Z" fill="white"/>
</svg>
