<svg width="56" height="56" viewBox="0 0 56 56" fill="none" xmlns="http://www.w3.org/2000/svg">
<circle cx="28.0133" cy="28.1521" r="27.8316" fill="#FDE8D9"/>
<mask id="mask0" mask-type="alpha" maskUnits="userSpaceOnUse" x="0" y="0" width="56" height="56">
<circle cx="28.0133" cy="28.1521" r="27.8316" fill="#D5E9E2"/>
</mask>
<g mask="url(#mask0)">
<path d="M31.7022 41.2297C29.5196 42.1851 27.0661 42.5245 24.8141 41.7785C22.4876 41.0084 20.7418 39.4993 19.5578 37.3567C18.5072 35.4548 18.7244 29.8525 18.662 29.2398C18.577 28.4022 18.9654 27.9384 19.6051 27.4382C20.5343 26.7131 21.3058 25.7872 22.1795 24.9842C22.3078 24.8665 22.7637 24.8648 22.8417 24.9721C24.2789 26.9623 26.198 28.2361 28.5228 28.9733C30.6239 29.6396 32.7407 29.7348 34.8869 29.2831C35.478 29.1585 36.0501 28.9404 36.6413 28.8279C36.7869 28.8003 37.1302 29.027 37.1267 29.1256C37.8479 32.9348 36.5962 39.0872 31.7022 41.2297ZM32.3335 42.6273C31.6678 44.5587 29.8614 45.8135 27.7759 45.8083C25.7354 45.8031 23.9931 44.5864 23.2789 42.6533C23.2303 42.5218 23.2824 42.3522 23.2858 42.1999C23.4037 42.2154 23.5303 42.2068 23.636 42.2483C25.9591 43.1725 28.3254 43.375 30.7438 42.6741C31.1564 42.5547 31.5569 42.3885 31.966 42.2553C32.0752 42.2189 32.1983 42.2276 32.3162 42.2154C32.3231 42.3522 32.3752 42.5062 32.3335 42.6273Z" fill="white"/>
<path d="M31.7022 41.2297C29.5196 42.1851 27.0661 42.5245 24.8141 41.7785C22.4876 41.0084 20.7418 39.4993 19.5578 37.3567C18.5072 35.4548 18.7244 29.8525 18.662 29.2398C18.577 28.4022 18.9654 27.9384 19.6051 27.4382C20.5343 26.7131 21.3058 25.7872 22.1795 24.9842C22.3078 24.8665 22.7637 24.8648 22.8417 24.9721C24.2789 26.9623 26.198 28.2361 28.5228 28.9733C30.6239 29.6396 32.7407 29.7348 34.8869 29.2831C35.478 29.1585 36.0501 28.9404 36.6413 28.8279C36.7869 28.8003 37.1302 29.027 37.1267 29.1256C37.8479 32.9348 36.5962 39.0872 31.7022 41.2297Z" fill="white"/>
<path d="M20.3477 43.7377C21.9145 43.7377 22.5238 42.6175 22.6326 42.0573V41.3851C21.5445 40.3769 19.2377 38.0243 18.7155 36.68C18.1932 35.3356 18.0626 30.0703 18.0626 27.6057C19.1072 27.6057 21.3268 24.6929 22.3061 23.2365C26.7455 30.496 33.9485 29.1741 36.9952 27.6057C38.0397 35.9406 34.3838 40.2649 32.4252 41.3851L33.0781 43.0656H39.933L40.2594 26.2613C39.933 21.108 37.0604 10.9358 28.1817 11.4736C17.0833 12.1457 15.1249 22.2283 14.7985 23.2365C14.5373 24.0432 14.6897 36.792 14.7985 43.0656C15.9954 43.2896 18.7808 43.7377 20.3477 43.7377Z" fill="white"/>
<circle cx="30.7964" cy="37.6148" r="1.6699" fill="#4FBFA5"/>
<path d="M12.0516 47.4487C13.6678 45.2433 19.2347 43.3137 21.8162 42.6245C27.2034 48.9648 31.244 45.2663 32.5909 42.6245C40.6719 44.0028 44.039 48.2527 44.7124 50.2053V55.7186C44.7124 56.5456 43.59 56.9821 43.0288 57.097H12.7252C10.3682 57.097 10.7048 56.0632 10.3681 55.374C10.0314 54.6849 10.0314 50.2053 12.0516 47.4487Z" fill="#F27292"/>
<path d="M11.1963 28.5429L12.5195 27.8813C12.5195 21.5298 14.7249 17.075 15.8276 15.6415C17.2611 13.6567 21.7821 9.75316 28.3982 10.0178C36.6683 10.3486 39.6455 15.6415 41.6304 18.2879C43.2182 20.4051 42.9536 25.1246 42.6228 27.2197L44.6076 28.5429C45.6 29.2045 44.9384 32.5126 44.9384 33.1742C44.9384 33.8358 44.2768 36.4822 43.6152 36.813C43.0859 37.0777 41.4098 36.9233 40.638 36.813C40.8585 34.0563 41.0349 27.2197 39.9764 21.9268C38.6531 15.3107 32.3678 12.0026 25.4209 12.6642C19.8634 13.1935 16.2686 19.0598 15.166 21.9268V25.5656L14.5043 36.4822H11.8579L11.1963 34.4974V28.5429Z" fill="#4FBFA5"/>
<path d="M38.1062 44.2288C37.9886 44.1914 37.8914 44.0944 37.784 44.0246C37.9101 43.9753 38.0346 43.8885 38.1607 43.8851C38.8561 43.8664 39.5515 43.8681 40.2486 43.863C40.7889 43.8596 41.0599 43.5856 41.0599 43.048C41.0616 41.6578 41.0634 40.2694 41.0651 38.8792C41.0685 37.0603 40.9117 37.4261 42.507 37.3887C44.2711 37.3462 45.2665 36.3627 45.2682 34.6067C45.2699 33.0328 45.2597 31.4589 45.2665 29.885C45.2716 28.9066 44.8762 28.0831 44.0291 27.6696C43.4018 27.3651 43.366 26.9686 43.3865 26.4292C43.4035 25.9902 43.3865 25.5496 43.3916 25.1106C43.4291 22.0717 42.6451 19.2386 41.0054 16.7017C38.1573 12.2998 34.0598 9.81902 28.8289 9.40725C24.6019 9.07376 20.8027 10.3618 17.5933 13.1251C14.0804 16.1487 12.226 20.0196 12.1186 24.6801C12.1016 25.4168 12.1288 26.1553 12.0948 26.892C12.0862 27.0877 11.9771 27.3872 11.8306 27.4536C10.692 27.9623 10.2233 28.8403 10.2352 30.0518C10.2488 31.5678 10.2284 33.0856 10.2182 34.6016C10.2096 35.8029 10.6426 36.7677 11.8289 37.176C12.3845 37.3683 13.022 37.3904 13.6202 37.3734C14.227 37.3564 14.4486 37.5231 14.4349 38.1561C14.3974 39.7708 14.4264 41.389 14.4281 43.0054C14.4281 43.5771 14.6974 43.8681 15.2872 43.8681C16.0252 43.8681 16.7632 43.8885 17.4995 43.9123C17.5813 43.9157 17.6614 43.9974 17.7433 44.0434C17.6683 44.0961 17.6018 44.1693 17.5183 44.2016C16.8075 44.4789 16.0729 44.7052 15.3843 45.0302C13.2896 46.0222 11.805 47.5995 10.9119 49.7485C10.2915 51.2408 10.2915 52.7977 10.2079 54.3733C10.1091 56.2143 11.0891 57.7014 13.385 57.6538C18.1557 57.5551 22.9282 57.6232 27.7006 57.6232C29.6607 57.6215 31.6208 57.6232 33.5809 57.6215C36.6063 57.6198 39.6316 57.6181 42.657 57.6181C43.7615 57.6181 44.6682 57.1689 44.9614 56.1037C45.2171 55.173 45.2256 54.1623 45.2529 53.1856C45.2989 51.5487 44.8319 50.0225 44.0308 48.6085C42.7115 46.2774 40.5776 45.0217 38.1062 44.2288ZM14.4264 25.0459C14.4213 28.5476 14.4162 32.0494 14.4332 35.5528C14.4366 36.0836 14.2764 36.3151 13.7276 36.2589C13.3765 36.2232 13.0169 36.2572 12.664 36.2385C11.9362 36.2011 11.3908 35.6447 11.3874 34.9198C11.3789 33.3034 11.4164 31.6869 11.3738 30.0705C11.3499 29.167 11.7283 28.6378 12.5788 28.4387C13.1004 28.3162 13.2827 28.0304 13.2674 27.5012C13.2367 26.4531 13.2214 25.4015 13.2725 24.3534C13.4975 19.8325 15.4372 16.1861 19.0233 13.4364C21.8561 11.2653 25.1098 10.2461 28.6534 10.5217C33.4684 10.8961 37.2931 13.1149 39.9623 17.1883C41.7127 19.8597 42.3979 22.8169 42.2377 25.9885C42.219 26.3561 42.2701 26.7304 42.2258 27.0928C42.1337 27.8602 42.3417 28.352 43.1837 28.5374C43.845 28.6837 44.116 29.2078 44.1126 29.885C44.1024 31.5304 44.1109 33.1741 44.1041 34.8194C44.1007 35.6736 43.5655 36.2453 42.7064 36.2419C40.777 36.2334 41.0872 36.5363 41.0685 34.7071C41.0514 33.0618 41.0651 31.4181 41.0651 29.7727C41.0634 28.1988 41.0991 26.6249 41.0582 25.051C40.9236 19.8631 38.6311 15.9224 34.0922 13.3616C30.7447 11.4763 27.1654 11.2058 23.5656 12.4019C19.7511 13.6696 17.0172 16.2218 15.4508 19.9669C14.769 21.5952 14.4281 23.2865 14.4264 25.0459ZM15.5582 42.7519C15.5735 39.6892 15.4252 26.7389 15.6792 23.6694C15.9826 19.989 17.8506 17.0522 20.9408 14.9559C23.8537 12.9804 27.0682 12.3849 30.4737 13.1591C33.6883 13.8908 36.2108 15.7114 38.0073 18.49C39.4714 20.753 39.9657 23.2508 39.9384 25.9256C39.8839 31.2973 39.9146 37.0671 39.9316 42.4388C39.9333 42.9884 34.8234 43.0412 33.8093 42.643C33.4258 42.4933 33.3133 41.5438 33.7138 41.2563C36.9625 38.9116 37.8863 34.833 37.9476 33.2795C38.0124 31.595 37.9681 29.9054 37.9647 28.2192C37.963 27.445 37.6221 27.1677 36.9182 27.4689C35.0365 28.272 33.1002 28.7756 31.0481 28.5357C27.8318 28.1597 25.1269 26.8682 23.3679 24.008C23.2281 23.78 23.148 23.5145 23.0031 23.2916C22.6537 22.754 22.1833 22.7403 21.8936 23.3087C21.1249 24.8213 20.1022 26.1315 18.604 26.921C17.5847 27.4587 17.4569 28.2073 17.5183 29.1874C17.6342 31.0914 17.5813 33.0141 17.8114 34.9028C18.1114 37.3564 19.4852 39.2672 21.3328 40.8598C21.5851 41.0776 21.8475 41.3669 21.9396 41.6731C22.3026 42.8608 21.2476 42.905 20.6101 43.0361C20.0681 43.1466 15.5548 43.2164 15.5582 42.7519ZM31.4691 41.1712C29.3232 42.1104 27.1364 42.2687 24.9223 41.5353C22.635 40.7781 20.9186 39.2944 19.7545 37.1879C18.7216 35.318 18.7097 29.9854 18.6483 29.3831C18.5648 28.5595 18.9466 28.1035 19.5755 27.6118C20.4891 26.8989 21.2476 25.9885 22.1066 25.199C22.2327 25.0833 22.681 25.0816 22.7577 25.1871C24.1707 27.1439 26.0575 28.3962 28.3431 29.121C30.4089 29.7761 32.49 29.8697 34.6001 29.4256C35.1813 29.3031 35.7438 29.0887 36.325 28.9781C36.4682 28.9509 36.8057 29.1738 36.8023 29.2708C37.5113 33.0158 36.2807 39.0647 31.4691 41.1712ZM32.2003 42.6685C31.5458 44.5674 29.7698 45.801 27.7193 45.7959C25.7132 45.7908 24.0002 44.5946 23.298 42.694C23.2503 42.5647 23.3014 42.398 23.3048 42.2482C23.4207 42.2636 23.5452 42.2551 23.6491 42.2959C25.9331 43.2045 28.2596 43.4036 30.6373 42.7145C31.043 42.5971 31.4367 42.4337 31.8389 42.3027C31.9463 42.267 32.0673 42.2755 32.1832 42.2636C32.1901 42.398 32.2412 42.5494 32.2003 42.6685ZM44.087 55.2393C44.0666 55.9727 43.4479 56.4627 42.6195 56.4678C40.731 56.4763 38.8408 56.4712 36.9523 56.4712C33.8843 56.4712 30.8163 56.4712 27.7483 56.4712C27.7483 56.478 27.7483 56.4831 27.7483 56.49C22.9196 56.49 18.091 56.49 13.2623 56.49C11.8391 56.49 11.3993 56.0373 11.3755 54.6115C11.3482 52.9627 11.3687 51.3361 12.1186 49.7945C13.0373 47.9075 14.4622 46.5803 16.3968 45.8197C18.2239 45.1 20.0732 44.4313 21.9294 43.7915C22.139 43.7201 22.6009 43.9038 22.7134 44.1012C23.9696 46.3047 26.9285 47.5519 29.5158 46.6603C30.9373 46.1702 32.0179 45.3331 32.7764 44.0468C33.2451 43.2538 33.8297 43.8664 34.2882 44.0212C35.9194 44.5725 37.5284 45.1936 39.1305 45.8299C41.0378 46.5871 42.4218 47.9126 43.3473 49.7502C44.2336 51.5062 44.1416 53.3728 44.087 55.2393Z" fill="#C81A78"/>
<path d="M30.725 40.3341C29.5473 40.3341 28.5894 39.3779 28.5894 38.2021C28.5894 37.0264 29.5473 36.0701 30.725 36.0701C31.9028 36.0701 32.8607 37.0264 32.8607 38.2021C32.8607 39.3779 31.9028 40.3341 30.725 40.3341ZM30.725 37.0927C30.1114 37.0927 29.612 37.5913 29.612 38.2038C29.612 38.8164 30.1114 39.3149 30.725 39.3149C31.3386 39.3149 31.838 38.8164 31.838 38.2038C31.838 37.5913 31.3386 37.0927 30.725 37.0927Z" fill="#C81A78"/>
<path d="M35.9745 39.936C34.1524 39.936 32.3014 39.2826 32.1753 39.2367L32.5213 38.2753C33.757 38.7177 37.1897 39.5532 38.2192 38.1137C38.4527 37.787 38.5311 37.4705 38.4561 37.1489C38.2874 36.4139 37.3653 35.769 37.0261 35.5835L37.5136 34.6868C37.5801 34.7226 39.143 35.5818 39.4515 36.9175C39.593 37.525 39.4532 38.1426 39.051 38.7058C38.3794 39.6485 37.1829 39.936 35.9745 39.936Z" fill="#C81A78"/>
</g>
</svg>
