<svg width="57" height="56" viewBox="0 0 57 56" fill="none" xmlns="http://www.w3.org/2000/svg">
<circle cx="28.3282" cy="28.1521" r="27.8316" fill="#F5D6DC"/>
<mask id="mask0" mask-type="alpha" maskUnits="userSpaceOnUse" x="15" y="8" width="27" height="41">
<rect x="17.1958" y="9.7832" width="22.8219" height="37.2358" rx="2.98196" fill="white" stroke="white" stroke-width="2.98196" stroke-linecap="round"/>
</mask>
<g mask="url(#mask0)">
<mask id="mask1" mask-type="alpha" maskUnits="userSpaceOnUse" x="17" y="9" width="24" height="39">
<rect x="17.1958" y="9.7832" width="22.8219" height="37.2358" rx="2.98196" fill="white"/>
</mask>
<g mask="url(#mask1)">
<path fill-rule="evenodd" clip-rule="evenodd" d="M47.4298 52.3975L39.5225 47.6361L50.2202 28.8498L58.1275 33.6112L47.4298 52.3975Z" fill="#FA6400"/>
<path fill-rule="evenodd" clip-rule="evenodd" d="M17.1958 39.7652V60.0455H20.1258L32.4715 38.1716L21.766 31.6675L17.1958 39.7652Z" fill="#5CB79F"/>
<path fill-rule="evenodd" clip-rule="evenodd" d="M41.4683 42.3344L33.8423 37.7561L36.4001 33.2776L44.0261 37.856L41.4683 42.3344Z" fill="#B71277"/>
<path fill-rule="evenodd" clip-rule="evenodd" d="M17.1958 27.7688L32.9404 37.3028L36.3884 31.2136L17.1958 19.5917V27.7688Z" fill="#DF3378"/>
<path fill-rule="evenodd" clip-rule="evenodd" d="M17.1958 36.3152L17.8196 36.699L20.9168 31.1399L17.1958 28.8498V36.3152Z" fill="#F75F75"/>
<path fill-rule="evenodd" clip-rule="evenodd" d="M33.2865 56.8253L25.6172 52.2084L33.4194 38.5104L41.0887 43.1273L33.2865 56.8253Z" fill="#F5B554"/>
</g>
<path d="M25.7417 44.2721H31.2355" stroke="#B71D83" stroke-width="1.98797" stroke-linecap="round"/>
<rect x="17.1958" y="9.7832" width="22.8219" height="37.2358" rx="2.98196" stroke="#B71D83" stroke-width="0.993986"/>
</g>
</svg>
