<svg width="100" height="100" viewBox="0 0 100 100" fill="none" xmlns="http://www.w3.org/2000/svg">
<path d="M96 0H4C1.79086 0 0 1.79086 0 4V96C0 98.2091 1.79086 100 4 100H96C98.2091 100 100 98.2091 100 96V4C100 1.79086 98.2091 0 96 0Z" fill="white"/>
<path d="M34.2999 10.89V9.26003C34.2999 8.93003 34.0299 8.65002 33.6899 8.65002H32.0499C31.7199 8.65002 31.4399 8.92003 31.4399 9.26003V11.5H34.2899V10.89H34.2999Z" fill="black"/>
<path d="M40.0001 10.89V9.26003C40.0001 8.93003 39.7301 8.65002 39.3901 8.65002H37.7501C37.4201 8.65002 37.1401 8.92003 37.1401 9.26003V11.5H40.0001V10.89Z" fill="black"/>
<path d="M53.6401 8.65002H52.0001C51.6701 8.65002 51.3901 8.92003 51.3901 9.26003V10.9C51.3901 11.23 51.6601 11.51 52.0001 11.51H54.2401V8.65002H53.6401Z" fill="black"/>
<path d="M57.1 8.65002H54.25V11.5H57.1V8.65002Z" fill="black"/>
<path d="M57.7101 11.5H59.3501C59.6801 11.5 59.9601 11.23 59.9601 10.89V9.26003C59.9601 8.93003 59.6901 8.65002 59.3501 8.65002H57.1001V11.5H57.7101Z" fill="black"/>
<path d="M31.4502 13.74C31.4502 14.07 31.7202 14.35 32.0602 14.35H33.7002C34.0302 14.35 34.3102 14.08 34.3102 13.74V11.5H31.4602V13.74H31.4502Z" fill="black"/>
<path d="M39.9999 11.5H37.1499V14.35H39.9999V11.5Z" fill="black"/>
<path d="M43.4601 11.5C43.1301 11.5 42.8501 11.77 42.8501 12.11V14.35H45.7001V11.5H43.4601Z" fill="black"/>
<path d="M48.5502 11.5H45.7002V14.35H48.5502V11.5Z" fill="black"/>
<path d="M50.7898 11.5C51.1198 11.5 51.3998 11.77 51.3998 12.11V14.35H48.5498V11.5H50.7898Z" fill="black"/>
<path d="M63.4098 11.5H65.0498C65.3798 11.5 65.6598 11.77 65.6598 12.11V13.75C65.6598 14.08 65.3898 14.36 65.0498 14.36H63.4098C63.0798 14.36 62.7998 14.09 62.7998 13.75V12.11C62.7998 11.77 63.0698 11.5 63.4098 11.5Z" fill="black"/>
<path d="M37.1499 16.59C37.1499 16.92 37.4199 17.2 37.7599 17.2H39.3999C39.7299 17.2 40.0099 16.93 40.0099 16.59V14.35H37.1599V16.59H37.1499Z" fill="black"/>
<path d="M42.8501 16.59C42.8501 16.92 43.1201 17.2 43.4601 17.2H45.7001V14.35H42.8501V16.59Z" fill="black"/>
<path d="M48.5502 14.35H45.7002V17.2H48.5502V14.35Z" fill="black"/>
<path d="M51.3998 14.35H48.5498V17.2H51.3998V14.35Z" fill="black"/>
<path d="M52.0099 17.2C51.6799 17.2 51.3999 16.93 51.3999 16.59V17.2H52.0099Z" fill="black"/>
<path d="M56.4902 14.35H54.8502C54.5202 14.35 54.2402 14.62 54.2402 14.96V16.6C54.2402 16.93 54.5102 17.21 54.8502 17.21H57.0902V14.36H56.4902V14.35Z" fill="black"/>
<path d="M57.7101 17.2H59.3501C59.6801 17.2 59.9601 16.93 59.9601 16.59V14.95C59.9601 14.62 59.6901 14.34 59.3501 14.34H57.1001V17.19H57.7101V17.2Z" fill="black"/>
<path d="M66.2599 14.35H67.8999C68.2299 14.35 68.5099 14.62 68.5099 14.96V16.6C68.5099 16.93 68.2399 17.21 67.8999 17.21H66.2599C65.9299 17.21 65.6499 16.94 65.6499 16.6V14.96C65.6499 14.62 65.9199 14.35 66.2599 14.35Z" fill="black"/>
<path d="M32.0602 17.2C31.7302 17.2 31.4502 17.47 31.4502 17.81V20.05H34.3002V17.2H32.0602Z" fill="black"/>
<path d="M34.9098 20.05H36.5498C36.8798 20.05 37.1598 19.78 37.1598 19.44V17.8C37.1598 17.47 36.8898 17.19 36.5498 17.19H34.2998V20.04H34.9098V20.05Z" fill="black"/>
<path d="M40.61 17.2H42.25C42.58 17.2 42.86 17.47 42.86 17.81V19.45C42.86 19.78 42.59 20.06 42.25 20.06H40.61C40.28 20.06 40 19.79 40 19.45V17.81C40 17.47 40.27 17.2 40.61 17.2Z" fill="black"/>
<path d="M45.6998 17.81V17.2H45.0898C45.4298 17.2 45.6998 17.47 45.6998 17.81Z" fill="black"/>
<path d="M48.5502 17.2H45.7002V20.05H48.5502V17.2Z" fill="black"/>
<path d="M51.3998 17.2H48.5498V20.05H51.3998V17.2Z" fill="black"/>
<path d="M52.0099 20.05H53.6499C53.9799 20.05 54.2599 19.78 54.2599 19.44V17.8C54.2599 17.47 53.9899 17.19 53.6499 17.19H51.3999V20.04H52.0099V20.05Z" fill="black"/>
<path d="M60.5602 17.2H62.2002C62.5302 17.2 62.8102 17.47 62.8102 17.81V19.45C62.8102 19.78 62.5402 20.06 62.2002 20.06H60.5602C60.2302 20.06 59.9502 19.79 59.9502 19.45V17.81C59.9502 17.47 60.2202 17.2 60.5602 17.2Z" fill="black"/>
<path d="M34.3002 20.05H31.4502V22.9H34.3002V20.05Z" fill="black"/>
<path d="M34.9098 20.05H34.2998V20.66C34.2998 20.32 34.5698 20.05 34.9098 20.05Z" fill="black"/>
<path d="M34.9098 22.9C34.5798 22.9 34.2998 22.63 34.2998 22.29V22.9H34.9098Z" fill="black"/>
<path d="M48.5502 20.05H45.7002V22.9H48.5502V20.05Z" fill="black"/>
<path d="M49.1598 20.05H48.5498V20.66C48.5498 20.32 48.8198 20.05 49.1598 20.05Z" fill="black"/>
<path d="M49.1598 22.9C48.8298 22.9 48.5498 22.63 48.5498 22.29V22.9H49.1598Z" fill="black"/>
<path d="M56.4902 20.05H54.8502C54.5202 20.05 54.2402 20.32 54.2402 20.66V22.3C54.2402 22.63 54.5102 22.91 54.8502 22.91H57.0902V20.06H56.4902V20.05Z" fill="black"/>
<path d="M59.3401 20.05C59.6701 20.05 59.9501 20.32 59.9501 20.66V22.9H57.1001V20.05H59.3401Z" fill="black"/>
<path d="M63.4098 20.05H65.0498C65.3798 20.05 65.6598 20.32 65.6598 20.66V22.3C65.6598 22.63 65.3898 22.91 65.0498 22.91H63.4098C63.0798 22.91 62.7998 22.64 62.7998 22.3V20.66C62.7998 20.32 63.0698 20.05 63.4098 20.05Z" fill="black"/>
<path d="M34.3002 22.9H31.4502V25.75H34.3002V22.9Z" fill="black"/>
<path d="M37.1498 22.9H34.2998V25.75H37.1498V22.9Z" fill="black"/>
<path d="M39.9999 22.9H37.1499V25.75H39.9999V22.9Z" fill="black"/>
<path d="M40.61 25.75H42.25C42.58 25.75 42.86 25.48 42.86 25.14V23.5C42.86 23.17 42.59 22.89 42.25 22.89H40V25.74H40.61V25.75Z" fill="black"/>
<path d="M45.7002 25.14C45.7002 25.47 45.9702 25.75 46.3102 25.75H48.5502V22.9H45.7002V25.14Z" fill="black"/>
<path d="M50.7898 22.9C51.1198 22.9 51.3998 23.17 51.3998 23.51V25.75H48.5498V22.9H50.7898Z" fill="black"/>
<path d="M57.1002 23.51V22.9H56.4902C56.8302 22.9 57.1002 23.17 57.1002 23.51Z" fill="black"/>
<path d="M57.1001 25.14C57.1001 25.47 57.3701 25.75 57.7101 25.75H59.3501C59.6801 25.75 59.9601 25.48 59.9601 25.14V22.9H57.1001V25.14Z" fill="black"/>
<path d="M68.5001 25.14V23.5C68.5001 23.17 68.2301 22.89 67.8901 22.89H66.2501C65.9201 22.89 65.6401 23.16 65.6401 23.5V25.74H68.4901V25.14H68.5001Z" fill="black"/>
<path d="M31.4502 27.99C31.4502 28.32 31.7202 28.6 32.0602 28.6H33.7002C34.0302 28.6 34.3102 28.33 34.3102 27.99V25.75H31.4602V27.99H31.4502Z" fill="black"/>
<path d="M34.9098 25.75H34.2998V26.36C34.2998 26.02 34.5698 25.75 34.9098 25.75Z" fill="black"/>
<path d="M37.15 26.36V25.75H36.54C36.88 25.75 37.15 26.02 37.15 26.36Z" fill="black"/>
<path d="M37.1499 27.99C37.1499 28.32 37.4199 28.6 37.7599 28.6H39.3999C39.7299 28.6 40.0099 28.33 40.0099 27.99V25.75H37.1599V27.99H37.1499Z" fill="black"/>
<path d="M40.61 25.75H40V26.36C40 26.02 40.27 25.75 40.61 25.75Z" fill="black"/>
<path d="M43.4601 25.75H45.1001C45.4301 25.75 45.7101 26.02 45.7101 26.36V28C45.7101 28.33 45.4401 28.61 45.1001 28.61H43.4601C43.1301 28.61 42.8501 28.34 42.8501 28V26.36C42.8501 26.02 43.1201 25.75 43.4601 25.75Z" fill="black"/>
<path d="M48.5499 26.36V25.75H47.9399C48.2799 25.75 48.5499 26.02 48.5499 26.36Z" fill="black"/>
<path d="M48.5498 27.99C48.5498 28.32 48.8198 28.6 49.1598 28.6H50.7998C51.1298 28.6 51.4098 28.33 51.4098 27.99V25.75H48.5598V27.99H48.5498Z" fill="black"/>
<path d="M53.6401 28.6C53.9701 28.6 54.2501 28.33 54.2501 27.99V28.6H53.6401Z" fill="black"/>
<path d="M57.1002 27.99V26.35C57.1002 26.02 56.8302 25.74 56.4902 25.74H54.8502C54.5202 25.74 54.2402 26.01 54.2402 26.35V28.59H57.0902V27.99H57.1002Z" fill="black"/>
<path d="M62.7999 27.99V26.35C62.7999 26.02 62.5299 25.74 62.1899 25.74H60.5499C60.2199 25.74 59.9399 26.01 59.9399 26.35V28.59H62.7899V27.99H62.7999Z" fill="black"/>
<path d="M68.4999 25.75H65.6499V28.6H68.4999V25.75Z" fill="black"/>
<path d="M33.6899 31.45C34.0199 31.45 34.2999 31.18 34.2999 30.84V31.45H33.6899Z" fill="black"/>
<path d="M37.15 30.84V29.2C37.15 28.87 36.88 28.59 36.54 28.59H34.9C34.57 28.59 34.29 28.86 34.29 29.2V31.44H37.14V30.84H37.15Z" fill="black"/>
<path d="M37.7599 31.45C37.4299 31.45 37.1499 31.18 37.1499 30.84V31.45H37.7599Z" fill="black"/>
<path d="M40.61 28.6H42.25C42.58 28.6 42.86 28.87 42.86 29.21V30.85C42.86 31.18 42.59 31.46 42.25 31.46H40.61C40.28 31.46 40 31.19 40 30.85V29.21C40 28.87 40.27 28.6 40.61 28.6Z" fill="black"/>
<path d="M46.3102 28.6H47.9502C48.2802 28.6 48.5602 28.87 48.5602 29.21V30.85C48.5602 31.18 48.2902 31.46 47.9502 31.46H46.3102C45.9802 31.46 45.7002 31.19 45.7002 30.85V29.21C45.7002 28.87 45.9702 28.6 46.3102 28.6Z" fill="black"/>
<path d="M52.0099 28.6C51.6799 28.6 51.3999 28.87 51.3999 29.21V31.45H54.2499V28.6H52.0099Z" fill="black"/>
<path d="M57.1 28.6H54.25V31.45H57.1V28.6Z" fill="black"/>
<path d="M59.9502 30.84C59.9502 31.17 60.2202 31.45 60.5602 31.45H62.2002C62.5302 31.45 62.8102 31.18 62.8102 30.84V28.6H59.9602V30.84H59.9502Z" fill="black"/>
<path d="M68.4999 28.6H65.6499V31.45H68.4999V28.6Z" fill="black"/>
<path d="M17.1998 33.69V32.05C17.1998 31.72 16.9298 31.44 16.5898 31.44H14.9498C14.6198 31.44 14.3398 31.71 14.3398 32.05V34.29H17.1898V33.69H17.1998Z" fill="black"/>
<path d="M25.1401 31.45H23.5001C23.1701 31.45 22.8901 31.72 22.8901 32.06V33.7C22.8901 34.03 23.1601 34.31 23.5001 34.31H25.7401V31.46H25.1401V31.45Z" fill="black"/>
<path d="M28.6 31.45H25.75V34.3H28.6V31.45Z" fill="black"/>
<path d="M31.4501 31.45H28.6001V34.3H31.4501V31.45Z" fill="black"/>
<path d="M34.3002 31.45H31.4502V34.3H34.3002V31.45Z" fill="black"/>
<path d="M37.1498 31.45H34.2998V34.3H37.1498V31.45Z" fill="black"/>
<path d="M37.7602 34.3H39.4002C39.7302 34.3 40.0102 34.03 40.0102 33.69V32.05C40.0102 31.72 39.7402 31.44 39.4002 31.44H37.1602V34.29H37.7602V34.3Z" fill="black"/>
<path d="M43.4601 31.45H45.1001C45.4301 31.45 45.7101 31.72 45.7101 32.06V33.7C45.7101 34.03 45.4401 34.31 45.1001 34.31H43.4601C43.1301 34.31 42.8501 34.04 42.8501 33.7V32.06C42.8501 31.72 43.1201 31.45 43.4601 31.45Z" fill="black"/>
<path d="M51.3999 33.69C51.3999 34.02 51.6699 34.3 52.0099 34.3H54.2499V31.45H51.3999V33.69Z" fill="black"/>
<path d="M57.1 33.69C57.1 34.02 56.83 34.3 56.49 34.3H54.25V31.45H57.1V33.69Z" fill="black"/>
<path d="M65.6499 33.69C65.6499 34.02 65.9199 34.3 66.2599 34.3H67.8999C68.2299 34.3 68.5099 34.03 68.5099 33.69V31.45H65.6599V33.69H65.6499Z" fill="black"/>
<path d="M73.5898 31.45H71.9498C71.6198 31.45 71.3398 31.72 71.3398 32.06V33.7C71.3398 34.03 71.6098 34.31 71.9498 34.31H74.1898V31.46H73.5898V31.45Z" fill="black"/>
<path d="M77.0502 31.45H74.2002V34.3H77.0502V31.45Z" fill="black"/>
<path d="M79.8998 31.45H77.0498V34.3H79.8998V31.45Z" fill="black"/>
<path d="M82.7499 31.45H79.8999V34.3H82.7499V31.45Z" fill="black"/>
<path d="M85.6 31.45H82.75V34.3H85.6V31.45Z" fill="black"/>
<path d="M87.8401 31.45C88.1701 31.45 88.4501 31.72 88.4501 32.06V34.3H85.6001V31.45H87.8401Z" fill="black"/>
<path d="M17.2001 34.3H14.3501V37.15H17.2001V34.3Z" fill="black"/>
<path d="M17.8102 37.15C17.4802 37.15 17.2002 36.88 17.2002 36.54V37.15H17.8102Z" fill="black"/>
<path d="M28.6002 34.91V34.3H27.9902C28.3302 34.3 28.6002 34.57 28.6002 34.91Z" fill="black"/>
<path d="M28.6001 36.54C28.6001 36.87 28.8701 37.15 29.2101 37.15H30.8501C31.1801 37.15 31.4601 36.88 31.4601 36.54V34.3H28.6001V36.54Z" fill="black"/>
<path d="M32.0602 34.3H31.4502V34.91C31.4502 34.57 31.7202 34.3 32.0602 34.3Z" fill="black"/>
<path d="M71.3502 36.54V34.9C71.3502 34.57 71.0802 34.29 70.7402 34.29H69.1002C68.7702 34.29 68.4902 34.56 68.4902 34.9V37.14H71.3402V36.54H71.3502Z" fill="black"/>
<path d="M71.9601 37.15C71.6301 37.15 71.3501 36.88 71.3501 36.54V37.15H71.9601Z" fill="black"/>
<path d="M77.0499 34.91V34.3H76.4399C76.7799 34.3 77.0499 34.57 77.0499 34.91Z" fill="black"/>
<path d="M77.0498 36.54C77.0498 36.87 77.3198 37.15 77.6598 37.15H79.8998V34.3H77.0498V36.54Z" fill="black"/>
<path d="M82.7499 34.3H79.8999V37.15H82.7499V34.3Z" fill="black"/>
<path d="M85.6 34.3H82.75V37.15H85.6V34.3Z" fill="black"/>
<path d="M88.4501 36.54C88.4501 36.87 88.1801 37.15 87.8401 37.15H85.6001V34.3H88.4501V36.54Z" fill="black"/>
<path d="M17.2001 37.15H14.3501V40H17.2001V37.15Z" fill="black"/>
<path d="M20.0502 37.15H17.2002V40H20.0502V37.15Z" fill="black"/>
<path d="M22.8998 37.15H20.0498V40H22.8998V37.15Z" fill="black"/>
<path d="M25.7499 37.15H22.8999V40H25.7499V37.15Z" fill="black"/>
<path d="M27.99 37.15C28.32 37.15 28.6 37.42 28.6 37.76V40H25.75V37.15H27.99Z" fill="black"/>
<path d="M68.5 39.39C68.5 39.72 68.77 40 69.11 40H71.35V37.15H68.5V39.39Z" fill="black"/>
<path d="M74.2001 37.15H71.3501V40H74.2001V37.15Z" fill="black"/>
<path d="M74.8102 40H76.4502C76.7802 40 77.0602 39.73 77.0602 39.39V37.75C77.0602 37.42 76.7902 37.14 76.4502 37.14H74.2002V40H74.8102Z" fill="black"/>
<path d="M79.9 37.76V37.15H79.29C79.63 37.15 79.9 37.42 79.9 37.76Z" fill="black"/>
<path d="M79.29 40C79.62 40 79.9 39.73 79.9 39.39V40H79.29Z" fill="black"/>
<path d="M82.7499 37.15H79.8999V40H82.7499V37.15Z" fill="black"/>
<path d="M85.6 39.39C85.6 39.72 85.33 40 84.99 40H82.75V37.15H85.6V39.39Z" fill="black"/>
<path d="M86.2101 37.15H85.6001V37.76C85.6001 37.42 85.8701 37.15 86.2101 37.15Z" fill="black"/>
<path d="M9.2599 40H10.8999C11.2299 40 11.5099 40.27 11.5099 40.61V42.25C11.5099 42.58 11.2399 42.86 10.8999 42.86H9.2599C8.9299 42.86 8.6499 42.59 8.6499 42.25V40.61C8.6499 40.27 8.9199 40 9.2599 40Z" fill="black"/>
<path d="M14.3501 42.24C14.3501 42.57 14.6201 42.85 14.9601 42.85H16.6001C16.9301 42.85 17.2101 42.58 17.2101 42.24V40H14.3601V42.24H14.3501Z" fill="black"/>
<path d="M17.8102 40H17.2002V40.61C17.2002 40.27 17.4702 40 17.8102 40Z" fill="black"/>
<path d="M25.7501 40.61V40H25.1401C25.4801 40 25.7501 40.27 25.7501 40.61Z" fill="black"/>
<path d="M25.75 42.24C25.75 42.57 26.02 42.85 26.36 42.85H28C28.33 42.85 28.61 42.58 28.61 42.24V40H25.76V42.24H25.75Z" fill="black"/>
<path d="M77.6598 40C77.3298 40 77.0498 40.27 77.0498 40.61V42.85H79.8998V40H77.6598Z" fill="black"/>
<path d="M82.7499 40H79.8999V42.85H82.7499V40Z" fill="black"/>
<path d="M83.36 40H82.75V40.61C82.75 40.27 83.02 40 83.36 40Z" fill="black"/>
<path d="M86.2101 40H87.8501C88.1801 40 88.4601 40.27 88.4601 40.61V42.25C88.4601 42.58 88.1901 42.86 87.8501 42.86H86.2101C85.8801 42.86 85.6001 42.59 85.6001 42.25V40.61C85.6001 40.27 85.8701 40 86.2101 40Z" fill="black"/>
<path d="M17.8102 42.85C17.4802 42.85 17.2002 43.12 17.2002 43.46V45.7H20.0502V42.85H17.8102Z" fill="black"/>
<path d="M22.8998 42.85H20.0498V45.7H22.8998V42.85Z" fill="black"/>
<path d="M23.5099 45.7H25.1499C25.4799 45.7 25.7599 45.43 25.7599 45.09V43.45C25.7599 43.12 25.4899 42.84 25.1499 42.84H22.8999V45.69H23.5099V45.7Z" fill="black"/>
<path d="M69.11 42.85C68.78 42.85 68.5 43.12 68.5 43.46V45.7H71.35V42.85H69.11Z" fill="black"/>
<path d="M71.9599 45.7H73.5999C73.9299 45.7 74.2099 45.43 74.2099 45.09V43.45C74.2099 43.12 73.9399 42.84 73.5999 42.84H71.3599V45.69H71.9599V45.7Z" fill="black"/>
<path d="M76.4399 45.7C76.7699 45.7 77.0499 45.43 77.0499 45.09V45.7H76.4399Z" fill="black"/>
<path d="M79.8998 42.85H77.0498V45.7H79.8998V42.85Z" fill="black"/>
<path d="M82.7499 42.85H79.8999V45.7H82.7499V42.85Z" fill="black"/>
<path d="M89.0602 42.85H90.7002C91.0302 42.85 91.3102 43.12 91.3102 43.46V45.1C91.3102 45.43 91.0402 45.71 90.7002 45.71H89.0602C88.7302 45.71 88.4502 45.44 88.4502 45.1V43.46C88.4502 43.12 88.7202 42.85 89.0602 42.85Z" fill="black"/>
<path d="M9.2599 45.7H10.8999C11.2299 45.7 11.5099 45.97 11.5099 46.31V47.95C11.5099 48.28 11.2399 48.56 10.8999 48.56H9.2599C8.9299 48.56 8.6499 48.29 8.6499 47.95V46.31C8.6499 45.97 8.9199 45.7 9.2599 45.7Z" fill="black"/>
<path d="M20.0502 45.7H17.2002V48.55H20.0502V45.7Z" fill="black"/>
<path d="M20.6598 45.7H20.0498V46.31C20.0498 45.97 20.3198 45.7 20.6598 45.7Z" fill="black"/>
<path d="M27.9902 45.7H26.3502C26.0202 45.7 25.7402 45.97 25.7402 46.31V47.95C25.7402 48.28 26.0102 48.56 26.3502 48.56H28.5902V45.7H27.9902Z" fill="black"/>
<path d="M30.8401 45.7C31.1701 45.7 31.4501 45.97 31.4501 46.31V48.55H28.6001V45.7H30.8401Z" fill="black"/>
<path d="M68.5 47.94C68.5 48.27 68.77 48.55 69.11 48.55H70.75C71.08 48.55 71.36 48.28 71.36 47.94V45.7H68.5V47.94Z" fill="black"/>
<path d="M71.9601 45.7H71.3501V46.31C71.3501 45.97 71.6201 45.7 71.9601 45.7Z" fill="black"/>
<path d="M73.5898 48.55C73.9198 48.55 74.1998 48.28 74.1998 47.94V48.55H73.5898Z" fill="black"/>
<path d="M74.8102 45.7C74.4802 45.7 74.2002 45.97 74.2002 46.31V48.55H77.0502V45.7H74.8102Z" fill="black"/>
<path d="M79.8998 45.7H77.0498V48.55H79.8998V45.7Z" fill="black"/>
<path d="M82.7499 45.7H79.8999V48.55H82.7499V45.7Z" fill="black"/>
<path d="M83.36 48.55C83.03 48.55 82.75 48.28 82.75 47.94V48.55H83.36Z" fill="black"/>
<path d="M14.3502 50.79V49.15C14.3502 48.82 14.0802 48.54 13.7402 48.54H12.1002C11.7702 48.54 11.4902 48.81 11.4902 49.15V51.39H14.3402V50.79H14.3502Z" fill="black"/>
<path d="M16.5898 51.4C16.9198 51.4 17.1998 51.13 17.1998 50.79V51.4H16.5898Z" fill="black"/>
<path d="M14.9601 51.4C14.6301 51.4 14.3501 51.13 14.3501 50.79V51.4H14.9601Z" fill="black"/>
<path d="M20.0502 48.55H17.2002V51.4H20.0502V48.55Z" fill="black"/>
<path d="M20.6598 51.4C20.3298 51.4 20.0498 51.13 20.0498 50.79V51.4H20.6598Z" fill="black"/>
<path d="M28.6002 49.16V48.55H27.9902C28.3302 48.55 28.6002 48.82 28.6002 49.16Z" fill="black"/>
<path d="M28.6001 50.79C28.6001 51.12 28.8701 51.4 29.2101 51.4H30.8501C31.1801 51.4 31.4601 51.13 31.4601 50.79V48.55H28.6001V50.79Z" fill="black"/>
<path d="M73.5898 48.55H71.9498C71.6198 48.55 71.3398 48.82 71.3398 49.16V50.8C71.3398 51.13 71.6098 51.41 71.9498 51.41H74.1898V48.56H73.5898V48.55Z" fill="black"/>
<path d="M77.0502 48.55H74.2002V51.4H77.0502V48.55Z" fill="black"/>
<path d="M79.8998 48.55H77.0498V51.4H79.8998V48.55Z" fill="black"/>
<path d="M82.7499 48.55H79.8999V51.4H82.7499V48.55Z" fill="black"/>
<path d="M85.6 48.55H82.75V51.4H85.6V48.55Z" fill="black"/>
<path d="M86.2101 51.4H87.8501C88.1801 51.4 88.4601 51.13 88.4601 50.79V49.15C88.4601 48.82 88.1901 48.54 87.8501 48.54H85.6001V51.39H86.2101V51.4Z" fill="black"/>
<path d="M11.5 53.64C11.5 53.97 11.77 54.25 12.11 54.25H14.35V51.4H11.5V53.64Z" fill="black"/>
<path d="M17.2001 51.4H14.3501V54.25H17.2001V51.4Z" fill="black"/>
<path d="M20.0502 51.4H17.2002V54.25H20.0502V51.4Z" fill="black"/>
<path d="M22.8998 51.4H20.0498V54.25H22.8998V51.4Z" fill="black"/>
<path d="M23.5099 54.25H25.1499C25.4799 54.25 25.7599 53.98 25.7599 53.64V52C25.7599 51.67 25.4899 51.39 25.1499 51.39H22.8999V54.24H23.5099V54.25Z" fill="black"/>
<path d="M82.7501 52.01V51.4H82.1401C82.4801 51.4 82.7501 51.67 82.7501 52.01Z" fill="black"/>
<path d="M85.6 51.4H82.75V54.25H85.6V51.4Z" fill="black"/>
<path d="M86.2101 51.4H85.6001V52.01C85.6001 51.67 85.8701 51.4 86.2101 51.4Z" fill="black"/>
<path d="M9.2599 54.25H10.8999C11.2299 54.25 11.5099 54.52 11.5099 54.86V56.5C11.5099 56.83 11.2399 57.11 10.8999 57.11H9.2599C8.9299 57.11 8.6499 56.84 8.6499 56.5V54.86C8.6499 54.52 8.9199 54.25 9.2599 54.25Z" fill="black"/>
<path d="M17.1998 54.86V54.25H16.5898C16.9298 54.25 17.1998 54.52 17.1998 54.86Z" fill="black"/>
<path d="M20.0502 54.25H17.2002V57.1H20.0502V54.25Z" fill="black"/>
<path d="M20.6598 54.25H20.0498V54.86C20.0498 54.52 20.3198 54.25 20.6598 54.25Z" fill="black"/>
<path d="M26.36 54.25C26.03 54.25 25.75 54.52 25.75 54.86V57.1H28.6V54.25H26.36Z" fill="black"/>
<path d="M29.2101 57.1H30.8501C31.1801 57.1 31.4601 56.83 31.4601 56.49V54.85C31.4601 54.52 31.1901 54.24 30.8501 54.24H28.6001V57.09H29.2101V57.1Z" fill="black"/>
<path d="M70.7402 54.25H69.1002C68.7702 54.25 68.4902 54.52 68.4902 54.86V56.5C68.4902 56.83 68.7602 57.11 69.1002 57.11H71.3402V54.26H70.7402V54.25Z" fill="black"/>
<path d="M71.9599 57.1H73.5999C73.9299 57.1 74.2099 56.83 74.2099 56.49V54.85C74.2099 54.52 73.9399 54.24 73.5999 54.24H71.3599V57.09H71.9599V57.1Z" fill="black"/>
<path d="M79.9 56.49V54.85C79.9 54.52 79.63 54.24 79.29 54.24H77.65C77.32 54.24 77.04 54.51 77.04 54.85V57.09H79.89V56.49H79.9Z" fill="black"/>
<path d="M82.1401 57.1C82.4701 57.1 82.7501 56.83 82.7501 56.49V57.1H82.1401Z" fill="black"/>
<path d="M80.5099 57.1C80.1799 57.1 79.8999 56.83 79.8999 56.49V57.1H80.5099Z" fill="black"/>
<path d="M85.6 54.25H82.75V57.1H85.6V54.25Z" fill="black"/>
<path d="M87.8398 57.1C88.1698 57.1 88.4498 56.83 88.4498 56.49V57.1H87.8398Z" fill="black"/>
<path d="M86.2101 57.1C85.8801 57.1 85.6001 56.83 85.6001 56.49V57.1H86.2101Z" fill="black"/>
<path d="M91.2999 56.49V54.85C91.2999 54.52 91.0299 54.24 90.6899 54.24H89.0499C88.7199 54.24 88.4399 54.51 88.4399 54.85V57.09H91.2899V56.49H91.2999Z" fill="black"/>
<path d="M12.11 57.1H13.75C14.08 57.1 14.36 57.37 14.36 57.71V59.35C14.36 59.68 14.09 59.96 13.75 59.96H12.11C11.78 59.96 11.5 59.69 11.5 59.35V57.71C11.5 57.37 11.77 57.1 12.11 57.1Z" fill="black"/>
<path d="M16.5898 59.95C16.9198 59.95 17.1998 59.68 17.1998 59.34V59.95H16.5898Z" fill="black"/>
<path d="M20.0502 57.1H17.2002V59.95H20.0502V57.1Z" fill="black"/>
<path d="M20.6598 59.95C20.3298 59.95 20.0498 59.68 20.0498 59.34V59.95H20.6598Z" fill="black"/>
<path d="M28.6 57.1H25.75V59.95H28.6V57.1Z" fill="black"/>
<path d="M29.2101 57.1H28.6001V57.71C28.6001 57.37 28.8701 57.1 29.2101 57.1Z" fill="black"/>
<path d="M79.8998 57.1H77.0498V59.95H79.8998V57.1Z" fill="black"/>
<path d="M82.7499 57.1H79.8999V59.95H82.7499V57.1Z" fill="black"/>
<path d="M85.6 57.1H82.75V59.95H85.6V57.1Z" fill="black"/>
<path d="M88.4501 57.1H85.6001V59.95H88.4501V57.1Z" fill="black"/>
<path d="M91.3002 57.1H88.4502V59.95H91.3002V57.1Z" fill="black"/>
<path d="M11.4999 62.19V60.55C11.4999 60.22 11.2299 59.94 10.8899 59.94H9.2599C8.9299 59.94 8.6499 60.21 8.6499 60.55V62.79H11.4999V62.19Z" fill="black"/>
<path d="M13.7402 62.8C14.0702 62.8 14.3502 62.53 14.3502 62.19V62.8H13.7402Z" fill="black"/>
<path d="M12.11 62.8C11.78 62.8 11.5 62.53 11.5 62.19V62.8H12.11Z" fill="black"/>
<path d="M14.9601 59.95C14.6301 59.95 14.3501 60.22 14.3501 60.56V62.8H17.2001V59.95H14.9601Z" fill="black"/>
<path d="M20.0502 59.95H17.2002V62.8H20.0502V59.95Z" fill="black"/>
<path d="M20.6601 62.8H22.3001C22.6301 62.8 22.9101 62.53 22.9101 62.19V60.55C22.9101 60.22 22.6401 59.94 22.3001 59.94H20.0601V62.79H20.6601V62.8Z" fill="black"/>
<path d="M25.75 62.19C25.75 62.52 26.02 62.8 26.36 62.8H28C28.33 62.8 28.61 62.53 28.61 62.19V59.95H25.76V62.19H25.75Z" fill="black"/>
<path d="M71.9601 59.95H73.6001C73.9301 59.95 74.2101 60.22 74.2101 60.56V62.2C74.2101 62.53 73.9401 62.81 73.6001 62.81H71.9601C71.6301 62.81 71.3501 62.54 71.3501 62.2V60.56C71.3501 60.22 71.6201 59.95 71.9601 59.95Z" fill="black"/>
<path d="M79.8998 59.95H77.0498V62.8H79.8998V59.95Z" fill="black"/>
<path d="M80.5099 59.95H79.8999V60.56C79.8999 60.22 80.1699 59.95 80.5099 59.95Z" fill="black"/>
<path d="M85.6002 60.56V59.95H84.9902C85.3302 59.95 85.6002 60.22 85.6002 60.56Z" fill="black"/>
<path d="M88.4501 59.95H85.6001V62.8H88.4501V59.95Z" fill="black"/>
<path d="M91.3002 62.19C91.3002 62.52 91.0302 62.8 90.6902 62.8H88.4502V59.95H91.3002V62.19Z" fill="black"/>
<path d="M11.4999 62.8H8.6499V65.65H11.4999V62.8Z" fill="black"/>
<path d="M14.35 62.8H11.5V65.65H14.35V62.8Z" fill="black"/>
<path d="M17.2001 62.8H14.3501V65.65H17.2001V62.8Z" fill="black"/>
<path d="M17.8102 62.8H17.2002V63.41C17.2002 63.07 17.4702 62.8 17.8102 62.8Z" fill="black"/>
<path d="M17.8102 65.65C17.4802 65.65 17.2002 65.38 17.2002 65.04V65.65H17.8102Z" fill="black"/>
<path d="M22.29 65.65C22.62 65.65 22.9 65.38 22.9 65.04V65.65H22.29Z" fill="black"/>
<path d="M25.7501 65.04V63.4C25.7501 63.07 25.4801 62.79 25.1401 62.79H23.5001C23.1701 62.79 22.8901 63.06 22.8901 63.4V65.64H25.7401V65.04H25.7501Z" fill="black"/>
<path d="M27.9902 65.65C28.3202 65.65 28.6002 65.38 28.6002 65.04V65.65H27.9902Z" fill="black"/>
<path d="M26.36 65.65C26.03 65.65 25.75 65.38 25.75 65.04V65.65H26.36Z" fill="black"/>
<path d="M29.2101 62.8C28.8801 62.8 28.6001 63.07 28.6001 63.41V65.65H31.4501V62.8H29.2101Z" fill="black"/>
<path d="M33.6902 62.8C34.0202 62.8 34.3002 63.07 34.3002 63.41V65.65H31.4502V62.8H33.6902Z" fill="black"/>
<path d="M34.9098 65.65C34.5798 65.65 34.2998 65.38 34.2998 65.04V65.65H34.9098Z" fill="black"/>
<path d="M39.3901 62.8H37.7501C37.4201 62.8 37.1401 63.07 37.1401 63.41V65.05C37.1401 65.38 37.4101 65.66 37.7501 65.66H40.0001V62.8H39.3901Z" fill="black"/>
<path d="M42.85 62.8H40V65.65H42.85V62.8Z" fill="black"/>
<path d="M45.7001 62.8H42.8501V65.65H45.7001V62.8Z" fill="black"/>
<path d="M46.3102 65.65H47.9502C48.2802 65.65 48.5602 65.38 48.5602 65.04V63.4C48.5602 63.07 48.2902 62.79 47.9502 62.79H45.7002V65.64H46.3102V65.65Z" fill="black"/>
<path d="M50.79 65.65C51.12 65.65 51.4 65.38 51.4 65.04V65.65H50.79Z" fill="black"/>
<path d="M52.0099 62.8C51.6799 62.8 51.3999 63.07 51.3999 63.41V65.65H54.2499V62.8H52.0099Z" fill="black"/>
<path d="M54.8598 65.65H56.4998C56.8298 65.65 57.1098 65.38 57.1098 65.04V63.4C57.1098 63.07 56.8398 62.79 56.4998 62.79H54.2598V65.64H54.8598V65.65Z" fill="black"/>
<path d="M67.8901 62.8H66.2501C65.9201 62.8 65.6401 63.07 65.6401 63.41V65.05C65.6401 65.38 65.9101 65.66 66.2501 65.66H68.4901V62.8H67.8901Z" fill="black"/>
<path d="M70.74 62.8C71.07 62.8 71.35 63.07 71.35 63.41V65.65H68.5V62.8H70.74Z" fill="black"/>
<path d="M71.9601 65.65C71.6301 65.65 71.3501 65.38 71.3501 65.04V65.65H71.9601Z" fill="black"/>
<path d="M76.4399 65.65C76.7699 65.65 77.0499 65.38 77.0499 65.04V65.65H76.4399Z" fill="black"/>
<path d="M79.8998 62.8H77.0498V65.65H79.8998V62.8Z" fill="black"/>
<path d="M80.5099 65.65C80.1799 65.65 79.8999 65.38 79.8999 65.04V65.65H80.5099Z" fill="black"/>
<path d="M85.6001 65.04C85.6001 65.37 85.8701 65.65 86.2101 65.65H87.8501C88.1801 65.65 88.4601 65.38 88.4601 65.04V62.8H85.6001V65.04Z" fill="black"/>
<path d="M89.0602 62.8H88.4502V63.41C88.4502 63.07 88.7202 62.8 89.0602 62.8Z" fill="black"/>
<path d="M8.6499 67.89C8.6499 68.22 8.9199 68.5 9.2599 68.5H10.8999C11.2299 68.5 11.5099 68.23 11.5099 67.89V65.65H8.6499V67.89Z" fill="black"/>
<path d="M12.11 65.65H11.5V66.26C11.5 65.92 11.77 65.65 12.11 65.65Z" fill="black"/>
<path d="M14.3502 66.26V65.65H13.7402C14.0802 65.65 14.3502 65.92 14.3502 66.26Z" fill="black"/>
<path d="M13.7402 68.5C14.0702 68.5 14.3502 68.23 14.3502 67.89V68.5H13.7402Z" fill="black"/>
<path d="M17.2001 65.65H14.3501V68.5H17.2001V65.65Z" fill="black"/>
<path d="M20.0502 65.65H17.2002V68.5H20.0502V65.65Z" fill="black"/>
<path d="M22.8998 65.65H20.0498V68.5H22.8998V65.65Z" fill="black"/>
<path d="M25.7499 65.65H22.8999V68.5H25.7499V65.65Z" fill="black"/>
<path d="M28.6 65.65H25.75V68.5H28.6V65.65Z" fill="black"/>
<path d="M31.4501 65.65H28.6001V68.5H31.4501V65.65Z" fill="black"/>
<path d="M34.3002 65.65H31.4502V68.5H34.3002V65.65Z" fill="black"/>
<path d="M36.5398 65.65C36.8698 65.65 37.1498 65.92 37.1498 66.26V68.5H34.2998V65.65H36.5398Z" fill="black"/>
<path d="M40.0001 66.26V65.65H39.3901C39.7301 65.65 40.0001 65.92 40.0001 66.26Z" fill="black"/>
<path d="M37.7599 68.5C37.4299 68.5 37.1499 68.23 37.1499 67.89V68.5H37.7599Z" fill="black"/>
<path d="M40 67.89C40 68.22 40.27 68.5 40.61 68.5H42.85V65.65H40V67.89Z" fill="black"/>
<path d="M45.7001 65.65H42.8501V68.5H45.7001V65.65Z" fill="black"/>
<path d="M46.3102 65.65H45.7002V66.26C45.7002 65.92 45.9702 65.65 46.3102 65.65Z" fill="black"/>
<path d="M50.79 65.65H49.15C48.82 65.65 48.54 65.92 48.54 66.26V67.9C48.54 68.23 48.81 68.51 49.15 68.51H51.39V65.66H50.79V65.65Z" fill="black"/>
<path d="M54.2499 65.65H51.3999V68.5H54.2499V65.65Z" fill="black"/>
<path d="M54.86 65.65H54.25V66.26C54.25 65.92 54.52 65.65 54.86 65.65Z" fill="black"/>
<path d="M56.4902 68.5C56.8202 68.5 57.1002 68.23 57.1002 67.89V68.5H56.4902Z" fill="black"/>
<path d="M54.86 68.5C54.53 68.5 54.25 68.23 54.25 67.89V68.5H54.86Z" fill="black"/>
<path d="M57.7101 65.65C57.3801 65.65 57.1001 65.92 57.1001 66.26V68.5H59.9501V65.65H57.7101Z" fill="black"/>
<path d="M62.8002 65.65H59.9502V68.5H62.8002V65.65Z" fill="black"/>
<path d="M63.4098 68.5H65.0498C65.3798 68.5 65.6598 68.23 65.6598 67.89V66.25C65.6598 65.92 65.3898 65.64 65.0498 65.64H62.7998V68.49H63.4098V68.5Z" fill="black"/>
<path d="M68.5001 66.26V65.65H67.8901C68.2301 65.65 68.5001 65.92 68.5001 66.26Z" fill="black"/>
<path d="M68.5 67.89C68.5 68.22 68.77 68.5 69.11 68.5H71.35V65.65H68.5V67.89Z" fill="black"/>
<path d="M74.2001 65.65H71.3501V68.5H74.2001V65.65Z" fill="black"/>
<path d="M77.0502 65.65H74.2002V68.5H77.0502V65.65Z" fill="black"/>
<path d="M79.8998 65.65H77.0498V68.5H79.8998V65.65Z" fill="black"/>
<path d="M80.5099 68.5H82.1499C82.4799 68.5 82.7599 68.23 82.7599 67.89V66.25C82.7599 65.92 82.4899 65.64 82.1499 65.64H79.8999V68.49H80.5099V68.5Z" fill="black"/>
<path d="M89.0602 65.65H90.7002C91.0302 65.65 91.3102 65.92 91.3102 66.26V67.9C91.3102 68.23 91.0402 68.51 90.7002 68.51H89.0602C88.7302 68.51 88.4502 68.24 88.4502 67.9V66.26C88.4502 65.92 88.7202 65.65 89.0602 65.65Z" fill="black"/>
<path d="M13.7402 68.5H12.1002C11.7702 68.5 11.4902 68.77 11.4902 69.11V70.75C11.4902 71.08 11.7602 71.36 12.1002 71.36H14.3402V68.5H13.7402Z" fill="black"/>
<path d="M17.2001 70.74C17.2001 71.07 16.9301 71.35 16.5901 71.35H14.3501V68.5H17.2001V70.74Z" fill="black"/>
<path d="M17.8102 68.5H17.2002V69.11C17.2002 68.77 17.4702 68.5 17.8102 68.5Z" fill="black"/>
<path d="M20.0499 69.11V68.5H19.4399C19.7799 68.5 20.0499 68.77 20.0499 69.11Z" fill="black"/>
<path d="M19.4399 71.35C19.7699 71.35 20.0499 71.08 20.0499 70.74V71.35H19.4399Z" fill="black"/>
<path d="M22.8998 68.5H20.0498V71.35H22.8998V68.5Z" fill="black"/>
<path d="M23.5099 68.5H22.8999V69.11C22.8999 68.77 23.1699 68.5 23.5099 68.5Z" fill="black"/>
<path d="M31.4498 69.11V68.5H30.8398C31.1798 68.5 31.4498 68.77 31.4498 69.11Z" fill="black"/>
<path d="M34.3002 68.5H31.4502V71.35H34.3002V68.5Z" fill="black"/>
<path d="M37.1498 68.5H34.2998V71.35H37.1498V68.5Z" fill="black"/>
<path d="M39.3899 68.5C39.7199 68.5 39.9999 68.77 39.9999 69.11V71.35H37.1499V68.5H39.3899Z" fill="black"/>
<path d="M42.8502 69.11V68.5H42.2402C42.5802 68.5 42.8502 68.77 42.8502 69.11Z" fill="black"/>
<path d="M42.2402 71.35C42.5702 71.35 42.8502 71.08 42.8502 70.74V71.35H42.2402Z" fill="black"/>
<path d="M40.61 71.35C40.28 71.35 40 71.08 40 70.74V71.35H40.61Z" fill="black"/>
<path d="M45.7001 68.5H42.8501V71.35H45.7001V68.5Z" fill="black"/>
<path d="M46.3102 71.35C45.9802 71.35 45.7002 71.08 45.7002 70.74V71.35H46.3102Z" fill="black"/>
<path d="M51.4 69.11V68.5H50.79C51.13 68.5 51.4 68.77 51.4 69.11Z" fill="black"/>
<path d="M50.79 71.35C51.12 71.35 51.4 71.08 51.4 70.74V71.35H50.79Z" fill="black"/>
<path d="M54.2499 68.5H51.3999V71.35H54.2499V68.5Z" fill="black"/>
<path d="M57.1 68.5H54.25V71.35H57.1V68.5Z" fill="black"/>
<path d="M59.9501 68.5H57.1001V71.35H59.9501V68.5Z" fill="black"/>
<path d="M60.5602 68.5H59.9502V69.11C59.9502 68.77 60.2202 68.5 60.5602 68.5Z" fill="black"/>
<path d="M60.5602 71.35C60.2302 71.35 59.9502 71.08 59.9502 70.74V71.35H60.5602Z" fill="black"/>
<path d="M66.2599 68.5H67.8999C68.2299 68.5 68.5099 68.77 68.5099 69.11V70.75C68.5099 71.08 68.2399 71.36 67.8999 71.36H66.2599C65.9299 71.36 65.6499 71.09 65.6499 70.75V69.11C65.6499 68.77 65.9199 68.5 66.2599 68.5Z" fill="black"/>
<path d="M19.4399 71.35H17.7999C17.4699 71.35 17.1899 71.62 17.1899 71.96V73.6C17.1899 73.93 17.4599 74.21 17.7999 74.21H20.0399V71.36H19.4399V71.35Z" fill="black"/>
<path d="M22.8998 71.35H20.0498V74.2H22.8998V71.35Z" fill="black"/>
<path d="M26.36 71.35H28C28.33 71.35 28.61 71.62 28.61 71.96V73.6C28.61 73.93 28.34 74.21 28 74.21H26.36C26.03 74.21 25.75 73.94 25.75 73.6V71.96C25.75 71.62 26.02 71.35 26.36 71.35Z" fill="black"/>
<path d="M34.3002 71.35H31.4502V74.2H34.3002V71.35Z" fill="black"/>
<path d="M37.1498 71.35H34.2998V74.2H37.1498V71.35Z" fill="black"/>
<path d="M39.9999 71.35H37.1499V74.2H39.9999V71.35Z" fill="black"/>
<path d="M42.85 71.35H40V74.2H42.85V71.35Z" fill="black"/>
<path d="M45.7001 71.35H42.8501V74.2H45.7001V71.35Z" fill="black"/>
<path d="M48.5502 71.35H45.7002V74.2H48.5502V71.35Z" fill="black"/>
<path d="M51.3998 71.35H48.5498V74.2H51.3998V71.35Z" fill="black"/>
<path d="M54.2499 71.35H51.3999V74.2H54.2499V71.35Z" fill="black"/>
<path d="M57.1 71.35H54.25V74.2H57.1V71.35Z" fill="black"/>
<path d="M59.9501 71.35H57.1001V74.2H59.9501V71.35Z" fill="black"/>
<path d="M62.8002 71.35H59.9502V74.2H62.8002V71.35Z" fill="black"/>
<path d="M63.4098 74.2H65.0498C65.3798 74.2 65.6598 73.93 65.6598 73.59V71.95C65.6598 71.62 65.3898 71.34 65.0498 71.34H62.7998V74.19H63.4098V74.2Z" fill="black"/>
<path d="M10.8901 77.05C11.2201 77.05 11.5001 76.78 11.5001 76.44V77.05H10.8901Z" fill="black"/>
<path d="M14.3502 76.44V74.8C14.3502 74.47 14.0802 74.19 13.7402 74.19H12.1002C11.7702 74.19 11.4902 74.46 11.4902 74.8V77.04H14.3402V76.44H14.3502Z" fill="black"/>
<path d="M14.9601 77.05C14.6301 77.05 14.3501 76.78 14.3501 76.44V77.05H14.9601Z" fill="black"/>
<path d="M20.0499 74.81V74.2H19.4399C19.7799 74.2 20.0499 74.47 20.0499 74.81Z" fill="black"/>
<path d="M22.8998 74.2H20.0498V77.05H22.8998V74.2Z" fill="black"/>
<path d="M23.5099 77.05C23.1799 77.05 22.8999 76.78 22.8999 76.44V77.05H23.5099Z" fill="black"/>
<path d="M30.8398 77.05C31.1698 77.05 31.4498 76.78 31.4498 76.44V77.05H30.8398Z" fill="black"/>
<path d="M34.3002 74.2H31.4502V77.05H34.3002V74.2Z" fill="black"/>
<path d="M34.9098 74.2H34.2998V74.81C34.2998 74.47 34.5698 74.2 34.9098 74.2Z" fill="black"/>
<path d="M37.15 74.81V74.2H36.54C36.88 74.2 37.15 74.47 37.15 74.81Z" fill="black"/>
<path d="M37.1499 76.44C37.1499 76.77 37.4199 77.05 37.7599 77.05H39.9999V74.2H37.1499V76.44Z" fill="black"/>
<path d="M42.85 74.2H40V77.05H42.85V74.2Z" fill="black"/>
<path d="M43.4601 74.2H42.8501V74.81C42.8501 74.47 43.1201 74.2 43.4601 74.2Z" fill="black"/>
<path d="M45.6998 74.81V74.2H45.0898C45.4298 74.2 45.6998 74.47 45.6998 74.81Z" fill="black"/>
<path d="M45.7002 76.44C45.7002 76.77 45.9702 77.05 46.3102 77.05H47.9502C48.2802 77.05 48.5602 76.78 48.5602 76.44V74.2H45.7002V76.44Z" fill="black"/>
<path d="M49.1598 74.2H48.5498V74.81C48.5498 74.47 48.8198 74.2 49.1598 74.2Z" fill="black"/>
<path d="M54.2501 74.81V74.2H53.6401C53.9801 74.2 54.2501 74.47 54.2501 74.81Z" fill="black"/>
<path d="M57.1 74.2H54.25V77.05H57.1V74.2Z" fill="black"/>
<path d="M59.9501 74.2H57.1001V77.05H59.9501V74.2Z" fill="black"/>
<path d="M62.8002 76.44C62.8002 76.77 62.5302 77.05 62.1902 77.05H59.9502V74.2H62.8002V76.44Z" fill="black"/>
<path d="M63.4098 74.2H62.7998V74.81C62.7998 74.47 63.0698 74.2 63.4098 74.2Z" fill="black"/>
<path d="M68.5001 76.44V74.8C68.5001 74.47 68.2301 74.19 67.8901 74.19H66.2501C65.9201 74.19 65.6401 74.46 65.6401 74.8V77.04H68.4901V76.44H68.5001Z" fill="black"/>
<path d="M10.8899 77.05H9.2599C8.9299 77.05 8.6499 77.32 8.6499 77.66V79.3C8.6499 79.63 8.9199 79.91 9.2599 79.91H11.4999V77.06H10.8899V77.05Z" fill="black"/>
<path d="M14.35 77.05H11.5V79.9H14.35V77.05Z" fill="black"/>
<path d="M16.5901 77.05C16.9201 77.05 17.2001 77.32 17.2001 77.66V79.9H14.3501V77.05H16.5901Z" fill="black"/>
<path d="M19.4399 79.9C19.7699 79.9 20.0499 79.63 20.0499 79.29V79.9H19.4399Z" fill="black"/>
<path d="M17.8102 79.9C17.4802 79.9 17.2002 79.63 17.2002 79.29V79.9H17.8102Z" fill="black"/>
<path d="M22.8998 77.05H20.0498V79.9H22.8998V77.05Z" fill="black"/>
<path d="M25.7499 77.05H22.8999V79.9H25.7499V77.05Z" fill="black"/>
<path d="M28.6 77.05H25.75V79.9H28.6V77.05Z" fill="black"/>
<path d="M31.4501 77.05H28.6001V79.9H31.4501V77.05Z" fill="black"/>
<path d="M34.3002 77.05H31.4502V79.9H34.3002V77.05Z" fill="black"/>
<path d="M34.9098 79.9C34.5798 79.9 34.2998 79.63 34.2998 79.29V79.9H34.9098Z" fill="black"/>
<path d="M40.0001 77.66V77.05H39.3901C39.7301 77.05 40.0001 77.32 40.0001 77.66Z" fill="black"/>
<path d="M39.3901 79.9C39.7201 79.9 40.0001 79.63 40.0001 79.29V79.9H39.3901Z" fill="black"/>
<path d="M42.85 77.05H40V79.9H42.85V77.05Z" fill="black"/>
<path d="M43.4601 79.9C43.1301 79.9 42.8501 79.63 42.8501 79.29V79.9H43.4601Z" fill="black"/>
<path d="M53.6401 79.9C53.9701 79.9 54.2501 79.63 54.2501 79.29V79.9H53.6401Z" fill="black"/>
<path d="M57.1 77.05H54.25V79.9H57.1V77.05Z" fill="black"/>
<path d="M57.7101 77.05H57.1001V77.66C57.1001 77.32 57.3701 77.05 57.7101 77.05Z" fill="black"/>
<path d="M57.7101 79.9C57.3801 79.9 57.1001 79.63 57.1001 79.29V79.9H57.7101Z" fill="black"/>
<path d="M68.4999 77.05H65.6499V79.9H68.4999V77.05Z" fill="black"/>
<path d="M11.5001 80.51V79.9H10.8901C11.2301 79.9 11.5001 80.17 11.5001 80.51Z" fill="black"/>
<path d="M11.5 82.14C11.5 82.47 11.77 82.75 12.11 82.75H14.35V79.9H11.5V82.14Z" fill="black"/>
<path d="M17.2001 79.9H14.3501V82.75H17.2001V79.9Z" fill="black"/>
<path d="M20.0502 79.9H17.2002V82.75H20.0502V79.9Z" fill="black"/>
<path d="M22.8998 79.9H20.0498V82.75H22.8998V79.9Z" fill="black"/>
<path d="M25.7499 82.14C25.7499 82.47 25.4799 82.75 25.1399 82.75H22.8999V79.9H25.7499V82.14Z" fill="black"/>
<path d="M26.36 79.9H25.75V80.51C25.75 80.17 26.02 79.9 26.36 79.9Z" fill="black"/>
<path d="M28.6002 80.51V79.9H27.9902C28.3302 79.9 28.6002 80.17 28.6002 80.51Z" fill="black"/>
<path d="M28.6001 82.14C28.6001 82.47 28.8701 82.75 29.2101 82.75H31.4501V79.9H28.6001V82.14Z" fill="black"/>
<path d="M34.3002 79.9H31.4502V82.75H34.3002V79.9Z" fill="black"/>
<path d="M37.1498 79.9H34.2998V82.75H37.1498V79.9Z" fill="black"/>
<path d="M39.9999 79.9H37.1499V82.75H39.9999V79.9Z" fill="black"/>
<path d="M42.85 79.9H40V82.75H42.85V79.9Z" fill="black"/>
<path d="M45.0901 79.9C45.4201 79.9 45.7001 80.17 45.7001 80.51V82.75H42.8501V79.9H45.0901Z" fill="black"/>
<path d="M46.3102 82.75C45.9802 82.75 45.7002 82.48 45.7002 82.14V82.75H46.3102Z" fill="black"/>
<path d="M50.79 79.9H49.15C48.82 79.9 48.54 80.17 48.54 80.51V82.15C48.54 82.48 48.81 82.76 49.15 82.76H51.39V79.9H50.79Z" fill="black"/>
<path d="M54.2499 79.9H51.3999V82.75H54.2499V79.9Z" fill="black"/>
<path d="M57.1 79.9H54.25V82.75H57.1V79.9Z" fill="black"/>
<path d="M59.9501 79.9H57.1001V82.75H59.9501V79.9Z" fill="black"/>
<path d="M60.56 82.75H62.2C62.53 82.75 62.81 82.48 62.81 82.14V80.5C62.81 80.17 62.54 79.89 62.2 79.89H59.96V82.74H60.56V82.75Z" fill="black"/>
<path d="M68.4999 79.9H65.6499V82.75H68.4999V79.9Z" fill="black"/>
<path d="M9.2599 82.75H10.8999C11.2299 82.75 11.5099 83.02 11.5099 83.36V85C11.5099 85.33 11.2399 85.61 10.8999 85.61H9.2599C8.9299 85.61 8.6499 85.34 8.6499 85V83.36C8.6499 83.02 8.9199 82.75 9.2599 82.75Z" fill="black"/>
<path d="M20.0499 83.36V82.75H19.4399C19.7799 82.75 20.0499 83.02 20.0499 83.36Z" fill="black"/>
<path d="M20.0498 84.99C20.0498 85.32 20.3198 85.6 20.6598 85.6H22.2998C22.6298 85.6 22.9098 85.33 22.9098 84.99V82.75H20.0598V84.99H20.0498Z" fill="black"/>
<path d="M23.5099 82.75H22.8999V83.36C22.8999 83.02 23.1699 82.75 23.5099 82.75Z" fill="black"/>
<path d="M31.4498 83.36V82.75H30.8398C31.1798 82.75 31.4498 83.02 31.4498 83.36Z" fill="black"/>
<path d="M30.8398 85.6C31.1698 85.6 31.4498 85.33 31.4498 84.99V85.6H30.8398Z" fill="black"/>
<path d="M34.3002 82.75H31.4502V85.6H34.3002V82.75Z" fill="black"/>
<path d="M34.9098 82.75H34.2998V83.36C34.2998 83.02 34.5698 82.75 34.9098 82.75Z" fill="black"/>
<path d="M42.8502 83.36V82.75H42.2402C42.5802 82.75 42.8502 83.02 42.8502 83.36Z" fill="black"/>
<path d="M42.8501 84.99C42.8501 85.32 43.1201 85.6 43.4601 85.6H45.7001V82.75H42.8501V84.99Z" fill="black"/>
<path d="M46.3102 85.6H47.9502C48.2802 85.6 48.5602 85.33 48.5602 84.99V83.35C48.5602 83.02 48.2902 82.74 47.9502 82.74H45.7002V85.59H46.3102V85.6Z" fill="black"/>
<path d="M57.1002 83.36V82.75H56.4902C56.8302 82.75 57.1002 83.02 57.1002 83.36Z" fill="black"/>
<path d="M56.4902 85.6C56.8202 85.6 57.1002 85.33 57.1002 84.99V85.6H56.4902Z" fill="black"/>
<path d="M59.9501 82.75H57.1001V85.6H59.9501V82.75Z" fill="black"/>
<path d="M60.5602 82.75H59.9502V83.36C59.9502 83.02 60.2202 82.75 60.5602 82.75Z" fill="black"/>
<path d="M68.4999 82.75H65.6499V85.6H68.4999V82.75Z" fill="black"/>
<path d="M10.8901 88.45C11.2201 88.45 11.5001 88.18 11.5001 87.84V88.45H10.8901Z" fill="black"/>
<path d="M12.11 85.6C11.78 85.6 11.5 85.87 11.5 86.21V88.45H14.35V85.6H12.11Z" fill="black"/>
<path d="M17.2001 85.6H14.3501V88.45H17.2001V85.6Z" fill="black"/>
<path d="M17.8102 88.45H19.4502C19.7802 88.45 20.0602 88.18 20.0602 87.84V86.2C20.0602 85.87 19.7902 85.59 19.4502 85.59H17.2002V88.44H17.8102V88.45Z" fill="black"/>
<path d="M25.1401 88.45C25.4701 88.45 25.7501 88.18 25.7501 87.84V88.45H25.1401Z" fill="black"/>
<path d="M26.36 85.6C26.03 85.6 25.75 85.87 25.75 86.21V88.45H28.6V85.6H26.36Z" fill="black"/>
<path d="M31.4501 85.6H28.6001V88.45H31.4501V85.6Z" fill="black"/>
<path d="M34.3002 87.84C34.3002 88.17 34.0302 88.45 33.6902 88.45H31.4502V85.6H34.3002V87.84Z" fill="black"/>
<path d="M52.0099 85.6C51.6799 85.6 51.3999 85.87 51.3999 86.21V88.45H54.2499V85.6H52.0099Z" fill="black"/>
<path d="M57.1 85.6H54.25V88.45H57.1V85.6Z" fill="black"/>
<path d="M59.9501 87.84C59.9501 88.17 59.6801 88.45 59.3401 88.45H57.1001V85.6H59.9501V87.84Z" fill="black"/>
<path d="M65.6499 87.84C65.6499 88.17 65.9199 88.45 66.2599 88.45H67.8999C68.2299 88.45 68.5099 88.18 68.5099 87.84V85.6H65.6599V87.84H65.6499Z" fill="black"/>
<path d="M10.8899 88.45H9.2599C8.9299 88.45 8.6499 88.72 8.6499 89.06V90.7C8.6499 91.03 8.9199 91.31 9.2599 91.31H11.4999V88.46H10.8899V88.45Z" fill="black"/>
<path d="M14.35 88.45H11.5V91.3H14.35V88.45Z" fill="black"/>
<path d="M17.2001 90.69C17.2001 91.02 16.9301 91.3 16.5901 91.3H14.3501V88.45H17.2001V90.69Z" fill="black"/>
<path d="M17.8102 88.45H17.2002V89.06C17.2002 88.72 17.4702 88.45 17.8102 88.45Z" fill="black"/>
<path d="M22.29 88.45H20.65C20.32 88.45 20.04 88.72 20.04 89.06V90.7C20.04 91.03 20.31 91.31 20.65 91.31H22.89V88.46H22.29V88.45Z" fill="black"/>
<path d="M25.7499 88.45H22.8999V91.3H25.7499V88.45Z" fill="black"/>
<path d="M28.6 88.45H25.75V91.3H28.6V88.45Z" fill="black"/>
<path d="M31.4501 90.69C31.4501 91.02 31.1801 91.3 30.8401 91.3H28.6001V88.45H31.4501V90.69Z" fill="black"/>
<path d="M32.0602 88.45H31.4502V89.06C31.4502 88.72 31.7202 88.45 32.0602 88.45Z" fill="black"/>
<path d="M36.54 88.45H34.9C34.57 88.45 34.29 88.72 34.29 89.06V90.7C34.29 91.03 34.56 91.31 34.9 91.31H37.14V88.46H36.54V88.45Z" fill="black"/>
<path d="M37.7602 91.3H39.4002C39.7302 91.3 40.0102 91.03 40.0102 90.69V89.05C40.0102 88.72 39.7402 88.44 39.4002 88.44H37.1602V91.29H37.7602V91.3Z" fill="black"/>
<path d="M45.0898 88.45H43.4498C43.1198 88.45 42.8398 88.72 42.8398 89.06V90.7C42.8398 91.03 43.1098 91.31 43.4498 91.31H45.6898V88.46H45.0898V88.45Z" fill="black"/>
<path d="M46.3102 91.3H47.9502C48.2802 91.3 48.5602 91.03 48.5602 90.69V89.05C48.5602 88.72 48.2902 88.44 47.9502 88.44H45.7002V91.29H46.3102V91.3Z" fill="black"/>
<path d="M51.3999 90.69C51.3999 91.02 51.6699 91.3 52.0099 91.3H54.2499V88.45H51.3999V90.69Z" fill="black"/>
<path d="M57.1 90.69C57.1 91.02 56.83 91.3 56.49 91.3H54.25V88.45H57.1V90.69Z" fill="black"/>
<path d="M57.7101 88.45H57.1001V89.06C57.1001 88.72 57.3701 88.45 57.7101 88.45Z" fill="black"/>
<path d="M62.1899 88.45H60.5499C60.2199 88.45 59.9399 88.72 59.9399 89.06V90.7C59.9399 91.03 60.2099 91.31 60.5499 91.31H62.7899V88.46H62.1899V88.45Z" fill="black"/>
<path d="M63.4098 91.3H65.0498C65.3798 91.3 65.6598 91.03 65.6598 90.69V89.05C65.6598 88.72 65.3898 88.44 65.0498 88.44H62.7998V91.29H63.4098V91.3Z" fill="black"/>
<path d="M71.9498 8.65001C71.6198 8.65001 71.3398 8.92001 71.3398 9.26001V11.51V14.36V17.21V20.06V22.91V25.76V28C71.3398 28.33 71.6098 28.61 71.9498 28.61H90.6998C91.0298 28.61 91.3098 28.34 91.3098 28V25.75V22.9V20.05V17.2V14.35V11.5V9.25001C91.3098 8.92001 91.0398 8.64001 90.6998 8.64001C90.6998 8.65001 71.9498 8.65001 71.9498 8.65001ZM88.4498 14.35V17.2V20.05V22.9V25.4C88.4498 25.59 88.2898 25.75 88.0998 25.75H74.5499C74.3599 25.75 74.1998 25.59 74.1998 25.4V22.9V20.05V17.2V14.35V11.85C74.1998 11.66 74.3599 11.5 74.5499 11.5H88.0998C88.2898 11.5 88.4498 11.66 88.4498 11.85V14.35Z" fill="black"/>
<path d="M85.6 20.05V17.2V14.95C85.6 14.62 85.33 14.34 84.99 14.34H77.65C77.32 14.34 77.04 14.61 77.04 14.95V17.2V20.05V22.3C77.04 22.63 77.31 22.91 77.65 22.91H84.99C85.32 22.91 85.6 22.64 85.6 22.3V20.05Z" fill="black"/>
<path d="M71.9498 71.35C71.6198 71.35 71.3398 71.62 71.3398 71.96V74.21V77.06V79.91V82.76V85.61V88.46V90.71C71.3398 91.04 71.6098 91.32 71.9498 91.32H90.6998C91.0298 91.32 91.3098 91.05 91.3098 90.71V88.46V85.6V82.75V79.9V77.05V74.2V71.95C91.3098 71.62 91.0398 71.34 90.6998 71.34C90.6998 71.35 71.9498 71.35 71.9498 71.35ZM88.4498 77.05V79.9V82.75V85.6V88.1C88.4498 88.29 88.2898 88.45 88.0998 88.45H74.5499C74.3599 88.45 74.1998 88.29 74.1998 88.1V85.6V82.75V79.9V77.05V74.55C74.1998 74.36 74.3599 74.2 74.5499 74.2H88.0998C88.2898 74.2 88.4498 74.36 88.4498 74.55V77.05Z" fill="black"/>
<path d="M85.6 82.75V79.9V77.65C85.6 77.32 85.33 77.04 84.99 77.04H77.65C77.32 77.04 77.04 77.31 77.04 77.65V79.9V82.75V85C77.04 85.33 77.31 85.61 77.65 85.61H84.99C85.32 85.61 85.6 85.34 85.6 85V82.75Z" fill="black"/>
<path d="M9.25014 8.65001C8.92014 8.65001 8.64014 8.92001 8.64014 9.26001V11.51V14.36V17.21V20.06V22.91V25.76V28C8.64014 28.33 8.91014 28.61 9.25014 28.61H28.0001C28.3301 28.61 28.6101 28.34 28.6101 28V25.75V22.9V20.05V17.2V14.35V11.5V9.25001C28.6101 8.92001 28.3401 8.64001 28.0001 8.64001C28.0001 8.65001 9.25014 8.65001 9.25014 8.65001ZM25.7501 14.35V17.2V20.05V22.9V25.4C25.7501 25.59 25.5901 25.75 25.4001 25.75H11.8501C11.6601 25.75 11.5001 25.59 11.5001 25.4V22.9V20.05V17.2V14.35V11.85C11.5001 11.66 11.6601 11.5 11.8501 11.5H25.4001C25.5901 11.5 25.7501 11.66 25.7501 11.85V14.35Z" fill="black"/>
<path d="M22.8998 20.05V17.2V14.95C22.8998 14.62 22.6298 14.34 22.2898 14.34H14.9498C14.6198 14.34 14.3398 14.61 14.3398 14.95V17.2V20.05V22.3C14.3398 22.63 14.6098 22.91 14.9498 22.91H22.2898C22.6198 22.91 22.8998 22.64 22.8998 22.3V20.05Z" fill="black"/>
<path fill-rule="evenodd" clip-rule="evenodd" d="M66.2 36.9362L62.5027 57.5333C62.1135 60.2194 61.0554 61.2783 58.8054 61.2783H56.0324C54.0854 61.2783 53.8654 60.0063 53.2595 57.5333L49.5622 47.2348C49.4755 46.8508 49.7351 47.2348 49.5622 47.2348C49.3892 47.2348 48.7245 46.8508 48.6378 47.2348L45.8649 57.5333C45.2593 60.0063 44.115 61.2783 42.1676 61.2783H39.3946C37.1442 61.2783 36.0865 60.2194 35.6973 57.5333L32 36.9362C32 36.5523 32.5351 36 32.9243 36H37.5459C37.8919 36 38.4273 36.4673 38.4703 36.9362L40.3189 55.6609C40.3623 56.0444 41.0703 55.6609 41.2432 55.6609C41.4162 55.6609 41.1566 56.0444 41.2432 55.6609L44.9405 44.4261C45.2006 43.4031 45.8531 41.6174 47.7135 41.6174H50.4865C52.3465 41.6174 52.9994 43.4031 53.2595 44.4261L56.9568 55.6609C57.0434 56.0444 56.7834 55.6609 56.9568 55.6609C57.1293 55.6609 57.8373 56.0444 57.8811 55.6609L59.7297 36.9362C59.7739 36.4673 60.3085 36 60.6541 36H65.2757C65.6653 36 66.2 36.5523 66.2 36.9362Z" fill="black"/>
</svg>
