<svg width="57" height="56" viewBox="0 0 57 56" fill="none" xmlns="http://www.w3.org/2000/svg">
<rect x="0.867188" y="0.320496" width="55.6632" height="55.6632" rx="27.8316" fill="#D5E9E2"/>
<mask id="mask0" mask-type="alpha" maskUnits="userSpaceOnUse" x="0" y="0" width="57" height="56">
<rect x="0.867188" y="0.320496" width="55.6632" height="55.6632" rx="27.8316" fill="white"/>
</mask>
<g mask="url(#mask0)">
<path fill-rule="evenodd" clip-rule="evenodd" d="M39.9177 31.6917L30.9828 31.7469C29.35 33.1641 27.0187 35.4679 27.0288 37.0754L27.8124 72.2794C27.8441 72.8388 28.3101 73.2745 28.8726 73.271L42.5485 73.1863C43.1106 73.1824 43.5713 72.741 43.5964 72.1816L43.9382 36.9701C43.928 35.3626 41.5681 33.0882 39.9177 31.6917Z" fill="#FDE6D0"/>
<path fill-rule="evenodd" clip-rule="evenodd" d="M38.254 28.3536L37.7785 18.7178L38.4872 18.7135L38.4801 17.5888L37.7692 17.1715L37.7609 15.9062L35.352 15.9215L32.9428 15.9363L32.9512 17.2012L32.2451 17.6273L32.2522 18.7519L32.9608 18.7475C32.9608 18.7475 32.662 26.8877 32.607 28.3865C32.6059 28.4159 38.254 28.3536 38.254 28.3536Z" fill="#F48C2C"/>
<path fill-rule="evenodd" clip-rule="evenodd" d="M38.3476 30.2414L37.779 18.7178L38.4876 18.7135L38.4806 17.5888L37.7697 17.1715L37.7613 15.9062L35.3525 15.9215L32.9433 15.9363L32.9516 17.2012L32.2456 17.6273L32.2526 18.7519L32.9613 18.7475L32.538 30.2777C32.538 30.2777 27.0139 34.3883 27.0293 36.8486L27.8124 71.9074C27.8442 72.464 28.3106 72.8983 28.8726 72.8948L42.5486 72.8101C43.1106 72.8066 43.5713 72.3666 43.5964 71.8095L43.9382 36.7438C43.9228 34.2834 38.3476 30.2414 38.3476 30.2414Z" stroke="#7F1E69" stroke-width="0.993986" stroke-linecap="round" stroke-linejoin="round"/>
<path fill-rule="evenodd" clip-rule="evenodd" d="M29.4209 67.9568L41.5896 67.9568L41.5896 41.1313L29.4209 41.1313L29.4209 67.9568Z" fill="#ECCBE5"/>
<mask id="mask1" mask-type="alpha" maskUnits="userSpaceOnUse" x="29" y="41" width="13" height="27">
<path fill-rule="evenodd" clip-rule="evenodd" d="M29.4209 67.9568L41.5896 67.9568L41.5896 41.1313L29.4209 41.1313L29.4209 67.9568Z" fill="white"/>
</mask>
<g mask="url(#mask1)">
<path fill-rule="evenodd" clip-rule="evenodd" d="M29.4214 60.7065L29.4214 72.982H31.2092L38.7421 59.7419L32.21 55.8051L29.4214 60.7065Z" fill="#5CB79F"/>
<path fill-rule="evenodd" clip-rule="evenodd" d="M29.4219 53.4455L39.0287 59.2163L41.1326 55.5306L29.4219 48.496L29.4219 53.4455Z" fill="#DF3378"/>
<path fill-rule="evenodd" clip-rule="evenodd" d="M29.4214 58.6181L29.802 58.8504L31.6918 55.4856L29.4214 54.0994L29.4214 58.6181Z" fill="#F75F75"/>
</g>
<path fill-rule="evenodd" clip-rule="evenodd" d="M26.6099 30.3907L18.4113 30.4415C16.9131 31.7418 14.7739 33.8558 14.7832 35.3308L15.5022 67.6337C15.5313 68.147 15.9589 68.5468 16.475 68.5435L29.0239 68.4658C29.5396 68.4622 29.9624 68.0572 29.9854 67.5439L30.299 35.2342C30.2898 33.7592 28.1243 31.6722 26.6099 30.3907Z" fill="#AF1587"/>
<path fill-rule="evenodd" clip-rule="evenodd" d="M25.0835 27.3278L24.6472 18.4861L25.2975 18.4821L25.291 17.4501L24.6387 17.0673L24.631 15.9062L22.4207 15.9202L20.21 15.9339L20.2177 17.0945L19.5698 17.4854L19.5763 18.5174L20.2266 18.5134C20.2266 18.5134 19.9524 25.9827 19.9019 27.358C19.9009 27.385 25.0835 27.3278 25.0835 27.3278Z" fill="#E14687"/>
<path fill-rule="evenodd" clip-rule="evenodd" d="M25.1692 29.06L24.6475 18.4861L25.2977 18.4821L25.2913 17.4501L24.639 17.0673L24.6313 15.9062L22.421 15.9202L20.2103 15.9339L20.218 17.0945L19.5701 17.4854L19.5766 18.5174L20.2268 18.5134L19.8385 29.0933C19.8385 29.0933 14.7696 32.8652 14.7837 35.1228L15.5023 67.2923C15.5314 67.8031 15.9594 68.2016 16.4751 68.1984L29.024 68.1206C29.5397 68.1174 29.9625 67.7137 29.9855 67.2025L30.2991 35.0265C30.285 32.7689 25.1692 29.06 25.1692 29.06Z" stroke="#7F1E69" stroke-width="0.993986" stroke-linecap="round" stroke-linejoin="round"/>
<path fill-rule="evenodd" clip-rule="evenodd" d="M16.978 63.6672L28.1439 63.6672L28.1439 39.0525L16.978 39.0525L16.978 63.6672Z" fill="#F7D5E5"/>
<mask id="mask2" mask-type="alpha" maskUnits="userSpaceOnUse" x="16" y="39" width="13" height="25">
<path fill-rule="evenodd" clip-rule="evenodd" d="M16.978 63.6672L28.1439 63.6672L28.1439 39.0525L16.978 39.0525L16.978 63.6672Z" fill="white"/>
</mask>
<g mask="url(#mask2)">
<path fill-rule="evenodd" clip-rule="evenodd" d="M16.9775 57.0146L16.9775 68.2784H18.618L25.5302 56.1295L19.5363 52.517L16.9775 57.0146Z" fill="#5CB79F"/>
<path fill-rule="evenodd" clip-rule="evenodd" d="M30.567 58.4414L26.2974 55.8985L27.7294 53.4111L31.9991 55.954L30.567 58.4414Z" fill="#B71277"/>
<path fill-rule="evenodd" clip-rule="evenodd" d="M16.978 50.3519L25.7932 55.6472L27.7236 52.2652L16.978 45.8103L16.978 50.3519Z" fill="#DF3378"/>
<path fill-rule="evenodd" clip-rule="evenodd" d="M16.9775 55.0982L17.3268 55.3114L19.0609 52.2239L16.9775 50.9519L16.9775 55.0982Z" fill="#F75F75"/>
</g>
</g>
</svg>
