<svg width="68" height="78" viewBox="0 0 68 78" fill="none" xmlns="http://www.w3.org/2000/svg">
<mask id="mask0" mask-type="alpha" maskUnits="userSpaceOnUse" x="3" y="2" width="65" height="77">
<path fill-rule="evenodd" clip-rule="evenodd" d="M3.07397 2.91003L67.8437 2.91003V78.0003H3.07397V2.91003Z" fill="white"/>
</mask>
<g mask="url(#mask0)">
<path opacity="0.215239" fill-rule="evenodd" clip-rule="evenodd" d="M63.4686 11.0981C63.5285 11.0981 63.5849 11.1217 63.6272 11.164C63.6696 11.2073 63.6932 11.2642 63.6927 11.3226L63.6897 11.4524C63.5084 16.6357 62.7619 18.9848 59.8841 23.4211C58.8429 25.0262 57.6048 26.3812 56.0372 28.0966C55.0671 29.1576 53.969 30.362 52.7182 31.8398C54.7059 25.445 55.7944 18.8338 55.9174 12.1883C55.9239 11.8254 55.9259 11.462 55.9274 11.0981H63.4686ZM14.999 12.1883C15.1224 18.8333 16.2109 25.4435 18.1981 31.8383C16.9478 30.3605 15.8497 29.1566 14.8801 28.0956C13.3125 26.3807 12.0744 25.0262 11.0327 23.4211C8.15546 18.9848 7.40844 16.6357 7.22711 11.4514L7.22408 11.3256C7.22358 11.2652 7.24776 11.2073 7.29057 11.164C7.33289 11.1217 7.3893 11.0981 7.44874 11.0981H14.9889C14.9904 11.462 14.9929 11.8254 14.999 12.1883ZM66.9938 7.85677C66.4286 7.28096 65.6735 6.96336 64.8671 6.96336H55.9306V4.86598C55.9306 3.78734 55.0521 2.91003 53.9727 2.91003L16.9444 2.91003C15.8645 2.91003 14.9865 3.78734 14.9865 4.86598V6.96336L6.05105 6.96336C5.2441 6.96336 4.48852 7.28096 3.92386 7.85677C3.3602 8.43157 3.05847 9.19059 3.07459 9.99341C3.21261 16.9112 4.05583 19.7525 7.58638 25.195C8.81596 27.09 10.2531 28.6624 12.072 30.6531C15.2378 34.1165 19.5733 38.8599 25.9182 48.7609C25.9192 48.7625 25.9207 48.763 25.9217 48.764C26.0773 49.0161 26.2249 49.2708 26.3836 49.5215L28.5687 52.9758L28.6795 53.1364C29.9877 55.044 29.9746 57.5566 28.6805 59.4587H28.4644C26.4133 59.4587 24.744 61.1263 24.744 63.1758V64.2384H23.999C23.3976 64.2384 22.9084 64.7266 22.9084 65.3276V69.0114H22.5785H20.2675H18.0587C17.8728 69.0114 17.7116 69.1373 17.6663 69.317L15.6192 77.4991C15.5889 77.6194 15.6161 77.7473 15.6927 77.8449C15.7698 77.943 15.8866 78.0004 16.0111 78.0004H18.2209H20.5314H22.5785H28.5496H54.9061C55.03 78.0004 55.1468 77.943 55.2244 77.8449C55.3005 77.7473 55.3277 77.6194 55.2975 77.4991L53.2504 69.317C53.205 69.1373 53.0443 69.0114 52.859 69.0114H48.0087V65.3276C48.0087 64.7266 47.5196 64.2384 46.9186 64.2384H46.1726V63.1758C46.1726 61.1263 44.5043 59.4587 42.4527 59.4587H42.2366C40.9425 57.5566 40.9289 55.044 42.2381 53.1364L44.533 49.5215C44.6912 49.2718 44.8393 49.0176 44.9934 48.7665C44.9949 48.764 44.9985 48.7635 45 48.7609C51.3448 38.8609 55.6793 34.1175 58.8446 30.6541C60.6651 28.6629 62.1017 27.0905 63.3312 25.195C66.8618 19.7525 67.705 16.9112 67.843 9.99391C67.8592 9.19009 67.5574 8.43157 66.9938 7.85677Z" fill="#333333"/>
</g>
<path fill-rule="evenodd" clip-rule="evenodd" d="M42.3384 46.2236C52.3125 30.6606 57.3255 27.8143 60.6717 22.6561C64.1448 17.3012 64.9805 14.5686 65.1185 7.66645C65.1467 6.22894 63.9846 5.04762 62.5455 5.04762L53.1995 5.04712V8.37464L61.1477 8.37464C61.4957 8.37464 61.7778 8.65952 61.7758 9.00783C61.7753 9.05414 61.7743 9.10044 61.7728 9.14624C61.5869 14.4539 60.7613 16.9126 57.9012 21.3208C54.9756 25.8322 50.5918 28.3211 41.8689 41.9312L42.3384 46.2236Z" fill="#ED8534"/>
<path fill-rule="evenodd" clip-rule="evenodd" d="M42.3384 46.2236C52.3125 30.6606 57.3255 27.8143 60.6717 22.6561C64.1448 17.3012 64.9805 14.5686 65.1185 7.66645C65.1467 6.22894 63.9846 5.04762 62.5455 5.04762L53.1995 5.04712V8.37464L61.1477 8.37464C61.4957 8.37464 61.7778 8.65952 61.7758 9.00783C61.7753 9.05414 61.7743 9.10044 61.7728 9.14624C61.5869 14.4539 60.7613 16.9126 57.9012 21.3208C54.9756 25.8322 50.5918 28.3211 41.8689 41.9312L42.3384 46.2236Z" stroke="#7F1E69" stroke-width="1.05404" stroke-linecap="round" stroke-linejoin="round"/>
<path fill-rule="evenodd" clip-rule="evenodd" d="M23.9364 46.2236C13.9623 30.6606 8.94978 27.8143 5.60308 22.6561C2.12995 17.3012 1.29429 14.5686 1.15677 7.66645C1.12806 6.22894 2.29013 5.04762 3.72925 5.04762L13.0752 5.04712V8.37464H5.12707C4.779 8.37464 4.49692 8.65952 4.49944 9.00783C4.49944 9.05413 4.50045 9.10044 4.50196 9.14624C4.68783 14.4539 5.51392 16.9126 8.37353 21.3208C11.2996 25.8322 15.6835 28.3211 24.4058 41.9312L23.9364 46.2236Z" fill="#FACA6B"/>
<path fill-rule="evenodd" clip-rule="evenodd" d="M23.9364 46.2236C13.9623 30.6606 8.94978 27.8143 5.60308 22.6561C2.12995 17.3012 1.29429 14.5686 1.15677 7.66645C1.12806 6.22894 2.29013 5.04762 3.72925 5.04762L13.0752 5.04712V8.37464H5.12707C4.779 8.37464 4.49692 8.65952 4.49944 9.00783C4.49944 9.05413 4.50045 9.10044 4.50196 9.14624C4.68783 14.4539 5.51392 16.9126 8.37353 21.3208C11.2996 25.8322 15.6835 28.3211 24.4058 41.9312L23.9364 46.2236Z" stroke="#7F1E69" stroke-width="1.05404" stroke-linecap="round" stroke-linejoin="round"/>
<path fill-rule="evenodd" clip-rule="evenodd" d="M51.6511 1L33.137 1L14.6229 1C13.7681 1 13.0754 1.69208 13.0754 2.54623V8.47849C13.0754 8.93954 13.08 9.40008 13.088 9.86013C13.3323 23.0288 17.3651 35.8496 24.4086 46.9818L26.5861 50.4235L26.6965 50.5841C28.1431 52.6936 28.0988 55.4855 26.5861 57.5487H39.6878C38.1752 55.4855 38.1308 52.6936 39.5775 50.5841L39.6878 50.4235L41.8649 46.9818C48.9094 35.8496 52.9421 23.0288 53.1859 9.86013C53.194 9.40008 53.1985 8.93954 53.1985 8.47849V2.54623C53.1985 1.69208 52.5054 1 51.6511 1Z" fill="#FACA6B"/>
<path fill-rule="evenodd" clip-rule="evenodd" d="M13.6892 75.2772H52.5847L50.5371 67.0951H15.7363L13.6892 75.2772Z" fill="#7F1E69"/>
<path fill-rule="evenodd" clip-rule="evenodd" d="M13.6892 75.2772H52.5847L50.5371 67.0951H15.7363L13.6892 75.2772Z" stroke="#7F1E69" stroke-width="1.05404" stroke-linecap="round" stroke-linejoin="round"/>
<path fill-rule="evenodd" clip-rule="evenodd" d="M21.8541 68.0941L20.2573 74.2287H26.2284L27.8247 68.0941H21.8541Z" fill="#E1446C"/>
<path fill-rule="evenodd" clip-rule="evenodd" d="M17.496 68.0941L15.8992 74.2287H18.2102L19.807 68.0941H17.496Z" fill="#E1446C"/>
<path fill-rule="evenodd" clip-rule="evenodd" d="M39.5775 50.5841L39.6878 50.4235L41.8649 46.9818C48.9089 35.8496 52.9417 23.0288 53.186 9.86013C53.194 9.40008 53.1985 8.93954 53.1985 8.47849V2.54623C53.1985 1.69208 52.5054 1 51.6511 1L45.2489 1C45.2489 1 46.682 1.36491 46.682 2.83061V15.1381C46.682 24.65 42.963 35.6956 36.1145 44.9528C33.7027 48.2134 32.1165 50.7391 31.6017 52.2642C30.9413 54.2182 31.0133 56.1449 31.6324 57.5487H39.6878C38.1752 55.4855 38.1309 52.6936 39.5775 50.5841Z" fill="#ED8534"/>
<path fill-rule="evenodd" clip-rule="evenodd" d="M22.8335 62.3214H43.4406V60.8552C43.4406 59.0291 41.9591 57.5488 40.1311 57.5488H26.1424C24.3149 57.5488 22.8335 59.0291 22.8335 60.8552V62.3214Z" fill="#ED8534"/>
<path fill-rule="evenodd" clip-rule="evenodd" d="M22.8335 62.3214H43.4406V60.8552C43.4406 59.0291 41.9591 57.5488 40.1311 57.5488H26.1424C24.3149 57.5488 22.8335 59.0291 22.8335 60.8552V62.3214Z" stroke="#7F1E69" stroke-width="1.05404" stroke-linecap="round" stroke-linejoin="round"/>
<path fill-rule="evenodd" clip-rule="evenodd" d="M20.991 67.0945H45.2832V63.0074C45.2832 62.6289 44.976 62.3219 44.5967 62.3219H21.6775C21.2982 62.3219 20.991 62.6289 20.991 63.0074V67.0945Z" fill="#ED8534"/>
<path fill-rule="evenodd" clip-rule="evenodd" d="M20.991 67.0945H45.2832V63.0074C45.2832 62.6289 44.976 62.3219 44.5967 62.3219H21.6775C21.2982 62.3219 20.991 62.6289 20.991 63.0074V67.0945Z" stroke="#7F1E69" stroke-width="1.05404" stroke-linecap="round" stroke-linejoin="round"/>
<path fill-rule="evenodd" clip-rule="evenodd" d="M51.6511 1L33.137 1L14.6229 1C13.7681 1 13.0754 1.69208 13.0754 2.54623V8.47849C13.0754 8.93954 13.08 9.40008 13.088 9.86013C13.3323 23.0288 17.3651 35.8496 24.4086 46.9818L26.5861 50.4235L26.6965 50.5841C28.1431 52.6936 28.0988 55.4855 26.5861 57.5487H39.6878C38.1752 55.4855 38.1308 52.6936 39.5775 50.5841L39.6878 50.4235L41.8649 46.9818C48.9094 35.8496 52.9421 23.0288 53.1859 9.86013C53.194 9.40008 53.1985 8.93954 53.1985 8.47849V2.54623C53.1985 1.69208 52.5054 1 51.6511 1Z" stroke="#7F1E69" stroke-width="1.05404" stroke-linecap="round" stroke-linejoin="round"/>
<path fill-rule="evenodd" clip-rule="evenodd" d="M29.034 57.5488H26.1427C24.3152 57.5488 22.8328 59.0291 22.8328 60.8557V62.3214H25.7251V60.8557C25.7251 59.0291 27.2065 57.5488 29.034 57.5488Z" fill="#FACA6B"/>
<path fill-rule="evenodd" clip-rule="evenodd" d="M22.8335 62.3214H43.4406V60.8552C43.4406 59.0291 41.9591 57.5488 40.1311 57.5488H26.1424C24.3149 57.5488 22.8335 59.0291 22.8335 60.8552V62.3214Z" stroke="#7F1E69" stroke-width="1.05404" stroke-linecap="round" stroke-linejoin="round"/>
<path d="M15.4741 3.45459V8.47884C15.4741 8.92479 15.4786 9.37023 15.4862 9.81568" stroke="white" stroke-width="1.05404" stroke-linecap="round" stroke-linejoin="round"/>
<path fill-rule="evenodd" clip-rule="evenodd" d="M35.1783 15.3645V5.64221L31.0957 5.64221V15.3645C31.0957 15.6625 30.9128 15.9308 30.6348 16.0395C28.5348 16.864 27.1531 18.8889 27.1531 21.1438L27.6749 41.1799C27.6981 42.0743 28.4305 42.787 29.3261 42.787H36.9479C37.843 42.787 38.5754 42.0743 38.5985 41.1799L39.1199 21.1438C39.1199 18.8889 37.7387 16.864 35.6387 16.0395C35.3606 15.9308 35.1783 15.6625 35.1783 15.3645Z" fill="#B11063"/>
<path fill-rule="evenodd" clip-rule="evenodd" d="M35.1783 15.3645V5.64221L31.0957 5.64221V15.3645C31.0957 15.6625 30.9128 15.9308 30.6348 16.0395C28.5348 16.864 27.1531 18.8889 27.1531 21.1438L27.6749 41.1799C27.6981 42.0743 28.4305 42.787 29.3261 42.787H36.9479C37.843 42.787 38.5754 42.0743 38.5985 41.1799L39.1199 21.1438C39.1199 18.8889 37.7387 16.864 35.6387 16.0395C35.3606 15.9308 35.1783 15.6625 35.1783 15.3645Z" stroke="#7F1E69" stroke-width="1.05404" stroke-linecap="round" stroke-linejoin="round"/>
<path fill-rule="evenodd" clip-rule="evenodd" d="M30.3213 9.26415H35.9528V7.43555H30.3213V9.26415Z" fill="#B11063"/>
<path fill-rule="evenodd" clip-rule="evenodd" d="M30.3213 9.26415H35.9528V7.43555H30.3213V9.26415Z" stroke="#7F1E69" stroke-width="1.05404" stroke-linecap="round" stroke-linejoin="round"/>
<path fill-rule="evenodd" clip-rule="evenodd" d="M31.3372 17.8401C29.9707 18.3792 29.0882 19.6747 29.0876 21.0921L29.6014 40.8534H36.6721L37.1859 21.1429C37.1859 19.6742 36.3024 18.3781 34.9368 17.8401H31.3372Z" fill="#E1446C"/>
<mask id="mask1" mask-type="alpha" maskUnits="userSpaceOnUse" x="29" y="17" width="9" height="24">
<path fill-rule="evenodd" clip-rule="evenodd" d="M31.3372 17.8401C29.9707 18.3792 29.0882 19.6747 29.0876 21.0921L29.6014 40.8534H36.6721L37.1859 21.1429C37.1859 19.6742 36.3024 18.3781 34.9368 17.8401H31.3372Z" fill="white"/>
</mask>
<g mask="url(#mask1)">
</g>
</svg>
