<svg id="Layer_1" height="512" viewBox="0 0 512 512" width="512" xmlns="http://www.w3.org/2000/svg"><g><path d="m494.982 169.758h-477.964c35.307-97.825 128.964-167.758 238.982-167.758s203.676 69.933 238.982 167.758z" fill="#ed1c24"/><path d="m510 256c0 30.646-5.424 60.035-15.373 87.229h-477.252c-9.95-27.194-15.375-56.583-15.375-87.229 0-30.272 5.289-59.32 15.018-86.242h477.965c9.729 26.922 15.017 55.97 15.017 86.242z" fill="#f1f2f2"/><path d="m494.627 343.229c-35.579 97.314-128.981 166.771-238.627 166.771-109.644 0-203.047-69.457-238.625-166.771z" fill="#21409a"/><path d="m17.375 343.229h-.357" fill="none"/></g></svg>