<svg width="49" height="49" viewBox="0 0 49 49" fill="none" xmlns="http://www.w3.org/2000/svg">
<path fill-rule="evenodd" clip-rule="evenodd" d="M16.6982 4.01685H31.7465C38.7501 4.01685 44.4276 9.69438 44.4276 16.698V31.7462C44.4276 38.7498 38.7501 44.4274 31.7465 44.4274H16.6982C9.69462 44.4274 4.01709 38.7498 4.01709 31.7462V16.698C4.01709 9.69438 9.69462 4.01685 16.6982 4.01685ZM30.3941 35.4238C31.0122 34.8049 31.0122 33.8023 30.3941 33.1835L21.4116 24.2221L30.3941 15.2608C31.0122 14.6419 31.0122 13.6394 30.3941 13.0205C30.0997 12.7184 29.6958 12.548 29.2739 12.548C28.8521 12.548 28.4482 12.7184 28.1538 13.0205L18.0511 23.102C17.433 23.7209 17.433 24.7234 18.0511 25.3423L28.1538 35.4238C28.4451 35.7295 28.8517 35.8983 29.2739 35.8888C29.6947 35.8908 30.0984 35.7232 30.3941 35.4238Z" fill="#111218"/>
</svg>
