<svg width="28" height="28" viewBox="0 0 28 28" fill="none" xmlns="http://www.w3.org/2000/svg">
<path fill-rule="evenodd" clip-rule="evenodd" d="M18.8962 2.27588C22.6671 2.27588 25.724 5.33276 25.724 9.10362V18.2073C25.724 21.9781 22.6671 25.035 18.8962 25.035H9.79259C6.02173 25.035 2.96484 21.9781 2.96484 18.2073V9.10362C2.96484 5.33276 6.02172 2.27588 9.79258 2.27588H18.8962ZM12.3219 20.2109C12.172 20.3898 11.9627 20.4885 11.7455 20.483C11.529 20.4841 11.3213 20.3861 11.1692 20.2109C10.8511 19.8489 10.8511 19.2623 11.1692 18.9002L15.7908 13.6575L11.1692 8.41482C10.8511 8.05275 10.8511 7.4662 11.1692 7.10414C11.3206 6.92739 11.5285 6.8277 11.7455 6.8277C11.9626 6.8277 12.1704 6.92739 12.3219 7.10414L17.5199 13.0022C17.8379 13.3643 17.8379 13.9508 17.5199 14.3129L12.3219 20.2109Z" fill="white"/>
</svg>
