<svg width="28" height="28" viewBox="0 0 28 28" fill="none" xmlns="http://www.w3.org/2000/svg">
<path fill-rule="evenodd" clip-rule="evenodd" d="M9.46072 2.27588H17.9867C21.9548 2.27588 25.1716 5.49264 25.1716 9.46072V17.9867C25.1716 21.9548 21.9548 25.1716 17.9867 25.1716H9.46072C5.49264 25.1716 2.27588 21.9548 2.27588 17.9867V9.46072C2.27588 5.49264 5.49264 2.27588 9.46072 2.27588ZM17.2204 20.0703C17.5706 19.7197 17.5706 19.1516 17.2204 18.801L12.1312 13.7237L17.2204 8.64643C17.5706 8.29579 17.5706 7.72775 17.2204 7.37711C17.0536 7.20594 16.8248 7.10939 16.5858 7.10939C16.3468 7.10939 16.1179 7.20594 15.9511 7.37711L10.2272 13.0891C9.87698 13.4397 9.87698 14.0077 10.2272 14.3584L15.9511 20.0703C16.1162 20.2435 16.3466 20.3392 16.5858 20.3338C16.8241 20.3349 17.0529 20.2399 17.2204 20.0703Z" fill="white"/>
</svg>
