<svg width="49" height="49" viewBox="0 0 49 49" fill="none" xmlns="http://www.w3.org/2000/svg">
<path fill-rule="evenodd" clip-rule="evenodd" d="M32.1357 4.01685C38.7912 4.01685 44.1866 9.41218 44.1866 16.0677V32.1355C44.1866 38.791 38.7913 44.1863 32.1358 44.1863H16.0679C9.41244 44.1863 4.01709 38.791 4.01709 32.1355V16.0677C4.01709 9.4122 9.41243 4.01685 16.0679 4.01685H32.1357ZM20.5318 35.6719C20.2672 35.9876 19.8979 36.1619 19.5145 36.152C19.1324 36.1541 18.7658 35.981 18.4973 35.6719C17.936 35.0329 17.936 33.9976 18.4973 33.3586L26.6544 24.1053L18.4973 14.852C17.936 14.2129 17.936 13.1777 18.4973 12.5386C18.7646 12.2267 19.1314 12.0507 19.5145 12.0507C19.8976 12.0507 20.2644 12.2267 20.5318 12.5386L29.7062 22.9486C30.2675 23.5877 30.2675 24.6229 29.7062 25.2619L20.5318 35.6719Z" fill="#111218"/>
</svg>
