<svg width="21" height="21" viewBox="0 0 21 21" fill="none" xmlns="http://www.w3.org/2000/svg">
<g clip-path="url(#clip0_642_24477)">
<path d="M6.54908 0.768363C5.24652 1.29647 4.07772 2.07296 3.07548 3.0749C2.07296 4.07714 1.29734 5.24623 0.768944 6.5485C0.258829 7.80667 0 9.13621 0 10.5C0 11.8635 0.258829 13.193 0.768944 14.4506C1.29734 15.7532 2.07325 16.9223 3.07548 17.9242C4.07772 18.9268 5.24623 19.7027 6.54908 20.2308C7.80725 20.7415 9.1365 20.9994 10.5003 20.9994C11.8641 20.9994 13.193 20.7406 14.4512 20.2308C15.7535 19.7027 16.9229 18.9268 17.9248 17.9242C18.9273 16.9223 19.7032 15.7538 20.2313 14.4506C20.7415 13.193 20.9997 11.8635 20.9997 10.5C20.9997 9.13621 20.7412 7.80667 20.2313 6.5485C19.7032 5.24623 18.9268 4.07685 17.9248 3.0749C16.9229 2.07296 15.7546 1.29647 14.4512 0.768363C13.193 0.258539 11.8641 0 10.5003 0C9.1365 0 7.80725 0.258539 6.54908 0.768363ZM2.62427 14.9201C2.11851 14.6027 1.6525 14.2371 1.23989 13.8065C0.609642 12.033 0.50286 10.1129 0.920411 8.29037C1.11685 7.903 1.34028 7.53101 1.59302 7.17468C1.67107 7.06471 1.74333 6.95009 1.82689 6.84331L4.1964 8.2454C4.1964 8.26397 4.1964 8.28428 4.1964 8.30488C4.19031 9.5793 4.31972 10.8444 4.57739 12.0913C4.57826 12.0971 4.57913 12.1003 4.58029 12.1055L2.74266 14.9869C2.70262 14.9665 2.66287 14.9445 2.62427 14.9201ZM9.66954 19.7912C10.0784 19.9998 10.4988 20.1759 10.9309 20.3193C9.09559 20.3991 7.242 19.969 5.60342 19.0289L9.57553 19.7366C9.60599 19.7561 9.63704 19.7746 9.66954 19.7912ZM9.65503 19.0742L4.96767 18.2388C4.41925 17.5728 3.92597 16.8683 3.50203 16.1153C3.39409 15.9238 3.27367 15.7378 3.18227 15.5379L5.01816 12.6594C5.05878 12.6696 5.10405 12.6803 5.15541 12.694C6.30389 13.0012 7.47268 13.2197 8.6496 13.3909C8.71837 13.4005 8.77582 13.4089 8.82486 13.4142L11.0255 17.2191C10.6436 17.7559 10.2574 18.2898 9.86279 18.8179C9.79721 18.9059 9.72757 18.9903 9.65503 19.0742ZM17.4536 17.4533C17.0804 17.8267 16.6843 18.1633 16.2697 18.4634C16.2009 17.9138 16.0822 17.3752 15.9148 16.8492L18.2628 12.4688C18.9096 12.1743 19.5335 11.8403 20.1127 11.4262C20.1884 11.3725 20.2514 11.3125 20.3001 11.2469C20.1301 13.5105 19.1812 15.7259 17.4536 17.4533ZM17.3494 11.7724C17.4367 11.9389 17.5229 12.1072 17.6094 12.2779L15.3414 16.5085C15.3284 16.5114 15.3159 16.5143 15.3029 16.516C14.0769 16.745 12.8411 16.8669 11.5948 16.8727L9.3315 12.9592C9.68376 12.3051 10.0328 11.6485 10.379 10.9915C10.614 10.5458 10.845 10.0972 11.0757 9.64894L15.7599 9.16784C16.3335 10.0093 16.877 10.8688 17.3494 11.7724ZM16.3991 6.75423C16.1768 7.34124 15.9389 7.92215 15.7024 8.50423L11.1392 8.97285C11.0847 8.90089 11.0281 8.83009 10.9686 8.76248C10.4298 8.15225 9.88746 7.5458 9.346 6.93761C9.35094 6.93152 9.35587 6.92688 9.3608 6.92136C9.14231 6.70316 8.92323 6.48495 8.70473 6.26617L9.97509 2.44147C10.0627 2.41826 10.1509 2.39881 10.24 2.38924C10.9306 2.31902 11.6221 2.23951 12.3144 2.19947C12.7384 2.17568 13.1646 2.16204 13.5958 2.19251L16.7389 5.73516C16.6307 6.07698 16.525 6.41966 16.3991 6.75423ZM17.4536 3.54614C18.3206 4.41374 18.992 5.40379 19.4668 6.46145C18.8795 6.05725 18.2515 5.72471 17.5914 5.4537C17.4887 5.41133 17.3834 5.3739 17.2763 5.33705L14.1825 1.85011C14.204 1.69951 14.2153 1.54862 14.2199 1.39658C15.3969 1.87564 16.5001 2.59294 17.4536 3.54614ZM7.3511 1.21348C7.36329 1.22248 7.36909 1.23002 7.37606 1.23205C8.08319 1.47637 8.7265 1.83618 9.33295 2.26302L8.14616 5.83701C8.14007 5.83875 8.13426 5.84049 8.12846 5.8431C7.88559 5.9435 7.63808 6.03345 7.39898 6.14226C6.41386 6.58999 5.45341 7.08589 4.54867 7.68044L2.20672 6.29489C2.21021 6.22177 2.22268 6.14749 2.24764 6.08133C2.40491 5.66233 2.55957 5.241 2.73744 4.83042C2.8744 4.51413 3.03051 4.20859 3.20084 3.91001C3.31226 3.78698 3.42775 3.66511 3.54672 3.54614C4.65893 2.43421 5.97339 1.64467 7.37286 1.17779C7.36561 1.18911 7.35807 1.201 7.3511 1.21348Z" fill="#2DDB81"/>
</g>
<defs>
<clipPath id="clip0_642_24477">
<rect width="20.9997" height="21" fill="white"/>
</clipPath>
</defs>
</svg>
