<svg width="156" height="85" viewBox="0 0 156 85" fill="none" xmlns="http://www.w3.org/2000/svg">
<path d="M25.0674 11.9311C55.0326 -1.97267 95.1548 -4.1124 124.547 7.56211L117.224 11.094C77.7325 -0.517835 55.5876 1.95315 25.0674 11.9311Z" fill="#373D39"/>
<path d="M0 33.9686C25.068 12.4817 63.1176 -0.499905 94.5555 2.76789L88.4676 8.13959C47.3069 7.69643 26.6661 16.0852 0 33.9686Z" fill="#373D39"/>
<path d="M144.033 57.9041C115.071 73.7864 75.2035 78.6209 45.0771 68.9384L52.1454 64.9097C92.3258 73.8625 114.251 69.9098 144.033 57.9041Z" fill="#373D39"/>
<path d="M153.679 42.2454C128.611 63.7591 90.5619 76.7138 59.1284 73.4505L65.2164 68.0788C106.377 68.522 127.018 60.1332 153.679 42.2454Z" fill="#373D39"/>
<rect x="53.9155" y="38.2473" width="79.2292" height="46.529" transform="rotate(-4.7698 53.9155 38.2473)" fill="#262726"/>
<rect x="46.6289" y="56.8884" width="17.6143" height="19.4557" transform="rotate(-4.7698 46.6289 56.8884)" fill="#262726"/>
<rect x="32.5068" y="48.3616" width="17.6143" height="19.4557" transform="rotate(-4.7698 32.5068 48.3616)" fill="#262726"/>
<rect x="11.6235" y="29.9038" width="80.765" height="33.3972" transform="rotate(-2.23276 11.6235 29.9038)" fill="#262726"/>
<rect x="13.855" y="28.1836" width="14.4195" height="16.6134" transform="rotate(-10.3982 13.855 28.1836)" fill="#262726"/>
<g clip-path="url(#clip0_642_24264)">
<path d="M21.7974 26.8859C51.2369 1.60923 100.339 -5.54585 136.158 12.2655L132.259 47.8243L130.739 76.7105C130.739 76.7105 33.4693 87.6644 30.4571 86.5986L30.9355 76.415C30.9355 76.415 15.0645 54.674 16.3252 54.7725C16.4862 54.7824 21.7974 26.8859 21.7974 26.8859Z" fill="#262726"/>
</g>
<path d="M61.2368 19.7737C75.4808 19.0485 88.8205 20.0423 100.701 23.8025L101.762 21.2823C88.5324 17.7814 74.69 17.2661 61.2368 19.7737Z" fill="#2DDB81"/>
<path d="M50.6367 18.1534C50.6367 18.1534 80.3468 7.00708 119.148 18.516L117.282 20.6691C94.6803 14.617 72.5175 14.5275 50.6367 18.1534Z" fill="#FFDF00"/>
<path d="M32.4136 21.3537C61.6804 6.03981 101.65 1.98417 131.566 12.2397L124.444 16.1162C84.4207 6.40688 62.419 9.9343 32.4136 21.3537Z" fill="#F7F7F7"/>
<path d="M138.913 44.1595C135.638 44.1595 132.435 43.1881 129.712 41.3682C126.988 39.5482 124.865 36.9615 123.611 33.935C122.358 30.9086 122.03 27.5783 122.669 24.3655C123.308 21.1526 124.885 18.2014 127.202 15.8851C129.518 13.5687 132.469 11.9913 135.682 11.3522C138.895 10.7131 142.225 11.0411 145.252 12.2947C148.278 13.5483 150.865 15.6712 152.685 18.3949C154.505 21.1187 155.476 24.3209 155.476 27.5967C155.468 31.9869 153.72 36.1949 150.616 39.2992C147.512 42.4035 143.304 44.1512 138.913 44.1595Z" fill="#262726"/>
<path d="M152.934 30.6359C154.622 22.8867 149.709 15.2361 141.96 13.5479C134.21 11.8597 126.56 16.7732 124.872 24.5224C123.183 32.2717 128.097 39.9223 135.846 41.6105C143.595 43.2987 151.246 38.3852 152.934 30.6359Z" fill="#3B3B3B"/>
<path d="M125.649 26.388C125.903 23.5652 127.054 20.8981 128.935 18.7781C128.429 19.8153 128.156 20.9503 128.134 22.1041C126.971 23.3097 126.118 24.7799 125.649 26.388Z" fill="#F7F7F7"/>
<path d="M127.525 32.1849C126.554 30.6172 125.96 28.846 125.788 27.0101C126.612 24.0915 128.058 22.6053 128.344 22.3323C129.875 22.5471 131.795 22.6143 132.373 22.6322C132.31 23.3798 132.413 25.7165 134.195 28.4829C133.156 29.9015 132.304 31.4482 131.661 33.0846C129.016 33.3667 127.673 32.3102 127.525 32.1849Z" fill="#F7F7F7"/>
<path d="M134.334 15.2327C133.237 15.6838 132.169 16.2042 131.138 16.7905C132.304 15.9461 133.599 15.2975 134.974 14.8701C134.754 14.9785 134.54 15.0995 134.334 15.2327Z" fill="#F7F7F7"/>
<path d="M135.712 40.0188C135.175 40.0968 134.629 40.0968 134.092 40.0188C131.556 39.0272 129.382 37.2861 127.861 35.0276H127.919L127.825 34.8217C127.542 34.1117 127.44 33.3425 127.529 32.5835C128.496 33.1884 129.622 33.4893 130.761 33.4474C131.06 33.4454 131.359 33.4275 131.657 33.3937C132.006 33.9686 132.39 34.5217 132.807 35.05C133.596 36.1023 134.569 37.0018 135.681 37.7045C135.58 38.4735 135.59 39.2529 135.712 40.0188Z" fill="#F7F7F7"/>
<path d="M142.606 19.8163C143.054 21.2175 144.267 24.3868 144.473 24.915C143.311 26.5869 141.916 28.0851 140.332 29.3646C138.418 28.8166 136.451 28.473 134.464 28.3395C132.53 25.3537 132.646 22.8961 132.673 22.547L136.563 18.2585C137.118 18.3123 140.646 18.7062 142.606 19.8163Z" fill="#F7F7F7"/>
<path d="M134.669 15.3939C135.401 14.9585 136.189 14.6256 137.011 14.4046C139.305 14.0768 141.645 14.3514 143.801 15.2014C144.661 15.8436 145.386 16.65 145.932 17.5739C144.767 18.057 143.682 18.7135 142.714 19.5212C140.686 18.3931 137.212 18.0037 136.603 17.9455C136.124 16.9813 135.468 16.1158 134.669 15.3939Z" fill="#F7F7F7"/>
<path d="M145.547 38.7966L145.377 39.016L145.677 39.0473C143.629 40.2637 141.29 40.9041 138.908 40.9005C138.392 40.9001 137.877 40.8702 137.364 40.811C136.865 40.6689 136.405 40.413 136.021 40.0634C135.897 39.2977 135.887 38.5176 135.994 37.7491C137.875 37.3488 139.653 36.5655 141.218 35.4482C141.558 35.6855 142.781 36.3883 145.31 36.3883C145.56 36.3883 145.825 36.3883 146.102 36.3883C146.17 37.2291 145.976 38.0702 145.547 38.7966Z" fill="#F7F7F7"/>
<path d="M149.241 26.1912C149.854 27.9659 150.157 29.833 150.136 31.7106C147.925 34.9158 146.438 35.9095 146.219 36.0438C143.086 36.2408 141.671 35.3724 141.389 35.1485C141.389 34.6382 141.308 31.7285 140.547 29.5709C142.136 28.2796 143.538 26.7729 144.71 25.0945C146.196 25.5552 147.709 25.9215 149.241 26.1912Z" fill="#F7F7F7"/>
<path d="M144.805 15.6492C147.588 17.0336 149.803 19.3423 151.072 22.1803C150.767 22.0549 150.526 21.9788 150.423 21.9475C149.298 20.255 147.892 18.7682 146.264 17.5517C145.895 16.8357 145.4 16.1915 144.805 15.6492Z" fill="#F7F7F7"/>
<path d="M152.226 27.5834C152.226 29.1363 151.953 30.6772 151.42 32.1359L150.454 31.6524C150.476 29.7426 150.161 27.8438 149.522 26.0435C149.988 24.8316 150.304 23.5673 150.463 22.2788C150.733 22.3674 150.997 22.4721 151.255 22.5922C151.899 24.1772 152.229 25.8724 152.226 27.5834Z" fill="#F7F7F7"/>
<path d="M138.909 13.6438C136.151 13.6438 133.455 14.4617 131.162 15.9941C128.868 17.5265 127.081 19.7045 126.026 22.2527C124.971 24.8009 124.695 27.6049 125.233 30.3099C125.772 33.0149 127.1 35.4994 129.051 37.4494C131.001 39.3993 133.486 40.727 136.191 41.2645C138.896 41.8021 141.7 41.5253 144.248 40.4692C146.796 39.4131 148.973 37.6252 150.505 35.3315C152.037 33.0378 152.854 30.3414 152.853 27.5834C152.848 23.8871 151.377 20.3435 148.763 17.7303C146.149 15.117 142.605 13.6474 138.909 13.6438ZM128.935 18.7738C128.43 19.811 128.156 20.946 128.134 22.0998C126.971 23.3067 126.118 24.7785 125.65 26.3882C125.902 23.5639 127.054 20.895 128.935 18.7738ZM152.213 27.5834C152.217 29.1355 151.949 30.6764 151.421 32.1359L150.454 31.6525C150.476 29.7426 150.161 27.8438 149.523 26.0435C149.988 24.8316 150.304 23.5673 150.463 22.2788C150.733 22.3675 150.997 22.4721 151.255 22.5922C151.899 24.1772 152.229 25.8724 152.226 27.5834H152.213ZM150.422 21.9476C149.298 20.2551 147.891 18.7682 146.264 17.5517C145.892 16.8351 145.394 16.1908 144.795 15.6492C147.579 17.0336 149.794 19.3424 151.062 22.1803C150.776 22.055 150.534 21.9789 150.431 21.9476H150.422ZM145.923 17.5741C144.759 18.0571 143.673 18.7137 142.705 19.5213C140.677 18.3933 137.203 18.0038 136.595 17.9456C136.115 16.9815 135.46 16.116 134.661 15.3941C135.392 14.9587 136.18 14.6258 137.002 14.4048C139.296 14.077 141.637 14.3516 143.793 15.2016C144.656 15.8429 145.383 16.6494 145.932 17.5741H145.923ZM144.464 24.9154C143.302 26.5873 141.908 28.0855 140.323 29.365C138.409 28.8171 136.442 28.4734 134.455 28.3399C132.521 25.3541 132.637 22.8966 132.664 22.5474L136.563 18.259C137.118 18.3172 140.646 18.7066 142.606 19.8213C143.036 21.2179 144.267 24.3872 144.473 24.9154H144.464ZM134.956 14.8703C134.742 14.9793 134.534 15.1004 134.334 15.2329C133.237 15.6841 132.169 16.2044 131.138 16.7907C132.298 15.948 133.588 15.2995 134.956 14.8703ZM132.36 22.6325C132.297 23.38 132.4 25.7167 134.182 28.4831C133.143 29.9018 132.291 31.4484 131.648 33.0849C129.016 33.3669 127.673 32.3105 127.525 32.1896C126.555 30.622 125.96 28.8508 125.789 27.0149C126.612 24.0963 128.058 22.6101 128.345 22.337C129.875 22.5474 131.796 22.6146 132.36 22.6325ZM127.825 34.8218C127.542 34.1118 127.441 33.3426 127.53 32.5835C128.496 33.1884 129.622 33.4894 130.762 33.4475C131.061 33.4455 131.36 33.4276 131.657 33.3938C132.007 33.9686 132.391 34.5218 132.808 35.0501C133.596 36.1023 134.57 37.0019 135.681 37.7046C135.57 38.472 135.57 39.2515 135.681 40.0189C135.144 40.0968 134.598 40.0968 134.061 40.0189C131.525 39.0273 129.351 37.2862 127.83 35.0277H127.888L127.825 34.8218ZM136.062 40.0637C135.937 39.2979 135.928 38.5178 136.035 37.7493C137.916 37.349 139.694 36.5658 141.259 35.4485C141.599 35.6857 142.821 36.3885 145.35 36.3885C145.601 36.3885 145.865 36.3885 146.143 36.3885C146.21 37.2387 146.009 38.0885 145.57 38.8192L145.4 39.0386L145.7 39.0699C143.652 40.2863 141.313 40.9267 138.931 40.9231C138.415 40.9227 137.9 40.8928 137.387 40.8336C136.892 40.6824 136.438 40.4189 136.062 40.0637ZM146.246 36.0349C143.112 36.2318 141.698 35.3634 141.416 35.1396C141.416 34.6293 141.335 31.7196 140.574 29.562C142.163 28.2706 143.564 26.764 144.737 25.0855C146.222 25.537 147.733 25.8943 149.263 26.1554C149.876 27.9301 150.179 29.7972 150.158 31.6748C147.929 34.9158 146.443 35.9095 146.223 36.0438L146.246 36.0349Z" fill="#3B3B3B"/>
<path d="M70.3977 29.9955L70.3978 29.9955L70.3977 29.9955ZM70.3977 29.9955L70.3974 29.9952L70.3977 29.9955ZM4.35527 60.4527L4.17755 62.3181L6.04763 62.1999L13.7381 61.7138L15.0978 61.6278L15.2286 60.2717L16.0798 51.4469L17.9582 51.3282C21.1493 51.1265 24.1672 50.8934 26.5807 49.2091L26.5888 49.2034L26.5969 49.1976C29.5837 47.0575 31.3563 43.1488 31.0903 38.94C30.9602 36.882 30.4237 35.0546 29.4203 33.5278C28.4114 31.9927 26.9883 30.85 25.2312 30.083L25.2261 30.0808C22.6036 28.9471 19.6182 29.0822 16.5643 29.2753L8.63094 29.7767L7.26964 29.8627L7.14027 31.2206L4.35527 60.4527ZM30.7627 49.7522L30.6384 51.6193L32.502 51.4505L44.1765 50.3932L44.7824 50.3383L45.537 50.27L47.3602 50.1049L53.0338 49.5911L54.0146 49.5023L54.3764 48.5864L55.5359 45.6519L60.0878 45.2397L60.8282 47.6171L61.2123 48.8504L62.4988 48.7339L67.7905 48.2547L69.7568 48.0766L69.1737 46.1903L63.2614 27.0629L62.8791 25.8261L61.5898 25.9429L55.0707 26.5332L54.0872 26.6223L53.7266 27.5415L45.7277 47.9288L45.6853 48.0371L45.9416 44.1759L46.0655 42.309L44.2022 42.4778L39.6285 42.892L40.5062 29.7082L40.6305 27.841L38.7668 28.0098L33.5297 28.4841L32.1694 28.6073L32.0787 29.9701L30.7627 49.7522ZM86.1871 26.5129L86.2696 25.3484L85.1855 24.9153C83.2956 24.1603 81.0821 23.7101 78.485 23.9453C74.4365 24.3119 71.1079 26.0885 69.073 29.1005L69.0702 29.1047C67.405 31.5865 66.6494 34.5725 66.9333 37.7069C67.2196 40.868 68.4769 43.5576 70.588 45.3829C72.7058 47.214 75.5369 48.0481 78.7167 47.7602C80.6876 47.5817 82.4519 47.1892 83.9452 46.5474L84.3294 46.3822L84.177 46.7707L86.7549 46.5372L92.4284 46.0234L93.4092 45.9346L93.7711 45.0187L94.9306 42.0842L99.4825 41.672L100.223 44.0494L100.607 45.2827L101.893 45.1662L107.185 44.687L108.566 44.5619L109.151 44.5089L110.429 44.3932L115.612 43.9238L116.973 43.8006L117.063 42.4369L117.235 39.8279L119.049 42.7315L119.57 43.5654L120.549 43.4767L126.495 42.9382L129.349 42.6798L127.631 40.3872L123.445 34.8022C124.479 34.2445 125.351 33.5019 126.015 32.5899C127.101 31.101 127.551 29.2754 127.375 27.338C127.248 25.9283 126.816 24.6501 126.033 23.5883C125.246 22.5214 124.166 21.7581 122.883 21.2882L122.882 21.288C120.981 20.5933 118.835 20.7586 116.64 20.9574L111.457 21.4267L110.097 21.5499L110.006 22.9128L108.69 42.6948L108.672 42.9592L108.568 42.6226L102.656 23.4952L102.274 22.2584L100.984 22.3752L94.4653 22.9656L93.4819 23.0546L93.1213 23.9738L85.1224 44.3611L84.9332 44.8433L85.27 40.0708L85.4732 37.1911L82.9244 38.5468C81.5591 39.273 80.3529 39.6714 79.1763 39.7779C77.8469 39.8983 77.0023 39.6024 76.4809 39.1711C75.9611 38.7412 75.5317 37.9858 75.4169 36.7186C75.1682 33.9726 76.7536 32.1527 78.9899 31.9502C80.4546 31.8175 81.9361 32.1996 83.2794 33.1553L85.5997 34.8058L85.8009 31.9655L86.1871 26.5129ZM19.8812 41.3516C19.3174 41.6542 18.4001 41.8562 16.9746 41.9927L17.3004 38.6095L17.3167 38.6085C18.8102 38.5141 19.6194 38.6869 20.0213 38.9084C20.2665 39.0435 20.4687 39.2393 20.51 39.8932C20.545 40.446 20.4585 40.7404 20.3776 40.8987C20.3048 41.0412 20.1766 41.1931 19.8812 41.3516ZM118.966 29.4133C118.842 29.5421 118.544 29.739 117.896 29.8307L118.028 27.8874C118.608 27.8831 118.879 27.9729 118.984 28.033C119.022 28.0548 119.036 28.0699 119.054 28.1029C119.081 28.151 119.135 28.279 119.159 28.5496C119.208 29.0872 119.07 29.3052 118.966 29.4133Z" fill="white" stroke="#262726" stroke-width="3.19744"/>
<mask id="mask0_642_24264" style="mask-type:alpha" maskUnits="userSpaceOnUse" x="5" y="22" width="122" height="39">
<path d="M5.94678 60.6043L13.6372 60.1182L14.6192 49.9373L17.8573 49.7327C21.1359 49.5254 23.6808 49.2833 25.6657 47.8981C28.1539 46.1153 29.7302 42.7646 29.4948 39.0408C29.262 35.3575 27.6006 32.8617 24.5917 31.5483C22.3774 30.591 19.7818 30.6738 16.6651 30.8708L8.73179 31.3722L5.94678 60.6043ZM15.2018 43.7236L15.8397 37.0999L17.2159 37.0129C20.373 36.8134 21.9674 37.6066 22.1056 39.7923C22.2949 42.7876 20.0589 43.4165 15.9304 43.6775L15.2018 43.7236Z" fill="#D9D9D9"/>
<path d="M32.3579 49.8583L44.0323 48.801L44.3464 44.07L37.909 44.653L38.911 29.602L33.6739 30.0763L32.3579 49.8583Z" fill="#D9D9D9"/>
<path d="M55.9821 39.6337L57.65 34.9725C57.7592 34.6601 57.9901 33.8692 58.3153 32.6022C58.4093 33.3362 58.5851 34.0628 58.7882 34.787L60.1009 39.2607L55.9821 39.6337ZM47.216 48.5127L52.8896 47.9989L54.4109 44.1485L61.2301 43.531L62.3546 47.1417L67.6463 46.6625L61.734 27.5351L55.2149 28.1255L47.216 48.5127Z" fill="#D9D9D9"/>
<path d="M84.5924 26.4C82.9089 25.7274 80.9477 25.3275 78.6292 25.5375C74.9741 25.8685 72.1195 27.447 70.3978 29.9955C68.9439 32.1622 68.2735 34.7805 68.5255 37.5627C69.0369 43.209 72.9535 46.6768 78.5725 46.168C80.4273 46 82.0169 45.636 83.3139 45.0786L83.6752 39.9583C82.1797 40.7537 80.7662 41.2392 79.3205 41.3701C76.0746 41.6641 74.1088 39.9996 73.8247 36.8628C73.5061 33.3441 75.6271 30.6494 78.8457 30.358C80.7005 30.19 82.5601 30.6816 84.2062 31.8525L84.5924 26.4Z" fill="#D9D9D9"/>
<path d="M95.3767 36.066L97.0446 31.4049C97.1539 31.0925 97.3847 30.3015 97.71 29.0346C97.804 29.7686 97.9798 30.4952 98.1829 31.2193L99.4955 35.693L95.3767 36.066ZM86.6107 44.945L92.2842 44.4312L93.8056 40.5808L100.625 39.9633L101.749 43.574L107.041 43.0948L101.129 23.9674L94.6095 24.5578L86.6107 44.945Z" fill="#D9D9D9"/>
<path d="M116.173 31.5976L116.527 26.3954L117.291 26.3262C119.473 26.1286 120.596 26.6869 120.752 28.4054C120.912 30.1784 119.883 31.2616 117.81 31.4493L116.173 31.5976ZM115.468 42.3316L115.966 34.7788L120.405 41.8845L126.351 41.346L120.908 34.0838C124.293 33.1997 126.072 30.6736 125.783 27.4822C125.571 25.1364 124.381 23.5391 122.333 22.7896C120.826 22.2386 119.048 22.3446 116.784 22.5496L111.601 23.0189L110.285 42.801L115.468 42.3316Z" fill="#D9D9D9"/>
</mask>
<g mask="url(#mask0_642_24264)">
<rect x="2.55469" y="42.8154" width="128.164" height="19.7729" transform="rotate(-5.28524 2.55469 42.8154)" fill="#D9D9D9"/>
</g>
<path fill-rule="evenodd" clip-rule="evenodd" d="M5.0625 61.4609L8.00105 30.6173L16.615 30.0728C19.7003 29.8778 22.4908 29.7688 24.9092 30.8143L24.9118 30.8154C26.5425 31.5272 27.8379 32.5747 28.7526 33.9666C29.6646 35.3542 30.1696 37.0403 30.2929 38.9901C30.5436 42.9565 28.8691 46.5862 26.1317 48.5476L26.1276 48.5505L26.1235 48.5533C23.9243 50.0881 21.143 50.3257 17.9081 50.5302L15.3498 50.6919L14.3678 60.8728L5.0625 61.4609ZM14.6196 49.9371L17.8577 49.7324C21.1362 49.5252 23.6811 49.2831 25.6661 47.8978C28.1542 46.115 29.7305 42.7644 29.4951 39.0406C29.2623 35.3572 27.6009 32.8614 24.592 31.548C22.3777 30.5908 19.7821 30.6735 16.6654 30.8705L8.73212 31.372L5.94711 60.6041L13.6376 60.118L14.6196 49.9371ZM31.4985 50.7385L32.922 29.3415L39.7711 28.7212L38.7691 43.7722L45.2063 43.1893L44.785 49.5353L31.4985 50.7385ZM37.9094 44.6527L38.9114 29.6017L33.6742 30.076L32.3582 49.858L44.0326 48.8008L44.3467 44.0697L37.9094 44.6527ZM57.6503 34.9723L55.9824 39.6334L60.1012 39.2604L58.7885 34.7867C58.7486 34.6442 58.7097 34.5016 58.6722 34.3589C58.5194 33.7763 58.3912 33.1916 58.3157 32.602C58.1237 33.3499 57.9646 33.9319 57.844 34.3475C57.7602 34.636 57.6951 34.8443 57.6503 34.9723ZM58.2304 35.7238L57.1567 38.7245L59.0603 38.5521L58.2304 35.7238ZM45.9995 49.4253L54.6514 27.3736L62.3069 26.6803L68.7019 47.3693L61.7838 47.9958L60.6593 44.3851L54.9737 44.9L53.4524 48.7503L45.9995 49.4253ZM54.4112 44.1483L61.2304 43.5307L62.3549 47.1414L67.6466 46.6622L61.7343 27.5348L55.2152 28.1252L47.2163 48.5124L52.8899 47.9986L54.4112 44.1483ZM85.4313 25.874L84.9033 33.3289L83.7431 32.5037C82.2484 31.4404 80.5779 31.0035 78.9182 31.1538C76.1907 31.4008 74.3375 33.6581 74.6212 36.7904C74.7496 38.2083 75.2455 39.1861 75.9717 39.7868C76.6988 40.3882 77.7725 40.7075 79.2487 40.5738C80.5599 40.4551 81.8698 40.0131 83.3002 39.2523L84.5745 38.5744L84.0773 45.6204L83.6299 45.8127C82.2347 46.4124 80.5578 46.7906 78.6449 46.9638C75.6503 47.235 73.0428 46.4481 71.1111 44.778C69.1829 43.1107 68.0007 40.6267 67.7297 37.6345C67.4618 34.6762 68.1748 31.8741 69.7343 29.5499L69.7357 29.5478C71.614 26.7675 74.7056 25.09 78.5574 24.7411C81.0152 24.5186 83.1026 24.9436 84.8893 25.6574L85.4313 25.874ZM97.045 31.4046L95.3771 36.0657L99.4959 35.6927L98.1832 31.219C98.1432 31.0765 98.1043 30.9339 98.0669 30.7912C97.9141 30.2087 97.7858 29.6239 97.7103 29.0343C97.5183 29.7822 97.3592 30.3642 97.2386 30.7798C97.1549 31.0683 97.0897 31.2766 97.045 31.4046ZM97.6251 32.1561L96.5513 35.1568L98.455 34.9844L97.6251 32.1561ZM85.3942 45.8576L94.0461 23.806L101.702 23.1126L108.097 43.8016L101.178 44.4281L100.054 40.8174L94.3684 41.3323L92.8471 45.1826L85.3942 45.8576ZM93.8059 40.5806L100.625 39.963L101.75 43.5738L107.041 43.0945L101.129 23.9671L94.6099 24.5575L86.611 44.9448L92.2846 44.4309L93.8059 40.5806ZM120.405 41.8843L115.967 34.7786L115.468 42.3314L110.286 42.8007L111.602 23.0187L116.784 22.5494C119.048 22.3443 120.826 22.2383 122.333 22.7893C124.381 23.5389 125.571 25.1362 125.784 27.482C126.049 30.4086 124.575 32.7757 121.718 33.8301C121.459 33.9255 121.19 34.0102 120.909 34.0835L126.352 41.3457L120.405 41.8843ZM122.216 34.4949C123.542 33.9645 124.613 33.157 125.37 32.1188C126.328 30.8039 126.74 29.1764 126.58 27.4099C126.463 26.1185 126.072 24.9866 125.39 24.0625C124.707 23.136 123.762 22.461 122.608 22.0386L122.608 22.0385C120.904 21.4157 118.942 21.5513 116.712 21.7533L110.849 22.2842L109.426 43.6812L116.221 43.0658L116.601 37.3032L119.988 42.7247L127.85 42.0126L122.216 34.4949ZM15.2021 43.7233L15.9307 43.6773C15.9572 43.6756 15.9837 43.6739 16.0101 43.6722C20.0879 43.4081 22.294 42.7681 22.1059 39.7921C21.9677 37.6064 20.3734 36.8131 17.2162 37.0127L15.84 37.0997L15.2021 43.7233ZM16.0878 42.8659L16.5704 37.8545L17.2667 37.8104C18.8027 37.7134 19.8012 37.874 20.4074 38.208C20.9353 38.4989 21.2529 38.9692 21.3081 39.8425C21.3493 40.4933 21.2539 40.941 21.0897 41.2623C20.9295 41.5756 20.6701 41.8354 20.2595 42.0557C19.4121 42.5105 18.0565 42.7328 16.0878 42.8659ZM83.3142 45.0783C82.0172 45.6358 80.4276 45.9997 78.5728 46.1677C72.9538 46.6766 69.0372 43.2087 68.5258 37.5624C68.2739 34.7802 68.9443 32.162 70.3981 29.9953C72.1198 27.4468 74.9744 25.8683 78.6295 25.5372C80.948 25.3273 82.9093 25.7272 84.5927 26.3997L84.2065 31.8523C83.9556 31.6738 83.6998 31.5111 83.4397 31.3641C81.9937 30.5468 80.4182 30.2153 78.8461 30.3577C75.6274 30.6492 73.5064 33.3438 73.8251 36.8625C74.1091 39.9994 76.0749 41.6639 79.3208 41.3699C80.4964 41.2634 81.6507 40.9225 82.845 40.3712C83.1195 40.2445 83.3961 40.1066 83.6756 39.958L83.3142 45.0783ZM116.174 31.5973L117.81 31.4491C119.883 31.2614 120.913 30.1781 120.752 28.4051C120.596 26.6867 119.473 26.1284 117.291 26.326L116.527 26.3952L116.174 31.5973ZM117.035 30.7167L117.738 30.653C118.661 30.5694 119.226 30.2968 119.543 29.9673C119.843 29.6553 120.02 29.1893 119.956 28.4772C119.894 27.797 119.668 27.5041 119.383 27.3399C119.029 27.1362 118.408 27.0275 117.363 27.1221L117.279 27.1298L117.035 30.7167Z" fill="white"/>
<g clip-path="url(#clip1_642_24264)">
<path d="M74.4595 70.4132L74.4641 70.4164C76.7436 72.0467 79.4769 72.6616 82.5922 72.3795C86.5694 72.0193 89.8576 70.1942 92.049 67.1158C93.8764 64.5747 94.6535 61.5117 94.3597 58.2683C94.0811 55.1917 92.7042 52.584 90.4676 50.8363C88.2387 49.0947 85.2781 48.3004 81.9786 48.5992C78.0391 48.9559 74.6367 50.8117 72.4881 53.8435C70.6652 56.4123 69.9153 59.4435 70.2087 62.683C70.4941 65.8346 72.0535 68.6797 74.4595 70.4132ZM93.8533 68.9791L93.7263 70.8486L95.5925 70.6796L100.775 70.2103L102.132 70.0874L102.226 68.7282L102.608 63.1967L103.433 63.1219C105.555 62.9297 107.742 62.7157 109.477 61.4336L109.485 61.4277L109.493 61.4216C111.628 59.8018 112.812 56.9477 112.541 53.9542C112.409 52.4973 111.99 51.1824 111.223 50.0814C110.45 48.9723 109.384 48.1675 108.101 47.6485L108.095 47.6464C106.17 46.8756 104.031 47.042 101.994 47.2265L96.6474 47.7107L95.289 47.8337L95.1966 49.1946L93.8533 68.9791ZM109.687 67.0793L108.741 69.4888L111.319 69.2554L116.993 68.7416L117.973 68.6527L118.335 67.7368L119.495 64.8024L124.047 64.3902L124.787 66.7676L125.171 68.0009L126.458 67.8844L131.749 67.4052L133.716 67.2271L133.133 65.3408L127.22 46.2134L126.838 44.9766L125.549 45.0933L119.03 45.6837L118.046 45.7728L117.685 46.692L109.687 67.0793ZM68.2756 53.8007L68.3258 52.6344L67.2301 52.2315C64.6675 51.2891 61.6863 50.7679 58.21 51.1801C52.7755 51.8245 48.4198 54.3281 45.8361 58.3906L45.8361 58.3906L45.8334 58.3949C43.7033 61.7679 42.8016 65.7845 43.2983 69.9738C43.8 74.2054 45.58 77.7209 48.426 80.047C51.2789 82.3788 55.0538 83.3925 59.2987 82.8891C61.9733 82.572 64.3315 81.9744 66.2978 81.064L67.1817 80.6547L67.2233 79.6815L67.5268 72.5864L67.6501 69.7022L65.1399 71.1279C63.2304 72.2125 61.4989 72.8453 59.7729 73.05C57.8267 73.2807 56.471 72.8907 55.5721 72.1882C54.6749 71.487 53.9963 70.2896 53.7754 68.4263C53.2912 64.3426 55.61 61.424 59.0707 61.0136C61.2405 60.7564 63.4501 61.266 65.4629 62.6155L67.828 64.2011L67.9504 61.3563L68.2756 53.8007ZM82.372 56.5866C84.187 56.4223 85.6114 57.5485 85.7892 59.512C86.03 62.1707 84.3059 64.2012 82.1716 64.3945C81.1107 64.4905 80.3373 64.2081 79.8117 63.7495C79.2786 63.2845 78.848 62.5039 78.742 61.3327C78.5082 58.7518 80.1344 56.7893 82.372 56.5866ZM104.244 55.3843C104.028 55.5076 103.675 55.6181 103.113 55.7147L103.196 54.5191C103.875 54.4937 104.195 54.5833 104.313 54.6443C104.323 54.6493 104.33 54.6534 104.334 54.6563C104.335 54.6573 104.335 54.6584 104.336 54.6597C104.339 54.6669 104.344 54.679 104.349 54.6971C104.36 54.7336 104.374 54.7942 104.382 54.8856C104.41 55.1947 104.36 55.2954 104.36 55.2964C104.359 55.2982 104.358 55.3003 104.35 55.3084C104.34 55.3186 104.311 55.346 104.244 55.3843Z" fill="white" stroke="#262726" stroke-width="3.19744"/>
<mask id="mask1_642_24264" style="mask-type:alpha" maskUnits="userSpaceOnUse" x="44" y="46" width="88" height="36">
<path d="M82.448 70.7873C85.994 70.4661 88.8461 68.8603 90.7489 66.1854C92.3366 63.9791 93.0294 61.3038 92.7675 58.4125C92.2834 53.0663 88.0419 49.6553 82.1228 50.1914C78.6041 50.51 75.6454 52.153 73.7922 54.7684C72.2069 57.002 71.539 59.6475 71.8009 62.5388C72.0479 65.2665 73.3935 67.6747 75.3941 69.116C77.3054 70.483 79.6385 71.0417 82.448 70.7873ZM82.2278 54.9944C84.9282 54.7499 87.1245 56.531 87.3814 59.3678C87.6902 62.7774 85.4526 65.7026 82.3158 65.9867C79.4517 66.246 77.4215 64.4774 77.1498 61.4769C76.8459 58.1219 79.0091 55.2859 82.2278 54.9944Z" fill="#C1C1C1"/>
<path d="M95.4483 69.0874L100.631 68.6181L101.107 61.7273L103.289 61.5297C105.498 61.3296 107.212 61.1194 108.526 60.1479C110.173 58.8987 111.176 56.6079 110.949 54.0984C110.724 51.6162 109.557 49.9619 107.501 49.1305C105.989 48.525 104.238 48.6285 102.138 48.8187L96.7916 49.3029L95.4483 69.0874ZM101.386 57.522L101.695 53.0389L102.622 52.9549C104.75 52.7623 105.841 53.2685 105.974 54.7414C106.157 56.7599 104.659 57.2256 101.877 57.4775L101.386 57.522Z" fill="#C1C1C1"/>
<path d="M119.941 58.7842L121.609 54.123C121.718 53.8106 121.949 53.0197 122.274 51.7527C122.368 52.4867 122.544 53.2133 122.747 53.9374L124.06 58.4111L119.941 58.7842ZM111.175 67.6632L116.848 67.1494L118.37 63.299L125.189 62.6815L126.313 66.2922L131.605 65.8129L125.693 46.6855L119.174 47.2759L111.175 67.6632Z" fill="#C1C1C1"/>
<path d="M66.6783 53.732C64.3244 52.8663 61.5967 52.3885 58.3983 52.7677C53.356 53.3656 49.4686 55.6581 47.1852 59.2485C45.2576 62.3008 44.4308 65.9475 44.8859 69.7856C45.8094 77.5747 51.359 82.2206 59.1105 81.3015C61.6692 80.9982 63.8536 80.4339 65.6261 79.6132L65.9295 72.518C63.8918 73.6754 61.9554 74.4011 59.9611 74.6376C55.4833 75.1685 52.7009 72.9418 52.1878 68.6145C51.6122 63.7604 54.4423 59.9525 58.8825 59.426C61.4412 59.1226 64.0318 59.7313 66.3532 61.2876L66.6783 53.732Z" fill="#C1C1C1"/>
</mask>
<g mask="url(#mask1_642_24264)">
<rect x="42.1328" y="63.8623" width="90.7541" height="23.2874" transform="rotate(-5.28524 42.1328 63.8623)" fill="#D9D9D9"/>
</g>
<path fill-rule="evenodd" clip-rule="evenodd" d="M75.3946 69.1165C73.394 67.6752 72.0484 65.267 71.8014 62.5393C71.5395 59.648 72.2075 57.0024 73.7927 54.7689C75.6459 52.1535 78.6046 50.5105 82.1233 50.1918C88.0424 49.6558 92.2839 53.0667 92.768 58.413C93.0299 61.3043 92.3372 63.9796 90.7494 66.1859C88.8466 68.8608 85.9945 70.4666 82.4485 70.7877C79.639 71.0422 77.3059 70.4835 75.3946 69.1165ZM91.3994 66.6512C89.3523 69.5278 86.2821 71.2432 82.5206 71.5838C79.5582 71.8521 77.025 71.2653 74.9296 69.7667L74.9273 69.7651C72.724 68.1777 71.2715 65.551 71.0053 62.6114C70.7277 59.546 71.4366 56.7076 73.1407 54.3065C75.1415 51.4828 78.3221 49.7335 82.0512 49.3957C85.1807 49.1123 87.9311 49.8688 89.976 51.4667C92.0246 53.0675 93.3038 55.466 93.5641 58.3409C93.8419 61.4083 93.107 64.2775 91.3994 66.6512ZM94.5878 69.9685L96.0408 48.5688L102.066 48.0231C104.135 47.8358 106.08 47.7008 107.799 48.3889L107.801 48.39C108.957 48.8574 109.893 49.5705 110.568 50.5389C111.24 51.5033 111.623 52.6778 111.745 54.0268C111.994 56.7783 110.901 59.3507 109.01 60.7852L109.006 60.7882L109.002 60.7912C107.477 61.9181 105.527 62.1302 103.362 62.3263L101.858 62.4625L101.382 69.3532L94.5878 69.9685ZM101.107 61.7278L103.29 61.5302C105.499 61.3301 107.212 61.1199 108.527 60.1484C110.174 58.8992 111.176 56.6084 110.949 54.0989C110.724 51.6167 109.557 49.9624 107.502 49.131C105.989 48.5255 104.239 48.629 102.138 48.8192L96.7922 49.3034L95.4488 69.0879L100.631 68.6185L101.107 61.7278ZM121.609 54.1235L119.941 58.7846L124.06 58.4116L122.748 53.9379C122.708 53.7954 122.669 53.6528 122.631 53.5101C122.478 52.9276 122.35 52.3428 122.275 51.7532C122.083 52.5011 121.924 53.0831 121.803 53.4987C121.719 53.7872 121.654 53.9955 121.609 54.1235ZM122.189 54.875L121.116 57.8757L123.019 57.7033L122.189 54.875ZM109.959 68.5765L118.61 46.5248L126.266 45.8315L132.661 66.5205L125.743 67.147L124.618 63.5363L118.933 64.0512L117.411 67.9015L109.959 68.5765ZM118.37 63.2995L125.189 62.6819L126.314 66.2927L131.606 65.8134L125.693 46.686L119.174 47.2764L111.175 67.6636L116.849 67.1498L118.37 63.2995ZM67.5026 53.1837L67.0911 62.7448L65.9086 61.952C63.7414 60.4991 61.3414 59.94 58.9771 60.2203C55.0267 60.6887 52.4522 64.052 52.9821 68.5209C53.2208 70.5344 53.9721 71.9523 55.0804 72.8185C56.1896 73.6854 57.7749 74.0924 59.8675 73.8442C61.7277 73.6237 63.5616 72.9444 65.5352 71.8235L66.7903 71.1106L66.4044 80.1344L65.9624 80.3391C64.0931 81.2046 61.8218 81.7856 59.2051 82.0958C55.1448 82.5773 51.5947 81.6046 48.9323 79.4286C46.2735 77.2554 44.5744 73.9433 44.0926 69.8802C43.6167 65.8665 44.481 62.0348 46.5098 58.8222L46.5112 58.82C48.9447 54.9935 53.0663 52.5955 58.3046 51.9744C61.642 51.5787 64.4964 52.0782 66.9547 52.9822L67.5026 53.1837ZM86.5859 59.4404C86.3685 57.0402 84.5581 55.5866 82.3004 55.791C79.5723 56.0381 77.6776 58.4373 77.9464 61.4053C78.0674 62.741 78.5704 63.7274 79.2867 64.3524C79.9992 64.974 80.9977 65.3039 82.2442 65.191C84.8798 64.9523 86.8606 62.4745 86.5859 59.4404ZM101.387 57.5225L101.878 57.478C101.985 57.4683 102.09 57.4583 102.193 57.4479C104.773 57.1879 106.151 56.6827 105.975 54.7419C105.841 53.269 104.751 52.7627 102.623 52.9554L101.696 53.0394L101.387 57.5225ZM102.249 56.6384C103.406 56.5149 104.171 56.3475 104.641 56.0786C104.877 55.9434 105.006 55.7994 105.082 55.6412C105.161 55.475 105.216 55.2208 105.179 54.814C105.132 54.2966 104.949 54.073 104.68 53.9344C104.332 53.7548 103.716 53.659 102.695 53.7515L102.446 53.7741L102.249 56.6384ZM65.6266 79.6137C63.8542 80.4344 61.6698 80.9986 59.111 81.302C51.3595 82.2211 45.81 77.5752 44.8864 69.7861C44.4313 65.9479 45.2581 62.3012 47.1857 59.249C49.4692 55.6585 53.3565 53.366 58.3988 52.7682C61.5972 52.3889 64.3249 52.8668 66.6789 53.7324L66.3537 61.2881C66.097 61.116 65.8371 60.9555 65.5743 60.8066C63.4599 59.6083 61.1589 59.1567 58.883 59.4265C54.4428 59.953 51.6127 63.7609 52.1883 68.615C52.7014 72.9423 55.4838 75.169 59.9616 74.638C61.6871 74.4334 63.3691 73.8627 65.1109 72.963C65.3824 72.8228 65.6553 72.6746 65.93 72.5185L65.6266 79.6137ZM87.382 59.3683C87.1251 56.5315 84.9287 54.7504 82.2283 54.9949C79.0097 55.2864 76.8465 58.1224 77.1503 61.4774C77.422 64.4778 79.4522 66.2465 82.3163 65.9871C85.4531 65.7031 87.6907 62.7779 87.382 59.3683Z" fill="white"/>
<path d="M115.772 70.8048L115.218 76.7229L98.5435 78.1758L98.9138 72.281L115.772 70.8048Z" fill="#FFDF00"/>
<path d="M96.325 72.5329L95.975 78.3629L70.543 80.5257L71.1074 74.6735L96.325 72.5329Z" fill="#2DDB81"/>
<path d="M132.626 69.2892L132.277 75.1336L117.214 76.4313L117.78 70.5691L132.626 69.2892Z" fill="white"/>
</g>
<path d="M30.9703 80.3276C38.951 80.3276 45.4207 73.858 45.4207 65.8773C45.4207 57.8966 38.951 51.427 30.9703 51.427C22.9896 51.427 16.52 57.8966 16.52 65.8773C16.52 73.858 22.9896 80.3276 30.9703 80.3276Z" fill="#262726"/>
<path d="M30.9701 77.9402C37.6322 77.9402 43.033 72.5395 43.033 65.8773C43.033 59.2152 37.6322 53.8145 30.9701 53.8145C24.308 53.8145 18.9072 59.2152 18.9072 65.8773C18.9072 72.5395 24.308 77.9402 30.9701 77.9402Z" fill="#2DDB81"/>
<path d="M26.6609 70.0113L24.913 70.1868L25.0278 68.7437L26.5774 68.5987C27.0148 68.5548 27.3644 68.4101 27.626 68.1646C27.8912 67.9189 28.0851 67.6148 28.2078 67.2526C28.334 66.8899 28.4057 66.5134 28.4231 66.1228L28.4271 65.7937C28.4354 65.5595 28.4252 65.3167 28.3964 65.065C28.3672 64.8099 28.3065 64.5757 28.2144 64.3622C28.1223 64.1488 27.985 63.9788 27.8026 63.8522C27.6238 63.7252 27.3851 63.6714 27.0865 63.6908L25.338 63.8611L25.4419 62.4138L27.0014 62.2625C27.5134 62.2216 27.9719 62.2816 28.3768 62.4424C28.7815 62.5998 29.1251 62.8357 29.4076 63.1501C29.6898 63.4611 29.9034 63.8285 30.0485 64.2522C30.1936 64.676 30.2622 65.1304 30.2544 65.6154L30.2508 65.9498C30.2357 66.4674 30.1403 66.9613 29.9649 67.4313C29.789 67.8979 29.5448 68.3166 29.2321 68.6873C28.919 69.0546 28.5445 69.3555 28.1086 69.5902C27.6758 69.821 27.1932 69.9614 26.6609 70.0113ZM26.5075 62.3068L25.9471 70.083L24.1518 70.2633L24.707 62.4876L26.5075 62.3068ZM34.6956 63.197L32.4794 69.4269L30.4899 69.6267L33.7746 61.5769L35.045 61.4493L34.6956 63.197ZM35.7759 69.0958L34.3832 63.0428L34.2733 61.5268L35.4701 61.4066L37.6498 68.9076L35.7759 69.0958ZM35.899 66.2043L35.7899 67.6522L31.9738 68.0355L32.0828 66.5876L35.899 66.2043Z" fill="#262726"/>
<defs>
<clipPath id="clip0_642_24264">
<rect width="119.904" height="32.7737" fill="white" transform="translate(16.2539 2.39941)"/>
</clipPath>
<clipPath id="clip1_642_24264">
<rect width="93.7915" height="39.1686" fill="white" transform="translate(40.5005 45.8315)"/>
</clipPath>
</defs>
</svg>
