<svg width="356" height="28" viewBox="0 0 356 28" fill="none" xmlns="http://www.w3.org/2000/svg">
<path d="M15.1023 26.3945V23.1053C15.1023 22.7162 14.784 22.3979 14.3949 22.3979H8.31158C6.64926 22.3979 6.048 21.832 6.048 19.9928V1.70737C6.048 1.31832 5.72968 1 5.34063 1H0.707369C0.318316 1 0 1.31832 0 1.70737V19.9928C0 26.4299 4.06737 27.5971 8.6299 27.5971C10.5044 27.5971 13.2278 27.3848 14.3949 27.1373C14.8901 27.0312 15.1023 26.8543 15.1023 26.3945Z" fill="#FFB400"/>
<path d="M35.388 26.5714V7.75537C35.388 7.36632 35.0344 7.01263 34.6453 7.01263H30.3657C29.9767 7.01263 29.6584 7.36632 29.6584 7.75537V21.6905C28.4558 22.3272 27.3594 22.8223 26.3337 22.8223C24.1762 22.8223 23.7165 22.0088 23.7165 19.5331V7.75537C23.7165 7.36632 23.3981 7.01263 23.0091 7.01263H18.7295C18.3405 7.01263 17.9868 7.36632 17.9868 7.75537V19.5331C17.9868 23.9895 19.1186 27.5617 24.247 27.5617C26.5106 27.5617 28.0668 27.1019 30.012 25.7225V26.5714C30.012 26.9604 30.3304 27.2787 30.7194 27.2787H34.6807C35.0697 27.2787 35.388 26.9604 35.388 26.5714Z" fill="#FFB400"/>
<path d="M52.8001 26.2531V23.1053C52.8001 22.7516 52.4818 22.504 52.1281 22.504C52.1281 22.504 52.0927 22.504 52.0573 22.504C50.7487 22.6455 49.7584 22.7516 47.7424 22.7516C46.1508 22.7516 44.8422 21.7966 44.8422 18.6488V15.6779C44.8422 12.5301 46.1508 11.5752 47.7424 11.5752C49.7584 11.5752 50.7487 11.6813 52.0573 11.8227C52.0927 11.8227 52.1281 11.8227 52.1281 11.8227C52.4818 11.8227 52.8001 11.5752 52.8001 11.2215V8.07368C52.8001 7.54316 52.5879 7.40168 52.0573 7.26021C51.067 7.01263 49.4754 6.72968 47.3533 6.72968C42.3664 6.72968 39.1125 9.91284 39.1125 15.6779V18.6488C39.1125 24.4139 42.3664 27.5971 47.3533 27.5971C49.4754 27.5971 51.067 27.3141 52.0573 27.0665C52.5879 26.9251 52.8001 26.7836 52.8001 26.2531Z" fill="#FFB400"/>
<path d="M72.0275 26.5714V13.9448C72.0275 8.78105 68.8444 6.72968 63.7513 6.72968C61.417 6.72968 58.9412 7.15411 57.6326 7.47242C57.2081 7.57853 56.9606 7.86147 56.9606 8.25053V11.1154C56.9606 11.5752 57.2435 11.752 57.5972 11.752H57.774C58.8705 11.6459 61.3816 11.5044 63.6452 11.5044C65.3075 11.5044 66.2978 11.9288 66.2978 13.9448V15.2181H64.3879C58.3399 15.2181 55.6873 17.0573 55.6873 21.1954V21.5137C55.6873 26.1116 58.6582 27.5971 61.7353 27.5971C63.8574 27.5971 65.2721 26.9958 66.6515 26.0055V26.5714C66.6515 26.9604 66.9698 27.2787 67.3589 27.2787H71.3201C71.7092 27.2787 72.0275 26.9604 72.0275 26.5714ZM66.4039 22.504C65.5551 22.9284 64.5648 23.2821 63.5037 23.2821C62.0182 23.2821 61.2755 22.9992 61.2755 21.5137V21.1954C61.2755 19.4623 61.9121 18.6135 64.3879 18.6135H66.4039V22.504Z" fill="#FFB400"/>
<path d="M90.4376 21.6552C90.4376 19.7453 89.801 17.9061 86.8654 16.2084L82.4797 13.6973C81.7723 13.2728 81.3833 12.9899 81.3833 12.4594C81.3833 11.6459 81.8784 11.4337 83.2578 11.4337C85.0616 11.4337 88.1033 11.752 89.129 11.8935C89.1643 11.8935 89.1997 11.8935 89.2351 11.8935C89.5888 11.8935 89.8363 11.6459 89.8363 11.2215V8.35663C89.8363 7.93221 89.5888 7.64926 89.1643 7.54316C87.3605 7.08337 85.6629 6.72968 82.8688 6.72968C77.9879 6.72968 75.6182 8.63958 75.6182 12.2118C75.6182 14.5107 76.7854 16.3145 78.766 17.4463L83.3639 20.0989C84.3542 20.6648 84.6725 21.0539 84.6725 21.5844C84.6725 22.504 84.2835 22.9638 82.5858 22.9638C81.454 22.9638 78.4831 22.7162 76.5732 22.4686C76.5378 22.4686 76.4671 22.4686 76.4317 22.4686C76.0073 22.4686 75.7597 22.7869 75.7597 23.1406V26.0055C75.7597 26.4299 76.0073 26.7128 76.4317 26.8189C78.2355 27.3141 80.9235 27.5971 82.8688 27.5971C88.0325 27.5971 90.4376 24.9798 90.4376 21.6552Z" fill="#FFB400"/>
<path d="M119.909 26.7739V2.22821C119.909 1.48547 119.379 0.990316 118.636 0.990316H115.311C114.568 0.990316 114.073 1.344 113.755 1.94526L108.344 12.0253C108.202 12.3082 108.096 12.4851 107.955 12.4851C107.813 12.4851 107.707 12.3082 107.565 12.0253L102.154 1.94526C101.836 1.344 101.341 0.990316 100.598 0.990316H97.2733C96.5305 0.990316 96 1.45011 96 2.19284V26.7739C96 27.1629 96.3183 27.2691 96.6013 27.2691H101.27C101.588 27.2691 101.836 26.9507 101.836 26.5617V11.8131C101.836 11.5655 101.942 11.5301 102.013 11.5301C102.119 11.5301 102.189 11.6008 102.296 11.7777L105.479 17.6135C105.726 18.0379 106.08 18.2147 106.54 18.2147H109.369C109.829 18.2147 110.183 18.0379 110.43 17.6135L113.613 11.7777C113.72 11.6008 113.79 11.5301 113.896 11.5301C113.967 11.5301 114.073 11.5655 114.073 11.8131V26.5617C114.073 26.9507 114.321 27.2691 114.639 27.2691H119.308C119.591 27.2691 119.909 27.1629 119.909 26.7739Z" fill="#242526"/>
<path d="M141.675 18.3916V15.9158C141.675 10.2922 138.563 6.72 132.833 6.72C127.103 6.72 123.955 10.2922 123.955 15.9158V18.3916C123.955 24.0152 127.103 27.5874 132.833 27.5874C138.563 27.5874 141.675 24.0152 141.675 18.3916ZM135.981 18.3916C135.981 21.2564 134.884 22.7419 132.833 22.7419C130.782 22.7419 129.65 21.2564 129.65 18.3916V15.9158C129.65 13.0509 130.782 11.6008 132.833 11.6008C134.884 11.6008 135.981 13.0509 135.981 15.9158V18.3916Z" fill="#242526"/>
<path d="M162.75 26.5263V14.7486C162.75 10.2922 161.618 6.72 156.49 6.72C154.226 6.72 152.67 7.17979 150.725 8.55916V7.71032C150.725 7.32126 150.406 7.00295 150.017 7.00295H146.056C145.667 7.00295 145.349 7.32126 145.349 7.71032V26.5263C145.349 26.9154 145.702 27.2691 146.091 27.2691H150.371C150.76 27.2691 151.078 26.9154 151.078 26.5263V12.5912C152.281 11.9545 153.377 11.4594 154.403 11.4594C156.56 11.4594 157.02 12.2728 157.02 14.7486V26.5263C157.02 26.9154 157.339 27.2691 157.728 27.2691H162.007C162.396 27.2691 162.75 26.9154 162.75 26.5263Z" fill="#242526"/>
<path d="M178.227 26.5971V23.8383C178.227 23.4493 177.944 23.2371 177.485 23.2371H175.752C174.691 23.2371 174.584 22.9895 174.584 21.5747V11.2825H177.485C177.874 11.2825 178.192 10.9642 178.192 10.5752V7.71032C178.192 7.32126 177.874 7.00295 177.485 7.00295H174.584V3.25389C174.584 2.90021 174.302 2.65263 173.948 2.65263C173.912 2.65263 173.877 2.65263 173.842 2.65263L169.527 3.39537C169.138 3.4661 168.819 3.71368 168.819 4.10274V7.00295H165.99C165.601 7.00295 165.247 7.35663 165.247 7.74568V10.08C165.247 10.4691 165.601 10.752 165.99 10.8227L168.819 11.2825V21.5394C168.819 26.5617 170.871 27.5874 174.761 27.5874C175.787 27.5874 176.494 27.4813 177.555 27.3044C177.98 27.2337 178.227 26.9507 178.227 26.5971Z" fill="#242526"/>
<path d="M198.596 18.0733V16.0219C198.596 10.6813 195.66 6.72 189.86 6.72C184.236 6.72 180.912 10.3276 180.912 16.0219V18.4977C180.912 25.3238 185.51 27.5874 189.789 27.5874C192.866 27.5874 194.776 27.3044 197.04 26.7385C197.641 26.5971 197.783 26.3495 197.783 25.7836V23.0956C197.783 22.7065 197.5 22.5297 197.111 22.5297C197.075 22.5297 197.04 22.5297 197.004 22.5297C195.59 22.6712 192.442 22.848 190.214 22.848C187.42 22.848 186.571 21.0088 186.571 18.9928V18.9221H197.853C198.313 18.9221 198.596 18.6038 198.596 18.0733ZM193.008 15.3853H186.571V15.2438C186.571 12.6619 187.879 11.3179 189.825 11.3179C191.805 11.3179 193.008 12.6265 193.008 15.2438V15.3853Z" fill="#242526"/>
<path d="M208.317 3.99663V0.707368C208.317 0.318316 207.999 0 207.609 0H203.012C202.623 0 202.304 0.318316 202.304 0.707368V3.99663C202.304 4.38568 202.623 4.704 203.012 4.704H207.609C207.999 4.704 208.317 4.38568 208.317 3.99663ZM208.175 26.5617V7.71032C208.175 7.32126 207.857 7.00295 207.468 7.00295H203.153C202.764 7.00295 202.446 7.32126 202.446 7.71032V26.5617C202.446 26.9507 202.764 27.2691 203.153 27.2691H207.468C207.857 27.2691 208.175 26.9507 208.175 26.5617Z" fill="#242526"/>
<path d="M223.668 10.7874V7.42737C223.668 7.03832 223.35 6.72 222.961 6.72C221.263 6.72 219.495 7.32126 218.186 8.41768V7.71032C218.186 7.32126 217.868 7.00295 217.479 7.00295H213.27C212.881 7.00295 212.562 7.32126 212.562 7.71032V26.5263C212.562 26.9154 212.916 27.2691 213.305 27.2691H217.585C217.974 27.2691 218.292 26.9154 218.292 26.5263V12.6973C219.601 11.9899 221.122 11.4594 222.855 11.4594H223.138C223.456 11.4594 223.668 11.1057 223.668 10.7874Z" fill="#242526"/>
<path d="M243.083 18.3916V15.9158C243.083 10.2922 239.97 6.72 234.241 6.72C228.511 6.72 225.363 10.2922 225.363 15.9158V18.3916C225.363 24.0152 228.511 27.5874 234.241 27.5874C239.97 27.5874 243.083 24.0152 243.083 18.3916ZM237.389 18.3916C237.389 21.2564 236.292 22.7419 234.241 22.7419C232.189 22.7419 231.058 21.2564 231.058 18.3916V15.9158C231.058 13.0509 232.189 11.6008 234.241 11.6008C236.292 11.6008 237.389 13.0509 237.389 15.9158V18.3916Z" fill="#242526"/>
<path d="M296.24 11.8265L293.363 9.85413L279.938 18.9282C279.321 19.3452 278.816 19.9071 278.466 20.5647C278.116 21.2224 277.933 21.9557 277.933 22.7005V26.2303C277.933 26.551 278.021 26.8656 278.186 27.1403C278.351 27.4151 278.588 27.6398 278.871 27.7902C279.154 27.9407 279.473 28.0113 279.793 27.9944C280.114 27.9775 280.423 27.8739 280.689 27.6945L296.226 17.2029C296.662 16.904 297.019 16.5034 297.267 16.0358C297.514 15.5682 297.644 15.0474 297.645 14.5184C297.647 13.9894 297.52 13.468 297.275 12.999C297.03 12.5301 296.675 12.1277 296.24 11.8265V11.8265Z" fill="url(#paint0_linear_9_8414)"/>
<path d="M296.24 17.1656L293.363 19.1334L289.381 21.8192C289.816 21.5192 290.172 21.1177 290.419 20.6494C290.665 20.1811 290.793 19.6601 290.793 19.1311C290.793 18.602 290.665 18.081 290.419 17.6127C290.172 17.1444 289.816 16.7429 289.381 16.4429L279.938 10.0686C279.321 9.65166 278.816 9.08974 278.466 8.43209C278.116 7.77444 277.933 7.04112 277.933 6.29634V2.7665C277.933 2.44585 278.021 2.13128 278.186 1.85649C278.351 1.5817 278.588 1.35705 278.871 1.2066C279.154 1.05615 279.473 0.985581 279.793 1.00245C280.114 1.01931 280.423 1.12298 280.689 1.30234L296.226 11.7939C296.661 12.093 297.018 12.4933 297.264 12.9605C297.511 13.4277 297.641 13.9478 297.642 14.4761C297.643 15.0044 297.517 15.5252 297.272 15.9936C297.028 16.4621 296.674 16.8643 296.24 17.1656V17.1656Z" fill="url(#paint1_linear_9_8414)"/>
<path d="M293.363 9.8542L286.504 14.5171L279.943 10.0873C279.326 9.67036 278.82 9.10844 278.471 8.45078C278.121 7.79313 277.938 7.05981 277.938 6.31503V2.76654C277.939 2.44663 278.026 2.13292 278.191 1.85885C278.356 1.58479 278.592 1.36065 278.875 1.21035C279.157 1.06006 279.475 0.989236 279.795 1.00544C280.114 1.02165 280.423 1.12428 280.689 1.30238" fill="url(#paint2_linear_9_8414)"/>
<path d="M250.396 17.1688L253.273 19.1319L266.717 10.0671C267.335 9.65104 267.841 9.08931 268.19 8.43146C268.54 7.77361 268.722 7.03984 268.722 6.29483V2.76966C268.722 2.44826 268.635 2.13283 268.469 1.85731C268.304 1.58179 268.066 1.35662 267.782 1.20602C267.499 1.05542 267.179 0.985102 266.858 1.00263C266.537 1.02016 266.227 1.12487 265.961 1.3055L250.429 11.7971C249.992 12.0947 249.635 12.4937 249.386 12.9601C249.138 13.4264 249.007 13.9461 249.003 14.4744C249 15.0027 249.125 15.5239 249.368 15.9932C249.61 16.4625 249.963 16.8659 250.396 17.1688V17.1688Z" fill="url(#paint3_linear_9_8414)"/>
<path d="M250.396 11.8298L253.292 9.85736L257.274 7.17151C256.839 7.47157 256.482 7.87303 256.236 8.34131C255.99 8.8096 255.862 9.33068 255.862 9.85969C255.862 10.3887 255.99 10.9098 256.236 11.3781C256.482 11.8464 256.839 12.2478 257.274 12.5479V12.5479L266.717 18.9314C267.334 19.3481 267.84 19.91 268.189 20.5677C268.539 21.2254 268.722 21.9589 268.722 22.7037V26.2336C268.722 26.5542 268.634 26.8688 268.469 27.1436C268.304 27.4184 268.067 27.643 267.784 27.7935C267.5 27.9439 267.182 28.0145 266.862 27.9976C266.541 27.9808 266.232 27.8771 265.966 27.6977L250.429 17.2061C249.992 16.9087 249.633 16.5094 249.384 16.0426C249.135 15.5759 249.003 15.0555 249 14.5265C248.997 13.9975 249.122 13.4757 249.366 13.0059C249.609 12.5361 249.963 12.1325 250.396 11.8298V11.8298Z" fill="url(#paint4_linear_9_8414)"/>
<path d="M253.292 19.1364L260.151 14.5201L266.717 18.9313C267.334 19.348 267.84 19.9098 268.189 20.5675C268.539 21.2253 268.722 21.9587 268.722 22.7036V26.2334C268.722 26.5541 268.634 26.8686 268.469 27.1434C268.304 27.4182 268.067 27.6429 267.784 27.7933C267.5 27.9438 267.182 28.0143 266.861 27.9975C266.541 27.9806 266.232 27.8769 265.966 27.6976" fill="url(#paint5_linear_9_8414)"/>
<path d="M319.023 16.7097V13.0253C319.023 6.99892 315.595 4 309.912 4C307.541 4 304.999 4.22849 303.828 4.42842C303.286 4.5141 303 4.77115 303 5.42806V24.307C303 24.9639 303.286 25.2209 303.828 25.3066C304.999 25.5066 307.541 25.735 309.912 25.735C315.595 25.735 319.023 22.7361 319.023 16.7097ZM314.139 16.7097C314.139 20.5655 312.482 21.5937 309.912 21.5937C309.198 21.5937 308.284 21.5651 307.884 21.5366V8.19849C308.284 8.16993 309.198 8.14137 309.912 8.14137C312.482 8.14137 314.139 9.16957 314.139 13.0253V16.7097Z" fill="#FFB400"/>
<path d="M335.435 24.764V22.1078C335.435 21.7936 335.178 21.5366 334.864 21.5366H329.066C327.724 21.5366 327.238 21.0796 327.238 19.5944V16.5669H334.636C334.95 16.5669 335.207 16.3099 335.207 15.9957V13.2824C335.207 12.9682 334.95 12.7112 334.636 12.7112H327.238V10.1121C327.238 8.62691 327.724 8.16993 329.066 8.16993H334.864C335.178 8.16993 335.435 7.91288 335.435 7.59871V4.94252C335.435 4.57122 335.264 4.42842 334.864 4.3713C333.864 4.22849 332.436 4 329.352 4C325.667 4 322.383 4.91396 322.383 10.1121V19.5944C322.383 24.7925 325.639 25.735 329.323 25.735C332.408 25.735 333.864 25.5066 334.864 25.3638C335.264 25.3066 335.435 25.1353 335.435 24.764Z" fill="#FFB400"/>
<path d="M355.83 4.71403C355.83 4.42842 355.63 4.25705 355.345 4.25705H351.346C351.06 4.25705 350.86 4.48554 350.803 4.77115L347.233 21.2509C347.176 21.5651 347.09 21.6794 346.833 21.6794C346.576 21.6794 346.491 21.5651 346.434 21.2509L342.863 4.77115C342.806 4.48554 342.578 4.25705 342.292 4.25705H338.322C338.037 4.25705 337.808 4.45698 337.808 4.71403C337.808 4.77115 337.837 4.79971 337.837 4.85683L342.092 22.5648C342.749 25.3066 344.863 25.735 346.833 25.735C348.804 25.735 350.889 25.3066 351.546 22.5648L355.802 4.85683C355.802 4.79971 355.83 4.74259 355.83 4.71403Z" fill="#FFB400"/>
<defs>
<linearGradient id="paint0_linear_9_8414" x1="278.81" y1="27.3914" x2="290.295" y2="15.8227" gradientUnits="userSpaceOnUse">
<stop stop-color="#FFB400"/>
<stop offset="1" stop-color="#FFB400"/>
</linearGradient>
<linearGradient id="paint1_linear_9_8414" x1="276.791" y1="3.12555" x2="294.794" y2="18.4899" gradientUnits="userSpaceOnUse">
<stop/>
<stop offset="1" stop-color="#FFB400"/>
</linearGradient>
<linearGradient id="paint2_linear_9_8414" x1="277.607" y1="2.26295" x2="290.285" y2="13.0856" gradientUnits="userSpaceOnUse">
<stop stop-color="#FFB400"/>
<stop offset="1" stop-color="#FFB400"/>
</linearGradient>
<linearGradient id="paint3_linear_9_8414" x1="267.845" y1="1.60859" x2="256.36" y2="13.1773" gradientUnits="userSpaceOnUse">
<stop stop-color="#FFB400"/>
<stop offset="1" stop-color="#FFB400"/>
</linearGradient>
<linearGradient id="paint4_linear_9_8414" x1="269.864" y1="25.8745" x2="251.861" y2="10.5055" gradientUnits="userSpaceOnUse">
<stop/>
<stop offset="1" stop-color="#FFB400"/>
</linearGradient>
<linearGradient id="paint5_linear_9_8414" x1="269.048" y1="26.7324" x2="256.37" y2="15.9144" gradientUnits="userSpaceOnUse">
<stop stop-color="#FFB400"/>
<stop offset="1" stop-color="#FFB400"/>
</linearGradient>
</defs>
</svg>
