<svg width="201" height="95" viewBox="0 0 201 95" fill="none" xmlns="http://www.w3.org/2000/svg">
<g clip-path="url(#clip0_563_211)">
<path d="M87.8197 31.5378C87.6853 31.7842 87.5733 33.0609 87.5733 34.4047C87.5958 37.4283 88.0885 39.6008 89.3651 42.0645C89.6339 42.6021 89.8131 43.05 89.7682 43.0948C89.5443 43.2964 86.879 44.1475 85.4903 44.4834C83.3402 44.9986 77.853 44.9986 75.5013 44.4834C74.5829 44.2818 73.799 44.0803 73.7543 44.0355C73.7094 43.9683 73.8662 43.4532 74.0903 42.8484C74.8294 40.9895 75.0981 38.8617 74.9637 36.2861C74.7845 32.8369 73.9782 30.9331 73.0824 31.8514C72.8136 32.0978 72.836 32.3665 73.1271 33.4864C74.0006 36.8236 73.6871 40.0488 72.1417 43.9907C70.8426 47.3055 70.4619 49.4555 70.6186 52.8376C70.753 55.7044 71.0441 57.1826 72.0297 59.8256C72.7464 61.7293 73.463 62.8043 74.0231 62.8043C74.7397 62.8043 74.6725 62.0876 73.8215 60.2062C72.6792 57.7201 72.0745 54.9878 72.0297 52.2776C72.0073 49.4332 72.2312 48.2686 72.7464 48.4702C74.7845 49.2316 80.7197 53.1959 81.4141 54.271C81.6157 54.5621 81.8173 55.6372 81.9068 56.8466C82.0189 58.4369 82.1307 58.9521 82.422 59.1088C83.2283 59.5343 83.4299 59.0416 83.3627 56.5779L83.273 54.2262L84.7065 52.7256C85.4903 51.8744 87.0582 50.4411 88.2005 49.5227C90.3281 47.8429 90.6866 47.1935 89.6339 47.0591C89.0068 46.9695 86.0727 49.2316 83.9226 51.4713L82.3772 53.0616L80.899 51.8521C79.1071 50.3962 76.106 48.4925 74.1798 47.5966C73.1271 47.1039 72.7911 46.8127 72.7911 46.4768C72.7911 45.4913 73.0599 45.4017 74.6053 45.8049C76.8675 46.3648 82.8027 46.4992 85.132 46.0064C86.7223 45.6929 88.7827 45.0658 90.2834 44.4386C90.5745 44.3266 90.7985 44.6402 91.3585 45.9616C93.0383 50.0156 93.1278 55.0996 91.6048 59.6912C91.1569 61.0125 91.1344 61.2141 91.448 61.5054C91.9856 62.0429 92.3887 61.7293 92.9262 60.2959C93.7102 58.1458 94.1134 55.7941 94.1134 53.0616C94.1357 49.1421 93.3071 46.1184 91.1121 42.3109C90.6641 41.5046 90.0147 40.0488 89.6787 39.0633C89.1187 37.4731 89.0515 36.958 89.0291 34.2479C89.0068 31.3363 89.0068 31.2243 88.5365 31.1571C88.2228 31.1123 87.9541 31.2467 87.8197 31.5378Z" fill="white"/>
<path d="M92.1867 34.5836C91.3804 35.5243 90.7085 36.4202 90.7085 36.5769C90.7085 36.8233 93.2618 39.2646 94.0009 39.6901C94.3817 39.9141 94.9639 39.623 94.9639 39.2198C94.9639 39.0182 94.6056 38.4807 94.1576 38.0328L93.3513 37.2041L94.8744 37.0473C96.8901 36.8681 97.0245 36.8009 96.935 36.2186C96.8678 35.7482 96.7334 35.7034 95.1431 35.6363C94.1801 35.5915 93.3962 35.5019 93.3962 35.4347C93.3962 35.3451 93.7321 34.9419 94.1129 34.5388C94.6951 33.9341 94.7848 33.7101 94.6056 33.3965C94.1353 32.6574 93.6649 32.8814 92.1867 34.5836Z" fill="white"/>
<path d="M67.7068 35.0541C67.6396 35.2781 67.8859 35.7037 68.4011 36.2412C69.3641 37.2267 69.2297 37.3834 67.4155 37.3834C66.7213 37.3834 66.2061 37.5178 65.9822 37.7418C65.5342 38.1673 65.5342 38.1673 65.9598 38.5929C66.2286 38.8617 66.6317 38.9064 67.9084 38.7945L69.521 38.6601L68.9609 39.3768C68.6698 39.7799 68.3339 40.2503 68.2218 40.4071C68.1099 40.5638 68.0874 40.855 68.1546 41.0566C68.4459 41.7957 69.185 41.4149 70.6407 39.7127C72.343 37.7194 72.343 37.7866 70.2601 35.95C68.8042 34.6958 67.9756 34.3822 67.7068 35.0541Z" fill="white"/>
<path d="M101.594 38.0774C101.415 40.026 100.497 62.0425 100.609 62.132C100.653 62.1769 101.908 62.2887 103.386 62.3784L106.096 62.5352L106.253 58.6381C106.678 48.9176 106.79 46.5436 106.88 46.4316C106.947 46.3868 108.403 48.6937 110.105 51.5829C111.807 54.4945 113.33 56.8462 113.465 56.8687C113.599 56.8687 115.346 54.6066 117.362 51.8294C119.378 49.0745 121.057 46.8347 121.102 46.8795C121.124 46.9019 121.012 50.5302 120.811 54.9425C120.609 59.3323 120.497 62.9832 120.542 63.0279C120.609 63.095 121.864 63.2071 123.342 63.2743L126.052 63.431L126.186 61.1018C126.253 59.8252 126.41 56.4207 126.545 53.5538C126.657 50.7094 126.88 46.0284 127.015 43.184C127.149 40.362 127.216 37.9655 127.149 37.9207C127.082 37.8535 125.694 37.7415 124.036 37.6743L121.057 37.5623L120.564 38.3238C120.318 38.727 119.4 40.0708 118.549 41.3026C117.698 42.5345 116.354 44.483 115.57 45.6253C114.786 46.7676 114.092 47.753 114.025 47.7978C113.935 47.8426 112.636 45.6253 111.113 42.8928C109.59 40.1604 108.179 37.6967 107.977 37.4279C107.641 36.9576 107.35 36.9128 104.685 36.7784L101.751 36.644L101.594 38.0774Z" fill="white"/>
<path d="M80.9439 39.242C80.8767 39.4211 80.8542 39.9139 80.899 40.3394C80.9439 40.9665 81.0558 41.0785 81.5261 41.0785C82.0413 41.0785 82.0862 40.989 82.0862 40.0707C82.0862 39.1972 82.019 39.0628 81.571 38.9956C81.2799 38.9508 81.0334 39.0628 80.9439 39.242Z" fill="white"/>
<path d="M50.73 40.0931C42.4654 42.0865 38.2323 50.2839 41.368 58.2125C43.7644 64.2598 50.0804 67.4178 56.7324 65.917C60.2712 65.1107 62.3541 63.6997 64.9074 60.4298C65.1538 60.0939 64.9297 59.8698 63.1604 58.5485L61.1447 57.0478L59.6665 58.4364C58.0539 59.937 56.9339 60.5194 54.9854 60.8777C51.7602 61.4824 48.5798 59.7354 47.124 56.5327C44.7499 51.359 47.572 45.7148 52.8578 45.0877C54.4032 44.9085 56.5084 45.4237 58.1659 46.3644L59.3528 47.0139L60.316 45.5133C60.8536 44.6622 61.503 43.6095 61.7717 43.1616L62.2869 42.3329L61.4358 41.7729C60.9654 41.4594 59.9352 40.9219 59.1289 40.6083C57.8299 40.0484 57.3371 39.9812 54.6494 39.9364C52.9921 39.8916 51.2226 39.9588 50.73 40.0931Z" fill="white"/>
<path d="M141.125 40.2047C139.669 40.5854 137.25 41.8396 136.108 42.7803C134.719 43.9226 133.106 46.2519 132.345 48.2228C131.046 51.5824 131.225 55.7259 132.793 58.8391C134.719 62.6467 138.191 65.1776 142.58 65.9391C144.999 66.3645 145.761 66.3645 147.978 65.9391C150.643 65.4464 152.749 64.2816 154.787 62.2659C156.646 60.407 157.609 58.7047 158.258 56.1739C158.774 54.1357 158.594 50.3058 157.9 48.4692C156.31 44.3481 152.906 41.3245 148.605 40.1823C146.926 39.7567 142.782 39.7567 141.125 40.2047ZM148.157 45.6472C153.107 47.8422 154.227 54.8973 150.263 58.8168C148.695 60.3845 147.62 60.7876 145.134 60.7876C143.297 60.7876 142.827 60.6981 141.774 60.2054C135.57 57.249 136.13 47.8197 142.648 45.3112C143.857 44.8409 146.769 45.0201 148.157 45.6472Z" fill="white"/>
<path d="M78.9056 73.1071C77.1363 73.5998 75.6804 74.4061 74.2919 75.6827C71.8058 77.9672 70.7307 80.431 70.7307 83.9696C70.7307 87.4189 71.7609 89.905 74.1575 92.1447C76.2851 94.1381 79.2192 95.0788 82.8027 94.8995C85.2664 94.7651 87.1255 94.2053 89.1187 93.0182C91.336 91.6743 91.157 92.2567 91.157 86.9037V82.178H86.4535H81.7276L81.7948 84.2384L81.862 86.3213L84.169 86.3885L86.4535 86.4557V87.9788V89.5242L85.2888 90.0169C83.6762 90.7337 80.9662 90.756 79.488 90.0841C75.4565 88.2924 74.4037 82.6258 77.4274 79.2439C78.8161 77.7208 79.8463 77.273 81.9069 77.2505C83.7434 77.2505 85.3336 77.7433 86.6103 78.7064C87.2598 79.2215 87.4389 79.2662 87.663 79.02C89.0068 77.4969 90.261 75.9066 90.261 75.7051C90.261 75.3244 88.0436 73.9358 86.5654 73.3982C84.8184 72.7712 80.6526 72.6143 78.9056 73.1071Z" fill="white"/>
<path d="M145.649 73.1069C142.85 73.8683 140.341 75.7945 138.975 78.2581C135.593 84.3054 138.325 92.0324 144.641 94.3394C146.254 94.9216 149.636 95.1009 151.383 94.7201C153.175 94.3169 154.787 93.5106 156.086 92.346C156.714 91.7861 157.229 91.2486 157.229 91.1814C157.229 90.9573 154.541 88.225 154.317 88.225C154.205 88.225 153.847 88.4489 153.488 88.74C151.965 89.9943 151.137 90.3079 149.143 90.4198C147.419 90.5095 147.127 90.4647 146.12 89.9495C144.798 89.2776 143.678 88.0906 143.051 86.6796C142.402 85.2461 142.402 82.4689 143.051 81.0355C144.865 76.9591 149.546 75.9736 153.22 78.8405C153.667 79.1988 154.093 79.4901 154.16 79.4901C154.205 79.4901 154.944 78.7061 155.773 77.7654L157.296 76.0408L156.534 75.3914C154.384 73.5772 151.965 72.7709 148.83 72.7933C147.732 72.7933 146.276 72.95 145.649 73.1069Z" fill="white"/>
<path d="M0.15678 73.1511C0.0671916 73.2183 0 78.0561 0 83.8795V94.4957L0.515136 94.6078C0.783902 94.675 4.47945 94.6973 8.73491 94.675L16.4619 94.6078L16.5291 92.5248L16.5963 90.4642H10.7507H4.92738V88.2246V85.9847H9.96675H15.0061V83.8571V81.7293H9.96675H4.92738V79.6015V77.4739L10.5939 77.4291L16.238 77.3619L16.3052 75.1669L16.3724 72.9944H8.33176C3.9195 72.9944 0.223971 73.0616 0.15678 73.1511Z" fill="white"/>
<path d="M20.7177 73.263C20.6505 73.4197 20.6281 78.2798 20.6505 84.0808L20.7177 94.6075H22.9575H25.1972L25.3092 87.7763L25.4211 80.9451L28.288 85.2454C29.8782 87.6196 31.2444 89.6129 31.3339 89.6577C31.4236 89.7249 32.8121 87.7987 34.4024 85.3574L37.2916 80.9675L37.4037 87.7763L37.5156 94.6075H39.7554H41.9951L42.0622 83.7897L42.1071 72.9717L39.5985 73.0389L37.0677 73.1061L34.3352 77.4735C32.8347 79.8701 31.5355 81.8186 31.446 81.8186C31.3339 81.7963 30.0349 79.8252 28.5567 77.4512L25.8467 73.1061L23.3381 73.0389C21.4568 72.9942 20.7848 73.0614 20.7177 73.263Z" fill="white"/>
<path d="M54.4477 73.4875C54.2686 73.9578 49.0051 86.3211 46.5862 91.9652C45.7127 93.9809 45.5784 94.4961 45.8471 94.5857C46.0264 94.6528 47.0791 94.72 48.1765 94.72C50.4833 94.72 50.2594 94.8993 51.4689 91.9205L52.2975 89.9047L56.7994 89.8376L61.3237 89.7927L62.2867 92.0772C62.8019 93.3539 63.3618 94.4513 63.4738 94.541C63.7873 94.7649 68.0429 94.7649 68.1547 94.541C68.2219 94.4513 66.7662 90.9126 64.952 86.657C63.1379 82.4016 61.0996 77.6087 60.4277 76.0184L59.1959 73.1069L56.9114 73.0397C54.7389 72.9725 54.6269 72.9948 54.4477 73.4875ZM58.2329 82.1105C58.9048 83.7903 59.5095 85.246 59.5319 85.3581C59.5767 85.4476 58.3896 85.5373 56.9114 85.5373C55.4108 85.5373 54.2014 85.4701 54.2014 85.3581C54.2014 85.0444 56.7322 79.0421 56.8665 79.0421C56.9562 79.0421 57.561 80.4307 58.2329 82.1105Z" fill="white"/>
<path d="M95.7477 73.2638C95.6805 73.4205 95.6582 78.2808 95.6805 84.0816L95.7477 94.6084L98.0545 94.6755L100.339 94.7427V91.2488V87.7772H102.243H104.124L106.431 91.1816L108.738 94.6084L111.179 94.6755C112.546 94.6979 113.777 94.6755 113.934 94.6084C114.158 94.5412 113.621 93.5556 112.075 91.316C110.888 89.5465 109.701 87.8667 109.477 87.5532L109.052 87.0157L110.037 86.5005C111.403 85.8286 112.814 84.1712 113.218 82.7826C113.733 81.0131 113.666 78.4824 113.016 77.1385C112.053 75.0556 110.463 73.8908 107.753 73.3086C105.759 72.883 95.9044 72.8606 95.7477 73.2638ZM107.282 77.9672C108.111 78.3927 108.335 78.6614 108.581 79.4231C109.186 81.3044 108.066 83.1186 106.095 83.4097C105.58 83.4769 104.102 83.5217 102.803 83.4769L100.451 83.4097L100.384 80.4309L100.317 77.4745H103.318C105.961 77.4745 106.409 77.5417 107.282 77.9672Z" fill="white"/>
<path d="M117.921 73.2632C117.854 73.4199 117.832 78.2802 117.854 84.081L117.921 94.6078L125.648 94.675C129.904 94.6973 133.599 94.675 133.891 94.6078C134.361 94.4957 134.383 94.3837 134.383 92.48V90.4642H128.56H122.737V88.2246V85.9847L127.731 85.9401L132.703 85.8729L132.771 83.7899L132.838 81.7293H127.776H122.737V79.6015V77.4739L128.403 77.4291L134.047 77.3619L134.114 75.1669L134.182 72.9944H126.096C119.847 72.9944 117.988 73.0616 117.921 73.2632Z" fill="white"/>
<path d="M161.148 73.2636C161.081 73.4204 161.059 78.2805 161.081 84.0815L161.148 94.6082H169.323H177.499V92.5925V90.5767L171.742 90.5095L165.964 90.4647V88.225V85.9852L170.958 85.9405L175.93 85.8733L175.997 83.7904L176.064 81.7298H171.003H165.964V79.602V77.4742L171.629 77.4295L177.274 77.3623V75.2345V73.1067L169.256 73.0395C162.962 72.9949 161.215 73.0395 161.148 73.2636Z" fill="white"/>
<path d="M181.686 83.7899L181.753 94.6078L184.06 94.675L186.344 94.7422L186.39 91.8753C186.39 90.3075 186.435 88.8965 186.457 88.7844C186.502 88.6501 186.524 88.3813 186.546 88.1574C186.569 87.8214 186.815 87.7766 188.338 87.7766H190.131L192.324 91.069C193.534 92.9055 194.632 94.4509 194.743 94.5406C195.012 94.7422 199.873 94.7868 200.075 94.5853C200.142 94.5181 199.067 92.7711 197.656 90.7107L195.103 86.9703L196.111 86.4327C198.551 85.1561 199.694 82.8492 199.514 79.624C199.358 76.8243 198.215 75.0325 195.864 73.9799C194.162 73.196 192.303 72.9944 186.726 72.9944H181.641L181.686 83.7899ZM193.042 77.8322C194.184 78.2802 194.676 79.064 194.7 80.3855C194.721 81.5726 194.296 82.4012 193.356 83.006C192.571 83.5212 186.86 83.7451 186.569 83.2971C186.479 83.1403 186.39 81.7742 186.39 80.2511L186.368 77.4739H189.257C191.384 77.4739 192.392 77.5634 193.042 77.8322Z" fill="white"/>
</g>
<path d="M57.9701 7.09087C57.9701 8.26222 57.6878 9.36037 57.123 10.3853C56.5792 11.4102 55.7111 12.2365 54.5188 12.864C53.3475 13.4915 51.8624 13.8052 50.0635 13.8052H46.3926V22.2139H42V0.313755H50.0635C51.7578 0.313755 53.2011 0.606593 54.3933 1.19227C55.5856 1.77795 56.4746 2.58325 57.0603 3.60819C57.6668 4.63312 57.9701 5.79401 57.9701 7.09087ZM49.8753 10.2598C51.0884 10.2598 51.9879 9.98788 52.5736 9.44404C53.1592 8.87928 53.4521 8.09489 53.4521 7.09087C53.4521 4.95733 52.2598 3.89057 49.8753 3.89057H46.3926V10.2598H49.8753Z" fill="white"/>
<path d="M71.2545 22.4335C69.2046 22.4335 67.3221 21.9524 65.6069 20.9902C63.8917 20.028 62.5321 18.6998 61.5281 17.0055C60.5241 15.2903 60.0221 13.3555 60.0221 11.2011C60.0221 9.06753 60.5241 7.15362 61.5281 5.45934C62.5321 3.74415 63.8917 2.40546 65.6069 1.44327C67.3221 0.481091 69.2046 0 71.2545 0C73.3253 0 75.2078 0.481091 76.9021 1.44327C78.6173 2.40546 79.9664 3.74415 80.9495 5.45934C81.9536 7.15362 82.4556 9.06753 82.4556 11.2011C82.4556 13.3555 81.9536 15.2903 80.9495 17.0055C79.9664 18.6998 78.6173 20.028 76.9021 20.9902C75.1869 21.9524 73.3044 22.4335 71.2545 22.4335ZM71.2545 18.5116C72.5723 18.5116 73.7332 18.2187 74.7372 17.633C75.7412 17.0265 76.5256 16.1689 77.0903 15.0603C77.6551 13.9517 77.9375 12.6653 77.9375 11.2011C77.9375 9.73687 77.6551 8.46094 77.0903 7.37325C76.5256 6.26465 75.7412 5.41751 74.7372 4.83183C73.7332 4.24616 72.5723 3.95332 71.2545 3.95332C69.9367 3.95332 68.7654 4.24616 67.7404 4.83183C66.7364 5.41751 65.952 6.26465 65.3873 7.37325C64.8225 8.46094 64.5401 9.73687 64.5401 11.2011C64.5401 12.6653 64.8225 13.9517 65.3873 15.0603C65.952 16.1689 66.7364 17.0265 67.7404 17.633C68.7654 18.2187 69.9367 18.5116 71.2545 18.5116Z" fill="white"/>
<path d="M97.0187 22.2139L92.1869 13.6797H90.1161V22.2139H85.7235V0.313755H93.9439C95.6382 0.313755 97.0815 0.617052 98.2737 1.22365C99.466 1.80932 100.355 2.61463 100.941 3.63956C101.547 4.64358 101.851 5.7731 101.851 7.02812C101.851 8.47139 101.432 9.77871 100.596 10.9501C99.7588 12.1005 98.5143 12.8953 96.8618 13.3346L102.102 22.2139H97.0187ZM90.1161 10.3853H93.787C94.9793 10.3853 95.8683 10.1029 96.454 9.53816C97.0396 8.95249 97.3325 8.14718 97.3325 7.12225C97.3325 6.11823 97.0396 5.3443 96.454 4.80046C95.8683 4.2357 94.9793 3.95332 93.787 3.95332H90.1161V10.3853Z" fill="white"/>
<path d="M120.727 0.313755V3.85919H114.891V22.2139H110.498V3.85919H104.663V0.313755H120.727Z" fill="white"/>
<path d="M137.361 18.0409H128.638L127.195 22.2139H122.583L130.458 0.282378H135.572L143.447 22.2139H138.804L137.361 18.0409ZM136.168 14.5269L132.999 5.36522L129.83 14.5269H136.168Z" fill="white"/>
<path d="M150.784 18.7312H158V22.2139H146.391V0.313755H150.784V18.7312Z" fill="white"/>
<defs>
<clipPath id="clip0_563_211">
<rect width="200.231" height="64" fill="white" transform="translate(0 31)"/>
</clipPath>
</defs>
</svg>
