<svg width="149" height="22" viewBox="0 0 149 22" fill="none" xmlns="http://www.w3.org/2000/svg">
<g clip-path="url(#clip0_563_190)">
<path d="M110.574 0.179234C110.529 0.26132 110.492 0.686677 110.492 1.13442C110.499 2.14184 110.663 2.86569 111.089 3.68654C111.178 3.86564 111.238 4.01489 111.223 4.02982C111.149 4.09698 110.261 4.38054 109.798 4.49248C109.081 4.66411 107.253 4.66411 106.47 4.49248C106.164 4.42532 105.902 4.35816 105.888 4.34324C105.873 4.32085 105.925 4.14921 106 3.94773C106.246 3.32835 106.335 2.61943 106.291 1.76126C106.231 0.61205 105.962 -0.0222499 105.664 0.283707C105.574 0.365793 105.582 0.455342 105.679 0.828461C105.97 1.94036 105.865 3.01493 105.35 4.32831C104.917 5.43274 104.791 6.14911 104.843 7.27596C104.888 8.23111 104.985 8.72362 105.313 9.60422C105.552 10.2385 105.791 10.5967 105.977 10.5967C106.216 10.5967 106.194 10.3579 105.91 9.73104C105.529 8.90272 105.328 7.99235 105.313 7.08937C105.306 6.14166 105.38 5.75364 105.552 5.8208C106.231 6.0745 108.208 7.39534 108.44 7.75354C108.507 7.85053 108.574 8.20872 108.604 8.61169C108.641 9.14153 108.678 9.31319 108.776 9.36541C109.044 9.50717 109.111 9.34302 109.089 8.52214L109.059 7.73859L109.537 7.23863C109.798 6.95504 110.32 6.47747 110.701 6.17149C111.41 5.61182 111.529 5.39543 111.178 5.35065C110.969 5.3208 109.992 6.0745 109.275 6.82072L108.761 7.35057L108.268 6.9476C107.671 6.46253 106.671 5.82824 106.029 5.52975C105.679 5.36558 105.567 5.26857 105.567 5.15663C105.567 4.82829 105.656 4.79844 106.171 4.93276C106.925 5.11932 108.902 5.16409 109.678 4.99992C110.208 4.89545 110.895 4.6865 111.395 4.47756C111.492 4.44024 111.566 4.54472 111.753 4.98499C112.313 6.3357 112.343 8.02962 111.835 9.55945C111.686 9.99969 111.678 10.0669 111.783 10.1639C111.962 10.343 112.096 10.2385 112.275 9.76093C112.537 9.04454 112.671 8.26099 112.671 7.35057C112.678 6.04467 112.402 5.03724 111.671 3.76863C111.522 3.49999 111.305 3.01493 111.193 2.68659C111.007 2.15676 110.984 1.98513 110.977 1.08218C110.969 0.112073 110.969 0.0747608 110.813 0.0523737C110.708 0.0374489 110.619 0.082223 110.574 0.179234Z" fill="white"/>
<path d="M112.029 1.19408C111.76 1.50749 111.536 1.80599 111.536 1.85823C111.536 1.94032 112.387 2.75371 112.633 2.89549C112.76 2.97012 112.954 2.87311 112.954 2.73879C112.954 2.67162 112.835 2.49253 112.686 2.34328L112.417 2.06717L112.924 2.01494C113.596 1.95524 113.641 1.93285 113.611 1.73883C113.589 1.58212 113.544 1.5672 113.014 1.54481C112.693 1.52988 112.432 1.50003 112.432 1.47765C112.432 1.4478 112.544 1.31348 112.671 1.17915C112.865 0.97767 112.895 0.903043 112.835 0.798574C112.678 0.552313 112.522 0.626937 112.029 1.19408Z" fill="white"/>
<path d="M103.873 1.35067C103.85 1.42529 103.932 1.56708 104.104 1.74618C104.425 2.07452 104.38 2.12676 103.776 2.12676C103.544 2.12676 103.373 2.17154 103.298 2.24616C103.149 2.38794 103.149 2.38794 103.291 2.52973C103.38 2.61928 103.515 2.6342 103.94 2.59689L104.477 2.55212L104.291 2.79091C104.194 2.92523 104.082 3.08194 104.044 3.13418C104.007 3.18642 104 3.28342 104.022 3.35059C104.119 3.59684 104.365 3.46999 104.85 2.90284C105.417 2.2387 105.417 2.26108 104.723 1.64917C104.238 1.23128 103.962 1.1268 103.873 1.35067Z" fill="white"/>
<path d="M115.163 2.35821C115.104 3.00744 114.798 10.343 114.835 10.3728C114.85 10.3877 115.268 10.425 115.76 10.4549L116.663 10.5071L116.716 9.20866C116.857 5.96997 116.895 5.17898 116.925 5.14167C116.947 5.12674 117.432 5.89537 117.999 6.85801C118.566 7.8281 119.074 8.61165 119.118 8.61915C119.163 8.61915 119.745 7.86543 120.417 6.94012C121.089 6.02225 121.648 5.27599 121.663 5.29092C121.671 5.29838 121.633 6.50726 121.566 7.97737C121.499 9.43997 121.462 10.6564 121.477 10.6713C121.499 10.6936 121.917 10.731 122.409 10.7534L123.312 10.8056L123.357 10.0295C123.379 9.60418 123.432 8.46988 123.476 7.51468C123.514 6.56698 123.588 5.00735 123.633 4.05963C123.678 3.11937 123.7 2.3209 123.678 2.30597C123.656 2.28358 123.193 2.24627 122.641 2.22389L121.648 2.18657L121.484 2.44029C121.402 2.57462 121.096 3.02236 120.812 3.43279C120.529 3.84322 120.081 4.49245 119.82 4.87303C119.559 5.25361 119.327 5.58195 119.305 5.59687C119.275 5.61178 118.842 4.87303 118.335 3.96262C117.827 3.05221 117.357 2.23135 117.29 2.1418C117.178 1.98509 117.081 1.97016 116.193 1.92539L115.216 1.88062L115.163 2.35821Z" fill="white"/>
<path d="M108.283 2.74602C108.261 2.80572 108.253 2.9699 108.268 3.11168C108.283 3.32062 108.32 3.35794 108.477 3.35794C108.649 3.35794 108.664 3.32809 108.664 3.02213C108.664 2.7311 108.641 2.68632 108.492 2.66394C108.395 2.64901 108.313 2.68632 108.283 2.74602Z" fill="white"/>
<path d="M98.2163 3.02974C95.4627 3.69389 94.0523 6.42513 95.0971 9.06681C95.8955 11.0816 97.9999 12.1338 100.216 11.6338C101.395 11.3652 102.089 10.8951 102.94 9.80558C103.022 9.69365 102.947 9.61899 102.358 9.17874L101.686 8.67873L101.194 9.14141C100.657 9.64137 100.283 9.83541 99.6342 9.95479C98.5596 10.1563 97.4999 9.57421 97.0149 8.50713C96.2239 6.78332 97.1641 4.9028 98.9253 4.69385C99.4402 4.63415 100.142 4.80579 100.694 5.11921L101.089 5.33561L101.41 4.83564C101.589 4.55206 101.806 4.20134 101.895 4.05209L102.067 3.77598L101.783 3.58942C101.627 3.48495 101.283 3.30585 101.015 3.20138C100.582 3.01482 100.418 2.99243 99.5222 2.97751C98.97 2.96258 98.3805 2.98497 98.2163 3.02974Z" fill="white"/>
<path d="M128.334 3.06674C127.849 3.19361 127.043 3.6115 126.663 3.92492C126.2 4.3055 125.663 5.08158 125.409 5.73826C124.976 6.85761 125.036 8.23817 125.558 9.27542C126.2 10.544 127.357 11.3873 128.819 11.641C129.625 11.7828 129.879 11.7828 130.618 11.641C131.506 11.4769 132.207 11.0888 132.886 10.4172C133.506 9.79782 133.827 9.23065 134.043 8.38744C134.215 7.70832 134.155 6.43226 133.924 5.82036C133.394 4.44728 132.26 3.43986 130.827 3.05928C130.267 2.9175 128.887 2.9175 128.334 3.06674ZM130.678 4.8801C132.327 5.61144 132.7 7.96208 131.379 9.26798C130.857 9.79032 130.498 9.92465 129.67 9.92465C129.058 9.92465 128.901 9.89482 128.551 9.73066C126.484 8.74563 126.67 5.60394 128.842 4.76816C129.245 4.61145 130.215 4.67116 130.678 4.8801Z" fill="white"/>
<path d="M107.604 14.0293C107.014 14.1935 106.529 14.4621 106.067 14.8875C105.238 15.6487 104.88 16.4695 104.88 17.6486C104.88 18.7978 105.224 19.6261 106.022 20.3723C106.731 21.0365 107.708 21.3499 108.902 21.2902C109.723 21.2454 110.343 21.0589 111.007 20.6634C111.746 20.2156 111.686 20.4097 111.686 18.6261V17.0516H110.119H108.544L108.567 17.7381L108.589 18.4321L109.358 18.4545L110.119 18.4769V18.9843V19.4992L109.731 19.6634C109.193 19.9022 108.291 19.9097 107.798 19.6858C106.455 19.0888 106.104 17.2008 107.111 16.074C107.574 15.5666 107.917 15.4173 108.604 15.4098C109.216 15.4098 109.746 15.5741 110.171 15.8949C110.387 16.0666 110.447 16.0815 110.522 15.9994C110.97 15.4919 111.387 14.9621 111.387 14.8949C111.387 14.7681 110.649 14.3054 110.156 14.1263C109.574 13.9174 108.186 13.8651 107.604 14.0293Z" fill="white"/>
<path d="M129.842 14.0292C128.909 14.2829 128.073 14.9247 127.618 15.7455C126.491 17.7603 127.402 20.3349 129.506 21.1035C130.043 21.2975 131.17 21.3572 131.752 21.2303C132.349 21.096 132.886 20.8274 133.319 20.4394C133.528 20.2528 133.7 20.0737 133.7 20.0513C133.7 19.9767 132.804 19.0663 132.73 19.0663C132.692 19.0663 132.573 19.1409 132.454 19.2379C131.946 19.6558 131.67 19.7603 131.006 19.7976C130.431 19.8275 130.334 19.8125 129.998 19.6409C129.558 19.417 129.185 19.0215 128.976 18.5514C128.76 18.0738 128.76 17.1485 128.976 16.6709C129.581 15.3127 131.14 14.9843 132.364 15.9395C132.513 16.0589 132.655 16.156 132.678 16.156C132.692 16.156 132.939 15.8948 133.215 15.5814L133.722 15.0067L133.468 14.7904C132.752 14.1859 131.946 13.9173 130.901 13.9247C130.536 13.9247 130.051 13.9769 129.842 14.0292Z" fill="white"/>
<path d="M81.3662 14.0439C81.3364 14.0663 81.314 15.6782 81.314 17.6184V21.1556L81.4856 21.1929C81.5751 21.2153 82.8064 21.2227 84.2243 21.2153L86.7988 21.1929L86.8212 20.4989L86.8436 19.8123H84.8959H82.9557V19.0661V18.3199H84.6347H86.3137V17.611V16.902H84.6347H82.9557V16.1931V15.4842L84.8437 15.4692L86.7242 15.4469L86.7466 14.7155L86.769 13.9917H84.09C82.6199 13.9917 81.3886 14.0141 81.3662 14.0439Z" fill="white"/>
<path d="M88.2167 14.0814C88.1943 14.1336 88.1869 15.753 88.1943 17.6857L88.2167 21.1931H88.963H89.7092L89.7465 18.917L89.7838 16.641L90.739 18.0738C91.2689 18.8648 91.724 19.5289 91.7539 19.5439C91.7838 19.5663 92.2464 18.9245 92.7762 18.1111L93.7389 16.6484L93.7762 18.917L93.8135 21.1931H94.5598H95.306L95.3284 17.5888L95.3433 13.9844L94.5075 14.0068L93.6643 14.0291L92.7538 15.4843C92.2539 16.2828 91.821 16.932 91.7912 16.932C91.7539 16.9246 91.3211 16.2679 90.8286 15.4769L89.9256 14.0291L89.0898 14.0068C88.463 13.9919 88.2391 14.0143 88.2167 14.0814Z" fill="white"/>
<path d="M99.455 14.1562C99.3953 14.3129 97.6416 18.4322 96.8357 20.3127C96.5446 20.9843 96.4999 21.1559 96.5894 21.1858C96.6491 21.2082 96.9999 21.2306 97.3655 21.2306C98.1341 21.2306 98.0595 21.2903 98.4625 20.2978L98.7386 19.6262L100.239 19.6038L101.746 19.5889L102.067 20.35C102.238 20.7754 102.425 21.141 102.462 21.1709C102.567 21.2455 103.985 21.2455 104.022 21.1709C104.044 21.141 103.559 19.962 102.955 18.5441C102.35 17.1263 101.671 15.5293 101.447 14.9995L101.037 14.0294L100.276 14.007C99.552 13.9846 99.5147 13.9921 99.455 14.1562ZM100.716 17.0293C100.94 17.589 101.141 18.074 101.149 18.1113C101.164 18.1411 100.768 18.171 100.276 18.171C99.7759 18.171 99.3729 18.1486 99.3729 18.1113C99.3729 18.0068 100.216 16.0069 100.261 16.0069C100.291 16.0069 100.492 16.4696 100.716 17.0293Z" fill="white"/>
<path d="M113.215 14.0816C113.193 14.1338 113.186 15.7532 113.193 17.6859L113.215 21.1933L113.984 21.2156L114.745 21.238V20.0739V18.9172H115.38H116.006L116.775 20.0515L117.544 21.1933L118.357 21.2156C118.812 21.2231 119.223 21.2156 119.275 21.1933C119.35 21.1709 119.17 20.8425 118.656 20.0963C118.26 19.5067 117.865 18.947 117.79 18.8426L117.648 18.6635L117.976 18.4919C118.432 18.268 118.902 17.7158 119.036 17.2531C119.208 16.6636 119.185 15.8204 118.969 15.3726C118.648 14.6786 118.118 14.2905 117.215 14.0965C116.551 13.9547 113.268 13.9473 113.215 14.0816ZM117.059 15.6487C117.335 15.7905 117.409 15.88 117.491 16.1338C117.693 16.7606 117.32 17.3651 116.663 17.4621C116.491 17.4844 115.999 17.4994 115.566 17.4844L114.783 17.4621L114.76 16.4696L114.738 15.4845H115.738C116.618 15.4845 116.768 15.5069 117.059 15.6487Z" fill="white"/>
<path d="M120.603 14.0812C120.581 14.1335 120.573 15.7528 120.581 17.6856L120.603 21.1929L123.178 21.2153C124.596 21.2227 125.827 21.2153 125.924 21.1929C126.081 21.1556 126.088 21.1182 126.088 20.484V19.8123H124.148H122.208V19.0661V18.3199L123.872 18.305L125.528 18.2826L125.551 17.5886L125.573 16.902H123.887H122.208V16.1931V15.4842L124.096 15.4692L125.976 15.4469L125.999 14.7155L126.021 13.9917H123.327C121.245 13.9917 120.626 14.0141 120.603 14.0812Z" fill="white"/>
<path d="M135.006 14.0816C134.983 14.1338 134.976 15.7531 134.983 17.6859L135.006 21.1932H137.73H140.454V20.5216V19.85L138.535 19.8276L136.61 19.8127V19.0664V18.3202L138.274 18.3053L139.931 18.2829L139.953 17.5889L139.976 16.9023H138.289H136.61V16.1934V15.4844L138.498 15.4696L140.379 15.4472V14.7382V14.0293L137.707 14.0069C135.61 13.992 135.028 14.0069 135.006 14.0816Z" fill="white"/>
<path d="M141.849 17.5886L141.871 21.1929L142.64 21.2153L143.401 21.2377L143.416 20.2825C143.416 19.7601 143.431 19.29 143.438 19.2527C143.453 19.2079 143.461 19.1183 143.468 19.0437C143.476 18.9318 143.557 18.9169 144.065 18.9169H144.662L145.393 20.0138C145.796 20.6257 146.162 21.1406 146.199 21.1705C146.289 21.2377 147.908 21.2526 147.976 21.1854C147.998 21.163 147.64 20.581 147.17 19.8945L146.319 18.6482L146.655 18.4691C147.468 18.0438 147.848 17.2752 147.789 16.2006C147.737 15.2678 147.356 14.6708 146.572 14.3201C146.005 14.0589 145.386 13.9917 143.528 13.9917H141.834L141.849 17.5886ZM145.632 15.6036C146.013 15.7528 146.177 16.014 146.185 16.4543C146.192 16.8498 146.05 17.1259 145.737 17.3274C145.475 17.499 143.573 17.5736 143.476 17.4244C143.445 17.3722 143.416 16.917 143.416 16.4095L143.409 15.4842H144.371C145.08 15.4842 145.416 15.514 145.632 15.6036Z" fill="white"/>
</g>
<path d="M6.91564 9.0706C6.91564 9.57784 6.79336 10.0534 6.5488 10.4972C6.3133 10.941 5.9374 11.2988 5.4211 11.5706C4.91386 11.8423 4.27076 11.9782 3.49179 11.9782H1.90214V15.6194H0V6.13587H3.49179C4.22547 6.13587 4.85046 6.26268 5.36675 6.5163C5.88305 6.76991 6.26801 7.11864 6.52163 7.56247C6.7843 8.00631 6.91564 8.50901 6.91564 9.0706ZM3.41027 10.4429C3.93562 10.4429 4.32511 10.3251 4.57872 10.0896C4.83234 9.84504 4.95915 9.50537 4.95915 9.0706C4.95915 8.1467 4.44286 7.68475 3.41027 7.68475H1.90214V10.4429H3.41027Z" fill="white"/>
<path d="M12.6682 15.7145C11.7806 15.7145 10.9654 15.5062 10.2226 15.0895C9.47989 14.6729 8.89113 14.0977 8.45635 13.364C8.02158 12.6213 7.80419 11.7834 7.80419 10.8505C7.80419 9.92656 8.02158 9.09777 8.45635 8.36409C8.89113 7.62135 9.47989 7.04165 10.2226 6.62499C10.9654 6.20833 11.7806 6 12.6682 6C13.565 6 14.3802 6.20833 15.1138 6.62499C15.8566 7.04165 16.4408 7.62135 16.8665 8.36409C17.3013 9.09777 17.5187 9.92656 17.5187 10.8505C17.5187 11.7834 17.3013 12.6213 16.8665 13.364C16.4408 14.0977 15.8566 14.6729 15.1138 15.0895C14.3711 15.5062 13.5559 15.7145 12.6682 15.7145ZM12.6682 14.0162C13.2389 14.0162 13.7416 13.8894 14.1764 13.6357C14.6111 13.3731 14.9508 13.0017 15.1954 12.5216C15.4399 12.0416 15.5622 11.4845 15.5622 10.8505C15.5622 10.2164 15.4399 9.66389 15.1954 9.19288C14.9508 8.71281 14.6111 8.34597 14.1764 8.09235C13.7416 7.83874 13.2389 7.71193 12.6682 7.71193C12.0976 7.71193 11.5904 7.83874 11.1465 8.09235C10.7117 8.34597 10.3721 8.71281 10.1275 9.19288C9.88296 9.66389 9.76068 10.2164 9.76068 10.8505C9.76068 11.4845 9.88296 12.0416 10.1275 12.5216C10.3721 13.0017 10.7117 13.3731 11.1465 13.6357C11.5904 13.8894 12.0976 14.0162 12.6682 14.0162Z" fill="white"/>
<path d="M23.8251 15.6194L21.7327 11.9238H20.836V15.6194H18.9338V6.13587H22.4936C23.2272 6.13587 23.8522 6.26721 24.3685 6.52988C24.8848 6.7835 25.2698 7.13223 25.5234 7.57606C25.7861 8.01083 25.9174 8.49996 25.9174 9.04342C25.9174 9.66841 25.7363 10.2345 25.3739 10.7418C25.0116 11.2399 24.4727 11.5841 23.7571 11.7744L26.0261 15.6194H23.8251ZM20.836 10.4972H22.4256C22.9419 10.4972 23.3269 10.3749 23.5805 10.1304C23.8341 9.87674 23.9609 9.52802 23.9609 9.08418C23.9609 8.64941 23.8341 8.31427 23.5805 8.07877C23.3269 7.83421 22.9419 7.71193 22.4256 7.71193H20.836V10.4972Z" fill="white"/>
<path d="M34.0915 6.13587V7.67117H31.5644V15.6194H29.6623V7.67117H27.1351V6.13587H34.0915Z" fill="white"/>
<path d="M41.2945 13.8124H37.5174L36.8924 15.6194H34.8952L38.3054 6.12228H40.5201L43.9303 15.6194H41.9195L41.2945 13.8124ZM40.7782 12.2907L39.4059 8.32333L38.0337 12.2907H40.7782Z" fill="white"/>
<path d="M47.1072 14.1113H50.2321V15.6194H45.205V6.13587H47.1072V14.1113Z" fill="white"/>
<rect x="65.2322" y="4" width="1.08184" height="13.3427" rx="0.540921" fill="white"/>
<defs>
<clipPath id="clip0_563_190">
<rect width="66.7136" height="21.3237" fill="white" transform="translate(81.314)"/>
</clipPath>
</defs>
</svg>
