<svg width="46" height="41" viewBox="0 0 46 41" fill="none" xmlns="http://www.w3.org/2000/svg">
<g clip-path="url(#clip0_407_886)">
<path d="M21.9961 22.625C21.9923 22.6077 21.9942 22.6504 21.9961 22.625V22.625Z" fill="#7EBC43"/>
<path d="M28.9369 10.798C28.9421 10.7932 28.9424 10.7893 28.9466 10.7838C28.9088 10.7388 28.877 10.6992 28.8541 10.6671L28.9369 10.798Z" fill="#7EBC43"/>
<path d="M30.9931 8.8387L31.016 8.83568C30.9876 8.81421 30.9628 8.78941 30.9931 8.8387Z" fill="#7EBC43"/>
<path d="M25.6489 16.399C25.6422 16.4066 25.6384 16.4162 25.638 16.4262C25.6377 16.4363 25.6409 16.4461 25.6471 16.4541C25.643 16.4359 25.6436 16.4169 25.6489 16.399V16.399Z" fill="#7EBC43"/>
<path d="M21.1563 21.934H21.1627L21.1841 21.9038L21.1563 21.934Z" fill="#7EBC43"/>
<path d="M21.2428 21.8859C21.2352 21.9006 21.2237 21.9129 21.2096 21.9215C21.1954 21.93 21.1792 21.9344 21.1626 21.9342C21.1152 22.0026 21.1263 22.0289 21.1666 22.025C21.2319 21.9618 21.1962 21.9361 21.2428 21.8859Z" fill="#7EBC43"/>
<path d="M14.1706 15.5025L14.2144 15.4889C14.1991 15.4908 14.1843 15.4954 14.1706 15.5025Z" fill="#7EBC43"/>
<path d="M29.4654 18.5269C29.4654 18.5423 29.4609 18.5571 29.4621 18.5716C29.4675 18.5655 29.4707 18.5579 29.4713 18.5498C29.4719 18.5417 29.4698 18.5337 29.4654 18.5269Z" fill="#7EBC43"/>
<path d="M15.3605 16.4549L15.459 16.3524C15.4214 16.3816 15.3882 16.4161 15.3605 16.4549V16.4549Z" fill="#7EBC43"/>
<path d="M28.8529 10.667L28.8226 10.6171C28.8311 10.6346 28.8412 10.6513 28.8529 10.667V10.667Z" fill="#7EBC43"/>
<path d="M32.777 6.95276C32.805 6.97668 32.8354 6.99756 32.8677 7.01505C32.8695 7.01321 32.8714 7.01159 32.8735 7.01021L32.777 6.95276Z" fill="#7EBC43"/>
<path d="M43.9025 0.16789C43.8911 0.153335 43.8787 0.1395 43.8656 0.126465L43.881 0.237133C43.8969 0.217721 43.9046 0.192884 43.9025 0.16789V0.16789Z" fill="#7EBC43"/>
<path d="M35.6816 4.83077C35.6744 4.81555 35.6659 4.80098 35.6562 4.78723C35.5779 4.79358 35.4575 4.8985 35.3187 5.04788L35.4312 5.18031C35.5147 5.0639 35.5936 4.94295 35.6816 4.83077Z" fill="#7EBC43"/>
<path d="M41.159 5.30811L40.6668 5.27424C41.4121 4.39737 42.0631 4.3635 42.6385 3.53138L42.6431 3.62451C42.7229 3.61211 42.6579 3.43945 42.7994 3.2411C42.9409 3.04274 43.3071 2.83774 44.2118 2.76275L44.2323 2.79087C44.2719 2.75398 44.2323 2.69804 44.3714 2.70953L44.0306 2.69562C44.1084 2.52992 44.1244 2.31131 44.284 2.16405C44.3445 2.16829 44.3974 2.21727 44.4334 2.2599C44.5622 2.13775 44.6944 2.02073 44.8301 1.90885L45.0923 2.00349C45.1555 1.81391 44.8265 1.46316 45.3342 1.44018C45.014 1.25875 45.4016 1.15625 45.2637 1.04709C45.3045 1.06856 45.3798 1.09124 45.4451 1.11573C45.6374 0.940055 45.9894 0.591119 45.9982 0.380971C45.9982 0.380971 45.6958 0.376738 45.333 0.357688C44.9701 0.338639 44.5556 0.304471 44.3409 0.23674C44.6998 0.102487 44.4014 0.148447 44.2765 0.0979515L44.3019 0.179592C44.0712 0.238252 43.9532 0.0671097 43.8271 0.0825306C43.8388 0.0979931 43.8516 0.112642 43.8652 0.126374L43.8616 0.0961373C43.8732 0.104521 43.8828 0.115328 43.8898 0.127807C43.8968 0.140287 43.901 0.15414 43.9021 0.168404C43.9297 0.203479 43.9411 0.238252 43.8834 0.262139L43.8807 0.237647C43.8202 0.315054 43.669 0.378552 43.6004 0.406068L43.4994 0.264558C43.5526 0.623775 42.2999 0.517945 42.1058 0.644638C41.7916 0.604121 41.7278 0.990249 41.4333 1.07128C41.0372 1.29927 41.1007 1.009 40.8285 1.03107C40.5383 1.1239 40.9979 1.15474 40.9156 1.23577L40.4996 1.25936C40.6423 1.11845 40.4932 1.10364 40.4231 1.0737C40.1736 1.23577 39.6067 1.28234 39.7527 1.6089C39.3348 1.72985 39.245 1.62523 39.0993 1.72017C39.1848 1.73257 39.3109 1.70475 39.356 1.75827C39.1331 1.74104 39.32 1.83538 39.3932 1.82056C39.2919 2.07697 38.0159 2.16738 38.2203 2.4885L38.1749 2.43588C38.317 2.68746 38.5659 2.83622 38.5399 3.06603L38.3709 3.04486L38.3219 3.24896C38.1746 3.25471 38.1674 3.16127 38.1444 3.13497C38.0234 3.41889 37.6174 3.54861 37.3467 3.75513L38.1284 4.08774C37.7958 4.13914 37.1831 4.22925 37.3089 4.44877L37.0066 4.37529C36.2506 4.40553 36.8635 4.80466 36.5956 4.85153L36.1911 4.84336L36.4027 4.65106C36.0949 4.74177 35.9474 4.75507 35.6516 4.77987C35.6535 4.78198 35.6532 4.78531 35.655 4.78712C35.6636 4.78542 35.6725 4.78551 35.681 4.78738C35.6896 4.78925 35.6977 4.79287 35.7049 4.79801L35.6804 4.83066C35.752 4.95464 35.7124 5.1282 35.5649 5.26608C35.3348 5.44236 35.3257 5.74806 34.7908 5.86356L34.9166 6.14779L34.5519 6.27176L34.3868 6.1112C34.6342 5.8805 35.0194 5.36586 35.3175 5.04777L35.2492 4.96733C35.0678 5.15178 34.9329 5.43299 34.7956 5.53791C34.7049 5.56452 34.3841 5.54849 34.3826 5.32897L34.4304 5.6011C33.841 6.23608 33.8401 6.2385 33.0413 6.72955L33.1789 6.75042C33.1075 6.92882 33.0358 7.1048 32.8641 7.01499C32.471 7.39144 31.9754 7.70168 31.5282 7.7815L31.6818 8.01947C31.5962 8.09657 31.1747 7.95899 31.4251 8.25109L31.3565 8.51596C31.2388 8.6221 31.296 8.79566 31.0598 8.83073C31.0445 8.83331 31.0291 8.83502 31.0136 8.83587C31.0194 8.84063 31.0256 8.84498 31.032 8.84887C30.71 9.04209 31.2201 9.00308 30.8373 9.21172C30.6045 9.18753 31.0078 9.54221 30.8331 9.65258L30.4043 9.55582C30.0049 9.69309 30.2709 9.99032 29.9507 10.3964C29.8824 10.4239 29.8093 10.4376 29.7356 10.4366C29.662 10.4355 29.5892 10.4199 29.5217 10.3905C29.4542 10.361 29.3931 10.3185 29.3422 10.2653C29.2913 10.212 29.2514 10.1492 29.225 10.0804C29.362 10.482 29.3421 10.3069 29.2885 10.6504C29.1443 10.5963 29.1398 10.5518 29.0769 10.4176C28.7745 10.5234 29.0769 10.6292 28.9447 10.7837C29.1262 10.9999 29.4319 11.3223 29.4056 11.3843L29.522 11.3761C29.5078 11.634 29.4143 11.8532 29.1591 11.9702L29.0539 11.8795L28.9541 12.1335L28.8029 12.0401L28.6239 12.3757L28.6929 12.363C28.6593 12.4483 28.5372 12.7174 28.3639 12.7957L28.288 12.7325C27.7658 12.9318 27.848 13.47 27.5723 13.942L27.4477 13.7666C27.1783 13.8059 27.6727 13.9874 27.4655 14.1129L27.256 13.9804C27.4126 14.3278 27.0564 14.1497 26.8783 14.1921L27.1807 14.3239L26.9808 14.495C26.7341 14.6653 26.5451 14.4065 26.4284 14.2764L26.5312 14.5788L26.276 14.4482C26.4726 14.7506 26.152 14.5341 26.1614 14.837C26.0601 14.7935 26.0435 14.7076 25.9579 14.7512L26.0644 15.3093L26.0529 15.0088L26.3855 15.2649C26.5064 15.6483 26.1554 15.5234 26.1566 15.7408L26.1194 15.5676C26.0459 15.872 25.8887 15.788 25.7212 15.8787C25.8143 15.8787 25.9537 15.8736 25.9356 16.0039C25.908 16.0904 25.7865 15.9643 25.7033 16.0093C25.9268 16.1771 25.938 16.4348 25.7248 16.5255C25.6949 16.5066 25.6688 16.4824 25.6477 16.4541C25.6595 16.5197 25.7067 16.5796 25.6045 16.6153L25.3689 16.4072L25.5301 16.7033C25.3998 16.7504 25.5047 17.0056 25.3353 16.8814L25.316 16.7958L24.8083 17.4568L24.5906 17.3358C24.8404 17.5841 24.2501 17.6591 24.6281 17.8559C24.3496 17.8713 24.457 18.4703 24.0908 18.1456C23.7809 18.5991 24.0303 19.0829 23.4936 19.5392C23.0258 19.5462 22.8302 20.1823 22.5886 20.537L22.4217 21.1055C22.3966 21.1944 22.3718 21.2812 22.3476 21.367L22.3113 21.4949C22.3004 21.5352 22.276 21.5996 22.3083 21.5606C22.3548 21.6685 22.377 21.7853 22.3736 21.9028C22.1505 21.7145 22.1765 21.7719 22.1922 21.9204C22.2122 22.0567 22.2206 22.2896 22.1317 22.1166C22.1585 22.2321 22.1838 22.3513 22.2076 22.474C22.1169 22.2542 22.1096 22.318 22.0912 22.4072C22.0755 22.49 22.0471 22.604 21.9947 22.3122C22.0026 22.5239 21.9999 22.6022 21.9984 22.6237C22.0023 22.6403 22.012 22.7183 22.0362 22.9974C22.0192 22.9176 22.0059 22.9578 21.9951 22.946C21.983 22.9481 21.9703 22.8251 21.9582 22.5372V22.4828C21.9476 22.2554 21.9427 22.2351 21.9376 22.2645C21.9313 22.3141 21.9116 22.4668 21.9028 22.1623L21.9143 22.7622L21.882 22.6028L21.8913 22.5097C21.8575 22.7631 21.8043 22.7976 21.7665 22.757C21.7287 22.7165 21.7008 22.5944 21.6791 22.4849C21.6573 22.3754 21.6434 22.2732 21.6098 22.2321C21.5763 22.191 21.5191 22.2058 21.3846 22.2793C21.4868 22.1338 21.4538 22.1632 21.4193 22.1825C21.3849 22.2019 21.345 22.2061 21.4496 22.0383C21.5636 21.7964 21.5403 21.8109 21.4586 21.8626C21.377 21.9143 21.237 22.0138 21.1672 22.0214C21.1509 22.037 21.1332 22.051 21.1142 22.0631L21.0873 21.9866L21.0752 21.9521L21.025 21.8675C21.5451 21.7879 20.5379 21.8593 20.99 21.8046C20.8884 21.5277 20.7513 21.2651 20.5821 21.0235C20.4006 20.7708 20.1914 20.5225 19.9734 20.2755L19.2909 19.5465C19.0605 19.3115 18.8461 19.0613 18.6493 18.7975L18.6024 18.9209C18.3908 18.6726 18.0025 18.4924 17.9608 18.1816C17.9115 17.8725 17.3561 18.0322 17.2775 17.9826C16.9449 17.9524 17.0356 17.4858 17.1069 17.578C16.8484 17.4299 16.3709 17.575 16.1874 17.1798C16.3247 16.7894 15.107 16.8024 15.3619 16.4541L15.3359 16.481C15.2247 16.205 14.9903 16.1 14.753 15.9972C14.5111 15.9011 14.2634 15.8092 14.1134 15.537C14.1316 15.5229 14.1512 15.5109 14.1721 15.5013C13.6145 15.6634 13.0606 15.8575 12.5333 16.052C12.3672 16.5283 12.1958 17.001 12.0192 17.4701C12.0528 17.962 12.0746 18.4413 12.0724 18.9296C12.7298 19.261 13.3672 19.6502 13.9998 20.0599C14.3544 20.5667 14.6898 21.0783 14.9976 21.6053C15.5319 22.0831 16.0287 22.6068 16.5221 23.1356C16.7613 23.4108 17.0017 23.6723 17.2372 23.9632L17.5904 24.398L17.6346 24.4524C17.6554 24.477 17.6747 24.5028 17.6926 24.5295L17.858 24.7666L18.1879 25.2392C18.3895 25.3386 18.5833 25.4264 18.7694 25.5026C18.8453 25.7333 18.9284 25.9918 19.0291 26.2407C19.1298 26.4895 19.2438 26.7347 19.3665 26.9736C19.4893 27.2125 19.6217 27.4377 19.7548 27.6811C19.8878 27.9246 20.0245 28.1649 20.1615 28.3999C20.7124 29.3517 21.2355 30.2068 21.7102 31.5584L21.7405 30.9982C21.9941 31.4457 21.9799 31.8013 22.0477 32.0374C22.1394 32.2067 22.2314 32.3764 22.3237 32.5463C22.4447 32.325 22.5738 32.0132 22.7002 31.7235L23.0784 30.8467L23.8214 29.1005C24.3021 27.9427 24.8029 26.8294 25.2861 25.7587L26.0117 24.183L26.1947 23.799L26.3416 23.5235L26.5609 23.1344C26.859 22.6222 27.1692 22.132 27.5176 21.6882C27.7957 21.5899 28.0431 20.9495 28.3037 20.9002C28.3454 20.5026 28.4557 20.1153 28.6297 19.7554C28.8048 19.4083 29.0228 19.0859 29.2383 18.7775L29.2498 18.8187L29.3935 18.4891C29.4074 18.4893 29.421 18.4929 29.4331 18.4996C29.4453 18.5063 29.4557 18.5159 29.4633 18.5275C29.4633 18.2901 29.6018 18.0712 29.7826 17.8683C29.9698 17.6693 30.2026 17.4885 30.3831 17.3156L30.3928 17.3567C31.2071 16.1874 31.9222 15.0112 32.6969 13.8737C33.096 13.3152 33.4906 12.7507 33.939 12.2248C34.3947 11.7054 34.8724 11.1968 35.4125 10.7329C36.0311 10.4067 36.4708 9.85607 36.9301 9.28157C37.406 8.72702 37.8886 8.13618 38.5577 7.75036C38.7576 7.75882 39.3693 7.21002 39.945 6.6213C40.5328 6.04529 41.1037 5.44992 41.159 5.30811Z" fill="#7EBC43"/>
<path d="M44.4335 2.25977L44.425 2.26793C44.4954 2.3659 44.4827 2.31843 44.4335 2.25977Z" fill="#7EBC43"/>
<path d="M37.3289 3.76662L37.3462 3.75452L37.1738 3.68286L37.3289 3.76662Z" fill="#7EBC43"/>
<path d="M40.534 0.932739C40.3605 1.02345 40.3713 1.05187 40.4224 1.07304C40.4811 1.03524 40.5231 0.989887 40.534 0.932739Z" fill="#7EBC43"/>
<path d="M45.5208 1.2363C45.6051 1.19095 45.5353 1.15134 45.444 1.11536L45.3194 1.22572C45.3796 1.21998 45.4594 1.24296 45.5208 1.2363Z" fill="#7EBC43"/>
<path d="M44.2768 0.0979682L44.2466 0C44.2124 0.0523102 44.2345 0.0804307 44.2768 0.0979682Z" fill="#7EBC43"/>
<path d="M24.9117 40.4551C24.9595 40.4551 24.978 40.4328 24.9117 40.4551V40.4551Z" fill="#7EBC43"/>
<path d="M0.201049 20.6647C0.201049 20.6502 0.201049 20.6429 0.201049 20.6287C0.151088 20.6066 0.102696 20.5812 0.0562134 20.5525L0.201049 20.6647Z" fill="#7EBC43"/>
<path d="M1.45139 14.955L1.47679 14.9247C1.44202 14.9184 1.41117 14.9015 1.45139 14.955Z" fill="#7EBC43"/>
<path d="M4.85547 33.0153C4.86353 33.0307 4.87494 33.0441 4.88885 33.0546C4.90277 33.065 4.91884 33.0723 4.9359 33.0757C4.90615 33.0598 4.87902 33.0394 4.85547 33.0153V33.0153Z" fill="#7EBC43"/>
<path d="M34.0016 35.3909L33.9868 35.4111C34.0095 35.4047 34.0325 35.3995 34.0558 35.3957L34.0016 35.3909Z" fill="#7EBC43"/>
<path d="M33.9832 35.5408C33.8622 35.594 33.953 35.457 33.9868 35.4114C33.9164 35.4273 33.8498 35.457 33.791 35.499C33.7322 35.541 33.6824 35.5942 33.6445 35.6557C33.7041 35.7222 33.8925 35.5338 33.9832 35.5408Z" fill="#7EBC43"/>
<path d="M39.949 18.2876L39.9922 18.3384C39.9807 18.3192 39.9661 18.302 39.949 18.2876Z" fill="#7EBC43"/>
<path d="M8.05005 30.0016C8.07001 30.0146 8.08815 30.0318 8.1075 30.0433C8.10185 30.0324 8.09371 30.0229 8.08373 30.0156C8.07375 30.0084 8.06222 30.0036 8.05005 30.0016V30.0016Z" fill="#7EBC43"/>
<path d="M40.0291 21.2301L40.1697 21.2649C40.1269 21.2406 40.0783 21.2286 40.0291 21.2301Z" fill="#7EBC43"/>
<path d="M0.0550315 20.5525L0 20.5087C0.0161803 20.5258 0.0347084 20.5406 0.0550315 20.5525V20.5525Z" fill="#7EBC43"/>
<path d="M3.77179 10.1472C3.80412 10.1657 3.83997 10.1771 3.87701 10.1808L3.88548 10.1687L3.77179 10.1472Z" fill="#7EBC43"/>
<path d="M26.5938 4.14975C26.5982 4.13133 26.6003 4.11244 26.6002 4.09351L26.4771 4.15579C26.5158 4.16453 26.5562 4.16244 26.5938 4.14975V4.14975Z" fill="#7EBC43"/>
<path d="M9.10138 5.31383C9.09685 5.2969 9.10138 5.27483 9.09171 5.26001C8.96864 5.29781 8.69469 5.47167 8.38446 5.74138L8.47517 5.89257C8.67413 5.68968 8.8867 5.50312 9.10138 5.31383Z" fill="#7EBC43"/>
<path d="M17.032 5.96317L16.3583 5.7754C17.2859 5.43372 18.0174 5.3669 18.698 5.30249C19.0418 5.2907 19.3726 5.24988 19.7261 5.23264C19.9027 5.22025 20.0835 5.19817 20.2734 5.17398C20.4636 5.15705 20.6628 5.13226 20.8754 5.09688L20.7807 5.17217C20.9017 5.21329 21.0009 5.03157 21.4142 4.98561C21.6204 4.96142 21.9062 4.9726 22.3011 5.07632C22.696 5.18003 23.1994 5.37627 23.8045 5.74456L23.7975 5.77842C23.8882 5.79112 23.9042 5.72037 24.0633 5.85371C23.9305 5.74698 23.7933 5.65112 23.6548 5.55134C23.9448 5.51808 24.2223 5.40923 24.5961 5.47817C24.6229 5.50127 24.6433 5.53085 24.6555 5.56408C24.6677 5.59731 24.6712 5.6331 24.6656 5.66806C24.968 5.72551 25.2664 5.79505 25.5643 5.87216L25.7587 6.17453C26.0562 6.1579 26.1109 5.65445 26.7208 6.18541C26.5793 5.76965 27.1481 6.14883 27.1263 5.96166C27.146 6.01457 27.2028 6.10589 27.2445 6.18572C27.6793 6.33085 28.4843 6.65379 28.7585 6.6175C28.7585 6.6175 28.4504 6.24226 28.0721 5.81138C27.6939 5.3805 27.2385 4.90427 27.058 4.64786C27.6706 4.99014 27.2454 4.67809 27.1568 4.52449L27.0834 4.58496C26.7208 4.35425 26.7901 4.16497 26.6086 4.03495C26.6038 4.05414 26.6013 4.07383 26.6011 4.09361L26.6362 4.07668C26.6401 4.09187 26.638 4.10799 26.6302 4.12164C26.6225 4.1353 26.6098 4.14541 26.5947 4.14985C26.5845 4.194 26.5548 4.21879 26.4502 4.16951L26.478 4.1559C26.2999 4.1299 26.0214 3.99867 25.8975 3.94787L25.9462 3.78126C25.7451 3.89253 25.2788 3.61798 24.7784 3.33103C24.2804 3.03622 23.7473 2.73385 23.5305 2.69333C23.1241 2.4091 22.5439 2.60897 22.0063 2.46353C21.1294 2.35256 21.5799 2.18686 21.1363 2.01451C20.5754 1.90444 21.2461 2.2171 21.0199 2.22828L20.3487 1.98639C20.7417 1.96552 20.5286 1.8609 20.4548 1.79378C19.8706 1.76112 18.903 1.51257 18.7543 1.88449C17.9421 1.79378 17.9179 1.68371 17.5717 1.71183C17.6972 1.75658 17.9327 1.77896 17.9442 1.8479C17.6034 1.74509 17.7982 1.90838 17.9324 1.92228C17.8169 1.97792 17.5977 1.99032 17.3301 1.98457L16.4457 1.9752C15.8409 1.98155 15.2788 2.02932 15.2827 2.22828L15.2637 2.16146C15.2334 2.46716 15.4814 2.67851 15.2059 2.92767L14.955 2.87264L14.6704 3.08853C14.4285 3.07643 14.5081 2.96758 14.4969 2.93523C14.2592 3.09397 13.9453 3.19345 13.6149 3.29807C13.2886 3.41086 12.93 3.49219 12.6213 3.62615C12.9421 3.75284 13.2632 3.90312 13.5722 4.04946L13.0757 4.09059C12.8982 4.11447 12.7129 4.1432 12.5457 4.17827C12.2076 4.24419 11.9491 4.35546 11.9594 4.49153L11.5415 4.42259C10.9256 4.47611 10.7856 4.64423 10.7402 4.77939C10.6958 4.9212 10.7457 5.05152 10.5177 5.10807L9.89085 5.1888L10.365 4.87584C9.81617 5.0748 9.56671 5.11774 9.09048 5.25018C9.09229 5.2526 9.09048 5.25713 9.09048 5.25955C9.12313 5.24988 9.14762 5.24837 9.16093 5.25955L9.10046 5.31338C9.13069 5.47303 8.93929 5.71402 8.62694 5.9674C8.15494 6.30183 7.95598 6.73603 7.09422 7.16147L7.13746 7.52673C6.93336 7.64405 6.73591 7.77044 6.54119 7.90228L6.37216 7.74625C6.60438 7.4974 6.93911 7.13879 7.29107 6.76234L7.84471 6.21807C8.02794 6.04118 8.21723 5.88546 8.38353 5.74153L8.32941 5.65082C7.91728 5.97678 7.54748 6.45483 7.27807 6.66981C7.12295 6.74692 6.65034 6.88782 6.76403 6.55189L6.68995 6.94346C6.38002 7.25309 6.16836 7.50647 5.97968 7.71057C5.791 7.91467 5.64345 8.08128 5.49105 8.2491C5.18022 8.58019 4.83793 8.89708 4.20295 9.58527L4.38831 9.51815C4.23712 9.86104 4.08866 10.1946 3.8779 10.1812C3.23929 11.0941 2.60038 12.0608 2.02981 12.6181L2.21486 12.8754C2.10994 13.0852 1.58714 13.2639 1.89798 13.5128L1.83448 14.0301C1.70053 14.3274 1.78277 14.5617 1.52848 14.8665V14.8683C1.51245 14.887 1.49582 14.9067 1.47738 14.9251C1.48474 14.9273 1.49239 14.9283 1.50006 14.9282C1.17471 15.5967 1.71928 14.9853 1.35371 15.75C1.10093 15.9617 1.60982 16.1213 1.45742 16.4954L0.993283 16.8119C0.807627 17.1533 0.805813 17.3774 0.839376 17.6444C0.890784 18.0101 0.897992 18.3806 0.860844 18.748C0.67156 19.2391 0.316576 19.4737 0.0562349 19.0997C0.368584 19.6065 0.270616 19.3373 0.405474 19.9766C0.254288 20.0673 0.226167 19.9992 0.103102 19.852C-0.0943458 20.4117 0.211049 20.2061 0.201373 20.6291C0.477438 20.757 0.917085 20.8958 0.934925 21.0276L1.0211 20.8692C1.15989 21.3018 1.25483 21.7596 1.14205 22.2679L1.00235 22.2589C1.03259 22.4357 1.08097 22.6111 1.11937 22.7862L0.945811 22.837C0.99298 23.0901 1.02654 23.3444 1.08853 23.5929L1.11877 23.4822C1.1735 23.6576 1.30745 24.2312 1.2887 24.578L1.18922 24.5844C1.16326 24.8199 1.17254 25.058 1.21674 25.2907C1.26118 25.5142 1.34373 25.7261 1.43142 25.9402C1.51911 26.1543 1.62191 26.3693 1.73379 26.5924C1.84567 26.8156 1.94273 27.0563 2.04674 27.3154L1.80485 27.2419C1.74649 27.6686 2.13352 27.2398 2.1943 27.6979L1.96994 27.8052C2.40868 28.0689 2.09089 28.3147 2.08575 28.6216L2.3349 28.3776L2.4746 28.8844C2.61127 29.4526 2.25236 29.3785 2.05672 29.3706L2.46099 29.6231L2.23724 29.8181C2.66419 29.9342 2.31102 30.1114 2.7165 30.4812C2.64151 30.5698 2.52449 30.484 2.56773 30.6608C2.81991 30.8483 3.07269 31.0291 3.33666 31.1969C3.19999 31.0823 3.05545 30.9705 2.92543 30.8486L3.31852 30.6974C3.85492 30.9847 3.63994 31.3248 3.93414 31.581C3.8522 31.5326 3.77479 31.4806 3.69467 31.4298C4.10196 31.89 3.98222 32.0043 4.09621 32.3478C4.09984 32.2141 4.10498 32.0152 4.28731 32.1872C4.40826 32.3227 4.21928 32.3535 4.28127 32.5198C4.53435 32.3931 4.90808 32.6489 5.03719 33.042C5.00685 33.0643 4.96989 33.0757 4.93227 33.0744C5.02721 33.1282 5.11883 33.1209 5.17628 33.2984L4.8721 33.4121L5.31628 33.4883C5.39399 33.7166 5.77195 33.8227 5.59749 33.9346C5.55274 33.9171 5.5098 33.8974 5.46716 33.8778C5.82336 34.3223 6.18923 34.7616 6.5817 35.178L6.42508 35.3715C6.77371 35.2548 7.0271 36.1105 7.27172 35.7594C7.34882 36.1643 8.34846 36.4522 7.8946 36.707C8.10626 36.9003 8.3282 37.0267 8.53835 37.1452C8.7485 37.2637 8.95834 37.3605 9.17665 37.4548C9.4043 37.5554 9.62555 37.6699 9.83915 37.7977C10.1036 37.9476 10.3521 38.124 10.5809 38.3241C10.8043 38.9201 12.0779 39.458 12.8982 39.8124C13.3173 39.9457 13.7116 40.0301 14.0775 40.126C14.4512 40.2025 14.805 40.2744 15.16 40.3376C15.8739 40.4501 16.589 40.5535 17.4652 40.6234C17.9412 40.9923 18.6188 41.0204 19.2919 40.9862C19.6299 40.9608 19.968 40.9405 20.2918 40.9236C20.6157 40.9067 20.9268 40.9215 21.2125 40.9965L21.5149 40.7546C21.7057 40.835 21.9216 40.864 22.1532 40.8668C22.3842 40.8613 22.6304 40.8247 22.8856 40.7885C23.1411 40.7582 23.4029 40.7035 23.6717 40.6763C23.9442 40.6488 24.2187 40.6488 24.4911 40.6763C24.7285 40.5272 24.854 40.4695 24.912 40.4492C24.8625 40.4492 24.782 40.4211 24.7306 40.2856C25.0484 40.3334 25.6075 40.054 25.6353 40.3428L25.5676 40.3905C25.5806 40.5351 25.798 40.445 26.0586 40.3379C26.3193 40.2309 26.615 40.0839 26.8161 40.1535L26.5464 39.9158C26.7326 39.8744 26.9216 39.839 27.1067 39.7918C27.0651 39.8285 27.023 39.8635 26.9803 39.8968C28.047 39.1759 28.8637 38.8751 29.6907 38.5567C30.4983 38.2216 31.3117 37.8567 32.0764 36.9381C32.0262 37.3916 32.3368 36.5256 32.5781 36.8017C32.9539 36.8138 33.1568 36.6203 33.2929 36.3784C33.4289 36.1365 33.5133 35.858 33.6451 35.6494C33.637 35.6393 33.6311 35.6277 33.6277 35.6153C33.6243 35.6029 33.6234 35.5899 33.6252 35.5771C33.8368 35.4017 34.057 35.2324 34.2644 35.0498C34.2341 35.7319 34.421 34.3543 34.372 34.9566C35.2701 34.3283 36.111 33.3728 36.8367 32.2979C37.5675 31.222 38.1825 30.0331 38.7652 28.9131L38.614 28.966C38.7473 28.6773 38.865 28.3389 38.9768 28.0214C39.0845 27.7012 39.206 27.4085 39.3763 27.2105C39.7034 26.802 39.4065 26.1129 39.4237 25.9321C39.4104 25.8182 39.42 25.7027 39.4522 25.5927C39.4843 25.4826 39.5383 25.3801 39.6109 25.2913C39.7143 25.1553 39.8226 25.1135 39.7884 25.2221C39.8186 24.9394 39.7554 24.6476 39.7258 24.3413C39.6844 24.0317 39.6726 23.7063 39.8195 23.3383C40.0242 23.2325 39.9952 22.6921 39.9378 22.1932C39.8743 21.6925 39.8123 21.2326 40.0285 21.2238L39.9916 21.2148C40.1558 20.7234 40.0914 20.2366 40.0055 19.7516C39.9196 19.2666 39.8111 18.7801 39.8788 18.2337C39.9042 18.2461 39.9277 18.2622 39.9484 18.2815C39.4227 17.6362 38.8509 17.0298 38.2375 16.4672C37.8064 16.7742 37.3693 17.0665 36.9265 17.3441C36.6568 17.9426 36.3475 18.5225 36.0006 19.0797C36.246 20.4289 36.311 21.8048 36.1938 23.1711C35.8861 24.2202 35.4664 25.2331 34.942 26.1924C34.0999 28.6434 32.5911 30.8743 30.6311 32.6184L30.4037 33.2364C29.6039 33.4934 28.8976 34.002 28.1253 34.4762C27.3594 34.9479 26.5285 35.3908 25.6689 35.4598L25.7294 35.7428C25.28 35.9067 25.2567 35.7225 25.1316 35.7107C23.0513 36.3793 20.7774 36.6759 18.5825 36.4404C16.3939 36.2166 14.3082 35.4525 12.6963 34.2772C12.4586 33.9337 11.4456 33.3701 11.3383 33.0205C10.1077 32.5328 9.11497 31.5229 8.34483 30.4912L8.40047 30.5097L7.99106 30.0561C7.99125 30.0486 7.99293 30.0413 7.996 30.0345C7.99907 30.0277 8.00346 30.0216 8.00893 30.0165C8.01439 30.0115 8.02082 30.0075 8.02782 30.005C8.03483 30.0024 8.04227 30.0013 8.04972 30.0017C7.43439 29.5935 7.06217 28.5201 6.79548 27.7339L6.84416 27.7641C6.32158 26.6896 5.89978 25.569 5.58418 24.4166C5.27835 23.2749 5.10266 22.1023 5.06048 20.9212C5.01542 19.7336 5.12592 18.5453 5.38915 17.3864C5.6619 16.2155 6.11361 15.0936 6.72835 14.0604C7.42865 13.1578 8.02069 12.1285 8.77873 11.1307C9.15568 10.6207 9.57385 10.1426 10.029 9.70108C10.5038 9.27202 11.009 8.86472 11.5865 8.57414C11.7193 8.55661 12.0761 8.35583 12.5469 8.07009C13.0267 7.79947 13.6209 7.43814 14.2483 7.13818C15.4865 6.50109 16.8254 6.0811 17.032 5.96317Z" fill="#7EBC43"/>
<path d="M24.6641 5.66793L24.6442 5.66431C24.6145 5.78102 24.6554 5.74504 24.6641 5.66793Z" fill="#7EBC43"/>
<path d="M12.5823 3.64048L12.6213 3.62506L12.4063 3.53918L12.5823 3.64048Z" fill="#7EBC43"/>
<path d="M20.801 1.75377C20.4182 1.71568 20.4004 1.74501 20.4548 1.79338C20.593 1.80094 20.7124 1.79187 20.801 1.75377Z" fill="#7EBC43"/>
<path d="M27.1795 6.31297C27.3307 6.38887 27.3005 6.29815 27.243 6.18477L26.9664 6.0874C27.042 6.15181 27.103 6.24796 27.1795 6.31297Z" fill="#7EBC43"/>
<path d="M27.1554 4.52346L27.2461 4.45421C27.1348 4.43577 27.126 4.47054 27.1554 4.52346Z" fill="#7EBC43"/>
</g>
<defs>
<clipPath id="clip0_407_886">
<rect width="45.997" height="41" fill="white"/>
</clipPath>
</defs>
</svg>
