<svg width="300" height="89" viewBox="0 0 300 89" fill="none" xmlns="http://www.w3.org/2000/svg">
<g clip-path="url(#clip0_572_168)">
<path d="M275.382 56.9604C263.555 65.9653 250.448 61.8721 243.97 54.1323C237.266 46.0949 237.492 34.0387 244.271 26.0757C250.674 18.4848 263.931 14.7638 275.23 23.471C275.532 23.0245 275.382 22.5035 275.382 21.9826C275.532 19.9732 277.037 18.4104 279.071 18.4104C281.258 18.4104 282.763 19.75 282.763 21.9826C282.763 35.676 282.913 49.2949 282.689 62.9884C282.536 72.8119 273.498 81.817 263.631 82.7099C256.927 83.3798 251.051 81.5937 246.079 77.1283C245.326 76.4587 244.573 75.7145 244.497 74.5982C244.271 72.8119 244.949 71.3236 246.381 70.5794C247.812 69.8353 249.544 70.1327 250.9 71.3981C255.722 75.7145 261.219 76.6819 267.17 74.0772C271.314 72.2167 273.575 68.6444 274.78 64.4025C275.456 62.021 275.682 59.5651 275.382 56.9604ZM275.456 40.2156C275.456 32.1782 268.978 25.8525 260.769 25.8525C252.934 25.8525 246.531 32.4014 246.531 40.2901C246.531 48.1788 253.085 54.6532 261.145 54.579C269.054 54.6532 275.456 48.1043 275.456 40.2156Z" fill="#00AEEF"/>
<path d="M81.8295 43.8756C77.5112 43.8756 73.1173 43.8756 68.7993 43.8756C66.6779 43.8756 66.0718 44.7799 66.981 46.6636C70.9204 54.9517 80.8445 57.4382 88.4961 52.1638C90.0868 51.0337 91.9051 50.9582 93.2686 51.9377C94.6323 52.9173 95.2385 54.4994 94.7839 56.1571C94.5566 57.0614 94.0262 57.8147 93.1929 58.4175C85.9962 63.4659 78.2689 64.3699 70.3143 60.5274C62.2082 56.5338 57.8902 49.8281 57.8145 40.7111C57.6629 29.9365 65.3145 20.7443 75.6932 18.7853C86.1474 16.8262 96.905 22.7033 100.617 32.7243C101.375 34.6834 101.905 36.7931 101.299 38.9782C100.466 41.9167 98.1929 43.8756 95.0869 43.8756C90.6929 43.8756 86.299 43.8756 81.8295 43.8756ZM79.8596 37.2451C83.6475 37.2451 87.3596 37.2451 91.1475 37.2451C93.3444 37.2451 93.9505 36.2658 92.8901 34.3066C90.0868 29.0325 85.7689 26.1693 79.7839 26.2445C73.8749 26.32 69.6324 29.183 66.9052 34.4574C65.9203 36.4163 66.5264 37.3206 68.7235 37.3206C72.5112 37.3206 76.2233 37.2451 79.8596 37.2451Z" fill="#5A646E"/>
<path d="M189.106 51.2857C189.106 48.0264 189.106 44.6916 189.106 41.4325C189.106 38.0217 191.555 35.4447 194.923 35.2932C198.137 35.1414 200.969 37.6426 201.199 40.9777C201.352 44.0852 201.276 47.1928 201.276 50.3761C201.276 51.2857 201.429 51.7405 202.5 51.8163C204.261 51.8921 205.409 53.2563 206.863 53.9384C208.164 54.469 210.154 53.4836 211.532 54.5448C213.139 55.7575 214.746 56.2123 216.813 56.2881C219.645 56.3639 221.788 58.9408 221.788 61.8211C221.865 65.3077 222.018 68.794 221.559 72.2806C220.487 81.2244 212.604 88.5007 203.572 88.9553C197.678 89.2586 192.78 87.0605 188.34 83.4223C184.743 80.4666 181.605 77.0557 178.39 73.6449C175.941 71.0679 176.017 66.975 178.237 64.1707C180.457 61.3662 184.514 60.6083 187.728 62.4274C189.029 63.1853 189.029 62.8065 189.029 61.6695C189.106 58.1829 189.106 54.6963 189.106 51.2857ZM193.928 55.4544C193.928 59.8505 193.928 64.3222 193.928 68.7183C193.928 69.931 193.545 70.9164 192.397 71.3712C191.249 71.8258 190.407 71.447 189.565 70.6131C188.493 69.5522 187.422 68.491 186.35 67.4298C184.896 65.9898 183.365 65.914 182.217 67.051C180.993 68.2637 181.146 69.6279 182.753 71.1437C185.815 74.0997 188.876 77.1315 192.014 80.0117C201.276 88.5007 214.593 82.816 216.507 72.8112C217.196 69.3246 216.813 65.7625 216.966 62.2001C216.966 61.5938 216.66 61.0632 215.971 60.9874C215.129 60.9116 214.976 61.442 214.823 62.2001C214.517 63.6401 213.445 64.4738 212.221 64.398C210.919 64.2465 210.078 63.2611 210.001 61.6695C210.001 61.0632 210.001 60.3811 210.001 59.7747C209.925 59.1683 209.619 58.7893 209.006 58.7893C208.47 58.7893 208.164 59.0926 208.011 59.6229C207.934 59.8505 207.858 60.1535 207.781 60.3811C207.322 61.518 206.48 62.1244 205.179 61.9726C203.954 61.8211 203.266 60.9874 203.036 59.7747C202.96 59.2441 203.036 58.6378 202.96 58.0314C202.96 57.425 202.806 56.8187 202.117 56.7429C201.505 56.5911 201.199 56.9702 200.893 57.5008C200.587 58.1829 200.051 58.7135 199.286 58.865C197.525 59.2441 196.224 58.1829 196.224 56.3639C196.224 51.5888 196.224 46.8897 196.224 42.1146C196.224 41.1292 196.071 40.2198 194.923 40.2198C193.775 40.2198 193.775 41.205 193.775 42.0389C193.928 46.5106 193.928 50.9824 193.928 55.4544Z" fill="#5A646E"/>
<path d="M22.3059 62.902C11.2315 62.902 1.83745 54.7458 0.233579 43.8708C-1.37029 32.8448 5.42705 22.3474 16.2723 19.3266C23.2987 17.363 29.7905 18.5714 35.6715 22.8005C37.2753 23.9333 37.8099 25.6702 37.2753 27.3316C36.3587 29.8994 33.5329 30.8058 31.1654 29.1443C28.034 26.9541 24.5207 25.9725 20.702 26.35C14.6684 27.0296 9.47492 31.5609 8.25292 37.376C6.95456 43.7953 9.70403 50.2145 15.2794 53.1599C20.702 56.1052 25.9719 55.6519 31.0126 52.2535C33.6857 50.441 36.8171 51.5739 37.4281 54.5948C37.7336 56.2562 37.0462 57.5399 35.7478 58.5217C31.6998 61.3916 27.1937 62.902 22.3059 62.902Z" fill="#5A646E"/>
<path d="M217.153 22.0662C217.153 27.7269 217.231 33.3877 217.153 39.0483C217.153 42.3694 216.689 45.6903 215.296 48.7848C214.599 50.3697 213.284 50.9736 211.891 50.4453C210.575 49.9169 210.033 48.4828 210.729 46.8979C214.832 38.0672 210.188 27.5758 201.055 23.8776C193.006 20.6321 182.635 24.3305 178.843 32.0291C175.051 39.8031 176.753 47.879 183.332 53.5398C183.487 53.6908 183.719 53.8416 183.951 54.0681C185.034 55.1247 185.112 56.3324 184.261 57.3892C183.332 58.4458 182.093 58.5966 180.855 57.7665C174.586 53.6153 170.717 43.8033 172.187 36.4823C173.503 30.1421 176.599 24.9343 182.171 21.5379C190.762 16.33 199.275 16.6319 207.711 22.0662C208.176 22.3681 208.563 23.1229 209.104 22.7455C209.491 22.5191 209.259 21.7643 209.259 21.236C209.259 15.6507 209.259 9.99 209.259 4.40474C209.259 1.00831 211.891 -0.878595 214.832 0.404503C216.534 1.15927 216.998 2.66878 216.998 4.32928C217.076 10.2164 217.076 16.1036 217.153 22.0662C217.076 22.0662 217.076 22.0662 217.153 22.0662Z" fill="#00AEEF"/>
<path d="M126.562 26.1499C131.503 19.8806 141.385 16.8592 149.138 19.2007C156.436 21.3913 161.681 25.9234 164.189 33.1748C167.001 41.1815 165.709 48.6593 160.084 55.2309C159.4 54.551 158.564 54.0225 157.956 53.2671C156.968 52.0585 155.295 51.5297 154.535 50.019C154.687 49.717 154.763 49.4147 154.991 49.1882C158.108 44.7316 158.564 39.9728 156.512 34.912C153.927 28.416 145.566 24.7148 138.953 26.9808C136.444 27.8116 134.392 29.3226 132.416 31.0598C130.211 29.7001 128.387 27.8874 126.562 26.1499Z" fill="#00AEEF"/>
<path d="M126.062 26.0818C127.961 27.8955 129.858 29.6337 132.152 30.9184C131.915 31.2964 131.598 31.6742 131.361 32.052C127.723 36.8889 127.407 43.237 130.649 48.1493C134.05 53.364 140.139 55.9336 146.387 54.7999C149.945 54.1196 152.713 52.3059 155.165 49.8875C155.956 51.399 157.695 51.8525 158.724 53.1372C159.356 53.8931 160.226 54.4976 160.938 55.1022C155.165 61.4503 147.889 63.9443 139.348 62.5084C126.853 60.4679 118.629 49.132 120.606 37.1157C121.318 32.9589 122.978 29.1804 126.062 26.0818Z" fill="#5A646E"/>
<path d="M107.812 33.7695C107.812 26.0348 107.812 18.2243 107.812 10.4896C107.812 8.82134 108.414 7.45639 109.916 6.62223C111.343 5.86395 112.695 6.0156 113.972 6.92556C115.4 7.91137 115.625 9.42797 115.625 11.0963C115.625 23.0774 115.625 35.0587 115.625 47.0399C115.625 50.3005 115.625 53.6371 115.625 56.8977C115.625 59.1726 114.649 60.5376 112.921 61.1442C110.367 62.0541 107.812 60.0828 107.812 57.0495C107.812 49.3148 107.812 41.5041 107.812 33.7695Z" fill="#5A646E"/>
<path d="M298.437 39.8508C298.437 45.5734 298.437 51.296 298.437 57.0187C298.437 59.5366 296.802 61.3676 294.57 61.3676C292.261 61.3676 290.624 59.6129 290.624 56.9424C290.624 45.5734 290.624 34.2047 290.624 22.8358C290.624 20.089 292.114 18.4104 294.493 18.4104C296.949 18.4104 298.437 20.089 298.437 22.9122C298.437 28.5583 298.437 34.2047 298.437 39.8508Z" fill="#00AEEF"/>
<path d="M232.779 39.926C232.779 45.6484 232.779 51.3705 232.779 57.0929C232.779 59.6106 231.268 61.2891 229.003 61.3654C226.737 61.4416 225 59.6106 225 57.1692C225 45.6484 225 34.1274 225 22.5304C225 20.0126 226.586 18.4104 228.927 18.4104C231.268 18.4104 232.779 20.0126 232.779 22.5304C232.854 28.2527 232.779 34.1274 232.779 39.926Z" fill="#00AEEF"/>
<path d="M50 40.0036C50 45.6332 50 51.2627 50 56.8926C50 59.6688 48.4829 61.4424 46.0557 61.3654C43.7043 61.3654 42.1875 59.5145 42.1875 56.8153C42.1875 45.5561 42.1875 34.2197 42.1875 22.9604C42.1875 20.2612 43.8561 18.4104 46.1315 18.4104C48.4069 18.4875 50 20.2612 50 23.0375C50 28.6671 50 34.374 50 40.0036Z" fill="#5A646E"/>
<path d="M181.279 40.2342C181.279 33.2178 185.916 27.3454 192.173 26.2776C198.652 25.1338 205.056 29.0997 207.117 35.582C208.221 39.0139 208 42.5221 206.528 45.8015C205.866 47.3267 204.467 47.9369 203.216 47.3267C201.964 46.7165 201.596 45.3439 202.185 43.8185C203.878 39.4715 203.069 35.6582 199.829 32.989C196.958 30.6248 193.867 30.396 190.628 31.9977C187.462 33.5229 185.695 37.0311 185.99 40.6156C186.064 41.6069 186.211 42.5984 186.579 43.5134C187.241 45.1151 186.726 46.4877 185.327 47.0216C184.076 47.5555 182.898 47.0216 182.236 45.4202C181.573 43.6659 181.131 41.8357 181.279 40.2342Z" fill="#00AEEF"/>
<path d="M234.375 5.49076C234.375 8.39659 231.806 10.8181 228.824 10.7374C225.675 10.6567 223.438 8.39659 223.438 5.32935C223.438 2.2621 225.841 -0.078691 229.072 0.00202584C232.055 0.0827428 234.375 2.50425 234.375 5.49076Z" fill="#00AEEF"/>
<path d="M290.624 5.44996C290.624 2.27759 292.614 0 295.312 0C297.941 0 299.929 2.27759 300 5.3686C300 8.37829 298.012 10.7372 295.312 10.7372C292.686 10.8186 290.624 8.54097 290.624 5.44996Z" fill="#00AEEF"/>
<path d="M51.5605 5.48975C51.5605 8.47683 49.4856 10.8181 46.8383 10.7373C44.1192 10.6566 42.1875 8.39608 42.1875 5.32828C42.1875 2.34122 44.334 0 46.9814 0C49.5571 0.0807315 51.6322 2.50268 51.5605 5.48975Z" fill="#00AEEF"/>
</g>
<defs>
<clipPath id="clip0_572_168">
<rect width="300" height="88.983" fill="white"/>
</clipPath>
</defs>
</svg>
