<svg width="788" height="62" viewBox="0 0 788 62" fill="none" xmlns="http://www.w3.org/2000/svg">
<g clip-path="url(#clip0_12_8295)">
<path d="M33.4408 58.445V51.1616C33.4408 50.3001 32.736 49.5953 31.8745 49.5953H18.4042C14.7234 49.5953 13.392 48.3422 13.392 44.2698V3.78055C13.392 2.91908 12.6872 2.21423 11.8257 2.21423H1.56632C0.704843 2.21423 0 2.91908 0 3.78055V44.2698C0 58.5233 9.00632 61.1077 19.1091 61.1077C23.2598 61.1077 29.2901 60.6378 31.8745 60.0896C32.9709 59.8546 33.4408 59.4631 33.4408 58.445Z" fill="#FFB400"/>
<path d="M78.3592 58.8365V17.1725C78.3592 16.3111 77.5761 15.5279 76.7146 15.5279H67.2384C66.3769 15.5279 65.6721 16.3111 65.6721 17.1725V48.029C63.0093 49.4386 60.5815 50.5351 58.3104 50.5351C53.5331 50.5351 52.515 48.7338 52.515 43.2517V17.1725C52.515 16.3111 51.8102 15.5279 50.9487 15.5279H41.4725C40.611 15.5279 39.8279 16.3111 39.8279 17.1725V43.2517C39.8279 53.1195 42.334 61.0294 53.6898 61.0294C58.702 61.0294 62.1479 60.0113 66.4552 56.957V58.8365C66.4552 59.698 67.1601 60.4029 68.0215 60.4029H76.7929C77.6544 60.4029 78.3592 59.698 78.3592 58.8365Z" fill="#FFB400"/>
<path d="M116.914 58.1317V51.1616C116.914 50.3784 116.21 49.8302 115.426 49.8302C115.426 49.8302 115.348 49.8302 115.27 49.8302C112.372 50.1435 110.179 50.3784 105.715 50.3784C102.191 50.3784 99.2934 48.2639 99.2934 41.2938V34.7153C99.2934 27.7452 102.191 25.6307 105.715 25.6307C110.179 25.6307 112.372 25.8656 115.27 26.1789C115.348 26.1789 115.426 26.1789 115.426 26.1789C116.21 26.1789 116.914 25.6307 116.914 24.8475V17.8774C116.914 16.7027 116.445 16.3894 115.27 16.0761C113.077 15.5279 109.553 14.9014 104.854 14.9014C93.8113 14.9014 86.6063 21.9498 86.6063 34.7153V41.2938C86.6063 54.0593 93.8113 61.1077 104.854 61.1077C109.553 61.1077 113.077 60.4812 115.27 59.933C116.445 59.6197 116.914 59.3064 116.914 58.1317Z" fill="#FFB400"/>
<path d="M159.489 58.8365V30.8778C159.489 19.4437 152.441 14.9014 141.164 14.9014C135.995 14.9014 130.513 15.8412 127.615 16.546C126.675 16.781 126.127 17.4075 126.127 18.269V24.6125C126.127 25.6307 126.753 26.0222 127.537 26.0222H127.928C130.356 25.7873 135.916 25.474 140.929 25.474C144.609 25.474 146.802 26.4138 146.802 30.8778V33.6972H142.573C129.181 33.6972 123.308 37.7696 123.308 46.9325V47.6374C123.308 57.8184 129.886 61.1077 136.7 61.1077C141.399 61.1077 144.531 59.7763 147.585 57.5835V58.8365C147.585 59.698 148.29 60.4029 149.152 60.4029H157.923C158.785 60.4029 159.489 59.698 159.489 58.8365ZM147.037 49.8302C145.158 50.77 142.965 51.5532 140.615 51.5532C137.326 51.5532 135.681 50.9266 135.681 47.6374V46.9325C135.681 43.0951 137.091 41.2155 142.573 41.2155H147.037V49.8302Z" fill="#FFB400"/>
<path d="M200.255 47.9507C200.255 43.7216 198.845 39.6492 192.345 35.89L182.634 30.3296C181.067 29.3898 180.206 28.7633 180.206 27.5885C180.206 25.7873 181.302 25.3174 184.357 25.3174C188.351 25.3174 195.086 26.0222 197.357 26.3355C197.435 26.3355 197.514 26.3355 197.592 26.3355C198.375 26.3355 198.923 25.7873 198.923 24.8475V18.5039C198.923 17.5641 198.375 16.9376 197.435 16.7027C193.441 15.6845 189.682 14.9014 183.495 14.9014C172.688 14.9014 167.44 19.1304 167.44 27.0403C167.44 32.1309 170.025 36.125 174.41 38.6311L184.592 44.5048C186.784 45.7578 187.489 46.6193 187.489 47.794C187.489 49.8302 186.628 50.8483 182.869 50.8483C180.362 50.8483 173.784 50.3001 169.555 49.7519C169.477 49.7519 169.32 49.7519 169.242 49.7519C168.302 49.7519 167.754 50.4568 167.754 51.2399V57.5835C167.754 58.5233 168.302 59.1498 169.242 59.3848C173.236 60.4812 179.188 61.1077 183.495 61.1077C194.929 61.1077 200.255 55.3123 200.255 47.9507Z" fill="#FFB400"/>
<path d="M265.513 59.2851V4.9339C265.513 3.28926 264.338 2.19284 262.694 2.19284H255.332C253.687 2.19284 252.591 2.976 251.886 4.30737L239.904 26.6274C239.59 27.2539 239.355 27.6455 239.042 27.6455C238.729 27.6455 238.494 27.2539 238.181 26.6274L226.198 4.30737C225.494 2.976 224.397 2.19284 222.752 2.19284H215.391C213.746 2.19284 212.571 3.21095 212.571 4.85558V59.2851C212.571 60.1465 213.276 60.3815 213.903 60.3815H224.24C224.945 60.3815 225.494 59.6766 225.494 58.8152V26.1575C225.494 25.6093 225.728 25.5309 225.885 25.5309C226.12 25.5309 226.277 25.6876 226.512 26.0792L233.56 39.0013C234.108 39.9411 234.891 40.3326 235.91 40.3326H242.175C243.193 40.3326 243.976 39.9411 244.524 39.0013L251.573 26.0792C251.808 25.6876 251.964 25.5309 252.199 25.5309C252.356 25.5309 252.591 25.6093 252.591 26.1575V58.8152C252.591 59.6766 253.139 60.3815 253.844 60.3815H264.182C264.808 60.3815 265.513 60.1465 265.513 59.2851Z" fill="white"/>
<path d="M313.709 40.7242V35.2421C313.709 22.7899 306.817 14.88 294.13 14.88C281.443 14.88 274.473 22.7899 274.473 35.2421V40.7242C274.473 53.1764 281.443 61.0863 294.13 61.0863C306.817 61.0863 313.709 53.1764 313.709 40.7242ZM301.1 40.7242C301.1 47.0678 298.672 50.357 294.13 50.357C289.588 50.357 287.082 47.0678 287.082 40.7242V35.2421C287.082 28.8985 289.588 25.6876 294.13 25.6876C298.672 25.6876 301.1 28.8985 301.1 35.2421V40.7242Z" fill="white"/>
<path d="M360.375 58.7368V32.6577C360.375 22.7899 357.869 14.88 346.513 14.88C341.501 14.88 338.055 15.8981 333.747 18.9524V17.0728C333.747 16.2114 333.043 15.5065 332.181 15.5065H323.41C322.548 15.5065 321.843 16.2114 321.843 17.0728V58.7368C321.843 59.5983 322.627 60.3815 323.488 60.3815H332.964C333.826 60.3815 334.531 59.5983 334.531 58.7368V27.8804C337.193 26.4707 339.621 25.3743 341.892 25.3743C346.669 25.3743 347.688 27.1756 347.688 32.6577V58.7368C347.688 59.5983 348.392 60.3815 349.254 60.3815H358.73C359.592 60.3815 360.375 59.5983 360.375 58.7368Z" fill="white"/>
<path d="M394.646 58.8935V52.7848C394.646 51.9234 394.02 51.4535 393.002 51.4535H389.164C386.815 51.4535 386.58 50.9053 386.58 47.7726V24.9827H393.002C393.863 24.9827 394.568 24.2779 394.568 23.4164V17.0728C394.568 16.2114 393.863 15.5065 393.002 15.5065H386.58V7.20505C386.58 6.4219 385.953 5.87368 385.17 5.87368C385.092 5.87368 385.014 5.87368 384.935 5.87368L375.381 7.51832C374.519 7.67495 373.814 8.22316 373.814 9.08463V15.5065H367.549C366.688 15.5065 365.905 16.2897 365.905 17.1512V22.32C365.905 23.1815 366.688 23.808 367.549 23.9646L373.814 24.9827V47.6943C373.814 58.8152 378.357 61.0863 386.971 61.0863C389.243 61.0863 390.809 60.8514 393.158 60.4598C394.098 60.3032 394.646 59.6766 394.646 58.8935Z" fill="white"/>
<path d="M439.748 40.0194V35.4771C439.748 23.6514 433.248 14.88 420.404 14.88C407.952 14.88 400.59 22.8682 400.59 35.4771V40.9592C400.59 56.0741 410.772 61.0863 420.248 61.0863C427.061 61.0863 431.29 60.4598 436.303 59.2067C437.634 58.8935 437.947 58.3453 437.947 57.0922V51.1402C437.947 50.2787 437.321 49.8872 436.459 49.8872C436.381 49.8872 436.303 49.8872 436.224 49.8872C433.092 50.2004 426.121 50.592 421.188 50.592C415.001 50.592 413.121 46.5196 413.121 42.0556V41.8989H438.104C439.122 41.8989 439.748 41.1941 439.748 40.0194ZM427.374 34.0674H413.121V33.7541C413.121 28.0371 416.019 25.061 420.326 25.061C424.712 25.061 427.374 27.9587 427.374 33.7541V34.0674Z" fill="white"/>
<path d="M461.273 8.84968V1.56631C461.273 0.704842 460.568 0 459.707 0H449.526C448.664 0 447.959 0.704842 447.959 1.56631V8.84968C447.959 9.71116 448.664 10.416 449.526 10.416H459.707C460.568 10.416 461.273 9.71116 461.273 8.84968ZM460.96 58.8152V17.0728C460.96 16.2114 460.255 15.5065 459.393 15.5065H449.839C448.977 15.5065 448.273 16.2114 448.273 17.0728V58.8152C448.273 59.6766 448.977 60.3815 449.839 60.3815H459.393C460.255 60.3815 460.96 59.6766 460.96 58.8152Z" fill="white"/>
<path d="M495.265 23.8863V16.4463C495.265 15.5848 494.56 14.88 493.699 14.88C489.94 14.88 486.024 16.2114 483.126 18.6392V17.0728C483.126 16.2114 482.421 15.5065 481.56 15.5065H472.24C471.379 15.5065 470.674 16.2114 470.674 17.0728V58.7368C470.674 59.5983 471.457 60.3815 472.319 60.3815H481.795C482.656 60.3815 483.361 59.5983 483.361 58.7368V28.1154C486.259 26.5491 489.626 25.3743 493.464 25.3743H494.09C494.795 25.3743 495.265 24.5912 495.265 23.8863Z" fill="white"/>
<path d="M538.255 40.7242V35.2421C538.255 22.7899 531.363 14.88 518.676 14.88C505.989 14.88 499.019 22.7899 499.019 35.2421V40.7242C499.019 53.1764 505.989 61.0863 518.676 61.0863C531.363 61.0863 538.255 53.1764 538.255 40.7242ZM525.646 40.7242C525.646 47.0678 523.218 50.357 518.676 50.357C514.134 50.357 511.628 47.0678 511.628 40.7242V35.2421C511.628 28.8985 514.134 25.6876 518.676 25.6876C523.218 25.6876 525.646 28.8985 525.646 35.2421V40.7242Z" fill="white"/>
<path d="M655.959 26.1873L649.589 21.8198L619.863 41.9124C618.497 42.8357 617.377 44.08 616.603 45.5362C615.829 46.9924 615.424 48.6162 615.423 50.2654V58.0814C615.424 58.7914 615.617 59.488 615.983 60.0965C616.349 60.7049 616.873 61.2024 617.5 61.5355C618.127 61.8686 618.833 62.0249 619.542 61.9875C620.251 61.9502 620.937 61.7207 621.525 61.3235L655.929 38.0921C656.895 37.4302 657.686 36.5433 658.234 35.5078C658.781 34.4723 659.069 33.3192 659.072 32.1479C659.075 30.9765 658.793 29.8219 658.251 28.7836C657.709 27.7452 656.922 26.8542 655.959 26.1873V26.1873Z" fill="url(#paint0_linear_12_8295)"/>
<path d="M655.959 38.0096L649.589 42.3667L640.771 48.314C641.736 47.6495 642.525 46.7606 643.07 45.7237C643.615 44.6868 643.899 43.5329 643.899 42.3616C643.899 41.1902 643.615 40.0364 643.07 38.9994C642.525 37.9625 641.736 37.0736 640.771 36.4092L619.863 22.2948C618.497 21.3715 617.377 20.1272 616.603 18.671C615.829 17.2148 615.424 15.591 615.423 13.9418V6.12577C615.424 5.41576 615.617 4.71921 615.983 4.11074C616.349 3.50228 616.873 3.00483 617.5 2.6717C618.127 2.33857 618.833 2.18231 619.542 2.21965C620.251 2.257 620.937 2.48655 621.525 2.8837L655.929 26.1151C656.893 26.7773 657.682 27.6638 658.228 28.6983C658.775 29.7327 659.061 30.8844 659.065 32.0542C659.068 33.224 658.787 34.3771 658.246 35.4144C657.705 36.4518 656.92 37.3423 655.959 38.0096V38.0096Z" fill="url(#paint1_linear_12_8295)"/>
<path d="M649.589 21.8201L634.401 32.1452L619.874 22.3364C618.507 21.4131 617.388 20.1688 616.614 18.7126C615.84 17.2563 615.435 15.6326 615.434 13.9834V6.12604C615.436 5.41767 615.629 4.72301 615.995 4.11615C616.36 3.50929 616.883 3.01299 617.509 2.68019C618.134 2.34739 618.838 2.19057 619.545 2.22646C620.253 2.26235 620.937 2.4896 621.526 2.88397" fill="url(#paint2_linear_12_8295)"/>
<path d="M554.449 38.0165L560.82 42.3634L590.587 22.2915C591.955 21.3701 593.076 20.1263 593.85 18.6696C594.624 17.2129 595.028 15.5882 595.027 13.9385V6.13277C595.028 5.4211 594.834 4.72265 594.468 4.11257C594.102 3.50249 593.576 3.00388 592.947 2.67042C592.318 2.33695 591.611 2.18124 590.9 2.22006C590.189 2.25887 589.503 2.49074 588.914 2.8907L554.521 26.1221C553.555 26.781 552.762 27.6647 552.213 28.6973C551.663 29.7299 551.372 30.8805 551.365 32.0504C551.358 33.2202 551.635 34.3743 552.172 35.4135C552.709 36.4527 553.491 37.346 554.449 38.0165V38.0165Z" fill="url(#paint3_linear_12_8295)"/>
<path d="M554.449 26.1945L560.861 21.827L569.679 15.8798C568.714 16.5442 567.925 17.4331 567.38 18.47C566.835 19.507 566.551 20.6608 566.551 21.8322C566.551 23.0035 566.835 24.1574 567.38 25.1943C567.925 26.2312 568.714 27.1201 569.679 27.7846V27.7846L590.587 41.9196C591.954 42.8422 593.074 44.0863 593.848 45.5427C594.622 46.9991 595.027 48.6232 595.027 50.2725V58.0886C595.026 58.7986 594.833 59.4952 594.467 60.1036C594.101 60.7121 593.577 61.2095 592.95 61.5427C592.323 61.8758 591.617 62.0321 590.908 61.9947C590.199 61.9574 589.513 61.7278 588.925 61.3307L554.522 38.0993C553.553 37.4407 552.759 36.5566 552.207 35.523C551.656 34.4894 551.364 33.3373 551.357 32.1659C551.35 30.9945 551.628 29.8389 552.167 28.7987C552.705 27.7585 553.489 26.8648 554.449 26.1945V26.1945Z" fill="url(#paint4_linear_12_8295)"/>
<path d="M560.861 42.3735L576.049 32.1517L590.587 41.9192C591.954 42.8419 593.074 44.086 593.848 45.5424C594.622 46.9988 595.027 48.6229 595.027 50.2722V58.0883C595.026 58.7983 594.833 59.4948 594.467 60.1033C594.101 60.7118 593.576 61.2092 592.949 61.5424C592.322 61.8755 591.617 62.0317 590.908 61.9944C590.199 61.9571 589.513 61.7275 588.924 61.3303" fill="url(#paint5_linear_12_8295)"/>
<path d="M706.408 37.0001V28.8418C706.408 15.4977 698.819 8.85718 686.233 8.85718C680.984 8.85718 675.356 9.36312 672.763 9.80582C671.561 9.99554 670.929 10.5647 670.929 12.0193V53.8227C670.929 55.2772 671.561 55.8464 672.763 56.0361C675.356 56.4788 680.984 56.9848 686.233 56.9848C698.819 56.9848 706.408 50.3443 706.408 37.0001ZM695.593 37.0001C695.593 45.5379 691.925 47.8146 686.233 47.8146C684.652 47.8146 682.628 47.7514 681.743 47.6881V18.1538C682.628 18.0906 684.652 18.0274 686.233 18.0274C691.925 18.0274 695.593 20.3041 695.593 28.8418V37.0001Z" fill="#FFB400"/>
<path d="M742.749 54.8345V48.953C742.749 48.2573 742.18 47.6881 741.485 47.6881H728.646C725.674 47.6881 724.599 46.6762 724.599 43.3876V36.6839H740.979C741.674 36.6839 742.243 36.1147 742.243 35.4191V29.411C742.243 28.7153 741.674 28.1462 740.979 28.1462H724.599V22.3911C724.599 19.1025 725.674 18.0906 728.646 18.0906H741.485C742.18 18.0906 742.749 17.5214 742.749 16.8257V10.9442C742.749 10.122 742.37 9.80582 741.485 9.67933C739.271 9.36312 736.109 8.85718 729.279 8.85718C721.12 8.85718 713.848 10.8809 713.848 22.3911V43.3876C713.848 54.8978 721.057 56.9848 729.216 56.9848C736.046 56.9848 739.271 56.4788 741.485 56.1626C742.37 56.0361 742.749 55.6567 742.749 54.8345Z" fill="#FFB400"/>
<path d="M787.91 10.4382C787.91 9.80582 787.467 9.42636 786.834 9.42636H777.981C777.348 9.42636 776.905 9.9323 776.779 10.5647L768.874 47.0557C768.747 47.7514 768.557 48.0043 767.988 48.0043C767.419 48.0043 767.229 47.7514 767.103 47.0557L759.197 10.5647C759.071 9.9323 758.565 9.42636 757.933 9.42636H749.142C748.509 9.42636 748.004 9.86906 748.004 10.4382C748.004 10.5647 748.067 10.628 748.067 10.7545L757.49 49.9649C758.944 56.0361 763.624 56.9848 767.988 56.9848C772.352 56.9848 776.969 56.0361 778.423 49.9649L787.846 10.7545C787.846 10.628 787.91 10.5015 787.91 10.4382Z" fill="#FFB400"/>
</g>
<defs>
<linearGradient id="paint0_linear_12_8295" x1="617.364" y1="60.6524" x2="642.795" y2="35.0359" gradientUnits="userSpaceOnUse">
<stop stop-color="#FFB400"/>
<stop offset="1" stop-color="#FFB400"/>
</linearGradient>
<linearGradient id="paint1_linear_12_8295" x1="612.894" y1="6.9208" x2="652.759" y2="40.9419" gradientUnits="userSpaceOnUse">
<stop/>
<stop offset="1" stop-color="#FFB400"/>
</linearGradient>
<linearGradient id="paint2_linear_12_8295" x1="614.701" y1="5.01093" x2="642.775" y2="28.9754" gradientUnits="userSpaceOnUse">
<stop stop-color="#FFB400"/>
<stop offset="1" stop-color="#FFB400"/>
</linearGradient>
<linearGradient id="paint3_linear_12_8295" x1="593.086" y1="3.56182" x2="567.655" y2="29.1783" gradientUnits="userSpaceOnUse">
<stop stop-color="#FFB400"/>
<stop offset="1" stop-color="#FFB400"/>
</linearGradient>
<linearGradient id="paint4_linear_12_8295" x1="597.556" y1="57.2936" x2="557.691" y2="23.2622" gradientUnits="userSpaceOnUse">
<stop/>
<stop offset="1" stop-color="#FFB400"/>
</linearGradient>
<linearGradient id="paint5_linear_12_8295" x1="595.749" y1="59.1931" x2="567.676" y2="35.2389" gradientUnits="userSpaceOnUse">
<stop stop-color="#FFB400"/>
<stop offset="1" stop-color="#FFB400"/>
</linearGradient>
<clipPath id="clip0_12_8295">
<rect width="787.91" height="62" fill="white"/>
</clipPath>
</defs>
</svg>
