<svg width="392" height="46" viewBox="0 0 392 46" fill="none" xmlns="http://www.w3.org/2000/svg">
<g id="logo-white">
<g id="Group 3">
<mask id="mask0_12_8343" style="mask-type:alpha" maskUnits="userSpaceOnUse" x="0" y="8" width="27" height="38">
<path id="Clip 2" fill-rule="evenodd" clip-rule="evenodd" d="M0 8.7948H26.8762V46H0V8.7948Z" fill="white"/>
</mask>
<g mask="url(#mask0_12_8343)">
<path id="Fill 1" fill-rule="evenodd" clip-rule="evenodd" d="M14.302 14.4225C16.9974 14.4225 19.3392 15.8313 20.607 17.101V26.5209C19.3392 27.7473 16.9974 29.1053 14.302 29.1053C9.63152 29.1053 6.36804 26.1052 6.36804 21.8128C6.36804 17.4621 9.63152 14.4225 14.302 14.4225V14.4225ZM20.607 11.178C19.0194 9.95348 16.5572 8.7948 12.9194 8.7948C5.4332 8.7948 -0.000915527 14.2703 -0.000915527 21.813C-0.000915527 29.1788 5.55358 34.7333 12.9194 34.7333C15.8161 34.7333 18.5003 33.8944 20.607 32.3483V33.9208C20.607 39.6991 15.8519 40.3236 13.8091 40.3236C9.59766 40.3236 6.48654 38.3448 5.46329 37.694L4.80119 37.2726L3.3679 43.0641L4.15038 43.4704C5.83196 44.3545 8.96001 46.0003 13.8091 46.0003C21.8672 46.0003 26.8762 40.9744 26.8762 32.8825V9.24059H20.607V11.178Z" fill="white"/>
</g>
</g>
<path id="Fill 4" fill-rule="evenodd" clip-rule="evenodd" d="M52.6423 8.79541C49.7813 8.79541 47.684 9.90894 46.1379 12.279C45.3479 9.96725 43.5515 8.79541 40.7828 8.79541C38.4842 8.79541 36.0822 9.52523 35.3618 10.1779L35.1549 10.366L35.6026 15.5594L36.3832 15.0797C36.9512 14.7317 37.9387 14.3236 38.8548 14.3236C39.8103 14.3236 40.3652 14.7092 40.3652 16.6748V36.2162H46.6345L46.6232 21.0349C47.4809 16.7519 49.2057 14.6697 51.8993 14.6697C53.9777 14.6697 55.4976 15.3355 55.9227 15.992L56.6713 17.1488L57.9334 11.0356L57.8187 10.8457C57.1942 9.8243 55.3527 8.79541 52.6423 8.79541" fill="white"/>
<path id="Fill 6" fill-rule="evenodd" clip-rule="evenodd" d="M70.3884 19.8642C70.9621 16.8415 73.3886 13.9786 77.79 13.9786C82.2912 13.9786 83.8957 16.5969 83.8957 19.046C83.8957 19.2754 83.8806 19.5613 83.8543 19.8642H70.3884ZM89.3975 24.6043C89.7116 23.6074 89.9674 21.4913 89.9674 19.8868C89.9674 14.4057 86.7942 8.54834 77.8879 8.54834C69.7151 8.54834 63.7844 14.543 63.7844 22.8023C63.7844 31.6335 69.2222 36.9077 78.3336 36.9077C82.6016 36.9077 86.5365 35.6173 89.4125 33.2718L89.7775 32.9746L87.2118 28.2853L86.6908 28.6747C85.5867 29.5042 82.5771 31.4284 78.4822 31.4284C73.7968 31.4284 70.9734 29.2089 70.2831 24.9974H89.2734L89.3975 24.6043Z" fill="white"/>
<path id="Fill 8" fill-rule="evenodd" clip-rule="evenodd" d="M104.528 19.8642C105.101 16.8415 107.528 13.9786 111.929 13.9786C116.431 13.9786 118.035 16.5969 118.035 19.046C118.035 19.2754 118.02 19.5613 117.994 19.8642H104.528ZM123.537 24.6043C123.851 23.6074 124.107 21.4913 124.107 19.8868C124.107 14.4057 120.934 8.54834 112.027 8.54834C103.854 8.54834 97.9237 14.543 97.9237 22.8023C97.9237 31.6335 103.362 36.9077 112.473 36.9077C116.741 36.9077 120.676 35.6173 123.552 33.2718L123.917 32.9746L121.351 28.2853L120.83 28.6747C119.726 29.5042 116.716 31.4284 112.622 31.4284C107.936 31.4284 105.113 29.2089 104.422 24.9974H123.413L123.537 24.6043Z" fill="white"/>
<path id="Fill 10" fill-rule="evenodd" clip-rule="evenodd" d="M162.723 30.3751C161.86 30.9018 161.023 31.1821 160.3 31.1821C159.514 31.1821 158.79 30.8962 158.79 28.8309V20.7766C158.79 13.2753 154.938 8.7948 148.49 8.7948C145.115 8.7948 142.215 9.97793 140.159 12.158V9.24059H133.89V36.2155H140.159V19.7778C140.998 17.2215 143.334 14.6691 146.71 14.6691C150.403 14.6691 152.521 17.1839 152.521 21.5666V29.967C152.521 34.4418 154.49 36.7102 158.372 36.7102C160.543 36.7102 162.512 36.0613 163.633 35.4556L163.957 35.2788L163.504 29.8993L162.723 30.3751Z" fill="white"/>
<path id="Fill 12" fill-rule="evenodd" clip-rule="evenodd" d="M205.172 29.2132C203.931 30.1141 201.711 31.0828 199.772 31.0828C197.359 31.0828 196.187 29.6514 196.187 26.7058V14.4231H206.269V9.24105H196.187V2.66895H190.559L189.967 9.24105H185.074V14.4231H189.918V27.6933C189.918 33.4228 192.952 36.7088 198.241 36.7088C202.454 36.7088 205.592 35.3207 207.482 34.1545L207.892 33.9024L205.75 28.7956L205.172 29.2132Z" fill="white"/>
<path id="Fill 14" fill-rule="evenodd" clip-rule="evenodd" d="M245.056 30.3612C243.999 30.9443 243.291 31.1813 242.61 31.1813C241.826 31.1813 241.1 30.8973 241.1 28.832V20.7758C241.1 13.2745 237.25 8.79589 230.8 8.79589C227.39 8.79589 224.491 9.95645 222.471 12.0989V0.000488281H216.202V36.2148H222.471V19.7789C223.308 17.2207 225.646 14.6702 229.022 14.6702C232.713 14.6702 234.831 17.1831 234.831 21.5658V29.9681C234.831 34.441 236.8 36.7094 240.682 36.7094C242.925 36.7094 244.873 36.0586 245.953 35.4511L246.269 35.2724L245.819 29.9417L245.056 30.3612Z" fill="white"/>
<path id="Fill 16" fill-rule="evenodd" clip-rule="evenodd" d="M282.544 30.3686C281.571 30.931 280.806 31.1812 280.061 31.1812C279.354 31.1812 278.599 30.9987 278.599 28.8319V9.24158H272.33V26.68C271.798 27.7879 269.958 30.837 265.829 30.837C261.757 30.837 260.019 28.8018 260.019 24.0373V9.24158H253.75V24.7784C253.75 32.3605 257.487 36.7093 264.001 36.7093C267.739 36.7093 270.771 35.5695 272.847 33.3951C273.684 35.5958 275.475 36.7093 278.182 36.7093C280.001 36.7093 282.085 36.2165 283.492 35.4547L283.821 35.2779L283.305 29.9266L282.544 30.3686Z" fill="white"/>
<path id="Fill 18" fill-rule="evenodd" clip-rule="evenodd" d="M338.376 30.3685C337.445 30.9084 336.611 31.1811 335.893 31.1811C335.171 31.1811 334.431 30.9027 334.431 28.8318V20.7756C334.431 13.1633 330.786 8.79573 324.428 8.79573C320.467 8.79573 317.138 10.4792 315.129 13.4549C313.588 10.2892 310.735 8.74683 306.441 8.74683C303.181 8.74683 300.367 9.90926 298.358 12.0498V9.24152H292.089V36.2146H298.358V19.5812C298.77 18.3247 300.343 14.67 304.612 14.67C309.209 14.67 310.174 18.3943 310.174 21.5167V36.2146H316.444V19.5267C317.175 17.1623 319.152 14.67 322.551 14.67C327.432 14.67 328.162 18.9906 328.162 21.5656V29.9679C328.162 34.4408 330.131 36.7093 334.016 36.7093C335.835 36.7093 338.022 36.192 339.333 35.4509L339.653 35.2685L339.138 29.9265L338.376 30.3685Z" fill="white"/>
<path id="Fill 20" fill-rule="evenodd" clip-rule="evenodd" d="M368.031 22.7032C368.031 27.716 364.842 31.0829 360.097 31.0829C357.365 31.0829 355.01 29.7249 353.743 28.4985V17.1055C355.101 15.7794 357.429 14.4232 360.097 14.4232C364.842 14.4232 368.031 17.7506 368.031 22.7032M361.479 8.7954C358.518 8.7954 355.819 9.65689 353.743 11.2425V0H347.473V36.2161H353.743V34.1753C355.343 35.4788 357.822 36.709 361.479 36.709C369.114 36.709 374.448 30.9494 374.448 22.7033C374.448 14.5135 369.114 8.7954 361.479 8.7954" fill="white"/>
<g id="Group 24">
<mask id="mask1_12_8343" style="mask-type:alpha" maskUnits="userSpaceOnUse" x="383" y="28" width="9" height="9">
<path id="Clip 23" fill-rule="evenodd" clip-rule="evenodd" d="M383.145 28.7603H391.241V36.807H383.145V28.7603Z" fill="white"/>
</mask>
<g mask="url(#mask1_12_8343)">
<path id="Fill 22" fill-rule="evenodd" clip-rule="evenodd" d="M387.168 28.7603C384.647 28.7603 383.145 30.265 383.145 32.7855C383.145 35.3418 384.61 36.807 387.168 36.807C389.756 36.807 391.242 35.3418 391.242 32.7855C391.242 30.265 389.719 28.7603 387.168 28.7603" fill="white"/>
</g>
</g>
</g>
</svg>
