<svg width="325" height="203" viewBox="0 0 325 203" fill="none" xmlns="http://www.w3.org/2000/svg">
<path d="M33.3236 56.0336V48.7757C33.3236 47.9173 32.6212 47.2149 31.7628 47.2149H18.3397C14.6717 47.2149 13.345 45.9663 13.345 41.9081V1.56082C13.345 0.702371 12.6427 0 11.7842 0H1.56082C0.702371 0 0 0.702371 0 1.56082V41.9081C0 56.1116 8.97474 58.687 19.0421 58.687C23.1782 58.687 29.1874 58.2187 31.7628 57.6724C32.8553 57.4383 33.3236 57.0481 33.3236 56.0336Z" fill="#FFB400"/>
<path d="M78.0845 56.4238V14.9059C78.0845 14.0474 77.3041 13.267 76.4456 13.267H67.0026C66.1442 13.267 65.4418 14.0474 65.4418 14.9059V45.6541C62.7884 47.0588 60.3691 48.1514 58.1059 48.1514C53.3454 48.1514 52.3309 46.3565 52.3309 40.8936V14.9059C52.3309 14.0474 51.6285 13.267 50.7701 13.267H41.3271C40.4686 13.267 39.6882 14.0474 39.6882 14.9059V40.8936C39.6882 50.7268 42.1855 58.6089 53.5015 58.6089C58.4961 58.6089 61.9299 57.5944 66.2222 54.5508V56.4238C66.2222 57.2822 66.9246 57.9846 67.783 57.9846H76.5237C77.3821 57.9846 78.0845 57.2822 78.0845 56.4238Z" fill="#FFB400"/>
<path d="M116.505 55.7214V48.7757C116.505 47.9953 115.802 47.449 115.022 47.449C115.022 47.449 114.944 47.449 114.866 47.449C111.978 47.7612 109.793 47.9953 105.345 47.9953C101.833 47.9953 98.9453 45.8882 98.9453 38.9426V32.3871C98.9453 25.4414 101.833 23.3343 105.345 23.3343C109.793 23.3343 111.978 23.5684 114.866 23.8806C114.944 23.8806 115.022 23.8806 115.022 23.8806C115.802 23.8806 116.505 23.3343 116.505 22.5539V15.6082C116.505 14.4376 116.036 14.1255 114.866 13.8133C112.681 13.267 109.169 12.6427 104.486 12.6427C93.4824 12.6427 86.3026 19.6664 86.3026 32.3871V38.9426C86.3026 51.6633 93.4824 58.687 104.486 58.687C109.169 58.687 112.681 58.0626 114.866 57.5164C116.036 57.2042 116.505 56.892 116.505 55.7214Z" fill="#FFB400"/>
<path d="M158.93 56.4238V28.5631C158.93 17.1691 151.907 12.6427 140.669 12.6427C135.518 12.6427 130.055 13.5792 127.168 14.2815C126.231 14.5157 125.685 15.14 125.685 15.9984V22.3198C125.685 23.3343 126.309 23.7245 127.089 23.7245H127.48C129.899 23.4904 135.44 23.1782 140.435 23.1782C144.102 23.1782 146.288 24.1147 146.288 28.5631V31.3726H142.073C128.728 31.3726 122.875 35.4307 122.875 44.5615V45.2639C122.875 55.4092 129.431 58.687 136.22 58.687C140.903 58.687 144.024 57.3603 147.068 55.1751V56.4238C147.068 57.2822 147.77 57.9846 148.629 57.9846H157.369C158.228 57.9846 158.93 57.2822 158.93 56.4238ZM146.522 47.449C144.649 48.3855 142.464 49.1659 140.122 49.1659C136.845 49.1659 135.206 48.5416 135.206 45.2639V44.5615C135.206 40.7375 136.61 38.8645 142.073 38.8645H146.522V47.449Z" fill="#FFB400"/>
<path d="M199.553 45.5761C199.553 41.3618 198.148 37.3037 191.67 33.5577L181.993 28.0168C180.432 27.0803 179.574 26.456 179.574 25.2853C179.574 23.4904 180.667 23.0222 183.71 23.0222C187.69 23.0222 194.402 23.7245 196.665 24.0367C196.743 24.0367 196.821 24.0367 196.899 24.0367C197.68 24.0367 198.226 23.4904 198.226 22.5539V16.2326C198.226 15.2961 197.68 14.6717 196.743 14.4376C192.763 13.4231 189.017 12.6427 182.852 12.6427C172.082 12.6427 166.853 16.8569 166.853 24.7391C166.853 29.8117 169.429 33.7918 173.799 36.2891L183.944 42.1422C186.129 43.3909 186.832 44.2494 186.832 45.42C186.832 47.449 185.973 48.4636 182.227 48.4636C179.73 48.4636 173.175 47.9173 168.96 47.371C168.882 47.371 168.726 47.371 168.648 47.371C167.712 47.371 167.165 48.0734 167.165 48.8538V55.1751C167.165 56.1116 167.712 56.7359 168.648 56.9701C172.628 58.0626 178.559 58.687 182.852 58.687C194.246 58.687 199.553 52.9119 199.553 45.5761Z" fill="#FFB400"/>
<path d="M52.7558 129.686V75.5252C52.7558 73.8864 51.5852 72.7938 49.9464 72.7938H42.6105C40.9716 72.7938 39.879 73.5742 39.1767 74.9009L27.2364 97.1426C26.9242 97.767 26.6901 98.1572 26.3779 98.1572C26.0658 98.1572 25.8316 97.767 25.5195 97.1426L13.5792 74.9009C12.8768 73.5742 11.7842 72.7938 10.1454 72.7938H2.80948C1.17062 72.7938 0 73.8083 0 75.4472V129.686C0 130.544 0.702371 130.778 1.3267 130.778H11.6281C12.3305 130.778 12.8768 130.076 12.8768 129.218V96.6744C12.8768 96.1281 13.1109 96.0501 13.267 96.0501C13.5011 96.0501 13.6572 96.2062 13.8913 96.5964L20.915 109.473C21.4613 110.41 22.2417 110.8 23.2563 110.8H29.4996C30.5141 110.8 31.2945 110.41 31.8408 109.473L38.8645 96.5964C39.0986 96.2062 39.2547 96.0501 39.4888 96.0501C39.6449 96.0501 39.879 96.1281 39.879 96.6744V129.218C39.879 130.076 40.4253 130.778 41.1277 130.778H51.4291C52.0535 130.778 52.7558 130.544 52.7558 129.686Z" fill="white"/>
<path d="M100.783 111.19V105.727C100.783 93.3186 93.9153 85.4365 81.2726 85.4365C68.6299 85.4365 61.6842 93.3186 61.6842 105.727V111.19C61.6842 123.599 68.6299 131.481 81.2726 131.481C93.9153 131.481 100.783 123.599 100.783 111.19ZM88.2182 111.19C88.2182 117.511 85.799 120.789 81.2726 120.789C76.7462 120.789 74.2489 117.511 74.2489 111.19V105.727C74.2489 99.4058 76.7462 96.2062 81.2726 96.2062C85.799 96.2062 88.2182 99.4058 88.2182 105.727V111.19Z" fill="white"/>
<path d="M147.285 129.14V103.152C147.285 93.3186 144.788 85.4365 133.472 85.4365C128.477 85.4365 125.043 86.451 120.751 89.4946V87.6216C120.751 86.7632 120.049 86.0608 119.19 86.0608H110.45C109.591 86.0608 108.889 86.7632 108.889 87.6216V129.14C108.889 129.998 109.669 130.778 110.528 130.778H119.971C120.829 130.778 121.531 129.998 121.531 129.14V98.3913C124.185 96.9866 126.604 95.894 128.867 95.894C133.628 95.894 134.642 97.6889 134.642 103.152V129.14C134.642 129.998 135.345 130.778 136.203 130.778H145.646C146.505 130.778 147.285 129.998 147.285 129.14Z" fill="white"/>
<path d="M181.437 129.296V123.208C181.437 122.35 180.812 121.882 179.798 121.882H175.974C173.632 121.882 173.398 121.335 173.398 118.214V95.5038H179.798C180.656 95.5038 181.359 94.8014 181.359 93.943V87.6216C181.359 86.7632 180.656 86.0608 179.798 86.0608H173.398V77.7884C173.398 77.008 172.774 76.4617 171.994 76.4617C171.916 76.4617 171.838 76.4617 171.759 76.4617L162.238 78.1006C161.38 78.2567 160.678 78.803 160.678 79.6614V86.0608H154.434C153.576 86.0608 152.795 86.8412 152.795 87.6997V92.8504C152.795 93.7088 153.576 94.3332 154.434 94.4892L160.678 95.5038V118.136C160.678 129.218 165.204 131.481 173.789 131.481C176.052 131.481 177.613 131.247 179.954 130.856C180.89 130.7 181.437 130.076 181.437 129.296Z" fill="white"/>
<path d="M226.38 110.488V105.961C226.38 94.1771 219.903 85.4365 207.104 85.4365C194.696 85.4365 187.36 93.3967 187.36 105.961V111.424C187.36 126.486 197.505 131.481 206.948 131.481C213.738 131.481 217.952 130.856 222.947 129.608C224.273 129.296 224.585 128.749 224.585 127.501V121.57C224.585 120.711 223.961 120.321 223.103 120.321C223.025 120.321 222.947 120.321 222.869 120.321C219.747 120.633 212.801 121.023 207.885 121.023C201.719 121.023 199.846 116.965 199.846 112.517V112.361H224.742C225.756 112.361 226.38 111.658 226.38 110.488ZM214.05 104.557H199.846V104.244C199.846 98.5474 202.734 95.5818 207.026 95.5818C211.397 95.5818 214.05 98.4693 214.05 104.244V104.557Z" fill="white"/>
<path d="M247.83 79.4273V72.1695C247.83 71.311 247.127 70.6086 246.269 70.6086H236.123C235.265 70.6086 234.563 71.311 234.563 72.1695V79.4273C234.563 80.2858 235.265 80.9881 236.123 80.9881H246.269C247.127 80.9881 247.83 80.2858 247.83 79.4273ZM247.517 129.218V87.6216C247.517 86.7632 246.815 86.0608 245.957 86.0608H236.436C235.577 86.0608 234.875 86.7632 234.875 87.6216V129.218C234.875 130.076 235.577 130.778 236.436 130.778H245.957C246.815 130.778 247.517 130.076 247.517 129.218Z" fill="white"/>
<path d="M281.702 94.4112V86.9973C281.702 86.1388 281 85.4365 280.142 85.4365C276.396 85.4365 272.494 86.7632 269.606 89.1824V87.6216C269.606 86.7632 268.904 86.0608 268.045 86.0608H258.758C257.9 86.0608 257.198 86.7632 257.198 87.6216V129.14C257.198 129.998 257.978 130.778 258.836 130.778H268.279C269.138 130.778 269.84 129.998 269.84 129.14V98.6254C272.728 97.0646 276.084 95.894 279.908 95.894H280.532C281.234 95.894 281.702 95.1136 281.702 94.4112Z" fill="white"/>
<path d="M324.542 111.19V105.727C324.542 93.3186 317.674 85.4365 305.031 85.4365C292.389 85.4365 285.443 93.3186 285.443 105.727V111.19C285.443 123.599 292.389 131.481 305.031 131.481C317.674 131.481 324.542 123.599 324.542 111.19ZM311.977 111.19C311.977 117.511 309.558 120.789 305.031 120.789C300.505 120.789 298.008 117.511 298.008 111.19V105.727C298.008 99.4058 300.505 96.2062 305.031 96.2062C309.558 96.2062 311.977 99.4058 311.977 105.727V111.19Z" fill="white"/>
<path d="M104.236 167.313L97.8873 162.961L68.2657 182.983C66.9041 183.903 65.7888 185.143 65.0175 186.594C64.2462 188.045 63.8424 189.663 63.8415 191.307V199.095C63.8418 199.803 64.0346 200.497 64.3992 201.103C64.7639 201.71 65.2866 202.205 65.9114 202.537C66.5362 202.869 67.2396 203.025 67.9461 202.988C68.6527 202.951 69.3358 202.722 69.9222 202.326L104.205 179.176C105.168 178.517 105.956 177.633 106.502 176.601C107.047 175.569 107.334 174.42 107.337 173.253C107.34 172.085 107.059 170.935 106.519 169.9C105.979 168.866 105.195 167.978 104.236 167.313V167.313Z" fill="url(#paint0_linear_12_8328)"/>
<path d="M104.236 179.094L97.8873 183.436L89.1007 189.362C90.062 188.7 90.848 187.814 91.391 186.781C91.934 185.747 92.2177 184.598 92.2177 183.43C92.2177 182.263 91.934 181.113 91.391 180.08C90.848 179.047 90.062 178.161 89.1007 177.499L68.2657 163.434C66.9041 162.514 65.7888 161.274 65.0175 159.823C64.2462 158.372 63.8424 156.754 63.8415 155.11V147.322C63.8418 146.614 64.0346 145.92 64.3992 145.314C64.7639 144.707 65.2866 144.212 65.9114 143.88C66.5362 143.548 67.2396 143.392 67.9461 143.429C68.6527 143.466 69.3358 143.695 69.9222 144.091L104.205 167.241C105.166 167.901 105.952 168.784 106.496 169.815C107.041 170.846 107.327 171.993 107.33 173.159C107.333 174.325 107.053 175.474 106.514 176.508C105.975 177.541 105.193 178.429 104.236 179.094V179.094Z" fill="url(#paint1_linear_12_8328)"/>
<path d="M97.8876 162.961L82.7526 173.25L68.2762 163.475C66.9146 162.555 65.7993 161.315 65.028 159.864C64.2567 158.413 63.8529 156.795 63.852 155.152V147.322C63.8536 146.616 64.0467 145.924 64.4108 145.319C64.7749 144.714 65.2963 144.22 65.9195 143.888C66.5426 143.556 67.2441 143.4 67.949 143.436C68.654 143.472 69.3361 143.698 69.9224 144.091" fill="url(#paint2_linear_12_8328)"/>
<path d="M3.08086 179.101L9.42909 183.432L39.0919 163.431C40.4554 162.513 41.5722 161.273 42.3437 159.822C43.1153 158.37 43.5179 156.751 43.5161 155.107V147.329C43.517 146.619 43.3246 145.923 42.9594 145.316C42.5943 144.708 42.0703 144.211 41.4438 143.878C40.8173 143.546 40.112 143.391 39.4039 143.43C38.6958 143.468 38.0116 143.699 37.4251 144.098L3.15289 167.248C2.1896 167.904 1.40009 168.785 0.852172 169.814C0.304251 170.843 0.0142966 171.99 0.00721306 173.155C0.000129533 174.321 0.276129 175.471 0.811504 176.507C1.34688 177.542 2.12563 178.432 3.08086 179.101V179.101Z" fill="url(#paint3_linear_12_8328)"/>
<path d="M3.08124 167.32L9.47062 162.968L18.2573 157.041C17.296 157.703 16.51 158.589 15.967 159.622C15.424 160.656 15.1403 161.806 15.1403 162.973C15.1403 164.14 15.424 165.29 15.967 166.323C16.51 167.356 17.296 168.242 18.2573 168.904V168.904L39.0922 182.99C40.4545 183.909 41.5703 185.149 42.3417 186.6C43.1131 188.051 43.5165 189.67 43.5164 191.313V199.102C43.5161 199.81 43.3234 200.504 42.9587 201.11C42.5941 201.716 42.0714 202.212 41.4466 202.544C40.8218 202.876 40.1184 203.032 39.4119 202.995C38.7053 202.957 38.0222 202.729 37.4357 202.333L3.15327 179.183C2.18789 178.527 1.39649 177.646 0.847204 176.616C0.297921 175.586 0.00721944 174.438 0.000132754 173.27C-0.00695394 172.103 0.269786 170.951 0.806524 169.915C1.34326 168.878 2.12391 167.988 3.08124 167.32V167.32Z" fill="url(#paint4_linear_12_8328)"/>
<path d="M9.47052 183.443L24.6054 173.257L39.0921 182.99C40.4544 183.909 41.5702 185.149 42.3416 186.6C43.113 188.052 43.5164 189.67 43.5163 191.314V199.102C43.516 199.81 43.3233 200.504 42.9586 201.11C42.594 201.716 42.0713 202.212 41.4465 202.544C40.8217 202.876 40.1183 203.032 39.4118 202.995C38.7052 202.957 38.0221 202.729 37.4356 202.333" fill="url(#paint5_linear_12_8328)"/>
<path d="M154.507 178.088V169.958C154.507 156.661 146.944 150.043 134.403 150.043C129.172 150.043 123.564 150.548 120.98 150.989C119.782 151.178 119.152 151.745 119.152 153.194V194.851C119.152 196.301 119.782 196.868 120.98 197.057C123.564 197.498 129.172 198.002 134.403 198.002C146.944 198.002 154.507 191.385 154.507 178.088ZM143.73 178.088C143.73 186.596 140.075 188.864 134.403 188.864C132.828 188.864 130.811 188.801 129.929 188.738V159.308C130.811 159.244 132.828 159.181 134.403 159.181C140.075 159.181 143.73 161.45 143.73 169.958V178.088Z" fill="#FFB400"/>
<path d="M190.721 195.86V189.999C190.721 189.305 190.154 188.738 189.461 188.738H176.668C173.706 188.738 172.634 187.73 172.634 184.453V177.773H188.957C189.65 177.773 190.217 177.205 190.217 176.512V170.525C190.217 169.832 189.65 169.265 188.957 169.265H172.634V163.53C172.634 160.253 173.706 159.244 176.668 159.244H189.461C190.154 159.244 190.721 158.677 190.721 157.984V152.123C190.721 151.304 190.343 150.989 189.461 150.863C187.255 150.548 184.104 150.043 177.298 150.043C169.168 150.043 161.921 152.06 161.921 163.53V184.453C161.921 195.923 169.105 198.002 177.235 198.002C184.041 198.002 187.255 197.498 189.461 197.183C190.343 197.057 190.721 196.679 190.721 195.86Z" fill="#FFB400"/>
<path d="M235.723 151.619C235.723 150.989 235.282 150.611 234.652 150.611H225.829C225.199 150.611 224.757 151.115 224.631 151.745L216.754 188.108C216.628 188.801 216.439 189.053 215.871 189.053C215.304 189.053 215.115 188.801 214.989 188.108L207.112 151.745C206.985 151.115 206.481 150.611 205.851 150.611H197.091C196.461 150.611 195.957 151.052 195.957 151.619C195.957 151.745 196.02 151.808 196.02 151.934L205.41 191.007C206.859 197.057 211.523 198.002 215.871 198.002C220.22 198.002 224.82 197.057 226.27 191.007L235.66 151.934C235.66 151.808 235.723 151.682 235.723 151.619Z" fill="#FFB400"/>
<defs>
<linearGradient id="paint0_linear_12_8328" x1="65.7758" y1="201.657" x2="91.1173" y2="176.131" gradientUnits="userSpaceOnUse">
<stop stop-color="#FFB400"/>
<stop offset="1" stop-color="#FFB400"/>
</linearGradient>
<linearGradient id="paint1_linear_12_8328" x1="61.3208" y1="148.114" x2="101.046" y2="182.016" gradientUnits="userSpaceOnUse">
<stop/>
<stop offset="1" stop-color="#FFB400"/>
</linearGradient>
<linearGradient id="paint2_linear_12_8328" x1="63.1215" y1="146.211" x2="91.0969" y2="170.091" gradientUnits="userSpaceOnUse">
<stop stop-color="#FFB400"/>
<stop offset="1" stop-color="#FFB400"/>
</linearGradient>
<linearGradient id="paint3_linear_12_8328" x1="41.5818" y1="144.767" x2="16.2403" y2="170.293" gradientUnits="userSpaceOnUse">
<stop stop-color="#FFB400"/>
<stop offset="1" stop-color="#FFB400"/>
</linearGradient>
<linearGradient id="paint4_linear_12_8328" x1="46.0372" y1="198.31" x2="6.31195" y2="164.398" gradientUnits="userSpaceOnUse">
<stop/>
<stop offset="1" stop-color="#FFB400"/>
</linearGradient>
<linearGradient id="paint5_linear_12_8328" x1="44.2366" y1="200.203" x2="16.2612" y2="176.333" gradientUnits="userSpaceOnUse">
<stop stop-color="#FFB400"/>
<stop offset="1" stop-color="#FFB400"/>
</linearGradient>
</defs>
</svg>
