<svg width="258" height="79" viewBox="0 0 258 79" fill="none" xmlns="http://www.w3.org/2000/svg">
<g clip-path="url(#clip0_12_8323)">
<path d="M254.717 75.3341C251.042 75.957 246.575 77.0783 232.911 77.0783C217.995 77.0783 206.391 72.7358 206.391 51.6638V25.5909C206.391 4.51903 217.978 0.176514 232.911 0.176514C246.575 0.176514 251.042 1.29774 254.717 1.90284C256.431 2.15201 257.008 2.77491 257.008 4.50124V12.4387C257.008 13.8091 255.97 14.9126 254.717 14.9126H231.296C224.637 14.9126 222.231 17.3864 222.231 25.5731V30.5207H253.332C254.602 30.5207 255.624 31.642 255.624 32.9946V41.9109C255.624 43.2813 254.585 44.3847 253.332 44.3847H222.231V51.6283C222.231 59.815 224.637 62.2888 231.296 62.2888H254.717C255.986 62.2888 257.008 63.4099 257.008 64.7626V72.7002C257.008 74.4621 256.431 75.085 254.717 75.3341Z" fill="white"/>
<path d="M119.743 4.4123L108.403 73.1274C108.172 74.3909 107.25 75.5122 106.08 75.5122H104.926C103.887 75.5122 103.294 74.6402 103.294 73.6257C103.294 73.3765 103.294 73.2519 103.294 73.1274L114.634 4.4123C114.865 3.16649 115.787 2.02747 116.958 2.02747H118.111C119.15 2.02747 119.743 2.89953 119.743 3.91398C119.743 4.14534 119.743 4.28772 119.743 4.4123Z" fill="white"/>
<path d="M90.7348 4.12715L81.3563 65.4742C80.318 73.2871 76.9886 75.5118 71.022 75.5118H64.8246C59.6657 75.5118 56.8967 72.7888 55.2979 65.5988L46.2327 34.7562C46.0019 33.6349 46.0019 33.3858 45.5405 33.3858C45.0789 33.3858 44.9636 33.6349 44.7328 34.7562L35.6676 65.5988C34.0523 72.7888 31.2998 75.5118 26.1409 75.5118H19.9435C13.977 75.5118 10.6475 73.2871 9.60915 65.4742L0 4.12715C0 4.00257 0 3.87799 0 3.75341C0 2.63219 0.923006 2.00928 1.94491 2.00928H14.1088C15.0318 2.00928 15.9383 2.88135 16.0537 4.23393L23.1411 58.64C23.2564 59.7613 23.2564 60.4909 23.718 60.4909C24.1794 60.4909 24.1794 59.7434 24.4102 58.64L34.283 25.1991C34.9753 22.2269 36.5741 19.6285 41.5188 19.6285H49.4467C54.3749 19.6285 55.9902 22.2269 56.6825 25.1991L66.5554 58.64C66.7861 59.7613 66.7861 60.4909 67.2475 60.4909C67.7091 60.4909 67.7091 59.7434 67.8244 58.64L74.6645 4.25173C74.78 2.88135 75.703 2.02708 76.6094 2.02708H88.7734C89.8118 2.02708 90.7183 2.64998 90.7183 3.77121C90.7348 3.87799 90.7348 4.00257 90.7348 4.12715Z" fill="white"/>
<path d="M188.969 2.02747H187.568C186.414 2.02747 185.591 3.14869 185.36 4.4123L174.827 69.2476C174.712 69.7458 174.135 70.2442 174.02 70.2442C174.004 70.2442 173.987 70.2264 173.97 70.2264C173.937 70.2264 173.921 70.2086 173.888 70.2086C173.541 70.1375 173.427 69.817 173.328 69.3721L154.357 5.90726C153.664 3.77159 152.147 2.02747 149.131 2.02747C148.983 2.02747 148.819 2.02747 148.653 2.04526V2.02747C148.588 2.02747 148.505 2.04526 148.44 2.04526V2.02747C146.132 2.29443 143.479 3.91398 142.736 8.13191L132.023 73.1274C132.023 73.2519 132.023 73.3765 132.023 73.6257C132.023 74.6223 132.599 75.5122 133.655 75.5122H134.825C135.979 75.5122 136.918 74.3909 137.149 73.1274L147.863 8.13191C147.962 7.598 148.225 7.34884 148.455 7.27765V7.29544C148.489 7.27765 148.539 7.25985 148.571 7.25985C148.604 7.25985 148.638 7.27765 148.687 7.27765V7.29544C149.115 7.34884 149.511 7.68698 149.626 8.14971L168.597 71.4722C169.52 74.6046 171.036 75.4766 173.921 75.4943H173.937C173.954 75.4943 173.987 75.4943 174.004 75.4943C176.888 75.4587 179.409 73.2163 180.102 69.2297L190.634 4.3945C190.634 4.26991 190.634 4.02076 190.634 3.89618C190.601 2.89953 190.14 2.02747 188.969 2.02747Z" fill="white"/>
</g>
<defs>
<clipPath id="clip0_12_8323">
<rect width="258" height="78.4118" fill="white" transform="translate(0 0.176514)"/>
</clipPath>
</defs>
</svg>
