<svg width="393" height="118" viewBox="0 0 393 118" fill="none" xmlns="http://www.w3.org/2000/svg">
<path d="M101.782 1.35871C101.432 0.851726 100.59 0 98.9071 0H37.0452C31.3061 0 23.676 1.05959 23.676 10.236V18.4389H20.6189C9.23214 18.4389 0 27.6711 0 39.0579V108.925C0 118 8.14213 118 10.819 118H28.3707V77.1525C28.3707 73.0713 29.2731 69.4109 40.1834 69.4109H71.7531C74.3438 69.4109 76.0168 68.3868 77.0207 66.1814L83.0031 51.4181C83.6013 49.816 83.0994 48.7209 82.7445 48.214C82.3947 47.707 81.5531 46.8603 79.875 46.8603H28.3707V33.1617H23.676V51.555H77.8825L72.7265 64.2802C72.544 64.6807 72.4984 64.7162 71.7481 64.7162H40.1783C32.4925 64.7162 23.671 66.1307 23.671 77.1525V113.305H10.819C5.13573 113.305 4.69465 111.49 4.69465 108.925V40.1225C4.69465 30.7383 12.2994 23.1336 21.6836 23.1336H90.552C93.1478 23.1336 94.8208 22.1095 95.8246 19.9041L102.035 4.5679C102.633 2.96583 102.131 1.87076 101.782 1.35871ZM91.5254 18.0029C91.3429 18.4034 91.3024 18.4389 90.547 18.4389H28.3707V10.236C28.3707 7.20421 29.0247 4.69464 37.0452 4.69464H96.9146L91.5254 18.0029Z" fill="#ED145B"/>
<path d="M279.682 42.3127H237.024C236.01 42.3127 235.098 42.9262 234.717 43.8641L233.455 46.982H253.07V87.7586C253.07 88.5799 253.07 88.9906 255.073 88.9906H260.061V46.982H276.107C277.121 46.982 278.034 46.3686 278.414 45.4307L279.682 42.3127Z" fill="white"/>
<path d="M389.94 85.9283C392.257 83.3883 392.526 79.9612 392.526 77.5986C392.526 73.7709 391.4 70.9267 389.185 69.1422L389.18 69.1371C387.654 67.9051 385.291 66.9115 381.276 65.8113L360.064 60.128C355.704 59.0025 353.665 56.8428 353.665 53.3446C353.665 52.5284 353.665 50.0391 355.714 48.508C357.437 47.1037 359.79 47.1037 361.057 47.1037H383.593C384.399 47.1037 385.159 46.7133 385.626 46.0491L388.267 42.3076H357.316C353.523 42.3076 350.644 43.1137 348.504 44.7716C345.67 47.0276 345.275 50.0188 345.275 52.9086C345.275 55.3776 345.544 58.9316 347.876 61.3194C350.203 63.7073 353.97 64.5641 354.01 64.5743L354.203 64.6199L377.164 70.7392C381.742 71.9407 383.785 74.0345 383.785 77.5276C383.785 83.3326 379.557 84.1995 377.042 84.1995H351.881C351.075 84.1995 350.314 84.5899 349.853 85.249L347.212 88.9905H380.5C383.978 88.9905 387.329 88.7573 389.94 85.9283Z" fill="white"/>
<path d="M188.673 84.3212V70.9217C188.673 69.0154 190.215 67.4742 192.121 67.4742H208.882C209.885 67.4742 210.793 66.8658 211.168 65.933L212.334 63.0584H188.673V46.982H217.191C218.205 46.982 219.118 46.3685 219.498 45.4256L220.76 42.3076H184.81C181.677 42.3076 181.677 43.1188 181.677 44.0516V87.7535C181.677 88.5748 181.677 88.9854 183.68 88.9854H217.186C218.2 88.9854 219.112 88.372 219.493 87.429L220.755 84.3111H188.673V84.3212Z" fill="white"/>
<path d="M132.799 42.3131C129.666 42.3131 129.666 43.1243 129.666 44.0571V87.759C129.666 88.5803 129.666 88.9909 131.673 88.9909H136.657V70.9221C136.657 69.0158 138.198 67.4746 140.104 67.4746H156.875C157.874 67.4746 158.777 66.8662 159.152 65.9435L160.318 63.0588H136.657V46.9824H165.2C166.199 46.9824 167.101 46.374 167.476 45.4513L168.749 42.3131H132.799V42.3131Z" fill="white"/>
<path d="M299.773 84.3212V70.9217C299.773 69.0154 301.315 67.4742 303.221 67.4742H319.977C320.986 67.4742 321.898 66.8607 322.273 65.9279L323.434 63.0584H299.773V46.982H328.306C329.31 46.982 330.218 46.3736 330.593 45.4408L331.86 42.3076H295.91C292.777 42.3076 292.777 43.1188 292.777 44.0516V87.7535C292.777 88.5748 292.777 88.9854 294.78 88.9854H328.286C329.3 88.9854 330.213 88.372 330.593 87.429L331.855 84.3111H299.773V84.3212Z" fill="white"/>
</svg>
